<svg xmlns="http://www.w3.org/2000/svg" xmlns:xlink="http://www.w3.org/1999/xlink" width="960" height="470" viewBox="0 0 960 470"><defs><clipPath id="b"><rect width="960" height="470"/></clipPath></defs><g id="a" clip-path="url(#b)"><rect width="960" height="470" fill="#fff"/><g transform="translate(20.72 -27.92)"><g transform="translate(31.667 65.811)"><g transform="translate(532.312 321.787)"><circle cx="35.281" cy="35.281" r="35.281" fill="#dedede"/></g><g transform="translate(48.144 52.282)"><circle cx="51.599" cy="51.599" r="51.599" fill="#dedede"/></g><g transform="translate(297.788 136.127)"><circle cx="27.698" cy="27.698" r="27.698" fill="#dedede"/></g><g transform="translate(0 150.566)"><circle cx="24.072" cy="24.072" r="24.072" fill="#dedede"/></g><g transform="translate(254.683 46.031)"><circle cx="24.072" cy="24.072" r="24.072" fill="#dedede"/></g><g transform="translate(722.081 169.066)"><circle cx="26.889" cy="26.889" r="26.889" fill="#dedede"/></g><g transform="translate(747.586 32.161)"><circle cx="30.771" cy="30.771" r="30.771" fill="#dedede"/></g><g transform="translate(757.518 245.368)"><circle cx="39.009" cy="39.009" r="39.009" fill="#dedede"/></g><g transform="translate(159.17 27.551)"><path d="M160.9,135.019a12.442,12.442,0,0,1-21.921-7.659c-.328-10.417-8.406-31.735-17.942-42.584a12.442,12.442,0,1,1,18.691-16.429c12.53,14.251,23.576,40.916,24.124,58.227A12.387,12.387,0,0,1,160.9,135.019Z" transform="translate(-117.935 -64.118)" fill="#dedede"/></g><g transform="translate(696.676 353.854)"><path d="M415.441,293.746a12.444,12.444,0,0,1,3.681-22.929c10.2-2.157,29.761-13.862,38.76-25.158a12.443,12.443,0,0,1,19.466,15.506c-11.825,14.842-36.128,30.412-53.072,34A12.4,12.4,0,0,1,415.441,293.746Z" transform="translate(-409.254 -240.969)" fill="#dedede"/></g><g transform="translate(13.172 281.01)"><path d="M110.552,242.782a12.442,12.442,0,0,1-22.178,6.878c-6.461-8.179-25.632-20.514-39.75-23.564a12.443,12.443,0,0,1,5.255-24.326c18.55,4.008,43.289,18.875,54.024,32.464A12.4,12.4,0,0,1,110.552,242.782Z" transform="translate(-38.806 -201.489)" fill="#dedede"/></g><g transform="translate(28.678 193.72)"><path d="M56.228,214.234a13.248,13.248,0,0,1-3.183-1.563,13.16,13.16,0,0,1-3.6-18.261c16.619-24.779,35.649-34.09,50.371-39.435a13.161,13.161,0,0,1,8.98,24.743c-12.222,4.437-25.224,11.063-37.488,29.353A13.2,13.2,0,0,1,56.228,214.234ZM106.6,160.4a7.267,7.267,0,0,0-4.79.07C87.925,165.515,69.976,174.3,54.3,197.669a7.312,7.312,0,1,0,12.146,8.144C79.648,186.128,93.643,179,106.8,174.22a7.312,7.312,0,0,0,.6-13.5A7.24,7.24,0,0,0,106.6,160.4Z" transform="translate(-47.21 -154.179)" fill="#dedede"/></g><g transform="translate(22.016 340.554)"><path d="M119.346,271.261a13.164,13.164,0,0,1-15.235,14.382c-29.436-4.865-45.791-18.331-56.753-29.518A13.161,13.161,0,0,1,66.16,237.7c9.1,9.288,20.517,18.379,42.243,21.969A13.2,13.2,0,0,1,119.346,271.261ZM49.49,247.7a7.258,7.258,0,0,0,2.048,4.329c10.338,10.552,25.765,23.254,53.528,27.84a7.311,7.311,0,1,0,2.384-14.427C84.065,261.58,71.778,251.8,61.983,241.8a7.311,7.311,0,0,0-12.534,5.041A7.438,7.438,0,0,0,49.49,247.7Z" transform="translate(-43.6 -233.76)" fill="#dedede"/></g><g transform="translate(342.632 14.456)"><path d="M231.3,129.073a12.579,12.579,0,0,1-3.36-.065,12.481,12.481,0,0,1-10.423-14.242c4.329-27.955,16.938-43.592,27.44-54.092A12.479,12.479,0,0,1,262.6,78.324c-8.72,8.716-17.228,19.628-20.423,40.261A12.51,12.51,0,0,1,231.3,129.073Zm21.663-66.46A6.882,6.882,0,0,0,248.88,64.6c-9.906,9.9-21.8,24.652-25.881,51.018a6.932,6.932,0,1,0,13.7,2.122c3.437-22.207,12.6-33.951,21.982-43.335a6.934,6.934,0,0,0-4.9-11.836A7.069,7.069,0,0,0,252.963,62.613Z" transform="translate(-217.368 -57.021)" fill="#dedede"/></g><g transform="translate(28.678)"><path d="M52.322,90.045A12.545,12.545,0,0,1,49.9,87.711,12.479,12.479,0,0,1,51.95,70.183C74.137,52.634,94.017,49.749,108.857,49.2a12.479,12.479,0,1,1,.932,24.94c-12.321.459-25.981,2.672-42.357,15.624A12.513,12.513,0,0,1,52.322,90.045Zm61.085-33.983a6.869,6.869,0,0,0-4.343-1.325c-14,.522-32.746,3.244-53.673,19.8a6.933,6.933,0,0,0-1.137,9.738,6.92,6.92,0,0,0,9.738,1.137C81.617,71.467,96.32,69.087,109.581,68.592a6.934,6.934,0,0,0,3.827-12.53Z" transform="translate(-47.211 -49.186)" fill="#dedede"/></g><g transform="translate(730.981 114.997)"><path d="M428.2,126.942a12.48,12.48,0,0,1,12.519-15.423c28.274.891,45.332,11.5,57.033,20.646a12.479,12.479,0,0,1-15.368,19.665c-9.716-7.592-21.582-14.709-42.452-15.366A12.512,12.512,0,0,1,428.2,126.942Zm68.6,13.4a6.878,6.878,0,0,0-2.465-3.812c-11.035-8.624-27.125-18.632-53.793-19.471a6.932,6.932,0,1,0-.435,13.857c22.462.709,35.234,8.367,45.692,16.539a6.933,6.933,0,0,0,11-7.113Z" transform="translate(-427.846 -111.513)" fill="#dedede"/></g><g transform="translate(638.312 305.338)"><path d="M344.583,176.761a9.362,9.362,0,0,1,4.091-7.161c23.392-15.893,54.45-16.482,70.882-15.419a9.382,9.382,0,1,1-1.212,18.726c-14.03-.908-40.368-.53-59.126,12.214a9.381,9.381,0,0,1-14.635-8.36Z" transform="translate(-344.563 -153.847)" fill="#dedede"/></g><g transform="translate(514.234 282.681)"><path d="M328.451,238.554a18.08,18.08,0,1,1,18.08-18.08A18.1,18.1,0,0,1,328.451,238.554Zm0-30.516a12.436,12.436,0,1,0,12.436,12.436A12.451,12.451,0,0,0,328.451,208.038Z" transform="translate(-310.373 -202.394)" fill="#dedede"/></g><g transform="translate(132.201 174.251)"><path d="M124.913,186.817a21.595,21.595,0,1,1,21.593-21.595A21.619,21.619,0,0,1,124.913,186.817Zm0-36.448a14.854,14.854,0,1,0,14.853,14.853A14.872,14.872,0,0,0,124.913,150.369Z" transform="translate(-103.318 -143.627)" fill="#dedede"/></g><g transform="translate(809.128 165.714)"><path d="M323.8,178.623a30.242,30.242,0,1,1,30.239-30.243A30.277,30.277,0,0,1,323.8,178.623Zm0-51.044a20.8,20.8,0,1,0,20.8,20.8A20.826,20.826,0,0,0,323.8,127.578Z" transform="translate(-293.554 -118.139)" fill="#dedede"/></g><g transform="translate(245.417 217.717)"><path d="M192.329,222.486a27.65,27.65,0,1,1,27.647-27.65A27.681,27.681,0,0,1,192.329,222.486Zm0-46.669a19.019,19.019,0,1,0,19.017,19.019A19.041,19.041,0,0,0,192.329,175.816Z" transform="translate(-164.679 -167.185)" fill="#dedede"/></g></g><g transform="translate(132.934 49.373)"><g transform="translate(558.632 193.521)"><path d="M415.127,193.145c2.375,1.814,17.078,14.076,16.078,28.477-.679,9.938-4.985,14.772-19.9,14.772-14.89,0-21.624-3.629-21.98-16.179-.373-12.535,12.347-23.982,14.536-27.069V145.162h11.262Z" transform="translate(-389.321 -145.162)" fill="#fff"/></g><g transform="translate(563.814 69.166)"><path d="M422.115,166.331H392.129l5.919-3.816V81.648h-1.339a1.942,1.942,0,0,1,0-3.884h21.556a1.942,1.942,0,1,1,0,3.884h-1.34v80.868Z" transform="translate(-392.129 -77.764)" fill="#fff"/></g><g transform="translate(534.099 7.853)"><path d="M420.918,64.836C434.537,78.658,431.094,91,427.465,93.549c-3.646,2.544-34.615,1.816-39.162,0-4.528-1.814-6.36-9.176-4.817-15.264,1.375-5.426,8.175-12.347,6.174-19.08-2-6.716-9.989-10.906-13.635-11.8,0,0,.05-1.8,0-2.867C389.779,45.806,407.366,51.114,420.918,64.836Z" transform="translate(-376.024 -44.533)" fill="#fff"/></g><g transform="translate(489.306 200.341)"><path d="M394.826,227.148c0,3.153-3.714,6.207-21.9,6.207-16.825,0-21.167-2.985-21.183-6.938-.017-5.6,10.633-20.217,12.093-23.49s4.544-8.819,4.544-14.536V148.858h11.177v39.535c0,5.258,1.9,10.7,3.358,14.467C384.327,206.507,394.826,222.043,394.826,227.148Z" transform="translate(-351.747 -148.858)" fill="#fff"/></g><g transform="translate(465.119 163.471)"><path d="M398.95,146.715c1.681,1.017,2,2.019,1.391,2.884a2.929,2.929,0,0,1-3.172.712c2.221,1.118,3.257,2.34,2.832,3.391-.559,1.375-4.12,1.544-6.037.764.2.1.389.2.526.288,1.34.865,1.917,2.273,0,2.629-1.9.373-10.737-1.153-16.045-.865-4.376.238-15.74,1.085-22.372,5.53l-.017.017c-2.917-4.02-9.973-12.89-17.419-16.4,2.257-4.782,9.482-11.534,13.84-13.722,4.36-2.17,10.211-3.816,11.449-2.714,1.221,1.087-1.781,4.768-5.6,6.124a12.836,12.836,0,0,0-5.275,3.663c2.255-.542,17.894-2.085,24.27-1.611,8.583.627,21.268,3.528,23.305,6.31C402.343,146.071,400.171,147.29,398.95,146.715Z" transform="translate(-338.638 -128.875)" fill="#fff"/></g><g transform="translate(472.294 79.224)"><path d="M383.335,108.487a28.774,28.774,0,0,1,16.807,26.152c0,15.91-12.906,27.086-28.816,27.086s-28.8-11.176-28.8-27.086A28.762,28.762,0,0,1,359.2,108.553V87.948h-2a2.366,2.366,0,0,1,0-4.733h28.121a2.366,2.366,0,1,1,0,4.733h-1.983Z" transform="translate(-342.527 -83.215)" fill="#fff"/></g><g transform="translate(469.054)"><path d="M384.462,88.921c0,6.818-10.449,10.414-22.525,10.414-12.093,0-21.167-3.087-21.167-9.989,0-6.921,15.993-33.344,15.993-33.344V43.364H354.39a1.543,1.543,0,0,1,0-3.087h15.1a1.543,1.543,0,0,1,0,3.087h-2.375V56S384.462,81.967,384.462,88.921Z" transform="translate(-340.771 -40.277)" fill="#fff"/></g><g transform="translate(340.356 150.933)"><path d="M333.741,225.15c2.137,26.017,2.509,133.973,2.509,133.973a81.539,81.539,0,0,1-14.467,3.155c-25.39,3.273-47.321-4.971-47.321-4.971-1.424-10.77-2.849-37.907-3.443-65.891v-.033c4.664-23.27,23.982-75.272,24.152-77.46.186-2.188-14.977-21.082-14.977-21.082,4.936-3.629,15.875-11.668,16.656-13.807.865-2.356-5.648-49.66-6.478-56.954,2.578,1.087,5.36,2.12,8.124,3.393,6.174,2.832,16.977,6.7,27.069,14.739,12.229,9.753,27.409,43.538,29.222,54.817l.052.033c14.585-22.676,36.719-44.656,35.837-45.1a14.458,14.458,0,0,1,5.105,1.441c7.447,3.511,14.5,12.38,17.419,16.4.934,1.271,1.458,2.052,1.458,2.052C411.1,174.4,402.99,189.6,393.407,205.1c-7.242,11.652-15.281,23.49-22.862,31.071-4.664,4.648-9.142,7.7-13.128,8.091C348.988,245.114,340.9,236.242,333.741,225.15Z" transform="translate(-271.019 -122.08)" fill="#fff"/></g><g transform="translate(435.481 233.956)"><path d="M364.68,211.752c.271,5.936-10.906,6.207-19.9,6.207s-20.318-.3-22.032-5.546c-1.137-3.443,3.511-11.72,4.426-14.06l-.2-.2c7.581-7.581,15.62-19.419,22.862-31.071l.12.068v12.142a13.947,13.947,0,0,0,2.12,7.414C356.1,193.2,364.475,207.241,364.68,211.752Z" transform="translate(-322.575 -167.077)" fill="#fff"/></g><g transform="translate(422.769 17.351)"><path d="M354.066,49.681V83.315A6.88,6.88,0,0,1,347.18,90.2H328.695a6.881,6.881,0,0,1-6.888-6.886c.018-8.819.035-23.185.035-25,0-4.528-4.122-7.039-6.157-8.159,2.493.679,9.939,1.155,18.742,1.155C345.282,51.31,354.066,50.58,354.066,49.681Z" transform="translate(-315.685 -49.681)" fill="#fff"/></g><g transform="translate(421.887 15.705)"><path d="M334.831,48.789c10.855,0,19.639.747,19.639,1.646s-8.784,1.629-19.639,1.629c-8.8,0-16.25-.476-18.742-1.155-.017,0-.033-.017-.052-.017-.356-.2-.644-.339-.83-.458C315.207,49.536,323.993,48.789,334.831,48.789Z" transform="translate(-315.207 -48.789)" fill="#fff"/></g><g transform="translate(422.429 110.67)"><path d="M339.4,117.522c.729,3.257,8.091,21.167,7.463,24.442-.644,3.273-7.735,5.358-14.993,5.358-7.277,0-16.453-1.271-16.368-5.629.1-4.377,6.546-19.912,7.548-23.9s1.221-11.633,1.221-13.906h-1.221a1.815,1.815,0,1,1,0-3.629h15.807a1.815,1.815,0,1,1,0,3.629h-1A84.336,84.336,0,0,0,339.4,117.522Z" transform="translate(-315.501 -100.258)" fill="#fff"/></g><g transform="translate(333.692 43.472)"><path d="M317.525,161.529c-1.221,2.579-9.294,8.838-17.774,3.851-10.567-6.242-11.416-29.291-11.552-31.75h-.017c1.188-3.172,2.306-6.089,3.188-8.277,2.223-5.563,8.855-34.667-15.892-44.166a57.832,57.832,0,0,0-8.072-2.493l.288-1.238c-.17-2.578,2.544-14.484,14.993-13.569,12.449.9,18.809,16.078,20.082,28.256s2.731,43.979,11.991,52.155c9.277,8.176,16.18,2.816,18.181,1.035,0,0-3.273,13.873-13.993,15.977C318.458,161.395,317.982,161.48,317.525,161.529Z" transform="translate(-267.407 -63.838)"/></g><g transform="translate(277.452 284.567)"><path d="M352.341,332.991h-115.4c-.17-7.819,1.17-24.949,2.358-32.955a138.473,138.473,0,0,0,31.6.238c0-19.421.662-43.607,1.679-69.1.493-12.059,1.052-24.407,1.662-36.669,6.478,3.1,17.587,3.544,25.338,2.172-.1,10.617,0,22.117.255,33.5v.033c.594,27.984,2.018,55.122,3.443,65.891,0,0,21.931,8.244,47.321,4.971C351.7,305.583,352.341,324.985,352.341,332.991Z" transform="translate(-236.926 -194.507)" fill="#fff"/></g><g transform="translate(340.063 147.711)"><path d="M271.035,249.591c.118-5.343.288-10.329.542-14.79.033-.729.068-1.441.118-2.137.238-3.919.544-7.989.865-12.161.373-4.7.8-9.532,1.273-14.4.441-4.749.915-9.55,1.424-14.3.509-4.816,1.035-9.6,1.561-14.262.559-4.886,1.135-9.668,1.7-14.231.611-5,1.221-9.786,1.8-14.213.679-5.24,1.323-9.989,1.882-14.06,1.1-7.9,1.917-13.248,2.2-14.689v-.017a32.992,32.992,0,0,0,6.107,3.222c.83,7.294,7.343,54.6,6.478,56.954-.78,2.138-11.72,10.177-16.656,13.807,0,0,15.163,18.894,14.977,21.082-.17,2.188-19.488,54.19-24.152,77.46-.255-11.38-.356-22.881-.255-33.5C270.917,256,270.967,252.728,271.035,249.591Z" transform="translate(-270.86 -120.334)" fill="#fff"/></g><g transform="translate(285.642 57.107)"><path d="M297.487,74.942c24.746,9.5,18.115,38.6,15.892,44.166-.882,2.188-2,5.105-3.188,8.277-2.764,7.513-5.766,16.486-6.157,20.421-.542-4.461-1.118-9.567-1.474-13.366a31.383,31.383,0,0,0-.356-5.02c4.223,0,6.749-3.884,7.089-8.65.34-4.782-1.967-8.26-4.766-8.159-3.273.12-5.089,4.631-5.089,4.631-.644-2.459-2.917-4.443-7.36-7.445-4.461-3-16.724-5.258-23.27-9.635a17.264,17.264,0,0,1-5.716-6.716c-2.323,2.172-11.449,13.076-11.991,20.3a151.242,151.242,0,0,0,4.325,16.384l-1.238-.526c-2.188-.271-8.548.17-11.821-7.631-3.257-7.819,1.9-25.8,8.735-35.889,6.021-8.939,18.368-18.25,38.315-13.637A57.831,57.831,0,0,1,297.487,74.942Z" transform="translate(-241.365 -71.228)"/></g><g transform="translate(323.55 143.556)"><path d="M291.963,122.237v.017c-.288,1.441-1.1,6.784-2.2,14.689l-.965-.137c-7.175-1.712-26.781-5.58-26.781-5.58l-.1-.018a57.525,57.525,0,0,1,.863-5.749h.018a16.84,16.84,0,0,0,2.832-1.611s5.546,5.869,11.991,3.867c6.461-2,9.633-6.9,10.277-9.633A14.418,14.418,0,0,0,291.963,122.237Z" transform="translate(-261.91 -118.082)" fill="#fff"/></g><g transform="translate(295.377 79.325)"><path d="M300.067,102.435c2.8-.1,5.105,3.376,4.766,8.159-.34,4.766-2.865,8.65-7.089,8.65,0,.95.135,2.764.356,5.02-.12,10.465-5.954,15.519-7.853,17.063a26.718,26.718,0,0,1-12.178,5.325,18.878,18.878,0,0,1-14.536-3.969c-5.5-4.223-9.72-14.01-12.569-22.728a151.238,151.238,0,0,1-4.325-16.384c.542-7.225,9.668-18.13,11.991-20.3a17.264,17.264,0,0,0,5.716,6.716c6.546,4.377,18.809,6.631,23.27,9.635,4.443,3,6.716,4.985,7.36,7.445C294.978,107.066,296.794,102.555,300.067,102.435Z" transform="translate(-246.641 -83.27)" fill="#fff"/></g><g transform="translate(322.175 156.682)"><path d="M289.422,130.794l.965.137c-.559,4.07-1.2,8.819-1.882,14.059-3.629-.882-27.324-5.681-27.324-5.681h-.017c.509-5.869.983-10.652,1.375-14.113l.1.018S282.247,129.082,289.422,130.794Z" transform="translate(-261.165 -125.196)" fill="#818181"/></g><g transform="translate(326.806 120.319)"><path d="M285.179,118.854c.646,5.426,1.221,9.871,1.221,9.871-.644,2.731-3.816,7.631-10.277,9.633-6.445,2-11.991-3.867-11.991-3.867a17.125,17.125,0,0,0-.458-6.615,26.719,26.719,0,0,0,12.178-5.325c1.9-1.544,7.733-6.6,7.853-17.063C284.061,109.287,284.637,114.392,285.179,118.854Z" transform="translate(-263.675 -105.488)" fill="#fff"/></g><g transform="translate(321.005 170.795)"><path d="M289.041,138.526c-.576,4.426-1.186,9.209-1.8,14.213-3.613-.882-26.68-5.546-26.68-5.546h-.033c.406-5.292.8-10.107,1.17-14.347h.017S285.412,137.644,289.041,138.526Z" transform="translate(-260.531 -132.845)" fill="#fff"/></g><g transform="translate(319.918 185.143)"><path d="M287.742,146.167c-.561,4.563-1.137,9.345-1.7,14.231-3.613-.882-26.086-5.412-26.086-5.412h-.018c.375-5.087.731-9.9,1.087-14.366h.033S284.129,145.285,287.742,146.167Z" transform="translate(-259.942 -140.621)" fill="#818181"/></g><g transform="translate(318.918 199.508)"><path d="M286.5,153.819c-.526,4.664-1.052,9.447-1.561,14.262-3.629-.882-25.527-5.292-25.527-5.292H259.4q.509-7.5,1-14.382h.018S282.892,152.937,286.5,153.819Z" transform="translate(-259.4 -148.407)" fill="#fff"/></g><g transform="translate(317.987 213.891)"><path d="M285.37,161.494c-.509,4.749-.983,9.55-1.424,14.3h-.018c-3.613-.882-25.032-5.207-25.032-5.207.3-4.936.627-9.736.932-14.384h.017S281.741,160.612,285.37,161.494Z" transform="translate(-258.895 -156.202)" fill="#818181"/></g><g transform="translate(317.07 228.275)"><path d="M284.347,169.2h.018c-.476,4.867-.9,9.7-1.273,14.4-3.613-.882-24.695-4.817-24.695-4.817q.459-7.556.917-14.788S280.734,168.323,284.347,169.2Z" transform="translate(-258.398 -163.998)" fill="#fff"/></g><g transform="translate(316.256 243.063)"><path d="M283.465,176.83c-.321,4.172-.627,8.242-.865,12.161-.05.7-.085,1.408-.118,2.137h-.017c-3.613-.882-24.508-5.089-24.508-5.089.255-4.747.542-9.412.814-14.026C258.771,172.013,279.853,175.949,283.465,176.83Z" transform="translate(-257.957 -172.013)" fill="#818181"/></g><g transform="translate(315.459 257.09)"><path d="M282.83,184.7h.017c-.255,4.461-.424,9.447-.542,14.79-3.952-.95-24.779-5.445-24.779-5.445q.382-7.276.8-14.434S279.218,183.822,282.83,184.7Z" transform="translate(-257.525 -179.615)" fill="#fff"/></g><g transform="translate(314.763 271.524)"><path d="M282.623,192.883c-.068,3.137-.118,6.412-.137,9.77-7.751,1.373-18.86.932-25.338-2.172.238-4.358.458-8.718.7-13.043C257.844,187.438,278.671,191.933,282.623,192.883Z" transform="translate(-257.148 -187.438)" fill="#818181"/></g><g transform="translate(291.976 150.933)"><path d="M267.585,255.714c-.611,12.262-1.17,24.61-1.662,36.669-2.424-10.312-21.947-80.038-21.1-83.327.745-2.816,15.823-19.657,15.823-19.657-1.832-2.375-11.449-12.279-11.3-14.417.186-2.424,20.235-46.014,22.15-50.915a24.876,24.876,0,0,0,5.733-1.985,57.516,57.516,0,0,0-.863,5.749c-.391,3.461-.865,8.244-1.375,14.113-.373,4.24-.764,9.056-1.17,14.347-.356,4.461-.712,9.279-1.087,14.366q-.481,6.869-1,14.382c-.3,4.648-.627,9.449-.932,14.384q-.459,7.224-.917,14.788c-.271,4.615-.559,9.279-.814,14.026q-.407,7.149-.8,14.434C268.043,247,267.823,251.355,267.585,255.714Z" transform="translate(-244.797 -122.08)" fill="#fff"/></g><g transform="translate(251.302 152.918)"><path d="M240.148,313.421c-2.967-.7-7.954-1.78-11.821-2.613h-.017c-3.137-.661-5.546-1.17-5.546-1.17a208.786,208.786,0,0,1,1.323-22.2c5.563-1.646,8.718-4.528,8.735-9.057,0-3.544-2.646-8.65-5.919-13.619l.017-.017c1.358-9.5,3.105-20.2,5.292-31.92,6.819-36.584,19-83.99,34.617-99.119,5.818-5.613,20.726-10.142,23.3-10.548-1.915,4.9-21.964,48.491-22.15,50.915-.153,2.138,9.463,12.043,11.3,14.417,0,0-15.078,16.842-15.823,19.657-.849,3.29,18.674,73.015,21.1,83.327-1.017,25.492-1.679,49.677-1.679,69.1a138.472,138.472,0,0,1-31.6-.238,66.38,66.38,0,0,1-15.519-3.851s.576-6.02,1.578-15.943c.288-2.882.609-6.089.965-9.581C238.844,325.683,239.471,319.781,240.148,313.421Z" transform="translate(-222.753 -123.156)" fill="#fff"/></g><g transform="translate(256.535 340.57)"><path d="M235.9,245.01c-.356,3.493-.677,6.7-.965,9.582h-.018c-8.784-7.021-10.091-24.185-9.006-29.732h.017c3.867.832,8.855,1.917,11.821,2.613C237.075,233.833,236.447,239.735,235.9,245.01Z" transform="translate(-225.589 -224.86)" fill="#fff"/></g><g transform="translate(242.435 260.756)"><path d="M231.252,186.3a2.749,2.749,0,0,1-3.629,3.969,26.179,26.179,0,0,0-6.869-3.764,1.665,1.665,0,0,0-.321-.085.017.017,0,0,1-.017-.018,9.429,9.429,0,0,1-1.256-.948,3.235,3.235,0,0,1-1.186-2.8c.068-.458.526-.747,1.186-.9a7.675,7.675,0,0,1,2.443-.1c.288.033.578.066.83.118,1.646.3,6.8,2,8.617,4.273A1.291,1.291,0,0,1,231.252,186.3Z" transform="translate(-217.947 -181.602)" fill="#fff"/></g><g transform="translate(245.956 257.95)"><path d="M223.213,180.155c3.306.441,6.818,3.443,6.223,7.174-1.814-2.271-6.971-3.969-8.617-4.273-.253-.052-.542-.085-.83-.118C219.8,182.223,219.26,179.612,223.213,180.155Z" transform="translate(-219.855 -180.081)" fill="#fff"/></g><g transform="translate(211.762 241.91)"><path d="M250.932,237.619c-.017,4.53-3.172,7.412-8.735,9.058-4.054,1.188-9.414,1.714-15.739,1.714-.78,0-1.561,0-2.306-.035-13.738-.288-22.829-3.408-22.829-11.345-.018-5.768,7.056-15.028,12.465-21.473,2-2.391,3.782-4.393,4.9-5.7a4.217,4.217,0,0,0,1.017-2.764l.017-13.213c3.41-1.017,8.4-2.408,7.345-4.613-.679-1.424-3.867-1.985-7.345-1.865V175.34h-.9a1.976,1.976,0,0,1,0-3.952H234.09a1.976,1.976,0,1,1,0,3.952h-.882v15.045c-.661.151-1.118.441-1.186.9a3.235,3.235,0,0,0,1.186,2.8v.694c-1.967-.288-3.731.12-4.087,1.155-.627,1.764.95,2.983,2.257,3.95.321.238.965.712,1.8,1.273-1.578-.95-3.816-1.12-4.207,1.238-.17,1.1,1.2,3.766,4.24,5.9v.3a175.179,175.179,0,0,1,11.8,15.4C248.286,228.969,250.932,234.075,250.932,237.619Z" transform="translate(-201.323 -171.388)" fill="#fff"/></g><g transform="translate(239.418 265.208)"><path d="M230.362,189.55c1.118,1.509,1.849,5.834-1.459,5.461a6.657,6.657,0,0,1-1.849-.594,48.751,48.751,0,0,1-6.513-3.917c-.017,0-.017-.017-.033-.017-.832-.561-1.476-1.035-1.8-1.273-1.306-.967-2.884-2.186-2.257-3.95.356-1.035,2.12-1.443,4.087-1.155a8.877,8.877,0,0,1,1.256.255.017.017,0,0,0,.017.018,1.667,1.667,0,0,1,.321.085A26.18,26.18,0,0,1,229,188.227,7.834,7.834,0,0,1,230.362,189.55Z" transform="translate(-216.312 -184.015)" fill="#fff"/></g><g transform="translate(239.393 271.022)"><path d="M227.066,191.755c1.9.849,3.019,3.511,1.934,5.072-1.085,1.578-4.969.424-8.006-1.561-.151-.1-.3-.2-.441-.3-3.035-2.137-4.41-4.8-4.24-5.9.391-2.358,2.629-2.188,4.207-1.238.017,0,.017.017.033.017A48.754,48.754,0,0,0,227.066,191.755Z" transform="translate(-216.298 -187.166)" fill="#fff"/></g><g transform="translate(218.954 257.889)"><path d="M216.43,186.542l-.017,13.213a4.217,4.217,0,0,1-1.017,2.764c-1.12,1.306-2.9,3.308-4.9,5.7-1.476-.493-2.884-.95-4.105-1.34v-.017c-.542-4.393-2.323-20.49-.017-23.763,1.273-1.764,5.886-2.9,10.058-3.035,3.478-.12,6.666.441,7.345,1.865C224.827,184.134,219.84,185.526,216.43,186.542Z" transform="translate(-205.221 -180.048)" fill="#fff"/></g><g transform="translate(145.225 243.674)"><path d="M215.006,252.568c6.378-16.078,14.925-31.734,20.065-40.824,0,0,2.052.644,5.087,1.629v.017c1.221.389,2.629.847,4.105,1.34-5.41,6.445-12.484,15.705-12.465,21.473,0,7.938,9.091,11.058,22.829,11.345-3.987,13.467-9.109,29.189-13.925,39.654-10.008,21.624-20.082,29.172-27.257,28.715-9.176-.594-17.5-12.857-19.351-20.49h-.068c-.661-53.629-4.495-74.015-4.495-74.015l-4.919-.814a46.366,46.366,0,0,0,2.749-6.819c.135-1.9-21-39.739-22.1-41.435a25.291,25.291,0,0,0,2.679,1.17c5.174,1.934,25.68,11.008,32.04,21.744C206.34,205.978,215.362,240.933,215.006,252.568Z" transform="translate(-165.261 -172.344)" fill="#fff"/></g><g transform="translate(126.975 401.205)"><path d="M195.956,277.923a1.206,1.206,0,0,1-.661.458c-1.221.255-4.19,1.188-5.072,1.188h-.1s-27.307,0-34.752-3a33.829,33.829,0,0,0,2.561-18.844,118.841,118.841,0,0,1,12.178,1.17,76.99,76.99,0,0,1,9.652,2.087c.814.238,1.611.474,2.375.729,6.511,2.2,10.9,5.105,15.755,6.819,1.221.423,2.851,1.033,4.292,1.679,1.712.745,3.172,1.543,3.476,2.2.78,1.7-.474,3.594-3.613,4.664A18.462,18.462,0,0,1,195.956,277.923Z" transform="translate(-155.37 -257.723)" fill="#fff"/></g><g transform="translate(153.74 291.928)"><path d="M190.126,273.326c.17,13.467.137,29.054-.2,46.931-1.441-.646-3.07-1.256-4.292-1.679-4.851-1.714-9.244-4.615-15.755-6.819.083-.882.151-2.068.2-3.511h.033c1.917-14.722,12.246-57.14,12.246-59.871,0-2.712-11.178-29.562-11.178-29.562.578-1.137,6.089-12.635,9.532-20.318l4.919.814S189.465,219.7,190.126,273.326Z" transform="translate(-169.876 -198.497)" fill="#fff"/></g><g transform="translate(85.884 134.58)"><path d="M213.895,132.013c1.459,3.985-1.17,12.449-6.6,15.892-.644-4.834-1.441-9.244-2.12-12.8-.592-3.087-3.273-6.733-3.273-6.733-.948,4.358-7.412,10.685-14.347,13.262-6.954,2.594-17.537.052-24.628,3.325s-6.089,11.583-5.546,13.941c-.627-1.816-3.153-4.257-6.089-3.544-2.493.627-4.629,6-2.9,11.279,1.714,5.257,7.362,9.176,12.178,8.072-.491,5.36-3.816,11.279-3.816,17.91-3.137-7.631-21.4-17.045-23.456-30-1.542-9.871,6.412-20.15,6.954-23.423s-2.561-6.207-1.764-9.666c1.085-4.784,14.349-14.96,39.433-16.231S212.437,128.011,213.895,132.013Z" transform="translate(-133.1 -113.217)"/></g><g transform="translate(0 252.44)"><path d="M248.279,347.706H114.223v-3c-1.816-6.631-15.639-51.7-21.084-83.327-5.461-31.615-9.989-66.028-3.087-73.135,8.633-8.9,53.648-12.024,67.674-10.939a51.912,51.912,0,0,0-7.989,6.581c-12.4,12.8-16.248,26.034-20.573,41.57-4.188,15.028-12.4,43.555-4.766,72.643,5.174,19.726,37.058,43.878,89.128,46.609C220.972,347.706,248.279,347.706,248.279,347.706Z" transform="translate(-86.552 -177.095)" fill="#fff"/></g><g transform="translate(151.177 312.246)"><path d="M169.828,227.131c-.186-3.579-.391-6.836-.611-9.668-.12-1.8-.255-3.426-.391-4.834-.085-.915-.2-1.915-.339-2.984l3.867-.136s11.178,26.85,11.178,29.562c0,2.731-10.329,45.149-12.246,59.871h-.033c.05-1.2.085-2.594.118-4.155.052-2.764.068-6.037.052-9.666-.017-3-.035-6.258-.085-9.668-.052-3.1-.1-6.36-.17-9.668-.068-3.188-.137-6.428-.238-9.666-.085-3.24-.186-6.48-.288-9.668-.118-3.29-.238-6.53-.356-9.65C170.133,233.406,169.98,230.166,169.828,227.131Z" transform="translate(-168.487 -209.509)" fill="#fff"/></g><g transform="translate(100.55 149.73)"><path d="M176.733,189.829c-.474,1.426-.9,10.991-.255,16.691-2.849,1.764-7.056,2.509-11.414,2.34v-.017c-5.648-.238-11.534-2.052-14.96-5.24,1.137-6.056.934-14.026-.068-17.929,0-6.631,3.325-12.55,3.816-17.91-4.816,1.1-10.463-2.816-12.178-8.072-1.729-5.275.408-10.652,2.9-11.279,2.936-.712,5.461,1.729,6.089,3.544-.542-2.358-1.542-10.668,5.546-13.941s17.674-.731,24.628-3.325c6.936-2.578,13.4-8.9,14.347-13.262,0,0,2.681,3.646,3.273,6.733.679,3.561,1.476,7.971,2.12,12.8,1.782,13.569,2.2,30.394-5.393,40.977C190.573,188.371,183.45,190.288,176.733,189.829Z" transform="translate(-141.048 -121.428)" fill="#fff"/></g><g transform="translate(141.713 387.858)"><path d="M175.757,250.489c.017,3.629,0,6.9-.052,9.666H163.358v-9.666h12.4Z" transform="translate(-163.358 -250.489)" fill="#888"/></g><g transform="translate(141.713 378.189)"><path d="M175.757,254.917h-12.4v-9.668h12.314C175.722,248.659,175.74,251.915,175.757,254.917Z" transform="translate(-163.358 -245.249)" fill="#c6c6c6"/></g><g transform="translate(141.713 397.524)"><path d="M163.358,255.728h12.347c-.033,1.561-.068,2.952-.118,4.155-.052,1.443-.12,2.629-.2,3.511-.764-.255-1.561-.491-2.375-.729a77,77,0,0,0-9.652-2.087v-4.851Z" transform="translate(-163.358 -255.728)" fill="#c6c6c6"/></g><g transform="translate(141.713 368.521)"><path d="M175.672,249.677H163.358v-9.668H175.5C175.571,243.317,175.62,246.574,175.672,249.677Z" transform="translate(-163.358 -240.009)" fill="#888"/></g><g transform="translate(141.713 358.855)"><path d="M175.5,244.436H163.358V234.77h11.906C175.366,238.008,175.434,241.248,175.5,244.436Z" transform="translate(-163.358 -234.77)" fill="#c6c6c6"/></g><g transform="translate(141.713 349.187)"><path d="M175.264,239.2H163.358V229.53h11.618C175.078,232.718,175.179,235.958,175.264,239.2Z" transform="translate(-163.358 -229.53)" fill="#888"/></g><g transform="translate(141.713 339.537)"><path d="M174.976,233.95H163.358V224.3H174.62C174.738,227.42,174.858,230.66,174.976,233.95Z" transform="translate(-163.358 -224.3)" fill="#c6c6c6"/></g><g transform="translate(141.713 329.869)"><path d="M174.62,228.728H163.358V219.06h10.8C174.314,222.1,174.467,225.335,174.62,228.728Z" transform="translate(-163.358 -219.06)" fill="#888"/></g><g transform="translate(141.713 320.201)"><path d="M174.163,223.488h-10.8V213.82h10.194C173.772,216.652,173.976,219.909,174.163,223.488Z" transform="translate(-163.358 -213.82)" fill="#c6c6c6"/></g><g transform="translate(141.713 310.143)"><path d="M173.552,218.427H163.358V208.369h9.176c.1.78.2,1.526.288,2.24.137,1.068.255,2.068.34,2.984C173.3,215,173.432,216.629,173.552,218.427Z" transform="translate(-163.358 -208.369)" fill="#888"/></g><g transform="translate(141.713 299.984)"><path d="M172.534,213.022h-9.176V202.863h7.548C171.567,206.561,172.109,210,172.534,213.022Z" transform="translate(-163.358 -202.863)" fill="#c6c6c6"/></g><g transform="translate(141.713 289.587)"><path d="M170.906,207.625h-7.548v-10.38H168.9l.1-.017C169.7,200.824,170.345,204.335,170.906,207.625Z" transform="translate(-163.358 -197.228)" fill="#888"/></g><g transform="translate(141.713 279.648)"><path d="M169.006,201.78l-.1.017h-5.546v-9.956h3.7C167.735,195.182,168.4,198.524,169.006,201.78Z" transform="translate(-163.358 -191.841)" fill="#c6c6c6"/></g><g transform="translate(141.713 268.522)"><path d="M167.056,196.937h-3.7V185.811h1.408C165.546,189.44,166.31,193.189,167.056,196.937Z" transform="translate(-163.358 -185.811)" fill="#888"/></g><g transform="translate(141.713 261.806)"><path d="M164.766,188.887h-1.408v-6.716C163.816,184.341,164.292,186.6,164.766,188.887Z" transform="translate(-163.358 -182.171)" fill="#c6c6c6"/></g><g transform="translate(128.857 397.524)"><path d="M169.247,260.562v.017a118.84,118.84,0,0,0-12.178-1.17,34.36,34.36,0,0,0-.679-3.664l.035-.017h12.821Z" transform="translate(-156.39 -255.728)" fill="#888"/></g><g transform="translate(126.076 387.858)"><path d="M170.52,250.489v9.666H157.7l-.035.017c-.22-.932-.491-1.882-.8-2.849,0,0-.712-.17-1.983-.509v-6.325Z" transform="translate(-154.883 -250.489)" fill="#555"/></g><g transform="translate(126.076 378.189)"><rect width="15.638" height="9.668" fill="#888"/></g><g transform="translate(126.076 368.522)"><rect width="15.638" height="9.668" fill="#555"/></g><g transform="translate(126.076 358.854)"><rect width="15.638" height="9.668" fill="#888"/></g><g transform="translate(126.076 349.187)"><rect width="15.638" height="9.668" fill="#555"/></g><g transform="translate(126.076 339.536)"><rect width="15.638" height="9.651" fill="#888"/></g><g transform="translate(126.076 329.868)"><rect width="15.638" height="9.668" fill="#555"/></g><g transform="translate(126.076 320.201)"><rect width="15.638" height="9.668" fill="#888"/></g><g transform="translate(126.076 310.143)"><rect width="15.638" height="10.058" fill="#555"/></g><g transform="translate(126.076 299.984)"><rect width="15.638" height="10.159" fill="#888"/></g><g transform="translate(126.076 289.604)"><rect width="15.638" height="10.38" fill="#555"/></g><g transform="translate(126.076 279.648)"><rect width="15.638" height="9.956" fill="#888"/></g><g transform="translate(126.076 268.522)"><rect width="15.638" height="11.126" fill="#555"/></g><g transform="translate(126.076 259.33)"><path d="M170.52,183.305v6.716H154.883v-9.192h15.111C170.164,181.643,170.35,182.473,170.52,183.305Z" transform="translate(-154.883 -180.829)" fill="#888"/></g><g transform="translate(126.076 248.61)"><path d="M169.994,185.739H154.883V175.274H160l.1-.068c1.646,2.29,3.12,3.969,3.766,3.969,1.627,0,3.257-1.7,3.8-4.155h.017Z" transform="translate(-154.883 -175.019)" fill="#555"/></g><g transform="translate(124.567 234.821)"><path d="M155.574,173.244a17.373,17.373,0,0,1-1.509-3.358c4.358.17,8.565-.576,11.414-2.34a18.557,18.557,0,0,0,.408,2.408c.236,1.153,1.17,5.377,2.493,11.38h-.017c-.542,2.459-2.172,4.155-3.8,4.155-.646,0-2.12-1.679-3.766-3.969A82.013,82.013,0,0,1,155.574,173.244Z" transform="translate(-154.065 -167.546)" fill="#c6c6c6"/></g><g transform="translate(126.076 240.519)"><path d="M160.106,178.911l-.1.068h-5.122v-8.345A82.014,82.014,0,0,0,160.106,178.911Z" transform="translate(-154.883 -170.634)" fill="#888"/></g><g transform="translate(34.718 236.821)"><path d="M189.45,323.871q.941.307,1.781.561c2.308.7,4.19,1.221,5.5,1.559,1.271.339,1.983.509,1.983.509.306.967.578,1.917.8,2.849a34.361,34.361,0,0,1,.679,3.664,33.829,33.829,0,0,1-2.561,18.844c-52.07-2.731-83.955-26.883-89.128-46.609-7.633-29.088.578-57.614,4.766-72.643,4.325-15.536,8.176-28.765,20.573-41.57a51.912,51.912,0,0,1,7.989-6.581c12.347-8.412,28.866-14.095,33.175-15.825-.186.731-13.8,48.764-13.178,51.747.34,1.561,17.045,20.336,20.063,24.119,0,0-12.873,26.815-12.465,29.392C169.828,276.484,187.11,315.917,189.45,323.871Z" transform="translate(-105.368 -168.63)" fill="#fff"/></g><g transform="translate(120.58 387.858)"><path d="M157.4,250.489v6.325c-1.306-.338-3.188-.864-5.5-1.559.085-1.188.137-2.782.137-4.766h5.36Z" transform="translate(-151.904 -250.489)" fill="#888"/></g><g transform="translate(120.598 378.189)"><path d="M157.392,245.249v9.668h-5.36c.033-2.613-.017-5.886-.118-9.668Z" transform="translate(-151.914 -245.249)" fill="#c6c6c6"/></g><g transform="translate(120.259 368.521)"><path d="M157.548,240.009v9.668h-5.478c-.085-2.934-.188-6.174-.339-9.668Z" transform="translate(-151.73 -240.009)" fill="#888"/></g><g transform="translate(119.818 358.855)"><path d="M157.75,234.77v9.666h-5.818c-.12-3.035-.271-6.275-.441-9.666Z" transform="translate(-151.491 -234.77)" fill="#c6c6c6"/></g><g transform="translate(119.309 349.187)"><path d="M157.983,229.53V239.2h-6.259c-.153-3.105-.323-6.343-.509-9.668Z" transform="translate(-151.215 -229.53)" fill="#888"/></g><g transform="translate(118.766 339.537)"><path d="M158.231,224.3v9.65h-6.768q-.255-4.708-.542-9.65h7.31Z" transform="translate(-150.921 -224.3)" fill="#c6c6c6"/></g><g transform="translate(118.139 329.869)"><path d="M158.519,219.06v9.668h-7.31q-.3-4.758-.627-9.668Z" transform="translate(-150.581 -219.06)" fill="#888"/></g><g transform="translate(117.476 320.201)"><path d="M158.822,213.82v9.668h-7.938c-.2-3.188-.424-6.428-.662-9.668Z" transform="translate(-150.222 -213.82)" fill="#c6c6c6"/></g><g transform="translate(116.748 310.143)"><path d="M159.156,208.369v10.058h-8.6q-.354-5.012-.729-10.058h9.329Z" transform="translate(-149.827 -208.369)" fill="#888"/></g><g transform="translate(115.967 299.984)"><path d="M159.513,202.863v10.159h-9.329c-.255-3.391-.526-6.8-.78-10.159Z" transform="translate(-149.404 -202.863)" fill="#c6c6c6"/></g><g transform="translate(115.085 289.604)"><path d="M159.917,197.237v10.38H149.808q-.432-5.267-.882-10.38h10.991Z" transform="translate(-148.926 -197.237)" fill="#888"/></g><g transform="translate(114.203 279.648)"><path d="M160.321,191.841V201.8H149.33c-.288-3.391-.594-6.716-.882-9.939l.118-.017Z" transform="translate(-148.448 -191.841)" fill="#c6c6c6"/></g><g transform="translate(113.102 268.522)"><path d="M160.826,185.811v11.126H149.071l-.118.017c-.373-3.865-.729-7.6-1.1-11.142Z" transform="translate(-147.851 -185.811)" fill="#888"/></g><g transform="translate(112.083 259.33)"><path d="M161.292,180.829v9.192H148.317q-.509-4.835-1.018-9.192Z" transform="translate(-147.299 -180.829)" fill="#c6c6c6"/></g><g transform="translate(111.235 248.864)"><path d="M161.681,175.157v10.465H147.688c-.271-2.41-.559-4.7-.849-6.853.391,1.544,1.952,3.749,3.478,3.613,1.052-.1,2.934-3.41,4.766-7.225Z" transform="translate(-146.839 -175.157)" fill="#888"/></g><g transform="translate(119.478 237.161)"><path d="M157.905,172.172v8.345h-6.6c2.493-5.174,4.919-11.3,5.089-11.7A17.372,17.372,0,0,0,157.905,172.172Z" transform="translate(-151.307 -168.814)" fill="#c6c6c6"/></g><g transform="translate(107.912 231.904)"><path d="M156.6,182.925c-1.832,3.816-3.714,7.124-4.766,7.225-1.526.137-3.087-2.068-3.478-3.613v-.017c-1.135-8.77-2.271-15.113-3.306-17.639l-.017-.017c1.255-.917,1.389-1.476,1.389-1.476.1-.458.2-.934.306-1.424,3.426,3.188,9.312,5,14.96,5.24v.017C161.524,171.629,159.1,177.751,156.6,182.925Z" transform="translate(-145.038 -165.965)" fill="#c6c6c6"/></g><g transform="translate(91.15 234.805)"><path d="M157.905,201.254c.373,3.544.729,7.277,1.1,11.142.288,3.223.594,6.548.882,9.939q.459,5.115.882,10.38c.255,3.358.526,6.768.78,10.159q.382,5.037.729,10.058c.238,3.24.458,6.48.662,9.668q.329,4.91.627,9.668.28,4.935.542,9.65c.186,3.325.356,6.563.509,9.668.17,3.391.321,6.631.441,9.666.151,3.495.255,6.735.339,9.668.1,3.782.151,7.056.118,9.668,0,1.983-.052,3.578-.137,4.766q-.839-.255-1.781-.561c-2.34-7.954-19.622-47.387-20.03-49.983-.408-2.578,12.465-29.392,12.465-29.392-3.019-3.782-19.724-22.558-20.063-24.119-.627-2.983,12.991-51.016,13.178-51.747l.018-.017c.356-.135.627-.255.8-.34a15.979,15.979,0,0,0,2.747-1.661l.017.017c1.035,2.526,2.172,8.869,3.306,17.639v.017c.29,2.153.578,4.443.849,6.853Q157.4,196.412,157.905,201.254Z" transform="translate(-135.954 -167.537)" fill="#fff"/></g><g transform="translate(136.389 237.229)"><path d="M173.345,231.606c-.561-3.29-1.2-6.8-1.9-10.4-.611-3.257-1.271-6.6-1.95-9.939-.745-3.747-1.509-7.5-2.29-11.126-.474-2.29-.95-4.546-1.408-6.716l-.4-1.867-.129-.609-2.306-10.72c-1.323-6-2.256-10.227-2.493-11.38a35.152,35.152,0,0,0,8.836,6.445c1.1,1.7,22.235,39.536,22.1,41.435a46.362,46.362,0,0,1-2.749,6.819c-3.443,7.683-8.954,19.181-9.532,20.318L175.26,244c-.083-.714-.186-1.459-.288-2.24C174.548,238.746,174.006,235.3,173.345,231.606Z" transform="translate(-160.472 -168.851)" fill="#fff"/></g></g><g transform="translate(132.064 48.52)"><g transform="translate(19.206 419.656)"><path d="M622.271,272.261H100.73c-2.341,0-4.24-1.119-4.24-2.5s1.9-2.5,4.24-2.5H622.271c2.341,0,4.24,1.119,4.24,2.5S624.612,272.261,622.271,272.261Z" transform="translate(-96.49 -267.261)"/></g><g transform="translate(0 134.586)"><g transform="translate(118.547 15.151)"><path d="M170.769,191.135a29.337,29.337,0,0,1-3.729-.242c-7.744-.995-15.06-5.022-16.652-9.165a.848.848,0,1,1,1.583-.609c1.192,3.1,7.375,7.074,15.285,8.091,4.821.618,13.751.487,19.4-7.373,10.454-14.554,5.319-41.59,3.127-53.135-.544-2.862-3.1-6.345-3.122-6.38a.848.848,0,1,1,1.365-1.007c.114.155,2.808,3.834,3.423,7.069,2.233,11.761,7.463,39.3-3.415,54.443C183.145,189.626,176.077,191.133,170.769,191.135Z" transform="translate(-150.331 -120.97)"/></g><g transform="translate(109.806 15.151)"><path d="M146.823,153.2a.85.85,0,0,1-.827-.659c-.258-1.12-2.288-11.072,6.013-14.9,3.921-1.81,8.8-1.911,13.51-2.011,4.137-.087,8.046-.168,11.174-1.334,6.889-2.566,12.982-8.8,13.823-12.652a.848.848,0,1,1,1.657.362c-1.057,4.832-8.013,11.318-14.888,13.881-3.4,1.266-7.633,1.354-11.731,1.439-4.539.094-9.235.194-12.834,1.856-7.085,3.269-5.3,12-5.07,12.982a.848.848,0,0,1-.635,1.017A.862.862,0,0,1,146.823,153.2Z" transform="translate(-145.593 -120.97)"/></g><g transform="translate(85.908)"><path d="M157.14,193.845a.846.846,0,0,1-.784-.528c-1.168-2.847-4.819-6.179-8.685-9.709-6.345-5.792-13.536-12.358-14.818-20.484-1.144-7.26,2.6-14.6,5.08-19.464a21.466,21.466,0,0,0,1.873-4.229,8.061,8.061,0,0,0-.858-4.129c-.673-1.738-1.371-3.537-.9-5.587,1.159-5.074,14.537-15.585,40.217-16.886,24-1.218,34.723,13.5,36.82,19.274,1.627,4.469-1.316,13.321-6.943,16.9a.848.848,0,0,1-.911-1.43c5.236-3.33,7.535-11.393,6.262-14.892-1.98-5.447-12.166-19.312-35.141-18.161-25.29,1.284-37.724,11.519-38.651,15.571-.352,1.544.223,3.026.832,4.6a9.444,9.444,0,0,1,.95,5.02,20.561,20.561,0,0,1-2.035,4.723c-2.378,4.664-5.973,11.713-4.913,18.427,1.186,7.541,8.146,13.892,14.285,19.5,4.185,3.819,7.8,7.118,9.109,10.32a.848.848,0,0,1-.463,1.105A.825.825,0,0,1,157.14,193.845Z" transform="translate(-132.641 -112.758)"/></g><g transform="translate(100.56 42.009)"><path d="M150.429,174.6a.849.849,0,0,1-.849-.849,37.046,37.046,0,0,1,2.138-10.921,44.977,44.977,0,0,0,1.541-5.974c-4.847.373-10.253-3.491-12-8.827a12.678,12.678,0,0,1,.668-9.814,4.835,4.835,0,0,1,2.841-2.539c3.365-.836,6.33,1.889,7.092,4.087a.848.848,0,1,1-1.6.557c-.487-1.408-2.6-3.615-5.083-3a3.279,3.279,0,0,0-1.764,1.714,11.083,11.083,0,0,0-.541,8.465c1.633,4.987,6.856,8.491,11.181,7.526a.827.827,0,0,1,.745.188.847.847,0,0,1,.288.714,37.68,37.68,0,0,1-1.744,7.4,35.761,35.761,0,0,0-2.065,10.425A.847.847,0,0,1,150.429,174.6Z" transform="translate(-140.583 -135.526)"/></g><g transform="translate(104.793 50.37)"><path d="M143.322,140.292a5.272,5.272,0,0,1,3.79.28,4.354,4.354,0,0,1,2.452,3.092.85.85,0,0,1-1.648.395l-.007-.024a3.591,3.591,0,0,0-.579-1.109,3.518,3.518,0,0,0-1-.812,4.529,4.529,0,0,0-2.681-.559l-.057,0a.652.652,0,0,1-.266-1.268Z" transform="translate(-142.877 -140.058)"/></g><g transform="translate(148.614 41.679)"><path d="M168.033,135.968a11.177,11.177,0,0,0,.913,4.229,14.13,14.13,0,0,0,2.677,3.506,12.509,12.509,0,0,1,1.626,1.974,3.047,3.047,0,0,1,.461,1.572,3.872,3.872,0,0,1-.277,1.513,4.422,4.422,0,0,1-1.913,2.177,7.588,7.588,0,0,1-2.5.9.849.849,0,0,1-.341-1.662,3.981,3.981,0,0,0,3.041-2.085,2.048,2.048,0,0,0,.138-.8,1.13,1.13,0,0,0-.212-.664,13.419,13.419,0,0,0-1.384-1.668,14.726,14.726,0,0,1-2.948-4.048,9.264,9.264,0,0,1-.557-5.03.644.644,0,0,1,.74-.531A.654.654,0,0,1,168.033,135.968Z" transform="translate(-166.627 -135.347)"/></g><g transform="translate(129.293 31.76)"><path d="M156.273,133.011a7.676,7.676,0,0,1,2-1.882,6.83,6.83,0,0,1,2.59-1.072,5.277,5.277,0,0,1,2.939.315,6.185,6.185,0,0,1,2.26,1.762.845.845,0,0,1-1.179,1.2l-.081-.07a6.059,6.059,0,0,0-1.725-1.172,3.893,3.893,0,0,0-1.945-.262,6.05,6.05,0,0,0-2.05.661,8.849,8.849,0,0,0-1.847,1.26l-.057.054a.605.605,0,0,1-.9-.8Z" transform="translate(-156.155 -129.972)"/></g><g transform="translate(150.192 32.617)"><path d="M167.578,132.643a3.726,3.726,0,0,1,1.62-1.6,4.585,4.585,0,0,1,2.043-.6,3.555,3.555,0,0,1,2.15.605,4.033,4.033,0,0,1,1.286,1.627.6.6,0,0,1-.961.694l-.061-.059a4.011,4.011,0,0,0-1.116-.864,2.18,2.18,0,0,0-1.185-.19,3.564,3.564,0,0,0-1.269.406,4.479,4.479,0,0,0-.959.679l-.225.242a.817.817,0,0,1-1.321-.939Z" transform="translate(-167.482 -130.436)"/></g><g transform="translate(133.105 40.169)"><ellipse cx="1.959" cy="3.18" rx="1.959" ry="3.18"/></g><g transform="translate(152.815 40.169)"><ellipse cx="1.959" cy="3.18" rx="1.959" ry="3.18"/></g><g transform="translate(145.548 64.995)"><path d="M167.063,154.281a1.781,1.781,0,0,1-.327-.031c-.793-.146-2.068-.745-1.709-3.126l0-.017c.362-2.074,1.563-3.061,2.59-3.122a1.878,1.878,0,0,1,1.865,1.452,4.889,4.889,0,0,1-.937,4.118A2,2,0,0,1,167.063,154.281Zm-.36-2.893c-.164,1.1.138,1.157.338,1.194.066.02.2-.107.247-.16a3.288,3.288,0,0,0,.574-2.5.446.446,0,0,0-.127-.236.325.325,0,0,0-.19.068A2.425,2.425,0,0,0,166.7,151.388Z" transform="translate(-164.965 -147.985)"/></g><g transform="translate(34.738 79.391)"><path d="M198.016,363.554l-.046,0c-51.044-2.672-84.422-26.333-89.909-47.241-7.57-28.835.327-57.148,4.57-72.358l.2-.729c4.116-14.774,8.006-28.728,20.789-41.931,10.443-10.786,30.438-18.4,38.975-21.646,1.616-.614,2.782-1.059,3.234-1.282,3.225-1.6,3.712-2.646,3.716-2.655,1.419-5.978,1.257-14.768.207-18.864a.848.848,0,1,1,1.642-.421c1.1,4.288,1.279,13.46-.225,19.761-.1.4-.723,1.782-4.587,3.7-.524.26-1.662.692-3.384,1.349-8.432,3.207-28.18,10.724-38.361,21.241-12.482,12.893-16.316,26.647-20.373,41.2l-.2.731c-4.2,15.056-12.015,43.081-4.563,71.473,5.316,20.25,37.87,43.175,87.789,45.948a34.944,34.944,0,0,0,.95-23.761c-5.369-1.321-49.367-12.761-56.225-34.215-7.307-22.853,7.3-62.9,8.8-65.748a.847.847,0,1,1,1.5.792c-1.417,2.677-15.7,42.511-8.687,64.439,6.86,21.46,54.987,33.079,55.472,33.195a.849.849,0,0,1,.611.566c4.688,14.619-.906,25.545-1.146,26A.849.849,0,0,1,198.016,363.554Z" transform="translate(-104.908 -155.787)"/></g><g transform="translate(135.673 83.555)"><path d="M219.777,265.5h-.028a.849.849,0,0,1-.821-.875c.369-11.836-8.681-46.376-14.9-56.86-5.943-10.019-25.305-19.015-31.619-21.377a34.961,34.961,0,0,1-11.831-7.827.865.865,0,0,1-.209-.382c-1.22-4.971-.736-17.746-.131-19.56a.847.847,0,1,1,1.607.537c-.43,1.292-.993,13.432.12,18.4A33.808,33.808,0,0,0,173,184.8c.249.094,25.1,9.663,32.484,22.1,6.318,10.65,15.513,45.747,15.137,57.777A.849.849,0,0,1,219.777,265.5Z" transform="translate(-159.613 -158.044)"/></g><g transform="translate(109.63 97.329)"><path d="M162.576,172.495c-6.268,0-12.991-1.963-16.807-5.517a.849.849,0,0,1,1.155-1.244c5.687,5.3,18.953,6.766,25.351,2.808a.848.848,0,1,1,.893,1.441A20.55,20.55,0,0,1,162.576,172.495Z" transform="translate(-145.498 -165.509)"/></g><g transform="translate(107.945 100.234)"><path d="M158.093,326.588c-.02,0-.041,0-.061,0a.849.849,0,0,1-.784-.908c1.308-18.063-7-143.754-12.6-157.424a.849.849,0,1,1,1.57-.644c5.64,13.773,14.036,140.06,12.72,158.19A.848.848,0,0,1,158.093,326.588Z" transform="translate(-144.585 -167.084)"/></g><g transform="translate(136.405 102.645)"><path d="M178.164,336.822c-.028,0-.055,0-.083,0a.849.849,0,0,1-.762-.926c1.113-11.39-.316-69.238-2.181-88.425-1.6-16.5-10.548-57.231-13.917-72.563-.622-2.83-1.046-4.77-1.194-5.5a.848.848,0,1,1,1.662-.334c.146.723.57,2.653,1.188,5.467,3.373,15.36,12.334,56.162,13.949,72.764,1.871,19.244,3.3,77.309,2.181,88.756A.848.848,0,0,1,178.164,336.822Z" transform="translate(-160.01 -168.39)"/></g><g transform="translate(111.26 102.562)"><path d="M150.567,188.991c-1.959,0-3.729-2.447-4.162-4.294a.848.848,0,0,1,1.651-.387c.308,1.317,1.688,3.041,2.568,2.982,1.378-.526,5.834-9.965,9.146-18.4a.813.813,0,0,1,.847-.537.845.845,0,0,1,.766.646c.71,2.932,8.2,14.417,9.773,14.988,1.155-.013,2.435-1.513,2.876-3.5a.849.849,0,1,1,1.657.369c-.62,2.788-2.57,4.814-4.635,4.814-2.17,0-8.194-9.618-10.469-14.237-2.9,7.212-7.388,17.333-9.808,17.55A2.007,2.007,0,0,1,150.567,188.991Z" transform="translate(-146.382 -168.345)"/></g><g transform="translate(91.191 102.227)"><path d="M163.982,325.123a.849.849,0,0,1-.814-.611c-1.256-4.275-6.967-17.951-12.006-30.014-4.867-11.659-7.862-18.864-8.054-20.078-.408-2.579,9.026-22.556,12.316-29.416-1.144-1.393-3.417-4.026-6.011-7.028-9.6-11.122-13.654-15.945-13.882-17.03-.648-3.046,10.882-43.989,13.2-52.166a.848.848,0,1,1,1.631.463c-5.277,18.619-13.521,49.027-13.17,51.361.463,1.157,8.628,10.613,13.506,16.264,2.888,3.343,5.382,6.231,6.386,7.489a.843.843,0,0,1,.1.9c-6.115,12.727-12.539,27.185-12.4,28.911.168,1.063,4.12,10.528,7.943,19.681,5.054,12.1,10.783,25.822,12.065,30.189a.845.845,0,0,1-.574,1.052A.9.9,0,0,1,163.982,325.123Z" transform="translate(-135.505 -168.164)"/></g><g transform="translate(145.251 109.089)"><path d="M174.306,330.868a.737.737,0,0,1-.111-.007.851.851,0,0,1-.733-.95c1.159-8.928,5.474-27.89,8.626-41.738,1.91-8.391,3.714-16.314,3.714-17.3,0-1.862-6.816-18.927-11.111-29.248a.854.854,0,0,1,.024-.7c1.367-2.733,11.952-24.964,12.179-26.809-.389-2.428-20.643-38.876-21.956-40.92a.849.849,0,0,1,1.428-.917c.227.354,22.4,39.487,22.22,41.966-.149,2.1-10.7,24.025-12.183,27.086,1.675,4.032,11.094,26.829,11.094,29.547,0,1.124-1.288,6.834-3.755,17.678-3.146,13.812-7.45,32.732-8.6,41.579A.849.849,0,0,1,174.306,330.868Z" transform="translate(-164.804 -171.882)"/></g><g transform="translate(169.52 158.167)"><path d="M182.894,330.473h-.02a.853.853,0,0,1-.828-.869c2.314-94.935-4.009-129.775-4.072-130.117a.848.848,0,1,1,1.666-.314c.065.343,6.421,35.3,4.1,130.471A.851.851,0,0,1,182.894,330.473Z" transform="translate(-177.958 -198.482)"/></g><g transform="translate(174.071 184.296)"><path d="M201.264,282.728c-.232,0-.463-.006-.694-.02-9.443-.611-18.084-12.722-20.122-21.135a.849.849,0,0,1,1.65-.4c1.869,7.722,10.039,19.29,18.582,19.842,8.131.48,18.014-10.032,26.433-28.224,5.046-10.965,10.334-27.553,13.881-39.538a.847.847,0,1,1,1.626.48c-3.563,12.041-8.877,28.711-13.967,39.769C220.023,272.144,210.085,282.728,201.264,282.728Z" transform="translate(-180.424 -212.644)"/></g><g transform="translate(187.776 148.49)"><path d="M188.7,259.4a.752.752,0,0,1-.157-.015.848.848,0,0,1-.677-.991,134.249,134.249,0,0,1,7.251-23.8,336.8,336.8,0,0,1,20.117-40.931.84.84,0,0,1,.993-.389s2.055.646,5.094,1.629a.635.635,0,0,1,.153.068c1.188.378,2.541.819,3.958,1.292a.849.849,0,0,1-.535,1.611c-1.472-.493-2.876-.95-4.094-1.338a.7.7,0,0,1-.161-.072c-1.937-.626-3.458-1.109-4.269-1.367A332.536,332.536,0,0,0,196.7,235.225a132.4,132.4,0,0,0-7.163,23.488A.845.845,0,0,1,188.7,259.4Z" transform="translate(-187.852 -193.237)"/></g><g transform="translate(227.311 107.329)"><path d="M226.477,191.62a.846.846,0,0,1-.847-.847V175.728a.847.847,0,0,1,.847-.849h.884a1.127,1.127,0,1,0,0-2.255H212.095a1.127,1.127,0,0,0,0,2.255h.9a.849.849,0,0,1,.849.849v12.041a.848.848,0,1,1-1.7,0l-.052-11.192a2.824,2.824,0,0,1,0-5.648h15.266a2.824,2.824,0,1,1,0,5.648h-.035v14.2A.846.846,0,0,1,226.477,191.62Z" transform="translate(-209.279 -170.929)"/></g><g transform="translate(243.662 144.235)"><path d="M218.988,192.933a.846.846,0,0,1-.847-.847v-.306a.848.848,0,1,1,1.7,0v.306A.846.846,0,0,1,218.988,192.933Z" transform="translate(-218.141 -190.931)"/></g><g transform="translate(243.662 130.022)"><path d="M218.988,185.619a.846.846,0,0,1-.847-.847v-.7a.848.848,0,1,1,1.7,0v.7A.846.846,0,0,1,218.988,185.619Z" transform="translate(-218.141 -183.228)"/></g><g transform="translate(211.775 129.802)"><path d="M226.849,239.336c-17.478,0-25.981-4-25.99-12.227-.007-7.517,11-20.159,16.287-26.235l1.288-1.485a3.414,3.414,0,0,0,.821-2.221l.007-13.211a.847.847,0,0,1,.847-.847h0a.847.847,0,0,1,.847.847l-.007,13.211a5.109,5.109,0,0,1-1.229,3.325l-1.3,1.5c-4.751,5.456-15.877,18.239-15.868,25.117.007,6.991,8.179,10.535,24.292,10.535,15.89,0,23.617-3.244,23.623-9.917,0-5.03-5.609-14.272-16.681-27.47-.387-.461-.679-.81-.856-1.028a.849.849,0,0,1,1.321-1.066c.172.214.456.554.836,1,4.223,5.037,17.082,20.364,17.076,28.56C252.161,235.537,243.879,239.336,226.849,239.336Z" transform="translate(-200.859 -183.109)"/></g><g transform="translate(218.961 123.306)"><path d="M206.782,208.109a.848.848,0,0,1-.84-.744c-.773-6.177-2.3-20.918.137-24.359,1.935-2.734,9.257-3.712,13.578-3.345,2.895.247,4.67,1.015,5.279,2.286a2.111,2.111,0,0,1,.041,1.81c-.773,1.74-3.746,2.742-7.552,3.873a16.8,16.8,0,0,0-2.867.994.829.829,0,0,1-1.181.065.862.862,0,0,1-.065-1.21c.447-.513,1.495-.841,3.629-1.476,2.233-.662,5.969-1.771,6.485-2.932a.425.425,0,0,0-.022-.391c-.229-.48-1.386-1.114-3.893-1.328-4.758-.406-10.838.924-12.048,2.635-1.605,2.262-1.074,13.268.162,23.171a.847.847,0,0,1-.736.945A.715.715,0,0,1,206.782,208.109Z" transform="translate(-204.754 -179.588)"/></g><g transform="translate(239.435 130.62)"><path d="M229.662,196.281a4.2,4.2,0,0,1-.469-.028c-2.655-.292-8.784-4.646-10.6-5.974-1.186-.867-3.4-2.485-2.557-4.915.681-1.967,3.971-2.212,6.751-1.312,2.441.792,7.129,3.341,8.64,5.38.886,1.194,1.631,3.851.666,5.535A2.643,2.643,0,0,1,229.662,196.281Zm-9.919-11.032c-1.149,0-1.974.293-2.105.672h0c-.362,1.044.41,1.858,1.959,2.991,3.668,2.683,8.117,5.473,9.781,5.657.935.1,1.159-.3,1.244-.445.524-.913.039-2.88-.555-3.683-1.161-1.565-5.329-3.972-7.8-4.777A8.332,8.332,0,0,0,219.743,185.249Zm-2.906.393h0Z" transform="translate(-215.85 -183.552)"/></g><g transform="translate(242.454 126.182)"><path d="M229.547,191.889a4.331,4.331,0,0,1-1.913-.483.848.848,0,1,1,.751-1.52,1.836,1.836,0,0,0,2.364-.253,2.084,2.084,0,0,0,.188-2.471c-1.421-2.094-6.561-3.856-8.277-4.172a5.32,5.32,0,0,0-3.474.212c-.124.945.539,1.873,2.1,2.882a.848.848,0,1,1-.919,1.424c-.792-.509-3.2-2.065-2.843-4.587a1.674,1.674,0,0,1,.714-1.133c1.17-.843,3.524-.69,4.731-.469,1.528.282,7.509,2.142,9.373,4.891a3.775,3.775,0,0,1-.314,4.535A3.22,3.22,0,0,1,229.547,191.889Z" transform="translate(-217.487 -181.147)"/></g><g transform="translate(245.978 123.36)"><path d="M229.831,188.578a1.068,1.068,0,0,1-.133-.009.849.849,0,0,1-.7-.972,4.651,4.651,0,0,0-.934-3.519,7.094,7.094,0,0,0-4.57-2.7c-1.1-.155-1.876-.042-2.188.306a1.613,1.613,0,0,0-.107,1.441.848.848,0,1,1-1.644.413,3.093,3.093,0,0,1,.487-2.987c.721-.806,1.961-1.1,3.683-.854a8.851,8.851,0,0,1,5.7,3.367,6.274,6.274,0,0,1,1.247,4.8A.851.851,0,0,1,229.831,188.578Z" transform="translate(-219.396 -179.617)"/></g><g transform="translate(239.422 136.436)"><path d="M227.577,198.8c-2.092,0-4.81-1.229-6.666-2.439-3.445-2.251-5.3-5.408-5.044-7.043a2.893,2.893,0,0,1,1.622-2.356,4.348,4.348,0,0,1,3.891.544.849.849,0,0,1-.9,1.441,2.681,2.681,0,0,0-2.29-.441c-.129.059-.518.238-.649,1.076-.1.637,1.068,3.251,4.293,5.358,3.137,2.048,6.257,2.644,6.847,1.793a2.042,2.042,0,0,0,.172-1.683,3.374,3.374,0,0,0-1.758-2.133.849.849,0,0,1,.69-1.552,5.077,5.077,0,0,1,2.7,3.229,3.634,3.634,0,0,1-.413,3.105A2.852,2.852,0,0,1,227.577,198.8Z" transform="translate(-215.843 -186.704)"/></g><g transform="translate(0 117.866)"><path d="M114.614,345.932a.848.848,0,0,1-.817-.624c-.271-.993-.812-2.849-1.554-5.391-4.076-13.971-14.9-51.083-19.543-78.008-7.777-45.112-8.661-67.9-2.862-73.877,9.024-9.314,54.607-12.253,68.356-11.183a.847.847,0,1,1-.129,1.688c-15.285-1.173-58.891,2.3-67.01,10.674-7.784,8.032.57,56.487,3.316,72.41C99,288.45,109.8,325.5,113.87,339.443c.745,2.555,1.29,4.421,1.563,5.417a.846.846,0,0,1-.819,1.072Z" transform="translate(-86.081 -176.64)"/></g><g transform="translate(130.413 266.624)"><path d="M194.913,279.165l-.249,0a.849.849,0,0,1,.007-1.7,1.108,1.108,0,0,1,.247,0c5.068,0,7.819-1.465,8.641-2.738a1.559,1.559,0,0,0,.151-1.579c-.053-.107-.716-1.124-7.275-3.439a65.936,65.936,0,0,1-6.57-2.886,69.04,69.04,0,0,0-11.519-4.648,95.857,95.857,0,0,0-21.525-3.214l-.059-.852.155-.841a97.39,97.39,0,0,1,21.9,3.277A70.688,70.688,0,0,1,190.6,265.3a63.838,63.838,0,0,0,6.4,2.814c6.618,2.34,7.884,3.543,8.249,4.329a3.245,3.245,0,0,1-.268,3.212C203.559,277.857,199.8,279.165,194.913,279.165Zm-38.151-21.054.048-.847Z" transform="translate(-156.762 -257.264)"/></g><g transform="translate(126.996 277.929)"><path d="M190.6,275.624a1.359,1.359,0,0,1-.2-.011c-1.006.006-27.442-.022-34.959-3.054a.848.848,0,1,1,.633-1.574c7.216,2.91,34.16,2.937,34.431,2.937a15.566,15.566,0,0,0,3.218-.7c.7-.188,1.352-.363,1.784-.458a2.223,2.223,0,0,0,.7-1.34,2.838,2.838,0,0,0-.316-2.467c-1.271-1.314-5.832-2.244-8.559-2.8a44.03,44.03,0,0,0-13.482-.895.848.848,0,1,1-.135-1.69,45.374,45.374,0,0,1,13.956.923c4.113.839,7.926,1.723,9.439,3.284,1.114,1.153,1.048,3.081.653,4.382a2.968,2.968,0,0,1-1.906,2.264c-.413.087-1.031.255-1.7.436A18.2,18.2,0,0,1,190.6,275.624Z" transform="translate(-154.911 -263.391)"/></g><g transform="translate(225.43 162.013)"><circle cx="3.918" cy="3.918" r="3.918"/></g><g transform="translate(232.267 173.598)"><circle cx="1.976" cy="1.976" r="1.976"/></g><g transform="translate(248.21 165.284)"><circle cx="1.976" cy="1.976" r="1.976"/></g></g><g transform="translate(251.317 43.47)"><g transform="translate(44.076 35.851)"><path d="M275.708,148.115a19.786,19.786,0,0,1-12.3-4.365c-11.113-8.554-16.971-38.361-17.215-39.627a.92.92,0,0,1-.015-.225c.568-7.524,9.825-18.569,12.259-20.862a.851.851,0,0,1,1.36.282,16.565,16.565,0,0,0,5.419,6.356c3.482,2.332,8.775,4.092,13.443,5.646,4.135,1.375,7.7,2.561,9.818,3.985,3.467,2.336,5.777,4.161,6.969,6.181.93-1.482,2.6-3.424,4.976-3.509a4.436,4.436,0,0,1,3.424,1.491c1.609,1.67,2.441,4.5,2.222,7.572-.375,5.223-3.129,8.862-6.973,9.38,1.1,9.126-1.7,16.9-7.923,21.951C290.179,143.181,283.777,148.115,275.708,148.115Zm-27.827-44.2c.408,2.03,6.284,30.58,16.561,38.49,11.98,9.222,24.3-.24,25.661-1.347,6.035-4.9,8.521-12.268,7.192-21.3a.85.85,0,0,1,.84-.971c4.192,0,5.984-4.238,6.242-7.869a8.325,8.325,0,0,0-1.749-6.271,2.864,2.864,0,0,0-2.146-.972c-2.673.092-4.314,4.063-4.33,4.1a.889.889,0,0,1-.841.53.853.853,0,0,1-.768-.633c-.589-2.281-2.919-4.2-7.013-6.961-1.921-1.3-5.556-2.5-9.4-3.784-4.771-1.587-10.181-3.386-13.853-5.847a18.038,18.038,0,0,1-5.471-5.995C255.763,88.345,248.432,97.635,247.881,103.914Z" transform="translate(-246.178 -82.806)"/></g><g transform="translate(95.631 61.716)"><path d="M277.55,98.08a4.392,4.392,0,0,0-.762.788,4.062,4.062,0,0,0-.535,1.052,7.507,7.507,0,0,0-.428,2.452l0,.026a.848.848,0,0,1-1.694-.006,6.742,6.742,0,0,1,.094-1.572,6.937,6.937,0,0,1,.454-1.561,5.719,5.719,0,0,1,.928-1.384,3.708,3.708,0,0,1,1.432-1.006.649.649,0,0,1,.637,1.116Z" transform="translate(-274.12 -96.824)"/></g><g transform="translate(60.621 59.278)"><path d="M257.248,95.782a11.309,11.309,0,0,1,1.526,3.395,20.73,20.73,0,0,1,.749,3.519,19.346,19.346,0,0,1-.476,7.194,30.476,30.476,0,0,1-1.083,3.4,21.942,21.942,0,0,0-1.061,3.1,2.193,2.193,0,0,0,.934,2.133,3.956,3.956,0,0,0,2.755.186l.026-.006a.848.848,0,1,1,.352,1.659h-.006a5.557,5.557,0,0,1-4.011-.356,3.87,3.87,0,0,1-1.773-3.851,21.224,21.224,0,0,1,1.175-3.471,28.452,28.452,0,0,0,1.041-3.207,17.654,17.654,0,0,0,.474-6.587,26.334,26.334,0,0,0-.6-3.292,14.442,14.442,0,0,0-1.092-3.013l-.052-.092a.666.666,0,0,1,1.124-.712Z" transform="translate(-255.146 -95.503)"/></g><g transform="translate(49.038 57.762)"><path d="M248.881,99.178a6.019,6.019,0,0,1,1.076-2.354A5.478,5.478,0,0,1,252,95.076a4.753,4.753,0,0,1,2.762-.319,6.569,6.569,0,0,1,2.432.991.845.845,0,0,1-.8,1.487l-.087-.042a6.93,6.93,0,0,0-1.852-.727,3.047,3.047,0,0,0-1.773.166,5.14,5.14,0,0,0-2.6,2.854l-.026.059a.616.616,0,0,1-1.17-.367Z" transform="translate(-248.868 -94.681)"/></g><g transform="translate(68.01 54.865)"><path d="M259.17,96.1a3.513,3.513,0,0,1,2.113-2.4,6.167,6.167,0,0,1,2.83-.587,6.051,6.051,0,0,1,2.744.834,6.4,6.4,0,0,1,1.983,1.95.593.593,0,0,1-.921.742l-.03-.031a6.845,6.845,0,0,0-1.747-1.364,4.914,4.914,0,0,0-4.1.013,2.347,2.347,0,0,0-1.2,1.144l-.033.122a.845.845,0,0,1-1.637-.419Z" transform="translate(-259.15 -93.111)"/></g><g transform="translate(53.044 64.019)"><ellipse cx="1.678" cy="3.244" rx="1.678" ry="3.244" transform="matrix(0.969, -0.248, 0.248, 0.969, 0, 0.832)"/></g><g transform="translate(70.788 60.512)"><ellipse cx="1.678" cy="3.244" rx="1.678" ry="3.244" transform="matrix(0.969, -0.248, 0.248, 0.969, 0, 0.832)"/></g><g transform="translate(68.018 81.509)"><path d="M266.737,119.5c-3.847,0-6.445-3.151-7.5-5.426a.848.848,0,0,1,0-.729.856.856,0,0,1,.57-.454,44.264,44.264,0,0,0,12.2-5.2.839.839,0,0,1,.773-.072.848.848,0,0,1,.507.589c.083.345,1.954,8.458-3.478,10.659A8.131,8.131,0,0,1,266.737,119.5Zm-5.471-5.233c1.345,2.164,4.094,4.572,7.914,3.024,3.046-1.236,2.926-5.436,2.662-7.513A46.848,46.848,0,0,1,261.266,114.267Z" transform="translate(-259.154 -107.551)"/></g><g transform="translate(34.344 13.596)"><path d="M304.419,149.057c-.03,0-.057,0-.085,0a.849.849,0,0,1-.762-.926c.555-5.679,6.4-21.4,9.41-28.927,1.255-3.137,4.893-17.25-.244-29.019-2.86-6.552-7.963-11.279-15.167-14.045-27.268-10.478-40.826,4.079-45.385,10.827-6.526,9.657-11.836,27.46-8.644,35.086,2.716,6.489,7.613,6.847,10.246,7.041.341.026.64.048.889.079a.846.846,0,0,1,.736.945.854.854,0,0,1-.945.738c-.225-.03-.5-.046-.8-.07-2.782-.2-8.569-.627-11.687-8.076-3.445-8.231,1.9-26.482,8.8-36.693,4.786-7.08,18.98-22.373,47.4-11.46,7.642,2.937,13.063,7.965,16.111,14.949,5.281,12.1,1.873,26.307.26,30.328-3.463,8.653-8.8,23.373-9.294,28.462A.848.848,0,0,1,304.419,149.057Z" transform="translate(-240.904 -70.743)"/></g><g transform="translate(75.503 71.833)"><path d="M273.746,142.312c-5.463,0-9.631-4.33-9.838-4.546a.851.851,0,0,1-.229-.646,16.243,16.243,0,0,0-.435-6.325.848.848,0,0,1,1.631-.467,17.2,17.2,0,0,1,.524,6.522c1.124,1.052,5.751,4.971,10.867,3.384,5.9-1.828,8.974-6.247,9.657-8.873-.286-2.244-3.03-23.807-3.03-28.206a.848.848,0,1,1,1.7,0c0,4.436,3.006,27.912,3.037,28.149a.867.867,0,0,1-.015.3c-.6,2.568-3.637,8.015-10.842,10.248A10.143,10.143,0,0,1,273.746,142.312Z" transform="translate(-263.211 -102.307)"/></g><g transform="translate(82.683)"><path d="M315.579,162.908c-8.692,0-13.382-6.351-14.366-9.91a.849.849,0,0,1,1.637-.45c.98,3.554,6.218,10.264,16.2,8.316,7.388-1.441,11.091-8.949,12.55-12.9-3.559,2.179-9.725,3.893-17.135-2.646-8.273-7.3-10.441-32.055-11.735-46.843-.2-2.236-.369-4.225-.539-5.858-1.325-12.663-7.928-26.671-19.3-27.5a12.261,12.261,0,0,0-10,3.354,14.566,14.566,0,0,0-4.079,9.321.85.85,0,0,1-.788.906.869.869,0,0,1-.906-.786,15.992,15.992,0,0,1,4.576-10.642,13.87,13.87,0,0,1,11.323-3.845c12.414.908,19.423,15.226,20.864,29.018.172,1.64.345,3.639.542,5.886,1.19,13.583,3.4,38.865,11.168,45.719,7.95,7.017,14.095,3.666,17.047,1.046a.857.857,0,0,1,1-.094.845.845,0,0,1,.389.923c-.137.589-3.517,14.432-14.648,16.6A19.887,19.887,0,0,1,315.579,162.908Z" transform="translate(-267.103 -63.375)"/></g><g transform="translate(103.185 69.797)"><path d="M297.283,136.525a13.784,13.784,0,0,1-7.093-2c-9.6-5.661-11.561-24.366-11.96-32.147l-.015-.282a.846.846,0,0,1,.8-.893.83.83,0,0,1,.893.8l.015.29c.384,7.506,2.236,25.53,11.128,30.774a12.051,12.051,0,0,0,9.886,1.2c3.694-1.133,6.176-3.611,6.685-4.683a.848.848,0,1,1,1.533.725c-.738,1.561-3.622,4.321-7.72,5.578A14.13,14.13,0,0,1,297.283,136.525Z" transform="translate(-278.214 -101.204)"/></g><g transform="translate(98.23 100.09)"><path d="M350.971,199.64a.847.847,0,0,1-.836-.712c-1.806-11.2-16.967-44.765-28.914-54.286-8.227-6.552-16.89-10.288-23.217-13.015-1.347-.579-2.578-1.113-3.662-1.611-1.7-.779-3.417-1.471-5.078-2.138-5.493-2.214-10.683-4.306-13.6-8.956a.847.847,0,1,1,1.434-.9c2.631,4.185,7.345,6.083,12.8,8.284,1.677.677,3.412,1.376,5.148,2.172,1.078.493,2.3,1.018,3.631,1.594,6.413,2.764,15.2,6.55,23.6,13.248,12.458,9.925,27.643,43.631,29.53,55.339a.845.845,0,0,1-.7.971A.7.7,0,0,1,350.971,199.64Z" transform="translate(-275.529 -117.622)"/></g><g transform="translate(0 273.734)"><path d="M240.534,239.412a.782.782,0,0,1-.194-.022c-2.965-.694-7.945-1.777-11.807-2.607l-5.559-1.172a.847.847,0,0,1-.673-.812,212.011,212.011,0,0,1,1.327-22.3.848.848,0,0,1,1.688.17c-.9,8.995-1.367,16.556-1.328,21.425l4.9,1.031c3.877.834,8.869,1.921,11.842,2.618a.847.847,0,0,1-.194,1.672Z" transform="translate(-222.29 -211.734)"/></g><g transform="translate(4.165 105.856)"><path d="M225.4,267.626c-.041,0-.081,0-.122-.007a.85.85,0,0,1-.72-.959c1.448-10.129,3.231-20.881,5.3-31.955,4.5-24.147,16.906-82.182,34.863-99.573,5.912-5.7,20.785-10.308,23.761-10.777A23.851,23.851,0,0,0,294,122.439a16.4,16.4,0,0,0,2.664-1.507.848.848,0,1,1,1.054,1.328,17.2,17.2,0,0,1-2.991,1.712,26.145,26.145,0,0,1-5.982,2.055c-2.775.437-17.3,4.965-22.849,10.323-17.606,17.05-29.9,74.68-34.374,98.666-2.063,11.05-3.841,21.776-5.286,31.881A.846.846,0,0,1,225.4,267.626Z" transform="translate(-224.547 -120.747)"/></g><g transform="translate(13.002 107.468)"><path d="M262.117,363.5c-9.687,0-22.228-.952-32.246-4.934a.846.846,0,0,1-.53-.867c.135-1.421,13.624-142.436,23.7-180.589a.848.848,0,0,1,1.638.435c-9.694,36.7-22.589,169.268-23.591,179.674,16.916,6.46,40.876,4.356,45.378,3.888.066-78.019,10.379-228.277,13.017-238.847a.848.848,0,0,1,1.646.411c-2.637,10.563-12.967,161.481-12.967,239.2a.848.848,0,0,1-.744.841A139.671,139.671,0,0,1,262.117,363.5Z" transform="translate(-229.337 -121.62)"/></g><g transform="translate(88.755 104.257)"><path d="M310.2,365.729a112.552,112.552,0,0,1-35.51-5.775.848.848,0,0,1-.542-.683c-2.629-19.908-5.107-91.195-2.913-126.279,2.74-43.791,11.607-106.8,12.724-112.428a.839.839,0,0,1,1-.666.849.849,0,0,1,.666,1c-1.111,5.609-9.96,68.48-12.694,112.2-2.17,34.706.24,104.9,2.838,125.438,3.98,1.378,32.173,10.46,60.159,1.819-.035-8.949-.472-110-2.539-133.779a.845.845,0,0,1,.771-.917.854.854,0,0,1,.919.771c2.159,24.827,2.543,133.451,2.546,134.545a.846.846,0,0,1-.59.81A88.8,88.8,0,0,1,310.2,365.729Z" transform="translate(-270.393 -119.88)"/></g><g transform="translate(130.485 135.343)"><path d="M337.723,232.794c-13.9,0-26.434-23.979-35.658-41.621-3.52-6.733-6.559-12.548-8.869-15.449a.847.847,0,1,1,1.325-1.057c2.413,3.03,5.487,8.912,9.048,15.72,9.262,17.718,21.94,42,35.18,40.66,13.844-1.384,34.54-36.962,46.9-58.22,4.061-6.982,7.319-12.585,9.38-15.379-2.009-2.908-12.666-17.7-22.4-18.962-.555.825-1.954,2.43-5.3,6.211-9.091,10.257-28,31.593-37.274,50.5a.848.848,0,1,1-1.524-.745c9.375-19.109,28.39-40.564,37.527-50.874,2.53-2.852,4.733-5.34,5.185-6.059a.968.968,0,0,1,.03-.162.847.847,0,0,1,.876-.62c11.731.836,24.115,19.486,24.635,20.279a.843.843,0,0,1-.041.987c-1.954,2.495-5.34,8.314-9.626,15.681-13.338,22.931-33.494,57.585-48.2,59.054A11.359,11.359,0,0,1,337.723,232.794ZM371.7,138.331h0Zm0,0v0Zm0,0h0Zm0,0,0,0Zm0,0Zm0,0h0Z" transform="translate(-293.01 -136.728)"/></g><g transform="translate(213.824 120.007)"><path d="M339.026,146.892a.832.832,0,0,1-.36-.081.844.844,0,0,1-.406-1.127c2.384-5.067,9.731-11.86,14.224-14.107,3.2-1.6,10.432-4.341,12.392-2.6a1.8,1.8,0,0,1,.517,1.766c-.4,2.05-3.323,4.707-6.384,5.8-3.555,1.269-5.836,4.264-5.91,4.982a.875.875,0,0,1-.915.775.836.836,0,0,1-.777-.886c.105-1.631,3.107-5.067,7.032-6.469a9.835,9.835,0,0,0,5.144-4.107,1.078,1.078,0,0,0,.153-.611c-.72-.568-5.722.482-10.493,2.869-4.229,2.113-11.264,8.672-13.449,13.31A.847.847,0,0,1,339.026,146.892Z" transform="translate(-338.179 -128.417)"/></g><g transform="translate(228.232 128.442)"><path d="M393.407,144.233a2.4,2.4,0,0,1-1.039-.231.847.847,0,1,1,.729-1.53.9.9,0,0,0,.978-.225c.363-.439-.12-1.2-.345-1.509-1.642-2.245-13.087-5.258-22.678-5.969-6.367-.478-21.809,1.068-24.017,1.6a.848.848,0,1,1-.4-1.65c2.26-.544,18.054-2.118,24.54-1.644,8.412.625,21.582,3.46,23.92,6.663,1.419,1.937.576,3.238.284,3.591A2.585,2.585,0,0,1,393.407,144.233Z" transform="translate(-345.987 -132.988)"/></g><g transform="translate(231.255 142.098)"><path d="M348.475,153.168a.848.848,0,0,1-.472-1.552c4.718-3.17,12.6-5.133,22.794-5.681a75.684,75.684,0,0,1,10.323.554,35.885,35.885,0,0,0,5.624.338,1.027,1.027,0,0,0,.55-.21,2.216,2.216,0,0,0-.856-.884c-1.107-.725-5.956-2.4-10.133-3.146a50.517,50.517,0,0,0-14.135,0,.863.863,0,0,1-1-.67.852.852,0,0,1,.672-1,51.8,51.8,0,0,1,14.757,0c4.244.755,9.36,2.476,10.766,3.4a2.822,2.822,0,0,1,1.574,2.67c-.089.445-.45,1.234-1.88,1.507a30.232,30.232,0,0,1-6.107-.316,75.879,75.879,0,0,0-10.065-.55c-9.89.533-17.477,2.4-21.944,5.4A.834.834,0,0,1,348.475,153.168Z" transform="translate(-347.626 -140.389)"/></g><g transform="translate(247.423 138.018)"><path d="M381.681,147.916a8.235,8.235,0,0,1-3.039-.535.849.849,0,1,1,.65-1.568,6.8,6.8,0,0,0,4.41.081.948.948,0,0,0,.506-.362.526.526,0,0,0-.033-.437c-.146-.323-.895-1.474-4.465-2.766-4.52-1.637-18.145-2.878-22.361-2.321a.847.847,0,1,1-.225-1.679c4.48-.6,18.37.668,23.161,2.406,2.065.745,4.683,1.987,5.436,3.666a2.2,2.2,0,0,1,.061,1.76,2.446,2.446,0,0,1-1.421,1.3A7.188,7.188,0,0,1,381.681,147.916Z" transform="translate(-356.389 -138.178)"/></g><g transform="translate(249.398 134.335)"><path d="M382.371,145.145a4.693,4.693,0,0,1-1.391-.212.848.848,0,1,1,.5-1.62,2.2,2.2,0,0,0,2.264-.373.51.51,0,0,0,.105-.483c-.076-.24-.537-1.109-3.319-2.161-4.318-1.631-16.261-3.035-22.1-2.168a.849.849,0,0,1-.247-1.679c6.056-.884,18.454.563,22.945,2.26,2.539.961,3.96,2.022,4.338,3.244a2.19,2.19,0,0,1-.328,1.954A3.328,3.328,0,0,1,382.371,145.145Z" transform="translate(-357.459 -136.182)"/></g><g transform="translate(63.42 241.069)"><path d="M273.852,198.665c-6,0-12.318-.895-16.711-3.022a.848.848,0,1,1,.738-1.526c6.467,3.129,17.4,3.445,24.868,2.135a.848.848,0,1,1,.292,1.67A54.386,54.386,0,0,1,273.852,198.665Z" transform="translate(-256.662 -194.03)"/></g><g transform="translate(89.055 107.468)"><path d="M271.407,292.651a.881.881,0,0,1-.17-.017.848.848,0,0,1-.664-1c3.312-16.53,14.161-48.007,19.99-64.919,2.186-6.342,4.076-11.82,4.163-12.487-.164-1.452-7.659-11.563-14.807-20.467a.848.848,0,0,1-.181-.642.859.859,0,0,1,.34-.574c3.878-2.847,15.678-11.511,16.377-13.419.52-2.144-3.332-31.735-5.181-45.955-.651-5-1.161-8.9-1.356-10.606a.847.847,0,0,1,.744-.941.862.862,0,0,1,.941.745c.2,1.7.7,5.592,1.352,10.582,3.69,28.344,5.7,45.083,5.092,46.758-.747,2.041-8.168,7.731-16.253,13.679,4.875,6.094,14.807,18.805,14.622,20.991-.055.685-1.085,3.709-4.249,12.89-5.816,16.873-16.643,48.278-19.929,64.7A.849.849,0,0,1,271.407,292.651Z" transform="translate(-270.556 -121.621)"/></g><g transform="translate(40.702 109.447)"><path d="M266.309,292.706a.845.845,0,0,1-.825-.655c-.745-3.168-3.078-11.836-6.03-22.811-10.425-38.75-15.617-58.812-15.065-60.917.718-2.733,12.631-16.235,15.517-19.475-.57-.677-1.437-1.648-2.4-2.731-5.936-6.642-8.738-10.091-8.611-11.718.122-1.578,6.211-15.259,14.8-34.42,3.605-8.041,6.718-14.984,7.4-16.746a.849.849,0,0,1,1.581.616c-.7,1.8-3.819,8.76-7.432,16.822-5.749,12.829-14.436,32.215-14.655,33.866.028,1.321,5.744,7.72,8.185,10.45,1.345,1.506,2.41,2.7,2.926,3.367a.849.849,0,0,1-.041,1.081c-5.773,6.456-15.12,17.406-15.622,19.316-.393,2.589,9.281,38.557,15.061,60.046,2.956,10.989,5.292,19.669,6.043,22.864a.846.846,0,0,1-.631,1.018A.784.784,0,0,1,266.309,292.706Z" transform="translate(-244.349 -122.693)"/></g><g transform="translate(5.254 297.107)"><path d="M235.307,255.824a.845.845,0,0,1-.528-.186c-9.172-7.321-10.4-25.049-9.314-30.551a.848.848,0,0,1,1.664.328c-1.028,5.223.092,22.021,8.707,28.9a.849.849,0,0,1-.53,1.511Z" transform="translate(-225.137 -224.401)"/></g><g transform="translate(11.912 305.844)"><path d="M233.235,242.235a.846.846,0,0,1-.764-.482c-.231-.476-.483-.963-.745-1.469-1.336-2.574-3-5.779-2.98-10.3a.846.846,0,0,1,.847-.845h0a.847.847,0,0,1,.845.851c-.017,4.109,1.474,6.982,2.79,9.515.271.522.531,1.024.768,1.517a.85.85,0,0,1-.764,1.216Z" transform="translate(-228.746 -229.137)"/></g><g transform="translate(26.16 346.634)"><path d="M237.333,285.885a.85.85,0,0,1-.849-.828c-.183-7.819,1.172-25.016,2.367-33.088a.848.848,0,0,1,1.677.247c-1.185,8.01-2.528,25.058-2.349,32.8a.85.85,0,0,1-.827.869Z" transform="translate(-236.468 -251.245)"/></g><g transform="translate(139.829 347.675)"><path d="M300.662,285.408a.847.847,0,0,1-.847-.849c0-8.458-.668-27.388-1.716-31.706a.849.849,0,0,1,1.65-.4c1.162,4.8,1.762,24.678,1.762,32.106A.849.849,0,0,1,300.662,285.408Z" transform="translate(-298.075 -251.809)"/></g></g><g transform="translate(409.171)"><g transform="translate(12.742 15.718)"><path d="M335.223,53.3c-20.473,0-20.473-1.867-20.473-2.482s0-2.485,20.473-2.485S355.7,50.2,355.7,50.819,355.7,53.3,335.223,53.3Zm-16.739-2.482a140.648,140.648,0,0,0,16.739.786,140.638,140.638,0,0,0,16.74-.786,139.6,139.6,0,0,0-16.74-.79A139.588,139.588,0,0,0,318.484,50.819Zm35.743.5h0Z" transform="translate(-314.75 -48.334)"/></g><g transform="translate(12.741 17.355)"><path d="M347.968,91.44H329.485a7.723,7.723,0,0,1-7.731-7.731l0-3.563c.009-8.679.022-19.859.022-21.445,0-4.33-4.273-6.633-6.1-7.616-.212-.113-.387-.208-.517-.284a.848.848,0,1,1,.862-1.461c.116.068.271.151.459.253,1.912,1.031,6.989,3.766,6.989,9.109,0,1.587-.015,12.766-.024,21.449l0,3.563a6.032,6.032,0,0,0,6.035,6.032h18.482A6.044,6.044,0,0,0,354,83.709V50.07a.848.848,0,1,1,1.7,0V83.709A7.738,7.738,0,0,1,347.968,91.44Z" transform="translate(-314.749 -49.221)"/></g><g transform="translate(59.899)"><path d="M362.327,100.57c-13.995,0-22.019-3.95-22.019-10.842,0-6.812,14.392-30.924,15.991-33.582V44.6h-1.513a2.393,2.393,0,0,1,0-4.786h15.082a2.393,2.393,0,0,1,0,4.786h-1.513V56.125c1.784,2.688,17.353,26.32,17.353,33.182C385.708,97.088,373.964,100.57,362.327,100.57Zm-7.541-59.059a.7.7,0,1,0,0,1.393h2.362a.847.847,0,0,1,.847.849v12.63a.861.861,0,0,1-.122.439C352.384,65.9,342,84.455,342,89.728c0,5.727,7.6,9.146,20.324,9.146,12.766,0,21.683-3.934,21.683-9.567,0-5.489-12.423-25.289-17.209-32.455a.841.841,0,0,1-.144-.47V43.752a.849.849,0,0,1,.849-.849h2.362a.7.7,0,1,0,0-1.393Z" transform="translate(-340.308 -39.815)"/></g><g transform="translate(124.955 7.86)"><path d="M410.815,96.464c-9.587,0-19.919-.729-22.434-1.736-5.139-2.054-6.906-10.065-5.336-16.261a29.053,29.053,0,0,1,2.867-6.3c2.225-4.065,4.526-8.268,3.319-12.325-1.915-6.443-9.744-10.41-13.021-11.229a.848.848,0,0,1-.642-.845c0-.006.044-1.76,0-2.806a.847.847,0,0,1,.262-.649.885.885,0,0,1,.662-.231c10.327.956,29.96,4.9,45.409,20.558,9.552,9.679,10.347,18.078,9.973,22.224-.319,3.489-1.677,6.467-3.544,7.777S418.9,96.464,410.815,96.464Zm-33.54-49.319c3.969,1.223,11.558,5.4,13.582,12.209,1.408,4.734-1.177,9.458-3.456,13.622a28,28,0,0,0-2.714,5.91c-1.537,6.065.482,12.731,4.323,14.268,4.312,1.727,35.116,2.356,38.346.092,1.186-.83,2.522-3.175,2.829-6.541.349-3.854-.417-11.69-9.487-20.879-14.615-14.812-33.1-18.881-43.415-19.967C377.284,46.319,377.281,46.784,377.275,47.145Z" transform="translate(-375.568 -44.075)"/></g><g transform="translate(25.191 24.623)"><path d="M322.344,81.751a.846.846,0,0,1-.847-.847v-26.9a.848.848,0,1,1,1.7,0V80.9A.847.847,0,0,1,322.344,81.751Z" transform="translate(-321.497 -53.16)"/></g><g transform="translate(22.647 24.623)"><path d="M329.961,54.856h-8.995a.848.848,0,1,1,0-1.7h8.995a.848.848,0,1,1,0,1.7Z" transform="translate(-320.118 -53.16)"/></g><g transform="translate(25.191 30.018)"><path d="M328.8,57.78h-6.452a.848.848,0,0,1,0-1.7H328.8a.848.848,0,1,1,0,1.7Z" transform="translate(-321.497 -56.084)"/></g><g transform="translate(25.191 36.73)"><path d="M328.386,61.419h-6.043a.849.849,0,0,1,0-1.7h6.043a.849.849,0,1,1,0,1.7Z" transform="translate(-321.497 -59.722)"/></g><g transform="translate(25.191 40.889)"><path d="M328.386,63.672h-6.043a.848.848,0,0,1,0-1.7h6.043a.848.848,0,1,1,0,1.7Z" transform="translate(-321.497 -61.976)"/></g><g transform="translate(25.191 47.02)"><path d="M327.5,66.995h-5.157a.848.848,0,0,1,0-1.7H327.5a.848.848,0,1,1,0,1.7Z" transform="translate(-321.497 -65.299)"/></g><g transform="translate(23.1 51.518)"><path d="M328.8,69.433h-7.587a.848.848,0,1,1,0-1.7H328.8a.848.848,0,0,1,0,1.7Z" transform="translate(-320.364 -67.737)"/></g><g transform="translate(72.46 26.169)"><path d="M352.939,55.694h-4.974a.848.848,0,1,1,0-1.7h4.974a.848.848,0,1,1,0,1.7Z" transform="translate(-347.116 -53.998)"/></g><g transform="translate(71.574 29.711)"><path d="M355.048,57.614h-7.565a.848.848,0,0,1,0-1.7h7.565a.848.848,0,1,1,0,1.7Z" transform="translate(-346.636 -55.918)"/></g><g transform="translate(67.486 37.957)"><path d="M354.535,62.083h-9.266a.848.848,0,1,1,0-1.7h9.266a.848.848,0,1,1,0,1.7Z" transform="translate(-344.42 -60.387)"/></g><g transform="translate(69.393 42.387)"><path d="M351.856,64.484H346.3a.848.848,0,1,1,0-1.7h5.554a.848.848,0,1,1,0,1.7Z" transform="translate(-345.454 -62.788)"/></g><g transform="translate(68.098 46.542)"><path d="M350.712,66.737H345.6a.849.849,0,1,1,0-1.7h5.111a.849.849,0,1,1,0,1.7Z" transform="translate(-344.752 -65.04)"/></g><g transform="translate(13.286 110.668)"><path d="M332.249,148.557c-3.74,0-12.788-.354-16.012-3.644a3.87,3.87,0,0,1-1.192-2.852c.061-2.958,2.686-10.194,5-16.582,1.192-3.29,2.223-6.129,2.566-7.5.827-3.316,1.144-9.576,1.194-12.849h-.371a2.665,2.665,0,1,1,0-5.33h15.809a2.665,2.665,0,1,1,0,5.33h-.133a84.827,84.827,0,0,0,1.506,12.6h0c.231,1.037,1.218,3.777,2.364,6.949,3.15,8.74,5.526,15.6,5.092,17.838C347.3,146.481,339.53,148.557,332.249,148.557Zm-8.812-47.064a.969.969,0,1,0,0,1.937h1.225a.849.849,0,0,1,.849.849c0,2.362-.231,10.021-1.251,14.106-.365,1.459-1.41,4.34-2.618,7.674-2.044,5.639-4.843,13.36-4.9,16.037a2.2,2.2,0,0,0,.71,1.631c1.893,1.934,7.565,3.135,14.8,3.135,7.307,0,13.659-2.1,14.159-4.675.38-1.952-3-11.334-5.024-16.94-1.21-3.358-2.168-6.011-2.421-7.155h0a85.186,85.186,0,0,1-1.566-13.8.862.862,0,0,1,.245-.605.849.849,0,0,1,.6-.251h1a.969.969,0,0,0,0-1.937Z" transform="translate(-315.044 -99.795)"/></g><g transform="translate(24.213 124.639)"><path d="M325.973,109.063h-4.157a.848.848,0,1,1,0-1.7h4.157a.848.848,0,1,1,0,1.7Z" transform="translate(-320.967 -107.367)"/></g><g transform="translate(24.554 127.842)"><path d="M325.272,110.8H322a.848.848,0,1,1,0-1.7h3.271a.848.848,0,0,1,0,1.7Z" transform="translate(-321.152 -109.103)"/></g><g transform="translate(22.849 132.135)"><path d="M326.053,113.126h-4.976a.848.848,0,1,1,0-1.7h4.976a.848.848,0,0,1,0,1.7Z" transform="translate(-320.228 -111.43)"/></g><g transform="translate(23.6 135.744)"><path d="M325.231,115.083h-3.747a.849.849,0,0,1,0-1.7h3.747a.849.849,0,0,1,0,1.7Z" transform="translate(-320.635 -113.386)"/></g><g transform="translate(21.896 141.198)"><path d="M325.195,118.038H320.56a.848.848,0,1,1,0-1.7h4.635a.848.848,0,0,1,0,1.7Z" transform="translate(-319.711 -116.342)"/></g><g transform="translate(21.896 144.47)"><path d="M324.137,119.811H320.56a.848.848,0,1,1,0-1.7h3.578a.848.848,0,1,1,0,1.7Z" transform="translate(-319.711 -118.115)"/></g><g transform="translate(21.896 147.728)"><path d="M324.137,121.578H320.56a.849.849,0,1,1,0-1.7h3.578a.849.849,0,0,1,0,1.7Z" transform="translate(-319.711 -119.881)"/></g><g transform="translate(63.146 79.23)"><path d="M371.72,162.956c-16.9,0-29.652-12-29.652-27.925A29.757,29.757,0,0,1,358.742,108.4V89.179h-1.151a3.211,3.211,0,0,1,0-6.423h28.123a3.211,3.211,0,0,1,0,6.423h-1.151v19.154a29.728,29.728,0,0,1,16.809,26.7C401.371,150.952,388.625,162.956,371.72,162.956Zm-14.13-78.5a1.514,1.514,0,1,0,0,3.028h2a.849.849,0,0,1,.849.849v20.6a.85.85,0,0,1-.491.769,28.054,28.054,0,0,0-16.183,25.327c0,14.954,12.017,26.23,27.955,26.23s27.955-11.275,27.955-26.23a28.034,28.034,0,0,0-16.316-25.39.849.849,0,0,1-.494-.771V88.33a.849.849,0,0,1,.849-.849h2a1.514,1.514,0,0,0,0-3.028Z" transform="translate(-342.068 -82.756)"/></g><g transform="translate(154.667 69.168)"><path d="M422.5,167.564H392.518a.847.847,0,0,1-.461-1.559l5.526-3.567V82.883H397.1a2.79,2.79,0,1,1,0-5.58h21.556a2.79,2.79,0,0,1,0,5.58h-.487v79.589l4.84,3.563a.847.847,0,0,1-.5,1.53Zm-27.106-1.7H419.92l-3.105-2.286a.841.841,0,0,1-.345-.681V82.036a.846.846,0,0,1,.847-.849h1.336a1.094,1.094,0,0,0,0-2.188H397.1a1.094,1.094,0,1,0,0,2.188h1.336a.846.846,0,0,1,.847.849V162.9a.849.849,0,0,1-.387.712Z" transform="translate(-391.671 -77.303)"/></g><g transform="translate(162.889 76.458)"><path d="M402.767,82.951h-5.792a.849.849,0,0,1,0-1.7h5.792a.849.849,0,1,1,0,1.7Z" transform="translate(-396.127 -81.254)"/></g><g transform="translate(162.889 82.934)"><path d="M402.767,86.46h-5.792a.848.848,0,1,1,0-1.7h5.792a.848.848,0,1,1,0,1.7Z" transform="translate(-396.127 -84.764)"/></g><g transform="translate(164.048 86.543)"><path d="M401.01,88.417H397.6a.849.849,0,0,1,0-1.7h3.406a.849.849,0,1,1,0,1.7Z" transform="translate(-396.755 -86.72)"/></g><g transform="translate(163.662 94.903)"><path d="M402.755,92.947h-5.362a.848.848,0,0,1,0-1.7h5.362a.848.848,0,1,1,0,1.7Z" transform="translate(-396.546 -91.251)"/></g><g transform="translate(163.367 99.424)"><path d="M402.549,95.4h-5.314a.848.848,0,1,1,0-1.7h5.314a.848.848,0,1,1,0,1.7Z" transform="translate(-396.386 -93.701)"/></g><g transform="translate(163.367 104.944)"><path d="M405,98.389h-7.768a.848.848,0,1,1,0-1.7H405a.848.848,0,0,1,0,1.7Z" transform="translate(-396.386 -96.693)"/></g><g transform="translate(164.592 112.168)"><path d="M402.329,102.3H397.9a.848.848,0,1,1,0-1.7h4.43a.848.848,0,1,1,0,1.7Z" transform="translate(-397.05 -100.608)"/></g><g transform="translate(164.253 120.48)"><path d="M403.506,106.81h-5.792a.849.849,0,0,1,0-1.7h5.792a.849.849,0,0,1,0,1.7Z" transform="translate(-396.866 -105.113)"/></g><g transform="translate(164.253 128.25)"><path d="M402.484,111.021h-4.77a.849.849,0,0,1,0-1.7h4.77a.849.849,0,0,1,0,1.7Z" transform="translate(-396.866 -109.324)"/></g><g transform="translate(164.253 136.837)"><path d="M402.484,115.674h-4.77a.848.848,0,1,1,0-1.7h4.77a.848.848,0,1,1,0,1.7Z" transform="translate(-396.866 -113.978)"/></g><g transform="translate(5.624 154.343)"><path d="M511.393,128.466H315.132c-2.341,0-4.24-1.119-4.24-2.5s1.9-2.5,4.24-2.5H511.393c2.341,0,4.24,1.119,4.24,2.5S513.734,128.466,511.393,128.466Z" transform="translate(-310.892 -123.466)"/></g><g transform="translate(7.104 281.456)"><path d="M512.193,197.359H315.934c-2.341,0-4.24-1.118-4.24-2.5s1.9-2.5,4.24-2.5H512.193c2.341,0,4.24,1.119,4.24,2.5S514.535,197.359,512.193,197.359Z" transform="translate(-311.694 -192.359)"/></g><g transform="translate(0 55.668)"><path d="M522.873,74.986H312.084c-2.341,0-4.24-1.119-4.24-2.5s1.9-2.5,4.24-2.5H522.873c2.341,0,4.24,1.118,4.24,2.5S525.215,74.986,522.873,74.986Z" transform="translate(-307.844 -69.986)"/></g><g transform="translate(26.328 234.035)"><path d="M345.175,219.167c-10.078,0-20.986-.474-22.842-6.129-.919-2.8,1.207-7.7,3.46-12.48.434-.915.79-1.67.978-2.157a.848.848,0,0,1,1.583.609c-.2.513-.572,1.308-1.026,2.273-1.458,3.087-4.168,8.836-3.384,11.224,1.629,4.965,14.381,4.965,21.231,4.965,5.722,0,15.294,0,18.205-3.044a2.963,2.963,0,0,0,.847-2.284c-.138-3.026-4.806-12.237-12.486-24.639a14.936,14.936,0,0,1-2.234-7.86V167.507a.848.848,0,1,1,1.7,0v12.137a13.241,13.241,0,0,0,1.98,6.967c4.668,7.535,12.528,20.866,12.738,25.457a4.623,4.623,0,0,1-1.315,3.53C361.457,218.892,353.28,219.167,345.175,219.167Z" transform="translate(-322.113 -166.658)"/></g><g transform="translate(149.479 193.534)"><path d="M411.7,237.627c-13.794,0-22.425-2.845-22.838-17-.306-10.6,8.456-20.464,12.666-25.2.812-.913,1.472-1.659,1.871-2.177v-47.7a.849.849,0,0,1,.849-.849h11.268a.849.849,0,0,1,.849.849v47.562c2.478,1.993,17.091,14.39,16.078,28.953C431.663,233.411,426.039,237.627,411.7,237.627ZM405.1,146.4v47.125a.839.839,0,0,1-.157.489c-.423.6-1.183,1.454-2.142,2.537-4.066,4.578-12.528,14.1-12.238,24.027.328,11.332,5.86,15.349,21.141,15.349,15.122,0,18.438-5.124,19.051-13.975,1.02-14.674-15.065-27.228-15.751-27.754a.851.851,0,0,1-.332-.673V146.4Z" transform="translate(-388.859 -144.707)"/></g><g transform="translate(80.159 200.348)"><path d="M373.308,234.6c-15.207,0-22-2.406-22.019-7.8-.013-4.2,5.242-12.563,9.078-18.667,1.439-2.29,2.679-4.268,3.079-5.168.223-.5.483-1.052.764-1.65,1.566-3.323,3.707-7.875,3.707-12.545V149.249a.849.849,0,0,1,.849-.849h11.177a.847.847,0,0,1,.847.849v39.523c0,4.956,1.766,10.174,3.3,14.166a71.7,71.7,0,0,0,3.594,6.567c3.729,6.408,8.366,14.381,8.366,18.028C396.054,232.418,389.041,234.6,373.308,234.6Zm-3.694-84.5v38.677c0,5.05-2.236,9.8-3.869,13.266-.275.587-.531,1.125-.747,1.616a61.7,61.7,0,0,1-3.2,5.382c-3.515,5.594-8.829,14.05-8.816,17.757,0,1.511.022,6.107,20.322,6.107,13.969,0,21.05-1.806,21.05-5.367,0-3.188-4.895-11.606-8.135-17.176a69.191,69.191,0,0,1-3.712-6.808h0c-1.59-4.129-3.417-9.541-3.417-14.777V150.1Z" transform="translate(-351.289 -148.4)"/></g></g></g></g></g></svg>