<svg xmlns="http://www.w3.org/2000/svg" xmlns:xlink="http://www.w3.org/1999/xlink" width="960" height="470" viewBox="0 0 960 470"><defs><clipPath id="b"><rect width="960" height="470"/></clipPath></defs><g id="a" clip-path="url(#b)"><rect width="960" height="470" fill="#fff"/><g transform="translate(58.571 -17.427)"><g transform="translate(62.525 33.406)"><g transform="translate(-10)"><g transform="translate(253.627 332.818)"><g transform="translate(0)"><path d="M193.846,219.087a10.715,10.715,0,0,1,19.832-2.567c4.277,7.892,18.726,21.184,30.253,25.851a10.716,10.716,0,1,1-8.042,19.866c-15.148-6.135-33.949-22.4-41.055-35.507A10.671,10.671,0,0,1,193.846,219.087Z" transform="translate(-193.538 -210.907)" fill="#dedede"/></g></g><g transform="translate(442.821 26.273)"><path d="M321.212,100.959a26.77,26.77,0,1,1,26.77-26.771A26.8,26.8,0,0,1,321.212,100.959Zm0-48.972a22.2,22.2,0,1,0,22.2,22.2A22.226,22.226,0,0,0,321.212,51.987Z" transform="translate(-294.441 -47.418)" fill="#dedede"/></g><g transform="translate(395.346 210.128)"><path d="M301.141,209.51a32.019,32.019,0,1,1,32.02-32.018A32.055,32.055,0,0,1,301.141,209.51Zm0-58.572a26.553,26.553,0,1,0,26.552,26.554A26.582,26.582,0,0,0,301.141,150.939Z" transform="translate(-269.121 -145.473)" fill="#dedede"/></g><g transform="translate(678.327 87.198)"><circle cx="10.184" cy="10.184" r="10.184" fill="#dedede"/></g><g transform="translate(696.32 352.854)"><circle cx="10.184" cy="10.184" r="10.184" fill="#dedede"/></g><g transform="translate(447.779 159.763)"><circle cx="10.184" cy="10.184" r="10.184" fill="#dedede"/></g><g transform="translate(443.735 308.548)"><circle cx="10.184" cy="10.184" r="10.184" fill="#dedede"/></g><g transform="translate(631.651 125.963)"><g transform="translate(0 0)"><path d="M431.58,101.209a7.376,7.376,0,0,1,1.678,1.035,7.318,7.318,0,0,1,1.012,10.3c-10.521,12.821-21.549,16.954-29.981,19.121a7.316,7.316,0,0,1-3.645-14.171c7-1.8,14.55-4.77,22.316-14.233A7.337,7.337,0,0,1,431.58,101.209ZM400.826,128.3a4.029,4.029,0,0,0,2.653.218c7.954-2.046,18.355-5.944,28.279-18.036a4.065,4.065,0,1,0-6.283-5.158c-8.359,10.185-16.485,13.382-24.021,15.321a4.066,4.066,0,0,0-1.056,7.436A4.183,4.183,0,0,0,400.826,128.3Z" transform="translate(-395.15 -100.585)" fill="#dedede"/></g></g><g transform="translate(710.681 163.881)"><path d="M413.035,39.168a8.6,8.6,0,0,1,13.018-4.226c16.014,11.109,21.9,23.635,25.24,33.308a8.6,8.6,0,0,1-16.254,5.61c-2.771-8.029-6.966-16.59-18.786-24.79A8.621,8.621,0,0,1,413.035,39.168Zm34.643,33.456a4.732,4.732,0,0,0,0-3.128c-3.15-9.122-8.7-20.936-23.807-31.416a4.776,4.776,0,1,0-5.443,7.849c12.72,8.826,17.235,18.041,20.22,26.683a4.776,4.776,0,0,0,8.809.532A4.626,4.626,0,0,0,447.677,72.624Z" transform="translate(-412.556 -33.406)" fill="#dedede"/></g><g transform="translate(641.281 303.009)"><path d="M463.6,196.563a12.008,12.008,0,0,1,2.569,18.938c-19.247,19.241-37.924,24.214-52.043,26.4a12.006,12.006,0,0,1-3.669-23.73c11.724-1.811,24.531-5.445,38.736-19.648A12.036,12.036,0,0,1,463.6,196.563Zm-54.587,39.278a6.626,6.626,0,0,0,4.3.784c13.318-2.059,30.932-6.75,49.086-24.9a6.677,6.677,0,0,0-1.429-10.523,6.689,6.689,0,0,0-8,1.089c-15.291,15.285-29.074,19.2-41.693,21.148a6.669,6.669,0,0,0-2.921,11.972A6.4,6.4,0,0,0,409.013,235.841Z" transform="translate(-400.285 -195.009)" fill="#dedede"/></g><g transform="translate(471.744 84.961)"><path d="M317.314,122.824a8.45,8.45,0,0,1-6.812-11.593c7.266-17.715,18.034-26.014,26.6-31.266a8.446,8.446,0,1,1,8.826,14.4c-7.116,4.361-14.44,10.2-19.8,23.273A8.47,8.47,0,0,1,317.314,122.824Zm24.756-40.318a4.646,4.646,0,0,0-3,.66c-8.083,4.954-18.24,12.782-25.091,29.49a4.694,4.694,0,0,0,2.561,6.122,4.688,4.688,0,0,0,6.122-2.561c5.769-14.074,13.654-20.357,21.311-25.05a4.693,4.693,0,0,0-1.356-8.563A5.048,5.048,0,0,0,342.069,82.506Z" transform="translate(-309.866 -78.718)" fill="#dedede"/></g><g transform="translate(645.672 233.054)"><circle cx="25.614" cy="25.614" r="25.614" fill="#dedede"/></g><g transform="translate(593.824 47.872)"><circle cx="25.924" cy="25.924" r="25.924" fill="#dedede"/></g><g transform="translate(-23.728 219.021)"><circle cx="13.148" cy="13.148" r="13.148" fill="#dedede"/></g><g transform="translate(240.742 25.316)"><circle cx="13.148" cy="13.148" r="13.148" transform="translate(0)" fill="#dedede"/></g><g transform="translate(58.097 179.128)"><circle cx="23.464" cy="23.464" r="23.464" fill="#dedede"/></g><g transform="translate(0 321.57)"><circle cx="47.559" cy="47.559" r="47.559" fill="#dedede"/></g><g transform="translate(257.454 55.885)"><circle cx="29.236" cy="29.236" r="29.236" transform="translate(0)" fill="#dedede"/></g><g transform="translate(518.728 33.044)"><circle cx="15.386" cy="15.386" r="15.386" fill="#dedede"/></g><g transform="translate(699.874 115.022)"><path d="M389.075,36.13a5.611,5.611,0,0,1,.954,10.427c-4.213,2.083-11.453,9.383-14.121,15.324a5.611,5.611,0,0,1-10.236-4.6c3.506-7.806,12.383-17.323,19.384-20.784A5.592,5.592,0,0,1,389.075,36.13Z" transform="translate(-365.179 -35.916)" fill="#dedede"/></g><g transform="translate(23.264 164.466)"><path d="M130.846,68.039a5.611,5.611,0,0,1-10.466-.328c-1.553-4.436-7.911-12.514-13.479-15.891a5.611,5.611,0,1,1,5.816-9.6c7.318,4.436,15.679,14.411,18.255,21.784A5.593,5.593,0,0,1,130.846,68.039Z" transform="translate(-104.196 -41.412)" fill="#dedede"/></g><g transform="translate(5.859 199.732)"><path d="M94.021,157.974a5.611,5.611,0,0,1-9.932,3.315c-2.993-3.626-11.754-9-18.148-10.239a5.611,5.611,0,1,1,2.134-11.018c8.4,1.628,19.7,8.091,24.67,14.115A5.594,5.594,0,0,1,94.021,157.974Z" transform="translate(-61.396 -139.929)" fill="#dedede"/></g><g transform="translate(588.415 119.263)"><path d="M403.833,97.522a6.733,6.733,0,0,1-.287,12.564c-5.308,1.907-14.936,9.623-18.932,16.343a6.734,6.734,0,1,1-11.578-6.881c5.248-8.829,17.134-18.968,25.956-22.136A6.7,6.7,0,0,1,403.833,97.522Z" transform="translate(-372.091 -97.012)" fill="#dedede"/></g><g transform="translate(-42.22 141.527)"><path d="M93.549,95.37A24.039,24.039,0,1,1,117.589,71.33,24.067,24.067,0,0,1,93.549,95.37Zm0-43.975A19.936,19.936,0,1,0,113.485,71.33,19.958,19.958,0,0,0,93.549,51.395Z" transform="translate(-69.51 -47.292)" fill="#dedede"/></g><g transform="translate(71.467 75.24)"><path d="M151.075,46.849a8.8,8.8,0,0,1,11.183-8.438c19.206,5.4,29.083,15.553,35.545,23.8a8.8,8.8,0,1,1-13.851,10.858c-5.364-6.844-12.283-13.725-26.456-17.709A8.825,8.825,0,0,1,151.075,46.849Zm44.691,20.8a4.846,4.846,0,0,0-1.041-3.028c-6.094-7.774-15.413-17.349-33.525-22.444a4.89,4.89,0,1,0-2.648,9.414c15.257,4.288,22.7,11.7,28.476,19.061a4.889,4.889,0,0,0,8.7-2.428A4.582,4.582,0,0,0,195.766,67.649Z" transform="translate(-151.075 -38.08)" fill="#dedede"/></g><g transform="translate(77.795 120.347)"><path d="M143.463,127.329a8.151,8.151,0,0,1-10.841,7.131c-17.428-6.137-25.954-16.112-31.433-24.116a8.151,8.151,0,1,1,13.451-9.21c4.549,6.647,10.532,13.421,23.4,17.951A8.17,8.17,0,0,1,143.463,127.329ZM103.4,105.437a4.494,4.494,0,0,0,.782,2.861c5.168,7.549,13.209,16.956,29.648,22.746a4.528,4.528,0,1,0,3.008-8.543c-13.845-4.875-20.286-12.167-25.181-19.32a4.528,4.528,0,0,0-8.188,1.725A4.279,4.279,0,0,0,103.4,105.437Z" transform="translate(-99.761 -97.59)" fill="#dedede"/></g><g transform="translate(9.903 243.845)"><path d="M103.32,215.008a10.016,10.016,0,0,1-15.688,2.827C70.9,202.5,66.081,187.116,63.75,175.429a10.013,10.013,0,1,1,19.639-3.917c1.935,9.7,5.428,20.241,17.777,31.562A10.039,10.039,0,0,1,103.32,215.008ZM68.608,170.949a5.522,5.522,0,0,0-.495,3.609c2.2,11.021,6.746,25.528,22.526,40a5.562,5.562,0,1,0,7.519-8.2c-13.292-12.186-17.051-23.53-19.135-33.973a5.563,5.563,0,0,0-10.082-2A5.425,5.425,0,0,0,68.608,170.949Z" transform="translate(-63.553 -163.455)" fill="#dedede"/></g><g transform="translate(151.869 59.923)"><path d="M172.734,114.408c5.008,3.669,7.219,11.424,13.843,15.3,7.236,4.236,17.171,5.985,23.856-3.656,4.594-6.626,2.394-14.693-.836-18.964-5.638-7.451-15.015-8.162-18.763-12.118-5.576-5.888-8.556-19.451-18.351-26.252-8.79-6.1-24-3.741-30.677,5.964-5.728,8.319-1.02,23.591,6.765,29.327S167.536,110.6,172.734,114.408Z" transform="translate(-139.268 -65.364)" fill="#dedede"/></g><g transform="translate(603.062 179.496)"><path d="M380.84,189.686a10.021,10.021,0,0,1,.178-8.828c13.854-26.918,42.75-43.375,58.742-50.788a10.044,10.044,0,1,1,8.449,18.225c-13.656,6.33-38.222,20.173-49.33,41.756a10.044,10.044,0,0,1-18.039-.366Z" transform="translate(-379.902 -129.136)" fill="#dedede"/></g><g transform="translate(481.137 261.645)"><path d="M396.565,275.874a13.876,13.876,0,0,1-12.2-.538c-36.784-20.053-58.6-60.572-68.327-82.941a13.9,13.9,0,0,1,25.491-11.087c8.308,19.1,26.648,53.543,56.142,69.621a13.9,13.9,0,0,1-1.1,24.945Z" transform="translate(-314.876 -172.949)" fill="#dedede"/></g><g transform="translate(554.69 71.697)"><path d="M365.463,94.364A11.36,11.36,0,1,1,376.822,83,11.371,11.371,0,0,1,365.463,94.364Zm0-19.174A7.814,7.814,0,1,0,373.276,83,7.823,7.823,0,0,0,365.463,75.19Z" transform="translate(-354.104 -71.644)" fill="#dedede"/></g><g transform="translate(689.751 195.574)"><path d="M438.832,163.1a12.7,12.7,0,1,1,12.7-12.7A12.71,12.71,0,0,1,438.832,163.1Zm0-21.428a8.733,8.733,0,1,0,8.732,8.732A8.742,8.742,0,0,0,438.832,141.675Z" transform="translate(-426.136 -137.711)" fill="#dedede"/></g><g transform="translate(235.574 381.056)"><g transform="translate(0)"><path d="M196.606,262.025a12.7,12.7,0,1,1,12.7-12.7A12.71,12.71,0,0,1,196.606,262.025Zm0-21.429a8.733,8.733,0,1,0,8.732,8.734A8.743,8.743,0,0,0,196.606,240.6Z" transform="translate(-183.91 -236.634)" fill="#dedede"/></g></g><g transform="translate(221.694 257.635)"><path d="M203.085,223.967a26.578,26.578,0,1,1,26.576-26.578A26.609,26.609,0,0,1,203.085,223.967Zm0-44.862a18.282,18.282,0,1,0,18.279,18.283A18.3,18.3,0,0,0,203.085,179.105Z" transform="translate(-176.507 -170.81)" fill="#dedede"/></g><g transform="translate(26.627 129.661)"><path d="M84.335,126.288A11.865,11.865,0,1,1,96.2,114.423,11.876,11.876,0,0,1,84.335,126.288Zm0-20.025a8.161,8.161,0,1,0,8.16,8.16A8.17,8.17,0,0,0,84.335,106.263Z" transform="translate(-72.472 -102.558)" fill="#dedede"/></g></g></g><g transform="translate(96.564 54.516)"><g transform="translate(255.14 311.178)"><path d="M355.937,306.757v.3H212.5V210.625h98.044a13.223,13.223,0,0,0-1.087,5.138h-.019c-2.044.244-3.619,3.806-3.319,8.025.188,2.794,2.325,7.35,5.175,8.006v.019c2.1,21.844,9.844,27.431,9.844,27.431l.131.169a38.877,38.877,0,0,1-4.688,3.431s13.95,26.269,39.356,43.894Z" transform="translate(-212.499 -210.625)" fill="#fff"/></g><g transform="translate(386.222 311.178)"><g transform="translate(0)"><path d="M294.765,210.625v28.106c-2.269-2.419-4.069-4.425-5.231-5.794,0,0-.675.638-1.838,1.725l-.019-.019c-3.206-6.263-4.706-15.356-5.269-21.113l.094-.019c-.019-.675-.038-1.669-.038-2.888Z" transform="translate(-282.409 -210.625)" fill="#fff"/></g></g><g transform="translate(255.14 154.295)"><path d="M355.937,126.955V259.931H344.781c.769-5.513,2.175-14.344,2.512-15.656.413-1.519,1.406-6.638-1.613-6.844-3-.187-6.9,8.963-8.025,12.806a50.257,50.257,0,0,0-1.95,9.975,2.167,2.167,0,0,0-.638.225,2,2,0,0,0-.15-.506,3.435,3.435,0,0,0-3.094-1.913,6.377,6.377,0,0,0-3.713.844,6.256,6.256,0,0,0-1.331,1.069H212.5V151.405c2.55-8.269,4.65-16.575,6.394-24.45Z" transform="translate(-212.499 -126.955)" fill="#fff"/></g><g transform="translate(255.14 0.001)"><path d="M223.543,174.36c1.969-12.6,2.719-20.981,2.719-20.981-.506.075-1.013.131-1.538.169,3.431-8.925,16.2-23.006,18.919-25.369,2.7-2.344,7.519-9.038,6.244-10.613s-7.706,1.181-10.763,3.769c-1.275,1.069-10.05,8.306-10.05,8.306.487-4.069,8.831-44.625,8.906-46.5.075-1.894.881-4.969-.525-5.888-1.163-.731-2.7.038-3.806,1.838l-.15-.075c.394-1.406.188-4.725-1.313-5.119s-2.606.206-4.312,2.869a17.347,17.347,0,0,0-.881,1.519c-2.494-3.731-5.681-.394-7.163,1.688-1.2,1.688-2.794,5.006-5.137,9.975-.525-1.556-1.313-2.381-2.194-2.625V69.171l27.319,2.813-1.613-27.319H355.937V177.66H223C223.187,176.535,223.374,175.428,223.543,174.36Z" transform="translate(-212.499 -44.665)" fill="#fff"/></g><g transform="translate(230.633 29.122)"><path d="M245.086,65.5c1.106-1.8,2.644-2.569,3.806-1.838,1.406.919.6,3.994.525,5.888-.075,1.875-8.419,42.432-8.906,46.5,0,0,8.775-7.238,10.05-8.306,3.056-2.588,9.488-5.344,10.763-3.769s-3.544,8.269-6.244,10.613c-2.719,2.363-15.488,16.444-18.919,25.369-12.338,1.275-29.944-1.238-36.731-2.344,1.087-7.894,3.619-16.744,6.225-25.988,2.606-9.225,12.394-33.038,13.931-35.381,1.256-1.894,2.925-2.944,4.35-2.513.881.244,1.669,1.069,2.194,2.625,2.344-4.969,3.938-8.288,5.138-9.975,1.481-2.081,4.669-5.419,7.163-1.688a17.348,17.348,0,0,1,.881-1.519c1.706-2.663,2.813-3.263,4.313-2.869s1.706,3.713,1.313,5.119Z" transform="translate(-199.429 -60.196)" fill="#fff"/></g><g transform="translate(255.139)"><path d="M238.205,44.665l1.613,27.319L212.5,69.171Z" transform="translate(-212.499 -44.665)" fill="#fff"/></g><g transform="translate(115.114 106.07)"><g transform="translate(0 0)"><path d="M253.338,101.7c6.788,1.106,24.394,3.619,36.731,2.344.525-.037,1.031-.094,1.538-.169,0,0-.75,8.381-2.719,20.981-.169,1.069-.356,2.175-.544,3.3-1.05,6.375-2.4,13.613-4.106,21.3-1.744,7.875-3.844,16.181-6.394,24.45a191.179,191.179,0,0,1-11.663,29.775c-20.081,39.788-52.125,79.069-68.7,96.844,0,0,9.544,61.763,9.244,106.069H169.732c-.056-1.575-.113-3.15-.169-4.706q-.253-6.609-.656-12.994-.506-8.466-1.219-16.556-.731-8.156-1.65-15.938-1.013-8.606-2.231-16.763c-.806-5.344-1.65-10.556-2.569-15.581-1.088-5.962-2.25-11.719-3.469-17.231s-2.494-10.781-3.825-15.844q-2.222-8.466-4.594-16.05c-1.594-5.119-3.244-9.938-4.894-14.438q-3.291-8.944-6.638-16.219s24.3-6.244,47.813-28.744v-.019A129.216,129.216,0,0,0,202.3,196.054c26.925-38.569,42.788-79.35,48.225-94.819C250.526,101.235,251.557,101.423,253.338,101.7Z" transform="translate(-137.819 -101.235)" fill="#fff"/></g></g><g transform="translate(24.671 106.284)"><path d="M198.626,103.742c33.206,7.838,32.775,44.607,32.625,53.194-.225,13.725-.6,48.938-3.413,58.482v.019c-23.513,22.5-47.813,28.744-47.813,28.744-.506-1.106-1.012-2.194-1.519-3.244v-.019a51.821,51.821,0,0,1,.262-6.113v-.019c16.95,1.369,24.694-6.75,30.994-16.725,6.825-10.856,5.419-48.413,5.213-51.788-.206-3.263-.994-12.6-1.613-16.913-.562-4.031-3.656-17.588-13.444-22.106-9.806-4.519-25.931,6.431-33.15,15.825-5.269,6.844-11.306,16.275-12.469,27.375-.806,7.856-6.619,16.669-6.619,16.669-3.413-11.85-19.088-8.85-17.681,3.619,1.406,12.45,15.675,9.844,15.675,9.844s.056.337.187.975c.675,3.881,3.375,18.263,5.981,24.225,2.831,6.488,3.656,8.85,3.431,12.094l-.056.675a11.026,11.026,0,0,1-2.119,4.913,29.276,29.276,0,0,1-4.406,4.894,35.628,35.628,0,0,1-6.788,4.856c-7.688,4.2-31.013,16.613-44.4,30.469-.413-.45-5.269-5.981-4.125-11.044,1.219-5.269,11.456-18.075,11.006-21.694S88.619,232.124,89.631,221.08c.994-11.063,18.563-24.844,20.288-31.144,2.606-9.544.806-42.6,16.069-61.894C141.776,108.11,165.4,95.923,198.626,103.742Z" transform="translate(-89.583 -101.349)"/></g><g transform="translate(64.999 131.138)"><path d="M149.15,229.769a39.231,39.231,0,0,1-12.6-3.488h-.094c.225-3.244-.6-5.606-3.431-12.094-2.606-5.962-5.306-20.344-5.981-24.225-.131-.637-.187-.975-.187-.975s-14.269,2.606-15.675-9.844c-1.406-12.469,14.269-15.469,17.681-3.619,0,0,5.813-8.813,6.619-16.669,1.163-11.1,7.2-20.531,12.469-27.375,7.219-9.394,23.344-20.344,33.15-15.825,9.788,4.519,12.881,18.075,13.444,22.106.619,4.313,1.406,13.65,1.613,16.913.206,3.375,1.613,40.931-5.213,51.788-6.3,9.975-14.044,18.094-30.994,16.725v.019a51.814,51.814,0,0,0-.262,6.113A34.434,34.434,0,0,1,149.15,229.769Z" transform="translate(-111.092 -114.605)" fill="#fff"/></g><g transform="translate(104.239 399.378)"><path d="M174.638,265.015c.056,1.556.113,3.131.169,4.706H134.119c-.675-3.863-1.369-7.894-2.1-12.056h.019S154.857,261.359,174.638,265.015Z" transform="translate(-132.019 -257.665)" fill="#fff"/></g><g transform="translate(101.839 385.147)"><path d="M175.1,258.663q.394,6.384.656,12.994c-19.781-3.656-42.6-7.35-42.6-7.35h-.019c-.769-4.594-1.594-9.356-2.4-14.231C130.739,250.075,165.614,256.225,175.1,258.663Z" transform="translate(-130.739 -250.075)" fill="#818181"/></g><g transform="translate(101.145 371.834)"><path d="M174.207,248.319q.7,8.1,1.219,16.556c-9.488-2.438-44.363-8.588-44.363-8.588-.225-1.35-.469-2.719-.694-4.106,4.819-2.644,11.1-6.094,16.744-9.206C147.113,242.975,166.988,246.856,174.207,248.319Z" transform="translate(-130.369 -242.975)" fill="#fff"/></g><g transform="translate(117.889 358.409)"><path d="M164.743,238.646q.928,7.791,1.65,15.938c-7.219-1.462-27.094-5.344-27.094-5.344,6.6-3.638,12.319-6.806,13.706-7.631,0,0-1.275-2.212-3.356-5.794C149.649,235.815,155.612,236.659,164.743,238.646Z" transform="translate(-139.299 -235.815)" fill="#818181"/></g><g transform="translate(117.476 339.79)"><path d="M162.7,230.573q1.209,8.156,2.231,16.763c-9.131-1.987-15.094-2.831-15.094-2.831-2.644-4.594-6.6-11.419-10.763-18.619C139.079,225.885,155.71,228.923,162.7,230.573Z" transform="translate(-139.079 -225.885)" fill="#fff"/></g><g transform="translate(107.726 322.953)"><path d="M164.685,222.849c.919,5.025,1.762,10.238,2.569,15.581-6.994-1.65-23.625-4.688-23.625-4.688-3.3-5.7-6.731-11.625-9.75-16.838C133.879,216.905,154.823,220.336,164.685,222.849Z" transform="translate(-133.879 -216.905)" fill="#818181"/></g><g transform="translate(89.314 303.771)"><path d="M169.809,214.569c1.219,5.513,2.381,11.269,3.469,17.231-9.863-2.513-30.806-5.944-30.806-5.944-4.763-8.231-8.513-14.7-9.094-15.713,0,0-3.431,1.838-8.231,4.425-.375-2.663-.731-5.288-1.088-7.894C126.084,206.919,150.8,209.975,169.809,214.569Z" transform="translate(-124.059 -206.675)" fill="#fff"/></g><g transform="translate(87.176 287.29)"><path d="M166.982,206.416c1.331,5.063,2.606,10.331,3.825,15.844-19.013-4.594-43.725-7.65-45.75-7.894-.769-5.663-1.481-11.175-2.137-16.481h.019S157.644,203.1,166.982,206.416Z" transform="translate(-122.919 -197.885)" fill="#818181"/></g><g transform="translate(61.076 307.24)"><path d="M176.162,259.694c2.081,3.581,3.356,5.794,3.356,5.794-1.387.825-7.106,3.994-13.706,7.631-5.644,3.113-11.925,6.563-16.744,9.206-4.65,2.569-7.931,4.369-7.931,4.369-.619-1.238-4.406-8.044-9.169-16.556a128.051,128.051,0,0,1,9.15-9.375c4.838-4.294,11.194-9.356,12.656-10.425,1.969-1.463.675-6.263-3.956-4.069a40.959,40.959,0,0,0,4.519-3.656c.9-.994-.15-4.538-3.356-3.319,4.931-2.606,2.419-6.075.319-5.981a13.4,13.4,0,0,0-3.956,1.331c1.425-4.088-1.706-5.006-4.388-4.331-2.7.656-13.388,5.044-20.119,9.131-1.781,1.069-3.806,2.4-5.925,3.881-4.556-8.1-7.913-14.063-7.913-14.063,2.438-1.781,19.031-10.781,29.325-16.313,4.8-2.588,8.231-4.425,8.231-4.425.581,1.013,4.331,7.481,9.094,15.713,3.019,5.212,6.45,11.138,9.75,16.838C169.562,248.275,173.518,255.1,176.162,259.694Z" transform="translate(-108.999 -208.525)" fill="#fff"/></g><g transform="translate(85.545 273.002)"><path d="M163.149,197.034q2.363,7.594,4.594,16.05c-9.338-3.319-44.044-8.531-44.044-8.531h-.019c-.6-4.969-1.144-9.75-1.631-14.288C122.049,190.265,148.374,193.64,163.149,197.034Z" transform="translate(-122.049 -190.265)" fill="#fff"/></g><g transform="translate(84.176 258.809)"><path d="M158.894,189.22c1.65,4.5,3.3,9.319,4.894,14.438-14.775-3.394-41.1-6.769-41.1-6.769-.544-5.063-1.012-9.806-1.369-14.194h.019s4.613.356,10.8,1.087c1.369,2.438,2.644,4.763,3.6,6.488a1.166,1.166,0,0,0,2.175-.394c.206-1.481.45-3.319.675-5.25,3.113.45,6.356.975,9.413,1.613a27.85,27.85,0,0,0,2.85,2.888,1.174,1.174,0,0,0,1.913-1.144c-.056-.244-.094-.487-.15-.712A45.731,45.731,0,0,1,158.894,189.22Z" transform="translate(-121.319 -182.695)" fill="#818181"/></g><g transform="translate(113.595 245.871)"><path d="M145.165,195.258a45.73,45.73,0,0,0-6.281-1.95,93.948,93.948,0,0,1-1.875-17.513c.506,1.05,1.012,2.138,1.519,3.244Q141.875,186.323,145.165,195.258Z" transform="translate(-137.009 -175.795)" fill="#fff"/></g><g transform="translate(103.057 245.852)"><path d="M143.952,194.029a1.174,1.174,0,0,1-1.913,1.144,27.846,27.846,0,0,1-2.85-2.887,37.294,37.294,0,0,1-7.8-16.05,34.434,34.434,0,0,0,10.538-.45v.019a93.947,93.947,0,0,0,1.875,17.513C143.858,193.541,143.9,193.785,143.952,194.029Z" transform="translate(-131.389 -175.785)" fill="#818181"/></g><g transform="translate(101.445 246.302)"><path d="M132.142,176.025a37.294,37.294,0,0,0,7.8,16.05c-3.056-.638-6.3-1.163-9.413-1.613C131.317,184.088,132.085,176.494,132.142,176.025Z" transform="translate(-130.529 -176.025)" fill="#fff"/></g><g transform="translate(53.332 328.826)"><path d="M150.957,224.57a13.4,13.4,0,0,1,3.956-1.331c2.1-.094,4.613,3.375-.319,5.981,3.206-1.219,4.256,2.325,3.356,3.319a40.961,40.961,0,0,1-4.519,3.656c4.631-2.194,5.925,2.606,3.956,4.069-1.463,1.069-7.819,6.131-12.656,10.425a128.048,128.048,0,0,0-9.15,9.375,92.862,92.862,0,0,0-7.444,9.188c-5.55-6.506-16.931-19.463-23.269-23.681l.075-.094a150.629,150.629,0,0,1,15.581-12.225c2.119-1.481,4.144-2.812,5.925-3.881,6.731-4.088,17.419-8.475,20.119-9.131C149.251,219.564,152.382,220.483,150.957,224.57Z" transform="translate(-104.869 -220.038)" fill="#fff"/></g><g transform="translate(46.057 368.853)"><path d="M161.271,283.967H100.989c14.25-10.088,28.106-24.338,33.713-29.588,0,0-1.219-1.5-3.169-3.806a92.865,92.865,0,0,1,7.444-9.188c4.763,8.513,8.55,15.319,9.169,16.556,0,0,3.281-1.8,7.931-4.369.225,1.388.469,2.756.694,4.106.806,4.875,1.631,9.638,2.4,14.231C159.9,276.073,160.6,280.1,161.271,283.967Z" transform="translate(-100.989 -241.385)" fill="#fff"/></g><g transform="translate(88.189 242.815)"><path d="M138.328,177.652c-.056.469-.825,8.063-1.613,14.438-.225,1.931-.469,3.769-.675,5.25a1.166,1.166,0,0,1-2.175.394c-.956-1.725-2.231-4.05-3.6-6.488-2.625-4.65-5.513-9.675-6.806-11.494a11.026,11.026,0,0,0,2.119-4.913l.056-.675h.094A39.231,39.231,0,0,0,138.328,177.652Z" transform="translate(-123.459 -174.165)" fill="#818181"/></g><g transform="translate(83.782 248.402)"><path d="M125.515,177.145c1.294,1.819,4.181,6.844,6.806,11.494-6.188-.731-10.8-1.087-10.8-1.087H121.5q-.225-2.869-.394-5.513A29.275,29.275,0,0,0,125.515,177.145Z" transform="translate(-121.109 -177.145)" fill="#fff"/></g><g transform="translate(0 253.296)"><path d="M165.739,230.23c.356,2.606.713,5.231,1.088,7.894-10.294,5.531-26.888,14.531-29.325,16.313,0,0,3.356,5.963,7.913,14.063a150.628,150.628,0,0,0-15.581,12.225l-.075.094c6.338,4.219,17.719,17.175,23.269,23.681,1.95,2.306,3.169,3.806,3.169,3.806-5.606,5.25-19.463,19.5-33.713,29.588H81.157c-2.981-6.619-4.556-16.688-4.725-31.35-.394-34.65,16.463-71.1,28.519-86.776a61.022,61.022,0,0,1,4.069-4.687c13.388-13.856,36.713-26.269,44.4-30.469a35.627,35.627,0,0,0,6.788-4.856q.169,2.644.394,5.513c.356,4.388.825,9.131,1.369,14.194.487,4.538,1.031,9.319,1.631,14.288C164.258,219.055,164.97,224.568,165.739,230.23Z" transform="translate(-76.425 -179.755)" fill="#fff"/></g><g transform="translate(348.722 88.744)"><g transform="translate(192.338 313.446)"><path d="M374.645,268.409h-9.656v-9.244h9.356C374.42,262.221,374.533,265.3,374.645,268.409Z" transform="translate(-364.989 -259.165)" fill="#c6c6c6"/></g><g transform="translate(159.488 313.446)"><path d="M358.307,259.165v9.244H347.769c-.113-3.113-.225-6.187-.3-9.244h10.838Z" transform="translate(-347.469 -259.165)" fill="#c6c6c6"/></g><g transform="translate(192.338 294.284)"><path d="M370.014,254.308h-5.025v-5.363a10.968,10.968,0,0,0,4.069.563c.169,0,.338-.019.525-.019C369.733,251.289,369.883,252.9,370.014,254.308Z" transform="translate(-364.989 -248.945)" fill="#c6c6c6"/></g><g transform="translate(159.113 284.909)"><path d="M358.482,243.945v14.738H347.363c-.075-5.025-.094-9.938-.094-14.738Z" transform="translate(-347.269 -243.945)" fill="#c6c6c6"/></g><g transform="translate(165.432 166.989)"><path d="M355.533,181.055v14.738h-4.894c.731-5.681,1.444-10.594,2.081-14.738h2.813Z" transform="translate(-350.639 -181.055)" fill="#c6c6c6"/></g><g transform="translate(162.263 196.464)"><path d="M357.012,196.775v14.738h-8.063q.7-7.847,1.425-14.738Z" transform="translate(-348.949 -196.775)" fill="#c6c6c6"/></g><g transform="translate(160.257 225.94)"><path d="M357.948,212.495v14.756H347.879q.394-7.678.881-14.756Z" transform="translate(-347.879 -212.495)" fill="#c6c6c6"/></g><g transform="translate(159.263 253.184)"><path d="M358.412,227.025v16.988H347.349c.094-5.85.263-11.513.45-16.988Z" transform="translate(-347.349 -227.025)" fill="#c6c6c6"/></g><g transform="translate(192.338 253.184)"><path d="M373.783,227.025c-.019,1.05-.037,2.1-.037,3.15v.019c-2.963.169-6.094.469-6.094.469-.037,2.869.019,6.075.112,9.431-1.013.169-1.931.356-2.775.581v-13.65h8.794Z" transform="translate(-364.989 -227.025)" fill="#c6c6c6"/></g><g transform="translate(192.338 225.94)"><path d="M364.989,212.495h9.319c-.131,4.744-.263,9.675-.356,14.756h-8.963Z" transform="translate(-364.989 -212.495)" fill="#c6c6c6"/></g><g transform="translate(192.338 196.464)"><path d="M364.989,196.775H375.47q-.366,6.975-.656,14.738h-9.825Z" transform="translate(-364.989 -196.775)" fill="#c6c6c6"/></g><g transform="translate(201.094 144.508)"><path d="M407.5,298.628C403.5,296.6,390.828,291.9,385.653,291a70.38,70.38,0,0,0-11.4-.919c-.469-5.513-.806-9.356-.806-9.356-.994.019-2.381.075-3.787.169,0-1.05.019-2.1.037-3.15.038-4.275.094-8.419.169-12.488.094-5.081.225-10.013.356-14.756q.225-7.678.506-14.738.281-7.763.656-14.738c.263-5.269.544-10.2.825-14.738.337-5.475.694-10.406,1.012-14.738,1.106-14.513,2.025-22.481,2.025-22.481,5.681,7.219,18.525,15.244,26.175,19.481,9.45,5.213,42.188,20.794,53.644,43.688s14.081,51.038,13.706,73.125c-.206,13.35-1.369,30.038-6.956,41.888H408.322a152.5,152.5,0,0,1-16.575-13.688s.619-2.044,1.725-5.231C396.04,320.922,401.253,307.272,407.5,298.628Z" transform="translate(-369.659 -169.065)" fill="#fff"/></g><g transform="translate(201.469 295.99)"><path d="M370.084,267.311c-.094-2.794-.15-5.569-.225-8.325a46.473,46.473,0,0,0,6.525-.863,69.806,69.806,0,0,0-.094-8.269,32.344,32.344,0,0,1,4.256,1.031c3.375,1.2,10.35,4.369,12.75,6.75-1.106,3.188-1.725,5.231-1.725,5.231a152.5,152.5,0,0,0,16.575,13.688H370.384C370.272,273.443,370.159,270.368,370.084,267.311Z" transform="translate(-369.859 -249.855)" fill="#fff"/></g><g transform="translate(180.56 265.52)"><path d="M372.717,254.831c-.712.038-1.444.094-2.231.206-.563.056-1.163.15-1.763.262-3.731.712-6.844-.619-7.181-2.288v-.019c-.413-2.119,1.444-3.675,4.088-4.538-2.269.6-6.413.394-6.844-1.687-.544-2.606,1.838-4.35,4.519-5.156.188-.056.394-.112.581-.169v-.019a3.417,3.417,0,0,1,.769-3.169,9.454,9.454,0,0,1,3.075-2.325,13.18,13.18,0,0,1,2.756-1.013c.844-.225,1.762-.412,2.775-.581a65.187,65.187,0,0,1,10.575-.731,70.382,70.382,0,0,1,11.4.919c5.175.9,17.85,5.606,21.844,7.631-6.244,8.644-11.456,22.294-14.025,29.7-2.4-2.381-9.375-5.55-12.75-6.75a32.341,32.341,0,0,0-4.256-1.031v-.019a69.043,69.043,0,0,0-10.969-1.144c-.187,0-.356.019-.525.019a10.969,10.969,0,0,1-4.069-.562c-1.613-.581-2.7-1.594-2.812-2.831-.169-1.988,1.331-3.206,2.813-3.938A11.712,11.712,0,0,1,372.717,254.831Z" transform="translate(-358.707 -233.604)" fill="#fff"/></g><g transform="translate(110.168)"><path d="M436.635,132.927c.469,3.488.375,19.2-4.819,28.688-4.631,8.438-17.681,29.869-19.838,50.569H411.9c-1.613-14.306-1.819-26.738-1.819-26.738a13.773,13.773,0,0,0,4.95-10.931c.056-6.638-3.413-9.469-7.631-10.144-3.731-.6-9.3,2.588-10.706,9.038,0,0-3.169-7.875-5.869-14.869-2.719-7.031-1.575-16.856-9.788-27.019q-.816-1.012-1.744-1.969c-6.356-6.675-16.013-11.119-24.525-7.669-9.638,3.919-10.444,13.275-10.444,16.275-2.85-1.163-6.769,1.519-8.25,7.519-.413,1.725-.637,8.7-.319,17.869,0,0-12.881-8.813-14.231-19.069-1.369-10.238.6-21.244,15.206-31.631,0,0-3.113-3.394-2.756-6.844.581-5.738,11.419-20.138,54.75-11.1C432.735,104.089,435.829,127.021,436.635,132.927Z" transform="translate(-321.165 -91.995)"/></g><g transform="translate(196.932 294.827)"><path d="M378.408,250.4a69.815,69.815,0,0,1,.094,8.269,46.469,46.469,0,0,1-6.525.862,28.758,28.758,0,0,1-3.6-.038s-.206-2.063-.506-5.438c-.131-1.406-.281-3.019-.431-4.819a69.041,69.041,0,0,1,10.969,1.144Z" transform="translate(-367.439 -249.235)" fill="#fff"/></g><g transform="translate(194.989 256.165)"><path d="M377.1,237.971a65.184,65.184,0,0,0-10.575.731c-.094-3.356-.15-6.563-.112-9.431,0,0,3.131-.3,6.094-.469v-.019c1.406-.094,2.794-.15,3.787-.169C376.3,228.615,376.633,232.459,377.1,237.971Z" transform="translate(-366.403 -228.615)" fill="#fff"/></g><g transform="translate(192.338 166.989)"><path d="M364.989,181.055h12.319c-.319,4.331-.675,9.263-1.012,14.738H364.989Z" transform="translate(-364.989 -181.055)" fill="#c6c6c6"/></g><g transform="translate(181.744 139.67)"><path d="M381.633,166.485a13.691,13.691,0,0,0,2.644,4.838c-1.8,3.806-9.169,14.869-14.344,22.481-1.237,1.8-2.325,3.413-3.206,4.688a1.377,1.377,0,0,1-2.494-.6c-.169-1.181-.356-2.569-.581-4.088-1.144-7.725-3.019-18.488-4.313-18.488A46.524,46.524,0,0,0,381.633,166.485Z" transform="translate(-359.339 -166.485)" fill="#c6c6c6"/></g><g transform="translate(124.612 35.017)"><path d="M403.345,169.1s.206,12.431,1.819,26.738a190.786,190.786,0,0,0,3.131,19.481A46.524,46.524,0,0,1,386,224.155a37.143,37.143,0,0,1-10.444-.094c.187-5.288-1.969-12.581-1.969-12.581-9.731,2.55-23.4,3.694-31.969-6.056-8.813-10.05-11.906-38.963-12.6-58.219-.319-9.169-.094-16.144.319-17.869,1.481-6,5.4-8.681,8.25-7.519a3.651,3.651,0,0,1,1.069.675s4.969-7.425,11.231-10.256c7.425-3.338,19.706-.525,22.669.975q.928.956,1.744,1.969c8.213,10.163,7.069,19.988,9.788,27.019,2.7,6.994,5.869,14.869,5.869,14.869,1.406-6.45,6.975-9.638,10.706-9.038,4.219.675,7.688,3.506,7.631,10.144A13.774,13.774,0,0,1,403.345,169.1Z" transform="translate(-328.869 -110.67)" fill="#fff"/></g><g transform="translate(170.325 313.446)"><rect width="22.013" height="9.244" fill="#888"/></g><g transform="translate(170.325 284.909)"><path d="M375.262,253.32v5.363H353.249V243.945h13.069v.019c.337,1.669,3.45,3,7.181,2.288.6-.112,1.2-.206,1.763-.262v.562c-1.481.731-2.981,1.95-2.812,3.938C372.562,251.726,373.649,252.739,375.262,253.32Z" transform="translate(-353.249 -243.945)" fill="#888"/></g><g transform="translate(170.325 253.184)"><path d="M375.262,227.025v13.65a13.181,13.181,0,0,0-2.756,1.013,9.454,9.454,0,0,0-3.075,2.325H353.249V227.025Z" transform="translate(-353.249 -227.025)" fill="#888"/></g><g transform="translate(170.325 225.939)"><rect width="22.013" height="14.756" fill="#888"/></g><g transform="translate(170.325 196.464)"><rect width="22.013" height="14.738" fill="#888"/></g><g transform="translate(170.325 166.989)"><path d="M375.262,181.055v14.738H353.249V181.055h2.7c.412,1.613.825,3.188,1.219,4.669a.864.864,0,0,0,1.688-.075c.225-1.313.525-2.888.844-4.594h9.281c.225,1.519.412,2.906.581,4.088a1.377,1.377,0,0,0,2.494.6C372.937,184.468,374.024,182.855,375.262,181.055Z" transform="translate(-353.249 -181.055)" fill="#888"/></g><g transform="translate(170.325 299.646)"><rect width="22.013" height="13.8" fill="#555"/></g><g transform="translate(170.325 240.695)"><rect width="22.013" height="12.488" fill="#555"/></g><g transform="translate(170.325 211.201)"><rect width="22.013" height="14.738" fill="#555"/></g><g transform="translate(170.325 181.726)"><rect width="22.013" height="14.738" fill="#555"/></g><g transform="translate(170.325 270.171)"><path d="M353.249,236.085H369.43a3.417,3.417,0,0,0-.769,3.169v.019c-.187.056-.394.112-.581.169-2.681.806-5.062,2.55-4.519,5.156.431,2.081,4.575,2.288,6.844,1.687-2.644.863-4.5,2.419-4.087,4.538H353.249Z" transform="translate(-353.249 -236.085)" fill="#555"/></g><g transform="translate(176.775 148.502)"><path d="M365.97,189.683h-9.281c1.5-7.894,3.731-18.488,4.969-18.488C362.952,171.2,364.827,181.958,365.97,189.683Z" transform="translate(-356.689 -171.195)" fill="#555"/></g><g transform="translate(170.325 148.408)"><path d="M364.668,171.239c-1.238,0-3.469,10.594-4.969,18.488-.319,1.706-.619,3.281-.844,4.594a.864.864,0,0,1-1.688.075c-.394-1.481-.806-3.056-1.219-4.669-1.388-5.531-2.662-11.531-2.7-15.581V174a7.519,7.519,0,0,0,.975-2.437,3.031,3.031,0,0,0,0-.413A37.142,37.142,0,0,0,364.668,171.239Z" transform="translate(-353.249 -171.145)" fill="#c6c6c6"/></g><g transform="translate(170.325 151.408)"><path d="M355.949,188.326h-2.7V172.745C353.287,176.8,354.562,182.8,355.949,188.326Z" transform="translate(-353.249 -172.745)" fill="#646464"/></g><g transform="translate(192.338 299.646)"><path d="M374.345,265.605h-9.356V251.8h5.025c.3,3.375.506,5.438.506,5.438a28.759,28.759,0,0,0,3.6.038C374.2,260.036,374.252,262.811,374.345,265.605Z" transform="translate(-364.989 -251.805)" fill="#888"/></g><g transform="translate(159.207 299.646)"><path d="M358.438,251.8v13.8H347.6q-.2-7.031-.281-13.8Z" transform="translate(-347.319 -251.805)" fill="#888"/></g><g transform="translate(159.113 270.171)"><path d="M358.482,236.085v14.738H347.269c.019-5.044.056-9.956.15-14.738Z" transform="translate(-347.269 -236.085)" fill="#888"/></g><g transform="translate(159.713 240.696)"><path d="M358.2,220.365v12.488H347.589q.225-6.413.544-12.488H358.2Z" transform="translate(-347.589 -220.365)" fill="#888"/></g><g transform="translate(192.338 240.696)"><path d="M364.989,220.365h8.963c-.075,4.069-.131,8.213-.169,12.488h-8.794Z" transform="translate(-364.989 -220.365)" fill="#888"/></g><g transform="translate(192.338 211.202)"><path d="M364.989,204.635h9.825q-.281,7.059-.506,14.738h-9.319Z" transform="translate(-364.989 -204.635)" fill="#888"/></g><g transform="translate(161.138 211.202)"><path d="M357.537,204.635v14.738h-9.188c.337-5.156.731-10.069,1.125-14.738h8.063Z" transform="translate(-348.349 -204.635)" fill="#888"/></g><g transform="translate(163.688 181.727)"><path d="M356.347,188.915v14.738h-6.638q.872-8.044,1.744-14.738Z" transform="translate(-349.709 -188.915)" fill="#888"/></g><g transform="translate(192.338 181.727)"><path d="M364.989,188.915H376.3c-.281,4.538-.563,9.469-.825,14.738H364.989Z" transform="translate(-364.989 -188.915)" fill="#888"/></g><g transform="translate(192.338 144.508)"><path d="M379.333,169.065s-.919,7.969-2.025,22.481H364.989C370.164,183.934,377.533,172.871,379.333,169.065Z" transform="translate(-364.989 -169.065)" fill="#888"/></g><g transform="translate(167.513 151.258)"><path d="M354.562,172.665V188.4h-2.812c1.537-9.788,2.7-15.206,2.794-15.694A.058.058,0,0,0,354.562,172.665Z" transform="translate(-351.749 -172.665)" fill="#888"/></g><g transform="translate(10.499 151.295)"><path d="M380.116,344.08H313.8c-29.475-17.325-45.788-48.038-45.788-48.038a38.887,38.887,0,0,0,4.688-3.431c8.156-6.581,22.538-20.006,27.6-24.75,1.162-1.088,1.838-1.725,1.838-1.725,7.631,9.038,43.932,46.463,46.275,38.363,6.975-24.094,8.475-71.213,22.631-88.388,14.175-17.175,33.975-25.088,39.188-27.919,5.775-3.15,14.588-10.219,17.588-15.506-.094.488-1.256,5.906-2.794,15.694-.638,4.144-1.35,9.056-2.081,14.738q-.872,6.694-1.744,14.738-.731,6.891-1.425,14.738c-.394,4.669-.788,9.581-1.125,14.738q-.478,7.088-.881,14.756-.309,6.075-.544,12.488c-.187,5.475-.356,11.138-.45,16.988-.094,4.781-.131,9.694-.15,14.738,0,4.8.019,9.713.094,14.738q.085,6.778.281,13.8c.075,3.056.188,6.131.3,9.244Z" transform="translate(-268.009 -172.685)" fill="#fff"/></g><g transform="translate(133.331 28.69)"><path d="M368.488,116.163c-2.963-1.5-15.244-4.313-22.669-.975-6.263,2.831-11.231,10.256-11.231,10.256a3.652,3.652,0,0,0-1.069-.675c0-3,.806-12.356,10.444-16.275C352.475,105.044,362.132,109.488,368.488,116.163Z" transform="translate(-333.519 -107.296)"/></g><g transform="translate(5.212 198.777)"><path d="M285.889,208.109a14.377,14.377,0,0,1-.225-2.325c0-3.825,1.612-6.656,3.3-7.519a2.165,2.165,0,0,1,.638-.225,2.136,2.136,0,0,1,.975.056c5.419,1.8,6.6,18.356,6.6,21.863a45.757,45.757,0,0,0,.3,4.613c.563,5.756,2.063,14.85,5.269,21.113l.019.019c-5.062,4.744-19.444,18.169-27.6,24.75l-.131-.169s-7.744-5.588-9.844-27.431v-.019a2.965,2.965,0,0,0,1.706-.075c2.981-.994,2.756-4.463,2.588-5.419a4.049,4.049,0,0,0,3.281.206c3.225-1.406,2.719-4.988,2.569-7.388a4.546,4.546,0,0,0,4.706.188c3.056-1.669,1.8-8.156,1.8-8.156a1.825,1.825,0,0,0,.45-.038,3.467,3.467,0,0,0,1.331-.487c1.987-1.275,1.162-4.556,1.069-6.769C284.6,212.327,284.952,209.027,285.889,208.109Z" transform="translate(-265.189 -198.008)" fill="#fff"/></g><g transform="translate(29.624 176.024)"><path d="M288.184,185.876c3.019.206,2.025,5.325,1.613,6.844-.394,1.5-2.156,12.788-2.812,17.775-.506,3.788-.956,20.456-.806,24.675l-.094.019a45.754,45.754,0,0,1-.3-4.613c0-3.506-1.181-20.063-6.6-21.863a2.136,2.136,0,0,0-.975-.056,50.257,50.257,0,0,1,1.95-9.975C281.284,194.839,285.184,185.689,288.184,185.876Z" transform="translate(-278.209 -185.873)" fill="#fff"/></g><g transform="translate(16.563 196.589)"><path d="M283.517,198.779a2,2,0,0,1,.15.506c-1.687.863-3.3,3.694-3.3,7.519a14.38,14.38,0,0,0,.225,2.325c-.937.919-1.294,4.219-1.2,6.788.094,2.213.919,5.494-1.069,6.769a3.467,3.467,0,0,1-1.331.487,1.825,1.825,0,0,1-.45.038h-.019a2.761,2.761,0,0,1-1.763-.525c-2.081-1.406-3.094-5.644-3.469-11.25-.056-.806-.056-1.575-.038-2.306a16.028,16.028,0,0,1,4.125-10.35,6.255,6.255,0,0,1,1.331-1.069,6.377,6.377,0,0,1,3.713-.844A3.435,3.435,0,0,1,283.517,198.779Z" transform="translate(-271.243 -196.842)" fill="#fff"/></g><g transform="translate(9.901 208.877)"><path d="M279.651,217.476s1.256,6.488-1.8,8.156a4.546,4.546,0,0,1-4.706-.188,12.534,12.534,0,0,1-4.8-6.15,17.176,17.176,0,0,1-.6-6.338,14.036,14.036,0,0,1,1.125-4.894c1.35-2.775,3.262-4.669,5.494-4.669-.019.731-.019,1.5.038,2.306.375,5.606,1.388,9.844,3.469,11.25a2.762,2.762,0,0,0,1.763.525Z" transform="translate(-267.69 -203.395)" fill="#fff"/></g><g transform="translate(3.367 218.429)"><path d="M276.194,220.988c.15,2.4.656,5.981-2.569,7.388a4.049,4.049,0,0,1-3.281-.206,11.558,11.558,0,0,1-5.775-7.031,13.744,13.744,0,0,1-.356-3.506,12.6,12.6,0,0,1,1.331-5.625c1.256-2.212,3.656-3.656,5.25-3.506a17.175,17.175,0,0,0,.6,6.338A12.534,12.534,0,0,0,276.194,220.988Z" transform="translate(-264.205 -208.489)" fill="#fff"/></g><g transform="translate(0 227.571)"><path d="M271.915,223.9c.169.956.394,4.425-2.588,5.419a2.965,2.965,0,0,1-1.706.075c-2.85-.656-4.988-5.213-5.175-8.006-.3-4.219,1.275-7.781,3.319-8.025h.019a13.747,13.747,0,0,0,.356,3.506A11.558,11.558,0,0,0,271.915,223.9Z" transform="translate(-262.409 -213.365)" fill="#fff"/></g></g></g><g transform="translate(53.41 53.58)"><g transform="translate(42.218 29.117)"><g transform="translate(15.269 323.854)"><path d="M115.8,292.751a.938.938,0,0,1-.544-1.7c11.606-8.216,22.986-19.241,29.785-25.826,1.217-1.179,2.289-2.218,3.191-3.077-.536-.651-1.44-1.742-2.606-3.118-12.69-14.873-22.088-24.01-25.373-24.7-.63.529-2.19,1.847-4.331,3.69-7.356,6.324-25.018,21.831-30.141,29.224a.938.938,0,0,1-1.541-1.069c5.057-7.3,21.255-21.664,30.46-29.576,2.837-2.445,4.661-3.966,4.661-3.966a1.084,1.084,0,0,1,.63-.218c3.679.118,12.786,8.664,27.064,25.4,1.961,2.316,3.184,3.823,3.184,3.823a.937.937,0,0,1-.086,1.275c-1.014.949-2.3,2.194-3.806,3.656-6.838,6.624-18.281,17.711-30.006,26.012A.949.949,0,0,1,115.8,292.751Z" transform="translate(-84.07 -232.415)"/></g><g transform="translate(0 102.016)"><path d="M81.6,396.276a.938.938,0,0,1-.857-.553C77.673,388.917,76.1,378.539,75.933,364c-.409-35.916,17.4-72.645,28.714-87.359a60.865,60.865,0,0,1,4.133-4.762c12.921-13.374,35.185-25.5,43.566-30.066l1.063-.579a34.914,34.914,0,0,0,6.609-4.731,28.344,28.344,0,0,0,4.264-4.731,10.033,10.033,0,0,0,1.956-4.47c.356-3.435-.353-5.528-3.3-12.3-2.951-6.746-5.921-23.719-6.047-24.439l-.017-.086c-2.138.227-7.483.441-11.441-2.5a11.416,11.416,0,0,1-4.412-8.288c-.788-6.994,3.48-11.1,7.779-11.953a9.944,9.944,0,0,1,11.046,6.079c1.669-2.871,4.9-9.043,5.475-14.616,1.239-11.837,7.817-21.565,12.658-27.851,7.4-9.626,23.869-20.9,34.286-16.1,11.211,5.175,13.729,21.036,13.978,22.826.645,4.491,1.427,13.941,1.62,16.986.024.4,1.98,40.675-5.353,52.343-7.761,12.287-16.946,19.811-36.516,16.59a.937.937,0,0,1-.772-1.078.927.927,0,0,1,1.076-.773c20.631,3.381,28.691-6.345,34.624-15.737,6.143-9.771,5.546-43.423,5.07-51.231-.219-3.467-1.014-12.724-1.605-16.836-.094-.677-2.424-16.549-12.908-21.388-9.186-4.234-24.835,6.2-32.016,15.544-4.7,6.107-11.089,15.54-12.279,26.9-.819,7.991-6.525,16.719-6.769,17.087a.938.938,0,0,1-1.684-.257c-1.609-5.586-5.964-7.359-9.566-6.649s-6.941,4.056-6.281,9.9a9.618,9.618,0,0,0,3.666,6.994c4.3,3.2,10.845,2.046,10.909,2.034a.933.933,0,0,1,1.093.769c0,.011.056.336.182.939.129.739,3.062,17.5,5.921,24.038,2.942,6.763,3.859,9.283,3.448,13.243a11.823,11.823,0,0,1-2.28,5.348,30.218,30.218,0,0,1-4.549,5.057,36.861,36.861,0,0,1-6.971,4.986l-1.061.578c-8.312,4.528-30.392,16.556-43.11,29.717a59.983,59.983,0,0,0-4,4.609C94.968,292.3,77.405,328.538,77.808,363.979c.165,14.274,1.684,24.405,4.643,30.975a.937.937,0,0,1-.469,1.239A.91.91,0,0,1,81.6,396.276Z" transform="translate(-75.926 -114.102)"/></g><g transform="translate(88.189 210.613)"><path d="M135.311,201.154a2.072,2.072,0,0,1-1.828-1.093c-2.456-4.459-8.383-15.129-10.35-17.9a.939.939,0,0,1,1.53-1.087c1.948,2.743,7.391,12.5,10.463,18.079a.228.228,0,0,0,.427-.079c.911-6.433,2.258-19.526,2.271-19.66a.938.938,0,0,1,1.847-.116c2.391,10.26,7.515,15.969,10.358,18.458a.2.2,0,0,0,.261.021.243.243,0,0,0,.124-.277c-3.038-14.561-1.836-24.259-1.783-24.666a.938.938,0,1,1,1.86.242c-.013.094-1.208,9.816,1.757,24.041a2.1,2.1,0,0,1-1.012,2.28,2.073,2.073,0,0,1-2.441-.229,34.885,34.885,0,0,1-9.606-14.814c-.48,4.446-1.211,10.988-1.776,14.983a2.079,2.079,0,0,1-1.7,1.777A2.37,2.37,0,0,1,135.311,201.154Z" transform="translate(-122.96 -172.02)"/></g><g transform="translate(90.448 213.688)"><path d="M141.558,179.232a39.991,39.991,0,0,1-16.884-3.8.938.938,0,0,1,.859-1.667c.1.056,10.618,5.366,22.526,2.953a.937.937,0,1,1,.371,1.838A34.542,34.542,0,0,1,141.558,179.232Z" transform="translate(-124.165 -173.66)"/></g><g transform="translate(53.398 299.712)"><path d="M105.342,246.846a.938.938,0,0,1-.647-1.616A160.3,160.3,0,0,1,126.374,229c6.673-4.048,17.5-8.537,20.376-9.242,1.628-.4,3.806-.345,5.044,1.011.671.737,1.3,2.123.459,4.539a.937.937,0,0,1-1.772-.611c.294-.855.521-2.012-.075-2.664a3.46,3.46,0,0,0-3.208-.454,108.232,108.232,0,0,0-19.851,9.024,157.911,157.911,0,0,0-21.358,15.986A.937.937,0,0,1,105.342,246.846Z" transform="translate(-104.405 -219.539)"/></g><g transform="translate(79.765 302.906)"><path d="M119.406,235.129a.937.937,0,0,1-.5-1.731c.345-.217,8.524-5.379,12.51-7.213,1.127-.519,2.34-1.125,3.549-1.727,3.214-1.6,6.251-3.12,8-3.206a3.475,3.475,0,0,1,3.4,2.571c.251.909.437,3.234-3.234,5.181a.939.939,0,0,1-.878-1.659c1.74-.919,2.58-2.023,2.3-3.024a1.723,1.723,0,0,0-1.5-1.2c-1.361.068-4.5,1.631-7.262,3.011-1.226.613-2.46,1.228-3.6,1.753-3.874,1.783-12.208,7.044-12.293,7.1A.938.938,0,0,1,119.406,235.129Z" transform="translate(-118.467 -221.243)"/></g><g transform="translate(84.059 308.646)"><path d="M125.273,243.183a.937.937,0,0,1-.639-1.624c1.311-1.217,13.121-9.019,13.241-9.1a43.376,43.376,0,0,0,5.483-4.3,1.633,1.633,0,0,0-.313-1.442,1.594,1.594,0,0,0-2.018-.347c-3.939,1.5-18.709,10.155-18.859,10.243A.938.938,0,0,1,121.22,235c.613-.36,15.056-8.824,19.142-10.378a3.4,3.4,0,0,1,4.292,1.129,3.122,3.122,0,0,1,.083,3.686,44.258,44.258,0,0,1-5.829,4.594c-3.684,2.432-12.073,8.049-13,8.9A.927.927,0,0,1,125.273,243.183Z" transform="translate(-120.757 -224.304)"/></g><g transform="translate(76.586 315.297)"><path d="M117.708,263.369a.937.937,0,0,1-.782-1.451c3.071-4.706,12.2-14.724,16.764-18.771,4.774-4.226,11.158-9.328,12.716-10.481a1.752,1.752,0,0,0,.246-2.19c-.551-.909-1.757-1-3.317-.236a.938.938,0,0,1-.821-1.686c2.934-1.432,4.892-.45,5.741.947a3.586,3.586,0,0,1-.733,4.671c-1.538,1.14-7.854,6.188-12.589,10.378-4.391,3.889-13.493,13.883-16.44,18.394A.932.932,0,0,1,117.708,263.369Z" transform="translate(-116.772 -227.851)"/></g><g transform="translate(61.076 278.12)"><path d="M141.575,288.07a.954.954,0,0,1-.279-.043.944.944,0,0,1-.559-.476c-.525-1.048-3.518-6.452-9.15-16.517a.939.939,0,0,1,1.639-.917c4.8,8.576,7.624,13.667,8.736,15.733,1.258-.69,3.84-2.111,7.091-3.908,10.277-5.634,25.4-13.963,29.621-16.361-3.711-6.416-28.1-48.585-32.036-55.363-1.281.686-4.007,2.149-7.431,4-15.279,8.211-25.476,13.854-28.526,15.784l7.487,13.307a.937.937,0,0,1-1.633.919l-7.914-14.063a.937.937,0,0,1,.264-1.217c2.539-1.856,19.532-11.061,29.434-16.382,4.8-2.588,8.233-4.423,8.233-4.423a.93.93,0,0,1,1.251.352c1.8,3.077,32.653,56.428,32.965,56.967a.938.938,0,0,1-.336,1.279c-2.543,1.491-19.35,10.749-30.475,16.849-4.648,2.569-7.931,4.369-7.931,4.369A.925.925,0,0,1,141.575,288.07Z" transform="translate(-108.5 -208.024)"/></g><g transform="translate(101.145 351.92)"><path d="M136,279.653a.939.939,0,0,1-.924-.776c-1.631-9.337-3.394-19.616-5.194-30.4a.937.937,0,0,1,1.849-.307c1.8,10.778,3.563,21.053,5.194,30.386a.939.939,0,0,1-.763,1.086A.955.955,0,0,1,136,279.653Z" transform="translate(-129.87 -247.383)"/></g><g transform="translate(95.97 319.841)"><path d="M128.048,232.159a.929.929,0,0,1-.938-.928v-.019a.938.938,0,1,1,.938.947Z" transform="translate(-127.11 -230.275)"/></g><g transform="translate(83.782 224.178)"><path d="M128.166,239.5a.936.936,0,0,1-.928-.806c-3.484-24.908-5.713-44.569-6.626-58.437a.938.938,0,0,1,1.871-.126c.909,13.824,3.133,33.439,6.611,58.3a.938.938,0,0,1-.8,1.059C128.253,239.494,128.21,239.5,128.166,239.5Z" transform="translate(-120.61 -179.255)"/></g><g transform="translate(113.589 216.726)"><path d="M170.874,342.742a.937.937,0,0,1-.936-.907c-2.979-95.1-26.271-150.5-33.34-165.209a.938.938,0,0,1,1.691-.814c7.108,14.8,30.533,70.5,33.523,165.965a.938.938,0,0,1-.908.966Z" transform="translate(-136.507 -175.281)"/></g><g transform="translate(80.757 176.395)"><path d="M139.371,185.532a.955.955,0,0,1-.413-.1c-16.071-7.883-19.8-29.653-19.95-30.576a.938.938,0,0,1,1.853-.3c.034.216,3.729,21.741,18.923,29.192a.939.939,0,0,1-.412,1.781Z" transform="translate(-118.997 -153.771)"/></g><g transform="translate(115.118 76.953)"><path d="M207.16,407.97h-.008a.937.937,0,0,1-.93-.943c.3-43.714-9.135-105.306-9.231-105.923a.944.944,0,0,1,.24-.782c16.018-17.183,48.48-56.867,68.554-96.616,18.255-36.143,24.336-89.8,25.206-98.322-14.119,1.556-35.037-1.881-39.418-2.648-4.637,13.093-20.642,55-48.064,94.294-26.809,38.413-64.637,48.488-65.016,48.585a.938.938,0,0,1-.467-1.817c.373-.1,37.551-10.022,63.943-47.841,27.836-39.883,43.853-82.487,48.1-94.6a.933.933,0,0,1,1.056-.611c.253.047,25.646,4.671,40.789,2.631a.936.936,0,0,1,1.058,1.011c-.052.6-5.571,60.679-25.511,100.159-20.04,39.683-52.358,79.287-68.547,96.717.861,5.708,9.469,63.887,9.184,105.769A.938.938,0,0,1,207.16,407.97Z" transform="translate(-137.322 -100.735)"/></g><g transform="translate(126.485 151.366)"><path d="M146.5,158.268a19.8,19.8,0,0,0,2.661-.9,6.706,6.706,0,0,0,1.127-.593,1.648,1.648,0,0,0,.294-.251c0-.009-.013.015-.024.079a.163.163,0,0,0,0,.129c.015.028-.013-.038-.015-.051a6.517,6.517,0,0,0-1.539-1.916c-.681-.679-1.412-1.367-2.113-2.147a12.421,12.421,0,0,1-2.94-5.559,21.887,21.887,0,0,1-.553-6.058.6.6,0,0,1,.617-.583.608.608,0,0,1,.578.529,38.84,38.84,0,0,0,1.088,5.638,11.466,11.466,0,0,0,2.653,4.731c.628.681,1.348,1.329,2.068,2.04a7.658,7.658,0,0,1,2.021,2.745,1.773,1.773,0,0,1,.075.306,2.334,2.334,0,0,1,0,.5,1.9,1.9,0,0,1-.311.75,3.233,3.233,0,0,1-.793.739,7.7,7.7,0,0,1-1.5.752,21.811,21.811,0,0,1-2.972.9.915.915,0,0,1-.448-1.774Z" transform="translate(-143.385 -140.422)"/></g><g transform="translate(107.726 180.768)"><path d="M134.655,156.287a24.382,24.382,0,0,0,4.4,2.5,33.271,33.271,0,0,0,4.828,1.731,34.639,34.639,0,0,0,5.04.981,39.659,39.659,0,0,0,5.126.281h.034a.938.938,0,1,1-.006,1.875h-.013a41.544,41.544,0,0,1-5.374-.379,36.712,36.712,0,0,1-5.273-1.112,34.706,34.706,0,0,1-5.044-1.9,25.566,25.566,0,0,1-4.691-2.773.773.773,0,0,1,.926-1.238Z" transform="translate(-133.38 -156.103)"/></g><g transform="translate(102.787 136.232)"><path d="M130.98,135.374a13,13,0,0,1,3.092-2.01,10.61,10.61,0,0,1,3.6-.977,8.157,8.157,0,0,1,3.769.544,10.688,10.688,0,0,1,3.218,1.993.937.937,0,0,1-1.191,1.447l-.017-.013-.073-.064a8.853,8.853,0,0,0-2.586-1.736,6.453,6.453,0,0,0-3.017-.546,9.063,9.063,0,0,0-3.088.727,11.657,11.657,0,0,0-2.771,1.658l-.037.03a.691.691,0,0,1-.894-1.054Z" transform="translate(-130.746 -132.351)"/></g><g transform="translate(133.086 136.046)"><path d="M147.13,135.227a9.433,9.433,0,0,1,2.586-2.123,6.4,6.4,0,0,1,3.3-.849,6.036,6.036,0,0,1,3.214,1.074,11.3,11.3,0,0,1,1.277,1.024l1.065,1.187a.681.681,0,0,1-.994.932l-.062-.066-.986-1.009a10.071,10.071,0,0,0-1.1-.806,4.471,4.471,0,0,0-2.43-.716,4.72,4.72,0,0,0-2.411.744,7.674,7.674,0,0,0-1.971,1.751l-.034.043a.939.939,0,0,1-1.481-1.153Z" transform="translate(-146.905 -132.251)"/></g><g transform="translate(108.515 147.201)"><ellipse cx="2.361" cy="5.675" rx="2.361" ry="5.675"/></g><g transform="translate(136.779 145.803)"><ellipse cx="2.361" cy="5.675" rx="2.361" ry="5.675"/></g><g transform="translate(24.66 77.194)"><path d="M97.963,285.065a.929.929,0,0,1-.688-.3c-.233-.251-5.659-6.208-4.358-11.9.6-2.61,3.075-6.628,5.7-10.879,2.443-3.962,5.484-8.891,5.284-10.493-.118-.951-2-3.566-3.99-6.337-4.845-6.746-11.484-15.981-10.779-23.745.634-6.958,7.193-14.546,12.981-21.24,3.45-3.99,6.709-7.759,7.339-10.063.669-2.438,1.041-6.491,1.513-11.623,1.322-14.409,3.319-36.184,14.728-50.6,18.324-23.145,43.77-31.661,73.587-24.628,22.016,5.194,33.861,24.413,33.355,54.115l-.051,3.118c-.244,15.137-.748,46.633-3.409,55.634a.938.938,0,0,1-1.8-.533c2.589-8.754,3.09-40.077,3.332-55.129l.051-3.122c.5-29.145-10.536-47.215-31.909-52.257-29.059-6.859-53.848,1.433-71.687,23.968-11.063,13.974-13.031,35.413-14.333,49.6-.48,5.226-.857,9.351-1.569,11.949-.742,2.713-3.981,6.458-7.729,10.793C98.2,207.558,91.577,215.225,91,221.581c-.643,7.067,6.023,16.344,10.433,22.481,2.728,3.793,4.159,5.837,4.329,7.2.262,2.106-1.922,5.828-5.55,11.708-2.428,3.938-4.939,8.006-5.466,10.314-1.08,4.723,3.857,10.153,3.908,10.208a.939.939,0,0,1-.69,1.573Z" transform="translate(-89.078 -100.864)"/></g><g transform="translate(230.626 13.438)"><path d="M199.863,132.731a.78.78,0,0,1-.129-.009.935.935,0,0,1-.8-1.056c1.073-7.791,3.514-16.423,6.1-25.564l.158-.555c2.691-9.519,12.469-33.233,14.057-35.642,1.389-2.111,3.233-3.236,4.92-3.017.849.111,2.408.692,3.291,3.334a.938.938,0,0,1-1.779.594c-.292-.878-.834-1.95-1.755-2.07s-2.154.739-3.111,2.188c-1.451,2.205-11.2,25.847-13.819,35.123l-.156.555c-2.567,9.077-4.989,17.649-6.045,25.311A.937.937,0,0,1,199.863,132.731Z" transform="translate(-198.926 -66.861)"/></g><g transform="translate(247.199 2.815)"><path d="M208.7,99.743a.918.918,0,0,1-.362-.073.935.935,0,0,1-.5-1.226c.069-.169,7.069-16.858,9.66-22.339l.082-.173c2.6-5.49,4.309-9.116,5.625-10.969,1.005-1.412,3.028-3.769,5.344-3.769h.051A4.06,4.06,0,0,1,231.91,63.3a.937.937,0,0,1-1.56,1.039,2.305,2.305,0,0,0-1.777-1.269c-1.091.021-2.5,1.1-3.838,2.981-1.219,1.716-2.906,5.284-5.46,10.682l-.081.174c-2.572,5.441-9.555,22.093-9.626,22.26A.936.936,0,0,1,208.7,99.743Z" transform="translate(-207.765 -61.195)"/></g><g transform="translate(255.61)"><path d="M213.976,98.276l-1.725-.733s6.93-16.269,8.938-21.088l.6-1.448c1.926-4.639,3.917-9.435,5.5-11.906s3.028-3.879,5.349-3.263a2.429,2.429,0,0,1,1.479,1.23,7.76,7.76,0,0,1,.488,5.055.938.938,0,0,1-1.8-.514,5.9,5.9,0,0,0-.315-3.615.7.7,0,0,0-.332-.345c-.829-.218-1.594-.176-3.287,2.464-1.5,2.333-3.542,7.262-5.349,11.612l-.6,1.451C220.91,82,213.976,98.276,213.976,98.276Z" transform="translate(-212.251 -59.694)"/></g><g transform="translate(264.878 3.198)"><path d="M220.622,139.847a.952.952,0,0,1-.334-.06.94.94,0,0,1-.542-1.211c3.517-9.206,16.4-23.333,19.164-25.74,3.041-2.648,6.568-8.314,6.124-9.347-.6-.641-6.011,1.033-9.422,3.915-1.264,1.067-10.054,8.319-10.054,8.319a.939.939,0,0,1-1.528-.838c.255-2.085,2.507-13.444,4.684-24.43,1.959-9.883,4.179-21.086,4.224-22,.019-.456.077-.979.139-1.526.141-1.253.354-3.143-.236-3.523a.882.882,0,0,0-.788-.073,4.509,4.509,0,0,0-2.312,2.781c-.585,1.468-1.455,4.281-2.3,7-.7,2.273-1.414,4.568-2,6.234-1.286,3.664-6.369,19.406-6.422,19.566a.937.937,0,1,1-1.783-.577c.051-.158,5.141-15.924,6.435-19.609.581-1.652,1.283-3.921,1.98-6.169.891-2.882,1.734-5.6,2.346-7.142a6.336,6.336,0,0,1,3.48-3.872,2.754,2.754,0,0,1,2.376.281c1.569,1.011,1.313,3.294,1.086,5.31-.058.5-.113.977-.129,1.391-.037.939-1.633,9.047-4.258,22.29-1.712,8.64-3.471,17.513-4.258,21.863,2.659-2.2,7.223-5.964,8.106-6.711,2.67-2.256,7.8-4.7,10.438-4.434a2.33,2.33,0,0,1,1.669.795c2.089,2.582-4.44,10.241-6.366,11.918-2.6,2.265-15.3,16.238-18.643,25A.938.938,0,0,1,220.622,139.847Z" transform="translate(-217.194 -61.399)"/></g><g transform="translate(45.575 290.103)"><path d="M101.171,253.991c-.019,0-.039,0-.06,0a.936.936,0,0,1-.876-.994,85.164,85.164,0,0,1,11.683-38.164.938.938,0,0,1,1.562,1.041,83.164,83.164,0,0,0-11.374,37.24A.938.938,0,0,1,101.171,253.991Z" transform="translate(-100.233 -214.414)"/></g><g transform="translate(72.196 163.613)"><path d="M114.885,147.073a6.988,6.988,0,0,1,2.6.006,6.226,6.226,0,0,1,2.432,1.012,6.728,6.728,0,0,1,1.83,1.926,10.037,10.037,0,0,1,1.084,2.364.939.939,0,1,1-1.779.6l-.019-.068-.013-.053a8.408,8.408,0,0,0-.718-1.986,5.111,5.111,0,0,0-1.275-1.588,4.787,4.787,0,0,0-1.832-.941,5.867,5.867,0,0,0-2.094-.186l-.06.006a.553.553,0,0,1-.152-1.1Z" transform="translate(-114.431 -146.954)"/></g></g><g transform="translate(390.931 88.729)"><g transform="translate(124.641 45.91)"><path d="M361.341,209.616c-7.172,0-14.539-1.986-20-8.209-13.243-15.083-13.787-71.584-12.474-76.926,1.044-4.266,3.369-7.35,6.216-8.256a4.659,4.659,0,0,1,4.626.915.938.938,0,0,1-1.23,1.416,2.824,2.824,0,0,0-2.827-.544c-1.714.544-3.917,2.646-4.965,6.915-1.251,5.1-.491,60.944,12.066,75.242,13.8,15.718,42.07,1.785,42.353,1.646a.936.936,0,1,1,.842,1.673C385.178,203.872,373.541,209.616,361.341,209.616Z" transform="translate(-328.38 -115.972)"/></g><g transform="translate(143.365 78.305)"><path d="M342.686,133.41a14.611,14.611,0,0,1,4.256,9.124,11.964,11.964,0,0,1-.864,5.149,34.776,34.776,0,0,1-2.182,4.5c-1.53,2.822-3.411,5.657-3.572,8.456a3.8,3.8,0,0,0,1.684,3.321,7.933,7.933,0,0,0,4.114,1.174h.021a.906.906,0,0,1-.064,1.811,9.735,9.735,0,0,1-5.143-1.4,5.765,5.765,0,0,1-1.954-2.128,5.926,5.926,0,0,1-.613-2.826,12.933,12.933,0,0,1,1.494-5.027c.742-1.506,1.575-2.912,2.361-4.316,1.554-2.783,3.051-5.659,2.872-8.6a15.758,15.758,0,0,0-3.225-8.471l-.024-.032a.56.56,0,0,1,.84-.737Z" transform="translate(-338.366 -133.249)"/></g><g transform="translate(150.139 108.826)"><path d="M342.763,163.931a44.769,44.769,0,0,0,6.658-2.034,46.866,46.866,0,0,0,6.306-3.013,36.312,36.312,0,0,0,5.724-3.954,30.006,30.006,0,0,0,4.721-5.068l.028-.038a.75.75,0,0,1,1.208.891,31.629,31.629,0,0,1-4.843,5.49,36.779,36.779,0,0,1-5.9,4.3,48.536,48.536,0,0,1-6.564,3.139,46.357,46.357,0,0,1-6.986,2.132.938.938,0,1,1-.394-1.834h0Z" transform="translate(-341.979 -149.527)"/></g><g transform="translate(129.679 72.411)"><path d="M331.221,133.573a10.127,10.127,0,0,1,2.244-2.023,8.661,8.661,0,0,1,2.794-1.228,7.215,7.215,0,0,1,3.109-.086,9.554,9.554,0,0,1,2.9,1.043.937.937,0,0,1-.846,1.673l-.03-.015-.073-.039a7.759,7.759,0,0,0-2.289-.947,5.551,5.551,0,0,0-2.434-.047,7.127,7.127,0,0,0-2.338.906,8.885,8.885,0,0,0-1.976,1.609l-.036.039a.678.678,0,0,1-1.029-.883Z" transform="translate(-331.067 -130.106)"/></g><g transform="translate(157.12 64.907)"><path d="M345.745,131.579a7.922,7.922,0,0,1,6.045-5.308,12,12,0,0,1,7.749,1.479.8.8,0,0,1-.72,1.429l-.011-.006a10.375,10.375,0,0,0-6.666-1.2,6.117,6.117,0,0,0-4.6,4.153.938.938,0,1,1-1.8-.527Z" transform="translate(-345.702 -126.104)"/></g><g transform="translate(134.109 81.879)"><ellipse cx="2.594" cy="6.012" rx="2.594" ry="6.012" transform="translate(0 0.822) rotate(-9.12)"/></g><g transform="translate(162.243 75.334)"><ellipse cx="2.594" cy="6.012" rx="2.594" ry="6.012" transform="translate(0 0.822) rotate(-9.12)"/></g><g transform="translate(133.331 28.7)"><path d="M393.04,176.783a.937.937,0,0,1-.187-1.854c.441-.092,10.8-2.359,10.877-13.371.037-5.3-2.331-8.488-6.844-9.214-3.1-.491-8.3,2.181-9.636,8.314a.937.937,0,0,1-1.785.152s-3.178-7.879-5.88-14.88a44.054,44.054,0,0,1-1.9-7.689c-1.084-5.788-2.312-12.347-7.746-19.08-5.739-7.106-16.071-13.065-25.185-9.362-9.152,3.716-9.863,12.739-9.863,15.416a.938.938,0,1,1-1.875,0c0-2.974.8-13,11.031-17.154,10.005-4.063,21.191,2.3,27.349,9.923,5.734,7.1,7.009,13.907,8.13,19.913a43.03,43.03,0,0,0,1.809,7.359c1.774,4.6,3.756,9.576,4.9,12.444,2.2-5.109,7.054-7.839,10.946-7.206,3.172.508,8.482,2.625,8.423,11.076-.084,12.553-12.255,15.171-12.377,15.2A.908.908,0,0,1,393.04,176.783Z" transform="translate(-333.015 -106.794)"/></g><g transform="translate(134.411 35.025)"><path d="M334.529,123.866a.939.939,0,0,1-.78-1.459c.208-.313,5.183-7.688,11.62-10.581,7.952-3.57,20.563-.488,23.479.979a.938.938,0,0,1-.844,1.676c-2.633-1.326-14.6-4.209-21.866-.943-5.938,2.668-10.781,9.838-10.828,9.911A.939.939,0,0,1,334.529,123.866Z" transform="translate(-333.591 -110.167)"/></g><g transform="translate(110.166)"><path d="M412.427,213.556a.859.859,0,0,1-.1-.006.937.937,0,0,1-.834-1.029c1.958-18.855,13.039-38.6,18.36-48.083.6-1.059,1.127-2.006,1.577-2.828,5.134-9.368,5.166-24.808,4.716-28.118-3.169-23.291-27.4-33.1-47.177-37.223-30.086-6.279-43.29-.84-48.48,2.962-3.5,2.569-4.952,5.462-5.139,7.314-.3,2.981,2.494,6.071,2.522,6.1a.937.937,0,0,1-.146,1.4c-15.313,10.894-15.971,22.159-14.831,30.756,1.284,9.718,13.714,18.326,13.838,18.413a.938.938,0,1,1-1.057,1.549c-.54-.371-13.245-9.176-14.642-19.718-1.093-8.265-.718-20.505,14.8-31.941-.969-1.294-2.621-3.954-2.342-6.744.111-1.1.859-4.948,5.9-8.638,6.643-4.869,20.706-9.4,49.971-3.287,20.363,4.249,45.334,14.43,48.649,38.8.469,3.448.429,19.506-4.927,29.278-.454.829-.986,1.781-1.584,2.844-5.263,9.377-16.215,28.89-18.133,47.359A.939.939,0,0,1,412.427,213.556Z" transform="translate(-320.66 -91.487)"/></g><g transform="translate(199.092 93.458)"><path d="M373.978,189.435a.94.94,0,0,1-.915-.733c-4.489-19.95-4.972-46.155-4.976-46.418a.938.938,0,0,1,.921-.953.978.978,0,0,1,.954.921c0,.262.486,26.278,4.933,46.041a.941.941,0,0,1-.711,1.119A.952.952,0,0,1,373.978,189.435Z" transform="translate(-368.087 -141.331)"/></g><g transform="translate(169.335 135.832)"><path d="M355.12,178.8l-.054,0a.937.937,0,0,1-.881-.988c.289-5.1-1.907-12.6-1.929-12.677a.937.937,0,1,1,1.8-.531c.1.319,2.31,7.89,2,13.313A.939.939,0,0,1,355.12,178.8Z" transform="translate(-352.217 -163.93)"/></g><g transform="translate(10.506 148.829)"><path d="M314.229,346.609a.922.922,0,0,1-.474-.129c-29.363-17.248-45.972-48.092-46.137-48.4a.938.938,0,0,1,.377-1.262c5.856-3.219,33.658-29.507,33.938-29.771a.852.852,0,0,1,.7-.255.935.935,0,0,1,.664.332c8.666,10.262,38.5,40.386,44.239,39.152.158-.034.311-.094.409-.439,2.381-8.228,4.121-19.168,5.964-30.75,3.469-21.8,7.4-46.512,16.854-57.979,12.234-14.839,28.534-22.781,36.368-26.6,1.294-.632,2.348-1.144,3.094-1.552,6.677-3.636,17.216-12.512,18.094-17.325a.95.95,0,0,1,1.091-.754.938.938,0,0,1,.756,1.091c-1.026,5.6-11.962,14.779-19.043,18.636-.769.416-1.845.941-3.173,1.59-7.712,3.759-23.766,11.582-35.74,26.108-9.131,11.074-13.022,35.515-16.451,57.079-1.851,11.64-3.6,22.635-6.013,30.977a2.36,2.36,0,0,1-1.821,1.751c-7.464,1.577-38.528-31.148-45.415-39.026-4.326,4.078-26.059,24.465-32.805,28.888,2.756,4.854,18.688,31.436,45,46.9a.937.937,0,0,1-.474,1.744Z" transform="translate(-267.509 -170.862)"/></g><g transform="translate(5.211 243.633)"><path d="M275.465,250.737a.932.932,0,0,1-.546-.176c-.33-.238-8.106-6.1-10.23-28.112a.939.939,0,0,1,.844-1.024.96.96,0,0,1,1.024.846c2.031,21.028,9.39,26.719,9.465,26.773a.938.938,0,0,1-.557,1.693Z" transform="translate(-264.685 -221.423)"/></g><g transform="translate(25.702 198.784)"><path d="M293.626,247.066a.938.938,0,0,1-.836-.51c-4.329-8.473-5.676-22.133-5.676-26.151,0-5.589-1.716-19.568-5.964-20.981a1.392,1.392,0,0,0-1.206.317c-1.223.881-2.456,3.225-2.456,6.476,0,2.156,1.026,6.323,1.849,9.671.512,2.079.952,3.876,1.084,4.9a50.1,50.1,0,0,1-.375,10.673.954.954,0,0,1-1.041.823.939.939,0,0,1-.825-1.039,48.231,48.231,0,0,0,.381-10.223c-.118-.919-.546-2.664-1.044-4.688-.893-3.626-1.9-7.734-1.9-10.119,0-3.443,1.269-6.583,3.236-8a3.184,3.184,0,0,1,2.9-.574c6.821,2.273,7.245,22.558,7.245,22.761,0,3.9,1.3,17.13,5.471,25.3a.935.935,0,0,1-.409,1.26A.913.913,0,0,1,293.626,247.066Z" transform="translate(-275.613 -197.504)"/></g><g transform="translate(29.634 176.047)"><path d="M286.62,236.534a.937.937,0,0,1-.937-.906c-.148-4.161.294-20.927.81-24.825.649-4.9,2.413-16.305,2.835-17.9.5-1.851.712-4.283.022-5.248a.958.958,0,0,0-.784-.4c-1.877-.184-5.648,7.253-7.074,12.133a49.425,49.425,0,0,0-1.909,9.763.937.937,0,0,1-1.871-.109,50.206,50.206,0,0,1,1.98-10.178c.039-.139,4.354-13.753,9-13.481a2.824,2.824,0,0,1,2.183,1.185c1.414,1.973.562,5.721.268,6.823-.375,1.408-2.1,12.473-2.788,17.659-.51,3.838-.941,20.4-.795,24.514a.939.939,0,0,1-.906.971Z" transform="translate(-277.71 -185.378)"/></g><g transform="translate(16.573 196.603)"><path d="M276.847,224.588a3.678,3.678,0,0,1-2.207-.713c-2.136-1.442-3.4-5.355-3.846-11.94-.427-6.227,1.973-11,4.361-13.382a7.013,7.013,0,0,1,1.543-1.228,7.259,7.259,0,0,1,4.253-.954,4.32,4.32,0,0,1,3.874,2.5,2.617,2.617,0,0,1,.2.666.936.936,0,0,1-1.834.377,2.122,2.122,0,0,0-.071-.276,2.548,2.548,0,0,0-2.327-1.4,5.417,5.417,0,0,0-3.176.724,5.341,5.341,0,0,0-1.133.917c-2.1,2.094-4.2,6.328-3.816,11.929.489,7.335,1.933,9.778,3.058,10.539a1.765,1.765,0,0,0,1.211.364,1.968,1.968,0,0,0,.263-.009,2.7,2.7,0,0,0,1.041-.358c1.138-.728.941-2.739.769-4.517-.049-.5-.094-.99-.114-1.433-.022-.6-.163-5.884,1.483-7.5a.937.937,0,1,1,1.311,1.341c-.519.51-1.027,3.133-.919,6.083.017.409.06.859.105,1.328.216,2.2.48,4.929-1.607,6.266a4.35,4.35,0,0,1-1.676.622A3.16,3.16,0,0,1,276.847,224.588Z" transform="translate(-270.744 -196.341)"/></g><g transform="translate(9.907 208.895)"><path d="M276.139,227.568a5.566,5.566,0,0,1-1.98-.373c-3.131-1.191-5.46-4.926-6.263-7.146-1.031-2.865-1.011-8.709.568-11.953,1.629-3.353,3.883-5.2,6.345-5.2a.938.938,0,1,1,0,1.875c-2.3,0-3.906,2.6-4.659,4.144-1.322,2.719-1.374,8.044-.488,10.5.823,2.284,2.914,5.175,5.164,6.03a3.422,3.422,0,0,0,3.013-.2c2-1.091,1.633-5.526,1.32-7.144A.939.939,0,0,1,281,217.74c.141.733,1.288,7.213-2.265,9.15A5.4,5.4,0,0,1,276.139,227.568Z" transform="translate(-267.189 -202.897)"/></g><g transform="translate(3.357 218.455)"><path d="M272.768,230.007a6,6,0,0,1-2.661-.692,12.518,12.518,0,0,1-6.015-7.534,14.359,14.359,0,0,1,1.087-9.8c1.359-2.426,4.091-4.144,6.152-3.981a.938.938,0,0,1,.847,1.02.953.953,0,0,1-1.02.848c-1.224-.131-3.264,1.106-4.343,3.028a12.57,12.57,0,0,0-.9,8.453,10.78,10.78,0,0,0,5.031,6.283,3.356,3.356,0,0,0,2.749.307c2.213-.966,2.241-3.165,2.046-5.942l-.036-.529a.937.937,0,0,1,.876-.994.913.913,0,0,1,1,.877l.034.514c.174,2.477.437,6.219-3.163,7.791A4.183,4.183,0,0,1,272.768,230.007Z" transform="translate(-263.696 -207.995)"/></g><g transform="translate(0 227.576)"><path d="M268.76,230.875a4.449,4.449,0,0,1-2.483-.8c-2.43-1.62-4.142-5.5-4.331-8.171-.339-4.736,1.481-8.7,4.144-9.034a.937.937,0,0,1,.231,1.86c-1.217.15-2.8,2.968-2.5,7.039.156,2.192,1.633,5.5,3.5,6.746a2.356,2.356,0,0,0,2.147.367c2.576-.866,1.987-4.232,1.959-4.374a.939.939,0,0,1,1.847-.341c.347,1.9.064,5.393-3.21,6.491A4.084,4.084,0,0,1,268.76,230.875Z" transform="translate(-261.905 -212.86)"/></g><g transform="translate(122.621 221.048)"><path d="M328.241,312.906a.937.937,0,0,1-.937-.936c-.069-34.607,7.127-101.089,7.2-101.755a.954.954,0,0,1,1.031-.831.936.936,0,0,1,.833,1.031c-.073.667-7.258,67.048-7.189,101.551a.937.937,0,0,1-.936.939Z" transform="translate(-327.303 -209.379)"/></g><g transform="translate(204.048 139.684)"><path d="M460.88,350.878a.936.936,0,0,1-.849-1.335c5.773-12.238,6.684-29.548,6.868-41.5.339-20.078-1.744-48.985-13.607-72.692-10.213-20.4-38.008-35.168-49.879-41.471-1.32-.7-2.46-1.305-3.381-1.815-4.549-2.52-19.9-11.385-26.458-19.719a14.658,14.658,0,0,1-2.814-5.186.938.938,0,0,1,1.817-.465,12.825,12.825,0,0,0,2.471,4.493c6.345,8.057,21.422,16.763,25.892,19.238.911.5,2.044,1.1,3.354,1.8,12.026,6.388,40.195,21.349,50.674,42.289,12.034,24.047,14.149,53.275,13.806,73.56-.187,12.128-1.119,29.706-7.046,42.27A.933.933,0,0,1,460.88,350.878Z" transform="translate(-370.73 -165.985)"/></g><g transform="translate(223.192 272.172)"><path d="M398.452,289.05a.934.934,0,0,1-.546-.174,152.749,152.749,0,0,1-16.7-13.793.936.936,0,0,1-.229-.928s.621-2.059,1.736-5.269c2.58-7.436,7.847-21.216,14.151-29.94q.745-1.035,1.492-1.954a.939.939,0,0,1,1.157-.246c.216.111,21.73,11.237,35.753,28.271a.936.936,0,1,1-1.446,1.191c-12.383-15.039-30.752-25.414-34.485-27.433-.317.407-.636.829-.952,1.268-6.161,8.531-11.353,22.12-13.9,29.46-.765,2.2-1.3,3.855-1.547,4.656A155.523,155.523,0,0,0,399,287.352a.937.937,0,0,1-.546,1.7Z" transform="translate(-380.941 -236.644)"/></g><g transform="translate(171.3 139.686)"><path d="M359.625,177.015a30.98,30.98,0,0,1-5.6-.433.937.937,0,1,1,.358-1.839,44.508,44.508,0,0,0,32.014-8.574.937.937,0,1,1,1.108,1.511A47.177,47.177,0,0,1,359.625,177.015Z" transform="translate(-353.265 -165.986)"/></g><g transform="translate(170.331 144.518)"><path d="M358.429,198.241a1.767,1.767,0,0,1-1.734-1.339c-1.839-6.836-3.947-15.362-3.947-20.648a.938.938,0,1,1,1.875,0c0,5.068,2.074,13.436,3.879,20.162,4.142-23.856,5.561-23.856,6.6-23.856.878,0,2.7,0,5.833,23.387a.425.425,0,0,0,.334.369.417.417,0,0,0,.458-.178c4.521-6.585,15.272-22.4,17.473-27.043a.939.939,0,0,1,1.7.806c-2.181,4.59-11.978,19.074-17.625,27.3a2.31,2.31,0,0,1-4.194-1.007c-1.322-9.874-2.961-18.478-3.983-21.139-.889,2.156-2.544,8.689-4.875,21.692a1.8,1.8,0,0,1-1.7,1.491Z" transform="translate(-352.748 -168.563)"/></g><g transform="translate(185.625 265.536)"><path d="M415.159,243.53a.971.971,0,0,1-.426-.1c-3.977-2.018-16.618-6.681-21.58-7.545a69.806,69.806,0,0,0-11.243-.9,66.072,66.072,0,0,0-10.418.718,18.062,18.062,0,0,0-5.248,1.5c-2.657,1.4-3.793,2.886-3.377,4.419a.937.937,0,0,1-1.809.491c-.467-1.716-.1-4.251,4.311-6.57a19.811,19.811,0,0,1,5.82-1.688,66.767,66.767,0,0,1,10.731-.744,70.988,70.988,0,0,1,11.556.932c5.2.906,17.94,5.6,22.106,7.718a.939.939,0,0,1-.424,1.776Z" transform="translate(-360.905 -233.105)"/></g><g transform="translate(180.568 271.182)"><path d="M363.6,247.493a7.8,7.8,0,0,1-3.919-.887,2.861,2.861,0,0,1-1.376-1.836c-.574-2.719,1.4-5.119,5.162-6.264,4.517-1.374,8.7-1.785,15.064-2.295a41.824,41.824,0,0,1,13.678,1.543.937.937,0,0,1-.538,1.794,41.575,41.575,0,0,0-12.99-1.47c-6.234.5-10.333.9-14.668,2.222-1.044.317-4.408,1.551-3.874,4.082.019.086.073.349.525.624,1.17.716,3.607.757,5.156.347a.937.937,0,1,1,.482,1.811A10.772,10.772,0,0,1,363.6,247.493Z" transform="translate(-358.208 -236.117)"/></g><g transform="translate(183.341 278.998)"><path d="M389.562,251.985a.917.917,0,0,1-.508-.15,12.606,12.606,0,0,0-4.526-1.342,51.545,51.545,0,0,0-6.33-.532l-1.176-.043a44.762,44.762,0,0,0-5.1,0,29.642,29.642,0,0,0-3.891.458c-3.975.754-7.779-.622-8.269-3.024s1.275-4.511,4.718-5.634c2.7-.87,7.678-1.432,12.684-1.432a38.087,38.087,0,0,1,7.153,1.05c3.264.694,6.24,1.485,6.27,1.493a.938.938,0,0,1-.484,1.813c-.028-.009-2.961-.789-6.178-1.47a37.063,37.063,0,0,0-6.761-1.011,45.664,45.664,0,0,0-12.105,1.342c-1.172.383-3.862,1.489-3.457,3.476.186.921,2.64,2.216,6.086,1.553a31.883,31.883,0,0,1,4.125-.484,46.682,46.682,0,0,1,5.28,0l1.151.041a52.872,52.872,0,0,1,6.566.555,14.065,14.065,0,0,1,5.258,1.62.938.938,0,0,1-.51,1.725Z" transform="translate(-359.686 -240.285)"/></g><g transform="translate(189.521 286.734)"><path d="M399.316,263.337a.931.931,0,0,1-.66-.272c-2.151-2.134-8.7-5.216-12.4-6.533a31.593,31.593,0,0,0-4.116-.994.863.863,0,0,1-.18-.053,69.109,69.109,0,0,0-10.455-1.093h-.154l-.532.019c-4.254.15-7.558-1.613-7.815-4.241-.281-3.174,2.794-5.031,5.768-5.711a.982.982,0,0,1,1.279.878.938.938,0,0,1-.816.93c-1.072.27-4.581,1.284-4.363,3.729.148,1.524,2.805,2.685,5.91,2.541l.562-.019h.171a70.462,70.462,0,0,1,10.967,1.157,1.049,1.049,0,0,1,.189.056,32.455,32.455,0,0,1,4.206,1.031c3.3,1.174,10.534,4.423,13.1,6.969a.938.938,0,0,1-.662,1.605Z" transform="translate(-362.982 -244.411)"/></g><g transform="translate(251.938 221.048)"><path d="M402.807,273.336c-.03,0-.058,0-.088,0a.938.938,0,0,1-.848-1.02c1.974-21.221-5.509-61.42-5.584-61.823a.938.938,0,1,1,1.843-.347c.077.407,7.605,40.864,5.608,62.342A.938.938,0,0,1,402.807,273.336Z" transform="translate(-396.271 -209.378)"/></g><g transform="translate(196.942 294.843)"><path d="M370.757,260.944c-.683,0-1.363-.024-2.023-.082a.936.936,0,0,1-.851-.84s-.414-4.149-.939-10.269a.939.939,0,0,1,.853-1.014.955.955,0,0,1,1.014.853c.39,4.53.716,7.976.859,9.454a40.053,40.053,0,0,0,8.391-.726c.051-1.089.045-3.234-.15-7.44l1.873-.066a67.278,67.278,0,0,1,.086,8.4.935.935,0,0,1-.731.8A44.869,44.869,0,0,1,370.757,260.944Z" transform="translate(-366.94 -248.736)"/></g><g transform="translate(194.999 256.179)"><path d="M366.965,240.078a.939.939,0,0,1-.937-.913c-.111-3.953-.144-6.96-.112-9.469a.942.942,0,0,1,.849-.922c.281-.024,6.883-.639,9.964-.658h.006a.939.939,0,0,1,.934.855s.337,3.846.806,9.36a.935.935,0,0,1-.855,1.013.965.965,0,0,1-1.013-.855c-.336-3.951-.606-7.046-.729-8.479-2.5.081-6.4.4-8.1.557-.015,2.31.024,5.057.122,8.548a.939.939,0,0,1-.913.964Z" transform="translate(-365.904 -228.115)"/></g><g transform="translate(191.276 79.421)"><path d="M363.975,140.811a14.477,14.477,0,0,1,1.153-2.408,12.35,12.35,0,0,1,1.581-2.145,8.835,8.835,0,0,1,2.152-1.693,6.723,6.723,0,0,1,2.706-.72.7.7,0,0,1,.118,1.4l-.052.006a5.253,5.253,0,0,0-2.033.647,7.192,7.192,0,0,0-1.667,1.453,10.552,10.552,0,0,0-1.273,1.914,12.943,12.943,0,0,0-.9,2.111l-.009.032a.938.938,0,1,1-1.792-.555Z" transform="translate(-363.919 -133.844)"/></g><g transform="translate(159.133 151.272)"><path d="M348.381,345.469a.938.938,0,0,1-.937-.9c-3.879-104.281,10.408-171,10.553-171.665a.949.949,0,0,1,1.114-.716.935.935,0,0,1,.716,1.116c-.144.662-14.378,67.172-10.508,171.2a.937.937,0,0,1-.9.971Z" transform="translate(-346.776 -172.165)"/></g><g transform="translate(201.475 305.134)"><path d="M370.879,275.526a.939.939,0,0,1-.938-.906l-.021-.572c-.124-3.557-.247-7.063-.336-10.538-.062-1.834-.107-3.669-.154-5.5l-.073-2.828a.94.94,0,0,1,.913-.964h.024a.936.936,0,0,1,.938.913l.073,2.831c.045,1.821.09,3.651.154,5.488.086,3.474.21,6.975.336,10.524l.021.574a.938.938,0,0,1-.9.971Z" transform="translate(-369.358 -254.224)"/></g><g transform="translate(201.1 144.524)"><path d="M370.1,282.274a.93.93,0,0,1-.937-.928c.039-5.411.114-10.609.208-15.673.092-5.085.225-10.02.356-14.766q.222-7.687.506-14.749.278-7.765.656-14.749c.264-5.273.544-10.208.827-14.749.336-5.477.694-10.412,1.013-14.749,1.1-14.364,2.019-22.438,2.029-22.519a.938.938,0,0,1,1.864.217c-.009.079-.93,8.121-2.021,22.442-.319,4.328-.677,9.255-1.013,14.724-.283,4.536-.562,9.463-.827,14.728q-.366,6.969-.653,14.723-.281,7.062-.506,14.732c-.131,4.742-.264,9.669-.356,14.747-.094,5.061-.169,10.249-.208,15.628A.946.946,0,0,1,370.1,282.274Z" transform="translate(-369.158 -168.566)"/></g><g transform="translate(192.344 286.967)"><path d="M365.426,246.973a.938.938,0,0,1-.938-.938v-.562a.938.938,0,1,1,1.875,0v.562A.937.937,0,0,1,365.426,246.973Z" transform="translate(-364.488 -244.535)"/></g><g transform="translate(159.801 322.703)"><path d="M390.261,265.469H348.07a.938.938,0,0,1,0-1.875h42.192a.938.938,0,0,1,0,1.875Z" transform="translate(-347.132 -263.594)"/></g></g><g transform="translate(0 407.682)"><path d="M785.94,267.219H58.1c-2.589,0-4.688-1.259-4.688-2.812s2.1-2.812,4.688-2.812H785.94c2.589,0,4.688,1.26,4.688,2.813S788.529,267.219,785.94,267.219Z" transform="translate(-53.41 -261.594)" fill="#231f20"/></g><g transform="translate(297.353)"><g transform="translate(0.005)"><path d="M356.376,179.035H223.438a.938.938,0,1,1,0-1.875h132V46.04H239.019L213.875,70.01V87.759a.937.937,0,1,1-1.875,0V69.609a.936.936,0,0,1,.291-.679L238,44.424a.936.936,0,0,1,.647-.259H356.376a.937.937,0,0,1,.938.938V178.1A.938.938,0,0,1,356.376,179.035Z" transform="translate(-212 -44.165)"/></g><g transform="translate(0 0.001)"><path d="M240.257,73.36c-.032,0-.064,0-.1,0l-27.323-2.813A.937.937,0,0,1,212,69.515a.951.951,0,0,1,1.027-.838l26.226,2.7-1.543-26.22a.937.937,0,0,1,1.871-.111l1.609,27.323a.937.937,0,0,1-.936.992Z" transform="translate(-211.997 -44.165)"/></g><g transform="translate(6.399 154.295)"><path d="M353.392,261.306H342.217a.938.938,0,1,1,0-1.875h10.237V128.33H216.348a.938.938,0,0,1,0-1.875H353.392a.937.937,0,0,1,.938.938V260.368A.938.938,0,0,1,353.392,261.306Z" transform="translate(-215.41 -126.455)"/></g><g transform="translate(0.005 178.745)"><path d="M327.219,249.9H212.938a.938.938,0,0,1-.937-.937V140.433a.937.937,0,1,1,1.875,0V248.021H327.219a.937.937,0,0,1,0,1.875Z" transform="translate(-212 -139.495)"/></g><g transform="translate(131.144 311.177)"><path d="M295.178,240.106a.938.938,0,0,1-.937-.938V212H282.878a.937.937,0,1,1,0-1.875h12.3a.937.937,0,0,1,.938.938v28.106A.938.938,0,0,1,295.178,240.106Z" transform="translate(-281.94 -210.125)"/></g><g transform="translate(0.005 311.177)"><path d="M356.376,308.43H212.938a.937.937,0,0,1-.937-.937v-96.43a.937.937,0,0,1,.938-.937h98.044a.937.937,0,1,1,0,1.875H213.875v94.555H355.688a.938.938,0,0,1,1.626.638v.3A.937.937,0,0,1,356.376,308.43Z" transform="translate(-212 -210.125)"/></g><g transform="translate(106.172 8.938)"><path d="M269.56,174.86a.937.937,0,0,1-.938-.938V49.869a.938.938,0,0,1,.938-.937h37.266a.938.938,0,1,1,0,1.875H270.5V173.922A.937.937,0,0,1,269.56,174.86Z" transform="translate(-268.622 -48.932)"/></g><g transform="translate(106.172 20.539)"><path d="M287.072,62.733c-11.342,0-18.043-5.891-18.143-5.981a.937.937,0,0,1,1.258-1.389c.568.51,14.177,12.375,36.175-.12a.937.937,0,1,1,.926,1.629C299.556,61.265,292.735,62.733,287.072,62.733Z" transform="translate(-268.622 -55.119)"/></g><g transform="translate(59.357 8.929)"><path d="M281.857,174.855a.938.938,0,0,1-.937-.938V50.8H245.529V173.917a.938.938,0,1,1-1.875,0V49.865a.937.937,0,0,1,.938-.938h37.266a.937.937,0,0,1,.937.938V173.917A.937.937,0,0,1,281.857,174.855Z" transform="translate(-243.654 -48.927)"/></g><g transform="translate(59.357 20.531)"><path d="M262.1,62.728c-11.344,0-18.043-5.891-18.143-5.979a.938.938,0,0,1,1.258-1.391c.568.51,14.171,12.377,36.175-.12a.937.937,0,1,1,.926,1.629C274.586,61.26,267.767,62.728,262.1,62.728Z" transform="translate(-243.654 -55.115)"/></g><g transform="translate(26.24 8.929)"><path d="M249,174.855a.938.938,0,0,1-.937-.938V50.8H226.93a.938.938,0,0,1,0-1.875H249a.937.937,0,0,1,.938.938V173.917A.937.937,0,0,1,249,174.855Z" transform="translate(-225.992 -48.927)"/></g><g transform="translate(11.049 25.65)"><path d="M218.828,66.151a.938.938,0,0,1-.938-.938V58.783a.938.938,0,1,1,1.875,0v6.431A.937.937,0,0,1,218.828,66.151Z" transform="translate(-217.89 -57.845)"/></g><g transform="translate(11.049 129.695)"><path d="M218.828,118.491a.938.938,0,0,1-.938-.937v-3.281a.938.938,0,1,1,1.875,0v3.281A.937.937,0,0,1,218.828,118.491Z" transform="translate(-217.89 -113.335)"/></g><g transform="translate(27.149 20.531)"><path d="M228.723,60.858q-.667,0-1.335-.017a.938.938,0,0,1,.024-1.875h.026a52.888,52.888,0,0,0,20.8-3.788.938.938,0,1,1,.683,1.748A55.423,55.423,0,0,1,228.723,60.858Z" transform="translate(-226.477 -55.115)"/></g><g transform="translate(75.133 42.085)"><path d="M255.863,112.332a.937.937,0,0,1-.937-.938V70.7l-1.134,1.734a.938.938,0,0,1-1.571-1.026l2.858-4.369a.938.938,0,0,1,1.723.512v43.845A.938.938,0,0,1,255.863,112.332Z" transform="translate(-252.068 -66.61)"/></g><g transform="translate(73.922 85.932)"><path d="M260.5,91.87H252.36a.938.938,0,1,1,0-1.875H260.5a.938.938,0,0,1,0,1.875Z" transform="translate(-251.422 -89.995)"/></g><g transform="translate(27.718 273.827)"><path d="M314.287,205.524H227.718a.937.937,0,0,1-.937-.938V191.142a.935.935,0,0,1,.938-.937h91.613a.937.937,0,0,1,.938.937v11.531a.938.938,0,0,1-1.875,0V192.08H228.655v11.569h85.632a.937.937,0,1,1,0,1.875Z" transform="translate(-226.78 -190.205)"/></g><g transform="translate(47.411 265.382)"><path d="M290.653,196.014H238.22a.937.937,0,0,1-.937-.937v-8.438a.935.935,0,0,1,.937-.937h52.433a.937.937,0,0,1,.938.938v8.438A.938.938,0,0,1,290.653,196.014Zm-51.5-1.875h50.558v-6.563H239.158Z" transform="translate(-237.283 -185.701)"/></g><g transform="translate(51.63 195.922)"><path d="M240.471,218.633a.935.935,0,0,1-.938-.937v-5.423a.935.935,0,0,1,.938-.937H268.8c2.49-1.794,23.833-17.723,23.168-35.34-.728-19.331-13.774-23.989-18.06-25.519a.938.938,0,0,1,.63-1.766c4.584,1.637,18.529,6.617,19.305,27.216.741,19.643-23.19,36.415-24.21,37.118a.948.948,0,0,1-.533.167h-27.69V217.7A.937.937,0,0,1,240.471,218.633Z" transform="translate(-239.533 -148.656)"/></g><g transform="translate(80.507 190.045)"><path d="M255.873,222.734a.938.938,0,0,1-.474-1.748c10.5-6.141,28.343-19.438,29.873-39.492,1.8-23.576-15.071-31.733-22.41-34.144a.938.938,0,0,1,.587-1.781c7.757,2.55,25.6,11.171,23.694,36.068-1.6,20.9-19.982,34.641-30.8,40.967A.944.944,0,0,1,255.873,222.734Z" transform="translate(-254.934 -145.521)"/></g><g transform="translate(59.417 178.13)"><path d="M263.062,176.161a.913.913,0,0,1-.2-.023l-18.435-4a.936.936,0,0,1-.658-1.3l13.862-31.114a.946.946,0,0,1,1.082-.529l17.554,4.359a.934.934,0,0,1,.639,1.273l-12.981,30.761A.937.937,0,0,1,263.062,176.161Zm-17.111-5.616,16.549,3.6,12.251-29.035-15.728-3.9Z" transform="translate(-243.686 -139.167)"/></g><g transform="translate(59.347 209.241)"><path d="M253.827,166.536a15.4,15.4,0,0,1-2.976-.293c-3.885-.759-7.8-3.694-7.127-9.649a.929.929,0,0,1,1.039-.829.941.941,0,0,1,.827,1.037c-.649,5.741,3.716,7.23,5.623,7.6,4.8.938,9.233-.728,11.053-4.142a.938.938,0,0,1,1.656.881C262.107,164.549,258.25,166.536,253.827,166.536Z" transform="translate(-243.649 -155.759)"/></g><g transform="translate(76.188 171.475)"><path d="M264.161,147.5a.936.936,0,0,1-.832-1.367l3.394-6.564c-2.985-2-7.335-2.1-8.814-2.066l-3.508,6.707a.938.938,0,0,1-1.663-.87l3.761-7.187a.943.943,0,0,1,.763-.5c.293-.021,7.108-.482,11.256,2.914a.937.937,0,0,1,.238,1.155L265,146.992A.938.938,0,0,1,264.161,147.5Z" transform="translate(-252.63 -135.618)"/></g><g transform="translate(82.969 165.377)"><path d="M262.579,141.747a.938.938,0,0,1-.844-1.344l2.368-4.911-3.431-1.058-2.644,5.469a.938.938,0,1,1-1.688-.818l3-6.193a.94.94,0,0,1,1.119-.488l5.241,1.618a.935.935,0,0,1,.568,1.3l-2.842,5.891A.934.934,0,0,1,262.579,141.747Z" transform="translate(-256.247 -132.365)"/></g><g transform="translate(23.332 357.805)"><path d="M240.855,269.709c-8.768,0-14.494-1.714-15.913-5.025-1.178-2.747-.234-7.77,2.346-12.5,2.768-5.076,9.66-13.971,24.726-16.517,22.811-3.861,34.45,9.966,35.71,14.216a5.9,5.9,0,0,1-1.022,4.706c-2.844,4.6-11.391,10.485-26.835,13.209A112.057,112.057,0,0,1,240.855,269.709Zm18.975-32.845a44.828,44.828,0,0,0-7.5.652c-14.284,2.411-20.786,10.785-23.393,15.563-2.546,4.671-3.069,9-2.271,10.864h0c1.5,3.5,12.426,5.618,32.876,2.01,14.837-2.619,22.937-8.1,25.568-12.351a4.22,4.22,0,0,0,.818-3.188C284.91,247,276.426,236.864,259.83,236.864Z" transform="translate(-224.441 -234.993)"/></g><g transform="translate(17.977 366.196)"><path d="M229.115,252.9a7.532,7.532,0,0,1-6.57-3.566,6.734,6.734,0,0,1-.143-6.683,6.2,6.2,0,0,1,7.3-2.951c2.394.6,4.819,2.374,4.819,4.609a.938.938,0,1,1-1.875,0c0-1.052-1.556-2.329-3.4-2.788a4.357,4.357,0,0,0-5.188,2.01,4.809,4.809,0,0,0,.1,4.836,5.673,5.673,0,0,0,4.961,2.659.938.938,0,1,1,0,1.875Z" transform="translate(-221.585 -239.468)"/></g><g transform="translate(44.812 371.133)"><path d="M240.9,252.779a.938.938,0,0,1-.227-1.849,6.941,6.941,0,0,0,3.771-3.144,2.809,2.809,0,0,0-2.477-3.78,3.2,3.2,0,0,0-2.61.821,4.655,4.655,0,0,0-1.586,3.023.938.938,0,0,1-1.875,0,6.544,6.544,0,0,1,2.228-4.434,5.065,5.065,0,0,1,4.1-1.266,4.694,4.694,0,0,1,3.639,2.308,4.756,4.756,0,0,1,.313,4.054,8.708,8.708,0,0,1-5.046,4.239A.953.953,0,0,1,240.9,252.779Z" transform="translate(-235.897 -242.101)"/></g><g transform="translate(29.213 383.701)"><circle cx="1.984" cy="1.984" r="1.984"/></g><g transform="translate(28.485 377.07)"><ellipse cx="1.356" cy="2.208" rx="1.356" ry="2.208"/></g><g transform="translate(35.943 376.485)"><ellipse cx="1.356" cy="2.208" rx="1.356" ry="2.208"/></g><g transform="translate(71.713 346.785)"><path d="M267.007,253.926a12.651,12.651,0,0,1-5.059-1.1.938.938,0,0,1-.486-1.234.949.949,0,0,1,1.234-.488c3.9,1.7,7.549.842,9.426-.763a2.858,2.858,0,0,0,1.236-2.724c-.707-2.717-8.141-5.736-13.571-7.937-6.6-2.678-9.758-4.052-9.531-6.039.411-3.6,10.373-4.371,13.418-4.521a.915.915,0,0,1,.982.889.939.939,0,0,1-.891.982c-6.064.3-11.507,1.639-11.646,2.861.339.831,4.98,2.713,8.372,4.089,6.756,2.741,13.738,5.576,14.681,9.2a4.653,4.653,0,0,1-1.832,4.624A9.843,9.843,0,0,1,267.007,253.926Z" transform="translate(-250.244 -229.116)"/></g><g transform="translate(12.608 381.091)"><path d="M236.083,252.305a.916.916,0,0,1-.514-.156c-5.959-3.924-15.688-2.655-15.784-2.642a.937.937,0,0,1-.255-1.856c.426-.062,10.519-1.387,17.07,2.934a.937.937,0,0,1-.518,1.719Z" transform="translate(-218.721 -247.413)"/></g><g transform="translate(16.533 384.19)"><path d="M221.753,253.483a.938.938,0,0,1-.512-1.723,19.338,19.338,0,0,1,14.475-2.106.938.938,0,0,1-.472,1.815,17.582,17.582,0,0,0-12.979,1.862A.952.952,0,0,1,221.753,253.483Z" transform="translate(-220.815 -249.065)"/></g><g transform="translate(30.787 381.762)"><path d="M229.355,252.338a.938.938,0,0,1-.433-1.77c.276-.144,6.87-3.529,14.106-2.653a.938.938,0,1,1-.225,1.862c-6.66-.808-12.951,2.422-13.014,2.454A.948.948,0,0,1,229.355,252.338Z" transform="translate(-228.417 -247.77)"/></g><g transform="translate(30.261 384.756)"><path d="M240.348,253.76a.946.946,0,0,1-.519-.158,14.8,14.8,0,0,0-10.545-2.128.938.938,0,0,1-.424-1.828,16.472,16.472,0,0,1,12.009,2.4.938.938,0,0,1-.521,1.717Z" transform="translate(-228.136 -249.367)"/></g></g></g></g></g></svg>