<svg xmlns="http://www.w3.org/2000/svg" xmlns:xlink="http://www.w3.org/1999/xlink" width="960" height="470" viewBox="0 0 960 470"><defs><clipPath id="b"><rect width="960" height="470"/></clipPath></defs><g id="a" clip-path="url(#b)"><rect width="960" height="470" fill="#fff"/><g transform="translate(54.807 -14.287)"><g transform="translate(37.721 33.571)"><g transform="translate(428.119 340.736)"><circle cx="36.733" cy="36.733" r="36.733" fill="#dedede"/></g><g transform="translate(609.559 313.109)"><circle cx="16.977" cy="16.977" r="16.977" transform="translate(0)" fill="#dedede"/></g><g transform="translate(663.898 150.541)"><circle cx="24.452" cy="24.452" r="24.452" transform="translate(0)" fill="#dedede"/></g><g transform="translate(83.941 64.918)"><circle cx="16.128" cy="16.128" r="16.128" transform="translate(0 0)" fill="#dedede"/></g><g transform="translate(82.373 120.359)"><circle cx="9.006" cy="9.006" r="9.006" fill="#dedede"/></g><g transform="translate(168.049 230.961)"><circle cx="14.703" cy="14.703" r="14.703" fill="#dedede"/></g><g transform="translate(46.056 212.677)"><circle cx="18.284" cy="18.284" r="18.284" fill="#dedede"/></g><g transform="translate(16.249 197.703)"><circle cx="9.006" cy="9.006" r="9.006" fill="#dedede"/></g><g transform="translate(56.45 334.911)"><circle cx="7.889" cy="7.889" r="7.889" fill="#dedede"/></g><g transform="translate(579.333 381.809)"><g transform="translate(0)"><path d="M358.181,277.841a14.251,14.251,0,0,1,12.965-23.222c11.82,1.684,37.464-3.224,51.583-11.842a14.251,14.251,0,1,1,14.85,24.329c-18.553,11.323-50.816,18.527-70.452,15.731A14.192,14.192,0,0,1,358.181,277.841Z" transform="translate(-354.884 -240.689)" fill="#dedede"/></g></g><g transform="translate(0 49.657)"><path d="M107.353,65.912A11.19,11.19,0,0,1,94.772,82.578C85.761,80,65.288,81.056,53.381,86.242a11.189,11.189,0,1,1-8.934-20.518c15.647-6.811,41.513-8.947,56.484-4.66A11.148,11.148,0,0,1,107.353,65.912Z" transform="translate(-37.721 -58.848)" fill="#dedede"/></g><g transform="translate(-7.815 274.117)"><path d="M162.582,44.7a5.363,5.363,0,0,1-8.877,4.625c-3.368-2.972-12.45-6.729-18.672-6.936a5.364,5.364,0,0,1,.356-10.722c8.176.272,19.813,4.674,25.412,9.612A5.34,5.34,0,0,1,162.582,44.7Z" transform="translate(-129.848 -31.662)" fill="#dedede"/></g><g transform="translate(119.701 103.43)"><path d="M103.253,94.248a6.045,6.045,0,0,1,10.58-3.913c3.345,3.8,12.963,9.285,19.89,10.4a6.043,6.043,0,1,1-1.916,11.933c-9.1-1.461-21.486-8.03-27.045-14.343A6.016,6.016,0,0,1,103.253,94.248Z" transform="translate(-103.253 -88.286)" fill="#dedede"/></g><g transform="translate(23.881 302.237)"><path d="M52.178,214.222a8.475,8.475,0,0,1,9.246-12.834c6.868,1.8,22.354.652,31.286-3.478A8.477,8.477,0,0,1,99.823,213.3c-11.734,5.423-31.288,7.478-42.7,4.486A8.444,8.444,0,0,1,52.178,214.222Z" transform="translate(-50.795 -197.126)" fill="#dedede"/></g><g transform="translate(459.557 317.449)"><path d="M290.215,216.615a5.533,5.533,0,0,1,6.035-8.38c4.484,1.176,14.595.426,20.425-2.269a5.533,5.533,0,1,1,4.643,10.045c-7.661,3.542-20.425,4.883-27.876,2.93A5.517,5.517,0,0,1,290.215,216.615Z" transform="translate(-289.311 -205.454)" fill="#dedede"/></g><g transform="translate(563.403 153.446)"><path d="M385.512,194.367a39.35,39.35,0,1,1,39.351-39.351A39.394,39.394,0,0,1,385.512,194.367Zm0-71.983a32.632,32.632,0,1,0,32.632,32.632A32.671,32.671,0,0,0,385.512,122.384Z" transform="translate(-346.163 -115.668)" fill="#dedede"/></g><g transform="translate(30.567 82.515)"><path d="M77.4,122.722A22.943,22.943,0,1,1,100.341,99.78,22.967,22.967,0,0,1,77.4,122.722Zm0-41.97A19.027,19.027,0,1,0,96.425,99.78,19.049,19.049,0,0,0,77.4,80.752Z" transform="translate(-54.455 -76.836)" fill="#dedede"/></g><g transform="translate(106.21 378.126)"><path d="M117.483,281.906A21.617,21.617,0,1,1,139.1,260.29,21.641,21.641,0,0,1,117.483,281.906Zm0-39.542a17.926,17.926,0,1,0,17.926,17.926A17.947,17.947,0,0,0,117.483,242.364Z" transform="translate(-95.867 -238.672)" fill="#dedede"/></g><g transform="translate(123.685 16.991)"><path d="M145.176,120.445A39.741,39.741,0,1,1,184.917,80.7,39.786,39.786,0,0,1,145.176,120.445Zm0-72.7A32.957,32.957,0,1,0,178.133,80.7,32.994,32.994,0,0,0,145.176,47.748Z" transform="translate(-105.434 -40.964)" fill="#dedede"/></g><g transform="translate(82.535 235.891)"><path d="M120.072,235.136a37.166,37.166,0,1,1,37.166-37.166A37.209,37.209,0,0,1,120.072,235.136Zm0-67.986a30.82,30.82,0,1,0,30.82,30.82A30.855,30.855,0,0,0,120.072,167.15Z" transform="translate(-82.906 -160.804)" fill="#dedede"/></g><g transform="translate(420.126 151.336)"><path d="M296.5,172.073a28.78,28.78,0,1,1,28.78-28.78A28.812,28.812,0,0,1,296.5,172.073Zm0-52.647a23.866,23.866,0,1,0,23.866,23.866A23.893,23.893,0,0,0,296.5,119.427Z" transform="translate(-267.724 -114.513)" fill="#dedede"/></g><g transform="translate(720.907 286.928)"><circle cx="8.619" cy="8.619" r="8.619" fill="#dedede"/></g><g transform="translate(646.543 353.215)"><g transform="translate(0)"><circle cx="7.064" cy="7.064" r="7.064" fill="#dedede"/></g></g><g transform="translate(641.261 146.342)"><g transform="translate(0)"><circle cx="8.011" cy="8.011" r="8.011" fill="#dedede"/></g></g><g transform="translate(467.757 216.016)"><circle cx="9.411" cy="9.411" r="9.411" fill="#dedede"/></g><g transform="translate(374.241 156.93)"><circle cx="14.581" cy="14.581" r="14.581" fill="#dedede"/></g><g transform="translate(410.12 68.169)"><circle cx="28.304" cy="28.304" r="28.304" fill="#dedede"/></g><g transform="translate(721.588 65.645)"><g transform="translate(0 0)"><circle cx="8.011" cy="8.011" r="8.011" fill="#dedede"/></g></g><g transform="translate(754.641 223.961)"><g transform="translate(0)"><circle cx="12.618" cy="12.618" r="12.618" fill="#dedede"/></g></g><g transform="translate(676.035 258.591)"><g transform="translate(0)"><circle cx="17.07" cy="17.07" r="17.07" fill="#dedede"/></g></g><g transform="translate(365.363 337.49)"><circle cx="11.729" cy="11.729" r="11.729" fill="#dedede"/></g><g transform="translate(303.043 298.307)"><circle cx="10.91" cy="10.91" r="10.91" fill="#dedede"/></g><g transform="translate(76.832 395.488)"><circle cx="10.874" cy="10.874" r="10.874" fill="#dedede"/></g><g transform="translate(588.753 77.59)"><path d="M360.054,87.259a12.594,12.594,0,0,1,.305-3.366,12.545,12.545,0,0,1,15.024-9.433c27.719,6.337,42.5,20.1,52.276,31.376A12.543,12.543,0,0,1,408.7,122.268c-8.119-9.365-18.451-18.675-38.912-23.351A12.578,12.578,0,0,1,360.054,87.259Zm65.089,26.464a6.9,6.9,0,0,0-1.7-4.236c-9.223-10.638-23.161-23.616-49.307-29.591a6.969,6.969,0,0,0-8.346,5.241,6.959,6.959,0,0,0,5.242,8.346c22.02,5.032,33.142,15.055,41.881,25.134a6.969,6.969,0,0,0,12.216-4.07A6.907,6.907,0,0,0,425.143,113.723Z" transform="translate(-360.041 -74.14)" fill="#dedede"/></g><g transform="translate(662.628 303.985)"><g transform="translate(0)"><path d="M401.236,214.368a11.818,11.818,0,0,1-.7-3.089A11.765,11.765,0,0,1,411.2,198.511c26.561-2.38,43.729,5.61,55.719,12.836A11.763,11.763,0,1,1,454.772,231.5c-9.955-6-21.868-11.31-41.471-9.551A11.8,11.8,0,0,1,401.236,214.368Zm65.723,4.744a6.491,6.491,0,0,0-2.742-3.288c-11.307-6.815-27.5-14.352-52.552-12.1a6.542,6.542,0,0,0-5.535,8.812,6.553,6.553,0,0,0,6.7,4.207c21.1-1.892,33.924,3.823,44.637,10.282a6.535,6.535,0,0,0,9.718-7.169A6.668,6.668,0,0,0,466.959,219.111Z" transform="translate(-400.485 -198.083)" fill="#dedede"/></g></g><g transform="translate(101.135 138.907)"><path d="M93.219,121.975a12.507,12.507,0,0,1-.033-3.355A12.457,12.457,0,0,1,107.1,107.808c28.024,3.513,43.992,15.647,54.773,25.825a12.458,12.458,0,1,1-17.1,18.118c-8.952-8.45-20.085-16.628-40.77-19.22A12.492,12.492,0,0,1,93.219,121.975Zm66.947,19.7a6.861,6.861,0,0,0-2.1-4.019c-10.169-9.6-25.231-21.043-51.662-24.356a6.921,6.921,0,1,0-1.722,13.734c22.263,2.791,34.247,11.592,43.881,20.688a6.922,6.922,0,0,0,11.67-5.233A6.729,6.729,0,0,0,160.166,141.677Z" transform="translate(-93.089 -107.709)" fill="#dedede"/></g><g transform="translate(-14.815 218.302)"><path d="M124.348,72.255a10.916,10.916,0,0,1-.559,2.866,10.842,10.842,0,0,1-13.747,6.786C86.768,74.016,75.277,60.882,67.864,50.323A10.841,10.841,0,0,1,85.61,37.865C91.763,46.633,99.826,55.549,117,61.374A10.869,10.869,0,0,1,124.348,72.255ZM70.723,43.762a5.971,5.971,0,0,0,1.085,3.792c6.99,9.961,17.83,22.347,39.782,29.79a6.022,6.022,0,0,0,7.637-3.77,6.009,6.009,0,0,0-3.77-7.637c-18.489-6.269-27.167-15.866-33.79-25.3A6.022,6.022,0,0,0,70.8,43.057,5.789,5.789,0,0,0,70.723,43.762Z" transform="translate(-65.893 -33.257)" fill="#dedede"/></g><g transform="translate(665.952 210.269)"><g transform="translate(0)"><path d="M456.013,148.949a9.422,9.422,0,0,1-.656,14.982c-17.546,12.176-32.662,13.411-43.87,13.128a9.421,9.421,0,1,1,.477-18.836c9.3.236,19.7-.785,32.651-9.772A9.448,9.448,0,0,1,456.013,148.949Zm-47.629,22.721a5.2,5.2,0,0,0,3.209,1.2c10.571.267,24.827-.9,41.376-12.383a5.236,5.236,0,0,0,.364-8.326,5.246,5.246,0,0,0-6.331-.274c-13.939,9.672-25.129,10.77-35.144,10.518a5.234,5.234,0,0,0-3.925,8.839A5.461,5.461,0,0,0,408.384,171.671Z" transform="translate(-402.304 -146.776)" fill="#dedede"/></g></g><g transform="translate(734.21 257.431)"><path d="M472.168,53.4a10.477,10.477,0,0,1,1.145,2.561,10.408,10.408,0,0,1-7.045,12.925c-22.637,6.667-38.92,2.707-50.577-1.489a10.409,10.409,0,1,1,7.051-19.589c9.677,3.482,20.937,6.026,37.645,1.107A10.438,10.438,0,0,1,472.168,53.4Zm-57.858,7.266a5.752,5.752,0,0,0,2.948,2.378c10.994,3.956,26.351,7.692,47.7,1.4a5.78,5.78,0,0,0,3.914-7.18,5.777,5.777,0,0,0-7.182-3.914c-17.983,5.3-30.1,2.557-40.518-1.191a5.79,5.79,0,0,0-6.864,8.5Z" transform="translate(-408.803 -47.195)" fill="#dedede"/></g><g transform="translate(728.863 132.074)"><g transform="translate(0)"><path d="M479.46,105.086a8.017,8.017,0,0,1,1.461,12.677c-13.108,12.584-25.64,15.652-35.095,16.918a8.015,8.015,0,1,1-2.128-15.888c7.849-1.052,16.447-3.306,26.12-12.594A8.033,8.033,0,0,1,479.46,105.086ZM442.5,130.571a4.409,4.409,0,0,0,2.857.579c8.917-1.195,20.737-4.088,33.1-15.957a4.453,4.453,0,1,0-6.169-6.424c-10.412,10-19.665,12.423-28.113,13.555a4.453,4.453,0,0,0-2.112,7.953A4.931,4.931,0,0,0,442.5,130.571Z" transform="translate(-436.746 -103.968)" fill="#dedede"/></g></g><g transform="translate(23.563 349.389)"><path d="M105.157,250a9.575,9.575,0,0,1-.079,2.554,9.481,9.481,0,0,1-10.907,7.792c-21.2-3.529-32.965-13.241-40.85-21.309a9.478,9.478,0,0,1,13.557-13.25c6.547,6.7,14.761,13.254,30.406,15.859A9.506,9.506,0,0,1,105.157,250ZM54.863,232.974a5.231,5.231,0,0,0,1.47,3.12c7.438,7.61,18.536,16.77,38.531,20.1a5.266,5.266,0,0,0,6.059-4.329,5.26,5.26,0,0,0-4.331-6.061c-16.838-2.8-25.68-9.86-32.726-17.07a5.267,5.267,0,0,0-9.033,3.62A5.378,5.378,0,0,0,54.863,232.974Z" transform="translate(-50.621 -222.939)" fill="#dedede"/></g><g transform="translate(263.812 319.647)"><path d="M262.221,227.051a13.187,13.187,0,0,1-10.98,17.886c-29.739,2.976-49.072-5.779-62.592-13.738a13.184,13.184,0,1,1,13.378-22.723c11.225,6.609,24.637,12.421,46.588,10.224A13.217,13.217,0,0,1,262.221,227.051ZM188.512,222.5a7.262,7.262,0,0,0,3.111,3.651c12.752,7.509,30.987,15.765,59.034,12.958a7.323,7.323,0,0,0,6.559-8.017,7.316,7.316,0,0,0-8.019-6.559c-23.624,2.365-38.061-3.891-50.144-11.005a7.329,7.329,0,0,0-10.541,8.972Z" transform="translate(-182.148 -206.657)" fill="#dedede"/></g><g transform="translate(400.975 358.298)"><path d="M274.518,273.638a7.727,7.727,0,0,1-1.752,1.089,7.656,7.656,0,0,1-10.116-3.854c-7.1-15.833-5.823-28.09-3.92-37a7.654,7.654,0,0,1,14.971,3.2c-1.58,7.4-2.32,15.851,2.919,27.538A7.674,7.674,0,0,1,274.518,273.638ZM263.5,232.2a4.221,4.221,0,0,0-1.441,2.382c-1.794,8.4-3,19.961,3.7,34.9a4.256,4.256,0,0,0,6.594,1.536A4.264,4.264,0,0,0,273.517,266c-5.639-12.58-4.842-21.68-3.144-29.64a4.252,4.252,0,0,0-6.47-4.457A4.141,4.141,0,0,0,263.5,232.2Z" transform="translate(-257.24 -227.817)" fill="#dedede"/></g><g transform="translate(318.625 187.132)"><path d="M257.228,136.441a7.656,7.656,0,0,1-1.849,12.045c-15.243,8.289-27.56,7.959-36.587,6.742a7.654,7.654,0,1,1,2.04-15.172c7.5,1.01,15.983,1.1,27.233-5.02A7.675,7.675,0,0,1,257.228,136.441ZM216.759,150.6a4.222,4.222,0,0,0,2.486,1.255c8.514,1.145,20.131,1.458,34.51-6.36a4.253,4.253,0,0,0-4.064-7.473c-12.109,6.587-21.243,6.49-29.312,5.4a4.253,4.253,0,0,0-3.949,6.793A3.888,3.888,0,0,0,216.759,150.6Z" transform="translate(-212.156 -134.11)" fill="#dedede"/></g><g transform="translate(405.006 204.2)"><path d="M300.941,170.61a7.71,7.71,0,0,1-.373,2.029,7.656,7.656,0,0,1-9.652,4.9c-16.494-5.389-24.712-14.569-30.029-21.965a7.654,7.654,0,1,1,12.43-8.936c4.415,6.141,10.178,12.372,22.352,16.348A7.676,7.676,0,0,1,300.941,170.61Zm-38.087-19.691a4.22,4.22,0,0,0,.795,2.669c5.016,6.976,12.766,15.636,28.323,20.716a4.254,4.254,0,0,0,5.363-2.722,4.248,4.248,0,0,0-2.723-5.361c-13.1-4.28-19.305-10.987-24.056-17.6a4.251,4.251,0,0,0-7.7,2.3Z" transform="translate(-259.446 -143.454)" fill="#dedede"/></g><g transform="translate(560.133 247.948)"><g transform="translate(0)"><path d="M380.422,192.07c-6.777,3.708-16.684,2.106-24.548,7.524-8.591,5.918-15.8,16.191-8.47,28.809,5.041,8.675,15.294,10.454,21.81,9.065,11.371-2.418,17.123-12.609,23.558-14.744,9.577-3.178,26.433.627,39.263-6.822,11.515-6.685,16.882-25.065,9.471-37.716-6.351-10.843-26.044-13.6-36.616-7.853S387.452,188.225,380.422,192.07Z" transform="translate(-344.372 -167.404)" fill="#dedede"/></g></g><g transform="translate(633.937 43.494)"><g transform="translate(0)"><path d="M390.888,57.612a13.316,13.316,0,0,1,11.648-1.385c37.966,13.292,64.927,48.3,77.616,67.986a13.345,13.345,0,1,1-22.433,14.461c-10.835-16.808-33.56-46.6-64-57.257a13.344,13.344,0,0,1-2.829-23.806Z" transform="translate(-384.778 -55.474)" fill="#dedede"/></g></g><g transform="translate(254.045 124.595)"><path d="M296.548,114.562a13.322,13.322,0,0,1-6.19,9.966c-34.083,21.366-78.261,20.577-101.563,18.206a13.345,13.345,0,0,1,2.7-26.553c19.9,2.026,57.356,2.864,84.683-14.268a13.346,13.346,0,0,1,20.367,12.649Z" transform="translate(-176.801 -99.873)" fill="#dedede"/></g><g transform="translate(676.035 343.32)"><g transform="translate(0)"><path d="M499.618,254.155a10.5,10.5,0,0,1-7.7,5.136c-31.443,4.227-62.912-10.75-78.871-20.053a10.526,10.526,0,1,1,10.6-18.188c13.627,7.944,40.253,20.765,65.466,17.377a10.526,10.526,0,0,1,10.5,15.727Z" transform="translate(-407.824 -219.617)" fill="#dedede"/></g></g><g transform="translate(24.601 147.844)"><path d="M160.216,173.838a13.277,13.277,0,0,1-10.713,4.678c-40.047-1.739-75.852-27.364-93.63-42.485A13.3,13.3,0,0,1,73.1,115.77c15.181,12.912,45.444,34.779,77.554,36.174a13.3,13.3,0,0,1,9.559,21.894Z" transform="translate(-51.189 -112.601)" fill="#dedede"/></g><g transform="translate(276.314 372.763)"><path d="M189.123,253.01a9.474,9.474,0,0,1,4.848-6.791c25.174-13.616,56.5-11.04,72.94-8.295a9.495,9.495,0,0,1-3.131,18.73c-14.034-2.345-40.591-4.651-60.775,6.267a9.494,9.494,0,0,1-13.882-9.911Z" transform="translate(-188.993 -235.736)" fill="#dedede"/></g><g transform="translate(86.238 304.985)"><path d="M199.732,210.492a13.419,13.419,0,0,1-3.909,11.148c-28.846,28.446-72.452,37.316-95.879,40.07a13.44,13.44,0,0,1-3.14-26.7c20.005-2.353,57.016-9.7,80.143-32.514a13.44,13.44,0,0,1,22.785,7.991Z" transform="translate(-84.933 -198.63)" fill="#dedede"/></g><g transform="translate(772.879 176.71)"><path d="M400.507,57.707A10.652,10.652,0,1,1,411.16,47.054,10.665,10.665,0,0,1,400.507,57.707Zm0-17.979a7.327,7.327,0,1,0,7.327,7.327A7.335,7.335,0,0,0,400.507,39.727Z" transform="translate(-389.854 -36.403)" fill="#dedede"/></g><g transform="translate(383.062 115.848)"><path d="M256.361,112.94a8.928,8.928,0,1,1,8.927-8.927A8.938,8.938,0,0,1,256.361,112.94Zm0-15.068a6.141,6.141,0,1,0,6.141,6.141A6.148,6.148,0,0,0,256.361,97.872Z" transform="translate(-247.433 -95.085)" fill="#dedede"/></g><g transform="translate(448.906 243.634)"><path d="M294.133,186.347a10.652,10.652,0,1,1,10.651-10.653A10.664,10.664,0,0,1,294.133,186.347Zm0-17.979a7.327,7.327,0,1,0,7.326,7.327A7.337,7.337,0,0,0,294.133,168.367Z" transform="translate(-283.48 -165.043)" fill="#dedede"/></g><g transform="translate(725.205 179.855)"><path d="M447.683,156.007a12.941,12.941,0,1,1,12.94-12.942A12.955,12.955,0,0,1,447.683,156.007Zm0-21.843a8.9,8.9,0,1,0,8.9,8.9A8.912,8.912,0,0,0,447.683,134.165Z" transform="translate(-434.743 -130.126)" fill="#dedede"/></g><g transform="translate(416.856 328.075)"><path d="M274.835,229.073a8.9,8.9,0,1,1,8.9-8.9A8.91,8.91,0,0,1,274.835,229.073Zm0-15.022a6.122,6.122,0,1,0,6.121,6.121A6.13,6.13,0,0,0,274.835,214.051Z" transform="translate(-265.934 -211.271)" fill="#dedede"/></g><g transform="translate(610.402 354.817)"><g transform="translate(0)"><path d="M382.263,246.649a10.369,10.369,0,1,1,10.368-10.37A10.381,10.381,0,0,1,382.263,246.649Zm0-17.5a7.132,7.132,0,1,0,7.131,7.131A7.141,7.141,0,0,0,382.263,229.148Z" transform="translate(-371.893 -225.911)" fill="#dedede"/></g></g><g transform="translate(697.199 390.914)"><g transform="translate(0)"><path d="M428.312,263.475a8.9,8.9,0,1,1,8.9-8.9A8.911,8.911,0,0,1,428.312,263.475Zm0-15.024a6.123,6.123,0,1,0,6.121,6.123A6.13,6.13,0,0,0,428.312,248.451Z" transform="translate(-419.411 -245.673)" fill="#dedede"/></g></g><g transform="translate(-7.815 326.885)"><path d="M164.316,51.915A9.687,9.687,0,1,1,174,42.229,9.7,9.7,0,0,1,164.316,51.915Zm0-16.35a6.663,6.663,0,1,0,6.662,6.663A6.671,6.671,0,0,0,164.316,35.565Z" transform="translate(-154.629 -32.542)" fill="#dedede"/></g><g transform="translate(170.538 125.301)"><path d="M144.1,126.3a13.019,13.019,0,1,1,13.018-13.018A13.034,13.034,0,0,1,144.1,126.3Zm0-21.974a8.955,8.955,0,1,0,8.954,8.956A8.966,8.966,0,0,0,144.1,104.324Z" transform="translate(-131.084 -100.26)" fill="#dedede"/></g><g transform="translate(43.517 271.616)"><path d="M71.538,200.347a9.992,9.992,0,1,1,9.992-9.993A10.005,10.005,0,0,1,71.538,200.347Zm0-16.865a6.873,6.873,0,1,0,6.872,6.872A6.881,6.881,0,0,0,71.538,183.482Z" transform="translate(-61.545 -180.362)" fill="#dedede"/></g></g><g transform="translate(198.916 29.353)"><g transform="translate(94.858 28.129)"><path d="M227.31,89.62a2.4,2.4,0,0,0-4.2-.924H223.1a2.56,2.56,0,0,0-1.677-2.585,2.941,2.941,0,0,0-3.792,1.5h-.015l-.2-9.274-4.652,1-1.127.25.046,1.52.424,11.953a6.5,6.5,0,0,0-1.394.3c-1.379.453-5.014,2.349-4.857,5.372s4.7,7.88,4.7,7.88c-1.1.174-1.739.3-1.739.3a57.937,57.937,0,0,1,.093,10.419h-31V99.772c.015-.016.046-.016.062-.033,2.523-1.127,7.127-3.3,6.548-9.445-.345-3.776-3.228-6.486-6.611-8.664V44.753h72.579v72.58H234.938c.612-4.9.862-8.021.862-8.021a18.019,18.019,0,0,0-5.374-2.3v-.016a2.839,2.839,0,0,0,.705-2.523v-.015a1.782,1.782,0,0,0,1.019-.062c2.051-.69,2.459-5.3,2.13-7.332-.36-2.146-2.082-2.46-3.149-1.6a7.8,7.8,0,0,0-.11-1.489,2.226,2.226,0,0,0-3.445-1.785A10.637,10.637,0,0,0,227.31,89.62Z" transform="translate(-177.9 -44.753)" fill="#fff"/></g><g transform="translate(110.163)"><path d="M203.338,99.361a3.124,3.124,0,0,1-1.142-.216c-7.385-2.893-14.951-12.68-15.27-13.1a3.133,3.133,0,0,1,4.972-3.814c1.582,2.059,6.035,7.175,10.255,9.858,5.936-9.9,27.739-45.417,44.624-61.853a3.133,3.133,0,1,1,4.369,4.492c-18.7,18.2-44.841,62.634-45.1,63.08A3.134,3.134,0,0,1,203.338,99.361Z" transform="translate(-186.279 -29.353)"/></g><g transform="translate(38.346 118.771)"><path d="M158.888,104.293s1.832-2.93,3.681-6.768l22.308,4.95a14.488,14.488,0,0,1-5.7,7.756v-.016l-30.55-5.874a11.948,11.948,0,0,1-1.268-8.93c.312-.329.658-.672.986-1.034l7.411,1.646C156.679,99.421,157.806,102.82,158.888,104.293Z" transform="translate(-146.962 -94.376)" fill="#818181"/></g><g transform="translate(57.149 111.222)"><path d="M157.256,92.4a25.76,25.76,0,0,0,7.316-2.161c3.228,6.218,2.351,10.072,2.351,10.072-3.275-1-9.666-7.895-9.666-7.895Z" transform="translate(-157.256 -90.243)" fill="#818181"/></g><g transform="translate(44.993 111.222)"><path d="M162.757,92.42a45,45,0,0,1-3.2,8.521c-1.849,3.838-3.681,6.768-3.681,6.768-1.081-1.472-2.208-4.872-3.133-8.271-1.253-4.59-2.146-9.2-2.146-9.2s4.574,3.226,12.156,2.161Z" transform="translate(-150.601 -90.243)" fill="#818181"/></g><g transform="translate(376.357 147.268)"><path d="M350.042,132.176a10.016,10.016,0,0,1,1.942,2.945l.579,1.222c-.86.455-1.346.753-1.346.753a51.993,51.993,0,0,1,3.885,8.271,33.131,33.131,0,0,0-3.885-1.1,41.458,41.458,0,0,0-19.207.3V109.977h3.854s7.268,5.169,9.493,6.768a5.548,5.548,0,0,0-3.947,5.874C342.036,126.709,348.787,130.923,350.042,132.176Z" transform="translate(-332.01 -109.977)" fill="#fff"/></g><g transform="translate(188.695 28.129)"><rect width="72.58" height="72.58" fill="#fff"/></g><g transform="translate(282.518 28.129)"><rect width="72.596" height="72.58" fill="#fff"/></g><g transform="translate(376.357 28.129)"><rect width="72.58" height="72.58" fill="#fff"/></g><g transform="translate(282.518 117.754)"><rect width="72.596" height="72.58" fill="#fff"/></g><g transform="translate(376.357 117.754)"><path d="M404.59,93.819V166.4H382.125a180.98,180.98,0,0,0-6.861-21.494,14.531,14.531,0,0,0-1.881-.407,54.023,54.023,0,0,0-2.3-17.609c-1.112-3.306-2.82-3.947-4.293-3.947a5.253,5.253,0,0,0-1.348-1.41c-1.394-.955-3.947-.016-3.947-.016a5.471,5.471,0,0,0-3.478-1.942,5.371,5.371,0,0,0-3.4,1.487,5.857,5.857,0,0,0-3.306-1.127c-2.146.219-3.869,3.133-3.869,3.133-3.368-2.161-7.63-4.683-7.63-4.683-2.6,1.269-3.947,4.95-3.947,4.95H332.01V93.819Z" transform="translate(-332.01 -93.819)" fill="#fff"/></g><g transform="translate(380.211 142.318)"><path d="M349.034,114.206h.015c.36,1.708.329,3.728-.579,4.669-1.786,1.849-4.857.11-4.857.11-2.225-1.6-9.493-6.768-9.493-6.768s1.346-3.681,3.947-4.95c0,0,4.261,2.523,7.63,4.683C347.076,112.827,348.3,113.642,349.034,114.206Z" transform="translate(-334.12 -107.267)" fill="#fff"/></g><g transform="translate(385.707 143.509)"><path d="M343.21,111.411s1.722-2.913,3.869-3.133a5.857,5.857,0,0,1,3.306,1.127,5.371,5.371,0,0,1,3.4-1.487,5.471,5.471,0,0,1,3.478,1.942s2.554-.939,3.947.016a5.253,5.253,0,0,1,1.348,1.41c1.472,0,3.18.641,4.293,3.947a54.023,54.023,0,0,1,2.3,17.609c-7.8-1.191-17.325,3.352-20.82,5.2l-.579-1.222a10.016,10.016,0,0,0-1.942-2.945c-1.255-1.253-8.006-5.467-8.633-9.557a5.548,5.548,0,0,1,3.947-5.874s3.071,1.739,4.857-.11c.908-.941.939-2.961.579-4.669h-.015C345.811,113.1,344.589,112.288,343.21,111.411Z" transform="translate(-337.129 -107.919)" fill="#fff"/></g><g transform="translate(395.563 168.237)"><path d="M373.433,143.554c4.073,15.87,7.754,38.13,3.854,58.448-.172-10.041-.626-22.683-5.045-36.249-6.282-19.3-17.342-26.93-25.832-29.876a51.993,51.993,0,0,0-3.885-8.271s.486-.3,1.346-.753c3.494-1.849,13.018-6.391,20.82-5.2a14.529,14.529,0,0,1,1.881.407A180.981,180.981,0,0,1,373.433,143.554Z" transform="translate(-342.525 -121.457)" fill="#fff"/></g><g transform="translate(355.778 192.214)"><path d="M354.153,192a35.8,35.8,0,0,0-8.585,2.882A24.034,24.034,0,0,0,342.9,188c-2.256,1.253-8.49,1.629-11.7-.941s-4.23-7.833-5-10.934-5.7-7.473-5.452-8.821c.219-1.174,4.152-6.611,5.264-12.7a16.919,16.919,0,0,0,.281-2.351,39.751,39.751,0,0,1,5.045-17.671,15.791,15.791,0,0,0,2.13,8.1c2.32,3.587,7.927,7.927,9.619,10.731a17.768,17.768,0,0,1,2.208,6.517c1.112-2.146,3.149-3.666,5.421-3.354,3.352.455,4.638,3.792,4.841,6,.188,2.13-.219,6.3-5.343,7.3,3.463,7.049,4.278,15.038,3.949,22.12Z" transform="translate(-320.744 -134.583)" fill="#fff"/></g><g transform="translate(358.363 180.579)"><path d="M330.174,139.848a39.751,39.751,0,0,0-5.045,17.671,16.919,16.919,0,0,1-.281,2.351c-3.368-4.809-3.761-13.849-.095-20.021,2.915-4.936,8.57-8.554,15.4-10.355a41.458,41.458,0,0,1,19.207-.3,33.125,33.125,0,0,1,3.885,1.1c8.49,2.946,19.55,10.574,25.832,29.876,4.419,13.566,4.873,26.208,5.045,36.249.11,6.548.093,11.984,1,15.855,2.256,9.822,9.555,18.125,7.551,24.172-1.6,4.778-8.366,8.209-17.03,9.7a58.58,58.58,0,0,1-7.268.753c-11.97.5-27.823,1.253-31.6-8.93-2.523-6.8.641-16.339,3.149-23.671A65.986,65.986,0,0,0,353,197.264c.329-7.082-.486-15.071-3.949-22.12,5.124-1,5.531-5.171,5.343-7.3-.2-2.208-1.489-5.546-4.841-6-2.272-.312-4.309,1.207-5.421,3.354a17.768,17.768,0,0,0-2.208-6.517c-1.691-2.8-7.3-7.144-9.619-10.731A15.791,15.791,0,0,1,330.174,139.848Z" transform="translate(-322.159 -128.213)"/></g><g transform="translate(230.586 279.879)"><path d="M276.456,205.543c-4.6-.25-10.856-.91-13.5-1.081s-3.4-.955-3.463-1.708c-.093-1.363,1.77-1.565,2.068-1.565-1.332-.1-2.4-.157-2.992-.174-2.537-.079-3.556-1.048-3.776-1.66-.312-.829.6-1.567,1.8-1.567-1.222-.124-2.146-.234-2.428-.3-.939-.188-1.942-.753-1.958-1.772,0-1.377,2.382-1.785,4.011-1.723,2.318.079,13.69.281,15.6.455-2.506-.329-12.784-2.241-14.633-2.882-1.739-.6-1.644-2.1-.627-2.789,1.677-1.129,6.8-.25,9.7,0,5.014.438,10.088.345,11.42-.062a14.288,14.288,0,0,0,2.93-1.191c-.345-.5-2.068-.972-3.65-1.394-1.6-.407-3.871-2.179-3.118-3.275s8.523,1.238,10.324,2.02a38.485,38.485,0,0,1,6.8,4.371,12.406,12.406,0,0,0,4.809,1.755l.955.234a41.3,41.3,0,0,0,.047,18.016A10.423,10.423,0,0,0,293,207.313C291.182,206.749,281.046,205.794,276.456,205.543Z" transform="translate(-252.206 -182.576)" fill="#fff"/></g><g transform="translate(274.154 249.63)"><path d="M362.5,213.844c-13.88,10.072-31.489,14-48.359,15.775-19.145,2.02-36.6-4.528-36.6-4.528-.188-.736-.345-1.441-.486-2.146a41.3,41.3,0,0,1-.047-18.016,15.437,15.437,0,0,1,.533-1.832c12.094,3.869,30.893,2.351,41.8-1s37.6-19.3,42.626-22.323c5.045-3.025,20.538-10.872,20.538-10.872a35.8,35.8,0,0,1,8.585-2.882h.016a65.986,65.986,0,0,1-3.071,17.028c-2.508,7.332-5.672,16.872-3.149,23.671,3.776,10.183,19.629,9.431,31.6,8.93a58.58,58.58,0,0,0,7.268-.753c9.571,28.9,10.229,59.719,10.229,59.719a14.232,14.232,0,0,1-1.754,1.77c-4.371,3.79-14.35,8.773-34.167,6.61-23.171-2.506-47.327-24.674-47.327-24.674C361.31,237.341,362.5,213.844,362.5,213.844Z" transform="translate(-276.058 -166.016)" fill="#fff"/></g><g transform="translate(305.514 341.932)"><path d="M389.088,251.953c-4.559,1.629-11.829,2.851-23.342,2.38,8.914,1.129,19.691,2.806,30.532,5.312-4.621,0-7.473,1.551-8.9,19.207-1.27,15.9,1.565,23.295,6.548,23.859-12.987-.267-41.515-1.646-63.933-6.424-23.2-4.95-36.594-13.659-36.768-26.475-.124-9.447,13.018-22.213,20.069-30.093,7.049-7.9,19.426-17.468,23.247-23.171,0,0,24.157,22.168,47.327,24.674,19.817,2.163,29.8-2.82,34.167-6.611,0,0-1.52,17.325-21.744,18.814h-.016C391.844,252.532,389.088,251.953,389.088,251.953Z" transform="translate(-293.227 -216.548)" fill="#fff"/></g><g transform="translate(378.033 377.337)"><path d="M406.276,244.626c-3.525-.219-7.27,7.833-7.849,17.092-.517,8.4.188,17.42,4.714,18.909,0,0-14.255-.126-22.747-1.317l-.015.016c-4.888-5.436-7.113-14.476-7.818-17.17-.877-3.352-1.9-9.7-3.525-14.069a6.942,6.942,0,0,0-5.577-4.464c-10.841-2.506-21.618-4.183-30.532-5.312,11.513.471,18.783-.751,23.342-2.38,0,0,2.756.579,7.19,1.472h.016C373.393,239.378,391.721,242.856,406.276,244.626Z" transform="translate(-332.928 -235.931)" fill="#fff"/></g><g transform="translate(443.387 386.027)"><path d="M368.852,257.785c.579-9.259,4.324-17.311,7.849-17.092a7.558,7.558,0,0,1,4.026,1.723c3.947,3.368,6.563,16.043,7.566,20.319,1.019,4.276,2.9,8.742,5.39,11.341,2.475,2.585,10.339,3.964,10.339,9.635s-9.133,7.644-16.4,5.655a20.787,20.787,0,0,1-14.052-12.673C369.04,275.2,368.335,266.182,368.852,257.785Z" transform="translate(-368.706 -240.689)" fill="#fff"/></g><g transform="translate(399.366 385.029)"><path d="M352.208,283.239c-.25-.016-.5-.016-.751-.031-4.983-.564-7.818-7.958-6.548-23.859,1.425-17.656,4.276-19.207,8.9-19.207a6.942,6.942,0,0,1,5.577,4.464c1.629,4.371,2.649,10.717,3.525,14.069.705,2.694,2.93,11.734,7.818,17.17a14,14,0,0,0,3.07,2.647c7.049,4.419,13,6,13,8.866.016,5.484-8.6,9.7-19.943,8.194-7.425-.986-12.156-7.051-14.631-12.3a.949.949,0,0,1,.2-.015Z" transform="translate(-344.607 -240.142)" fill="#fff"/></g><g transform="translate(72.471 410.58)"><path d="M186.6,256.762a4.541,4.541,0,0,0,2.1,3.807c5.907,3.525,29.343,8.695,25.317,13.128-3.995,4.419-21.775,4.387-34.748,2.93.784-2.537-6.439-5.279-13.628-7.77.6-2.725,1.551-5.546,1.832-8.068.376-3.492.517-6.658.517-6.658,5.186,1.88,11.312,4.919,15.824,3.7A16.933,16.933,0,0,0,186.6,256.762Z" transform="translate(-165.644 -254.13)" fill="#fff"/></g><g transform="translate(36.798 409.012)"><path d="M181.787,269.565c7.19,2.492,14.412,5.233,13.628,7.77a1.678,1.678,0,0,1-.391.674c-6.455,7.127-48.878,2.647-48.909-.674-.062-3.854,2.146-9.933,2.6-13.754.486-4.1.564-10.309.564-10.309,6.313.924,7.487,5.907,13.08,5.438a16.779,16.779,0,0,0,5.045-1.4c-.455,3.149-.846,5.7,2.287,7.568C171.98,266.245,176.868,267.843,181.787,269.565Z" transform="translate(-146.114 -253.272)" fill="#fff"/></g><g transform="translate(0 216.559)"><path d="M258.91,335.055c0,1.348-1.348,8.225-6.705,8.726s-10.245-7.551-14.772-8.052c-3.916-.438-11.922,5.984-18.032,8.835a16.933,16.933,0,0,1-2.787,1.065c-4.512,1.222-10.638-1.817-15.824-3.7a20.358,20.358,0,0,0-5.326-1.332c-3.995-.236-7.6,2.163-11.4,3.792v.015a16.777,16.777,0,0,1-5.045,1.4c-5.593.469-6.768-4.513-13.08-5.438-.329-.046-.659-.077-1.019-.11-7.222-.5-24.329,10.748-29.028,10.919s-9.917-5.372-9.917-5.372c18.471-141.84,33.242-194.868,33.242-194.868,4.419-.469,12.3-1.441,21.4-3.023,18.516,14.021,40.2,20.224,57.337,22.528C246.33,230.563,258.91,335.055,258.91,335.055Z" transform="translate(-125.969 -147.911)" fill="#fff"/></g><g transform="translate(130.277 221.085)"><path d="M210.074,175.549l10.919-12.063,3.9-4.293c2.818.236,5.779.533,7.285.548,2.976.047,4.481-.25,4.448-2.223-.015-1.834-3.524-3.008-6.7-3.9l2.93-3.228c5.372,2.506,65.968,31.725,65.968,31.725-.345,1.5-30.048,51.023-30.048,51.023l-71.483-43.473Z" transform="translate(-197.291 -150.389)" fill="#fff"/></g><g transform="translate(130.277 217.121)"><path d="M236.627,159.312c.033,1.973-1.472,2.27-4.448,2.223-1.505-.015-4.466-.312-7.285-.548-3.259-.3-6.315-.517-6.722-.157-.751.674,2.068,3.6,2.82,4.45l-10.919,12.063c-5.936-3.666-12.783-11.718-12.783-11.718a61.685,61.685,0,0,0,2.537-17.406s7.02,2.115,11.124,3.118c4.119,1.019,14.319,2.82,17.873,3.776.362.1.721.2,1.1.3C233.1,156.3,236.612,157.478,236.627,159.312Z" transform="translate(-197.291 -148.219)" fill="#fff"/></g><g transform="translate(98.005 198.448)"><path d="M187,138a87.493,87.493,0,0,1,2.006,9.823c-2.992-1.129-6.141-2.429-9.385-3.885A23.6,23.6,0,0,0,187,138Z" transform="translate(-179.623 -137.996)" fill="#fff"/></g><g transform="translate(22.361 184.553)"><path d="M158.665,151.821a95.5,95.5,0,0,0,11.827,10.574c-9.1,1.582-16.982,2.554-21.4,3.023-2.051.219-3.352.329-3.7.329-3.852.062-7.99-4.872-7.049-9.228.407-1.88,2.835-9.9,3.759-12.954a57.09,57.09,0,0,0,1.708-13.175A81.569,81.569,0,0,0,158.665,151.821Z" transform="translate(-138.211 -130.389)" fill="#fff"/></g><g transform="translate(39.729 111.222)"><path d="M152.983,90.243s.893,4.6,2.146,9.2l-7.411-1.646C150.068,95.286,152.56,92.247,152.983,90.243Z" transform="translate(-147.719 -90.243)" fill="#fff"/></g><g transform="translate(40.01 128.735)"><path d="M178.423,105.705v.016a22.4,22.4,0,0,1-4.857,2.585c-12.267,4.809-21.963-1.317-25.693-8.475Z" transform="translate(-147.873 -99.831)" fill="#fff"/></g><g transform="translate(53.953 111.222)"><path d="M155.506,100.941a45,45,0,0,0,3.2-8.521s6.391,6.892,9.666,7.895c0,0,.877-3.854-2.351-10.072a40.013,40.013,0,0,1,7.8,1.472c2.773,1.222,5.891,7.8,4.011,14.176h-.016Z" transform="translate(-155.506 -90.243)" fill="#fff"/></g><g transform="translate(98.131 117.754)"><path d="M249,93.819V166.4H190.423c1.081-7.849-3.321-15.431-4.5-17.97-1.222-2.647-3.416-7.221-6.236-13.174,7.049,5.2,20.272,11.075,34.981-2.053,8.163-7.285,13.144-24.548,16.074-39.384Z" transform="translate(-179.692 -93.819)" fill="#fff"/></g><g transform="translate(94.858 117.754)"><path d="M177.9,93.819h27.618c-2.554,7.785-5.891,13.316-7.911,14.209-2.475,1.081-11.672-3.463-19.707-7.911Z" transform="translate(-177.9 -93.819)" fill="#fff"/></g><g transform="translate(21.557 89.231)"><path d="M265.4,106.727c-2.93,14.836-7.911,32.1-16.074,39.384-14.71,13.128-27.933,7.253-34.981,2.053,2.82,5.953,5.014,10.527,6.236,13.174,1.174,2.539,5.577,10.121,4.5,17.97a16.126,16.126,0,0,1-3.478,8.1v.015a23.6,23.6,0,0,1-7.379,5.938c3.244,1.456,6.393,2.756,9.385,3.885A142.732,142.732,0,0,0,249,204.355c.031.6.031,1.16.031,1.739a61.685,61.685,0,0,1-2.537,17.406,47.052,47.052,0,0,1-2.006,5.7,125.171,125.171,0,0,1-16.292-1.143c-17.139-2.3-38.821-8.507-57.337-22.528a95.5,95.5,0,0,1-11.827-10.574,81.569,81.569,0,0,1-14.852-21.432c-9.336-19.943-6.282-37.363-4.293-44.209,2.694-9.226,10.245-15.932,12.6-18.125.627-.6,1.5-1.441,2.475-2.413a11.948,11.948,0,0,0,1.268,8.93c3.73,7.158,13.426,13.285,25.693,8.475a22.4,22.4,0,0,0,4.857-2.585,14.488,14.488,0,0,0,5.7-7.756h.016c1.88-6.375-1.238-12.954-4.011-14.176a45.818,45.818,0,0,1,10.826,4.543c2.177,1.3,6.737,4.042,11.765,6.815,8.035,4.448,17.232,8.992,19.707,7.911,2.02-.893,5.357-6.424,7.911-14.209a72.473,72.473,0,0,0,3.383-17.044,57.937,57.937,0,0,0-.093-10.419s.643-.124,1.739-.3c3.714-.563,12.658-1.565,19.879.393a18.019,18.019,0,0,1,5.374,2.3s-.25,3.116-.862,8.021C267.546,94.194,266.668,100.226,265.4,106.727Z" transform="translate(-137.771 -78.204)" fill="#fff"/></g><g transform="translate(146.775 78.394)"><path d="M210.786,74.315c.329,2.037-.079,6.642-2.13,7.332a1.782,1.782,0,0,1-1.019.062c-.908-.219-1.487-1.27-1.268-3.056.955-1.143,1.3-3.947,1.268-5.936C208.7,71.855,210.426,72.169,210.786,74.315Z" transform="translate(-206.323 -72.271)" fill="#fff"/></g><g transform="translate(143.443 75.177)"><path d="M204.571,75.818A10.5,10.5,0,0,0,205.59,70.9a2.226,2.226,0,0,1,3.445,1.785,7.8,7.8,0,0,1,.11,1.489c.033,1.989-.312,4.793-1.268,5.936a1.212,1.212,0,0,1-.955.517C204.868,80.626,204.273,78.23,204.571,75.818Z" transform="translate(-204.499 -70.51)" fill="#fff"/></g><g transform="translate(139.551 71.19)"><path d="M206.332,77.623a2.031,2.031,0,0,1-1.723,1.158c-2.649,0-2.163-4.026-2.241-5.827a9.05,9.05,0,0,0,.5-2.334,8.615,8.615,0,0,0,0-1.41h.015a2.4,2.4,0,0,1,4.2.924,10.637,10.637,0,0,1,.267,2.57A10.5,10.5,0,0,1,206.332,77.623Z" transform="translate(-202.368 -68.327)" fill="#fff"/></g><g transform="translate(134.57 69.255)"><path d="M204.622,73.829a8.71,8.71,0,0,1-1.441,2.709c-.815.91-3.085,1.817-3.383-.627v-.031l-.016-.784V75.02L199.641,69h.015a2.941,2.941,0,0,1,3.792-1.5,2.56,2.56,0,0,1,1.677,2.585,8.615,8.615,0,0,1,0,1.41A9.05,9.05,0,0,1,204.622,73.829Z" transform="translate(-199.641 -67.268)" fill="#fff"/></g><g transform="translate(128.586 61.717)"><path d="M202.506,79.292v.031l.141,6.393h-5.531l-.124-3.682c1.534-.72,3.116-1.942,2.976-3.195-.079-.831-1.629-1.129-3.133-.972l-.424-11.953-.046-1.52,1.127-.25,4.652-1,.2,9.274.141,6.017v.077A4.354,4.354,0,0,0,202.506,79.292Z" transform="translate(-196.365 -63.141)" fill="#fff"/></g><g transform="translate(122.8 75.817)"><path d="M212.19,76.687a2.031,2.031,0,0,0,1.723-1.158c-.3,2.411.3,4.808,2.351,4.808a1.212,1.212,0,0,0,.955-.517c-.219,1.786.36,2.837,1.268,3.056v.015a2.839,2.839,0,0,1-.705,2.523v.016c-7.221-1.958-16.166-.955-19.879-.393,0,0-4.528-4.872-4.7-7.88s3.478-4.919,4.857-5.372a6.5,6.5,0,0,1,1.394-.3c1.5-.157,3.054.141,3.133.972.141,1.253-1.441,2.475-2.976,3.195l.124,3.682h5.531l-.141-6.393c.3,2.444,2.568,1.536,3.383.627a8.71,8.71,0,0,0,1.441-2.709C210.027,72.661,209.541,76.687,212.19,76.687Z" transform="translate(-193.197 -70.86)" fill="#fff"/></g><g transform="translate(29.663 43.999)"><path d="M177.01,120.664a25.76,25.76,0,0,1-7.316,2.161c-7.582,1.065-12.156-2.161-12.156-2.161a25.932,25.932,0,0,0,.407-5.767c-.345-9.54-4.841-19.755-5.421-20.71-2.27-.062-6.579.188-8.945-2.38a6.088,6.088,0,0,1-.093-7.568c2.239-2.616,6.077-1.253,6.077-1.253a10.617,10.617,0,0,1,3.228-9.1c2.725-2.725,9.118-5.374,13.395-9.65s2.773-10.793,2.773-10.793a34.168,34.168,0,0,1,14.428,11.922c2.882,4.2,7.222,22.276,5.608,31.535-1.017,5.905-5.889,12.549-13.738,13.426a19.865,19.865,0,0,0,.015,5.781A10.563,10.563,0,0,0,177.01,120.664Z" transform="translate(-142.209 -53.441)" fill="#fff"/></g><g transform="translate(7.621 29.249)"><path d="M223.989,89.787c.579,6.141-4.026,8.318-6.548,9.445-.016.016-.047.016-.062.033-2.57,1.158-10.638,5.451-12.33,8.271-1.708,2.835-1.441,7.3-3.587,9.445s-10.9,5.8-16.215,5.8a19.865,19.865,0,0,1-.015-5.781c7.849-.877,12.721-7.52,13.738-13.426,1.615-9.259-2.725-27.337-5.608-31.535a34.168,34.168,0,0,0-14.428-11.922s1.5,6.517-2.773,10.793-10.669,6.925-13.395,9.65a10.617,10.617,0,0,0-3.228,9.1s-3.838-1.363-6.077,1.253a6.088,6.088,0,0,0,.093,7.568c2.365,2.568,6.674,2.318,8.945,2.38.581.955,5.076,11.17,5.421,20.71H167.9c-2.882,3.949-10.386,9.087-15.665,8.461-5.3-.627-4.512-5.624-6.205-7.646-2.27-2.678-14.193-.829-15.7-9.555-1.77-10.167,8.928-15.87,9.76-20.4.893-4.872-1.16-22.511,2.82-31.472,3.478-7.8,12.375-13.707,20.005-15.07,6.72-1.207,14.162-1.05,25.817,8.4,12.392,10.026,14.021,17.077,18,20.648,2.1,1.88,6.72,3.666,10.638,6.189C220.761,83.3,223.643,86.012,223.989,89.787Z" transform="translate(-130.141 -45.366)"/></g><g transform="translate(200.019 6.903)"><path d="M250.5,93.846a3.2,3.2,0,0,1-2.738-1.549c-4.03-6.7-11.3-14.123-11.374-14.2a3.2,3.2,0,1,1,4.557-4.482A112.593,112.593,0,0,1,249.99,84.2c5.259-10.817,18.52-35.9,34.769-50.263a3.2,3.2,0,1,1,4.234,4.789c-19.621,17.344-35.409,52.857-35.566,53.213a3.2,3.2,0,0,1-2.723,1.9C250.637,93.843,250.569,93.846,250.5,93.846Z" transform="translate(-235.472 -33.132)"/></g><g transform="translate(291.579 2.344)"><path d="M305.748,97.146a3.194,3.194,0,0,1-2.26-.935c-1.432-1.43-11.663-11.005-16.876-15.87a3.2,3.2,0,1,1,4.364-4.672c.464.433,8.786,8.2,13.689,12.83,4.559-10.05,16.98-36,32.492-56.588a3.2,3.2,0,0,1,5.105,3.845C323.477,60.7,308.833,94.861,308.689,95.2a3.2,3.2,0,0,1-2.333,1.887A3.277,3.277,0,0,1,305.748,97.146Z" transform="translate(-285.598 -30.636)"/></g></g><g transform="translate(198.288 56.567)"><g transform="translate(39.47 91.561)"><path d="M147.234,94.378" transform="translate(-147.234 -94.378)" fill="none" stroke="#000" stroke-linecap="round" stroke-linejoin="round" stroke-width="1"/></g><g transform="translate(29.389 15.879)"><path d="M157.946,121.994a.846.846,0,0,1-.177-.018.913.913,0,0,1-.72-1.072c1.881-9.557-3.355-22.657-4.676-25.4l-.223,0c-2.411-.029-6.448-.08-8.83-2.674-2.533-2.758-1.677-6.936-.115-8.768a6.115,6.115,0,0,1,5.757-1.836,11.646,11.646,0,0,1,3.595-8.578,31.545,31.545,0,0,1,5.452-3.863A43.574,43.574,0,0,0,165.943,64c3.86-3.86,2.541-9.873,2.526-9.933A.914.914,0,0,1,169.682,53a34.8,34.8,0,0,1,14.865,12.255c3.169,4.618,7.361,22.971,5.756,32.2a17.925,17.925,0,0,1-9.252,12.624c-3.514,1.757-9.371,3.007-17.309-1.03a.914.914,0,0,1,.827-1.629c5.746,2.924,11.164,3.277,15.665,1.027a16.048,16.048,0,0,0,8.269-11.3c1.582-9.1-2.747-26.9-5.462-30.859A34.132,34.132,0,0,0,170.49,55.374c.185,2.367-.022,6.682-3.253,9.913a45.044,45.044,0,0,1-8.264,6.05,31,31,0,0,0-5.124,3.6,9.691,9.691,0,0,0-2.972,8.335.914.914,0,0,1-1.207.986c-.033-.011-3.286-1.116-5.074.985a5.138,5.138,0,0,0,.071,6.347c1.849,2.015,5.253,2.057,7.506,2.084l.784.013a.915.915,0,0,1,.758.442c.8,1.333,7.288,16.144,5.127,27.125A.913.913,0,0,1,157.946,121.994Z" transform="translate(-141.715 -52.945)"/></g><g transform="translate(56.917 58.468)"><path d="M157.778,77.536a8.8,8.8,0,0,0,2.121.707,6.621,6.621,0,0,0,2.212.035,6.428,6.428,0,0,0,2.11-.619,12.941,12.941,0,0,0,1.933-1.2l.051-.037a.879.879,0,0,1,1.085,1.381,9.031,9.031,0,0,1-2.283,1.523,8.32,8.32,0,0,1-2.7.765,7.628,7.628,0,0,1-2.784-.281,6.879,6.879,0,0,1-2.493-1.237A.639.639,0,0,1,157.7,77.5Z" transform="translate(-156.786 -76.261)"/></g><g transform="translate(59.432 36.542)"><path d="M159.532,64.856a16.4,16.4,0,0,0,1.522,4.592,8.109,8.109,0,0,0,3.394,3.1c.714.4,1.465.764,2.239,1.109l1.18.521a7.464,7.464,0,0,1,1.344.709,1.633,1.633,0,0,1,.6,1.291,2.752,2.752,0,0,1-.148.946,4.648,4.648,0,0,1-.774,1.417,6.012,6.012,0,0,1-2.42,1.819.913.913,0,0,1-.725-1.677l.016-.007a4.169,4.169,0,0,0,1.653-1.275,2.82,2.82,0,0,0,.453-.842c.146-.243-.084-.568.183-.188a7.334,7.334,0,0,0-.946-.482l-1.182-.533c-.8-.365-1.6-.756-2.382-1.207a9.6,9.6,0,0,1-4.048-3.865,13.4,13.4,0,0,1-1.322-5.3.687.687,0,0,1,1.359-.177Z" transform="translate(-158.162 -64.257)"/></g><g transform="translate(63.345 33.279)"><ellipse cx="1.479" cy="3.305" rx="1.479" ry="3.305" transform="translate(0 1.228) rotate(-24.519)"/></g><g transform="translate(48.272 38.417)"><ellipse cx="1.479" cy="3.305" rx="1.479" ry="3.305" transform="translate(0 1.228) rotate(-24.519)"/></g><g transform="translate(43.311 34.661)"><path d="M149.381,68.613a9.675,9.675,0,0,1,1.3-2.362,9.014,9.014,0,0,1,1.949-1.971,5.988,5.988,0,0,1,2.747-1.012,5.844,5.844,0,0,1,2.882.466.9.9,0,0,1-.546,1.721l-.132-.037a5.369,5.369,0,0,0-2.033-.3,4.55,4.55,0,0,0-1.925.667,7.343,7.343,0,0,0-1.688,1.463,13.009,13.009,0,0,0-1.346,1.891l-.022.038a.66.66,0,0,1-1.189-.564Z" transform="translate(-149.337 -63.228)"/></g><g transform="translate(59.254 26.076)"><path d="M158.1,62.317a5.712,5.712,0,0,1,1.09-2.079,4.735,4.735,0,0,1,1.969-1.465,4.291,4.291,0,0,1,2.451-.122,7.233,7.233,0,0,1,1.1.349c.332.172.648.362.966.543A.692.692,0,0,1,165.1,60.8l-.086-.031a8.056,8.056,0,0,0-1.7-.477,2.805,2.805,0,0,0-1.5.19,2.912,2.912,0,0,0-1.215.915,6.512,6.512,0,0,0-.844,1.427l-.033.077a.864.864,0,0,1-1.626-.579Z" transform="translate(-158.065 -58.527)"/></g><g transform="translate(7.335 1.126)"><path d="M153.564,131.409a8.634,8.634,0,0,1-1.027-.058c-4.2-.5-5.144-3.511-5.829-5.708a6.959,6.959,0,0,0-.964-2.247c-.566-.67-2.486-1.069-4.342-1.454-4.409-.913-10.45-2.166-11.555-8.547-1.215-7.025,3.2-12.1,6.419-15.8,1.666-1.916,3.105-3.573,3.354-4.919a56.485,56.485,0,0,0,.228-7.842C139.8,77.413,139.729,67.247,142.5,61c3.766-8.479,13.25-14.268,20.674-15.6,7.834-1.408,15.351-.486,26.559,8.592a63.367,63.367,0,0,1,14.337,15.9,24.77,24.77,0,0,0,3.7,4.778,28.6,28.6,0,0,0,5.164,3.1c5.261,2.738,11.809,6.148,12.383,12.355.636,6.886-4.773,9.318-7.082,10.357-2.912,1.312-10.5,5.46-11.99,7.946a14.918,14.918,0,0,0-1.383,4.121c-.475,2.026-.968,4.121-2.344,5.5-2.28,2.28-11.294,6.061-16.863,6.061a.913.913,0,0,1,0-1.827c4.981,0,13.592-3.545,15.572-5.525,1.008-1.008,1.421-2.764,1.858-4.623a16.2,16.2,0,0,1,1.593-4.643c1.973-3.288,11.093-7.9,12.808-8.671,2.28-1.027,6.526-2.935,6.011-8.525-.48-5.213-6.539-8.368-11.407-10.9a28.844,28.844,0,0,1-5.538-3.355,25.812,25.812,0,0,1-4-5.129,61.761,61.761,0,0,0-13.966-15.488C176.725,45.8,169.417,46.132,163.5,47.2c-6.947,1.248-15.817,6.647-19.326,14.545-2.614,5.885-2.546,15.824-2.5,23.079a55.039,55.039,0,0,1-.259,8.183c-.338,1.839-1.929,3.67-3.772,5.789-3.147,3.617-7.064,8.119-5.995,14.288.891,5.157,5.8,6.174,10.125,7.071,2.455.51,4.393.911,5.367,2.064a8.1,8.1,0,0,1,1.312,2.881c.654,2.1,1.273,4.077,4.3,4.439,4.928.585,12.191-4.477,14.834-8.085a.914.914,0,1,1,1.474,1.08C166.2,126.431,159.161,131.409,153.564,131.409Z" transform="translate(-129.641 -44.868)"/></g><g transform="translate(44.707 83.1)"><path d="M160.149,93.978a17.637,17.637,0,0,1-9.661-2.57.913.913,0,0,1,1.048-1.5c.3.2,7.4,4.988,18.569-.082a.913.913,0,1,1,.754,1.662A25.794,25.794,0,0,1,160.149,93.978Z" transform="translate(-150.101 -89.746)"/></g><g transform="translate(62.217 72.756)"><path d="M162.56,96.256a.917.917,0,0,1-.738-.374c-3.023-4.145-1.965-10.757-1.92-11.036a.914.914,0,0,1,1.8.3c-.011.062-.975,6.139,1.593,9.659a.915.915,0,0,1-.738,1.452Z" transform="translate(-159.687 -84.083)"/></g><g transform="translate(64.176 61.09)"><path d="M211.8,155.4c-7.188,0-13.166-3.26-17-6.09a.912.912,0,1,1,1.083-1.469c7.889,5.821,20.162,10.2,33.832-2,14.3-12.761,18.79-57.794,19.289-63.3-7.679-4.614-21.55-2.7-25.036-2.115,1.735,20.051-7.422,39.824-11.825,41.751-1.9.838-7.317.214-32.212-14.724a45.571,45.571,0,0,0-18.325-5.931.913.913,0,1,1,.135-1.821,47.435,47.435,0,0,1,19.033,6.128c24.433,14.66,29.556,15.137,30.636,14.675,3.323-1.454,12.68-20.922,10.66-40.739a.915.915,0,0,1,.731-.988c.747-.148,18.392-3.569,27.662,2.524a.917.917,0,0,1,.409.835c-.166,2.079-4.238,51.05-19.941,65.064C224.1,153.306,217.559,155.4,211.8,155.4Z" transform="translate(-160.76 -77.696)"/></g><g transform="translate(21.246 83.099)"><path d="M244.908,220.574c-25.841,0-62.037-9.073-86.123-34.534-27.461-29.03-21.753-58.249-19.347-66.512,2.654-9.124,9.847-15.771,12.554-18.275l.289-.267c3.573-3.317,7.933-8.063,8.457-10.516a.912.912,0,0,1,1.785.382c-.769,3.609-7.082,9.694-9,11.473l-.292.27c-2.607,2.407-9.529,8.806-12.041,17.444-2.336,8.028-7.873,36.421,18.922,64.744,23.5,24.846,58.771,33.823,84.19,33.962a61.627,61.627,0,0,0,4.221-23.161c-7.549-1.377-69.422-14.107-87.75-63.482a.913.913,0,0,1,1.712-.636c19.055,51.335,86.391,62.337,87.069,62.443a.913.913,0,0,1,.773.869,61.6,61.6,0,0,1-4.587,25.258A.913.913,0,0,1,244.908,220.574Zm0-.913h0Z" transform="translate(-137.257 -89.746)"/></g><g transform="translate(90.702 115.915)"><path d="M183.215,169.882a.914.914,0,0,1-.437-1.717,22.95,22.95,0,0,0,7.029-5.617,1.049,1.049,0,0,1,.071-.1,15.268,15.268,0,0,0,3.286-7.648c.919-6.676-2.331-13.232-3.893-16.381-.21-.424-.389-.787-.528-1.085-.8-1.73-2.013-4.283-3.545-7.509l-2.685-5.659c-1.017-2.128-2.115-4.45-3.275-6.927-1.222-2.583-2.523-5.343-3.871-8.225a.913.913,0,1,1,1.655-.773c1.346,2.881,2.647,5.637,3.869,8.22,1.158,2.475,2.254,4.793,3.271,6.921l2.685,5.659c1.538,3.233,2.755,5.792,3.555,7.527.132.283.305.632.506,1.039,1.642,3.313,5.062,10.207,4.064,17.437a17.053,17.053,0,0,1-3.6,8.454.611.611,0,0,1-.069.1,24.633,24.633,0,0,1-7.659,6.172A.9.9,0,0,1,183.215,169.882Zm7.378-6.852h0Z" transform="translate(-175.282 -107.711)"/></g><g transform="translate(22.079 156.425)"><path d="M145.724,167.075a7.911,7.911,0,0,1-5.834-3.156,8.688,8.688,0,0,1-2.024-7.179c.409-1.891,2.744-9.61,3.741-12.907a56.179,56.179,0,0,0,1.706-13.031.913.913,0,0,1,1.827,0,57.949,57.949,0,0,1-1.748,13.438c-.941,3.116-3.346,11.066-3.741,12.885a6.865,6.865,0,0,0,1.651,5.635,6.34,6.34,0,0,0,4.492,2.486c.227,0,1.222-.068,3.615-.323,3.1-.331,11.374-1.282,21.34-3.016a.913.913,0,0,1,.312,1.8c-10.021,1.743-18.345,2.7-21.459,3.032-1.958.21-3.376.334-3.794.334Z" transform="translate(-137.713 -129.889)"/></g><g transform="translate(44.706 83.1)"><path d="M156.3,109.029a.91.91,0,0,1-.732-.367c-2.652-3.567-5.337-17.247-5.451-17.828a.913.913,0,1,1,1.792-.349c.659,3.388,2.586,12,4.4,15.828,1.5-2.6,4.746-8.56,5.971-13.689a.914.914,0,0,1,1.558-.409c1.507,1.626,5.527,5.639,8.185,7.153a18.251,18.251,0,0,0-2.353-8.286.913.913,0,1,1,1.62-.844c3.348,6.435,2.47,10.525,2.431,10.7a.909.909,0,0,1-.435.586.9.9,0,0,1-.725.082c-2.66-.818-6.886-4.879-8.936-6.967a67.568,67.568,0,0,1-6.554,13.964.921.921,0,0,1-.738.427Z" transform="translate(-150.101 -89.746)"/></g><g transform="translate(128.299 33.59)"><path d="M203.06,87.042h-5.531a.913.913,0,0,1-.911-.882l-.126-3.682a.914.914,0,0,1,.882-.943.886.886,0,0,1,.944.88l.1,2.8h3.712l-.455-20.537-3.956.857.448,12.711a.913.913,0,1,1-1.825.064l-.471-13.475a.913.913,0,0,1,.714-.921l5.787-1.255a.915.915,0,0,1,1.105.873l.5,22.573a.917.917,0,0,1-.913.935Z" transform="translate(-195.865 -62.641)"/></g><g transform="translate(122.521 48.277)"><path d="M198.309,86.1a.909.909,0,0,1-.669-.292c-.486-.522-4.753-5.2-4.932-8.459-.2-3.6,3.88-5.759,5.469-6.289,1.5-.5,3.745-.568,4.906.183a1.712,1.712,0,0,1,.822,1.262c.236,2.3-2.9,4.082-4.937,4.663a.914.914,0,0,1-.5-1.757c1.708-.488,3.714-1.838,3.622-2.72a5.83,5.83,0,0,0-3.334.1c-1.138.38-4.36,2.013-4.223,4.455.122,2.2,3.251,6.031,4.446,7.319a.913.913,0,0,1-.669,1.534Z" transform="translate(-192.701 -70.682)"/></g><g transform="translate(134.292 41.13)"><path d="M201.621,78.808a2.3,2.3,0,0,1-.864-.163c-.736-.3-1.587-1.107-1.476-3.259a.9.9,0,0,1,.959-.866.916.916,0,0,1,.866.961c-.051.963.15,1.394.338,1.47a1.766,1.766,0,0,0,1.456-.608,9,9,0,0,0,1.726-4.5c.161-2.375-.36-2.782-1.114-3.1a2.053,2.053,0,0,0-2.638,1.07.913.913,0,1,1-1.631-.82,3.878,3.878,0,0,1,4.972-1.936c1.774.738,2.42,2.161,2.234,4.906a10.6,10.6,0,0,1-2.174,5.575A3.849,3.849,0,0,1,201.621,78.808Z" transform="translate(-199.146 -66.769)"/></g><g transform="translate(139.264 43.06)"><path d="M205.036,80.11h-.009c-3.169-.011-3.156-3.77-3.149-5.789,0-.338,0-.648-.009-.91a.913.913,0,0,1,.873-.952.9.9,0,0,1,.952.871c.013.287.013.627.011,1-.009,2.563.2,3.953,1.33,3.956.216.038.438-.046.751-.448,1.109-1.434,1.3-5.292.838-7.051a1.354,1.354,0,0,0-1.083-1.105,1.636,1.636,0,0,0-1.5.471.913.913,0,0,1-1.481-1.069,3.4,3.4,0,0,1,3.319-1.2,3.164,3.164,0,0,1,2.512,2.435c.49,1.859.522,6.463-1.158,8.633A2.716,2.716,0,0,1,205.036,80.11Z" transform="translate(-201.868 -67.826)"/></g><g transform="translate(143.156 47.049)"><path d="M207.339,81.956a2.924,2.924,0,0,1-2.254-1,6.243,6.243,0,0,1-1.006-4.841.913.913,0,1,1,1.812.225,4.681,4.681,0,0,0,.564,3.408,1.1,1.1,0,0,0,.884.378c.08,0,.183-.106.237-.17.93-1.1,1.268-4.961.979-6.715a1.59,1.59,0,0,0-.943-1.322,1.085,1.085,0,0,0-1.034.1.913.913,0,1,1-1.143-1.423,2.875,2.875,0,0,1,2.829-.38,3.384,3.384,0,0,1,2.091,2.731c.25,1.512.2,6.32-1.388,8.194A2.1,2.1,0,0,1,207.339,81.956Z" transform="translate(-203.998 -70.009)"/></g><g transform="translate(146.492 50.264)"><path d="M208.428,83.088a2.374,2.374,0,0,1-1.522-.53,3.868,3.868,0,0,1-1.028-3.6.913.913,0,0,1,1.812.225c-.137,1.112.1,1.744.373,1.964a.726.726,0,0,0,.72.057c1.288-.437,1.854-4.245,1.512-6.315a1.476,1.476,0,0,0-.754-1.238.936.936,0,0,0-.911.186.913.913,0,1,1-1.154-1.416,2.767,2.767,0,0,1,2.713-.48,3.231,3.231,0,0,1,1.909,2.65c.342,2.068.042,7.407-2.729,8.342A2.912,2.912,0,0,1,208.428,83.088Z" transform="translate(-205.825 -71.769)"/></g><g transform="translate(147.094 59.712)"><path d="M207.067,81.3a.913.913,0,0,1-.608-1.595,2.085,2.085,0,0,0,.415-1.744.914.914,0,0,1,.8-1.016.9.9,0,0,1,1.016.8,3.745,3.745,0,0,1-1.027,3.337A.91.91,0,0,1,207.067,81.3Z" transform="translate(-206.154 -76.942)"/></g><g transform="translate(132.526 188.994)"><path d="M220.261,166.608a.911.911,0,0,1-.68-.3l-.241-.267c-1.905-2.082-3-3.5-2.943-4.557a1.318,1.318,0,0,1,.433-.922c.65-.575,2.1-.566,9.166.075,2.217.2,4.313.393,5.467.407,1.374.011,2.839-.026,3.3-.488.1-.1.228-.29.223-.811-.018-1.394-4.824-2.7-7.133-3.328-1.887-.511-5.746-1.279-9.478-2.018-3.321-.658-6.457-1.282-8.375-1.75-4.088-1-11.1-3.12-11.173-3.14a.913.913,0,0,1,.528-1.748c.071.02,7.04,2.122,11.08,3.113,1.878.46,5.142,1.107,8.3,1.735,3.761.745,7.652,1.518,9.6,2.048,3.763,1.021,8.444,2.294,8.481,5.065a2.835,2.835,0,0,1-.758,2.126c-.9.893-2.356,1.045-4.616,1.023-1.226-.016-3.355-.21-5.61-.415-2.46-.223-5.995-.546-7.431-.484a18.566,18.566,0,0,0,2.287,2.837l.254.279a.912.912,0,0,1-.679,1.523Z" transform="translate(-198.178 -147.719)"/></g><g transform="translate(129.993 206.395)"><path d="M210.524,170.813a.908.908,0,0,1-.477-.135c-5.991-3.686-12.753-11.594-13.038-11.928a.914.914,0,0,1,1.392-1.184c.068.08,6.859,8.022,12.6,11.555a.913.913,0,0,1-.479,1.691Z" transform="translate(-196.792 -157.245)"/></g><g transform="translate(129.993 192.957)"><path d="M269.188,234.463a.9.9,0,0,1-.475-.133l-71.483-43.473a.912.912,0,0,1-.2-1.392l27.6-30.471a.913.913,0,1,1,1.352,1.227l-26.86,29.65,69.755,42.423c10.91-18.2,26.586-44.536,29.144-49.339-7.031-3.388-56.888-27.421-64.532-31.038l-2.477,2.727a.913.913,0,0,1-1.352-1.227l2.93-3.228a.911.911,0,0,1,1.063-.214c5.315,2.481,65.374,31.436,65.979,31.73a.909.909,0,0,1,.493,1.027c-.351,1.525-23.169,39.643-30.155,51.288a.9.9,0,0,1-.564.418A.871.871,0,0,1,269.188,234.463Z" transform="translate(-196.792 -149.889)"/></g><g transform="translate(105.1 170.313)"><path d="M186.081,149.149a.916.916,0,0,1-.9-.762,80.214,80.214,0,0,0-1.969-9.683.891.891,0,0,1-.047-.292.919.919,0,0,1,.913-.921.908.908,0,0,1,.891.709,89.54,89.54,0,0,1,2.013,9.884.912.912,0,0,1-.749,1.052A1.081,1.081,0,0,1,186.081,149.149Z" transform="translate(-183.164 -137.492)"/></g><g transform="translate(0 191.454)"><path d="M135.976,351.137c-3.056,0-6.178-2.024-8.282-3.745a5.724,5.724,0,0,1-2.02-5.151c18.116-138.435,32.8-191.982,32.943-192.506a.913.913,0,1,1,1.759.49c-.144.524-14.8,53.982-32.892,192.254a3.88,3.88,0,0,0,1.366,3.5c2.7,2.216,5.27,3.376,7.29,3.33,1.779-.064,6.008-2.124,10.483-4.3,6.662-3.242,14.215-6.923,18.641-6.612.391.033.736.068,1.081.115a14.523,14.523,0,0,1,6.943,3.2c1.861,1.366,3.323,2.453,5.935,2.227a15.379,15.379,0,0,0,4.625-1.266.824.824,0,0,1,.137-.073c.882-.376,1.754-.8,2.621-1.215,2.9-1.4,5.893-2.866,9.2-2.649a20.64,20.64,0,0,1,5.584,1.383c.937.342,1.9.718,2.884,1.1,4.413,1.723,8.98,3.5,12.388,2.577a16.163,16.163,0,0,0,2.636-1.008,76.959,76.959,0,0,0,6.892-3.889c4.526-2.751,8.812-5.35,11.634-5.032,2.3.256,4.475,2.06,6.78,3.973,2.563,2.124,5.2,4.314,7.807,4.081,4.923-.46,5.832-7.319,5.842-7.387a2.845,2.845,0,0,0-.005-.7c-.515-4.271-12.689-105.227-20.913-164.218a.914.914,0,0,1,1.81-.254c8.223,59.009,20.4,159.982,20.916,164.252a4.567,4.567,0,0,1,0,1.149c-.387,3.111-2.4,8.5-7.484,8.98-3.337.314-6.293-2.13-9.142-4.493-2.09-1.733-4.064-3.368-5.818-3.564-2.2-.232-6.417,2.309-10.481,4.778a78.675,78.675,0,0,1-7.064,3.978,17.938,17.938,0,0,1-2.934,1.12c-4,1.081-8.844-.811-13.533-2.639-.966-.376-1.918-.747-2.84-1.081a18.94,18.94,0,0,0-5.071-1.279c-2.824-.159-5.48,1.116-8.3,2.471-.846.407-1.693.815-2.552,1.185a.759.759,0,0,1-.146.08,17.328,17.328,0,0,1-5.319,1.461c-3.286.274-5.264-1.173-7.173-2.574a12.793,12.793,0,0,0-6.121-2.866c-.309-.046-.619-.075-.963-.1-3.909-.267-11.564,3.447-17.7,6.433-5.056,2.464-9.051,4.408-11.219,4.488C136.128,351.135,136.051,351.137,135.976,351.137Z" transform="translate(-125.626 -149.066)"/></g><g transform="translate(366.087 164.094)"><path d="M340.921,161.252a.915.915,0,0,1-.913-.877,16.759,16.759,0,0,0-2.073-6.079,31.513,31.513,0,0,0-4.243-4.7,40.867,40.867,0,0,1-5.368-6.006,16.656,16.656,0,0,1-2.276-8.622.913.913,0,0,1,.913-.882h.029a.914.914,0,0,1,.884.943,15,15,0,0,0,1.982,7.568,39.842,39.842,0,0,0,5.122,5.7,32.191,32.191,0,0,1,4.519,5.051,18.584,18.584,0,0,1,2.338,6.956.914.914,0,0,1-.877.948Z" transform="translate(-326.044 -134.087)"/></g><g transform="translate(355.494 164.092)"><path d="M338.254,190.311a11.643,11.643,0,0,1-7.21-2.13c-3.206-2.577-4.362-7.449-5.127-10.673l-.181-.754c-.354-1.459-1.925-3.44-3.184-5.032-1.628-2.055-2.468-3.173-2.281-4.163a10.6,10.6,0,0,1,1.149-2.44c1.551-2.846,4.148-7.61,4.377-12.5a40.551,40.551,0,0,1,5.169-18.08.914.914,0,0,1,1.578.921,38.655,38.655,0,0,0-4.924,17.243c-.248,5.312-2.97,10.306-4.6,13.29a15.627,15.627,0,0,0-.959,1.905,16.256,16.256,0,0,0,1.918,2.689c1.443,1.821,3.08,3.887,3.529,5.736l.181.765c.709,2.981,1.779,7.485,4.5,9.67,2.886,2.322,8.744,1.94,10.691.858a.913.913,0,0,1,.888,1.6A12.475,12.475,0,0,1,338.254,190.311Z" transform="translate(-320.245 -134.086)"/></g><g transform="translate(365.64 205.155)"><path d="M326.84,159.987a7.78,7.78,0,0,0,1.766-.239,8.73,8.73,0,0,0,1.79-.69,13.508,13.508,0,0,0,3.248-2.3l.016-.015a.671.671,0,0,1,.981.908,11.127,11.127,0,0,1-1.533,1.657,12.421,12.421,0,0,1-1.852,1.364,10.637,10.637,0,0,1-2.172.882,6.492,6.492,0,0,1-2.46.25.91.91,0,0,1,.093-1.816Z" transform="translate(-325.8 -156.566)"/></g><g transform="translate(363.836 179.186)"><path d="M324.92,144.61a4.2,4.2,0,0,1,1.808-1.8,4.028,4.028,0,0,1,2.555-.4,5.938,5.938,0,0,1,2.179.977c.29.234.6.453.868.7l.743.8a.612.612,0,0,1-.805.913l-.042-.029a6.761,6.761,0,0,0-3.211-1.567,2.289,2.289,0,0,0-1.416.245,3.829,3.829,0,0,0-1.118,1.01l-.079.106a.884.884,0,0,1-1.483-.953Z" transform="translate(-324.812 -142.35)"/></g><g transform="translate(358.07 152.452)"><path d="M370.04,248.468c-10.118,0-20.621-1.456-23.7-9.78-2.683-7.239.681-17.088,3.138-24.279,2.751-8.05,5.668-25.211-.837-38.452a.914.914,0,1,1,1.64-.806c6.768,13.778,3.767,31.529.926,39.847-2.236,6.541-5.611,16.425-3.156,23.054,3.514,9.489,19.066,8.839,30.411,8.355l.29-.011c12.251-.515,21.684-4.464,23.47-9.825,1.072-3.213-.893-7.383-3.167-12.211a58,58,0,0,1-4.409-11.464c-.828-3.586-.9-8.477-.992-14.142-.164-10.507-.367-23.587-5.031-37.9-7.325-22.482-21.335-28.67-29.036-30.358-13.908-3.049-28.371,1.352-33.637,10.236-3.3,5.564-3.266,14.28.062,19.031a.913.913,0,1,1-1.494,1.048c-3.761-5.367-3.823-14.792-.139-21.01,5.648-9.533,20.948-14.306,35.6-11.089,8.081,1.77,22.774,8.229,30.382,31.577,4.747,14.573,4.952,27.806,5.118,38.437.086,5.56.161,10.362.946,13.758a55.44,55.44,0,0,0,4.282,11.095c2.442,5.184,4.55,9.659,3.248,13.568-2.057,6.172-11.919,10.518-25.125,11.075l-.292.009C375.863,248.347,372.968,248.468,370.04,248.468Z" transform="translate(-321.655 -127.714)"/></g><g transform="translate(380.051 186.038)"><path d="M339.51,161.268a.913.913,0,0,1-.175-1.808c4.431-.869,4.795-4.336,4.619-6.326-.155-1.737-1.189-4.782-4.062-5.177-1.682-.227-3.452.893-4.479,2.873a.913.913,0,1,1-1.62-.842c1.388-2.671,3.872-4.177,6.349-3.841,3.509.484,5.356,3.776,5.631,6.824.146,1.633.137,7.058-6.084,8.28A1.02,1.02,0,0,1,339.51,161.268Z" transform="translate(-333.689 -146.101)"/></g><g transform="translate(382.697 190.54)"><path d="M335.156,151.754a4.071,4.071,0,0,1,.575-1.421,3.94,3.94,0,0,1,1.048-1.127,3.484,3.484,0,0,1,1.434-.581,3.949,3.949,0,0,1,1.445.018.644.644,0,0,1-.06,1.279l-.06.005a2.579,2.579,0,0,0-1.722.623,2.48,2.48,0,0,0-.544.692,4.5,4.5,0,0,0-.318.835l-.02.082a.912.912,0,0,1-1.777-.406Z" transform="translate(-335.138 -148.565)"/></g><g transform="translate(365.732 184.619)"><ellipse cx="1.353" cy="2.864" rx="1.353" ry="2.864"/></g><g transform="translate(395.278 140.107)"><path d="M377.7,203.331a.951.951,0,0,1-.175-.016.918.918,0,0,1-.725-1.07c3.913-20.372.071-42.812-3.841-58.05a187.184,187.184,0,0,0-6.654-20.957,13.145,13.145,0,0,0-1.333-.267c-7.929-1.206-17.934,3.832-20.779,5.389a56.029,56.029,0,0,1,3.483,7.61.912.912,0,1,1-1.708.643,51.907,51.907,0,0,0-3.812-8.121.909.909,0,0,1,.312-1.255c.517-.311,12.826-7.6,22.772-6.072a15.7,15.7,0,0,1,1.991.429.911.911,0,0,1,.6.533,183.65,183.65,0,0,1,6.9,21.612c3.958,15.418,7.842,38.145,3.867,58.85A.913.913,0,0,1,377.7,203.331Z" transform="translate(-342.025 -120.955)"/></g><g transform="translate(377.66 217.508)"><path d="M335.955,172.029a.936.936,0,0,1-.384-.084.92.92,0,0,1-.506-.623,23.383,23.383,0,0,0-2.57-6.638.913.913,0,1,1,1.6-.888,25.147,25.147,0,0,1,2.479,6.019,37.308,37.308,0,0,1,7.792-2.481.93.93,0,0,1,1.07.725.916.916,0,0,1-.723,1.07,35.2,35.2,0,0,0-8.339,2.8A.905.905,0,0,1,335.955,172.029Z" transform="translate(-332.38 -163.329)"/></g><g transform="translate(273.856 224.383)"><path d="M307.107,230.023a94.2,94.2,0,0,1-29.463-4.97.908.908,0,0,1-.563-.63c-3.39-13.389-.11-22.173.031-22.54a.915.915,0,0,1,1.131-.543c11.656,3.724,30.124,2.409,41.245-1.008,10.247-3.153,35.071-17.817,42.436-22.235,5-3,19.959-10.587,20.593-10.907a.913.913,0,1,1,.824,1.629c-.152.079-15.528,7.875-20.478,10.845-9.5,5.7-32.678,19.289-42.836,22.412-11.12,3.423-29.439,4.769-41.466,1.27-.683,2.386-2.327,9.866.174,20.158,2.839.981,18.714,6.1,35.725,4.318,24.294-2.559,41.2-8.881,53.191-19.906a.913.913,0,0,1,1.233,1.346c-12.3,11.3-29.531,17.777-54.232,20.376A72.2,72.2,0,0,1,307.107,230.023Z" transform="translate(-275.551 -167.093)"/></g><g transform="translate(348.538 269.323)"><path d="M373.816,263.2a85.685,85.685,0,0,1-9.232-.526c-23.194-2.523-46.856-24-47.852-24.909a.914.914,0,0,1-.2-1.083c10.361-20.559,11.667-43.882,11.679-44.116a.856.856,0,0,1,.957-.866.912.912,0,0,1,.866.959c-.011.236-1.306,23.461-11.557,44.217,3.6,3.162,25.54,21.724,46.3,23.983,23.549,2.559,32.461-5,34.9-7.809-.113-3.454-1.3-32.291-10.178-59.107a.914.914,0,0,1,1.735-.575c9.506,28.705,10.271,59.677,10.278,59.986a.913.913,0,0,1-.208.6C399.367,256.328,392.135,263.2,373.816,263.2Z" transform="translate(-316.437 -191.696)"/></g><g transform="translate(305.226 313.808)"><path d="M395.314,304.072H395.3c-6.353-.119-39.347-1-65.082-6.486-24.7-5.27-37.316-14.474-37.487-27.355-.113-8.525,9.858-19.351,17.141-27.255,1.131-1.229,2.2-2.389,3.155-3.458,3.176-3.555,7.383-7.409,11.451-11.139,4.972-4.556,9.666-8.861,11.718-11.924a.914.914,0,0,1,1.518,1.017c-2.174,3.244-6.947,7.621-12,12.253-4.037,3.7-8.209,7.524-11.323,11.009-.961,1.076-2.035,2.243-3.173,3.48-7.075,7.677-16.763,18.195-16.659,25.991.157,11.915,12.284,20.526,36.043,25.593,25.573,5.458,58.413,6.329,64.735,6.448a.913.913,0,0,1-.016,1.827Z" transform="translate(-292.725 -216.05)"/></g><g transform="translate(399.077 356.909)"><path d="M352.518,284.577a6.061,6.061,0,0,1-4.486-1.931c-3.345-3.438-4.561-11.162-3.617-22.959,1.375-17.15,4.135-20.042,9.8-20.042a.913.913,0,0,1,0,1.827c-3.494,0-6.51,0-7.984,18.361-1.122,14.01,1.069,19.446,3.107,21.538a4.343,4.343,0,0,0,3.452,1.372.913.913,0,1,1,.1,1.823C352.766,284.573,352.64,284.577,352.518,284.577Z" transform="translate(-344.105 -239.646)"/></g><g transform="translate(356.26 349.553)"><path d="M373.6,244.8a.873.873,0,0,1-.206-.024,339.356,339.356,0,0,0-51.857-7.327.912.912,0,0,1-.866-.957.855.855,0,0,1,.957-.866A341.029,341.029,0,0,1,373.8,243a.914.914,0,0,1-.2,1.8Z" transform="translate(-320.664 -235.619)"/></g><g transform="translate(404.598 356.91)"><path d="M369.309,297.18a35.365,35.365,0,0,1-4.651-.312c-11.365-1.514-17.064-14.666-17.526-19.894a.912.912,0,0,1,.829-.99.955.955,0,0,1,.99.829c.318,3.6,4.915,16.774,15.948,18.241,7,.937,13.449-.329,16.836-3.3a5.351,5.351,0,0,0,2.068-3.989c0-1.328-2.588-2.663-5.862-4.351-2-1.032-4.276-2.2-6.716-3.73-7.138-4.461-10.194-16.191-11.2-20.045l-.082-.323c-.29-1.1-.594-2.519-.926-4.082a76.549,76.549,0,0,0-2.574-9.895,5.978,5.978,0,0,0-4.85-3.872.913.913,0,0,1-.78-1.03.942.942,0,0,1,1.03-.78,7.886,7.886,0,0,1,6.311,5.043A77.811,77.811,0,0,1,360.8,254.85c.327,1.533.623,2.921.9,4l.086.327c.959,3.682,3.876,14.881,10.4,18.958,2.376,1.485,4.612,2.638,6.585,3.655,4.125,2.126,6.848,3.529,6.852,5.969a7.112,7.112,0,0,1-2.691,5.367C379.963,295.737,374.969,297.18,369.309,297.18Z" transform="translate(-347.128 -239.647)"/></g><g transform="translate(233.929 251.791)"><path d="M270.752,195.777a1,1,0,0,1-.1-.005c-2.194-.252-12.953-2.241-14.986-2.939a2.664,2.664,0,0,1-1.951-2.1,2.425,2.425,0,0,1,1.109-2.311c1.522-1.025,4.6-.776,8.474-.342.658.073,1.271.142,1.808.19,5.283.462,10.015.3,11.082-.029.382-.117.727-.234,1.032-.345-.6-.179-1.257-.354-1.726-.477a6.025,6.025,0,0,1-3.8-2.966,1.814,1.814,0,0,1,.179-1.71c1.47-2.112,11.34,1.655,11.435,1.7a37.049,37.049,0,0,1,6.989,4.475,11.352,11.352,0,0,0,4.375,1.584.914.914,0,0,1-.25,1.81,13.01,13.01,0,0,1-5.23-1.942,36.224,36.224,0,0,0-6.607-4.251c-1.909-.826-7.723-2.4-9.181-2.228a4.9,4.9,0,0,0,2.557,1.765c2.479.654,3.7,1.041,4.177,1.764a.907.907,0,0,1,.131.705.918.918,0,0,1-.418.581,14.941,14.941,0,0,1-3.131,1.286c-1.569.477-6.959.522-11.773.1-.55-.049-1.18-.119-1.85-.194-2.457-.276-6.168-.694-7.253.042a.63.63,0,0,0-.318.557c.033.236.307.464.736.612,1.748.6,12.368,2.6,14.6,2.851a.914.914,0,0,1-.1,1.821Z" transform="translate(-253.693 -182.098)"/></g><g transform="translate(230.307 263.169)"><path d="M275.852,195.159l-.055,0c-.084-.005-8.554-.5-10.393-.5-2.007,0-10.037-.831-11-1.025-1.633-.325-2.689-1.37-2.691-2.656a2.058,2.058,0,0,1,.654-1.5c1.195-1.154,3.6-1.154,4.289-1.143.732.027,2.364.062,4.311.108,5.781.132,10.64.25,11.548.374a.912.912,0,0,1-.243,1.808c-.882-.117-7.179-.261-11.345-.356-1.958-.046-3.6-.082-4.333-.108a4.868,4.868,0,0,0-2.955.63c-.1.1-.1.152-.1.186,0,.493.767.778,1.22.869.822.163,8.8.988,10.647.988,1.892,0,10.15.484,10.5.5a.913.913,0,0,1-.053,1.825Z" transform="translate(-251.71 -188.327)"/></g><g transform="translate(232.823 266.968)"><path d="M276.267,196.9a.834.834,0,0,1-.1-.005c-4.908-.522-15.764-1.355-18.356-1.441-2.829-.1-4.24-1.231-4.614-2.26a1.834,1.834,0,0,1,.227-1.7,2.927,2.927,0,0,1,2.433-1.092h.013a.913.913,0,0,1,0,1.827h-.009a1.139,1.139,0,0,0-.948.334c.1.254.837.99,2.963,1.061,2.68.09,13.44.913,18.487,1.452a.913.913,0,0,1-.095,1.821Z" transform="translate(-253.087 -190.407)"/></g><g transform="translate(237.585 270.358)"><path d="M293.888,202.169a.922.922,0,0,1-.586-.212,9.5,9.5,0,0,0-3.452-1.783c-1.642-.51-11.528-1.459-16.334-1.724-2.791-.152-6.242-.46-9.014-.705-1.841-.164-3.447-.307-4.486-.373-3.421-.219-4.234-1.511-4.314-2.554a2.062,2.062,0,0,1,.546-1.595,3.7,3.7,0,0,1,2.42-.961.913.913,0,0,1,0,1.827,1.922,1.922,0,0,0-1.085.38.239.239,0,0,0-.062.21c.02.245.59.74,2.607.869,1.052.066,2.674.21,4.534.376,2.76.245,6.192.55,8.954.7,4.44.243,14.808,1.193,16.774,1.8a11.506,11.506,0,0,1,4.082,2.122.914.914,0,0,1-.585,1.617Z" transform="translate(-255.694 -192.263)"/></g><g transform="translate(385.415 125.912)"><path d="M348.163,133.379a.914.914,0,0,1-.846-.57,9.065,9.065,0,0,0-1.732-2.634c-.236-.236-.78-.658-1.412-1.147-2.6-2.009-6.941-5.372-7.487-8.927a6.487,6.487,0,0,1,4.691-6.9.914.914,0,0,1,.345,1.8,4.649,4.649,0,0,0-3.231,4.83c.437,2.833,4.576,6.039,6.8,7.761a19.764,19.764,0,0,1,1.586,1.3,10.825,10.825,0,0,1,2.133,3.244.91.91,0,0,1-.506,1.185A.9.9,0,0,1,348.163,133.379Z" transform="translate(-336.626 -113.184)"/></g><g transform="translate(382.727 121.802)"><path d="M335.154,110.934" transform="translate(-335.154 -110.934)" fill="none" stroke="#000" stroke-linecap="round" stroke-linejoin="round" stroke-width="1"/></g><g transform="translate(389.426 118.748)"><path d="M342.455,119a7.165,7.165,0,0,1-3.175-.866.913.913,0,0,1,.9-1.587c.027.013,2.473,1.37,3.746.046,1.012-1.048.457-4.6-.418-5.907a.913.913,0,1,1,1.52-1.014c1.164,1.746,2.037,6.3.212,8.191A3.738,3.738,0,0,1,342.455,119Z" transform="translate(-338.822 -109.262)"/></g><g transform="translate(379.924 114.196)"><path d="M344.034,120.312a.922.922,0,0,1-.533-.172c-2.225-1.6-9.495-6.762-9.495-6.762a.911.911,0,0,1-.331-1.056c.06-.166,1.505-4.059,4.406-5.463a.927.927,0,0,1,.864.037c.345.2,8.47,5.018,11.062,6.992a.913.913,0,1,1-1.107,1.452c-2.168-1.649-8.662-5.547-10.435-6.6a8.941,8.941,0,0,0-2.806,3.577c1.785,1.266,7.067,5.021,8.908,6.342a.914.914,0,0,1-.533,1.657Z" transform="translate(-333.62 -106.77)"/></g><g transform="translate(391.503 115.735)"><path d="M352.331,115.7a.913.913,0,0,1-.871-.639c-1.023-3.262-5.069-5.754-6.634-5.617-1.37.133-2.753,1.98-3.169,2.678a.913.913,0,0,1-1.571-.932c.2-.338,2.035-3.317,4.561-3.564,2.636-.289,7.369,3.1,8.558,6.888a.915.915,0,0,1-.6,1.145A.947.947,0,0,1,352.331,115.7Z" transform="translate(-339.958 -107.613)"/></g><g transform="translate(398.673 115.378)"><path d="M354.332,116.117a.915.915,0,0,1-.888-.7c-.9-3.712-3.752-6.176-5.241-6.176a4.5,4.5,0,0,0-2.762,1.224.914.914,0,0,1-1.3-1.29,6.314,6.314,0,0,1,4.057-1.761c2.449,0,5.935,3.111,7.018,7.573a.914.914,0,0,1-.672,1.1A.883.883,0,0,1,354.332,116.117Z" transform="translate(-343.884 -107.417)"/></g><g transform="translate(405.548 116.909)"><path d="M355.373,115.874a.914.914,0,0,1-.9-.754,7.5,7.5,0,0,0-2.47-4.764c-.815-.559-2.583-.117-3.136.08a.914.914,0,0,1-.621-1.719c.309-.11,3.05-1.058,4.789.132,1.553,1.065,2.762,3.29,3.235,5.951a.912.912,0,0,1-.74,1.059A.957.957,0,0,1,355.373,115.874Z" transform="translate(-347.648 -108.255)"/></g><g transform="translate(410.853 118.748)"><path d="M358.058,132.644h-.044a.913.913,0,0,1-.868-.957,52.92,52.92,0,0,0-2.256-17.267c-1-2.952-2.356-3.332-3.425-3.332a.913.913,0,0,1,0-1.827c2.391,0,4.128,1.538,5.155,4.572a54.944,54.944,0,0,1,2.349,17.943A.913.913,0,0,1,358.058,132.644Z" transform="translate(-350.552 -109.262)"/></g><g transform="translate(376.072 89.626)"><path d="M405,167.726H382.537a.913.913,0,0,1,0-1.827H404.09V95.146H333.338v63.192a.913.913,0,1,1-1.827,0v-64.1a.911.911,0,0,1,.913-.913H405a.912.912,0,0,1,.913.913v72.58A.914.914,0,0,1,405,167.726Z" transform="translate(-331.511 -93.319)"/></g><g transform="translate(376.071)"><path d="M405.007,118.664H332.423a.912.912,0,0,1-.913-.913V45.165a.912.912,0,0,1,.913-.913h72.584a.914.914,0,0,1,.913.913v72.586A.914.914,0,0,1,405.007,118.664Zm-71.671-1.827h70.757V46.079H333.337Z" transform="translate(-331.51 -44.252)"/></g><g transform="translate(282.238)"><path d="M353.639,118.664H281.053a.912.912,0,0,1-.913-.913V45.165a.912.912,0,0,1,.913-.913h72.586a.914.914,0,0,1,.913.913v72.586A.914.914,0,0,1,353.639,118.664Zm-71.672-1.827h70.759V46.079H281.967Z" transform="translate(-280.14 -44.252)"/></g><g transform="translate(282.238 89.617)"><path d="M353.639,167.726H281.053a.911.911,0,0,1-.913-.913V94.227a.912.912,0,0,1,.913-.913h72.586a.914.914,0,0,1,.913.913v72.586A.912.912,0,0,1,353.639,167.726ZM281.967,165.9h70.759V95.141H281.967Z" transform="translate(-280.14 -93.314)"/></g><g transform="translate(188.406)"><path d="M302.27,118.664H229.684a.912.912,0,0,1-.913-.913V45.165a.912.912,0,0,1,.913-.913H302.27a.914.914,0,0,1,.913.913v72.586A.914.914,0,0,1,302.27,118.664ZM230.6,116.838h70.759V46.079H230.6Z" transform="translate(-228.771 -44.252)"/></g><g transform="translate(94.572 55.021)"><path d="M209.316,93.762h-31a.914.914,0,0,1-.913-.913V75.287a.913.913,0,1,1,1.827,0V91.935h30.09a.913.913,0,0,1,0,1.827Z" transform="translate(-177.4 -74.374)"/></g><g transform="translate(94.572 0.002)"><path d="M250.894,118.66H235.338a.913.913,0,0,1,0-1.827H249.98V46.08H179.227V82.044a.913.913,0,0,1-1.827,0V45.166a.914.914,0,0,1,.913-.913h72.58a.914.914,0,0,1,.913.913v72.58A.914.914,0,0,1,250.894,118.66Z" transform="translate(-177.4 -44.253)"/></g><g transform="translate(108.576 89.626)"><path d="M244.556,167.726H185.98a.913.913,0,0,1,0-1.827h57.662V95.146H226.29a.913.913,0,1,1,0-1.827h18.266a.912.912,0,0,1,.913.913v72.58A.914.914,0,0,1,244.556,167.726Z" transform="translate(-185.067 -93.319)"/></g><g transform="translate(94.572 89.626)"><path d="M178.313,101.444a.914.914,0,0,1-.913-.913v-6.3a.912.912,0,0,1,.913-.913h27.62a.913.913,0,0,1,0,1.827H179.227v5.385A.912.912,0,0,1,178.313,101.444Z" transform="translate(-177.4 -93.319)"/></g><g transform="translate(401.082 349.209)"><path d="M396.129,245.958a.79.79,0,0,1-.113-.007c-20.856-2.532-49.8-8.654-50.087-8.715a.913.913,0,0,1-.705-1.083.926.926,0,0,1,1.083-.705c.289.064,29.155,6.167,49.932,8.691a.913.913,0,0,1-.11,1.819Z" transform="translate(-345.203 -235.431)"/></g><g transform="translate(425.212 392.59)"><path d="M382.071,262.322h-.009c-.142,0-14.408-.144-22.862-1.326a.913.913,0,0,1-.778-1.032.926.926,0,0,1,1.03-.776c8.337,1.165,22.486,1.306,22.628,1.308a.913.913,0,0,1-.009,1.827Z" transform="translate(-358.413 -259.18)"/></g><g transform="translate(408.277 331.871)"><path d="M350.054,246.57a.914.914,0,0,1-.066-1.825c19.194-1.392,20.853-17.3,20.915-17.972a.931.931,0,0,1,.99-.831.914.914,0,0,1,.829.99c-.016.181-1.825,18.127-22.6,19.636C350.1,246.57,350.076,246.57,350.054,246.57Z" transform="translate(-349.142 -225.939)"/></g><g transform="translate(377.699 343.434)"><path d="M338.14,242.35q-2.3,0-4.861-.1a.915.915,0,0,1-.877-.95.9.9,0,0,1,.952-.877c27.22,1.149,30.079-7.369,30.1-7.454a.913.913,0,1,1,1.774.437C365.131,233.788,362.72,242.35,338.14,242.35Z" transform="translate(-332.402 -232.269)"/></g><g transform="translate(443.098 357.904)"><path d="M373.977,278.018a.878.878,0,0,1-.287-.046c-5.321-1.759-5.838-11.758-5.336-19.839.546-8.759,4.119-17.943,8.611-17.943.068,0,.135,0,.2.007a.914.914,0,0,1,.855.97.878.878,0,0,1-.968.853c-.029,0-.058,0-.089,0-2.639,0-6.223,7.144-6.789,16.229-.643,10.362.846,16.92,4.086,17.992a.912.912,0,0,1-.287,1.779Z" transform="translate(-368.205 -240.191)"/></g><g transform="translate(446.813 357.91)"><path d="M392.058,291.449a22.631,22.631,0,0,1-5.942-.795c-10.423-2.855-15.877-11.992-15.877-19.543a.913.913,0,0,1,1.827,0c0,6.689,5.093,15.2,14.531,17.78,4.946,1.359,10.594.764,13.437-1.4a4.135,4.135,0,0,0,1.81-3.368c0-3.279-3.155-4.919-6.2-6.5a15.358,15.358,0,0,1-3.883-2.5c-2.4-2.5-4.442-6.786-5.615-11.767l-.283-1.227c-1.078-4.7-3.6-15.718-6.99-18.6a6.647,6.647,0,0,0-3.425-1.505h-.011a.913.913,0,0,1,0-1.827h.015a8.3,8.3,0,0,1,4.609,1.94c3.85,3.277,6.375,14.291,7.588,19.587l.279,1.217c1.085,4.6,3.01,8.684,5.157,10.921a14.455,14.455,0,0,0,3.4,2.135c3.2,1.666,7.19,3.741,7.19,8.127a5.946,5.946,0,0,1-2.53,4.82C399,290.576,395.651,291.449,392.058,291.449Z" transform="translate(-370.239 -240.194)"/></g><g transform="translate(36.505 380.888)"><path d="M176.222,283.158c-11.436,0-24.117-1.748-28.318-3.332-1.059-.4-2.278-1-2.292-2.064a37.328,37.328,0,0,1,1.459-8.43,49.534,49.534,0,0,0,1.151-5.452c.471-4,.557-10.141.557-10.2a.925.925,0,0,1,.926-.9.914.914,0,0,1,.9.926c0,.256-.086,6.3-.57,10.393a50.39,50.39,0,0,1-1.191,5.675,37.668,37.668,0,0,0-1.406,7.807c1.308,1.229,11.946,3.271,24.639,3.672,11.913.373,20.4-.908,22.683-3.44.272-.3.232-.468.208-.557-.537-2.091-9.248-5.1-15.011-7.1-4.245-1.469-8.253-2.855-10.315-4.082-3.629-2.163-3.193-5.2-2.731-8.424a.957.957,0,0,1,1.039-.8.889.889,0,0,1,.778,1c-.486,3.381-.621,5.184,1.847,6.653,1.9,1.132,5.825,2.492,9.979,3.927,9.3,3.217,15.455,5.538,16.184,8.368a2.342,2.342,0,0,1-.623,2.236C193.355,282.087,185.17,283.158,176.222,283.158Zm-28.784-5.421h0Z" transform="translate(-145.61 -252.774)"/></g><g transform="translate(85.814 385.084)"><path d="M188.985,277.644a145.422,145.422,0,0,1-15.568-.888.913.913,0,0,1-.806-1.008.925.925,0,0,1,1.01-.807c14.251,1.6,30.493,1.209,33.966-2.634.276-.3.234-.468.212-.557-.532-2.082-9.235-5.094-14.993-7.085-4.251-1.469-8.264-2.859-10.324-4.088a5.453,5.453,0,0,1-2.544-4.6.914.914,0,0,1,.913-.9h.009a.915.915,0,0,1,.9.924,3.635,3.635,0,0,0,1.657,3.016c1.9,1.131,5.823,2.49,9.982,3.927,9.3,3.217,15.444,5.535,16.165,8.36a2.344,2.344,0,0,1-.627,2.234C206.1,276.672,197.647,277.644,188.985,277.644Z" transform="translate(-172.606 -255.071)"/></g><g transform="translate(72.185 382.447)"><path d="M166.059,270.185a1.031,1.031,0,0,1-.2-.02.914.914,0,0,1-.7-1.087c.217-1,.482-2.007.745-3.01a36.058,36.058,0,0,0,1.072-4.965c.369-3.423.511-6.567.513-6.6a.884.884,0,0,1,.953-.869.913.913,0,0,1,.871.952c0,.033-.148,3.233-.522,6.716a38,38,0,0,1-1.12,5.228c-.258.981-.517,1.965-.729,2.937A.912.912,0,0,1,166.059,270.185Z" transform="translate(-165.144 -253.627)"/></g><g transform="translate(38.057 84.558)"><path d="M166.11,118.628a20.408,20.408,0,0,1-13.873-5.473c-4.627-4.313-6.771-10.28-5.336-14.852a.913.913,0,0,1,1.743.548c-1.209,3.852.78,9.186,4.837,12.967,2.616,2.439,9.889,7.643,20.92,3.306,9.031-3.547,10.492-9.818,10.561-13.239.095-4.8-2.287-8.821-4.039-9.592a.913.913,0,0,1,.734-1.671c2.565,1.129,5.237,5.936,5.131,11.3-.079,3.878-1.7,10.967-11.721,14.9A24.355,24.355,0,0,1,166.11,118.628Z" transform="translate(-146.461 -90.544)"/></g><g transform="translate(33.059 49.355)"><path d="M144.027,71.966a4.022,4.022,0,0,1,1.31-.555,4.6,4.6,0,0,1,1.474-.124,3.641,3.641,0,0,1,1.483.548,3.331,3.331,0,0,1,1.089,1.112.893.893,0,0,1-1.4,1.1l-.08-.088a2.306,2.306,0,0,0-1.37-.868,2.874,2.874,0,0,0-.928-.086c-.318.027-.7.088-.992.144l-.106.02a.66.66,0,0,1-.48-1.2Z" transform="translate(-143.724 -71.272)"/></g></g></g></g></svg>