<svg xmlns="http://www.w3.org/2000/svg" xmlns:xlink="http://www.w3.org/1999/xlink" width="512" height="512" viewBox="0 0 512 512"><defs><clipPath id="b"><rect width="512" height="512"/></clipPath></defs><g id="a" clip-path="url(#b)"><rect width="512" height="512" fill="#fff"/><g transform="translate(-11.355 17.507)"><g transform="translate(13.516 18.671)"><g transform="translate(40.832 236.316)"><path d="M70.926,67.533l11.8,7.711C72.973,83.087,59.678,94.07,50.357,102.4L17.845,81.524,47.913,52.5l14.819,9.678Z" transform="translate(-17.845 -52.496)" fill="#dedede"/></g><g transform="translate(0 243.019)"><path d="M170.87,90.208h.046c3.789-3.922,13.726-8.711,17.952-4.312,4.18,4.312,1.828,10.023-3.617,16.779-.961,1.173-3.226,3.7-6.366,7.1-6.8,7.406-17.561,18.959-27.279,29.723-11.9,13.242-22.178,25.272-21.436,26.882,1.61,3.491,36.818-1.914,41.919-1.914s12.9-.265,14.514,4.836-30.9,25.537-42.449,30.9c-11.546,5.405-26.577,5.14-34.639,7.8-8.062,2.7-52.167,33.857-52.167,33.857-37.123-18.389-45.668-52.12-45.668-52.12,17.435-19.475,28.544-35.122,35.645-49.239,4.405-8.671,15.779-21.966,29.5-36.129,2.007-2.047,4.836-4.657,8.194-7.664,9.32-8.327,22.615-19.31,32.373-27.153,6.233-5.008,11.03-8.757,12.467-9.758,3.266-2.352,10.062-7.8,14.289-4.312,3.312,2.789,2.179,9.453-.7,11.983,5.969-4.929,10.327-8.5,10.983-8.85C156.449,57.4,163.2,50.773,168,54.781c4.266,3.577,2.352,8.453-.656,11.288-.172.172-.563.523-1.047,1,4.664-3.922,13.507-7.452,17.3-3.571,3.571,3.617,3.7,10.023-1.57,15.3C180.416,80.4,176.143,84.763,170.87,90.208Z" transform="translate(-11.681 -53.508)" fill="#fff"/></g><g transform="translate(139.926 299.287)"><path d="M143.841,116.732l-26.888,28.981L93.9,130.941,32.85,91.765l-.046-.04C42.522,80.961,53.286,69.408,60.083,62h.046l12.07,7.89L82.486,76.6l4.571,3.007,5.975,3.922,19.694,12.851,11.155,7.326Z" transform="translate(-32.804 -62.002)" fill="#dedede"/></g><g transform="translate(330.62 352.672)"><path d="M89.307,86.7l-5.273,5.492L61.591,96.77l5.8-22.662,3.922-4.047a40.493,40.493,0,0,0,6.664,6.922C81.855,80.17,85.558,83.436,89.307,86.7Z" transform="translate(-61.591 -70.061)" fill="#dedede"/></g><g transform="translate(175.445 176.273)"><g transform="translate(0)"><path d="M239.181,182.788v.086l-7.148,7.234-16.687,17.17c-3.531-1.789-6.187-3.266-7.711-3.968-7.234-3.484-9.373-1.047-9.9,1.921-.391,2.305.484,8.062,5.319,14.6l-3.922,4.047-5.8,22.662,22.443-4.577,5.273-5.492c6.8,5.889,13.593,11.725,21.178,17.13a65.732,65.732,0,0,0,7.976,4.75l4.226,28.63L71.851,296.4l-8.108-61.01L86.8,250.157l26.888-28.981L93.724,208.152l-11.155-7.326L62.875,187.975,56.9,184.053,38.166,43.432l164.979,1.61c-1.047,1.961-2.047,3.875-2.961,5.75-8.718,18.131-19.482,43.621-8.545,45.668,7.936,1.484,21.052-21.96,29.677-35.122l11.374,77.478c-10.327-1.345-15.819.219-17.21.7-1.835.609-8.148,3.226-7.194,7.976.914,4.789,11.334,6.273,17.389,7.843,2.352.609,5.882,1.391,9.85,2.656l.344,2.266a75.428,75.428,0,0,0-19.74,5.14c-6.055,2.53-13.421,8.241-11.983,12.9,1.484,4.624,21.794-2.61,38.043.093l.656.649Z" transform="translate(-38.166 -43.432)" fill="#fff"/></g></g><g transform="translate(341.242 292.832)"><path d="M95.1,61.3a46.838,46.838,0,0,1,5.452-.258h.04a48.29,48.29,0,0,1,13.076,7.141l-11.593,11.9-.656-.649c-16.249-2.7-36.56,4.531-38.043-.093-1.437-4.657,5.929-10.367,11.983-12.9A75.428,75.428,0,0,1,95.1,61.3Z" transform="translate(-63.195 -61.028)" fill="#fff"/></g><g transform="translate(345.467 271.123)"><path d="M126.073,70.228,110.081,86.61a48.289,48.289,0,0,0-13.076-7.141h-.04a60.577,60.577,0,0,0-5.8-2.007c-3.968-1.265-7.5-2.047-9.85-2.656-6.055-1.57-16.475-3.054-17.389-7.843-.954-4.75,5.359-7.366,7.194-7.976,1.391-.484,6.883-2.047,17.21-.7a77.636,77.636,0,0,1,9.5,1.875C107.465,62.6,116.441,65.213,126.073,70.228Z" transform="translate(-63.832 -57.75)" fill="#fff"/></g><g transform="translate(352.626 242.112)"><path d="M93.153,157.042v.046l-5.14,5.359c-8.936-3.835-17.17-8.022-23.1-11.069L81.6,134.208l7.148-7.234v-.086l3.663-3.749L104,111.241l15.991-16.382,40.4-41.488,15.819,16.912-36.341,38Z" transform="translate(-64.913 -53.371)" fill="#dedede"/></g><g transform="translate(334.936 297.021)"><path d="M103.032,115.827l5.14-5.359v-.046L154.887,61.66a208.542,208.542,0,0,1,17.906,16.866c28.591,29.982,62.189,84.149,62.189,84.149-7.936,22.874-38.262,41.528-38.262,41.528-3.007-4.71-17.475-20.482-31.379-26.583-8.015-3.484-34.943-13.639-50.544-21.787a65.736,65.736,0,0,1-7.976-4.75c-7.585-5.405-14.381-11.241-21.178-17.13-3.749-3.266-7.452-6.532-11.334-9.718a40.491,40.491,0,0,1-6.664-6.922c-4.836-6.538-5.71-12.295-5.319-14.6.523-2.968,2.663-5.405,9.9-1.921,1.524.7,4.18,2.179,7.711,3.968C85.861,107.805,94.1,111.992,103.032,115.827Z" transform="translate(-62.243 -61.66)" fill="#fff"/></g><g transform="translate(324.292)"><path d="M99.469,160.8s-8.1-.258-10.632-6.664c-.828-2.054.391-6.671,2.921-11.771,0,0-8.671-3.657-9.976-7.757-.788-2.352.735-7.625,3.57-12.374,0,0-9.062-3.226-8.976-9.195S88.711,85.94,103.7,71.122c17.694-17.561,42.535-25.06,51.425-31.856a130.215,130.215,0,0,0,23.53-22.443s38.044,11.553,51.683,47.629c0,0-17.21,16.607-27.756,32.38-10.592,15.773-14.163,41-20.569,50.683-6.71,10.109-20.092,21.92-27.021,32.552-5.273,8.015-13.639,30.24-18.561,32.2-3.617,1.437-10.155-4.577-9.585-13.726.7-10.327,3.7-24.146,7.711-30.591,0,0-25.278,23.006-36.825,38.958-.868,1.179-1.782,2.57-2.789,4.094-8.625,13.163-21.741,36.606-29.677,35.122-10.937-2.047-.172-27.537,8.545-45.668.914-1.875,1.914-3.789,2.961-5.75C83.915,181.894,93.938,168.473,99.469,160.8Z" transform="translate(-60.636 -16.822)" fill="#fff"/></g><g transform="translate(283.808 353.129)"><circle cx="19.443" cy="19.443" r="19.443" fill="#dedede"/></g></g><g transform="translate(11.355 16.493)"><g transform="translate(125.464 251.29)"><path d="M32.477,122.111a2.176,2.176,0,0,1-1.57-3.69c.391-.4,39.2-40.693,44.913-46.377,4.485-4.478,4.173-9.532,1.543-12.209a4.306,4.306,0,0,0-3.286-1.04c-4.187.093-9.9,3.246-12.4,6.021A2.179,2.179,0,1,1,58.444,61.9c3.219-3.571,9.91-7.333,15.541-7.452a8.266,8.266,0,0,1,6.485,2.338c4.041,4.107,4.856,11.937-1.583,18.356-5.677,5.651-44.449,45.9-44.84,46.3A2.157,2.157,0,0,1,32.477,122.111Z" transform="translate(-30.295 -54.428)"/></g><g transform="translate(92.154 242.985)"><path d="M42.356,117.073a2.176,2.176,0,0,1-1.51-3.743c1.855-1.8,45.582-44.178,48.589-46.98a6.955,6.955,0,0,0,2.451-4.9,4.142,4.142,0,0,0-1.7-3.127c-2.464-2.06-6.181.424-9.466,2.9-.656.5-1.192.894-1.577,1.126-2.491,1.623-44.88,36.924-50.133,42.369a2.181,2.181,0,1,1-3.133-3.034c5.174-5.352,48.45-41.528,51.027-43.071.285-.172.689-.49,1.186-.861,3.107-2.345,9.579-7.24,14.9-2.762a8.457,8.457,0,0,1,3.253,6.346A11.244,11.244,0,0,1,92.4,69.536c-2.968,2.776-48.073,46.483-48.53,46.927A2.179,2.179,0,0,1,42.356,117.073Z" transform="translate(-25.266 -53.174)"/></g><g transform="translate(0 243.837)"><path d="M59.2,245.186a2.138,2.138,0,0,1-.961-.232c-37.606-18.634-46.463-52.12-46.821-53.538a2.17,2.17,0,0,1,.484-1.987c16.839-18.853,28.067-34.347,35.334-48.748,4.1-8.115,14.15-20.463,29.876-36.685,11.162-11.513,49.007-41.8,53.326-44.853l.868-.616c3.809-2.749,10.9-7.87,16.071-3.564a8.556,8.556,0,0,1,2.8,6.8,11.537,11.537,0,0,1-3.65,8.658,2.182,2.182,0,1,1-2.769-3.372,7.441,7.441,0,0,0,2.067-5.313,4.507,4.507,0,0,0-1.239-3.418c-2.584-2.16-7.883,1.683-10.731,3.743l-.9.643c-4.266,3.021-41.7,32.969-52.71,44.323C65.04,122.715,54.971,135.03,51.129,142.648c-7.326,14.521-18.508,30.035-35.162,48.775,1.822,5.757,11.9,33.069,43.051,49.046,6.962-4.9,43.972-30.836,51.623-33.387a76.5,76.5,0,0,1,12.434-2.4c7.154-1.014,15.256-2.166,21.993-5.293,13.9-6.465,40.468-24.358,41.256-28.591-1.02-3.014-7.413-3-11.659-2.988h-.735c-1.325,0-5.273.437-9.857.947-25.888,2.882-32.572,2.822-34.036-.331-1.279-2.782,2.007-7.916,41.985-51.259,6.618-7.181,11.851-12.851,13.388-14.739,6.929-8.545,5.637-11.9,3.743-13.878a4.169,4.169,0,0,0-3.12-1.086h-.02c-3.875,0-9.181,2.789-11.725,5.392a2.176,2.176,0,1,1-3.12-3.034c3.213-3.306,9.638-6.717,14.845-6.717h.033a8.454,8.454,0,0,1,6.247,2.424c6.041,6.28.894,14.216-3.5,19.641-1.623,2-6.889,7.717-13.567,14.951-12.063,13.083-36.295,39.348-40.494,46.244,5.021.735,21.443-1.106,28.856-1.941,5.1-.563,8.784-.974,10.347-.974h.722c5.485,0,13.845-.033,15.865,6.353,2.67,8.459-39.938,31.823-43.608,33.532-7.326,3.4-15.766,4.6-23.218,5.657a74.479,74.479,0,0,0-11.672,2.226c-6.366,2.12-39.375,24.947-51.557,33.565A2.173,2.173,0,0,1,59.2,245.186Z" transform="translate(-11.355 -53.303)"/></g><g transform="translate(139.968 299.321)"><path d="M118.772,149.706a2.18,2.18,0,0,1-1.179-.344L33.49,95.393a2.175,2.175,0,1,1,2.345-3.663l82.579,52.981,23.881-25.762L60.855,65.717a2.195,2.195,0,0,1-1.113-1.895,2.27,2.27,0,0,1,3.392-1.828l83.712,54.717a2.227,2.227,0,0,1,.967,1.563,2.154,2.154,0,0,1-.563,1.742l-26.888,28.995A2.16,2.16,0,0,1,118.772,149.706Z" transform="translate(-32.484 -61.678)"/></g><g transform="translate(40.817 236.294)"><path d="M52.192,106.424a2.212,2.212,0,0,1-1.179-.344l-32.5-20.867a2.185,2.185,0,0,1-.331-3.4L48.271,52.774a2.183,2.183,0,0,1,2.709-.252l34.8,22.761a2.18,2.18,0,1,1-2.385,3.65L50.052,57.12,23.191,83.034l30.18,19.376a2.18,2.18,0,0,1-1.179,4.014Z" transform="translate(-17.516 -52.164)"/></g><g transform="translate(345.238 98.509)"><path d="M75.8,62.763a2.288,2.288,0,0,1-.855-.172c-1.6-.682-9.652-4.306-11.2-9.108-1.51-4.71,3.378-16.514,10.248-21.681a2.181,2.181,0,1,1,2.623,3.484c-5.67,4.259-9.559,14.256-8.724,16.859.7,2.166,5.538,5.068,8.751,6.432a2.181,2.181,0,0,1-.848,4.187Z" transform="translate(-63.471 -31.364)"/></g><g transform="translate(352.239 113.174)"><path d="M77.6,68.708h-.06c-.391-.013-9.592-.358-12.633-8.049-2.007-5.068,4.16-18.416,12.209-26.444A2.18,2.18,0,0,1,80.2,37.3C71.979,45.5,68.07,56.8,68.965,59.063c1.974,4.995,8.638,5.286,8.7,5.293a2.177,2.177,0,0,1-.066,4.352Z" transform="translate(-64.528 -33.578)"/></g><g transform="translate(324.31)"><path d="M67.863,250.2a6.185,6.185,0,0,1-1.159-.106,7.16,7.16,0,0,1-5.273-3.9c-3.279-6.479.609-20.721,12.248-44.833,6.306-13.076,16.786-27.5,23.722-37.056l3.71-5.154a82.671,82.671,0,0,1,12.924-15.1,2.178,2.178,0,1,1,2.928,3.226,78.873,78.873,0,0,0-12.295,14.388l-3.736,5.2c-6.85,9.42-17.19,23.662-23.331,36.387-13.322,27.6-14.03,37.52-12.281,40.971a2.8,2.8,0,0,0,2.186,1.59c5.121.934,16.3-16.654,22.947-27.173,2.689-4.253,5.227-8.274,7.32-11.169,11.54-15.945,36.089-38.361,37.129-39.309a2.178,2.178,0,0,1,3.319,2.756c-3.822,6.194-6.75,19.926-7.379,29.617-.325,5.068,1.908,9.069,4.273,10.778a2.937,2.937,0,0,0,2.332.762c2.312-.921,7.505-11.692,10.612-18.131a137.168,137.168,0,0,1,6.909-13.249c3.65-5.584,9-11.453,14.169-17.137,4.975-5.465,9.678-10.625,12.864-15.421,2.643-3.975,4.929-11.255,7.346-18.959,3.325-10.579,7.088-22.576,13.222-31.711,9.214-13.739,23.125-27.855,27.047-31.73-12.023-29.849-41.694-42.084-48.4-44.515a134.213,134.213,0,0,1-22.94,21.615c-3.233,2.458-8.327,4.948-14.216,7.837-11.42,5.6-25.63,12.56-37.017,23.828-15.262,15.11-26.583,35.539-26.663,40.435-.06,3.584,5.405,6.346,7.519,7.108a2.178,2.178,0,0,1-1.471,4.1C86,125.992,75.9,122.3,76.024,114.856c.119-7.075,13.308-28.955,27.955-43.456,11.9-11.771,27.074-19.211,38.163-24.642,5.69-2.782,10.606-5.193,13.5-7.386A127.808,127.808,0,0,0,178.8,17.3a2.2,2.2,0,0,1,2.325-.715c1.59.49,39.2,12.275,53.081,48.927a2.193,2.193,0,0,1-.523,2.338c-.172.166-17.17,16.654-27.5,32.042-5.776,8.618-9.446,20.29-12.679,30.591-2.63,8.36-4.889,15.574-7.876,20.065-3.372,5.074-8.406,10.6-13.275,15.945-5.054,5.551-10.281,11.294-13.739,16.581a134.961,134.961,0,0,0-6.638,12.758c-5.617,11.665-9.294,18.853-12.924,20.29-1.921.768-4.306.318-6.5-1.285-3.087-2.232-6.525-7.4-6.061-14.58a103.875,103.875,0,0,1,3.968-21.927c-8.347,8.015-21.734,21.43-29.16,31.691-2.014,2.789-4.518,6.75-7.161,10.943C83.383,237.989,75.09,250.2,67.863,250.2Z" transform="translate(-60.312 -16.493)"/></g><g transform="translate(225.124 343.978)"><path d="M47.517,85.552a2.18,2.18,0,0,1-1.722-3.511l9.87-12.778a2.18,2.18,0,0,1,3.451,2.663L49.239,84.7A2.173,2.173,0,0,1,47.517,85.552Z" transform="translate(-45.339 -68.42)"/></g><g transform="translate(207.955 333.632)"><path d="M44.925,85.652a2.172,2.172,0,0,1-1.683-3.557L55.1,67.654a2.179,2.179,0,0,1,3.372,2.762L46.607,84.857A2.173,2.173,0,0,1,44.925,85.652Z" transform="translate(-42.747 -66.858)"/></g><g transform="translate(186.458 320.792)"><path d="M41.68,86.087A2.206,2.206,0,0,1,40.3,85.6a2.184,2.184,0,0,1-.311-3.067L53.71,65.717a2.182,2.182,0,1,1,3.378,2.762L43.369,85.285A2.171,2.171,0,0,1,41.68,86.087Z" transform="translate(-39.502 -64.92)"/></g><g transform="translate(166.886 310.58)"><path d="M38.729,85.158a2.183,2.183,0,0,1-1.649-3.61L52.2,64.126A2.181,2.181,0,1,1,55.5,66.988L40.372,84.41A2.185,2.185,0,0,1,38.729,85.158Z" transform="translate(-36.548 -63.378)"/></g><g transform="translate(75.364 245.951)"><path d="M24.907,68.483a2.183,2.183,0,0,1-1.55-3.71l10.321-10.5a2.178,2.178,0,1,1,3.107,3.054l-10.321,10.5A2.167,2.167,0,0,1,24.907,68.483Z" transform="translate(-22.732 -53.622)"/></g><g transform="translate(380.854 345.775)"><path d="M71.027,73.076a2.154,2.154,0,0,1-2.179-2.153V70.87a2.179,2.179,0,0,1,4.359,0A2.2,2.2,0,0,1,71.027,73.076Z" transform="translate(-68.848 -68.691)"/></g><g transform="translate(358.58 194.115)"><path d="M79.048,127.689a2.179,2.179,0,0,1-2.153-1.868L65.508,48.29a2.187,2.187,0,0,1,1.842-2.478,2.231,2.231,0,0,1,2.478,1.848l11.381,77.531a2.187,2.187,0,0,1-1.842,2.477A2.558,2.558,0,0,1,79.048,127.689Z" transform="translate(-65.486 -45.797)"/></g><g transform="translate(201.004 368.191)"><path d="M52,137.471a2.183,2.183,0,0,1-2.16-1.888L41.717,74.547a2.179,2.179,0,1,1,4.319-.576l7.856,59.043,178.161-9.2-3.869-26.265a2.18,2.18,0,1,1,4.312-.636l4.213,28.637a2.193,2.193,0,0,1-.47,1.7,2.163,2.163,0,0,1-1.577.788L52.111,137.471Z" transform="translate(-41.698 -72.075)"/></g><g transform="translate(175.423 176.258)"><path d="M58.774,188.088a2.182,2.182,0,0,1-2.16-1.888L37.854,45.572a2.21,2.21,0,0,1,.53-1.736A2.021,2.021,0,0,1,40.04,43.1l165.005,1.6a2.191,2.191,0,0,1,2.173,2.193,2.147,2.147,0,0,1-2.153,2.166h-.046L42.511,47.486,60.94,185.623a2.142,2.142,0,0,1-2.166,2.464Z" transform="translate(-37.836 -43.101)"/></g><g transform="translate(372.774 290.811)"><path d="M70.157,67.053A2.175,2.175,0,0,1,68.011,65.2L67.653,62.9a2.178,2.178,0,1,1,4.306-.656l.358,2.3a2.18,2.18,0,0,1-1.822,2.484A1.986,1.986,0,0,1,70.157,67.053Z" transform="translate(-67.628 -60.394)"/></g><g transform="translate(376.435 315.634)"><path d="M70.36,68.526a2.159,2.159,0,0,1-2.179-2.153V66.32a2.179,2.179,0,1,1,4.359,0A2.2,2.2,0,0,1,70.36,68.526Z" transform="translate(-68.181 -64.141)"/></g><g transform="translate(211.848 207.015)"><path d="M132.161,52.1H45.514a2.179,2.179,0,1,1,0-4.359h86.646a2.179,2.179,0,1,1,0,4.359Z" transform="translate(-43.335 -47.744)"/></g><g transform="translate(213.881 226.762)"><path d="M45.822,57.263a2.18,2.18,0,0,1-.053-4.359l97.106-2.179a2.222,2.222,0,0,1,2.232,2.126,2.182,2.182,0,0,1-2.126,2.232L45.875,57.263Z" transform="translate(-43.642 -50.725)"/></g><g transform="translate(221.114 249.332)"><path d="M46.914,62.306a2.18,2.18,0,0,1-.08-4.359l106.8-3.816a2.21,2.21,0,0,1,2.259,2.1,2.182,2.182,0,0,1-2.107,2.252l-106.8,3.822Z" transform="translate(-44.734 -54.132)"/></g><g transform="translate(222.788 278.737)"><path d="M47.163,68.4a2.178,2.178,0,0,1-.113-4.352l105.128-5.458a2.031,2.031,0,0,1,2.292,2.06,2.169,2.169,0,0,1-2.06,2.285L47.275,68.4Z" transform="translate(-44.986 -58.571)"/></g><g transform="translate(250.955 304.938)"><path d="M51.421,70.4a2.177,2.177,0,0,1-.106-4.352l73.331-3.511a2.141,2.141,0,0,1,2.279,2.073,2.168,2.168,0,0,1-2.073,2.272L51.52,70.394Z" transform="translate(-49.239 -62.526)"/></g><g transform="translate(345.448 271.11)"><path d="M111.926,90.656a2.206,2.206,0,0,1-1.378-.49,45.16,45.16,0,0,0-12.493-6.83c-1.941-.729-3.849-1.418-5.657-1.954-3.173-1-6.022-1.7-8.221-2.246l-1.524-.384c-.974-.245-2.054-.5-3.186-.755-6.936-1.59-14.8-3.385-15.826-8.777-1.04-5.233,3.994-8.9,8.625-10.447,1.491-.537,7.353-2.219,18.224-.795a82.072,82.072,0,0,1,9.731,1.9c8.943,2.285,18.522,4.955,28.7,10.261a2.179,2.179,0,0,1-2.007,3.869c-9.777-5.094-19.078-7.684-27.769-9.9A77.491,77.491,0,0,0,89.933,62.3c-10.168-1.331-15.315.258-16.243.6-.3.1-6.432,2.186-5.77,5.5.5,2.61,8.022,4.326,12.52,5.359,1.173.265,2.285.523,3.286.782l1.5.371c2.272.563,5.213,1.292,8.453,2.319,1.868.556,3.869,1.272,5.922,2.047A49.312,49.312,0,0,1,113.3,86.788a2.179,2.179,0,0,1-1.378,3.869Z" transform="translate(-63.503 -57.42)"/></g><g transform="translate(334.937 297.029)"><path d="M198.533,208.217a2.192,2.192,0,0,1-1.835-1c-2.67-4.173-16.872-19.86-30.386-25.762-2.213-.967-5.869-2.438-10.327-4.24-11.546-4.65-28.988-11.679-40.362-17.641a73.053,73.053,0,0,1-8.241-4.882c-7.936-5.677-15.355-12.1-21.31-17.27l-2.193-1.9c-3.007-2.61-6.008-5.22-9.108-7.8a42.119,42.119,0,0,1-7.015-7.28c-5.485-7.36-6.18-13.7-5.723-16.283A6.128,6.128,0,0,1,65.186,99.4c2.365-1.219,5.564-.8,9.824,1.272.821.378,2.027,1.014,3.557,1.808,1.206.629,2.61,1.358,4.193,2.166,6.074,3.14,14.156,7.22,22.953,11.03,14.408,6.286,25.947,9.784,34.3,10.407a2.179,2.179,0,1,1-.325,4.346c-8.837-.656-20.86-4.273-35.712-10.758-8.916-3.862-17.084-7.982-23.2-11.142-1.59-.808-3.014-1.55-4.233-2.186-1.451-.762-2.6-1.358-3.412-1.742-4.074-1.974-5.584-1.524-5.955-1.331a2.133,2.133,0,0,0-.855,1.63c-.232,1.345.166,6.565,4.915,12.931a38.164,38.164,0,0,0,6.306,6.538c3.133,2.6,6.161,5.233,9.195,7.87l2.179,1.895c7.5,6.492,13.8,11.871,21.006,17.031a72.505,72.505,0,0,0,7.731,4.564c11.169,5.849,28.491,12.831,39.951,17.448,4.518,1.815,8.221,3.312,10.453,4.293,12.831,5.6,26.159,19.264,31.035,25.61,6.313-4.213,28.345-19.933,35.294-38.309-4.5-7.154-35.248-55.512-61.354-82.9A193.189,193.189,0,0,0,155.329,65.2a2.177,2.177,0,1,1,2.756-3.372,195.657,195.657,0,0,1,18.1,17.038c28.412,29.8,62.123,83.957,62.461,84.5a2.21,2.21,0,0,1,.212,1.868c-8.1,23.318-37.918,41.886-39.189,42.667A2.211,2.211,0,0,1,198.533,208.217Z" transform="translate(-61.917 -61.332)"/></g><g transform="translate(341.239 292.807)"><path d="M69.673,84.953c-3.5,0-5.776-.749-6.518-3.113-2.014-6.452,7.028-12.964,13.209-15.554,6.823-2.868,17.442-5.81,26.087-5.578A2.177,2.177,0,0,1,104.6,62.92a2.21,2.21,0,0,1-2.213,2.146C94.362,64.888,84.458,67.6,78.046,70.3,71.72,72.956,66.5,77.931,67.314,80.541c.934.517,6.889-.225,11.235-.762,7.433-.921,16.687-2.054,25.086-.656a2.179,2.179,0,0,1-.715,4.3c-7.777-1.3-16.68-.205-23.834.682A84.209,84.209,0,0,1,69.673,84.953Z" transform="translate(-62.868 -60.695)"/></g><g transform="translate(352.615 242.111)"><path d="M89.836,166.484a2.179,2.179,0,0,1-1.57-3.69l4.935-5.127a1.58,1.58,0,0,1,.225-.285L175.052,72.1,162.22,58.375,92.38,130.023a2.613,2.613,0,0,1-.238.3L68.327,154.739A2.181,2.181,0,0,1,65.2,151.7L88.79,127.513a1.67,1.67,0,0,1,.232-.285L160.7,53.7a2.171,2.171,0,0,1,1.557-.662h.026a2.216,2.216,0,0,1,1.57.689l15.792,16.9a2.178,2.178,0,0,1-.013,2.994L96.805,160.151a1.708,1.708,0,0,1-.232.3l-5.167,5.366A2.184,2.184,0,0,1,89.836,166.484Z" transform="translate(-64.585 -53.042)"/></g><g transform="translate(330.597 352.651)"><path d="M63.439,100.811a2.174,2.174,0,0,1-2.107-2.716l5.816-22.668a2.155,2.155,0,0,1,.543-.974L71.6,70.392a2.181,2.181,0,0,1,3.14,3.027l-3.518,3.643L66.413,95.809,84.8,92.073l4.8-5.021a2.176,2.176,0,1,1,3.153,3l-5.26,5.525a2.235,2.235,0,0,1-1.146.629l-22.47,4.564A1.955,1.955,0,0,1,63.439,100.811Z" transform="translate(-61.261 -69.729)"/></g><g transform="translate(294.406 363.727)"><path d="M66.808,93.42a11.01,11.01,0,1,1,11.01-11.01A11.026,11.026,0,0,1,66.808,93.42Zm0-17.66a6.651,6.651,0,1,0,6.651,6.651A6.659,6.659,0,0,0,66.808,75.76Z" transform="translate(-55.798 -71.401)"/></g><g transform="translate(283.794 353.115)"><path d="M75.818,113.043A21.622,21.622,0,1,1,97.44,91.421,21.644,21.644,0,0,1,75.818,113.043Zm0-38.885A17.266,17.266,0,1,0,93.081,91.421,17.288,17.288,0,0,0,75.818,74.158Z" transform="translate(-54.196 -69.799)"/></g></g></g></g></svg>