<svg xmlns="http://www.w3.org/2000/svg" xmlns:xlink="http://www.w3.org/1999/xlink" width="512" height="512" viewBox="0 0 512 512"><defs><clipPath id="b"><rect width="512" height="512"/></clipPath></defs><g id="a" clip-path="url(#b)"><rect width="512" height="512" fill="#fff"/><g transform="translate(0 3)"><g transform="translate(-11.251 -0.234)"><g transform="translate(13.438 19.432)"><g transform="translate(461.794 257.288)"><path d="M99.381,56.511l15.261,25.333L81.481,93.894Z" transform="translate(-81.481 -56.511)" fill="#fff"/></g><g transform="translate(404.4 188.81)"><path d="M131.947,87.8l20.583-41.649,23.485,10.159-27.927,58.318-17.9,37.383h-.044L98.961,217.141l-26.168-9.588,20.891-42.309Z" transform="translate(-72.793 -46.146)" fill="#dedede"/></g><g transform="translate(400.31 350.218)"><path d="M102.433,80.165,72.174,113.854v-.132l4.09-43.145Z" transform="translate(-72.174 -70.577)" fill="#dedede"/></g><g transform="translate(274.043 406.116)"><path d="M55,77.526a17.954,17.954,0,0,1,4.175-5.536v-.046a18.893,18.893,0,0,1,31.712,13.9A18.911,18.911,0,1,1,55,77.526Z" transform="translate(-53.062 -66.929)" fill="#dedede"/></g><g transform="translate(0 383.158)"><path d="M44.965,68.865a19.787,19.787,0,1,1-13.59-5.411A19.822,19.822,0,0,1,44.965,68.865Z" transform="translate(-11.582 -63.454)" fill="#dedede"/></g><g transform="translate(69.798 226.809)"><circle cx="24.585" cy="24.585" r="24.585" fill="#dedede"/></g><g transform="translate(21.244 263.665)"><circle cx="15.305" cy="15.305" r="15.305" fill="#dedede"/></g><g transform="translate(39.627 326.863)"><path d="M58.832,65.755A22.193,22.193,0,1,1,39.745,54.933,22.039,22.039,0,0,1,58.832,65.755Z" transform="translate(-17.58 -54.933)" fill="#fff"/></g><g transform="translate(134.887 430.217)"><g transform="translate(0)"><path d="M50.914,70.577A18.892,18.892,0,1,1,32,89.445,18.871,18.871,0,0,1,50.914,70.577Z" transform="translate(-31.999 -70.577)" fill="#dedede"/></g></g><g transform="translate(109.34 351.446)"><path d="M47.04,58.654A18.911,18.911,0,1,1,28.132,77.569,18.177,18.177,0,0,1,29.8,69.826,18.856,18.856,0,0,1,47.04,58.654Z" transform="translate(-28.132 -58.654)" fill="#dedede"/></g><g transform="translate(179.31 356.989)"><path d="M99.372,89.844a30.306,30.306,0,1,1-30.3-30.351A30.2,30.2,0,0,1,99.372,89.844Z" transform="translate(-38.723 -59.493)" fill="#fff"/></g><g transform="translate(114.968 278.972)"><path d="M78.725,52.916A32.165,32.165,0,1,1,31.97,93.375a31.429,31.429,0,0,1-2.986-13.5A32.158,32.158,0,0,1,78.725,52.916Z" transform="translate(-28.984 -47.684)" fill="#fff"/></g><g transform="translate(111.004)"><path d="M197.533,348.7,106.719,203.035a18.883,18.883,0,1,0-17.858-28.541L28.384,77.469l213.79-59.9L380.933,248.026l-38.266,77.449-113.9,41.3a18.853,18.853,0,0,0-18.432-23.09A18.714,18.714,0,0,0,197.533,348.7Z" transform="translate(-28.384 -17.567)" fill="#fff"/></g><g transform="translate(168.753 227.777)"><g transform="translate(0)"><path d="M55.994,39.935a18.885,18.885,0,0,1,1.718,37.691c-.575.046-1.15.086-1.718.086a18.381,18.381,0,0,1-10.115-2.947,18.9,18.9,0,0,1,10.115-34.83Z" transform="translate(-37.125 -39.935)" fill="#dedede"/></g></g></g><g transform="translate(11.251 17.234)"><g transform="translate(114.962 278.989)"><path d="M63.013,116.069A34.358,34.358,0,1,1,97.374,81.708,34.4,34.4,0,0,1,63.013,116.069Zm0-64.322A29.961,29.961,0,1,0,92.974,81.708,29.992,29.992,0,0,0,63.013,51.747Z" transform="translate(-28.652 -47.354)"/></g><g transform="translate(69.779 226.817)"><path d="M48.6,93.037a26.79,26.79,0,1,1,26.79-26.79A26.82,26.82,0,0,1,48.6,93.037Zm0-49.186a22.393,22.393,0,1,0,22.39,22.4A22.418,22.418,0,0,0,48.6,43.85Z" transform="translate(-21.813 -39.457)"/></g><g transform="translate(168.72 227.788)"><path d="M57.877,81.774A21.085,21.085,0,1,1,78.966,60.686,21.113,21.113,0,0,1,57.877,81.774Zm0-37.777A16.688,16.688,0,1,0,74.566,60.686,16.716,16.716,0,0,0,57.877,44Z" transform="translate(-36.789 -39.604)"/></g><g transform="translate(39.593 326.854)"><path d="M41.642,103.389a24.395,24.395,0,1,1,24.392-24.4A24.424,24.424,0,0,1,41.642,103.389Zm0-44.39a19.995,19.995,0,1,0,20,19.992A20.02,20.02,0,0,0,41.642,59Z" transform="translate(-17.244 -54.599)"/></g><g transform="translate(21.234 263.682)"><path d="M31.966,80.045A17.5,17.5,0,1,1,49.473,62.538,17.519,17.519,0,0,1,31.966,80.045Zm0-30.615A13.111,13.111,0,1,0,45.073,62.538,13.121,13.121,0,0,0,31.966,49.43Z" transform="translate(-14.465 -45.037)"/></g><g transform="translate(0 383.182)"><path d="M33.251,107.118a22,22,0,1,1,21.993-22A22.026,22.026,0,0,1,33.251,107.118Zm0-39.593A17.6,17.6,0,1,0,50.844,85.118,17.618,17.618,0,0,0,33.251,67.525Z" transform="translate(-11.251 -63.125)"/></g><g transform="translate(109.313 351.444)"><path d="M48.9,100.531a21.1,21.1,0,1,1,21.108-21.1A21.123,21.123,0,0,1,48.9,100.531Zm0-37.81A16.7,16.7,0,1,0,65.607,79.429,16.727,16.727,0,0,0,48.9,62.721Z" transform="translate(-27.797 -58.321)"/></g><g transform="translate(134.894 430.201)"><path d="M52.777,112.452a21.1,21.1,0,1,1,21.1-21.108A21.13,21.13,0,0,1,52.777,112.452Zm0-37.81a16.7,16.7,0,1,0,16.708,16.7A16.721,16.721,0,0,0,52.777,74.642Z" transform="translate(-31.669 -70.242)"/></g><g transform="translate(274.049 406.114)"><path d="M73.834,108.806A21.1,21.1,0,1,1,94.942,87.7,21.127,21.127,0,0,1,73.834,108.806Zm0-37.81A16.7,16.7,0,1,0,90.542,87.7,16.731,16.731,0,0,0,73.834,71Z" transform="translate(-52.732 -66.596)"/></g><g transform="translate(179.284 356.98)"><path d="M70.926,124.241A32.541,32.541,0,1,1,103.463,91.7,32.576,32.576,0,0,1,70.926,124.241Zm0-60.682A28.144,28.144,0,1,0,99.07,91.7,28.17,28.17,0,0,0,70.926,63.559Z" transform="translate(-38.388 -59.159)"/></g><g transform="translate(41.711 293.384)"><path d="M32.162,88.791a2.209,2.209,0,0,1-2.074-1.46L17.693,52.481a2.193,2.193,0,0,1,1.335-2.808A2.171,2.171,0,0,1,21.836,51L34.23,85.851A2.2,2.2,0,0,1,32.9,88.659,2.111,2.111,0,0,1,32.162,88.791Z" transform="translate(-17.565 -49.533)"/></g><g transform="translate(33.379 367.438)"><path d="M18.5,86.283a2.2,2.2,0,0,1-1.757-3.528L32.719,61.614a2.2,2.2,0,0,1,3.515,2.649L20.259,85.411A2.2,2.2,0,0,1,18.5,86.283Z" transform="translate(-16.303 -60.742)"/></g><g transform="translate(83.717 352.492)"><path d="M53.384,72.99a2.067,2.067,0,0,1-.766-.139L25.359,62.743a2.2,2.2,0,1,1,1.526-4.123L54.144,68.729a2.2,2.2,0,0,1-.76,4.261Z" transform="translate(-23.923 -58.48)"/></g><g transform="translate(80.859 324.672)"><path d="M25.689,71.685a2.2,2.2,0,0,1-.727-4.274L62.032,54.4a2.2,2.2,0,1,1,1.46,4.149L26.423,71.56A2.2,2.2,0,0,1,25.689,71.685Z" transform="translate(-23.49 -54.269)"/></g><g transform="translate(110.521 269.954)"><path d="M45.132,67.806a2.209,2.209,0,0,1-1.665-.766L28.509,49.611a2.2,2.2,0,0,1,3.343-2.861L46.8,64.179a2.192,2.192,0,0,1-.238,3.1A2.226,2.226,0,0,1,45.132,67.806Z" transform="translate(-27.98 -45.986)"/></g><g transform="translate(164.684 262.629)"><path d="M38.377,70.844a2.191,2.191,0,0,1-1.89-3.316L49.3,45.95A2.2,2.2,0,0,1,53.077,48.2L40.267,69.767A2.178,2.178,0,0,1,38.377,70.844Z" transform="translate(-36.178 -44.878)"/></g><g transform="translate(169.801 333.946)"><path d="M61.406,88.729a2.192,2.192,0,0,1-1.738-.852L37.417,59.224a2.2,2.2,0,1,1,3.468-2.7L63.137,85.181a2.2,2.2,0,0,1-1.731,3.548Z" transform="translate(-36.953 -55.672)"/></g><g transform="translate(166.481 408.67)"><path d="M38.65,97.8a2.222,2.222,0,0,1-1.394-.5,2.2,2.2,0,0,1-.31-3.092l21.59-26.42a2.2,2.2,0,0,1,3.4,2.788L40.348,96.991A2.188,2.188,0,0,1,38.65,97.8Z" transform="translate(-36.45 -66.983)"/></g><g transform="translate(237.649 398.981)"><path d="M87.772,87.633a2.189,2.189,0,0,1-.925-.2L48.5,69.709a2.2,2.2,0,1,1,1.85-3.99L88.69,83.438a2.2,2.2,0,0,1-.918,4.2Z" transform="translate(-47.222 -65.516)"/></g><g transform="translate(404.408 188.795)"><path d="M100.816,221.2a2.328,2.328,0,0,1-.76-.132l-26.149-9.586a2.21,2.21,0,0,1-1.282-1.249,2.188,2.188,0,0,1,.066-1.8L152.427,47.033a2.207,2.207,0,0,1,2.847-1.044l23.46,10.194a2.207,2.207,0,0,1,1.11,2.966L102.8,219.955A2.191,2.191,0,0,1,100.816,221.2ZM77.719,208.2l21.974,8.053,75.2-156.94-19.45-8.45Z" transform="translate(-72.464 -45.811)"/></g><g transform="translate(400.285 350.205)"><path d="M74.037,117.912a2.218,2.218,0,0,1-.885-.185,2.2,2.2,0,0,1-1.3-2.22l4.122-43.28a2.251,2.251,0,0,1,2.4-1.982,2.211,2.211,0,0,1,1.982,2.4l-3.495,36.634,25.819-28.726a2.2,2.2,0,1,1,3.27,2.933L75.675,117.186A2.186,2.186,0,0,1,74.037,117.912Z" transform="translate(-71.839 -70.243)"/></g><g transform="translate(311.363 307.865)"><path d="M60.581,109.573a2.2,2.2,0,0,1-.753-4.261l114-41.344a2.2,2.2,0,0,1,1.5,4.129l-114,41.344A2.12,2.12,0,0,1,60.581,109.573Z" transform="translate(-58.38 -63.834)"/></g><g transform="translate(110.99)"><path d="M382.841,252.137a2.208,2.208,0,0,1-1.889-1.07L243.018,22,33.668,80.662,92.592,175.2a2.2,2.2,0,0,1-3.739,2.326L28.382,80.5a2.193,2.193,0,0,1-.178-1.962,2.17,2.17,0,0,1,1.453-1.321l213.784-59.9a2.192,2.192,0,0,1,2.477.984L384.724,248.8a2.2,2.2,0,0,1-1.883,3.336Z" transform="translate(-28.051 -17.234)"/></g><g transform="translate(461.757 257.289)"><path d="M83.364,97.955a2.216,2.216,0,0,1-2.22-2.2,2.173,2.173,0,0,1,1.665-2.134l30.45-11.073L99.378,59.5a2.2,2.2,0,0,1,3.772-2.266l15.255,25.33a2.2,2.2,0,0,1-1.13,3.2L84.11,97.823A2.044,2.044,0,0,1,83.364,97.955Z" transform="translate(-81.144 -56.179)"/></g><g transform="translate(193.768 55.755)"><path d="M42.785,51.746a2.2,2.2,0,0,1-.581-4.321l79.161-21.676a2.2,2.2,0,0,1,1.163,4.241L43.36,51.666A2.19,2.19,0,0,1,42.785,51.746Z" transform="translate(-40.58 -25.674)"/></g><g transform="translate(199.192 80.59)"><path d="M43.6,52.207a2.2,2.2,0,0,1-.568-4.321l68.319-18.38a2.2,2.2,0,1,1,1.143,4.248L44.167,52.135A2.1,2.1,0,0,1,43.6,52.207Z" transform="translate(-41.401 -29.433)"/></g><g transform="translate(231.703 96.614)"><path d="M48.52,54.636a2.2,2.2,0,0,1-.608-4.314l63.853-18.38a2.2,2.2,0,0,1,1.222,4.228L49.135,54.551A2.5,2.5,0,0,1,48.52,54.636Z" transform="translate(-46.322 -31.858)"/></g><g transform="translate(253.143 113.105)"><path d="M51.77,58.546a2.2,2.2,0,0,1-.647-4.3L115.8,34.452a2.2,2.2,0,0,1,1.288,4.208L52.411,58.447A2.192,2.192,0,0,1,51.77,58.546Z" transform="translate(-49.568 -34.354)"/></g><g transform="translate(249.613 136.076)"><path d="M51.232,64.851a2.2,2.2,0,0,1-.641-4.3l73.855-22.621a2.2,2.2,0,0,1,1.288,4.208L51.879,64.752A2.234,2.234,0,0,1,51.232,64.851Z" transform="translate(-49.033 -37.831)"/></g><g transform="translate(390.119 242.814)"><path d="M93.7,103.032a2.215,2.215,0,0,1-.978-.231l-21.2-10.471a2.2,2.2,0,1,1,1.949-3.944l18.538,9.157c1.288-7.578,5.028-27.959,10.227-42.124a2.2,2.2,0,0,1,4.136,1.52c-6.21,16.913-10.458,43.96-10.5,44.231a2.215,2.215,0,0,1-2.174,1.863Z" transform="translate(-70.301 -53.987)"/></g><g transform="translate(265.135 186.987)"><g transform="translate(0 6.271)"><path d="M60.839,63.225a2.194,2.194,0,0,1-1.9-1.09L51.689,49.8a2.2,2.2,0,1,1,3.786-2.226l7.254,12.341a2.2,2.2,0,0,1-1.889,3.31Z" transform="translate(-51.383 -46.486)"/></g><g transform="translate(12.331)"><path d="M62.7,62.277a2.188,2.188,0,0,1-1.9-1.083L53.552,48.852a2.2,2.2,0,0,1,3.792-2.226L64.6,58.967a2.194,2.194,0,0,1-.786,3.006A2.161,2.161,0,0,1,62.7,62.277Z" transform="translate(-53.249 -45.537)"/></g><g transform="translate(3.632 5.494)"><path d="M54.13,57.713a2.2,2.2,0,0,1-1.11-4.1l11.932-6.944a2.2,2.2,0,0,1,2.22,3.805L55.24,57.409A2.2,2.2,0,0,1,54.13,57.713Z" transform="translate(-51.932 -46.369)"/></g></g><g transform="translate(263.602 275.558)"><g transform="translate(0 6.263)"><path d="M60.607,76.628a2.194,2.194,0,0,1-1.9-1.09L51.457,63.2a2.2,2.2,0,0,1,3.786-2.226L62.5,73.318a2.2,2.2,0,0,1-1.889,3.31Z" transform="translate(-51.151 -59.892)"/></g><g transform="translate(12.331)"><path d="M62.47,75.68a2.194,2.194,0,0,1-1.9-1.09L53.32,62.256a2.2,2.2,0,0,1,3.792-2.226L64.366,72.37a2.194,2.194,0,0,1-.786,3.006A2.161,2.161,0,0,1,62.47,75.68Z" transform="translate(-53.017 -58.944)"/></g><g transform="translate(3.625 5.484)"><path d="M53.9,71.119a2.2,2.2,0,0,1-1.11-4.1l11.932-6.937a2.2,2.2,0,1,1,2.22,3.8L55.007,70.822A2.188,2.188,0,0,1,53.9,71.119Z" transform="translate(-51.699 -59.774)"/></g></g><g transform="translate(317.374 275.219)"><g transform="translate(0 6.26)"><path d="M68.746,76.575a2.188,2.188,0,0,1-1.9-1.083L59.6,63.15a2.2,2.2,0,0,1,3.786-2.226l7.254,12.341a2.2,2.2,0,0,1-1.889,3.31Z" transform="translate(-59.29 -59.84)"/></g><g transform="translate(12.331)"><path d="M70.609,75.631a2.194,2.194,0,0,1-1.9-1.09L61.459,62.2a2.2,2.2,0,1,1,3.792-2.22l7.254,12.335a2.2,2.2,0,0,1-.78,3.006A2.146,2.146,0,0,1,70.609,75.631Z" transform="translate(-61.156 -58.892)"/></g><g transform="translate(3.623 5.485)"><path d="M62.037,71.068a2.2,2.2,0,0,1-1.1-4.1l11.932-6.944a2.2,2.2,0,1,1,2.213,3.805L63.141,70.771A2.131,2.131,0,0,1,62.037,71.068Z" transform="translate(-59.838 -59.723)"/></g></g><g transform="translate(386.438 231.295)"><g transform="translate(0 6.263)"><path d="M79.194,69.933a2.183,2.183,0,0,1-1.89-1.09L70.051,56.5a2.194,2.194,0,1,1,3.786-2.22l7.254,12.335a2.192,2.192,0,0,1-.78,3.006A2.146,2.146,0,0,1,79.194,69.933Z" transform="translate(-69.744 -53.192)"/></g><g transform="translate(12.329)"><path d="M81.066,68.985a2.194,2.194,0,0,1-1.9-1.09L71.916,55.554a2.194,2.194,0,1,1,3.786-2.22l7.254,12.335a2.2,2.2,0,0,1-1.889,3.316Z" transform="translate(-71.61 -52.244)"/></g><g transform="translate(3.627 5.49)"><path d="M72.49,64.419a2.2,2.2,0,0,1-1.11-4.1l11.932-6.95a2.2,2.2,0,0,1,2.22,3.805L73.6,64.115A2.132,2.132,0,0,1,72.49,64.419Z" transform="translate(-70.292 -53.075)"/></g></g><g transform="translate(400.8 205.351)"><g transform="translate(0 6.264)"><path d="M81.368,66.006a2.176,2.176,0,0,1-1.89-1.09L72.225,52.581a2.2,2.2,0,0,1,3.786-2.226L83.264,62.7a2.2,2.2,0,0,1-1.9,3.31Z" transform="translate(-71.917 -49.265)"/></g><g transform="translate(12.329)"><path d="M83.24,65.052a2.187,2.187,0,0,1-1.9-1.083L74.09,51.627A2.2,2.2,0,1,1,77.875,49.4l7.254,12.341a2.2,2.2,0,0,1-1.889,3.31Z" transform="translate(-73.784 -48.317)"/></g><g transform="translate(3.627 5.484)"><path d="M74.664,60.5a2.178,2.178,0,0,1-1.9-1.09,2.2,2.2,0,0,1,.786-3.013l11.932-6.944a2.2,2.2,0,0,1,2.22,3.8L75.774,60.2A2.256,2.256,0,0,1,74.664,60.5Z" transform="translate(-72.466 -49.147)"/></g></g><g transform="translate(388.976 167.891)"><g transform="translate(0 6.268)"><path d="M79.584,60.332a2.2,2.2,0,0,1-1.9-1.083L70.434,46.908a2.2,2.2,0,1,1,3.786-2.226l7.254,12.335a2.2,2.2,0,0,1-.773,3.013A2.237,2.237,0,0,1,79.584,60.332Z" transform="translate(-70.128 -43.596)"/></g><g transform="translate(12.331)"><path d="M81.447,59.388a2.2,2.2,0,0,1-1.9-1.083L72.3,45.964a2.2,2.2,0,1,1,3.792-2.226l7.254,12.335a2.2,2.2,0,0,1-.786,3.013A2.161,2.161,0,0,1,81.447,59.388Z" transform="translate(-71.994 -42.647)"/></g><g transform="translate(3.623 5.496)"><path d="M72.875,54.817a2.2,2.2,0,0,1-1.11-4.1L83.7,43.777a2.2,2.2,0,1,1,2.22,3.8L73.985,54.519A2.188,2.188,0,0,1,72.875,54.817Z" transform="translate(-70.676 -43.479)"/></g></g><g transform="translate(327.168 160.267)"><g transform="translate(0 6.268)"><path d="M70.225,59.178a2.188,2.188,0,0,1-1.9-1.083L61.075,45.754a2.2,2.2,0,0,1,3.792-2.226l7.254,12.341a2.194,2.194,0,0,1-.786,3.006A2.1,2.1,0,0,1,70.225,59.178Z" transform="translate(-60.772 -42.442)"/></g><g transform="translate(12.33)"><path d="M72.089,58.234A2.177,2.177,0,0,1,70.2,57.151L62.946,44.81a2.2,2.2,0,1,1,3.786-2.226l7.254,12.335a2.2,2.2,0,0,1-1.9,3.316Z" transform="translate(-62.638 -41.493)"/></g><g transform="translate(3.622 5.496)"><path d="M63.524,53.663a2.2,2.2,0,0,1-1.1-4.1l11.932-6.944a2.2,2.2,0,1,1,2.207,3.8L64.627,53.365A2.165,2.165,0,0,1,63.524,53.663Z" transform="translate(-61.32 -42.325)"/></g></g><g transform="translate(291.426 227.059)"><path d="M65.139,71.84a9.289,9.289,0,0,1-8.727-5.622,10.8,10.8,0,0,1,1.764-11.9c2-2.213,4.426-3.165,6.349-2.517A2.2,2.2,0,0,1,63.236,56a4.954,4.954,0,0,0-2.55,2.286,6.244,6.244,0,0,0-.277,6.091,4.924,4.924,0,0,0,4.73,3.059h.073c2.015-.02,3.845-1.037,4.235-1.942a2.2,2.2,0,0,1,4.037,1.744c-1.15,2.669-4.532,4.559-8.225,4.6ZM63.1,55.965Z" transform="translate(-55.362 -51.603)"/></g><g transform="translate(352.087 194.637)"><path d="M74.322,66.929a9.279,9.279,0,0,1-8.727-5.622,10.781,10.781,0,0,1,1.764-11.892c2-2.213,4.42-3.165,6.349-2.524a2.21,2.21,0,0,1,1.368,2.795,2.186,2.186,0,0,1-2.656,1.407,4.983,4.983,0,0,0-2.557,2.286,6.267,6.267,0,0,0-.271,6.091,4.912,4.912,0,0,0,4.8,3.065c2.22-.026,3.891-1.143,4.235-1.949a2.2,2.2,0,0,1,4.037,1.751c-1.15,2.662-4.539,4.552-8.225,4.592Z" transform="translate(-64.544 -46.695)"/></g><g transform="translate(339.502 234.06)"><path d="M72.409,72.9a9.287,9.287,0,0,1-8.721-5.622,10.8,10.8,0,0,1,1.764-11.9c2-2.207,4.426-3.165,6.349-2.524a2.2,2.2,0,0,1-1.288,4.208,4.93,4.93,0,0,0-2.55,2.279,6.248,6.248,0,0,0-.277,6.091,4.863,4.863,0,0,0,4.8,3.065c2.015-.02,3.852-1.044,4.248-1.949a2.183,2.183,0,0,1,2.894-1.143A2.21,2.21,0,0,1,80.766,68.3c-1.163,2.669-4.545,4.559-8.238,4.6Z" transform="translate(-62.639 -52.662)"/></g><g transform="translate(282.159 208.451)"><path d="M63.9,64.218a2.2,2.2,0,0,1-1.8-.938L54.359,52.247a2.2,2.2,0,0,1,3.6-2.524L65.7,60.756a2.2,2.2,0,0,1-1.8,3.462Z" transform="translate(-53.959 -48.786)"/></g><g transform="translate(310.4 230.502)"><path d="M83.761,58.11l-.152-.007L60.281,56.518a2.2,2.2,0,0,1,.3-4.387l23.321,1.586a2.2,2.2,0,0,1-.145,4.393Z" transform="translate(-58.234 -52.124)"/></g><g transform="translate(344.709 214.655)"><path d="M65.625,65.414a2.237,2.237,0,0,1-1-.238,2.2,2.2,0,0,1-.958-2.96l5.741-11.291a2.2,2.2,0,0,1,3.918,2L67.581,64.212A2.18,2.18,0,0,1,65.625,65.414Z" transform="translate(-63.427 -49.725)"/></g><g transform="translate(370.007 185.561)"><path d="M69.46,60.547a2.2,2.2,0,0,1-1.381-3.911L81.5,45.807a2.2,2.2,0,0,1,2.762,3.429L70.834,60.064A2.193,2.193,0,0,1,69.46,60.547Z" transform="translate(-67.256 -45.321)"/></g><g transform="translate(372.837 210.653)"><path d="M88.735,55.558c-.086,0-.159-.007-.244-.013L69.648,53.5a2.2,2.2,0,1,1,.469-4.367l18.849,2.041a2.2,2.2,0,0,1-.231,4.387Z" transform="translate(-67.685 -49.119)"/></g><g transform="translate(342.676 180.488)"><path d="M71.209,59.441a2.2,2.2,0,0,1-1.916-1.123L63.406,47.833a2.195,2.195,0,1,1,3.825-2.154l5.893,10.485a2.2,2.2,0,0,1-1.916,3.277Z" transform="translate(-63.12 -44.554)"/></g><g transform="translate(361.054 246.451)"><path d="M86.479,60.127l-.139-.007-18.38-1.176a2.2,2.2,0,0,1-2.055-2.339,2.178,2.178,0,0,1,2.339-2.055l18.373,1.183a2.2,2.2,0,0,1-.139,4.393Z" transform="translate(-65.901 -54.538)"/></g><g transform="translate(335.137 256.587)"><path d="M64.182,75.085a2.171,2.171,0,0,1-1.11-.3,2.193,2.193,0,0,1-.793-3.006l8.476-14.614a2.2,2.2,0,0,1,3.805,2.213L66.085,73.988A2.2,2.2,0,0,1,64.182,75.085Z" transform="translate(-61.978 -56.072)"/></g><g transform="translate(283.187 254.478)"><path d="M56.314,72.633A2.2,2.2,0,0,1,54.378,69.4l6.712-12.487a2.2,2.2,0,1,1,3.871,2.074L58.25,71.47A2.2,2.2,0,0,1,56.314,72.633Z" transform="translate(-54.115 -55.753)"/></g><g transform="translate(299.848 291.931)"><path d="M76.364,84.552H58.837a2.2,2.2,0,1,1,0-4.4h16.6l6.613-6.759a2.187,2.187,0,0,1,1.572-.661H95l9.969-10.617a2.2,2.2,0,0,1,1.605-.694h16.18a2.2,2.2,0,1,1,0,4.4H107.521L97.552,76.439a2.2,2.2,0,0,1-1.605.694h-11.4l-6.607,6.759A2.21,2.21,0,0,1,76.364,84.552Z" transform="translate(-56.637 -61.422)"/></g><g transform="translate(233.602 226.558)"><g transform="translate(0 6.263)"><path d="M60.607,76.628a2.194,2.194,0,0,1-1.9-1.09L51.457,63.2a2.2,2.2,0,0,1,3.786-2.226L62.5,73.318a2.2,2.2,0,0,1-1.889,3.31Z" transform="translate(-51.151 -59.892)"/></g><g transform="translate(12.331)"><path d="M62.47,75.68a2.194,2.194,0,0,1-1.9-1.09L53.32,62.256a2.2,2.2,0,0,1,3.792-2.226L64.366,72.37a2.194,2.194,0,0,1-.786,3.006A2.161,2.161,0,0,1,62.47,75.68Z" transform="translate(-53.017 -58.944)"/></g><g transform="translate(3.625 5.484)"><path d="M53.9,71.119a2.2,2.2,0,0,1-1.11-4.1l11.932-6.937a2.2,2.2,0,1,1,2.22,3.8L55.007,70.822A2.188,2.188,0,0,1,53.9,71.119Z" transform="translate(-51.699 -59.774)"/></g></g><g transform="translate(260.138 236.214) rotate(-7)"><path d="M83.761,58.11l-.152-.007L60.281,56.518a2.2,2.2,0,0,1,.3-4.387l23.321,1.586a2.2,2.2,0,0,1-.145,4.393Z" transform="translate(-58.234 -52.124)"/></g></g></g><line x2="116.2" y2="202" transform="translate(173.3 175.5)" fill="none" stroke="#000" stroke-linecap="round" stroke-width="4.3"/><line x1="43" y2="16" transform="translate(289.5 361.5)" fill="none" stroke="#000" stroke-linecap="round" stroke-width="4.4"/></g></g></svg>