<svg xmlns="http://www.w3.org/2000/svg" xmlns:xlink="http://www.w3.org/1999/xlink" width="512" height="512" viewBox="0 0 512 512"><defs><clipPath id="b"><rect width="512" height="512"/></clipPath></defs><g id="a" clip-path="url(#b)"><rect width="512" height="512" fill="#fff"/><g transform="translate(30.274 -11.393)"><g transform="translate(21.994 14.669)"><path d="M223.324,517.336c-46.131,0-87.435-17.671-119.449-51.1C12.9,371.217,18.674,174.855,19.635,152.781l.928-21.411L37.8,118.645c22.28-16.445,26.5-34.448,26.5-61.92V11.887H382.333V56.725c0,27.472,4.224,45.475,26.51,61.92l17.24,12.725.928,21.411c.955,22.074,6.737,218.436-84.246,313.457C310.759,499.664,269.455,517.336,223.324,517.336Z" transform="translate(-19.219 -11.887)" fill="#fff"/><g transform="translate(44.952 44.838)"><path d="M185.151,434.414c-172.689,0-158.89-317.767-158.89-317.767,40.057-29.561,44.712-66.641,44.712-98H299.322c0,31.358,4.661,68.438,44.719,98C344.041,116.647,357.84,434.414,185.151,434.414Z" transform="translate(-25.998 -18.649)" fill="#dedede"/></g></g><g transform="translate(18.726 11.393)"><path d="M226.1,523.393c-47.046,0-89.166-18.023-121.817-52.112-91.911-96-86.1-293.644-85.141-315.864l.922-21.4a3.279,3.279,0,0,1,1.333-2.493l17.24-12.725c21.279-15.7,25.171-32.286,25.171-59.287V14.669a3.274,3.274,0,0,1,3.276-3.276H385.108a3.274,3.274,0,0,1,3.276,3.276V59.507c0,27,3.892,43.585,25.178,59.287L430.8,131.519a3.279,3.279,0,0,1,1.333,2.493l.935,21.4c.955,22.22,6.764,219.861-85.154,315.864C315.265,505.37,273.145,523.393,226.1,523.393ZM26.541,135.855,25.686,155.7c-.961,21.935-6.717,217.01,83.324,311.05,31.384,32.77,71.873,50.09,117.089,50.09s85.7-17.32,117.082-50.09c90.048-94.04,84.292-289.115,83.331-311.05l-.862-19.846-15.974-11.8c-23.281-17.181-27.843-36.676-27.843-64.552V17.944H70.358V59.507c0,28.553-4.436,47.292-27.837,64.552Z" transform="translate(-18.726 -11.393)"/><g transform="translate(44.891 44.845)"><path d="M187.978,440.466c-35.018,0-65.1-12.884-89.425-38.28-80.407-83.974-73.086-274.819-72.741-282.9a3.293,3.293,0,0,1,1.326-2.493C65.272,88.649,70.531,54.328,70.531,21.425A3.267,3.267,0,0,1,73.8,18.156H302.149a3.273,3.273,0,0,1,3.276,3.269c0,32.9,5.252,67.224,43.393,95.366a3.293,3.293,0,0,1,1.326,2.493c.345,8.083,7.665,198.921-72.741,282.9C253.08,427.582,222.989,440.466,187.978,440.466ZM32.3,121.108c-.544,18.56-3.766,198.49,70.991,276.556,23.042,24.057,51.536,36.251,84.69,36.251s61.648-12.194,84.69-36.258c74.757-78.066,71.534-257.989,70.991-276.549-38.114-28.8-44.387-64.6-44.765-96.407H77.056C76.678,56.509,70.4,92.31,32.3,121.108Z" transform="translate(-25.496 -18.156)"/></g></g></g></g></svg>