<svg xmlns="http://www.w3.org/2000/svg" xmlns:xlink="http://www.w3.org/1999/xlink" width="512" height="512" viewBox="0 0 512 512"><defs><clipPath id="b"><rect width="512" height="512"/></clipPath></defs><g id="a" clip-path="url(#b)"><rect width="512" height="512" fill="#fff"/><g transform="translate(17.745 -11.361)"><g transform="translate(19.818 14.643)"><path d="M264.97,139.413A188.328,188.328,0,0,0,191.9,154.075c-.6-.981-1.2-1.954-1.882-2.9L120.236,54.666a41.449,41.449,0,0,0-8-8.275A19.121,19.121,0,0,0,89.746,15.463L24.929,62.332A19.119,19.119,0,0,0,47.25,93.379a41.378,41.378,0,0,0,5.353,10.19L122.4,200.082c.57.8,1.2,1.53,1.822,2.266a188.21,188.21,0,0,0-48.187,126.01C76.031,432.7,160.619,517.3,264.97,517.3S453.908,432.7,453.908,328.358,369.321,139.413,264.97,139.413Z" transform="translate(-17.031 -11.857)" fill="#fff"/><g transform="translate(87.099 257.441)"><path d="M312.15,84.185c18.863-8.335,40.415,5.38,40.475,26v.464c0,88.443-72.781,161.224-161.224,161.224S30.177,199.091,30.177,110.647A161.235,161.235,0,0,1,32.668,82.41a28.851,28.851,0,0,1,17.2-21.639c23.7-9.859,74.755-22.6,129.66,17.22C226.118,111.78,278.744,98.927,312.15,84.185Z" transform="translate(-30.177 -50.713)" fill="#dedede"/></g><g transform="translate(198.858 328.885)"><circle cx="13.683" cy="13.683" r="13.683" fill="#fff"/></g></g><g transform="translate(16.535 11.361)"><path d="M267.757,523.361c-105.994,0-192.218-86.23-192.218-192.218a191.823,191.823,0,0,1,47.18-126.1c-.066-.086-.126-.172-.186-.258L52.741,108.276a44.451,44.451,0,0,1-4.307-7.394A22.393,22.393,0,0,1,25.8,62.461l64.81-46.869a22.4,22.4,0,0,1,29.4,33.538,44.529,44.529,0,0,1,5.671,6.4l69.786,96.52c.172.239.345.49.517.735a191.126,191.126,0,0,1,71.774-13.86c105.994,0,192.218,86.224,192.218,192.218S373.751,523.361,267.757,523.361ZM50.037,92.892a3.264,3.264,0,0,1,3.074,2.16,38.024,38.024,0,0,0,4.936,9.382l69.786,96.52c.457.623.954,1.212,1.451,1.8a3.663,3.663,0,0,1,.159,4.565A185.321,185.321,0,0,0,82.091,331.143c0,102.377,83.289,185.665,185.665,185.665S453.422,433.52,453.422,331.143,370.133,145.478,267.757,145.478a184.485,184.485,0,0,0-71.8,14.4,3.274,3.274,0,0,1-4.075-1.332c-.543-.9-1.1-1.8-1.723-2.663L120.373,59.374a38.346,38.346,0,0,0-7.368-7.626,3.262,3.262,0,0,1,.086-5.214,15.827,15.827,0,0,0-6.844-28.417,15.721,15.721,0,0,0-11.8,2.783L29.638,67.768A15.844,15.844,0,0,0,48.129,93.5,3.254,3.254,0,0,1,50.037,92.892Z" transform="translate(-16.535 -11.361)"/><g transform="translate(87.102 257.362)"><path d="M194.186,278c-90.7,0-164.5-73.8-164.5-164.5a165.548,165.548,0,0,1,2.544-28.814A31.976,31.976,0,0,1,51.394,60.6c25.773-10.727,77.3-22.705,132.847,17.6,44.583,32.339,94.976,21.016,129.369,5.844a32.134,32.134,0,0,1,30.563,2.491,31.672,31.672,0,0,1,14.51,26.5C358.682,204.2,284.888,278,194.186,278Zm-91.5-221.218a127.78,127.78,0,0,0-48.777,9.865A25.428,25.428,0,0,0,38.679,85.839,158.136,158.136,0,0,0,36.235,113.5c0,87.1,70.853,157.951,157.951,157.951S352.13,200.6,352.13,113.5A25.314,25.314,0,0,0,340.6,92.034a25.589,25.589,0,0,0-24.342-2h0c-35.976,15.881-88.755,27.635-135.875-6.539C152.372,63.18,125.453,56.786,102.688,56.786ZM314.935,87.038h0Z" transform="translate(-29.682 -50.206)"/></g></g></g></g></svg>