<svg xmlns="http://www.w3.org/2000/svg" xmlns:xlink="http://www.w3.org/1999/xlink" width="512" height="512" viewBox="0 0 512 512"><defs><clipPath id="b"><rect width="512" height="512"/></clipPath></defs><g id="a" clip-path="url(#b)"><rect width="512" height="512" fill="#fff"/><g transform="translate(-11.363 -12.285)"><g transform="translate(13.976 13.893)"><g transform="translate(231.53 136.514)"><path d="M115.513,270.652H253.136l68.812-119.185L253.136,32.282H115.513L46.7,151.467Z" transform="translate(-46.701 -32.282)" fill="#fff"/></g><g transform="translate(246.602 149.567)"><path d="M110.251,246.517H232.8l61.275-106.132L232.8,34.252H110.251L48.976,140.384Z" transform="translate(-48.976 -34.252)" fill="#dedede"/></g><g transform="translate(0 269.442)"><path d="M80.569,290.715H218.192L287,171.53,218.192,52.345H80.569L11.757,171.53Z" transform="translate(-11.757 -52.345)" fill="#fff"/></g><g transform="translate(15.072 282.495)"><path d="M75.307,266.579H197.858l61.275-106.132L197.858,54.315H75.307L14.032,160.447Z" transform="translate(-14.032 -54.315)" fill="#dedede"/></g><path d="M80.569,250.049H218.192L287,130.864,218.192,11.679H80.569L11.757,130.864Z" transform="translate(-11.757 -11.679)" fill="#fff"/><g transform="translate(15.072 13.053)"><path d="M75.307,225.913H197.858l61.275-106.132L197.858,13.649H75.307L14.032,119.781Z" transform="translate(-14.032 -13.649)" fill="#dedede"/></g></g><g transform="translate(11.363 11.285)"><g transform="translate(231.53 136.51)"><path d="M255.357,275.483H117.734a2.616,2.616,0,0,1-2.259-1.305L46.66,154.987a2.591,2.591,0,0,1,0-2.611L115.474,33.193a2.6,2.6,0,0,1,2.259-1.305H255.357a2.6,2.6,0,0,1,2.259,1.305l68.808,119.184a2.591,2.591,0,0,1,0,2.611l-68.808,119.19A2.616,2.616,0,0,1,255.357,275.483Zm-136.112-5.221h134.6l67.3-116.58-67.3-116.573h-134.6L51.934,153.682Z" transform="translate(-46.307 -31.888)"/></g><g transform="translate(0 269.442)"><path d="M220.406,295.539H82.79a2.6,2.6,0,0,1-2.259-1.305L11.716,175.05a2.591,2.591,0,0,1,0-2.611L80.53,53.256a2.6,2.6,0,0,1,2.259-1.305H220.406a2.6,2.6,0,0,1,2.259,1.305L291.48,172.44a2.591,2.591,0,0,1,0,2.611L222.666,294.234A2.6,2.6,0,0,1,220.406,295.539ZM84.3,290.318H218.9l67.311-116.573L218.9,57.172H84.3L16.99,173.745Z" transform="translate(-11.363 -51.951)"/></g><path d="M220.406,254.873H82.79a2.6,2.6,0,0,1-2.259-1.305L11.716,134.384a2.591,2.591,0,0,1,0-2.611L80.53,12.59a2.6,2.6,0,0,1,2.259-1.305H220.406a2.6,2.6,0,0,1,2.259,1.305L291.48,131.774a2.591,2.591,0,0,1,0,2.611L222.666,253.568A2.6,2.6,0,0,1,220.406,254.873ZM84.3,249.652H218.9l67.311-116.573L218.9,16.506H84.3L16.99,133.079Z" transform="translate(-11.363 -11.285)"/></g></g></g></svg>