<svg width="18" height="18" viewBox="0 0 18 18" fill="none" xmlns="http://www.w3.org/2000/svg">
<path d="M5.25 8.25H0.75V9.75H5.25V8.25ZM6.8775 5.82L5.2875 4.23L4.23 5.2875L5.82 6.8775L6.8775 5.82ZM9.75 0.75H8.25V5.25H9.75V0.75ZM13.77 5.2875L12.7125 4.23L11.1225 5.82L12.18 6.8775L13.77 5.2875ZM12.75 8.25V9.75H17.25V8.25H12.75ZM9 6.75C7.755 6.75 6.75 7.755 6.75 9C6.75 10.245 7.755 11.25 9 11.25C10.245 11.25 11.25 10.245 11.25 9C11.25 7.755 10.245 6.75 9 6.75ZM11.1225 12.18L12.7125 13.77L13.77 12.7125L12.18 11.1225L11.1225 12.18V12.18ZM4.23 12.7125L5.2875 13.77L6.8775 12.18L5.82 11.1225L4.23 12.7125V12.7125ZM8.25 17.25H9.75V12.75H8.25V17.25Z" fill="#7A6A66"/>
</svg>
