<svg width="18" height="18" viewBox="0 0 18 18" fill="none" xmlns="http://www.w3.org/2000/svg">
<path d="M6.71727 2.925L7.7061 4.70625L6.71727 6.4875H4.79571L3.8139 4.70625L4.79571 2.925H6.71727ZM7.33442 1.5H4.17857C4.11549 1.49983 4.05354 1.51694 3.99923 1.54954C3.94492 1.58215 3.90028 1.62903 3.87 1.68525L2.31312 4.50675L2.25 4.70625L2.31312 4.90575L3.87 7.72725C3.90028 7.78347 3.94492 7.83035 3.99923 7.86296C4.05354 7.89556 4.11549 7.91268 4.17857 7.9125H7.33442C7.39749 7.91268 7.45945 7.89556 7.51376 7.86296C7.56807 7.83035 7.61271 7.78347 7.64299 7.72725L9.19987 4.90575L9.26299 4.70625L9.19987 4.50675L7.64299 1.68525C7.61271 1.62903 7.56807 1.58215 7.51376 1.54954C7.45945 1.51694 7.39749 1.49983 7.33442 1.5ZM13.2043 6.84375L14.1721 8.625L13.2043 10.4063H11.2827L10.3149 8.625L11.2827 6.84375H13.2043ZM13.8214 5.41875H10.6656C10.6025 5.41858 10.5405 5.43569 10.4862 5.46829C10.4319 5.5009 10.3873 5.54778 10.357 5.604L8.80013 8.4255L8.73701 8.625L8.80013 8.8245L10.357 11.646C10.3873 11.7022 10.4319 11.7491 10.4862 11.7817C10.5405 11.8143 10.6025 11.8314 10.6656 11.8313H13.8214C13.8845 11.8314 13.9465 11.8143 14.0008 11.7817C14.0551 11.7491 14.0997 11.7022 14.13 11.646L15.6869 8.8245L15.75 8.625L15.6869 8.4255L14.13 5.604C14.0997 5.54778 14.0551 5.5009 14.0008 5.46829C13.9465 5.43569 13.8845 5.41858 13.8214 5.41875ZM6.71727 10.7625L7.7061 12.5438L6.71727 14.325H4.79571L3.8139 12.5438L4.79571 10.7625H6.71727ZM7.33442 9.3375H4.17857C4.11549 9.33733 4.05354 9.35444 3.99923 9.38704C3.94492 9.41965 3.90028 9.46653 3.87 9.52275L2.31312 12.3443L2.25 12.5438L2.31312 12.7433L3.87 15.5648C3.90028 15.621 3.94492 15.6679 3.99923 15.7005C4.05354 15.7331 4.11549 15.7502 4.17857 15.75H7.33442C7.39749 15.7502 7.45945 15.7331 7.51376 15.7005C7.56807 15.6679 7.61271 15.621 7.64299 15.5648L9.19987 12.7433L9.26299 12.5438L9.19987 12.3443L7.64299 9.52275C7.61271 9.46653 7.56807 9.41965 7.51376 9.38704C7.45945 9.35444 7.39749 9.33733 7.33442 9.3375Z" fill="#7A6A66"/>
</svg>
