<svg width="18" height="18" viewBox="0 0 18 18" fill="none" xmlns="http://www.w3.org/2000/svg">
<path d="M9.8475 16.6425L8.625 13.77C9.8025 13.335 10.905 12.75 11.925 12.0675L9.8475 16.6425ZM4.23 9.375L1.3575 8.1525L5.9325 6.075C5.25 7.095 4.665 8.1975 4.23 9.375ZM14.415 3C14.625 3 14.8125 3 14.97 3.0375C15.0975 4.08 14.955 6.225 12.495 8.685C11.22 9.9675 9.6975 10.95 7.9875 11.6025L6.375 10.0275C7.065 8.295 8.0475 6.7725 9.315 5.505C11.385 3.435 13.23 3 14.415 3ZM14.415 1.5C12.93 1.5 10.68 2.0175 8.25 4.4475C6.6075 6.09 5.625 7.8975 4.9875 9.48C4.7775 10.0425 4.92 10.6575 5.3325 11.0775L6.93 12.6675C7.215 12.9525 7.5975 13.125 7.995 13.125C8.1675 13.125 8.3475 13.08 8.52 13.0125C10.125 12.3975 11.91 11.3925 13.5525 9.75C17.7975 5.505 16.2075 1.7925 16.2075 1.7925C16.2075 1.7925 15.525 1.5 14.415 1.5ZM10.905 7.095C10.32 6.51 10.32 5.5575 10.905 4.9725C11.49 4.3875 12.4425 4.3875 13.0275 4.9725C13.605 5.5575 13.6125 6.51 13.0275 7.095C12.4425 7.68 11.49 7.68 10.905 7.095ZM6.66 12.3975L5.6025 11.34L6.66 12.3975ZM4.68 16.5L7.41 13.77C7.155 13.7025 6.9075 13.59 6.6825 13.4325L3.6225 16.5H4.68ZM1.5 16.5H2.5575L6.135 12.93L5.07 11.8725L1.5 15.4425V16.5ZM1.5 14.3775L4.5675 11.3175C4.41 11.0925 4.2975 10.8525 4.23 10.59L1.5 13.32V14.3775Z" fill="#7A6A66"/>
</svg>
