<svg width="18" height="18" viewBox="0 0 18 18" fill="none" xmlns="http://www.w3.org/2000/svg">
<path d="M3.75 2.25H14.25C14.6478 2.25 15.0294 2.40804 15.3107 2.68934C15.592 2.97064 15.75 3.35218 15.75 3.75V14.25C15.75 14.6478 15.592 15.0294 15.3107 15.3107C15.0294 15.592 14.6478 15.75 14.25 15.75H3.75C3.35218 15.75 2.97064 15.592 2.68934 15.3107C2.40804 15.0294 2.25 14.6478 2.25 14.25V3.75C2.25 3.35218 2.40804 2.97064 2.68934 2.68934C2.97064 2.40804 3.35218 2.25 3.75 2.25ZM11.25 3.75V14.25H14.25V3.75H11.25ZM3.75 3.75V6.75H9.75V3.75H3.75ZM3.75 8.25V9.75H5.25V8.25H3.75ZM6 8.25V9.75H7.5V8.25H6ZM8.25 8.25V9.75H9.75V8.25H8.25ZM3.75 10.5V12H5.25V10.5H3.75ZM6 10.5V12H7.5V10.5H6ZM8.25 10.5V12H9.75V10.5H8.25ZM8.25 12.75V14.25H9.75V12.75H8.25ZM6 12.75V14.25H7.5V12.75H6ZM3.75 12.75V14.25H5.25V12.75H3.75Z" fill="#7A6A66"/>
</svg>
