<svg width="18" height="18" viewBox="0 0 18 18" fill="none" xmlns="http://www.w3.org/2000/svg">
<path d="M10.215 9.96L11.445 11.655C11.4675 11.25 11.535 10.8525 11.67 10.4475C11.805 10.0275 12 9.645 12.225 9.3075L10.215 9.96ZM13.3275 14.25C13.3125 13.26 13.4625 12.2025 13.8075 11.1375C14.16 10.065 14.67 9.105 15.27 8.3175L13.74 8.8125C13.155 9.195 12.6525 9.855 12.375 10.6725C12.1275 11.4675 12.135 12.27 12.375 12.915L13.3275 14.25ZM14.4375 15.75C14.0625 16.095 13.6575 16.395 13.2225 16.65L12.9825 16.32C11.925 15.75 10.53 15.375 9 15.375C7.47 15.375 6.075 15.75 5.0175 16.32L4.7775 16.65C4.3425 16.395 3.9375 16.095 3.5625 15.75L3.75 15.5175C3.9975 14.31 3.915 12.84 3.435 11.355C2.955 9.8925 2.175 8.67 1.2825 7.845L0.952499 7.74C1.065 7.245 1.2225 6.75 1.4175 6.3075L1.7175 6.405C2.94 6.2775 4.305 5.7375 5.5725 4.8225C6.8175 3.915 7.74 2.7975 8.25 1.695V1.3425L9 1.3125L9.75 1.3425V1.6575C10.2525 2.7825 11.1825 3.9225 12.45 4.8375C13.695 5.745 15.045 6.2775 16.2525 6.42L16.5825 6.3075C16.7775 6.75 16.935 7.245 17.0475 7.74L16.6725 7.875C15.78 8.685 15 9.9075 14.5275 11.37C14.055 12.8175 13.965 14.25 14.19 15.4275L14.4375 15.75ZM8.25 8.5275V6.375C7.995 6.69 7.695 6.99 7.335 7.2525C6.9675 7.5 6.5775 7.7175 6.1875 7.875L8.25 8.5275ZM8.25 3.165C7.6875 3.9825 6.93 4.7625 6 5.43C5.085 6.105 4.095 6.585 3.135 6.87L4.6125 7.35C5.3325 7.41 6.165 7.17 6.8925 6.645C7.5975 6.135 8.07 5.4525 8.25 4.77V3.165ZM9.75 8.5275L11.805 7.875C11.4225 7.725 11.04 7.5225 10.6875 7.2675C10.32 6.9975 10.005 6.69 9.75 6.375V8.5275ZM14.85 6.87C13.8975 6.585 12.9225 6.1125 12 5.445C11.0775 4.77 10.32 3.9825 9.75 3.15V4.7025C9.915 5.4075 10.395 6.1275 11.13 6.66C11.8275 7.17 12.6225 7.4025 13.3275 7.365L14.85 6.87ZM7.785 9.96L5.73 9.2925C5.9625 9.63 6.15 10.0125 6.285 10.4325C6.4275 10.875 6.495 11.295 6.51 11.715L7.785 9.96ZM2.685 8.3025C3.285 9.09 3.795 10.05 4.1475 11.1225C4.5 12.2175 4.65 13.305 4.6275 14.31L5.535 13.0575C5.82 12.375 5.85 11.52 5.5725 10.665C5.3025 9.84 4.8 9.18 4.2075 8.7975L2.685 8.3025ZM9 10.8375L7.7625 12.54C8.1525 12.435 8.565 12.375 9 12.375C9.435 12.375 9.8475 12.435 10.2375 12.54L9 10.8375ZM5.88 15.135C6.81 14.8125 7.875 14.625 9 14.625C10.125 14.625 11.19 14.8125 12.12 15.135L11.16 13.815C10.62 13.3875 9.8475 13.125 9 13.125C8.1525 13.125 7.38 13.3875 6.84 13.815L5.88 15.135Z" fill="#7A6A66"/>
</svg>
