<svg width="82" height="28" viewBox="0 0 82 28" fill="none" xmlns="http://www.w3.org/2000/svg">
<g clip-path="url(#clip0_462_152)">
<path d="M0.829224 2.86942C1.09284 2.72339 1.36024 2.58115 1.62196 2.43133C2.99377 1.64491 4.36304 0.853433 5.72979 0.0569012C5.7838 0.0193775 5.84799 -0.000732422 5.91375 -0.000732422C5.97952 -0.000732422 6.04371 0.0193775 6.09771 0.0569012C7.67055 0.969752 9.24528 1.87755 10.8219 2.78028C10.8854 2.81007 10.9378 2.85907 10.9719 2.92034C11.0059 2.98161 11.0198 3.05204 11.0116 3.12165C11.0021 3.93905 11.0116 4.75644 11.0002 5.57573C10.9941 5.64524 11.01 5.7149 11.0458 5.77483C11.0815 5.83475 11.1352 5.88187 11.1993 5.90952C14.173 7.61764 17.1442 9.32892 20.1129 11.0434C20.1896 11.0775 20.2538 11.1348 20.2963 11.2072C20.3388 11.2797 20.3576 11.3637 20.3499 11.4473C20.3424 15.0304 20.3424 18.6123 20.3499 22.1929C20.3582 22.2691 20.3421 22.3459 20.3039 22.4124C20.2658 22.4788 20.2075 22.5315 20.1375 22.5627C17.0715 24.3227 14.0068 26.0877 10.9433 27.8578C10.8731 27.8995 10.8105 27.9507 10.7536 27.9981H10.4331C10.3667 27.9526 10.3023 27.9014 10.2321 27.8597C7.21918 26.1199 4.20437 24.3808 1.18766 22.6424C1.07197 22.5741 0.948703 22.5153 0.829224 22.4527V2.86942ZM1.66179 3.8575C1.66179 3.93336 1.66179 3.97129 1.66179 4.00922C1.66179 9.93137 1.66179 15.8535 1.66179 21.7757C1.65814 21.8345 1.673 21.8931 1.70429 21.9431C1.73558 21.9931 1.78173 22.032 1.83627 22.0545C4.54827 23.6159 7.25837 25.1786 9.96658 26.7426C10.0273 26.7768 10.0899 26.8071 10.1809 26.8564V26.6099C10.1809 25.2918 10.1809 23.9737 10.1809 22.6576C10.1879 22.5889 10.1734 22.5197 10.1394 22.4596C10.1055 22.3994 10.0537 22.3513 9.99124 22.3219C8.58214 21.5178 7.18252 20.7023 5.77341 19.9019C5.68949 19.8656 5.61919 19.8036 5.57254 19.725C5.52588 19.6463 5.50525 19.5549 5.51359 19.4638C5.51359 15.0791 5.51359 10.6944 5.52497 6.30968C5.53206 6.23318 5.51501 6.15639 5.47624 6.09006C5.43747 6.02374 5.3789 5.97121 5.30877 5.93986C4.17086 5.29695 3.04813 4.64265 1.91971 3.99215L1.66179 3.8575ZM11.0191 26.8545L11.241 26.7369C13.9379 25.1843 16.6347 23.6317 19.3315 22.0791C19.3936 22.0492 19.4451 22.001 19.479 21.941C19.5129 21.881 19.5276 21.8121 19.5212 21.7434C19.5212 18.6243 19.5212 15.5052 19.5212 12.3861C19.5212 12.3216 19.5212 12.2571 19.5098 12.1661C19.4226 12.2116 19.3562 12.242 19.2917 12.278C18.1538 12.9361 17.0159 13.5961 15.8666 14.2485C15.8044 14.2787 15.7528 14.3272 15.7189 14.3876C15.685 14.4479 15.6704 14.5171 15.677 14.586C15.677 16.2208 15.677 17.8575 15.6864 19.4923C15.6959 19.5726 15.6795 19.6537 15.6396 19.724C15.5997 19.7943 15.5383 19.85 15.4645 19.883C14.0441 20.6909 12.6293 21.514 11.2088 22.3238C11.142 22.3545 11.0866 22.4054 11.0505 22.4695C11.0144 22.5335 10.9995 22.6073 11.0078 22.6803C11.0078 23.9908 11.0078 25.2994 11.0078 26.6099C11.0078 26.6781 11.0135 26.7502 11.0191 26.8545ZM6.33288 18.7773C6.39736 18.747 6.42581 18.7375 6.45046 18.7223C7.64526 18.0339 8.83627 17.3417 10.033 16.6608C10.1695 16.583 10.1714 16.4863 10.1714 16.3612C10.1714 14.6455 10.1714 12.9279 10.1714 11.2084V4.11922C10.1714 4.04146 10.1714 3.9637 10.1581 3.86319L9.93245 3.98836C8.80403 4.63886 7.6775 5.29126 6.54529 5.93607C6.4751 5.96645 6.41626 6.01815 6.37711 6.08385C6.33797 6.14955 6.3205 6.22591 6.32719 6.30209C6.32719 10.3745 6.32719 14.4469 6.32719 18.5194L6.33288 18.7773ZM11.0286 6.76863C11.0192 6.80726 11.0128 6.84658 11.0097 6.88622C11.0097 8.27066 11.0097 9.65701 11.0097 11.0415C11.0197 11.0928 11.0407 11.1413 11.0711 11.1838C11.1016 11.2264 11.1407 11.2619 11.186 11.288C12.4795 12.0466 13.7805 12.7881 15.0758 13.5411C15.1296 13.5791 15.1938 13.5995 15.2597 13.5995C15.3256 13.5995 15.3899 13.5791 15.4437 13.5411C16.5816 12.8773 17.7195 12.2135 18.8574 11.5611C18.9276 11.5213 18.994 11.4796 19.0907 11.4208L11.0286 6.76863ZM14.4272 19.515C14.3418 19.46 14.2925 19.4259 14.2375 19.3975C13.0825 18.7318 11.9276 18.0699 10.7783 17.4004C10.7214 17.3594 10.6531 17.3373 10.5829 17.3373C10.5128 17.3373 10.4445 17.3594 10.3876 17.4004C9.2497 18.0642 8.1118 18.728 6.9739 19.3766C6.91131 19.4126 6.85063 19.4563 6.78425 19.5037C6.81034 19.5273 6.83824 19.5489 6.8677 19.5681C8.07261 20.2648 9.27942 20.9602 10.4881 21.6543C10.5254 21.6711 10.5658 21.6798 10.6067 21.6798C10.6475 21.6798 10.6879 21.6711 10.7252 21.6543C11.0457 21.4836 11.3567 21.2959 11.6734 21.1138L14.4272 19.515ZM2.09988 3.12355C2.13168 3.1516 2.16526 3.17758 2.2004 3.20131C3.40089 3.89353 4.59948 4.58765 5.80376 5.2704C5.84956 5.2876 5.89855 5.29465 5.94734 5.29105C5.99613 5.28744 6.04356 5.27328 6.08634 5.24953C7.25838 4.58386 8.42472 3.9087 9.59107 3.23544C9.64038 3.2051 9.6878 3.16907 9.75228 3.12545C8.49489 2.40098 7.25648 1.686 6.01427 0.976707C5.97795 0.964994 5.93955 0.961133 5.90162 0.965384C5.86369 0.969634 5.8271 0.981897 5.79427 1.00136C5.31066 1.27066 4.83464 1.54755 4.35483 1.82444L2.09988 3.12355ZM11.0362 12.1737C11.0259 12.2301 11.019 12.2871 11.0154 12.3444C11.0154 13.7004 11.0154 15.0545 11.0154 16.4105C11.0137 16.4703 11.0313 16.529 11.0654 16.5781C11.0995 16.6272 11.1484 16.6642 11.205 16.6836L14.668 18.6768C14.7249 18.709 14.7856 18.7337 14.8577 18.7659C14.8628 18.7301 14.866 18.694 14.8672 18.6578C14.8672 17.2791 14.8672 15.9022 14.8672 14.5253C14.8702 14.47 14.8557 14.4151 14.8257 14.3684C14.7958 14.3218 14.7519 14.2858 14.7003 14.2655C13.5434 13.603 12.3884 12.938 11.2353 12.2704C11.1652 12.2344 11.1064 12.2078 11.0286 12.1699L11.0362 12.1737Z" fill="#7A6A66"/>
<path d="M81.9389 16.729C81.9223 16.7531 81.9089 16.7793 81.8991 16.8068C81.8319 17.1318 81.678 17.4325 81.4536 17.6769C81.2292 17.9214 80.9427 18.1004 80.6246 18.195C79.9144 18.4408 79.1385 18.4158 78.4455 18.1249C78.1602 18.0173 77.9051 17.8425 77.7018 17.6154C77.4984 17.3883 77.3528 17.1154 77.2773 16.8201C77.257 16.7319 77.2418 16.6426 77.2318 16.5527L78.7034 16.2891C78.7774 16.6684 78.9557 16.9547 79.3388 17.0154C79.5609 17.0429 79.7862 17.0274 80.0026 16.9699C80.0882 16.9454 80.163 16.8924 80.2144 16.8196C80.2657 16.7468 80.2907 16.6587 80.2851 16.5697C80.2873 16.4821 80.259 16.3963 80.205 16.3272C80.1511 16.258 80.0748 16.2097 79.9893 16.1904C79.6479 16.0899 79.2989 16.0179 78.9576 15.9211C78.7384 15.8629 78.5246 15.7861 78.3185 15.6917C78.0765 15.5793 77.8648 15.411 77.7008 15.2006C77.5368 14.9902 77.4253 14.7437 77.3755 14.4817C77.3256 14.2196 77.3389 13.9495 77.4141 13.6936C77.4894 13.4377 77.6245 13.2033 77.8083 13.01C78.3772 12.3766 79.1358 12.2135 79.9419 12.2988C80.2383 12.3139 80.5283 12.3903 80.7937 12.5231C81.0591 12.656 81.294 12.8424 81.4837 13.0707C81.7008 13.3296 81.829 13.6514 81.8498 13.9886L80.435 14.2446C80.2036 13.6946 79.9893 13.5239 79.5436 13.5543C79.4237 13.565 79.3071 13.5991 79.2003 13.6548C79.1208 13.6932 79.0558 13.7562 79.0148 13.8344C78.9738 13.9126 78.9591 14.0019 78.9728 14.0891C78.9789 14.1695 79.0114 14.2456 79.0653 14.3056C79.1191 14.3656 79.1913 14.4062 79.2705 14.421C79.5341 14.4912 79.8072 14.5234 80.067 14.5993C80.402 14.6878 80.7293 14.8032 81.0456 14.9444C81.2755 15.0632 81.4753 15.2326 81.6301 15.4399C81.7848 15.6472 81.8904 15.887 81.9389 16.1411V16.729Z" fill="#7A6A66"/>
<path d="M59.5735 9.84286C59.6665 9.84286 59.7253 9.82959 59.7841 9.82959H61.3145V18.1647H59.6703C59.6513 18.0149 59.6323 17.8632 59.6096 17.6697C59.31 18.0063 58.898 18.2221 58.4508 18.2766C57.7373 18.3828 57.0106 18.2058 56.4259 17.7834C55.8412 17.361 55.4449 16.7267 55.3216 16.016C55.1433 15.0677 55.2666 14.1745 55.8507 13.3798C56.6396 12.3083 57.9805 12.1225 58.9667 12.4638C59.1786 12.5602 59.3817 12.6751 59.5735 12.8071V9.84286ZM59.5944 15.3143C59.5944 14.6296 59.2834 14.1366 58.7353 13.9602C57.8003 13.6567 56.981 14.3205 57.0284 15.3541C57.0512 16.0349 57.3812 16.5186 57.9331 16.6817C58.832 16.9434 59.5906 16.3175 59.5906 15.3143H59.5944Z" fill="#7A6A66"/>
<path d="M32.0249 17.6356V18.1647H30.3408V9.84668H32.0477V12.9532C32.6546 12.369 33.3639 12.2401 34.1168 12.3406C34.5808 12.3879 35.0208 12.5704 35.3822 12.8654C35.7436 13.1603 36.0105 13.5548 36.1498 14C36.3313 14.4641 36.4121 14.9613 36.3869 15.459C36.3617 15.9566 36.2311 16.4432 36.0038 16.8865C35.7374 17.4118 35.3006 17.831 34.7648 18.0757C34.2291 18.3203 33.6261 18.3758 33.0547 18.233C32.6623 18.1342 32.3055 17.9272 32.0249 17.6356V17.6356ZM34.6117 15.2991C34.6117 14.6107 34.2988 14.1271 33.7432 13.9564C32.7949 13.6624 31.968 14.3471 32.0249 15.3788C32.0629 16.0577 32.4042 16.53 32.9599 16.6836C33.8683 16.9358 34.6155 16.31 34.6117 15.2991Z" fill="#7A6A66"/>
<path d="M69.3765 15.7675H65.4223C65.4109 16.2416 65.8016 16.6816 66.3212 16.8144C66.9907 16.9869 67.5179 16.7556 67.8574 16.1184L69.3082 16.5261C69.2798 16.6152 69.2646 16.693 69.2343 16.767C69.0773 17.1678 68.8165 17.5197 68.4785 17.7864C68.1405 18.053 67.7376 18.2248 67.3112 18.2842C66.1259 18.4928 65.0923 18.1988 64.3166 17.243C63.192 15.8566 63.4632 13.0801 65.7485 12.3917C66.5051 12.1604 67.3223 12.2353 68.0243 12.6003C68.8436 13.0119 69.2532 13.725 69.367 14.6068C69.3932 14.9932 69.3964 15.3808 69.3765 15.7675V15.7675ZM65.4545 14.6182H67.6867C67.7152 14.0777 67.2695 13.687 66.6152 13.67C65.9609 13.6529 65.4697 14.0625 65.4545 14.6182V14.6182Z" fill="#7A6A66"/>
<path d="M43.9501 18.1667H42.3153L42.2622 17.6585C41.6933 18.2824 40.9859 18.3943 40.2349 18.2559C39.7733 18.1761 39.3543 17.9373 39.0504 17.5808C38.7466 17.2243 38.5772 16.7727 38.5716 16.3043C38.5394 15.0337 38.5716 13.7611 38.5716 12.4715H40.3164V12.7351C40.3164 13.6682 40.3164 14.6 40.3164 15.5306C40.3151 15.6363 40.3196 15.742 40.3297 15.8473C40.3885 16.3707 40.709 16.6742 41.2002 16.6855C41.3177 16.6978 41.4364 16.6867 41.5495 16.6527C41.6626 16.6187 41.7678 16.5626 41.859 16.4876C41.9502 16.4126 42.0257 16.3202 42.0809 16.2158C42.1361 16.1115 42.17 15.9971 42.1807 15.8795C42.1939 15.7821 42.1996 15.6838 42.1978 15.5856C42.1978 14.6323 42.1978 13.6777 42.1978 12.7218V12.4658H43.9539L43.9501 18.1667Z" fill="#7A6A66"/>
<path d="M51.3086 9.84106H53.0268V18.1648H51.3086V9.84106Z" fill="#7A6A66"/>
<path d="M73.4104 18.1684H71.6675V12.4676H73.3364V13.1749L73.4957 12.9853C73.875 12.5055 74.5615 12.3234 75.1836 12.4315C75.211 12.4438 75.2351 12.4624 75.2539 12.4858C75.2727 12.5092 75.2856 12.5368 75.2917 12.5662C75.2917 13.0953 75.2917 13.6244 75.2917 14.1668C75.1229 14.1554 74.9674 14.1384 74.8138 14.1346C73.9945 14.1194 73.4635 14.5822 73.4274 15.3996C73.3914 16.2169 73.4123 17.0628 73.4066 17.8953L73.4104 18.1684Z" fill="#7A6A66"/>
<path d="M46.7228 12.4658H48.441V18.1648H46.7228V12.4658Z" fill="#7A6A66"/>
<path d="M47.5648 9.67785C47.8371 9.67379 48.0999 9.77796 48.2954 9.96749C48.491 10.157 48.6034 10.4164 48.6079 10.6887C48.6069 10.9647 48.4965 11.229 48.301 11.4238C48.1055 11.6186 47.8408 11.728 47.5648 11.728C47.2966 11.7245 47.0404 11.6162 46.8512 11.4262C46.6619 11.2362 46.5545 10.9796 46.552 10.7114C46.5493 10.5767 46.5734 10.4428 46.623 10.3175C46.6727 10.1922 46.7469 10.0781 46.8412 9.98181C46.9355 9.88555 47.0481 9.80908 47.1723 9.75688C47.2966 9.70469 47.43 9.67782 47.5648 9.67785Z" fill="#7A6A66"/>
</g>
<defs>
<clipPath id="clip0_462_152">
<rect width="81.1097" height="28" fill="white" transform="translate(0.829224)"/>
</clipPath>
</defs>
</svg>
