<svg width="56" height="28" viewBox="0 0 56 28" fill="none" xmlns="http://www.w3.org/2000/svg">
<g clip-path="url(#clip0_509_336)">
<path d="M0.98182 0.000106812C2.94469 0.000106812 4.90755 0.000106812 6.87042 0.000106812C6.87042 9.33316 6.87042 18.6661 6.87042 27.9989C4.90575 27.9959 2.9415 28.0009 0.97724 27.9964V3.86075C0.980155 2.57429 0.96933 1.28741 0.98182 0.000106812Z" fill="#7A6A66"/>
<path d="M10.6028 0.000106812H16.4939C16.4939 6.35 16.4939 12.6998 16.4939 19.0494C14.5302 19.0494 12.5664 19.0494 10.6024 19.0494C10.6021 12.7003 10.6023 6.35056 10.6028 0.000106812Z" fill="#7A6A66"/>
<path d="M20.2059 0.00295088C22.1706 -0.000796106 24.1348 0.00295088 26.0995 0.00295088C26.0973 9.33544 26.0973 18.6682 26.0995 28.0013C24.1355 28.0013 22.1718 28.0013 20.2084 28.0013C20.2053 18.6679 20.2045 9.33517 20.2059 0.00295088Z" fill="#7A6A66"/>
<path d="M29.8314 0.000106812C31.7948 0.0038538 33.7582 0.000106812 35.7217 0.000106812C35.7217 1.85362 35.7217 3.70727 35.7217 5.56106C33.7577 5.56106 31.7937 5.56106 29.8297 5.56106C29.8322 3.70796 29.8272 1.85403 29.8314 0.000106812Z" fill="#7A6A66"/>
<path d="M39.601 0.00422287H55.1231C55.1231 1.85607 55.1231 3.70805 55.1231 5.56018C49.9495 5.56018 44.7757 5.56018 39.6018 5.56018C39.6001 3.70805 39.5999 1.85607 39.601 0.00422287Z" fill="#7A6A66"/>
<path d="M39.6045 8.93676C41.5685 8.94259 43.5326 8.94259 45.4969 8.93676C45.4969 15.2914 45.4969 21.646 45.4969 28.0006C43.5326 27.9977 41.5687 28.0006 39.6049 28.0006C39.6052 21.6451 39.605 15.2905 39.6045 8.93676Z" fill="#7A6A66"/>
<path d="M29.7128 8.67274C31.6762 8.67066 33.6396 8.67566 35.6035 8.66983C35.6035 15.0239 35.6035 21.3779 35.6035 27.732C33.6401 27.732 31.6768 27.732 29.7136 27.732C29.7123 21.3791 29.712 15.026 29.7128 8.67274Z" fill="#7A6A66"/>
</g>
<defs>
<clipPath id="clip0_509_336">
<rect width="54.1477" height="28" fill="white" transform="translate(0.975464 0.000106812)"/>
</clipPath>
</defs>
</svg>
