<svg width="61" height="28" viewBox="0 0 61 28" fill="none" xmlns="http://www.w3.org/2000/svg">
<g clip-path="url(#clip0_509_346)">
<path d="M5.47183 17.7165C5.47183 20.4213 6.1215 21.1814 7.94851 21.1814V21.8311H0.0997925V21.1814C1.62363 21.1814 2.57647 20.6862 2.57647 17.7887V4.11536C2.57647 1.44811 1.9268 0.650462 0.0997925 0.650462V0.000793457H8.06257C14.0821 0.000793457 16.5205 3.2015 16.5205 6.20874C16.5205 9.82884 13.7775 11.8479 8.82484 11.8479C7.872 11.8479 7.07218 11.8096 5.47183 11.619V17.7165ZM5.47183 10.6287C6.46221 10.9708 7.03392 11.0091 8.17734 11.0091C11.4149 11.0091 13.4729 9.25713 13.4729 6.28526C13.4729 3.96089 12.1779 0.836701 8.17734 0.836701H5.47183V10.6287Z" fill="#7A6A66"/>
<path d="M17.0157 13.602C16.9392 19.6591 20.5586 21.1866 22.3849 21.1866C24.2516 21.1866 25.2037 20.5369 27.1491 18.367V19.3581C25.5105 21.4515 23.9484 22.2535 21.5865 22.2535C17.3572 22.2535 14.3095 19.3206 14.3095 15.2435C14.3095 11.1665 17.2814 7.96652 21.0906 7.96652C24.2155 7.96652 27.1109 10.4807 26.9203 13.6056L17.0157 13.602ZM24.3671 12.956C24.4819 9.98411 22.4621 8.76489 20.7477 8.76489C18.5006 8.76489 17.1666 10.4418 17.0143 12.956H24.3671Z" fill="#7A6A66"/>
<path d="M41.5509 18.8975C41.5509 20.6495 41.9328 21.1829 43.8371 21.1829V21.8326H36.6366V21.1829C38.4643 21.1829 38.9602 20.7642 38.9602 19.5068V12.4586C38.9602 10.2873 37.3981 9.37267 35.9508 9.37267C34.6175 9.37267 33.4359 10.2107 32.1026 12.0017V18.5929C32.1026 20.6495 32.3697 21.1829 34.3887 21.1829V21.8326H27.264V21.1829C29.0549 21.1829 29.5126 21.0306 29.5126 18.5929V11.0084C29.5126 9.3705 29.0925 9.02762 27.264 9.02762V8.37795L31.4551 7.95856H32.1048V10.6641C33.7051 8.83489 35.2672 7.95856 36.9816 7.95856C39.2302 7.95856 41.5531 9.55891 41.5531 12.795" fill="#7A6A66"/>
<path d="M58.0445 18.8975C58.0445 20.6495 58.4257 21.1829 60.3306 21.1829V21.8326H53.1359V21.1829C54.9651 21.1829 55.4596 20.7642 55.4596 19.5068V12.4586C55.4596 10.2873 53.8975 9.37267 52.4502 9.37267C51.1162 9.37267 49.9359 10.2107 48.6012 12.0017V18.5929C48.6012 20.6495 48.869 21.1829 50.8881 21.1829V21.8326H43.7626V21.1829C45.5536 21.1829 46.0112 21.0306 46.0112 18.5929V11.0084C46.0112 9.3705 45.5925 9.02762 43.7626 9.02762V8.37795L47.9544 7.95856H48.6041V10.6641C50.2052 8.83489 51.7673 7.95856 53.4817 7.95856C55.7295 7.95856 58.0532 9.55891 58.0532 12.795" fill="#7A6A66"/>
<path d="M0.873732 25.7053C0.873732 26.3102 1.03759 26.7722 1.68221 26.7722C2.27413 26.7722 2.58525 26.3752 2.58525 25.6829V24.4825C2.58209 24.404 2.5734 24.3258 2.55926 24.2486C2.53761 24.0927 2.39035 24.032 2.18751 24.0111V23.8985H3.20749V24.0111C2.99959 24.0328 2.85739 24.0927 2.83573 24.2486C2.82159 24.3258 2.81291 24.404 2.80975 24.4825V25.701C2.80975 26.63 2.21782 26.9758 1.66055 26.9758C0.739467 26.9758 0.454335 26.5087 0.454335 25.727V24.4392C0.454335 24.0371 0.47166 24.0587 0.0825806 24.0111V23.8985H1.24477V24.0111C0.856409 24.0587 0.873732 24.0371 0.873732 24.4392" fill="#7A6A66"/>
<path d="M5.65521 26.9239C5.12465 26.2973 4.57243 25.6397 4.03104 25.0001V26.4741C4.03362 26.5345 4.04038 26.5945 4.05126 26.6539C4.06786 26.7744 4.18119 26.8206 4.40135 26.8372V26.9239H3.58422V26.8372C3.74447 26.8206 3.85419 26.7744 3.87296 26.6539C3.88383 26.5945 3.89059 26.5345 3.89317 26.4741V24.9027C3.79933 24.7836 3.6961 24.6767 3.50626 24.6767V24.5894H4.11334C4.60997 25.1929 5.12393 25.8072 5.62418 26.4106H5.63067V25.0391C5.62809 24.9788 5.62134 24.9187 5.61046 24.8594C5.59386 24.7388 5.48053 24.6926 5.26036 24.676V24.5887H6.0775V24.676C5.92086 24.6926 5.80753 24.7388 5.78876 24.8594C5.77788 24.9187 5.77113 24.9788 5.76855 25.0391V26.9231" fill="#7A6A66"/>
<path d="M7.36604 26.5066C7.36604 26.817 7.35305 26.8004 7.65478 26.8372V26.9238H6.75607V26.8372C7.05636 26.8004 7.04481 26.817 7.04481 26.5066V25.0066C7.04481 24.6962 7.05853 24.7135 6.75607 24.676V24.5894H7.65261V24.676C7.35305 24.7135 7.36387 24.6962 7.36387 25.0066" fill="#7A6A66"/>
<path d="M9.07318 24.676C8.89055 24.676 8.75628 24.7294 8.86672 25.0492C8.99666 25.4433 9.19011 26.0165 9.36336 26.5232C9.57991 26.0136 9.78059 25.4996 9.98704 24.99C10.0708 24.7799 9.98704 24.676 9.75677 24.676V24.5894H10.4786V24.676C10.4169 24.6745 10.3564 24.6933 10.3065 24.7296C10.2565 24.7658 10.2199 24.8175 10.2022 24.8767C9.92207 25.5595 9.6391 26.2402 9.3583 26.9238H9.18867C8.98511 26.3463 8.75556 25.7032 8.55488 25.1365C8.43144 24.7799 8.3275 24.676 8.16797 24.676V24.5894H9.07462" fill="#7A6A66"/>
<path d="M10.9911 26.8372C11.2914 26.8004 11.2799 26.817 11.2799 26.5066V25.0066C11.2799 24.6962 11.2936 24.7135 10.9911 24.676V24.5894H12.4818V25.1264H12.3952C12.362 24.8795 12.2948 24.6933 12.0552 24.6933H11.6018V25.6469H11.8812C12.092 25.6469 12.1815 25.5639 12.188 25.3581H12.2746V26.0684H12.188C12.1815 25.8721 12.105 25.7551 11.8812 25.7551H11.6018V26.5095C11.6018 26.7925 11.7318 26.8156 12.035 26.8156C12.5179 26.8156 12.4948 26.6791 12.6478 26.3218H12.7352L12.6348 26.9224H10.9911" fill="#7A6A66"/>
<path d="M13.2419 24.5894H14.2128C14.5492 24.5894 14.8863 24.7669 14.8863 25.156C14.8885 25.304 14.8448 25.449 14.7612 25.5711C14.6775 25.6931 14.558 25.7862 14.4192 25.8374L14.7462 26.3341C14.913 26.5773 15.0999 26.8105 15.2162 26.8812V26.9238H14.8733C14.6762 26.9238 14.5694 26.5629 14.1659 25.8894H13.8526V26.5073C13.8526 26.817 13.8389 26.8004 14.1413 26.8372V26.9238H13.2419V26.8372C13.5422 26.8004 13.5306 26.817 13.5306 26.5073V25.0066C13.5306 24.6962 13.5436 24.7135 13.2419 24.6767V24.5894ZM13.8526 25.7833H14.129C14.4178 25.7833 14.5528 25.5667 14.5528 25.1863C14.5528 24.8254 14.3528 24.6962 14.1095 24.6962H13.8526V25.7833Z" fill="#7A6A66"/>
<path d="M16.8678 25.0846C16.8404 24.8522 16.714 24.6645 16.447 24.6645C16.2535 24.6645 16.0803 24.7655 16.0803 25.0117C16.0803 25.2449 16.3134 25.3856 16.6476 25.6354C17.0006 25.8989 17.1139 26.0685 17.1139 26.3464C17.1139 26.742 16.7075 26.9621 16.3069 26.9621C16.1121 26.9629 15.9189 26.9269 15.7374 26.856C15.729 26.8517 15.7221 26.8448 15.7177 26.8364C15.7133 26.828 15.7116 26.8185 15.7128 26.8091V26.3291H15.8002C15.837 26.6987 16.0803 26.8459 16.3372 26.8459C16.3934 26.8471 16.4493 26.837 16.5015 26.8162C16.5537 26.7954 16.6012 26.7644 16.6412 26.725C16.6812 26.6856 16.713 26.6385 16.7345 26.5867C16.7561 26.5348 16.767 26.4791 16.7667 26.4229C16.7667 26.2064 16.6505 26.0288 16.1503 25.7011C15.9698 25.5798 15.7468 25.4499 15.7468 25.0868C15.7468 24.7872 16.0803 24.5512 16.4636 24.5512C16.6215 24.5483 16.7789 24.5693 16.9306 24.6132C16.9383 24.6154 16.9449 24.6204 16.9492 24.6272C16.9535 24.634 16.9551 24.6421 16.9537 24.65V25.0832" fill="#7A6A66"/>
<path d="M18.3252 26.5066C18.3252 26.817 18.3115 26.8004 18.6139 26.8372V26.9238H17.7145V26.8372C18.0148 26.8004 18.0033 26.817 18.0033 26.5066V25.0066C18.0033 24.6962 18.017 24.7135 17.7145 24.676V24.5894H18.6118V24.676C18.3115 24.7135 18.323 24.6962 18.323 25.0066" fill="#7A6A66"/>
<path d="M20.2591 26.5066C20.2591 26.817 20.2454 26.8004 20.5479 26.8372V26.9238H19.6484V26.8372C19.9487 26.8004 19.9372 26.817 19.9372 26.5066V24.6962H19.6376C19.3489 24.6962 19.2803 24.8795 19.1706 25.0997H19.0868L19.1771 24.5894H21.0214L21.1116 25.0997H21.0279C20.9182 24.8795 20.851 24.6962 20.5616 24.6962H20.2613" fill="#7A6A66"/>
<path d="M22.0796 26.8372C22.3799 26.8004 22.3683 26.817 22.3683 26.5066V25.9934L21.8544 24.9763C21.7446 24.7597 21.6508 24.676 21.4978 24.676V24.5894H22.3481V24.676C22.0947 24.676 22.1178 24.803 22.2037 24.9763L22.608 25.8129L23.0678 24.9763C23.1811 24.7727 23.075 24.676 22.878 24.676V24.5894H23.5644V24.676C23.4713 24.676 23.3818 24.72 23.2916 24.8795L22.735 25.8901C22.7036 25.9672 22.6896 26.0503 22.6939 26.1334V26.5066C22.6939 26.817 22.6809 26.8004 22.9826 26.8372V26.9238H22.0796" fill="#7A6A66"/>
<path d="M25.0797 26.1247C25.0797 25.5581 25.5676 24.7113 26.2895 24.7113C26.867 24.7113 26.989 25.1004 26.989 25.4888C26.989 25.9652 26.6093 26.9758 25.7835 26.9758C25.2305 26.9758 25.0797 26.5304 25.0797 26.1247ZM26.5919 25.2816C26.5919 24.8319 26.3198 24.8146 26.2505 24.8146C25.7835 24.8146 25.4767 25.6533 25.4767 26.2157C25.4767 26.4402 25.5157 26.8458 25.8376 26.8458C26.3285 26.8458 26.5919 26.033 26.5919 25.2816Z" fill="#7A6A66"/>
<path d="M29.1632 24.8542L29.06 24.9452H28.494C28.2818 25.9731 27.936 27.3432 27.6899 28.0001H27.495L28.1136 24.9452H27.7029L27.7419 24.7633H28.1483C28.3771 23.8422 29.1379 23.7476 29.3191 23.7476C29.4187 23.7476 29.6259 23.765 29.6916 23.8249L29.6389 24.1136L29.5306 24.1656C29.4953 24.0939 29.4415 24.0328 29.3748 23.9888C29.308 23.9448 29.2308 23.9193 29.1509 23.9151C28.8911 23.9151 28.6969 24.0927 28.5929 24.559L28.546 24.7669H29.1805" fill="#7A6A66"/>
<path d="M31.8001 26.3838C31.8001 26.7859 31.7828 26.7643 32.1719 26.8119V26.9238H31.009V26.8119C31.3981 26.7643 31.3807 26.7859 31.3807 26.3838V24.4392C31.3807 24.0364 31.3981 24.0587 31.009 24.0104V23.8985H32.1416C32.8591 23.8985 33.2128 24.1836 33.2128 24.7026C33.2128 25.3249 32.6512 25.662 31.99 25.623V25.5364C32.5306 25.545 32.784 25.2209 32.784 24.7423C32.784 24.2638 32.5509 24.0328 32.0665 24.0328H31.803" fill="#7A6A66"/>
<path d="M33.809 26.8372C34.1093 26.8004 34.0978 26.817 34.0978 26.5066V25.0066C34.0978 24.6962 34.1108 24.7135 33.809 24.676V24.5894H35.3004V25.1264H35.213C35.1798 24.8795 35.1134 24.6933 34.873 24.6933H34.4197V25.6469H34.6998C34.9098 25.6469 35.0001 25.5639 35.0066 25.3581H35.0932V26.0684H35.0066C35.0001 25.8721 34.9228 25.7551 34.6998 25.7551H34.4197V26.5095C34.4197 26.7925 34.5496 26.8156 34.8528 26.8156C35.3364 26.8156 35.3126 26.6791 35.4664 26.3218H35.553L35.4505 26.9238H33.809" fill="#7A6A66"/>
<path d="M38.1979 26.9239C37.6681 26.2973 37.1151 25.6397 36.5737 25.0001V26.4741C36.5763 26.5345 36.5831 26.5945 36.5939 26.6539C36.6105 26.7744 36.7239 26.8206 36.9433 26.8372V26.9239H36.1269V26.8372C36.2871 26.8206 36.3969 26.7744 36.4156 26.6539C36.4262 26.5945 36.4328 26.5344 36.4351 26.4741V24.9027C36.342 24.7836 36.2388 24.6767 36.0482 24.6767V24.5894H36.6546C37.1527 25.1929 37.6695 25.8072 38.1654 26.4106H38.1726V25.0391C38.1703 24.9788 38.1637 24.9188 38.1531 24.8594C38.1365 24.7388 38.0232 24.6926 37.8023 24.676V24.5887H38.6195V24.676C38.4635 24.6926 38.3495 24.7388 38.3307 24.8594C38.3192 24.9187 38.3122 24.9787 38.3098 25.0391V26.9231" fill="#7A6A66"/>
<path d="M41.1863 26.9239C40.6557 26.2973 40.1035 25.6397 39.5621 25.0001V26.4741C39.5645 26.5344 39.571 26.5945 39.5816 26.6539C39.5989 26.7744 39.7122 26.8206 39.9324 26.8372V26.9239H39.1153V26.8372C39.2748 26.8206 39.3845 26.7744 39.404 26.6539C39.415 26.5945 39.4215 26.5345 39.4235 26.4741V24.9027C39.3304 24.7836 39.2271 24.6767 39.0373 24.6767V24.5894H39.6437C40.1425 25.1929 40.6557 25.8064 41.153 26.4106H41.1603V25.0391C41.1577 24.9788 41.1509 24.9187 41.1401 24.8594C41.1235 24.7388 41.0101 24.6926 40.7892 24.676V24.5887H41.6071V24.676C41.4505 24.6926 41.3364 24.7388 41.3184 24.8594C41.3069 24.9187 41.2999 24.9787 41.2974 25.0391V26.9231" fill="#7A6A66"/>
<path d="M43.357 25.0845C43.3303 24.8521 43.2039 24.6644 42.9369 24.6644C42.7441 24.6644 42.5702 24.7655 42.5702 25.0116C42.5702 25.2448 42.8033 25.3856 43.1368 25.6353C43.4912 25.8988 43.6039 26.0684 43.6039 26.3463C43.6039 26.7419 43.1975 26.9621 42.7975 26.9621C42.6022 26.9629 42.4085 26.9269 42.2266 26.856C42.2183 26.8515 42.2116 26.8446 42.2073 26.8362C42.203 26.8279 42.2015 26.8184 42.2027 26.8091V26.329H42.2901C42.3269 26.6986 42.5702 26.8459 42.8264 26.8459C42.8829 26.8474 42.939 26.8376 42.9916 26.817C43.0442 26.7964 43.0921 26.7655 43.1325 26.7261C43.1729 26.6866 43.205 26.6394 43.2268 26.5874C43.2486 26.5353 43.2597 26.4793 43.2595 26.4229C43.2595 26.2063 43.1433 26.0287 42.6423 25.701C42.4619 25.5797 42.2388 25.4498 42.2388 25.0867C42.2388 24.7871 42.5723 24.5511 42.9556 24.5511C43.1135 24.5484 43.271 24.5693 43.4227 24.6132C43.4304 24.6154 43.437 24.6204 43.4413 24.6271C43.4455 24.6339 43.4471 24.6421 43.4458 24.65V25.0831" fill="#7A6A66"/>
<path d="M44.7011 26.8372C45.0014 26.8004 44.9899 26.817 44.9899 26.5066V25.9934L44.4737 24.9763C44.364 24.7597 44.2709 24.676 44.1172 24.676V24.5894H44.9675V24.676C44.7141 24.676 44.7365 24.803 44.8231 24.9763L45.2266 25.8129L45.6865 24.9763C45.7991 24.7727 45.6937 24.676 45.4959 24.676V24.5894H46.1838V24.676C46.0892 24.676 45.9997 24.72 45.9102 24.8795L45.353 25.8901C45.3224 25.9674 45.3088 26.0504 45.3133 26.1334V26.5066C45.3133 26.817 45.2995 26.8004 45.602 26.8372V26.9238H44.7055" fill="#7A6A66"/>
<path d="M46.7281 26.8372C47.0291 26.8004 47.0168 26.817 47.0168 26.5066V25.0066C47.0168 24.6962 47.0305 24.7135 46.7281 24.676V24.5894H47.6261V24.676C47.325 24.7135 47.3373 24.6962 47.3373 25.0066V26.56C47.3373 26.7939 47.468 26.817 47.7647 26.817C48.2483 26.817 48.2281 26.6806 48.3811 26.3232H48.4649L48.3645 26.9238H46.7266" fill="#7A6A66"/>
<path d="M49.6299 24.676C49.4472 24.676 49.313 24.7294 49.4227 25.0492C49.5541 25.4433 49.7468 26.0165 49.9208 26.5232C50.1373 26.0136 50.338 25.4996 50.5437 24.99C50.6274 24.7799 50.5437 24.676 50.3134 24.676V24.5894H51.0353V24.676C50.9734 24.6742 50.9127 24.6929 50.8626 24.7292C50.8125 24.7655 50.7757 24.8173 50.7581 24.8767C50.4773 25.5595 50.1943 26.2402 49.9143 26.9238H49.7432C49.5396 26.3463 49.3101 25.7032 49.1087 25.1365C48.9859 24.7799 48.8827 24.676 48.7225 24.676V24.5894H49.6291" fill="#7A6A66"/>
<path d="M51.5875 26.1499L51.4345 26.5968C51.3911 26.7267 51.4547 26.8364 51.6012 26.8364V26.9237H50.9948V26.8364C51.0463 26.834 51.0961 26.8171 51.1385 26.7878C51.1809 26.7584 51.2141 26.7177 51.2345 26.6704C51.3789 26.3773 51.768 25.2866 52.0444 24.5496H52.2321C52.458 25.2202 52.798 26.2474 52.9121 26.5433C52.9843 26.731 53.0384 26.8364 53.1821 26.8364V26.9237H52.4046V26.8364C52.6154 26.8364 52.6349 26.7267 52.5815 26.5801L52.4371 26.147L51.5875 26.1499ZM52.3945 26.0207L52.0408 24.9379H52.0343L51.6373 26.0207H52.3945Z" fill="#7A6A66"/>
<path d="M55.7497 26.9239C55.2191 26.2973 54.6669 25.6397 54.1262 25.0001V26.4741C54.1282 26.5345 54.1348 26.5945 54.1457 26.6539C54.1623 26.7744 54.2757 26.8206 54.4958 26.8372V26.9239H53.6787V26.8372C53.8389 26.8206 53.9487 26.7744 53.9674 26.6539C53.978 26.5945 53.9845 26.5344 53.9869 26.4741V24.9027C53.8938 24.7836 53.7899 24.6767 53.6 24.6767V24.5894H54.2071C54.7044 25.1929 55.2177 25.8072 55.7179 26.4106H55.7244V25.0391C55.722 24.9788 55.7155 24.9188 55.7049 24.8594C55.6876 24.7388 55.5743 24.6926 55.3548 24.676V24.5887H56.1676V24.676C56.0103 24.6926 55.8962 24.7388 55.8789 24.8594C55.868 24.9187 55.8613 24.9788 55.8587 25.0391V26.9231" fill="#7A6A66"/>
<path d="M57.3271 26.5066C57.3271 26.817 57.3141 26.8004 57.6158 26.8372V26.9238H56.72V26.8372C57.0188 26.8004 57.0087 26.817 57.0087 26.5066V25.0066C57.0087 24.6962 57.021 24.7135 56.72 24.676V24.5894H57.6115V24.676C57.3119 24.7135 57.3227 24.6962 57.3227 25.0066" fill="#7A6A66"/>
<path d="M58.7209 26.1499L58.5678 26.5968C58.5245 26.7267 58.588 26.8364 58.7346 26.8364V26.9237H58.1275V26.8364C58.1791 26.8339 58.2289 26.8171 58.2714 26.7877C58.3139 26.7584 58.3473 26.7177 58.3679 26.6704C58.5122 26.3773 58.902 25.2866 59.1778 24.5496H59.3648C59.5921 25.2202 59.9321 26.2474 60.0455 26.5433C60.1176 26.731 60.1718 26.8364 60.3154 26.8364V26.9237H59.5387V26.8364C59.7481 26.8364 59.7683 26.7267 59.7149 26.5801L59.5705 26.147L58.7209 26.1499ZM59.5265 26.0207L59.1742 24.9379H59.1662L58.77 26.0207H59.5265Z" fill="#7A6A66"/>
</g>
<defs>
<clipPath id="clip0_509_346">
<rect width="60.2503" height="28" fill="white" transform="translate(0.083252 0.000106812)"/>
</clipPath>
</defs>
</svg>
