<svg width="122" height="28" viewBox="0 0 122 28" fill="none" xmlns="http://www.w3.org/2000/svg">
<g clip-path="url(#clip0_462_170)">
<path d="M109.435 24.6142C109.435 23.7119 108.966 23.3464 108.041 23.3179H106.174V27.886H107.89C108.927 27.8705 109.446 27.3675 109.446 26.5145C109.457 26.3403 109.432 26.1657 109.373 26.0015C109.314 25.8373 109.221 25.6872 109.101 25.5605C109.223 25.4372 109.317 25.2885 109.374 25.1248C109.432 24.9612 109.453 24.7868 109.435 24.6142ZM107.833 27.1497H106.97V25.8794H107.841C108.404 25.8794 108.73 26.0608 108.73 26.5145C108.73 26.8593 108.422 27.1497 107.833 27.1497ZM107.908 25.1768H106.97V24.0205H107.934C108.484 24.0205 108.73 24.1682 108.73 24.6168C108.73 24.959 108.497 25.1768 107.908 25.1768Z" fill="#7A6A66"/>
<path d="M89.5269 25.4075V26.1049H90.888V26.8101C90.5917 27.072 90.2101 27.2167 89.8146 27.2171C89.391 27.2003 88.9903 27.0201 88.6966 26.7145C88.4028 26.4088 88.2387 26.0013 88.2387 25.5773C88.2387 25.1534 88.4028 24.7458 88.6966 24.4402C88.9903 24.1345 89.391 23.9543 89.8146 23.9375C90.0444 23.939 90.2707 23.9944 90.4751 24.0994C90.6795 24.2043 90.8565 24.3558 90.9917 24.5416L91.6372 24.1682C91.4384 23.8715 91.1678 23.6298 90.8505 23.4657C90.5332 23.3016 90.1795 23.2204 89.8224 23.2297C88.5002 23.2297 87.4398 24.1475 87.4398 25.576C87.4307 25.8902 87.4862 26.2029 87.6031 26.4947C87.7199 26.7864 87.8955 27.0511 88.119 27.2721C88.3425 27.4931 88.609 27.6658 88.902 27.7795C89.1951 27.8931 89.5084 27.9453 89.8224 27.9327C90.1746 27.9358 90.5234 27.8631 90.8451 27.7195C91.1667 27.5759 91.4537 27.3648 91.6865 27.1005V25.4075H89.5269Z" fill="#7A6A66"/>
<path d="M119.5 23.3152H118.704V27.8548H121.501V27.1548H119.5V23.3152Z" fill="#7A6A66"/>
<path d="M94.7924 23.3567H93.9965V27.8548H96.7939V27.16H94.7924V23.3567Z" fill="#7A6A66"/>
<path d="M111.751 27.8548H112.671L113.384 25.9907H112.497L111.751 27.8548Z" fill="#7A6A66"/>
<path d="M113.705 23.323L115.466 27.8549H116.386L114.574 23.323H113.705Z" fill="#7A6A66"/>
<path d="M101.38 23.2194C100.907 23.2189 100.445 23.3586 100.052 23.621C99.6581 23.8833 99.3513 24.2565 99.17 24.6932C98.9887 25.1299 98.941 25.6106 99.0329 26.0745C99.1249 26.5384 99.3523 26.9645 99.6865 27.2991C100.021 27.6336 100.447 27.8616 100.91 27.954C101.374 28.0464 101.855 27.9993 102.292 27.8184C102.729 27.6376 103.102 27.3312 103.365 26.938C103.628 26.5449 103.768 26.0826 103.768 25.6097C103.779 25.293 103.725 24.9774 103.609 24.6825C103.493 24.3876 103.318 24.1197 103.094 23.8955C102.87 23.6713 102.602 23.4956 102.307 23.3792C102.013 23.2629 101.697 23.2085 101.38 23.2194ZM101.38 27.2379C100.571 27.2379 99.874 26.6105 99.874 25.6097C99.874 24.609 100.571 23.979 101.38 23.979C102.189 23.979 102.889 24.609 102.889 25.6097C102.889 26.6105 102.192 27.2379 101.38 27.2379Z" fill="#7A6A66"/>
<path d="M110.48 0.578125V3.08257H113.304V3.06183H121.501V0.578125H110.48Z" fill="#7A6A66"/>
<path d="M110.48 7.19189V16.6626H121.501V14.1789H113.304V9.69375H121.496V7.19189H110.48Z" fill="#7A6A66"/>
<path d="M9.71652 16.6601H6.63911L0.219849 0.316406H3.47874L9.71652 16.6601Z" fill="#7A6A66"/>
<path d="M10.8572 7.04418H13.9943L16.6387 0.316406H13.3798L10.8572 7.04418Z" fill="#7A6A66"/>
<path d="M73.292 0.316406L79.5298 16.6627H82.7887L76.3668 0.316406H73.292Z" fill="#7A6A66"/>
<path d="M66.3699 16.6626H69.6288L72.1514 9.93481H69.0118L66.3699 16.6626Z" fill="#7A6A66"/>
<path d="M95.0957 7.71556V10.1915H99.9205V12.683C98.8714 13.6108 97.5204 14.125 96.1198 14.1296C92.9361 14.1296 90.5742 11.6719 90.5742 8.31963C90.5742 4.91815 92.9361 2.50704 96.1198 2.50704C96.9347 2.51449 97.7364 2.71392 98.4598 3.08914C99.1832 3.46436 99.808 4.00482 100.283 4.66667L102.575 3.34186C101.305 1.49593 99.2465 0 96.1198 0C91.4531 0 87.6809 3.2563 87.6809 8.31963C87.6809 13.383 91.4402 16.6626 96.1198 16.6626C97.3676 16.6753 98.6036 16.4191 99.7435 15.9113C100.883 15.4035 101.901 14.6561 102.726 13.72V7.71556H95.0957Z" fill="#7A6A66"/>
<path d="M25.8735 0.578125H23.0527V16.6626H25.8735V0.578125Z" fill="#7A6A66"/>
<path d="M36.2777 0.578125H33.4569V16.66H43.3658V14.1763H36.2777V0.578125Z" fill="#7A6A66"/>
<path d="M53.7699 0.578125H50.9492V16.6626H60.8606V14.1789H53.7699V0.578125Z" fill="#7A6A66"/>
</g>
<defs>
<clipPath id="clip0_462_170">
<rect width="121.281" height="28" fill="white" transform="translate(0.219849)"/>
</clipPath>
</defs>
</svg>
