<svg xmlns="http://www.w3.org/2000/svg" viewBox="0 0 512 137"><path d="M0,74C0,36.42,17.75,5.67,38.84,5.67c8.62,0,13.36,3.69,15.65,3.69s2.63-4.22,6.32-4.22c2.64,0,4.4,2.81,5.45,7.73L70.13,31c1.05,4.93,2.28,9.14,2.28,11.25a4.32,4.32,0,0,1-4,4.57c-2.28,0-3.69-1.4-5.1-4.21C55.36,26.93,50.09,17.79,41.83,17.79c-13,0-20,23.73-20,54.66,0,31.11,6.51,51.85,22.33,51.85,11.24,0,18.28-10.19,20-25.13.35-2.81,1.58-6.15,5.1-6.15,3,0,4.75,2.64,4.75,6.68C74,122.19,60.11,137,40.25,137,14.41,137,0,109.89,0,74Z" style="fill:#210700"/><path d="M82.26,90.91c0-26.36,14.41-47.81,37.44-47.81,21.44,0,35.67,18.63,35.67,46.4,0,26-14.58,47.46-37.43,47.46C96.67,137,82.26,118.5,82.26,90.91ZM135.69,96c0-25-7.91-42.54-18.63-42.54-10,0-15.12,11.78-15.12,30.94,0,24.78,7.74,42.18,18.46,42.18C130.59,126.59,135.69,115.16,135.69,96Z" style="fill:#210700"/><path d="M164.69,130.28c0-6.15,7.56-1.93,7.56-15.82V26.93c0-10.89-8.44-5.8-8.44-12.3,0-2.81,2.29-4.39,11.43-9.32C183.85.57,185.08,0,186.66,0c2.46,0,3.69,1.76,3.69,5.63V114.46c0,13.89,7.56,9.67,7.56,15.82a3.92,3.92,0,0,1-4,3.87c-3,0-6.33-.53-12.48-.53s-9.49.53-12.48.53A3.88,3.88,0,0,1,164.69,130.28Z" style="fill:#210700"/><path d="M282.1,125.53c0,3.52-5.45,9.5-14.24,9.5-5.8,0-11.6-3.7-14.41-11.25-4.22,6.68-12.3,11.77-22.5,11.77-14.41,0-24.78-11.25-24.78-26.36,0-15.29,10.72-27.77,28.47-27.77a30.25,30.25,0,0,1,14.06,3.16l-.17-2.46c-.7-8.79-2.64-24.43-14.76-24.43-5.1,0-9.5,3-14.07,7.73-2.46,2.11-3.86,2.64-5.09,2.64a3.79,3.79,0,0,1-3.87-3.87c0-1.93,1.23-4.39,3-6.5a31.92,31.92,0,0,1,26.19-13.18c19.51,0,24.43,16,26,32.16l3.16,29.88c1.06,9.67,1.76,13.71,10.55,16A2.86,2.86,0,0,1,282.1,125.53Zm-30.41-11.42-1.93-19.69a21.24,21.24,0,0,0-11.07-3.33c-8.26,0-14.06,5.62-14.06,16,0,9.84,5.27,16.87,12.47,16.87C243.43,124,249.06,119.73,251.69,114.11Z" style="fill:#210700"/><path d="M362.42,88.45c0,28.47-15.11,47.63-33.92,47.63-12.83,0-17.75-6-21.79-6-3.87,0-8.09,5.28-11.25,5.28-2.64,0-3.87-2.11-3.87-5.1V26.93c0-10.89-9.49-5.8-9.49-12.3,0-2.81,3.16-4.57,12.13-9.49C302.84.39,304.42,0,305.83,0c3,0,3.86,3,3.86,5.27V58.57C314.62,49.78,322.53,44,333.42,44,350.3,44,362.42,61.56,362.42,88.45Zm-19,6.15c0-21.44-7.38-37.26-18.1-37.26-8.44,0-15.65,10-15.65,27.77V97.24c0,17.57,6.86,28.65,17.23,28.65C336.41,125.89,343.44,115.34,343.44,94.6Z" style="fill:#210700"/><path d="M433.08,52.42c0,3.34-1.58,9-4,16.34-1.06,3-2.29,4.75-4.57,4.75s-3.34-1.58-4.57-4.92c-2.11-5.63-4-7-6.5-7-6.51,0-14.59,12.12-14.59,36v16.87c0,13.89,8.78,9.67,8.78,15.82a3.82,3.82,0,0,1-4,3.87c-3.16,0-7-.53-13.88-.53-6,0-9.32.53-12.31.53a3.82,3.82,0,0,1-4-3.87c0-5.62,7.38-1.93,7.38-15.82V72.1c0-10.72-8.26-6-8.26-12.3,0-3,2.82-4.75,11.78-9.67,8.26-4.57,9.31-4.92,10.9-4.92,3.34,0,3.69,3.52,3.69,6.68V67.53c4-13.35,13-23,23.55-23C428.16,44.51,433.08,47.67,433.08,52.42Z" style="fill:#210700"/><path d="M512,125.53c0,3.52-5.45,9.5-14.24,9.5-5.8,0-11.6-3.7-14.41-11.25-4.22,6.68-12.3,11.77-22.5,11.77-14.41,0-24.78-11.25-24.78-26.36,0-15.29,10.72-27.77,28.48-27.77a30.28,30.28,0,0,1,14.06,3.16l-.18-2.46c-.7-8.79-2.64-24.43-14.76-24.43-5.1,0-9.49,3-14.06,7.73-2.46,2.11-3.87,2.64-5.1,2.64a3.79,3.79,0,0,1-3.87-3.87c0-1.93,1.23-4.39,3-6.5a31.92,31.92,0,0,1,26.19-13.18c19.51,0,24.43,16,26,32.16L499,106.55c1.06,9.67,1.76,13.71,10.55,16A2.86,2.86,0,0,1,512,125.53Zm-30.41-11.42-1.93-19.69a21.21,21.21,0,0,0-11.07-3.33c-8.26,0-14.06,5.62-14.06,16,0,9.84,5.27,16.87,12.48,16.87C473.33,124,479,119.73,481.59,114.11Z" style="fill:#210700"/></svg>