<svg width="91" height="28" viewBox="0 0 91 28" fill="none" xmlns="http://www.w3.org/2000/svg">
<g clip-path="url(#clip0_509_334)">
<path d="M9.15689 0.000106812C6.16862 0.000106812 4.58058 0.200747 3.88474 0.200747C2.72359 0.200747 1.69477 0.166596 0.665955 0.166596C0.102455 0.166596 0 0.200747 0 0.43127C0 0.828282 0.132337 0.858165 1.62647 0.858165C2.5571 0.858165 3.08645 1.15699 3.08645 3.77812V19.0439C3.08645 19.5391 3.02241 19.6074 1.52828 19.6074C0.798293 19.6074 0.597652 19.6714 0.597652 20.0044C0.597652 20.3374 0.832444 20.3715 1.16115 20.3715C2.22412 20.3715 2.95411 20.2392 4.34579 20.2392C5.80576 20.2392 7.20171 20.5679 8.61473 20.5679C13.2252 20.5679 16.2988 18.8091 16.2988 15.0951C16.2988 12.2093 14.3437 11.0823 12.7812 10.284C12.1195 9.95102 11.5005 9.78453 11.5005 9.72049C11.5005 9.65646 12.2305 9.25518 12.8623 8.82401C13.904 8.09402 15.3383 6.93287 15.3383 4.57641C15.3383 2.21996 13.4728 0.000106812 9.15689 0.000106812ZM66.0021 0.0385273C64.8572 0.387425 63.675 0.599503 62.4803 0.670331C61.9936 0.700214 61.7588 0.670331 61.7588 1.01612C61.7588 1.3619 62.0491 1.39178 62.5699 1.39178C63.8506 1.39178 64.0384 1.39178 64.0384 3.21035V19.1292C64.0384 19.6458 63.5518 19.6202 62.365 19.6202C61.6734 19.6202 61.6436 19.7909 61.6436 19.9958C61.6436 20.2007 61.7033 20.2819 62.365 20.2819C62.7919 20.2819 64.2988 20.2264 65.2807 20.2264C65.8015 20.2264 66.4376 20.2819 66.8687 20.2819C67.9061 20.2819 68.111 20.2819 68.111 19.9958C68.111 19.7098 68.1665 19.5689 66.7236 19.5689C66.2028 19.5689 66.0021 19.253 66.0021 16.8582C66.0021 16.0044 66.1473 13.7418 66.1473 2.74504C66.1473 1.89125 66.2924 0.841089 66.2924 0.495304C66.2924 0.14952 66.1473 0.0342583 66.0021 0.0342583V0.0385273ZM42.0448 0.064141C41.8058 0.064141 40.0982 0.700214 38.0064 0.700214C37.6862 0.700214 37.6307 0.815475 37.6307 1.10576C37.6307 1.3064 37.746 1.39178 38.9114 1.39178C39.6884 1.39178 39.9232 1.65219 39.9232 3.70128C39.9232 9.79306 39.8335 18.331 39.8335 19.1677C39.8335 19.5946 39.5731 19.5946 38.5955 19.5946C37.8997 19.5946 37.7417 19.7397 37.7417 19.9702C37.7417 20.2008 37.9125 20.2562 38.5955 20.2562C38.9968 20.2562 40.064 20.2007 41.0459 20.2007C42.0278 20.2007 43.2956 20.2562 43.7311 20.2562C44.3671 20.2562 44.508 20.2562 44.508 19.9702C44.508 19.6842 44.3928 19.5946 43.7311 19.5946C41.9424 19.5946 41.9979 19.5946 41.9979 18.237V16.427C41.9979 16.1666 42.4248 15.966 42.8517 15.6757C43.1654 15.4379 43.5048 15.2361 43.8634 15.0737C44.0342 15.0737 45.2465 16.888 46.4589 18.2755C47.6713 19.6629 47.9317 20.38 48.4525 20.38C48.8538 20.38 49.7332 20.3544 50.0662 20.3544C50.3266 20.3544 50.7023 20.38 51.048 20.38C51.6841 20.38 51.9018 20.3245 51.9018 20.1196C51.9018 19.9147 51.6713 19.7482 50.9797 19.7482C49.9979 19.7482 49.0758 18.331 48.0939 17.1485C46.0747 14.7237 45.5326 14.1602 45.5326 13.9169C45.5326 13.6735 47.3554 12.4441 48.7983 11.0183C49.6948 10.1645 50.6724 8.91366 50.6724 8.65326C50.6724 8.56788 50.5571 8.53799 50.3266 8.53799C49.9808 8.53799 48.3074 8.62337 47.9317 8.62337C47.556 8.62337 47.0395 8.53799 46.7492 8.53799C46.3735 8.53799 46.2284 8.59349 46.2284 8.82828C46.2284 9.06307 46.3735 9.14418 46.809 9.14418C48.0897 9.14418 48.1622 9.19968 48.1622 9.66073C48.1622 10.2669 47.9018 10.7578 46.7791 11.8251C45.8527 12.6789 42.8517 15.347 42.1302 15.347C42.0448 15.347 42.0149 15.2616 42.0149 15.1463C42.0149 10.4505 42.19 7.21035 42.19 2.82188C42.19 1.89979 42.2455 0.687407 42.2455 0.31174C42.2455 0.140982 42.19 0.0513341 42.0448 0.0513341V0.064141ZM8.16222 0.79413C11.1804 0.79413 12.5763 3.97876 12.5763 5.63938C12.5763 8.26051 11.4792 8.89232 10.5187 9.62231C9.38578 9.48214 8.24504 9.41513 7.10352 9.42167C6.3095 9.42167 5.87834 9.4857 5.87834 8.95635V1.75891C5.87834 1.09296 5.97652 0.79413 8.16649 0.79413H8.16222ZM22.7108 8.26051C20.0854 8.26051 17.3447 10.6853 17.3447 14.7536C17.3447 19.5732 20.8666 20.7301 23.2316 20.7301C25.5966 20.7301 28.0213 18.9115 28.0213 18.7707C28.0213 18.7109 27.936 18.5401 27.7908 18.5401C26.8114 18.9847 25.75 19.2202 24.6745 19.2317C22.4803 19.2317 19.3938 18.1645 19.3938 14.1815C19.3938 13.5199 19.4792 13.3747 19.9402 13.3277C22.2711 13.178 24.5864 12.844 26.8645 12.3288C27.6457 12.1581 28.0512 12.0428 28.0512 11.9275C28.0512 11.697 27.5859 11.0012 27.095 10.4249C26.0576 9.21249 24.2135 8.26051 22.7108 8.26051V8.26051ZM56.3586 8.26051C53.7332 8.26051 50.9925 10.6853 50.9925 14.7536C50.9925 19.5732 54.5101 20.7301 56.8794 20.7301C59.2487 20.7301 61.6692 18.9115 61.6692 18.7707C61.6692 18.7109 61.5795 18.5401 61.4386 18.5401C60.4592 18.9847 59.3979 19.2202 58.3223 19.2317C56.1281 19.2317 53.0416 18.1645 53.0416 14.1815C53.0416 13.5199 53.127 13.3747 53.5881 13.3277C55.9192 13.1738 58.2345 12.8355 60.5123 12.316C61.2935 12.1453 61.6991 12.03 61.6991 11.9147C61.6991 11.6842 61.2337 10.9884 60.7471 10.4121C59.7054 9.19968 57.8613 8.24771 56.3586 8.24771V8.26051ZM73.0075 8.26051C70.3821 8.26051 67.6414 10.6853 67.6414 14.7536C67.6414 19.5732 71.159 20.7301 73.5283 20.7301C75.8976 20.7301 78.318 18.9115 78.318 18.7707C78.318 18.7109 78.2284 18.5401 78.0875 18.5401C77.1081 18.9847 76.0467 19.2202 74.9712 19.2317C72.777 19.2317 69.6905 18.1645 69.6905 14.1815C69.6905 13.5199 69.7759 13.3747 70.2369 13.3277C72.5681 13.1738 74.8834 12.8355 77.1612 12.316C77.9424 12.1453 78.3479 12.03 78.3479 11.9147C78.3479 11.6842 77.8826 10.9884 77.3917 10.4121C76.3543 9.19968 74.5059 8.24771 73.0075 8.24771V8.26051ZM32.7513 8.45688C32.2903 8.45688 31.7439 8.60203 31.2828 8.60203C30.7022 8.60203 30.1558 8.54653 29.174 8.54653C28.683 8.54653 28.7129 8.63191 28.7129 8.97343C28.7129 9.31494 28.7129 9.26371 29.2337 9.26371C30.8474 9.26371 30.7919 9.31921 30.7919 11.2829V19.1975C30.7919 19.6244 30.7022 19.6244 29.5112 19.6244C28.8196 19.6244 28.7898 19.6799 28.7898 19.9702C28.7898 20.2605 28.8495 20.2562 29.5112 20.2562C29.9381 20.2562 30.8986 20.1111 31.8805 20.1111C32.8623 20.1111 34.7364 20.2562 35.1377 20.2562C35.889 20.2562 35.9189 20.2861 35.9189 19.9702C35.9189 19.6543 35.889 19.6244 35.1377 19.6244C33.0032 19.6244 32.9178 19.6244 32.9178 18.2072V12.2733C32.9178 11.0609 33.5539 10.3694 35.2273 10.3694C36.6702 10.3694 37.016 11.5519 37.4216 11.5519C37.5923 11.5519 38.0534 10.2712 38.0534 9.9937C38.0534 9.24237 36.7257 8.6063 36.2049 8.6063C34.8517 8.6063 33.4941 10.109 33.063 10.109C32.9477 10.109 32.9178 9.90406 32.9178 9.64792C32.9178 9.55827 32.9776 8.92647 32.9776 8.79413C32.9776 8.56361 32.8581 8.47396 32.7428 8.47396L32.7513 8.45688ZM90.3821 8.48677C89.9552 8.48677 89.1953 8.60203 88.7642 8.60203C87.9872 8.60203 87.4835 8.54653 86.6852 8.54653C86.1686 8.54653 86.079 8.54653 86.079 8.9222C86.079 9.20822 86.1943 9.20822 87.0907 9.20822C88.0726 9.20822 88.0726 9.38325 88.0726 10.2498C88.0726 10.6511 87.031 13.665 86.3394 15.7312C85.8784 17.0887 85.7076 17.49 85.4856 17.49C85.3703 17.49 85.0246 16.999 84.794 16.3929C83.0608 11.9489 82.3138 10.9414 82.3138 10.1047C82.3138 9.43874 82.4845 9.25091 83.1676 9.25091C83.7738 9.25091 83.889 9.22103 83.889 8.96062C83.889 8.70021 83.7738 8.53373 83.1676 8.53373C82.2455 8.53373 81.2337 8.6191 80.4269 8.6191C79.7353 8.6191 79.5347 8.55934 78.7193 8.55934C78.2028 8.55934 78.1174 8.70448 78.1174 8.96489C78.1174 9.22529 78.143 9.25518 78.7193 9.25518C79.2956 9.25518 79.4408 9.40032 80.1622 11.1292C81.7503 14.8816 84.0598 20.2178 84.0598 20.5209C84.0598 21.3747 81.5795 24.7899 80.5379 26.0705C79.5603 27.3128 78.2028 27.4878 78.2028 27.6586C78.2028 27.8294 78.4888 27.9489 78.9797 27.9489C79.6158 27.9489 79.8335 27.7184 80.6873 27.6031C81.3234 27.5134 81.6692 27.4878 81.968 26.8518C82.8944 24.9478 84.1921 22.6084 86.0107 18.1943C88.2903 12.6447 89.5582 9.19114 90.1943 9.19114C90.54 9.19114 90.9456 9.046 90.9456 8.78559C90.9456 8.52519 90.8004 8.43981 90.3394 8.43981L90.3821 8.48677ZM22.4205 8.88378C23.7481 8.88378 25.4514 11.0183 25.4514 11.7397C25.4514 11.9147 25.4258 11.9702 25.1057 12.03C22.9413 12.3587 21.3831 12.7258 19.8847 12.7258C19.5347 12.7258 19.539 12.6959 19.539 12.5508C19.539 12.1495 20.2305 8.85817 22.4205 8.85817V8.88378ZM56.0683 8.88378C57.396 8.88378 59.0993 11.0183 59.0993 11.7397C59.0993 11.9147 59.0694 11.9702 58.7535 12.03C56.5891 12.3587 55.0395 12.7258 53.5326 12.7258C53.1825 12.7258 53.1825 12.6959 53.1825 12.5508C53.1825 12.1495 53.8783 8.85817 56.0683 8.85817V8.88378ZM72.7172 8.88378C74.0448 8.88378 75.7481 11.0183 75.7481 11.7397C75.7481 11.9147 75.7183 11.9702 75.4024 12.03C73.2337 12.3587 71.6884 12.7258 70.1729 12.7258C69.8271 12.7258 69.8271 12.6959 69.8271 12.5508C69.8271 12.1495 70.5187 8.85817 72.7129 8.85817L72.7172 8.88378ZM7.06937 10.0535C10.6852 10.0535 13.1398 12.3758 13.1398 15.3598C13.1398 18.2456 11.2828 19.9702 8.75987 19.9702C7.70118 19.9702 6.6254 19.7397 6.27535 19.3427C5.97652 19.0097 5.87407 17.1527 5.87407 16.8539V10.9158C5.87407 10.1858 6.14301 10.062 7.06937 10.062V10.0535ZM23.5219 23.5946C23.3676 23.5787 23.2117 23.5946 23.0638 23.6413C22.9159 23.688 22.7791 23.7645 22.6619 23.8661C22.5447 23.9677 22.4496 24.0923 22.3824 24.232C22.3151 24.3718 22.2773 24.5239 22.2711 24.6789C22.2711 25.9596 23.9787 25.7418 23.9787 26.4633C23.9787 26.7493 23.7567 26.9969 23.3127 26.9969C22.9556 26.9753 22.6121 26.8524 22.3223 26.6426L22.0406 27.1421C22.413 27.4133 22.8605 27.5625 23.3212 27.5689C23.4842 27.5842 23.6485 27.5671 23.8048 27.5187C23.9611 27.4702 24.1063 27.3914 24.2321 27.2867C24.3578 27.182 24.4616 27.0534 24.5376 26.9085C24.6135 26.7635 24.66 26.6049 24.6745 26.4419C24.6745 25.1271 22.9669 25.5241 22.9669 24.649C22.9669 24.363 23.159 24.1538 23.5304 24.1538C23.8405 24.1668 24.1426 24.2562 24.4098 24.4142L24.6489 23.9318C24.3156 23.7146 23.9282 23.5948 23.5304 23.586L23.5219 23.5946ZM37.1227 23.5946C35.9659 23.5946 35.445 24.4227 35.445 25.5839C35.445 26.745 35.9573 27.5775 37.1227 27.5775C38.2882 27.5775 38.8175 26.6853 38.8175 25.5839C38.8175 24.4825 38.2839 23.5946 37.1099 23.5946H37.1227ZM46.1686 23.5946C45.0075 23.5946 44.4611 24.427 44.4611 25.5882C44.4611 26.7493 44.9776 27.5775 46.1686 27.5775C46.6914 27.5691 47.1916 27.3632 47.5688 27.0012L47.2231 26.5743C46.948 26.8386 46.5842 26.9908 46.2028 27.0012C45.4899 27.0012 45.1526 26.4932 45.1526 25.5796C45.1526 24.6661 45.5112 24.1581 46.1942 24.1581C46.5425 24.1629 46.8763 24.2985 47.1291 24.538L47.4792 24.0855C47.127 23.7697 46.6715 23.5935 46.1985 23.5903L46.1686 23.5946ZM60.8282 23.5946C59.667 23.5946 59.1505 24.4227 59.1505 25.5839C59.1505 26.745 59.6628 27.5775 60.8282 27.5775C61.9936 27.5775 62.5059 26.6853 62.5059 25.5839C62.5059 24.4825 61.9893 23.5946 60.8282 23.5946ZM6.9413 23.6501L6.29242 23.7184V27.5134H6.96265V24.9222L8.58912 27.5134H9.18677V23.6714H8.52935V26.2029L6.95838 23.6629L6.9413 23.6501ZM15.539 23.6501V27.4921H17.8997L17.9509 26.9243H16.1921V25.8528H17.6393V25.2851H16.1921V24.2221H17.8186V23.6501H15.539ZM39.667 23.6501V27.4921H40.333V25.8528H41.7545V25.2851H40.333V24.2221H41.9168V23.6501H39.667ZM50.0235 23.6501L49.2423 23.7141L47.8847 27.5134H48.5123L48.8325 26.5871H50.3863L50.7065 27.5134H51.3938L50.0235 23.6714V23.6501ZM56.4653 23.6501V27.4921H57.1355V25.8528H58.5571V25.2851H57.1355V24.2221H58.7193V23.6501H56.4653ZM67.0182 23.6501L66.3693 23.7184V27.5134H67.0395V24.9222L68.7001 27.5134H69.2978V23.6714H68.6275V26.2029L67.0566 23.6629L67.0182 23.6501ZM73.4771 23.6501L72.6916 23.7141L71.3341 27.5134H71.9616L72.2818 26.5871H73.8229L74.143 27.5134H74.8303L73.4643 23.6714L73.4771 23.6501ZM2.50587 23.6501V26.173C2.48593 26.3642 2.50928 26.5574 2.57421 26.7384C2.63914 26.9193 2.74396 27.0833 2.88092 27.2182C3.01787 27.3531 3.18344 27.4555 3.36535 27.5177C3.54725 27.5799 3.74082 27.6003 3.9317 27.5775C4.12231 27.599 4.31533 27.5775 4.49649 27.5144C4.67766 27.4514 4.84235 27.3484 4.9784 27.2132C5.11445 27.078 5.21839 26.9139 5.28253 26.7331C5.34667 26.5524 5.36938 26.3595 5.34899 26.1687V23.6586H4.66596V26.22C4.66596 26.6981 4.46532 27.0097 3.91889 27.0097C3.37247 27.0097 3.16329 26.6981 3.16329 26.2114V23.6501H2.50587ZM10.1515 23.6501V27.4921H10.8218V23.6501H10.1515ZM11.4835 23.6501L12.8111 27.4921H13.5496L14.8815 23.6501H14.2241L13.4856 25.7845C13.4856 25.7845 13.413 26.0022 13.2209 26.6639H13.2038C13.0203 26.0022 12.9477 25.7803 12.9477 25.7803L12.2092 23.6458L11.4835 23.6501ZM18.8175 23.6501V27.4921H19.4877V25.9596H19.8079C20.0512 25.9596 20.1921 26.1858 20.3031 26.4163L20.841 27.5006H21.5795L20.841 26.109C20.7874 26.0003 20.7046 25.9086 20.6019 25.8443V25.8443C20.8176 25.77 21.0034 25.6281 21.1319 25.4396C21.2604 25.2512 21.3245 25.0263 21.3148 24.7984C21.3148 24.1282 20.8879 23.6586 20.0342 23.6586L18.8175 23.6501ZM25.4643 23.6501V27.4921H26.1345V23.6501H25.4643ZM26.9029 23.6501V24.252H27.9232V27.5348H28.5934V24.2477H29.5667L29.6179 23.6799L26.9029 23.6501ZM30.0576 23.6501L31.2743 25.8571V27.5049H31.9445V25.8656L33.1612 23.6586H32.4141L31.8677 24.7557C31.8677 24.7557 31.7994 24.8966 31.6073 25.3235C31.4066 24.8966 31.3341 24.7557 31.3341 24.7557L30.8218 23.6586L30.0576 23.6501ZM51.936 23.6501V27.4921H54.2199L54.2711 26.9243H52.6062V23.6373L51.936 23.6501ZM54.9242 23.6501V27.4921H55.5945V23.6501H54.9242ZM63.0907 23.6501V27.4921H63.7609V25.9596H64.0811C64.3244 25.9596 64.4653 26.1858 64.5763 26.4163L65.1099 27.5006H65.8485L65.1099 26.109C65.0595 25.9995 64.9778 25.9074 64.8751 25.8443V25.8443C65.0943 25.7727 65.2839 25.6312 65.415 25.4415C65.546 25.2518 65.6113 25.0244 65.6009 24.7941C65.6009 24.1239 65.174 23.6543 64.3202 23.6543L63.0907 23.6501ZM70.1217 23.6501V27.4921H70.7919V23.6501H70.1217ZM37.1099 24.1623C37.7759 24.1623 38.0961 24.7429 38.0961 25.5839C38.0961 26.4249 37.7716 27.0054 37.1099 27.0054C36.4482 27.0054 36.1195 26.4206 36.1195 25.5754C36.1195 24.7301 36.4482 24.1623 37.1099 24.1623ZM60.8154 24.1623C61.4813 24.1623 61.8015 24.7429 61.8015 25.5839C61.8015 26.4249 61.4728 27.0054 60.8154 27.0054C60.158 27.0054 59.825 26.4206 59.825 25.5754C59.825 24.7301 60.1494 24.1623 60.8154 24.1623ZM19.4877 24.252H20.0342C20.4909 24.252 20.6403 24.4654 20.6403 24.8283C20.6474 24.9085 20.6364 24.9894 20.6081 25.0648C20.5797 25.1402 20.5348 25.2083 20.4766 25.2641C20.4184 25.3198 20.3484 25.3617 20.2719 25.3868C20.1953 25.4119 20.114 25.4194 20.0342 25.4089H19.4877V24.252ZM63.7567 24.252H64.3074C64.7642 24.252 64.9093 24.4654 64.9093 24.8283C64.9202 24.9088 64.9126 24.9907 64.8871 25.0678C64.8615 25.1449 64.8187 25.2152 64.7619 25.2733C64.7051 25.3313 64.6357 25.3756 64.5592 25.4028C64.4826 25.43 64.4009 25.4394 64.3202 25.4302H63.7567V24.252ZM49.5966 24.3544C49.8613 25.1527 49.9082 25.2765 49.9082 25.2765L50.2071 26.1303H48.9819L49.2807 25.2765C49.2807 25.2765 49.3362 25.1314 49.5966 24.3331V24.3544ZM73.0459 24.3544L73.3533 25.2765L73.6521 26.1303H72.4312L72.73 25.2765C72.73 25.2765 72.7855 25.1314 73.0459 24.3331V24.3544Z" fill="#7A6A66"/>
</g>
<defs>
<clipPath id="clip0_509_334">
<rect width="90.9755" height="28" fill="white" transform="translate(0 0.000106812)"/>
</clipPath>
</defs>
</svg>
