<svg width="71" height="28" viewBox="0 0 71 28" fill="none" xmlns="http://www.w3.org/2000/svg">
<g clip-path="url(#clip0_462_163)">
<path d="M21.2646 16.2235C21.2766 17.0788 21.1189 17.928 20.8007 18.722C20.5098 19.4453 20.0771 20.1033 19.5283 20.6571C18.9903 21.2002 18.3478 21.6286 17.6396 21.9163C16.9037 22.2174 16.1151 22.3684 15.32 22.3603C14.5395 22.3605 13.7667 22.205 13.0469 21.903C12.3393 21.6081 11.6973 21.1756 11.1581 20.6306C10.608 20.0765 10.1733 19.4187 9.87909 18.6955C9.56218 17.9104 9.40449 17.0701 9.41518 16.2235V5.87842H12.3842V11.3127C12.5488 11.1021 12.7456 10.9187 12.9674 10.7693C13.1954 10.5982 13.445 10.4578 13.7096 10.3518C13.976 10.2484 14.251 10.1685 14.5314 10.1132C14.8022 10.0611 15.0774 10.0345 15.3532 10.0337C16.136 10.0286 16.912 10.1809 17.6349 10.4814C18.3578 10.782 19.0129 11.2247 19.5615 11.7833C20.1062 12.3454 20.5382 13.0068 20.8339 13.7317C21.1429 14.525 21.2894 15.3724 21.2646 16.2235V16.2235ZM18.2758 16.2235C18.2811 15.7927 18.2023 15.365 18.0438 14.9643C17.8925 14.5896 17.6671 14.2492 17.3811 13.9636C17.1156 13.6811 16.7954 13.4557 16.44 13.3009C16.0792 13.1408 15.6883 13.0594 15.2935 13.0623C14.8959 13.0601 14.5033 13.1509 14.147 13.3274C13.6196 13.6067 13.1774 14.0232 12.8671 14.5329C12.5569 15.0427 12.39 15.6268 12.3842 16.2235C12.3806 16.6499 12.4594 17.0729 12.6161 17.4694C12.7548 17.8428 12.9691 18.1835 13.2457 18.4701C13.5108 18.7501 13.8283 18.9753 14.1802 19.1329C14.54 19.2968 14.9312 19.3805 15.3267 19.3781C15.7223 19.3829 16.1141 19.2991 16.4732 19.1329C16.827 18.9753 17.1467 18.7502 17.4142 18.4701C17.7003 18.1846 17.9257 17.8442 18.077 17.4694C18.2251 17.0714 18.2926 16.6479 18.2758 16.2235V16.2235Z" fill="#7A6A66"/>
<path d="M34.1546 16.2233C34.1605 17.0551 34.0006 17.8797 33.684 18.6489C33.3883 19.3737 32.9564 20.0351 32.4116 20.5973C31.8722 21.144 31.2334 21.5826 30.5295 21.8896C29.7954 22.1995 29.0067 22.3591 28.21 22.3591C27.4132 22.3591 26.6245 22.1995 25.8904 21.8896C25.1863 21.5794 24.5459 21.1412 24.0017 20.5973C23.4549 20.0354 23.0207 19.374 22.7226 18.6489C22.4114 17.8783 22.2538 17.0544 22.2587 16.2233C22.2525 15.3814 22.4101 14.5464 22.7226 13.7646C23.0191 13.0386 23.4535 12.377 24.0017 11.8162C24.5425 11.27 25.1839 10.8334 25.8904 10.5305C26.6208 10.2161 27.4082 10.0559 28.2033 10.06C28.9982 10.0535 29.7866 10.2044 30.5229 10.504C31.2284 10.7871 31.8688 11.2111 32.405 11.75C32.954 12.3087 33.3866 12.971 33.6774 13.6984C34.0012 14.5004 34.1633 15.3585 34.1546 16.2233ZM31.1657 16.2233C31.1757 15.77 31.0946 15.3193 30.9271 14.8979C30.7761 14.534 30.5555 14.2031 30.2777 13.9237C30.0119 13.6415 29.6918 13.416 29.3366 13.261C28.6001 12.9694 27.7801 12.9694 27.0436 13.261C26.6893 13.4143 26.371 13.6401 26.1091 13.9237C25.8354 14.2113 25.6234 14.5518 25.4862 14.9244C25.3242 15.3471 25.2454 15.7972 25.2542 16.2498C25.2507 16.6762 25.3294 17.0992 25.4862 17.4958C25.7638 18.2366 26.3239 18.8372 27.0436 19.1658C27.4031 19.3306 27.7946 19.4143 28.1901 19.411C28.584 19.4123 28.9741 19.3334 29.3366 19.1791C29.6908 19.0221 30.0105 18.7969 30.2777 18.5163C30.5631 18.2303 30.7884 17.8901 30.9404 17.5156C31.0987 17.1036 31.1752 16.6646 31.1657 16.2233V16.2233Z" fill="#7A6A66"/>
<path d="M46.0372 22.1416H42.4121L40.0925 18.5828L37.7598 22.1416H34.1281L38.3761 16.1771L34.1281 10.4446H37.7598L40.0925 13.7582L42.4121 10.4446H46.0372L41.7825 16.1771L46.0372 22.1416Z" fill="#7A6A66"/>
<path d="M61.2334 22.1416H58.112V9.68908H56.5612V6.56104H61.2003L61.2334 22.1416Z" fill="#7A6A66"/>
<path d="M0.938965 0V28H45.9245L44.1087 25.0111H3.76879V2.98225H67.4166V25.0111H58.1716L60.0007 28H70.2199V0H0.938965Z" fill="#7A6A66"/>
<path d="M54.4272 25.0376H47.8795L49.6887 27.9933H56.2232L54.4272 25.0376Z" fill="#7A6A66"/>
</g>
<defs>
<clipPath id="clip0_462_163">
<rect width="69.2809" height="28" fill="white" transform="translate(0.938965)"/>
</clipPath>
</defs>
</svg>
