<svg width="108" height="28" viewBox="0 0 108 28" fill="none" xmlns="http://www.w3.org/2000/svg">
<g clip-path="url(#clip0_462_129)">
<path d="M10.4902 2.60907H12.8321C14.2583 2.39897 15.7148 2.58369 17.0434 3.14319C18.7102 4.146 19.9192 5.76044 20.4124 7.64209C20.7616 8.62815 20.7616 8.62815 21.6039 8.27892H22.2613V0.472609H0.218722V1.84898H1.12261C1.5154 1.84626 1.90381 1.93158 2.25931 2.09866C2.6148 2.26574 2.92834 2.51035 3.1769 2.8145C4.01916 4.17033 4.16296 5.69051 4.16296 13.5995C4.16296 22.0016 3.97808 24.0559 3.1769 25.1036C2.97911 25.3729 2.72304 25.5941 2.4278 25.7506C2.13255 25.9071 1.80577 25.9949 1.47184 26.0075C0.218722 26.2334 0.218722 26.2129 0.218722 26.7675C0.149423 26.953 0.149423 27.1573 0.218722 27.3427H14.1263C14.2183 27.1613 14.2663 26.9607 14.2663 26.7573C14.2663 26.5538 14.2183 26.3532 14.1263 26.1718C13.7894 26.0781 13.4461 26.0094 13.0991 25.9664C12.7238 25.9217 12.3527 25.8462 11.9898 25.7404C11.4701 25.361 11.0584 24.8525 10.7954 24.2653C10.5324 23.678 10.4272 23.0323 10.4902 22.3919C10.2848 21.0361 10.182 18.5504 10.182 16.4961V14.8732H11.0038C12.0275 14.8419 13.0507 14.9525 14.0441 15.2019C14.52 15.496 14.9251 15.8915 15.2305 16.3603C15.5359 16.829 15.7341 17.3594 15.8108 17.9135L15.9957 18.5504H17.2488V9.44987H16.0984L15.9135 10.3332C15.8357 10.8999 15.6261 11.4405 15.3014 11.9114C14.9767 12.3824 14.5461 12.7706 14.0441 13.0449C13.558 13.1896 13.0458 13.2246 12.5445 13.1476H10.182V10.929C10.182 8.62815 10.3053 3.78002 10.3875 3.01993L10.4902 2.60907ZM106.631 18.8996C105.66 17.3367 104.145 16.188 102.379 15.6744C101.024 15.251 99.7721 14.5515 98.7015 13.6201C98.4606 13.3871 98.2803 13.0986 98.1765 12.7799C98.0726 12.4612 98.0483 12.122 98.1057 11.7918C98.1073 11.144 98.3659 10.5234 98.8247 10.0662C99.1357 9.74046 99.5293 9.50536 99.9635 9.38596C100.398 9.26656 100.856 9.26735 101.29 9.38824C102.188 9.64418 103 10.1383 103.64 10.8182C104.28 11.4981 104.725 12.3385 104.926 13.2503C105.255 14.1747 105.296 14.1747 105.891 13.9282L106.261 13.7844V8.66923L105.994 8.54598C103.972 7.83566 101.826 7.54217 99.6875 7.68317C97.8456 7.72984 96.0874 8.46243 94.7572 9.73747C94.154 10.3022 93.6815 10.9919 93.3727 11.7584C93.064 12.5249 92.9266 13.3496 92.97 14.1747C92.9815 15.4363 93.4824 16.6442 94.3669 17.5438C95.3445 18.5052 96.544 19.2108 97.8592 19.5981C101.043 20.8512 101.968 21.6524 101.968 23.1109C101.981 23.726 101.786 24.3274 101.412 24.8165C101.039 25.3055 100.51 25.653 99.9135 25.802C99.1962 25.9596 98.4533 25.9596 97.736 25.802C96.7968 25.4375 95.9583 24.854 95.2901 24.1001C94.6219 23.3462 94.1434 22.4436 93.8944 21.4675L93.6274 20.8101H93.2576C93.0809 20.8232 92.9075 20.8649 92.744 20.9334H92.5386V26.7675H92.8878C94.2757 27.2292 95.7076 27.5459 97.1608 27.7125H99.215C100.106 27.7779 101.002 27.6946 101.865 27.466C102.961 27.2637 103.986 26.778 104.836 26.0573C105.687 25.3365 106.334 24.4057 106.713 23.3574C106.958 22.7719 107.084 22.1433 107.083 21.5086C107.164 20.6143 107.008 19.7145 106.631 18.8996ZM87.2796 8.27892C86.0486 7.76208 84.7222 7.51137 83.3875 7.54323C82.0528 7.57509 80.7399 7.88881 79.5349 8.46381C78.4023 9.01781 77.3985 9.80316 76.5882 10.7692C75.7779 11.7351 75.1791 12.8603 74.8306 14.072C74.3863 15.3938 74.198 16.7883 74.2759 18.1806C74.2612 18.9382 74.3232 19.6952 74.4608 20.4403C74.7926 22.2724 75.677 23.959 76.9954 25.2736C78.3137 26.5883 80.0028 27.4681 81.8357 27.7947C83.0294 27.9451 84.2371 27.9451 85.4307 27.7947C86.6693 27.5764 87.8548 27.1231 88.923 26.4594C89.8067 25.964 90.5546 25.2584 91.1006 24.4051C91.0656 24.2712 91.0038 24.1458 90.9191 24.0364C90.8344 23.9269 90.7284 23.8357 90.6076 23.7683C90.3731 23.8532 90.1518 23.9708 89.9502 24.1175C88.9284 24.7909 87.7219 25.1285 86.499 25.083C85.6873 25.1379 84.8736 25.0115 84.1168 24.7131C83.36 24.4146 82.6791 23.9515 82.1233 23.3574C81.6934 22.9581 81.3386 22.485 81.0757 21.9605C80.4373 20.6834 80.0933 19.2795 80.069 17.8519V17.0507H91.4498V16.6399C91.475 16.2294 91.475 15.8178 91.4498 15.4073C91.4457 13.9568 91.0578 12.5332 90.3253 11.2812C89.5929 10.0291 88.542 8.9933 87.2796 8.27892ZM81.5481 15.3868H80.1101V14.1747C80.5826 11.0728 81.7536 9.22389 83.1916 9.22389C84.6296 9.22389 85.2459 11.0522 85.5129 14.4007V15.3457H84.2803L81.5481 15.3868ZM52.0074 7.601C51.2976 7.57347 50.5919 7.72166 49.9531 8.0324C48.5647 8.70668 47.4433 9.82813 46.769 11.2166L46.5019 11.7096V7.601H46.3992C46.1527 7.601 38.5518 9.12118 38.3053 9.22389C38.0588 9.32661 38.141 9.34715 38.141 9.71692C38.141 10.0867 38.141 10.1483 38.3053 10.1689L39.1065 10.3332C39.3309 10.3387 39.551 10.3952 39.7504 10.4984C39.9497 10.6017 40.1229 10.7489 40.2569 10.929C40.7704 11.6069 40.8732 12.7984 40.8732 17.8725C40.9746 20.1568 40.8784 22.4455 40.5856 24.7133C40.5166 25.0552 40.3432 25.3673 40.0893 25.6065C39.8354 25.8457 39.5135 26.0001 39.1681 26.0485L38.4696 26.1923H38.2026V26.7675C38.1281 26.9591 38.1281 27.1717 38.2026 27.3633H49.6861V26.7675C49.7259 26.571 49.7259 26.3684 49.6861 26.1718C48.9947 26.1449 48.3071 26.0555 47.6318 25.9047C47.264 25.7124 46.9632 25.4131 46.7688 25.0464C46.5745 24.6797 46.4957 24.2628 46.543 23.8505C46.3787 22.659 46.2965 19.1667 46.3376 16.4961C46.3787 13.8255 46.3376 13.6612 46.5635 13.4763C47.251 12.9492 48.1016 12.6802 48.9671 12.7162C49.7829 12.734 50.5838 12.9377 51.309 13.3119C51.5603 13.4515 51.83 13.5552 52.1101 13.6201C52.1101 13.6201 54.1644 8.64869 54.1644 8.42272C53.9015 8.11724 53.5666 7.88212 53.19 7.73864C52.8134 7.59517 52.4069 7.54786 52.0074 7.601ZM38.1615 16.229C38.0898 14.761 37.6683 13.3314 36.9322 12.0593C36.1961 10.7872 35.1667 9.70942 33.9297 8.91575C32.4596 8.12269 30.8241 7.6854 29.1544 7.63902C27.4847 7.59264 25.8274 7.93846 24.3156 8.64869C22.1781 9.77584 20.5642 11.6919 19.8167 13.9899C19.0446 16.5627 19.0446 19.3055 19.8167 21.8783C20.2214 23.2844 20.9779 24.5642 22.0148 25.5966C23.3061 26.8566 24.9711 27.6639 26.7602 27.8974C27.9086 27.9934 29.063 27.9934 30.2114 27.8974C30.634 27.8331 31.0524 27.7439 31.4645 27.6303C33.1366 27.1626 34.641 26.2283 35.8015 24.9368C36.962 23.6453 37.7307 22.05 38.0177 20.3376C38.2228 18.9781 38.271 17.5995 38.1615 16.229ZM29.6156 26.5005C27.5613 27.1168 26.0206 25.1241 25.5071 20.9334C25.3185 18.7393 25.3185 16.5331 25.5071 14.3391C25.9179 10.97 26.9656 9.26498 28.5885 9.26498C28.9159 9.24469 29.2434 9.3031 29.5437 9.43534C29.8439 9.56758 30.1081 9.7698 30.3141 10.0251C31.6905 11.4014 32.3684 14.1337 32.3684 18.2422C32.5393 20.5675 32.1738 22.9009 31.3002 25.0625C30.9144 25.6929 30.3175 26.1661 29.6156 26.3978V26.5005ZM66.5929 8.01186C66.0132 7.93727 65.4264 7.93727 64.8467 8.01186C63.734 8.01091 62.6341 8.24911 61.6215 8.71032L60.9847 8.97738V4.51956C61.096 3.01514 61.096 1.50455 60.9847 0.00012207C60.7382 0.00012207 52.8908 1.49976 52.7675 1.56138C52.7069 1.71305 52.7069 1.8822 52.7675 2.03387C52.7675 2.46527 52.7675 2.44473 53.6919 2.65016C53.9515 2.70837 54.2008 2.80532 54.4315 2.93776C54.8325 3.31484 55.0994 3.81256 55.1916 4.35522C55.4255 5.91858 55.5012 7.50154 55.4175 9.08009V27.1168L55.9722 27.24C56.7939 27.4249 59.1153 27.8152 59.8754 27.8974C61.3931 28.0181 62.9181 28.0181 64.4359 27.8974C66.1206 27.7253 67.7263 27.0968 69.0802 26.0796C70.4341 25.0624 71.4847 23.695 72.1189 22.1248C72.497 21.1171 72.7589 20.0695 72.8996 19.0023C73.0219 17.5568 72.9736 16.102 72.7558 14.6678C72.5354 13.0601 71.8258 11.5592 70.7234 10.3685C69.6209 9.17782 68.1789 8.35508 66.5929 8.01186ZM61.2107 26.1513C61.2107 25.8842 61.0052 16.8864 61.0463 13.2914V10.477L61.6421 10.3332C62.044 10.2756 62.4521 10.2756 62.8541 10.3332C63.2986 10.288 63.7458 10.389 64.1277 10.6208C64.8949 11.1503 65.532 11.8469 65.991 12.6582C66.45 13.4695 66.719 14.3743 66.7778 15.3046C66.9274 16.8005 66.9274 18.3076 66.7778 19.8035C66.6548 21.9777 65.8171 24.0503 64.3948 25.6993C63.9911 26.0828 63.4841 26.3398 62.9363 26.4389C62.5217 26.511 62.0977 26.511 61.6831 26.4389C61.2928 26.4389 61.2928 26.3156 61.2928 26.1513H61.2107Z" fill="#7A6A66"/>
</g>
<defs>
<clipPath id="clip0_462_129">
<rect width="106.905" height="28" fill="white" transform="translate(0.198242 0.00012207)"/>
</clipPath>
</defs>
</svg>
