<svg width="125" height="28" viewBox="0 0 125 28" fill="none" xmlns="http://www.w3.org/2000/svg">
<path d="M108.787 0.151882C104.05 0.910657 99.703 4.68285 98.1204 9.44145C97.6109 10.959 97.4808 11.8587 97.4808 13.7014C97.4808 15.0781 97.5242 15.6417 97.7085 16.4439C98.6298 20.4762 101.275 23.8148 104.939 25.56C109.589 27.7821 115.507 27.1426 118.618 24.0966L119.507 23.2295L119.539 24.747L119.572 26.2754L122.206 26.3079L124.829 26.3296V13.4846V0.639666H122.347C120.071 0.639666 119.854 0.650505 119.8 0.82394C119.767 0.932336 119.713 1.68027 119.67 2.4824C119.637 3.28454 119.583 3.97827 119.55 4.02163C119.529 4.06499 119.279 3.80484 118.998 3.43629C117.068 0.888977 112.797 -0.476816 108.787 0.151882ZM113.719 5.5175C115.149 5.97276 116.125 6.5581 117.198 7.63123C118.271 8.70435 118.759 9.50648 119.214 10.9373C119.431 11.6527 119.464 11.9671 119.464 13.4846C119.464 15.1539 119.442 15.2623 119.117 16.1729C118.672 17.4194 118.217 18.1782 117.307 19.1429C115.507 21.0507 112.797 22.0046 110.076 21.6686C108.039 21.4301 106.467 20.6713 105.101 19.2947C103.378 17.5495 102.619 15.5008 102.749 12.9426C102.901 9.88587 104.527 7.37108 107.215 6.04864C108.656 5.34407 109.437 5.18147 111.334 5.23567C112.635 5.26819 113.112 5.32239 113.719 5.5175Z" fill="#7A6A66"/>
<path d="M19.9016 0.390353C18.5683 0.617985 16.7364 1.39844 15.7825 2.15721C15.5549 2.33065 15.3381 2.4824 15.3056 2.4824C15.2731 2.4824 15.2405 2.11385 15.2405 1.66943V0.856457H12.6932H10.1459L10.1676 13.7231L10.2001 26.6006H12.8016H15.4031L15.4573 18.3083C15.5115 10.8398 15.5332 9.95091 15.7066 9.37641C16.021 8.31413 16.5196 7.51199 17.3109 6.7749C18.5575 5.6259 19.9558 5.08391 21.6684 5.08391C24.3783 5.08391 26.4054 6.49307 27.4026 9.06206C27.9879 10.5688 28.0313 11.2517 28.0313 19.3055V26.6548H30.5244H33.0175V18.9153C33.0175 14.0158 32.9742 10.8614 32.8983 10.3411C32.1612 5.02972 28.7684 1.34424 23.8147 0.47707C22.98 0.325315 20.5736 0.271117 19.9016 0.390353Z" fill="#7A6A66"/>
<path d="M48.4098 0.368761C48.3231 0.39044 47.8787 0.466318 47.4343 0.531355C45.6132 0.834865 43.3044 1.83211 41.7001 3.02447C38.9143 5.09484 37.0174 8.16246 36.4212 11.5878C36.1936 12.9211 36.2694 15.5442 36.5838 16.8992C37.4726 20.8015 39.9983 24.0208 43.5211 25.7877C46.7405 27.392 51.3148 27.6413 54.6318 26.3947C59.2061 24.6604 62.3713 20.8557 63.2059 16.0646C63.4119 14.8614 63.4119 12.6392 63.2059 11.4143C62.4471 7.03514 59.8456 3.59897 55.835 1.65868C54.4909 1.01914 53.4936 0.70479 51.9869 0.477157C51.0981 0.336242 48.9084 0.271204 48.4098 0.368761ZM52.4422 5.91865C53.7104 6.36308 54.8377 7.08933 55.7483 8.04322C57.049 9.40902 57.8078 10.9808 58.0571 12.7801C58.5774 16.5632 56.1602 20.3462 52.4205 21.6144C46.8923 23.5005 41.1798 19.1864 41.505 13.3763C41.5809 12.0105 41.7868 11.2518 42.3938 10.0052C43.1743 8.41177 44.681 6.94842 46.2853 6.21132C47.4776 5.66934 48.3339 5.51759 49.9816 5.55011C51.3474 5.58262 51.5967 5.61514 52.4422 5.91865Z" fill="#7A6A66"/>
<path d="M0.498627 3.45806V6.05957H3.10014H5.70165V3.45806V0.856546H3.10014H0.498627V3.45806Z" fill="#7A6A66"/>
<path d="M62.1761 0.99747C62.1761 1.01915 63.271 3.25211 64.6042 5.96202C65.9375 8.67193 67.6502 12.1948 68.3981 13.7882C71.1405 19.5874 75.1837 27.663 75.5089 27.999C75.6065 28.0966 79.1293 21.0616 84.018 11.0458C85.3079 8.3901 86.9772 5.04065 87.7143 3.58814L89.0693 0.964951H86.2185H83.3676L79.4654 8.83453C76.0617 15.7069 75.5523 16.6716 75.433 16.509C75.2379 16.238 70.0132 5.78859 68.7666 3.15456L67.7152 0.964951H64.9511C63.4227 0.964951 62.1761 0.98663 62.1761 0.99747Z" fill="#7A6A66"/>
<path d="M90.9879 5.83185L88.4081 10.6988V18.6768V26.6548H91.0096H93.6111V13.8098C93.6111 6.74238 93.6002 0.964853 93.5894 0.964853C93.5677 0.975693 92.397 3.1653 90.9879 5.83185Z" fill="#7A6A66"/>
<path d="M0.498627 18.2541V26.6548L3.07846 26.6331L5.64745 26.6006V18.2541V9.90755L3.07846 9.87503L0.498627 9.85335V18.2541Z" fill="#7A6A66"/>
</svg>
