<svg width="97" height="28" viewBox="0 0 97 28" fill="none" xmlns="http://www.w3.org/2000/svg">
<g clip-path="url(#clip0_462_107)">
<path d="M53.4856 11.6978C55.3445 11.6978 56.8515 13.2047 56.8515 15.0636V19.6635C56.8515 19.7875 56.7512 19.8879 56.627 19.8879H55.7294C55.6057 19.8879 55.5049 19.7875 55.5049 19.6635V15.0636C55.5049 13.9482 54.601 13.0441 53.4856 13.0441C52.3702 13.0441 51.4663 13.9482 51.4663 15.0636V19.6635C51.4663 19.7875 51.3655 19.8879 51.2418 19.8879H50.3442C50.22 19.8879 50.1198 19.7875 50.1198 19.6635V15.0636C50.1198 13.2047 51.6267 11.6978 53.4856 11.6978Z" fill="#7A6A66"/>
<path d="M50.3442 11.6978H51.2418C51.3655 11.6978 51.4663 11.7982 51.4663 11.9222V19.2148C51.4663 19.3387 51.3655 19.4391 51.2418 19.4391H50.3442C50.22 19.4391 50.1198 19.3387 50.1198 19.2148V11.9222C50.1198 11.7982 50.22 11.6978 50.3442 11.6978Z" fill="#7A6A66"/>
<path d="M64.7047 19.8879C68.0132 19.8879 70.651 17.2508 70.651 13.9977C70.651 10.7447 68.0132 8.10754 64.7047 8.10754C64.4092 8.10754 63.9228 8.10754 63.2449 8.10754V9.56605H64.7047C67.2706 9.56605 69.3045 11.6001 69.3045 14.1099C69.3045 16.6197 67.2706 18.5416 64.7047 18.5416C64.4017 18.5416 63.9153 18.5416 63.2449 18.5416V19.8879H64.7047Z" fill="#7A6A66"/>
<path d="M62.2364 8.10754H63.3585V19.8879H62.2364C62.1123 19.8879 62.012 19.7875 62.012 19.6635V8.33192C62.012 8.20801 62.1123 8.10754 62.2364 8.10754Z" fill="#7A6A66"/>
<path fill-rule="evenodd" clip-rule="evenodd" d="M36.5442 13.9977C36.5442 10.7447 39.1814 8.10754 42.4344 8.10754C45.6873 8.10754 48.3247 10.7447 48.3247 13.9977C48.3247 17.2508 45.6873 19.8879 42.4344 19.8879C39.1814 19.8879 36.5442 17.2508 36.5442 13.9977ZM42.4344 9.45388C39.9249 9.45388 37.8906 11.4882 37.8906 13.9977C37.8906 16.5072 39.9249 18.5416 42.4344 18.5416C44.9438 18.5416 46.9782 16.5072 46.9782 13.9977C46.9782 11.4882 44.9438 9.45388 42.4344 9.45388Z" fill="#7A6A66"/>
<path d="M91.25 14.5491L93.8769 11.986C93.9191 11.9451 93.9751 11.9222 94.0337 11.9222H95.4667C95.5285 11.9222 95.5791 11.9724 95.5791 12.0344C95.5791 12.0641 95.5674 12.0927 95.5461 12.1137L92.6525 15.0075L96.4856 19.7044C96.5244 19.7524 96.5173 19.8231 96.4697 19.8623C96.4492 19.8787 96.4241 19.8875 96.3982 19.8875L95.0575 19.8853C94.9907 19.8851 94.9276 19.8554 94.8854 19.8041L91.6988 15.9612L91.25 16.41V19.6608C91.25 19.7846 91.1496 19.8851 91.0255 19.8851H90.1279C90.0042 19.8851 89.9034 19.7846 89.9034 19.6608V8.89296C89.9034 8.76904 90.0042 8.66858 90.1279 8.66858H91.0255C91.1496 8.66858 91.25 8.76904 91.25 8.89296V14.5491Z" fill="#7A6A66"/>
<path d="M87.9854 12.9406L87.9427 12.8941C87.231 12.1548 86.2493 11.6978 85.1644 11.6978C84.0502 11.6978 83.0443 12.1506 82.3284 12.912C81.6434 13.6442 81.231 14.6543 81.231 15.7928C81.231 18.1667 82.9921 19.8879 85.1644 19.8879C86.2447 19.8879 87.2235 19.4344 87.9344 18.7004L87.9315 18.6974L87.9808 18.6453C88.0635 18.5579 88.0623 18.4209 87.9787 18.3347L87.3531 17.6916C87.2691 17.605 87.1316 17.6014 87.043 17.6824C86.5661 18.2154 85.8924 18.5416 85.1644 18.5416C83.7259 18.5416 82.5775 17.4133 82.5775 15.7928C82.5775 14.1724 83.7259 13.0441 85.1644 13.0441C85.8945 13.0441 86.5699 13.3722 87.0471 13.908C87.1366 13.9841 87.2707 13.9789 87.3539 13.8936L87.9808 13.2486C88.0639 13.1633 88.066 13.0282 87.9854 12.9406Z" fill="#7A6A66"/>
<path d="M72.1655 15.7928C72.1655 13.4804 73.8668 11.6978 76.0989 11.6978C78.249 11.6978 79.9612 13.4795 80.0302 15.6559C80.0151 15.765 79.9211 15.8489 79.8079 15.8489H74.6559C74.5322 15.8489 74.4314 15.7485 74.4314 15.6246V15.0636C74.4314 14.9397 74.5322 14.8392 74.6559 14.8392H78.5274C78.1579 13.7762 77.1896 13.0441 76.0989 13.0441C74.6609 13.0441 73.512 14.1724 73.512 15.7928C73.512 17.4133 74.6609 18.5416 76.0989 18.5416C76.8273 18.5416 77.5006 18.2154 77.9778 17.6824C78.066 17.6014 78.2035 17.605 78.2879 17.6916L78.9131 18.3347C78.9971 18.4209 78.9979 18.5579 78.9152 18.6453L78.8659 18.6974L78.8688 18.7004C78.1613 19.4323 77.1863 19.8879 76.0989 19.8879C73.8668 19.8879 72.1655 18.1053 72.1655 15.7928Z" fill="#7A6A66"/>
<path fill-rule="evenodd" clip-rule="evenodd" d="M22.5033 6.46814H25.7341C26.026 6.46814 26.2626 6.7048 26.2626 6.99671V8.3181C26.2626 8.61001 26.026 8.84668 25.7341 8.84668H24.2819C23.8005 7.97203 23.2004 7.17198 22.5033 6.46814ZM20.3916 8.84668H14.8987C14.6068 8.84668 14.3702 8.61001 14.3702 8.3181V6.99671C14.3702 6.7048 14.6068 6.46814 14.8987 6.46814C17.0649 6.46814 19.0176 7.38265 20.3916 8.84668ZM20.3916 19.1535C19.0176 20.6175 17.0649 21.5321 14.8987 21.5321C14.6068 21.5321 14.3702 21.2954 14.3702 21.0035V19.6821C14.3702 19.3902 14.6068 19.1535 14.8987 19.1535H20.3916ZM24.2819 19.1535H25.7341C26.026 19.1535 26.2626 19.3902 26.2626 19.6821V21.0035C26.2626 21.2954 26.026 21.5321 25.7341 21.5321H22.5033C23.2004 20.8282 23.8005 20.0282 24.2819 19.1535ZM22.1671 15.9822C21.9319 16.8468 21.5465 17.6495 21.0407 18.3607H14.8987C14.6068 18.3607 14.3702 18.124 14.3702 17.8321V16.5107C14.3702 16.2188 14.6068 15.9822 14.8987 15.9822H22.1671ZM25.4188 15.9822H25.7341C26.026 15.9822 26.2626 16.2188 26.2626 16.5107V17.8321C26.2626 18.124 26.026 18.3607 25.7341 18.3607H24.6763C25.0118 17.6096 25.2633 16.8128 25.4188 15.9822ZM22.3373 12.8109C22.3987 13.1982 22.4306 13.5954 22.4306 14.0001C22.4306 14.4048 22.3987 14.802 22.3373 15.1893H14.8987C14.6068 15.1893 14.3702 14.9527 14.3702 14.6608V13.3394C14.3702 13.0475 14.6068 12.8109 14.8987 12.8109H22.3373ZM25.5366 12.8109H25.7341C26.026 12.8109 26.2626 13.0475 26.2626 13.3394V14.6608C26.2626 14.9527 26.026 15.1893 25.7341 15.1893H25.5366C25.5798 14.7989 25.6019 14.4021 25.6019 14.0001C25.6019 13.5981 25.5798 13.2013 25.5366 12.8109ZM21.0407 9.63949C21.5465 10.3507 21.9319 11.1534 22.1671 12.018H14.8546C14.5627 12.018 14.3261 11.7814 14.3261 11.4895V10.1681C14.3261 9.87616 14.5627 9.63949 14.8546 9.63949H21.0407ZM24.6763 9.63949H25.69C25.9819 9.63949 26.2186 9.87616 26.2186 10.1681V11.4895C26.2186 11.7814 25.9819 12.018 25.69 12.018H25.4188C25.2633 11.1874 25.0118 10.3906 24.6763 9.63949Z" fill="#7A6A66"/>
<path fill-rule="evenodd" clip-rule="evenodd" d="M14.8547 27.8747C7.1919 27.8747 0.980042 21.6629 0.980042 14.0001C0.980042 6.33735 7.1919 0.125488 14.8547 0.125488C22.5174 0.125488 28.7293 6.33735 28.7293 14.0001C28.7293 21.6629 22.5174 27.8747 14.8547 27.8747ZM14.8547 24.7034C20.7659 24.7034 25.5579 19.9114 25.5579 14.0001C25.5579 8.08886 20.7659 3.29683 14.8547 3.29683C8.94341 3.29683 4.15138 8.08886 4.15138 14.0001C4.15138 19.9114 8.94341 24.7034 14.8547 24.7034Z" fill="#7A6A66"/>
</g>
<defs>
<clipPath id="clip0_462_107">
<rect width="95.8687" height="28" fill="white" transform="translate(0.896454 0.00012207)"/>
</clipPath>
</defs>
</svg>
