<svg width="64" height="28" viewBox="0 0 64 28" fill="none" xmlns="http://www.w3.org/2000/svg">
<g clip-path="url(#clip0_509_375)">
<path d="M16.949 13.1343C14.7056 13.1343 14.5274 11.4256 14.5274 10.9224C14.5274 10.3248 14.6637 9.21366 16.1208 8.67902C17.578 8.14439 17.8925 8.0815 18.9303 7.75653V7.50493C18.9303 7.00175 18.9303 6.9074 18.815 6.58243C18.6368 6.00587 18.0707 5.618 17.2845 5.618C16.9352 5.61418 16.5922 5.70972 16.2952 5.89347C15.9982 6.07722 15.7596 6.34161 15.6072 6.65581L15.1879 6.40422C15.4394 5.48172 16.3934 4.55922 18.0287 4.55922C19.1609 4.55922 19.9471 4.88419 20.4084 5.59703C20.7543 6.1736 20.7962 6.94934 20.7962 7.73556C20.7962 8.4484 20.7543 9.23462 20.7543 9.87408C20.7543 10.2934 20.7124 10.7022 20.7124 10.9329C20.7124 11.5094 20.8277 11.9707 21.2889 11.9707C21.4986 11.9707 21.5405 11.8973 21.7083 11.7925L21.9599 12.1174C21.5405 12.694 21.0373 13.1553 20.2092 13.1553C19.5697 13.1553 19.1085 12.8303 18.9198 12.3061C18.6577 12.673 17.9763 13.1343 16.949 13.1343ZM18.9303 8.78385C17.8296 9.10883 17.4312 9.28704 17.1167 9.45476C16.6135 9.70635 16.4039 10.1676 16.4039 10.7651C16.4039 11.2264 16.5821 11.9707 17.6514 11.9707C18.117 11.9747 18.5733 11.8396 18.9617 11.5828V8.77337H18.9303V8.78385ZM0.406877 12.694C0.406877 11.8658 0.406877 11.1635 0.333496 10.3144H0.836679C0.836679 10.849 0.972957 11.2369 1.22455 11.4885C1.57049 11.8763 2.39864 12.1279 3.14293 12.1279C4.70489 12.1279 5.44918 11.5304 5.44918 10.241C5.44918 9.14027 4.77827 8.67903 3.85577 8.02908L3.71949 7.91377L2.72361 7.24286C1.33986 6.32036 0.627019 5.60752 0.627019 4.15038C0.627019 3.43754 0.910059 1.08936 4.35895 1.08936C5.26392 1.10404 6.16714 1.17406 7.06356 1.29902C7.06356 1.41433 7.02163 1.93848 7.02163 2.39973C7.02163 2.93436 7.02163 3.07064 7.06356 3.7101H6.64424C6.64424 3.13354 6.46603 2.7876 6.22492 2.53601C5.89995 2.21104 5.16614 2.03283 4.37992 2.03283C2.53492 2.03283 2.32526 2.95533 2.32526 3.66817C2.32526 4.6326 2.82844 4.97854 3.91867 5.69138L5.16614 6.51954C6.22492 7.23238 7.2208 7.90329 7.2208 9.68539C7.2208 12.673 4.41137 12.9875 3.23728 12.9875C2.28389 13.116 1.3136 13.0154 0.406877 12.694ZM22.7356 5.09385C23.2973 5.12764 23.8611 5.08888 24.4129 4.97854C24.7926 4.90879 25.1622 4.79261 25.5136 4.6326L25.6918 4.74791V5.38737C26.3905 4.86599 27.2416 4.58964 28.1134 4.60115C29.6124 4.60115 30.5768 5.31399 30.8494 6.56147C30.9288 7.05716 30.9674 7.55853 30.9647 8.06053V10.4821C30.9647 11.8344 31.0381 12.2328 31.2897 12.4739C31.5291 12.6496 31.8212 12.7383 32.1178 12.7254V13.1133C31.5832 13.0714 30.6188 13.0399 30.0632 13.0399C29.3189 13.0399 28.4698 13.0819 28.0085 13.1133V12.7254C28.3043 12.7036 28.5894 12.6061 28.8367 12.4424C29.0883 12.1908 29.1197 11.7296 29.1616 10.6918C29.1616 10.3668 29.2036 9.72732 29.2036 9.26607C29.215 8.63621 29.1905 8.00621 29.1302 7.37914C29.0149 6.32036 28.4593 5.81718 27.3795 5.81718C26.8388 5.8068 26.3034 5.92538 25.8176 6.16311V10.5031C25.8176 11.8554 25.891 12.2537 26.1426 12.4948C26.3723 12.658 26.647 12.7459 26.9288 12.7464V13.1343C26.2579 13.0924 25.4297 13.0609 24.9056 13.0609C23.8049 13.0609 23.4484 13.1028 22.809 13.1343V12.7254C23.1549 12.7254 23.5218 12.5892 23.7 12.3795C23.9516 12.0965 23.9831 11.3836 23.9831 9.99988V7.53638C23.9831 6.49857 23.9411 6.07925 23.8049 5.85911C23.6895 5.6809 23.417 5.53414 22.8404 5.53414V5.07289H22.767V5.09385H22.7356ZM33.0194 12.673C33.3653 12.673 33.7322 12.5577 33.9104 12.3271C34.162 12.0441 34.1935 11.3312 34.1935 9.94746V5.80669H33.1347V5.34544C33.5959 5.16723 33.9838 4.95757 34.1935 4.76888C34.1935 4.02459 34.2354 3.09161 34.3298 2.55697C34.6547 0.848251 35.7554 -0.00086841 37.6319 -0.00086841C38.3845 -0.00696895 39.1192 0.228154 39.7285 0.670041L39.7704 0.848251L38.9423 1.98041H38.7326C38.4496 1.3095 38.0198 0.921631 37.2755 0.921631C36.9747 0.915829 36.6816 1.01603 36.4473 1.20467C36.1014 1.55061 36.028 2.09572 36.028 3.16499V4.7584H37.873V5.79621H36.028V10.3877C36.028 11.4885 36.0699 12.0231 36.2062 12.2327C36.4159 12.5787 37.1706 12.6206 37.5166 12.6206V13.0399C36.919 12.998 35.9546 12.9666 35.2732 12.9666C34.2354 12.9666 33.5645 13.0085 33.0299 13.0399L33.0194 12.673ZM42.5484 13.1972C40.0325 13.1972 38.5334 11.6352 38.5334 9.004C38.5334 6.94934 39.6341 4.55922 42.7266 4.55922C45.2425 4.55922 46.7416 6.12118 46.7416 8.75241C46.7416 10.8071 45.6304 13.1972 42.5484 13.1972ZM42.6532 5.51317C42.15 5.51317 41.7622 5.64945 41.4791 5.90104C40.8082 6.4776 40.4832 7.463 40.4832 8.92013C40.4832 9.4967 40.5986 12.2642 42.6218 12.2642C43.125 12.2642 43.5128 12.1279 43.7959 11.8763C44.4668 11.2998 44.7917 10.3144 44.7917 8.85724C44.7813 8.29116 44.6869 5.51317 42.6532 5.51317ZM47.5907 5.05192C48.1673 5.09385 48.7648 5.00999 49.4043 4.91564C49.9074 4.84226 50.2324 4.73743 50.4001 4.6326L50.5364 4.70598V5.41882C50.7885 5.16772 51.0878 4.96897 51.417 4.83403C51.7463 4.6991 52.099 4.63064 52.4548 4.6326C52.9865 4.6114 53.5066 4.79103 53.9119 5.13578V5.38737L53.1991 6.67678H52.8531C52.6435 6.28891 52.2137 5.93249 51.4694 5.93249C51.1532 5.91921 50.8409 6.00736 50.5783 6.18408V10.4192C50.5783 11.5199 50.6203 12.0126 50.7566 12.2327C50.9662 12.5787 51.6791 12.6206 52.0669 12.5787V13.0399C51.4904 12.998 50.505 12.9666 49.8236 12.9666C49.075 12.952 48.3262 12.9765 47.5802 13.0399V12.6206C48.0415 12.5787 48.2931 12.4843 48.4713 12.2747C48.7229 11.9916 48.7543 11.3102 48.7543 9.89505V7.5888C48.7543 6.55098 48.7543 6.13167 48.5761 5.91152C48.4398 5.73331 48.1568 5.62848 47.6117 5.62848V5.09385L47.5907 5.05192ZM59.2268 0.502313C59.73 0.502313 60.359 0.387001 61.1871 0.250722C61.4877 0.197169 61.7852 0.127178 62.0782 0.0410628L62.2144 0.114443C62.1411 0.785353 62.1411 2.32635 62.1411 3.41658V10.1676C62.1411 11.1635 62.1411 11.8029 62.2773 12.0126C62.4136 12.1908 62.6967 12.3376 63.2418 12.3376V12.7569C62.6474 12.7694 62.0551 12.829 61.4701 12.9351C61.1571 12.9779 60.8484 13.048 60.5476 13.1448L60.338 13.0714V12.3585C59.6781 12.8698 58.8665 13.1465 58.0317 13.1448C55.7569 13.1448 54.2998 11.5828 54.2998 9.12979C54.288 8.36148 54.4306 7.59862 54.7191 6.88644C55.432 5.38737 56.8576 4.53825 58.6607 4.53825C59.1948 4.53755 59.7279 4.58315 60.2541 4.67453V2.92388C60.2541 1.88606 60.2541 1.36192 60.0759 1.11032C59.9606 0.932114 59.7929 0.858734 59.1849 0.827285V0.491831H59.2268V0.502313ZM58.9333 11.9812C59.5098 11.9812 59.8977 11.9078 60.2856 11.6562V6.12118C60.1493 5.9849 59.6461 5.54462 58.6502 5.54462C57.0568 5.54462 56.2706 6.64533 56.2706 8.93062C56.2392 9.88456 56.5222 11.9812 58.9333 11.9812ZM13.7098 12.2327C13.4582 12.5577 12.8187 13.1972 11.4664 13.1972C10.177 13.1972 9.47464 12.7359 9.16015 11.6981C9.02387 11.3103 9.02387 10.4926 9.02387 10.0208C9.02387 8.71047 9.02387 7.64121 9.06581 6.39374V5.81718H7.95461V5.4922C8.32499 5.34775 8.6741 5.1538 8.99243 4.91564C9.63189 4.41246 10.0512 3.81493 10.5229 2.92388H10.8689V4.76888H13.6783V5.80669H10.8689V10.1466C10.8689 11.457 11.1205 12.1699 12.326 12.1699C12.7414 12.1838 13.151 12.0704 13.5001 11.8449L13.7098 12.2327Z" fill="#7A6A66"/>
<path d="M53.1152 19.9911C52.9638 19.9863 52.8155 20.0345 52.6959 20.1274C52.6549 20.1542 52.6224 20.1921 52.602 20.2366C52.5816 20.2811 52.5742 20.3305 52.5806 20.379C52.5806 20.5153 52.6225 20.6306 52.7169 20.9136L53.5031 22.9683C53.6184 23.2933 53.7127 23.5449 53.7547 23.7126L54.7191 20.9032C54.8344 20.5782 54.8554 20.5153 54.8554 20.3685C54.8513 20.3276 54.839 20.288 54.8191 20.2519C54.7993 20.2159 54.7724 20.1842 54.7401 20.1589C54.6166 20.0735 54.4708 20.0261 54.3208 20.0226V19.6976C54.4757 19.6907 54.6309 19.7048 54.782 19.7396C54.8973 19.7396 55.107 19.7815 55.2852 19.7815C55.6311 19.7815 56.1343 19.7396 56.344 19.7396V20.0645C56.2077 20.1065 55.8827 20.0226 55.5997 20.8507L53.5765 26.2495C53.2934 27.0357 52.9056 28.0001 51.5218 28.0001C50.9452 28.0001 50.5574 27.8639 50.2324 27.5808V27.4445L50.7356 26.847H50.8719C51.0081 27.172 51.2912 27.3083 51.7 27.3083C52.3395 27.3083 52.6225 26.7317 53.0523 25.5995L53.1676 25.2746L51.4694 20.8403C51.455 20.7772 51.4302 20.717 51.396 20.6621C51.3541 20.5467 51.2597 20.3371 51.2597 20.3371C51.2134 20.2453 51.1409 20.1693 51.0512 20.1189C50.9616 20.0685 50.859 20.0459 50.7565 20.054V19.7291C51.1469 19.7632 51.5388 19.7772 51.9306 19.771C52.1794 19.7752 52.4282 19.7612 52.6749 19.7291C52.8112 19.7291 53.0628 19.6871 53.1781 19.6871V19.9702H53.1362V19.9911H53.1152ZM34.2878 19.9178C34.6337 19.9597 35.0321 19.8758 35.42 19.8025C35.6383 19.7636 35.8525 19.7039 36.0594 19.6242L36.1747 19.6662V20.1274C36.3312 19.9663 36.5187 19.8386 36.7259 19.7521C36.9331 19.6656 37.1557 19.6221 37.3803 19.6242C37.7184 19.6083 38.0493 19.7249 38.3028 19.9492V20.1274L37.8835 20.9556H37.6738C37.5375 20.704 37.2859 20.4943 36.7828 20.4943C36.5782 20.5019 36.3793 20.5634 36.2062 20.6725V23.3457C36.2062 24.0585 36.2481 24.3835 36.3215 24.5198C36.4578 24.7294 36.8981 24.7714 37.1497 24.7714V25.0544C36.8037 25.0125 36.1538 25.0125 35.724 25.0125C35.2208 25.0125 34.6862 25.0125 34.2983 25.0859V24.8028C34.5096 24.8055 34.7146 24.7309 34.8748 24.5932C35.0531 24.415 35.0531 23.9956 35.0531 23.0627V21.5636C35.0531 20.9241 35.0531 20.6411 34.9377 20.5048C34.8644 20.3895 34.6547 20.3266 34.3402 20.3266V19.9387H34.2878V19.9178ZM10.6173 25.0754C9.1182 25.0754 8.23763 24.6141 7.91266 23.6182C7.73445 23.1151 7.73445 22.4861 7.73445 21.9829V19.142C7.73445 18.2929 7.69252 18.1461 7.52479 18.0099C7.45141 17.9365 7.2732 17.8736 7.02161 17.8317V17.5486C7.36754 17.5905 7.98604 17.622 8.33198 17.622C8.92951 17.622 9.29641 17.622 9.68428 17.5486V17.8736C9.47204 17.8652 9.265 17.9405 9.10772 18.0832C8.92951 18.2615 8.92951 18.5864 8.92951 19.5089V22.0248C8.92951 23.5239 9.06579 24.4883 10.7431 24.4883C12.4518 24.4883 12.5566 23.4925 12.5566 21.9724V19.2049C12.5566 18.3558 12.5147 18.209 12.347 18.0728C12.1916 17.9829 12.021 17.9225 11.8438 17.8946V17.6115C12.1687 17.6115 12.5881 17.6534 13.0179 17.6534C13.435 17.6635 13.8523 17.639 14.2653 17.5801V17.905C14.0531 17.8967 13.8461 17.9719 13.6888 18.1147C13.5106 18.2929 13.5106 18.6179 13.5106 19.5404V21.6789C13.5106 22.3498 13.5106 23.1046 13.3009 23.7021C12.9654 24.6141 12.1058 25.0754 10.6173 25.0754ZM20.7543 24.7504C21.0373 24.7085 21.2155 24.677 21.3518 24.5408C21.53 24.3625 21.53 23.9432 21.53 23.0102V21.5112C21.53 20.8717 21.53 20.5467 21.4147 20.4105C21.3413 20.2952 21.2051 20.2323 20.8172 20.2008V19.8758C21.0269 19.9178 21.6034 19.8339 22.0227 19.7605C22.2198 19.7182 22.4127 19.6586 22.5993 19.5823L22.7146 19.6976C22.6727 20.0436 22.6727 20.7983 22.6727 21.7942V23.3247C22.6727 24.0376 22.7146 24.3625 22.788 24.4988C22.8696 24.585 22.9692 24.6523 23.0797 24.6958C23.1902 24.7392 23.3089 24.7579 23.4275 24.7504V25.002C22.9988 24.9639 22.5683 24.9499 22.138 24.9601C21.6034 24.9601 21.0373 25.002 20.7543 25.0334V24.7504ZM22.0647 18.6703C21.6453 18.6703 21.3938 18.4187 21.3938 18.0308C21.3938 17.643 21.6768 17.3599 22.1066 17.3599C22.5364 17.3599 22.7775 17.6115 22.7775 17.9994C22.767 18.4187 22.484 18.6703 22.0647 18.6703ZM43.2298 24.7504C43.5128 24.7085 43.691 24.677 43.8273 24.5408C44.0055 24.3625 44.0055 23.9432 44.0055 23.0102V21.5112C44.0055 20.8717 44.0055 20.5467 43.8902 20.4105C43.8168 20.2952 43.6805 20.2323 43.2927 20.2008V19.8758C43.5023 19.9178 44.0789 19.8339 44.4982 19.7605C44.6969 19.7245 44.8904 19.6646 45.0748 19.5823L45.1901 19.6976C45.1482 20.0436 45.1482 20.7983 45.1482 21.7942V23.3247C45.1482 24.0376 45.1901 24.3625 45.2635 24.4988C45.3451 24.585 45.4447 24.6523 45.5552 24.6958C45.6657 24.7392 45.7844 24.7579 45.9029 24.7504V25.002C45.4672 24.9648 45.0298 24.9508 44.5926 24.9601C44.0579 24.9601 43.4918 25.002 43.2088 25.0334V24.7504H43.2298ZM44.5401 18.6703C44.1208 18.6703 43.8692 18.4187 43.8692 18.0308C43.8692 17.643 44.1523 17.3599 44.5821 17.3599C45.0119 17.3599 45.253 17.6115 45.253 17.9994C45.253 18.4187 44.9595 18.6703 44.5401 18.6703ZM38.9213 24.8238C38.9213 24.2892 38.8793 23.7231 38.8479 23.44H39.1938C39.1938 23.7231 39.2672 23.9747 39.4035 24.111C39.6132 24.3625 39.8647 24.4569 40.326 24.4569H40.3994C40.9759 24.4569 41.2904 24.2053 41.2904 23.7126C41.2904 23.3247 41.0388 23.136 40.6195 22.8844L39.8752 22.4232C39.4874 22.1716 39.0261 21.8257 39.0261 21.0709C39.0261 20.4734 39.2777 20.0121 39.7704 19.7605C40.0954 19.5823 40.5986 19.5823 40.8292 19.5823C41.2932 19.5929 41.7558 19.6385 42.2129 19.7186C42.1781 19.9299 42.1641 20.144 42.171 20.358C42.171 20.4734 42.171 20.9556 42.2129 21.0709H41.867C41.8646 20.8541 41.7909 20.6441 41.6573 20.4734C41.5211 20.2952 41.1961 20.1903 40.8082 20.1903C40.2736 20.1903 39.9801 20.4 39.9801 20.8612C39.9801 21.2072 40.2631 21.3959 40.5147 21.5741H40.5566L41.2695 21.9934C41.7307 22.2764 42.3282 22.6329 42.3282 23.4505C42.3282 24.8343 41.0388 25.0439 40.305 25.0439C39.8349 25.0466 39.3674 24.9722 38.9213 24.8238ZM50.0856 24.4779C49.9057 24.675 49.6849 24.8306 49.4387 24.9338C49.1925 25.037 48.9267 25.0853 48.66 25.0754C47.8318 25.0754 47.3705 24.7923 47.2028 24.111C47.1294 23.8594 47.1294 23.3247 47.1294 23.0522V20.4H46.4166V20.1903C46.6516 20.0986 46.8765 19.9827 47.0875 19.8444C47.4754 19.5194 47.7584 19.1315 48.0834 18.555H48.335V19.7291H50.1066V20.3685H48.335V23.136C48.335 23.9642 48.4713 24.4464 49.2575 24.4464C49.5206 24.4495 49.779 24.3767 50.0018 24.2367L50.0856 24.4779ZM26.0377 19.7081C25.8689 19.7029 25.7001 19.7169 25.5345 19.75C25.2515 19.75 24.958 19.792 24.7483 19.792C24.3604 19.792 23.7839 19.75 23.6161 19.75V20.075C23.6895 20.075 23.9621 20.0331 24.1508 20.4C24.2075 20.5032 24.2532 20.6121 24.2871 20.725C24.324 20.7784 24.349 20.8392 24.3604 20.9032L26.0692 25.1697L26.6038 25.0544L28.4907 20.8612C28.4907 20.8193 28.5327 20.7878 28.5641 20.725C28.606 20.683 28.606 20.6096 28.7423 20.4C28.7961 20.3046 28.8736 20.2245 28.9672 20.1676C29.0608 20.1107 29.1675 20.0788 29.2769 20.075V19.75C29.0673 19.75 28.606 19.792 28.2391 19.792C28.0599 19.7985 27.8805 19.7844 27.7045 19.75C27.5682 19.75 27.3586 19.7081 27.2013 19.7081V19.9911C27.352 19.9908 27.4989 20.0385 27.6206 20.1274C27.6808 20.183 27.7213 20.2565 27.736 20.3371C27.736 20.4524 27.694 20.5467 27.5997 20.8717L26.5619 23.3876C26.5199 23.2513 26.4465 23.0417 26.3522 22.7482L25.6394 20.8612C25.524 20.5782 25.5031 20.4734 25.5031 20.3266C25.5031 20.2532 25.5031 20.1903 25.5765 20.1484C25.7007 20.0305 25.8665 19.9665 26.0377 19.9702V19.6871V19.7081ZM14.4226 19.9178C14.7772 19.9476 15.1343 19.9228 15.4814 19.8444C15.7244 19.7943 15.9628 19.7242 16.1942 19.6347L16.3095 19.7081V20.1274C16.7516 19.7981 17.2888 19.6214 17.84 19.6242C18.8045 19.6242 19.402 20.0855 19.5907 20.8717C19.6392 21.1909 19.6637 21.5133 19.6641 21.8361V23.3667C19.6641 24.2158 19.706 24.4674 19.8737 24.6561C19.9471 24.7294 20.1568 24.7923 20.3769 24.7923V25.0439C20.031 25.0439 19.4125 25.002 19.0665 25.002C18.6288 25.0039 18.1914 25.0284 17.7562 25.0754V24.8238C17.9433 24.7955 18.1241 24.7352 18.2908 24.6456C18.4271 24.5093 18.469 24.1843 18.5005 23.5449V22.6224C18.5076 22.2201 18.4936 21.8177 18.4585 21.4168C18.3851 20.7459 18.0392 20.4209 17.3578 20.4209C17.0145 20.4175 16.6747 20.489 16.3619 20.6306V23.4191C16.3619 24.2682 16.4039 24.5198 16.5716 24.7085C16.645 24.7819 16.8546 24.8448 17.0748 24.8448V25.0963C16.6135 24.981 16.0789 24.981 15.7225 24.981C15.0096 24.981 14.8 24.981 14.4121 25.0544V24.8028C14.6218 24.8028 14.8734 24.7294 14.9887 24.5932C15.1249 24.415 15.1669 23.9537 15.1669 23.0627V21.5636C15.1669 20.9241 15.1669 20.6411 15.0516 20.5048C14.9782 20.3895 14.8 20.2952 14.454 20.3266V19.9282H14.4226V19.9178ZM31.6985 25.0754C30.1051 25.0754 29.235 24.1529 29.235 22.4756C29.235 22.1926 29.3084 19.5928 31.7195 19.5928C32.4323 19.5928 33.0718 19.8758 33.3548 20.379C33.6798 20.8822 33.7008 21.3749 33.7008 21.8047V22.1297H30.3986C30.4009 22.3552 30.4255 22.5799 30.472 22.8006C30.6502 23.8384 31.2163 24.3311 32.2227 24.3311C32.7992 24.3311 33.1452 24.2158 33.4701 24.0061L33.6064 24.2577C33.271 24.7294 32.5581 25.0754 31.6985 25.0754ZM30.4196 21.5217H32.4743C32.4743 20.8822 32.3589 20.1694 31.4364 20.1694C30.6292 20.2113 30.4615 20.9765 30.4196 21.5217Z" fill="#7A6A66"/>
</g>
<defs>
<clipPath id="clip0_509_375">
<rect width="62.9083" height="28" fill="white" transform="translate(0.333496 0.000106812)"/>
</clipPath>
</defs>
</svg>
