<svg width="35" height="28" viewBox="0 0 35 28" fill="none" xmlns="http://www.w3.org/2000/svg">
<g clip-path="url(#clip0_509_344)">
<path d="M13.5028 17.1474C12.533 16.8003 12.1685 16.4992 12.0512 15.4961C12.0195 15.2457 12.0148 14.8971 12.0148 14.8971C12.0148 14.8971 12.2144 14.6087 12.3745 14.4217C13.0211 13.6452 13.4933 13.5992 14.4932 13.8369C14.6073 13.8623 15.0273 13.9526 15.3616 14.0303C15.3498 14.6353 15.2565 15.2361 15.0843 15.8162C14.9065 16.3979 14.6528 16.9536 14.33 17.4691C14.0131 17.347 13.6106 17.1917 13.5028 17.1521V17.1474ZM18.9446 0.0215636V1.82812H19.6625C20.3709 1.82812 21.3724 1.82812 21.767 2.2132C22.5372 3.0309 21.5372 3.77571 20.6117 5.01653C19.1649 6.9451 20.0634 8.20494 21.0222 7.52985C21.5721 7.12417 22.7654 6.23199 23.3533 5.93565C24.5703 5.36357 25.35 6.90073 24.0822 8.57734C23.5831 9.25876 22.6243 10.1272 22.0031 11.0463C21.2393 12.1445 21.5974 13.623 23.0712 12.5248C24.7652 11.2571 25.3643 13.2253 23.5735 15.0889C21.927 16.851 20.9303 18.1236 21.4057 19.6591C21.5848 20.2185 21.7939 20.8365 21.9793 21.369C21.994 21.4062 22.0173 21.4394 22.0475 21.4657L22.0063 21.5433C21.9563 21.5221 21.9019 21.5134 21.8478 21.518H20.8178C20.7655 21.3595 20.2203 19.9032 19.6467 18.3359C19.4613 17.8716 19.2299 17.5436 18.1063 17.2044C17.8607 17.1331 17.6595 17.0697 17.5469 17.0364C17.4751 17.01 17.3976 17.0026 17.322 17.0151C17.2464 17.0276 17.1754 17.0596 17.1159 17.1078C16.8544 17.3011 16.5153 17.5515 16.3917 17.6402C15.715 18.1426 15.3807 18.2963 15.0875 18.2266C14.8625 18.1616 14.75 17.9952 14.7547 17.7052V17.6228C15.0796 17.0955 15.3333 16.5274 15.509 15.9335C15.6867 15.3404 15.7869 14.7268 15.8069 14.1079C15.8165 14.0952 15.8323 14.062 15.8482 14.043C16.0066 13.7989 16.192 13.726 16.4123 13.7926C16.7007 13.8892 16.8877 14.203 17.1825 14.9938C17.2332 15.1364 17.3774 15.5088 17.4851 15.8178C17.5115 15.9016 17.5605 15.9765 17.6268 16.0341C17.6931 16.0917 17.7741 16.1299 17.8607 16.1443C18.0556 16.2029 18.4185 16.3122 18.8115 16.4343C18.8458 16.4447 18.8762 16.4651 18.8987 16.4929L18.97 16.4216C18.9419 16.3964 18.9192 16.3656 18.9034 16.3313C18.4993 15.2394 18.1856 14.39 18.1602 14.3124C17.6848 13.0525 17.3679 12.5391 16.482 11.8894C15.6136 11.2729 14.2888 10.7975 13.5408 10.3601C11.2509 9.06067 11.6392 7.17805 12.9386 7.2557C13.4378 7.2557 14.5709 7.68515 15.3823 7.99417C16.7847 8.51553 16.8243 6.78663 15.013 5.45866C12.7184 3.76303 12.2762 2.88511 12.815 2.19418C13.1035 1.82812 13.8942 1.82812 14.6786 1.82812H15.3125C15.3125 1.37806 15.3125 0.511235 15.3125 0.00888606H0.118454V1.82812C0.493542 1.82189 0.868678 1.83723 1.242 1.87407C2.50976 1.98183 3.47484 2.59986 4.48588 5.20194C5.37489 7.53461 12.674 26.028 13.4236 27.9946H20.8257C21.4596 26.3624 28.5907 8.04963 29.7523 5.11795C30.7887 2.50161 31.8869 1.99451 33.1182 1.89151C33.4113 1.87249 33.7695 1.85189 34.069 1.85823V0.00730133L18.9446 0.0215636Z" fill="#7A6A66"/>
</g>
<defs>
<clipPath id="clip0_509_344">
<rect width="33.96" height="28" fill="white" transform="translate(0.123291 0.000106812)"/>
</clipPath>
</defs>
</svg>
