<svg width="332" height="28" viewBox="0 0 332 28" fill="none" xmlns="http://www.w3.org/2000/svg">
<g clip-path="url(#clip0_462_126)">
<path d="M329.436 24.1544C328.475 24.1544 327.673 24.9558 327.673 26.0376C327.673 27.1188 328.475 27.9203 329.436 27.9203C330.397 27.9203 331.198 27.1188 331.198 26.0376C331.198 24.9558 330.397 24.1544 329.436 24.1544ZM265.664 27.7996H273.755V27.079L272.875 26.8785C272.074 26.678 271.713 26.2376 271.713 25.1154V14.2206H273.596C274.757 14.2206 275.358 14.5009 275.438 16.9447L275.639 22.0717C275.799 26.678 277.121 27.9602 279.365 27.9602C281.647 27.9602 282.248 26.3977 282.248 24.1948V23.2731H281.406V23.9538C281.406 25.4366 281.207 26.478 280.645 26.478C280.125 26.478 280.085 26.0775 279.965 24.2347L279.725 20.7101C279.404 15.9831 278.803 14.3408 275.318 13.6994C278.643 12.8186 280.686 10.3748 280.686 6.88964C280.686 2.36311 277.121 0.200096 273.716 0.200096H260.057V0.921269L260.818 1.08135C262.26 1.40205 262.3 2.16313 262.3 5.40791V21.3505C262.3 24.9159 261.298 26.6381 259.014 26.6381C256.972 26.6381 255.85 25.6366 255.85 21.7509V2.80399C255.85 1.68233 256.21 1.36217 257.092 1.16167L258.173 0.921269V0.200096H249.802V0.921269L250.682 1.16167C251.484 1.40206 251.764 1.72274 251.764 2.84388V21.4707C251.764 25.6765 254.208 28.0001 257.934 28.0001C261.659 28.0001 263.501 25.6765 263.501 21.3505V3.96556C263.501 1.80255 263.942 1.04146 265.704 1.04146C267.106 1.04146 267.708 1.52224 267.708 2.84388V25.1154C267.708 26.2376 267.347 26.6381 266.546 26.8386L265.664 27.079V27.7996ZM319.421 2.84388C319.421 1.72274 319.782 1.36217 320.583 1.20156L321.664 0.961163V0.200096H313.333V0.921269L314.214 1.16167C315.015 1.40206 315.375 1.72274 315.375 2.84388V25.2765C315.375 26.3578 314.936 26.9587 313.693 26.9587C312.251 26.9587 312.05 26.478 311.53 24.115L306.403 0.120309H304.8L299.914 23.3534C299.353 25.9568 299.072 26.5583 297.99 26.8785L297.309 27.079V27.7996H303.038V27.079L302.197 26.9183C300.995 26.678 300.675 26.0376 301.276 22.9928L304.16 8.13148L307.324 23.8741C307.805 26.1573 307.765 26.5982 306.042 26.9183L305.201 27.079V27.7996H326.431V18.6668H325.67C325.27 22.8726 324.429 26.8386 321.024 26.8386H319.421V2.84388ZM306.923 20.349V19.2678H301.516L301.356 20.349H306.923ZM284.572 3.32468V22.4721C284.572 25.3563 284.572 26.7184 283.13 26.9587L282.408 27.079V27.7996H288.297V27.079C285.733 26.7184 285.733 25.8371 285.733 22.7125V4.52663L284.772 3.64537L294.586 27.7996H296.268V5.52809C296.268 2.24342 296.268 1.52224 297.871 1.08135L298.431 0.921269V0.200096H292.382V0.921269L293.063 1.08135C295.106 1.44194 295.106 2.24344 295.106 5.28772V19.2273L295.507 19.1072L288.057 0.200096H282.328V0.921269L282.889 1.08135C283.531 1.28185 283.891 2.00304 284.572 3.32468ZM271.713 1.16167H273.316C274.917 1.16167 276.4 2.20303 276.4 7.41084C276.4 12.7383 275.279 13.259 273.035 13.259H271.713V1.16167ZM245.035 13.7398C245.035 25.3159 244.074 26.9587 241.99 26.9587C239.908 26.9587 238.986 25.3159 238.986 13.8196C238.986 2.6838 239.988 1.08135 241.99 1.08135C244.074 1.08135 245.035 2.6838 245.035 13.7398ZM249.402 13.9802C249.402 6.32906 246.958 0.00012207 241.99 0.00012207C236.984 0.00012207 234.62 6.32906 234.62 13.9802C234.62 21.6712 237.063 28.0001 241.99 28.0001C247.078 28.0001 249.402 21.6712 249.402 13.9802ZM232.257 2.84388C232.257 1.72274 232.537 1.36217 233.338 1.16167L234.219 0.921269V0.200096H225.928V0.921269L226.929 1.16167C227.73 1.36217 228.171 1.64244 228.171 2.80399V22.0717C228.171 24.7553 227.93 26.9183 225.928 26.9183C224.645 26.9183 223.684 25.9169 223.725 25.1962C223.844 23.9538 225.928 24.0347 226.088 22.0312C226.208 20.5894 225.286 19.9884 224.445 19.8687C223.204 19.7081 221.682 20.7495 221.641 22.8327C221.601 25.5164 223.364 27.9602 226.368 27.9602C229.693 27.9602 232.257 25.7169 232.257 21.4302V2.84388ZM98.4649 2.84388C98.4649 1.72274 98.8255 1.36217 99.6264 1.20156L100.708 0.961163V0.200096H92.3763V0.921269L93.2576 1.16167C94.0585 1.40206 94.4191 1.72274 94.4191 2.84388V25.2765C94.4191 26.3578 93.9782 26.9587 92.7364 26.9587C91.2945 26.9587 91.0542 26.478 90.5335 24.115L85.406 0.120309H83.8041L78.9169 23.3534C78.3564 25.9568 78.0756 26.5583 76.9943 26.8785L76.313 27.079V27.7996H82.0415V27.079L81.2001 26.9183C79.9987 26.678 79.678 26.0376 80.279 22.9928L83.1632 8.05119L86.3277 23.8741C86.768 26.1573 86.768 26.5982 85.0459 26.9183L84.2045 27.079V27.7996H105.475V18.6668H104.714C104.314 22.8726 103.472 26.8386 100.067 26.8386H98.4649V2.84388ZM209.984 1.16167H210.866C213.35 1.16167 214.191 5.1271 214.471 9.33345H215.232V0.200096H200.691V9.33345H201.452C201.733 5.1271 202.574 1.16167 205.058 1.16167H205.939V25.1154C205.939 26.2376 205.579 26.6381 204.777 26.8386L203.736 27.079V27.7996H212.389V27.079L211.146 26.7987C210.385 26.5982 209.984 26.3578 209.984 25.1154V1.16167ZM191.679 13.9398L192.92 13.9802C194.723 14.0201 195.243 14.7014 195.605 19.0678H196.365V7.9315H195.605C195.163 11.4167 194.682 12.8984 192.96 12.9388L191.679 12.9787V1.16169H194.443C197.527 1.16169 198.208 5.04734 198.648 9.33348H199.409V0.200122H185.59V0.921295L186.471 1.16169C187.392 1.40209 187.633 1.96317 187.633 2.88433V25.1154C187.633 26.2376 187.273 26.6381 186.471 26.8386L185.59 27.079V27.7996H199.81V18.6668H199.049C198.568 22.8327 198.047 26.8386 194.443 26.8386H191.679V13.9398ZM176.577 13.9398L177.819 13.9802C179.621 14.0201 180.142 14.7014 180.502 19.0678H181.263V7.9315H180.502C180.062 11.4167 179.581 12.8984 177.859 12.9388L176.577 12.9787V1.16169H179.341C182.426 1.16169 183.106 5.12713 183.547 9.33348H184.308V0.200122H170.088V0.921295L171.37 1.16169C172.291 1.40209 172.531 1.96317 172.531 2.88433V25.1154C172.531 26.2376 172.17 26.6381 171.37 26.8386L170.488 27.079V27.7996H184.708V18.6668H183.948C183.467 22.8327 182.946 26.8386 179.341 26.8386H176.577V13.9398ZM160.113 1.16167H161.315C162.917 1.16167 164.399 2.20303 164.399 7.41084C164.399 12.658 163.278 13.259 161.035 13.259H160.113V1.16167ZM154.064 27.7996H162.156V27.079L161.275 26.8785C160.474 26.678 160.113 26.2376 160.113 25.1154V14.2206H161.595C162.757 14.2206 163.358 14.7014 163.438 16.9447L163.638 22.0717C163.799 26.678 165.12 27.9602 167.364 27.9602C169.647 27.9602 170.247 26.3977 170.247 24.1948V23.2731H169.406V23.9538C169.406 25.4366 169.207 26.478 168.645 26.478C168.125 26.478 168.084 26.0775 167.965 24.2347L167.724 20.7101C167.404 15.8629 166.763 14.3408 163.318 13.6994C166.643 12.8186 168.685 10.3748 168.685 6.88964C168.685 2.36311 165.12 0.200096 161.715 0.200096H154.064V0.921269L154.946 1.16167C155.747 1.40206 156.107 1.72274 156.107 2.84388V25.1154C156.107 26.2376 155.747 26.6381 154.946 26.8386L154.064 27.079V27.7996ZM147.936 1.16167H148.817C151.3 1.16167 152.142 5.1271 152.423 9.33345H153.183V0.200096H138.643V9.33345H139.404C139.684 5.1271 140.525 1.16167 143.009 1.16167H143.89V25.1154C143.89 26.2376 143.529 26.6381 142.729 26.8386L141.687 27.079V27.7996H150.139V27.079L149.098 26.8386C148.056 26.5982 147.936 25.7972 147.936 25.1154V1.16167ZM138.682 20.6293C138.682 12.4176 129.67 10.2546 129.67 4.28625C129.67 3.00451 130.151 1.08135 132.153 1.08135C135.037 1.08135 136.119 4.80693 136.6 9.33345H137.361V0.200096H136.88C136.679 1.08136 136.319 1.48236 135.799 1.48236C134.877 1.48236 134.396 0.0400158 132.193 0.0400158C128.788 0.0400158 126.465 2.8843 126.465 6.60935C126.465 13.3792 135.478 16.223 135.478 22.4721C135.478 25.3159 134.156 26.9183 132.353 26.9183C129.67 26.9183 127.907 23.7544 127.426 18.6668H126.665V27.7996H127.146C127.547 26.478 128.067 26.3578 128.508 26.3578C129.269 26.3578 130.07 27.9602 132.393 27.9602C135.959 27.9602 138.682 24.876 138.682 20.6293ZM112.445 2.84388C112.445 1.72274 112.806 1.36217 113.606 1.20156L114.688 0.961163V0.200096H106.356V0.921269L107.238 1.16167C108.039 1.40206 108.399 1.72274 108.399 2.84388V25.1154C108.399 26.2376 108.039 26.6381 107.238 26.8386L106.356 27.079V27.7996H119.455V18.6668H118.694C118.294 22.8726 117.452 26.8386 114.047 26.8386H112.445V2.84388ZM85.9267 20.349V19.2678H80.5194L80.3588 20.349H85.9267ZM62.7739 27.8799H64.4162L68.1413 8.1719H67.5807L71.6663 27.8799H73.1087L77.9958 4.64684C78.5165 2.20302 78.7967 1.36215 79.7583 1.12124L80.5194 0.921269V0.200096H74.8712V0.921269L75.7126 1.08135C76.914 1.32174 77.1943 2.04292 76.6337 5.00689L73.4693 20.5894H73.95L70.7452 4.16604C70.4245 2.60349 70.2245 1.32174 71.5466 1.08135L72.4274 0.921269V0.200096H64.6965V0.921269L65.2172 1.04146C66.0187 1.24144 66.1388 1.72275 66.459 3.24489L67.7009 9.21324L67.4605 5.60788L64.6965 20.1889H65.0571L61.8123 4.16604C61.4517 2.52371 61.3315 1.28185 62.6133 1.04146L63.2148 0.921269V0.200096H55.3233V0.921269L56.0843 1.12124C56.805 1.32174 57.206 1.68234 57.6868 3.88524L62.7739 27.8799ZM41.3831 13.9398L42.625 13.9802C44.4274 14.0201 44.9481 14.7014 45.3087 19.0678H46.0697V7.9315H45.3087C44.8683 11.4167 44.3875 12.8984 42.6649 12.9388L41.3831 12.9787V1.16169H44.1471C47.2313 1.16169 47.9126 5.12713 48.3529 9.33348H49.114V0.200122H35.2946V0.921295L36.1758 1.16169C37.097 1.40209 37.3374 1.96317 37.3374 2.88433V25.1154C37.3374 26.2376 36.9768 26.6381 36.1758 26.8386L35.2946 27.079V27.7996H49.515V18.6668H48.7534C48.2731 22.8327 47.7525 26.8386 44.1471 26.8386H41.3831V13.9398ZM16.187 27.7996H24.3987V27.079L23.4775 26.8785C22.7563 26.7184 22.2756 26.2376 22.2756 25.1154V14.1807H28.3242V25.1154C28.3242 26.2376 27.8439 26.7184 27.1228 26.8785L26.2016 27.079V27.7996H34.4133V27.079L33.532 26.8386C32.7311 26.6381 32.37 26.1972 32.37 25.076V2.84388C32.37 1.72274 32.7311 1.36217 33.532 1.16167L34.4133 0.921269V0.200096H26.2016V0.921269L27.1228 1.16167C27.8035 1.36217 28.3242 1.64244 28.3242 2.80399V13.0989H22.2756V2.80399C22.2756 1.68233 22.7164 1.36217 23.4775 1.16167L24.3987 0.921269V0.200096H16.187V0.921269L17.0683 1.16167C17.8697 1.40206 18.2298 1.72274 18.2298 2.84388V25.1154C18.2298 26.2376 17.8697 26.6381 17.0683 26.8386L16.187 27.079V27.7996ZM10.058 1.16167H10.9398C13.423 1.16167 14.2644 5.1271 14.5447 9.33345H15.3057V0.200096H0.765106V9.33345H1.52618C1.80646 5.1271 2.64783 1.16167 5.13102 1.16167H6.01229V25.1154C6.01229 26.2376 5.65222 26.6381 4.85074 26.8386L3.80938 27.079V27.7996H12.462V27.079L11.2201 26.7987C10.459 26.5982 10.058 26.3578 10.058 25.1154V1.16167Z" fill="#7A6A66"/>
</g>
<defs>
<clipPath id="clip0_462_126">
<rect width="330.433" height="28" fill="white" transform="translate(0.765106 0.00012207)"/>
</clipPath>
</defs>
</svg>
