<svg width="18" height="18" viewBox="0 0 18 18" fill="none" xmlns="http://www.w3.org/2000/svg">
<path d="M5.4975 13.7475C4.875 12.8775 4.875 11.8725 4.875 10.875C6.1275 11.625 7.3725 12.375 8.0025 13.2525L8.25 13.6725V11.9625C7.125 11.2875 6.06 10.5975 5.4975 9.80997C4.875 8.93997 4.875 7.93497 4.875 6.93747C6.1275 7.68747 7.3725 8.43747 8.0025 9.31497L8.25 9.74997V8.02497C7.125 7.34997 6.06 6.65997 5.4975 5.87247C4.875 5.00247 4.875 3.99747 4.875 2.99997C6.1275 3.74997 7.3725 4.49997 8.0025 5.37747C8.0775 5.48247 8.145 5.59497 8.205 5.71497C8.0775 5.24997 7.995 4.81497 7.9875 4.36497C7.98 3.23247 8.475 2.06997 8.97 0.907471C9.4875 2.01747 10.005 3.13497 10.0125 4.26747C10.02 4.73997 9.9375 5.21997 9.8025 5.69247C9.8625 5.58747 9.9225 5.48247 9.9975 5.37747C10.6275 4.49997 11.8725 3.74997 13.125 2.99997C13.125 3.99747 13.125 5.00247 12.5025 5.87247C11.94 6.65997 10.875 7.34997 9.75 8.02497V9.74997L9.9975 9.31497C10.6275 8.43747 11.8725 7.68747 13.125 6.93747C13.125 7.93497 13.125 8.93997 12.5025 9.80997C11.94 10.5975 10.875 11.2875 9.75 11.9625V13.6725L9.9975 13.2525C10.6275 12.375 11.8725 11.625 13.125 10.875C13.125 11.8725 13.125 12.8775 12.5025 13.7475C11.94 14.535 10.875 15.225 9.75 15.9V17.25H8.25V15.9C7.125 15.225 6.06 14.535 5.4975 13.7475Z" fill="#7A6A66"/>
</svg>
