<svg width="18" height="18" viewBox="0 0 18 18" fill="none" xmlns="http://www.w3.org/2000/svg">
<path d="M2.25 2.25H15.75V3.75043C15.3521 3.75043 14.9704 3.90851 14.689 4.18989C14.4077 4.47128 14.2496 4.85292 14.2496 5.25086V14.2505C14.2493 14.6481 14.0913 15.0294 13.8101 15.3105C13.529 15.5917 13.1477 15.7497 12.7501 15.75H5.24989C5.05285 15.75 4.85774 15.7112 4.6757 15.6358C4.49366 15.5604 4.32826 15.4499 4.18893 15.3105C4.0496 15.1712 3.93908 15.0058 3.86368 14.8238C3.78827 14.6417 3.74946 14.4466 3.74946 14.2496V5.24989C3.74921 4.85229 3.59115 4.47104 3.31 4.18989C3.02885 3.90875 2.6476 3.75068 2.25 3.75043V2.25ZM5.24989 3.75043V5.24989H9V6.00011H5.24989V6.75032H7.49957V7.50054H5.24989V8.25075H7.49957V9H5.24989V9.75021H9V10.5004H5.24989V11.2506H7.49957V12.0009H5.24989V14.2505H12.7501V3.75043H5.24989Z" fill="#7A6A66"/>
</svg>
