<svg width="18" height="18" viewBox="0 0 18 18" fill="none" xmlns="http://www.w3.org/2000/svg">
<path d="M9 1.5C10.3924 1.5 11.7277 2.05312 12.7123 3.03769C13.6969 4.02226 14.25 5.35761 14.25 6.75C14.25 8.535 13.3575 10.1025 12 11.055V12.75C12 12.9489 11.921 13.1397 11.7803 13.2803C11.6397 13.421 11.4489 13.5 11.25 13.5H6.75C6.55109 13.5 6.36032 13.421 6.21967 13.2803C6.07902 13.1397 6 12.9489 6 12.75V11.055C4.6425 10.1025 3.75 8.535 3.75 6.75C3.75 5.35761 4.30312 4.02226 5.28769 3.03769C6.27226 2.05312 7.60761 1.5 9 1.5V1.5ZM6.75 15.75V15H11.25V15.75C11.25 15.9489 11.171 16.1397 11.0303 16.2803C10.8897 16.421 10.6989 16.5 10.5 16.5H7.5C7.30109 16.5 7.11032 16.421 6.96967 16.2803C6.82902 16.1397 6.75 15.9489 6.75 15.75ZM9 3C8.00544 3 7.05161 3.39509 6.34835 4.09835C5.64509 4.80161 5.25 5.75544 5.25 6.75C5.25 8.2875 6.1725 9.6075 7.5 10.185V12H10.5V10.185C11.8275 9.6075 12.75 8.2875 12.75 6.75C12.75 5.75544 12.3549 4.80161 11.6517 4.09835C10.9484 3.39509 9.99456 3 9 3V3Z" fill="#7A6A66"/>
</svg>
