<svg width="18" height="18" viewBox="0 0 18 18" fill="none" xmlns="http://www.w3.org/2000/svg">
<path d="M9 0.75C5.25 0.75 2.25 3.75 2.25 7.5V12.75C2.25 13.3467 2.48705 13.919 2.90901 14.341C3.33097 14.7629 3.90326 15 4.5 15H6.75V9H3.75V7.5C3.75 6.10761 4.30312 4.77226 5.28769 3.78769C6.27226 2.80312 7.60761 2.25 9 2.25C10.3924 2.25 11.7277 2.80312 12.7123 3.78769C13.6969 4.77226 14.25 6.10761 14.25 7.5V9H11.25V15H13.5C14.0967 15 14.669 14.7629 15.091 14.341C15.5129 13.919 15.75 13.3467 15.75 12.75V7.5C15.75 3.75 12.7275 0.75 9 0.75Z" fill="#7A6A66"/>
</svg>
