<svg width="18" height="18" viewBox="0 0 18 18" fill="none" xmlns="http://www.w3.org/2000/svg">
<path d="M3.165 8.4675L8.4675 3.165C10.23 1.41 13.0725 1.41 14.835 3.165C16.59 4.92 16.59 7.77 14.835 9.53251L9.53251 14.835C7.77 16.59 4.92 16.59 3.165 14.835C1.41 13.0725 1.41 10.23 3.165 8.4675ZM4.23 9.53251C3.4425 10.3125 3.18 11.43 3.45 12.4275L7.9425 7.9425L11.1225 11.1225L13.77 8.4675C14.9475 7.2975 14.9475 5.4 13.77 4.23C12.6 3.0525 10.7025 3.0525 9.53251 4.23L4.23 9.53251Z" fill="#7A6A66"/>
</svg>
