<svg width="18" height="18" viewBox="0 0 18 18" fill="none" xmlns="http://www.w3.org/2000/svg">
<path d="M15 8.35227C15 11.9472 12.44 15.3089 9 16.125C5.56 15.3089 3 11.9472 3 8.35227V4.46591L9 1.875L15 4.46591V8.35227ZM9 14.8295C11.5 14.1818 13.6667 11.293 13.6667 8.49477V5.30795L9 3.28705L4.33333 5.30795V8.49477C4.33333 11.293 6.5 14.1818 9 14.8295ZM10.8667 8.35227V7.38068C10.8252 6.93099 10.6092 6.51346 10.2626 6.21276C9.91593 5.91205 9.46457 5.75068 9 5.76136C8.53543 5.75068 8.08407 5.91205 7.73743 6.21276C7.3908 6.51346 7.17483 6.93099 7.13333 7.38068V8.35227C6.92578 8.36591 6.73036 8.45218 6.58326 8.5951C6.43617 8.73802 6.34737 8.92789 6.33333 9.12955V11.3966C6.33408 11.6087 6.41665 11.8129 6.56476 11.9688C6.71286 12.1247 6.91574 12.221 7.13333 12.2386H10.8C11.0184 12.2379 11.2285 12.1577 11.3889 12.0138C11.5494 11.8699 11.6485 11.6728 11.6667 11.4614V9.19432C11.6659 8.98217 11.5833 8.778 11.4352 8.62211C11.2871 8.46622 11.0843 8.36994 10.8667 8.35227ZM10 8.35227H8V7.38068C8.00622 7.26073 8.03734 7.14323 8.0915 7.03527C8.14566 6.9273 8.22174 6.8311 8.31515 6.75243C8.40857 6.67377 8.5174 6.61428 8.63509 6.57754C8.75278 6.5408 8.87691 6.52757 9 6.53864C9.12309 6.52757 9.24722 6.5408 9.36491 6.57754C9.4826 6.61428 9.59143 6.67377 9.68485 6.75243C9.77826 6.8311 9.85434 6.9273 9.9085 7.03527C9.96266 7.14323 9.99378 7.26073 10 7.38068V8.35227Z" fill="#7A6A66"/>
</svg>
