<svg xmlns="http://www.w3.org/2000/svg" viewBox="0 0 436.59 512"><rect x="9.92" y="9.92" width="416.74" height="492.16" style="fill:#fff"/><path d="M473.37,512.77H36.78V.77H473.37ZM56.63,492.92h396.9V20.61H56.63Z" transform="translate(-36.78 -0.77)" style="fill:#210700"/><path d="M119.29,349c0-50.29,23.74-91.41,51.94-91.41,11.51,0,17.86,4.93,20.91,4.93s3.53-5.64,8.46-5.64c3.53,0,5.88,3.76,7.29,10.35l5.17,24.2c1.41,6.58,3.05,12.22,3.05,15a5.78,5.78,0,0,1-5.4,6.11c-3.06,0-4.94-1.88-6.82-5.64C193.32,286,186.27,273.8,175.22,273.8c-17.39,0-26.79,31.73-26.79,73.09,0,41.6,8.7,69.33,29.85,69.33,15,0,24.44-13.63,26.79-33.61.47-3.76,2.11-8.22,6.81-8.22,4,0,6.35,3.52,6.35,8.93,0,30.08-18.57,49.82-45.12,49.82C138.56,433.14,119.29,397,119.29,349Z" transform="translate(-36.78 -0.77)" style="fill:#210700"/><path d="M323.74,424.44a4.88,4.88,0,0,1-5.17,4.94c-4.46,0-9.4-.71-17.39-.71-8.46,0-13.63.71-18.09.71-4,0-6.11-1.65-6.11-5.17,0-5.41,7-4,7-12.22,0-3.06-1.18-5.41-3.76-9.87l-11-19.27-12.69,20.21c-2.35,4-3.76,6.81-3.76,9.63,0,7.05,7.52,5.88,7.52,11.52,0,3.29-2.58,5.17-6.58,5.17-3.52,0-8.22-.71-12.92-.71s-8.93.71-12.46.71c-3.05,0-5.4-1.88-5.4-4.7,0-6.35,8.46-5.41,15.74-17.39l22.56-36.67-20.68-36.18c-7.28-12.93-14.8-12.23-14.8-18.1,0-3.29,2.35-4.93,5.17-4.93,4.46,0,9.4.7,16.92.7,8.69,0,13.39-.7,17.86-.7,3.52,0,5.64,1.64,5.64,4.93,0,5.87-6.11,4.47-6.11,11.52,0,2.81,1.64,7.05,4,11l8.93,15.51,10.58-16.68c2.11-3.29,3.76-6.58,3.76-9.87,0-6.35-7.05-5.65-7.05-11.28,0-3.29,2.58-5.17,6.11-5.17,4,0,7.75.7,12,.7,4.47,0,9.4-.7,12.93-.7,2.82,0,5.4,1.64,5.4,4.7,0,6.58-7.75,5.17-14.8,16.21l-21.62,34.31,22.79,39.48C315.75,419.27,323.74,418.57,323.74,424.44Z" transform="translate(-36.78 -0.77)" style="fill:#210700"/></svg>