<svg xmlns="http://www.w3.org/2000/svg" xmlns:xlink="http://www.w3.org/1999/xlink" width="512" height="512" viewBox="0 0 512 512">
  <defs>
    <clipPath id="clip-documents">
      <rect width="512" height="512"/>
    </clipPath>
  </defs>
  <g id="documents" clip-path="url(#clip-documents)">
    <rect width="512" height="512" fill="#fff"/>
    <g id="Group_133" data-name="Group 133" transform="translate(-32.083 175.107) rotate(-30)">
      <g id="color" transform="translate(14.274 13.196)">
        <g id="Group_97" data-name="Group 97">
          <g id="Group_76" data-name="Group 76" transform="translate(26.247 139.829)">
            <g id="Group_75" data-name="Group 75" transform="translate(0 0)">
              <path id="Path_52" data-name="Path 52" d="M27.218,48.128a79.08,79.08,0,0,1,6.824-9.714L36.424,55.79,19.777,58.1,17.8,43.656A46.722,46.722,0,0,1,27.218,48.128Z" transform="translate(-17.797 -38.414)" fill="#fff"/>
            </g>
          </g>
          <g id="Group_78" data-name="Group 78" transform="translate(14.81 60.198)">
            <g id="Group_77" data-name="Group 77">
              <path id="Path_53" data-name="Path 53" d="M32.256,23.208l.88,6.269a83.122,83.122,0,0,0-6.892,9.788A46.268,46.268,0,0,0,16.9,34.792l-1.283-9.311Z" transform="translate(-15.613 -23.208)" fill="#fff"/>
            </g>
          </g>
          <g id="Group_80" data-name="Group 80" transform="translate(16.093 66.466)">
            <g id="Group_79" data-name="Group 79">
              <path id="Path_54" data-name="Path 54" d="M25.206,34.193A83.123,83.123,0,0,1,32.1,24.4l2.419,17.638L17.874,44.352,15.858,29.72A46.268,46.268,0,0,1,25.206,34.193Z" transform="translate(-15.858 -24.405)" fill="#fff"/>
            </g>
          </g>
          <g id="Group_82" data-name="Group 82" transform="translate(19.795 96.238)">
            <g id="Group_81" data-name="Group 81">
              <path id="Path_55" data-name="Path 55" d="M33.213,30.09l.806,5.755A83.729,83.729,0,0,0,26.9,45.926a46.853,46.853,0,0,0-9.055-4.362l-1.283-9.2Z" transform="translate(-16.565 -30.09)" fill="#fff"/>
            </g>
          </g>
          <g id="Group_84" data-name="Group 84" transform="translate(21.078 101.993)">
            <g id="Group_83" data-name="Group 83">
              <path id="Path_56" data-name="Path 56" d="M35.474,49.335,18.826,51.644,16.81,36.908a46.853,46.853,0,0,1,9.055,4.362,83.729,83.729,0,0,1,7.117-10.081Z" transform="translate(-16.81 -31.189)" fill="#fff"/>
            </g>
          </g>
          <g id="Group_86" data-name="Group 86" transform="translate(24.927 133.268)">
            <g id="Group_85" data-name="Group 85" transform="translate(0 0)">
              <path id="Path_57" data-name="Path 57" d="M34.193,37.161l.916,6.562a79.08,79.08,0,0,0-6.824,9.714,46.722,46.722,0,0,0-9.421-4.472l-1.32-9.494Z" transform="translate(-17.545 -37.161)" fill="#fff"/>
            </g>
          </g>
          <g id="Group_88" data-name="Group 88" transform="translate(0 37.433)">
            <g id="Group_87" data-name="Group 87">
              <path id="Path_58" data-name="Path 58" d="M55.277,121.257,54.36,114.7,37.712,117l1.32,9.494,1.98,14.443,16.648-2.309ZM28.878,53.21l2.016,14.632,16.643-2.309L45.117,47.894l-.88-6.269L27.595,43.9Zm4.985,35.93,2.016,14.737,16.648-2.309L50.035,83.421l-.806-5.755L32.58,79.938Zm85.13-70.279,16.789,121.385-58.768,8.138-47.441,6.562L12.785,33.561l64.23-8.908Z" transform="translate(-12.785 -18.861)" fill="#dedede"/>
            </g>
          </g>
          <g id="Group_90" data-name="Group 90" transform="translate(283.119 222.462)">
            <g id="Group_89" data-name="Group 89">
              <path id="Path_59" data-name="Path 59" d="M173.519,172.028h-94C66.65,147.168,66.32,109.044,67.09,80.482c5.719-8.541,10.338-19.245,13.27-26.289h78.71C159.07,74.177,152.692,129.792,173.519,172.028Z" transform="translate(-66.848 -54.193)" fill="#dedede"/>
            </g>
          </g>
          <g id="Group_92" data-name="Group 92" transform="translate(296.631 156.362)">
            <g id="Group_91" data-name="Group 91">
              <path id="Path_60" data-name="Path 60" d="M96.3,41.571v66.1H69.428c.587-1.32,1.063-2.529,1.5-3.556C72.031,101.549,84.348,71.6,96.3,41.571Z" transform="translate(-69.428 -41.571)" fill="#fff"/>
            </g>
          </g>
          <g id="Group_94" data-name="Group 94" transform="translate(158.329)">
            <g id="Group_93" data-name="Group 93">
              <path id="Path_61" data-name="Path 61" d="M76.726,263.066c-5.132,6.708-14.6,12.94-20.974,9.018-3.886-2.419-3.116-11.987,2.566-18.842,1.1-1.32,3.263-4.069,6.232-7.808-5.1,5.829-12.134,10.631-18.292,7.991-5.865-2.529-2.749-11.547,1.356-17.784,1.686-2.566,7.735-11.181,15.14-21.738-3.739,4.4-11.181,12.757-16.643,9.128-4.619-3.079-1.98-11.364,1.026-17.339,6.085-12.17,49.86-80.145,60.491-94.258,10.6-14.15,49.86-51.473,57.82-62.067,2.713-3.629,6.525-9.17,10.374-14.925C183.154,23.407,190.6,11.713,190.6,11.713s52.133,31.343,66.869,53.893a246.334,246.334,0,0,0-32.772,59.941c-4.4,11.767-10.411,27.132-16.5,42.529-11.95,30.028-24.268,59.978-25.367,62.544-.44,1.026-.916,2.236-1.5,3.556-2.933,7.044-7.552,17.748-13.27,26.289-4.074,6.085-8.693,11.034-13.679,12.83-11.511,4.106.7-33.542,2.749-38.533,4.326-10.594,6.672-29.473,7.85-32.992,0,0-35.747,34.972-41.245,40.842-5.5,5.9-24.126,24.744-29.625,28.7-3.592,2.566-7.295,5.132-11.254,5.132a10.416,10.416,0,0,1-6.635-2.639C72.876,271.095,74.269,267.026,76.726,263.066Zm-9.531-21.042c-.922,1.173-1.8,2.309-2.608,3.336C65.54,244.261,66.383,243.161,67.194,242.025Zm9.824,20.638c.44-.587.843-1.21,1.21-1.8C77.825,261.453,77.385,262.04,77.019,262.663Z" transform="translate(-43.018 -11.713)" fill="#fff"/>
            </g>
          </g>
          <g id="Group_96" data-name="Group 96" transform="translate(64.23 22.728)">
            <g id="Group_95" data-name="Group 95">
              <path id="Path_62" data-name="Path 62" d="M183.758,93.045c-10.631,14.113-54.406,82.088-60.491,94.258-3.006,5.975-5.645,14.26-1.026,17.339,5.462,3.629,12.9-4.729,16.643-9.128-7.4,10.558-13.453,19.172-15.14,21.738-4.106,6.237-7.222,15.255-1.356,17.784,6.159,2.639,13.2-2.163,18.292-7.991-2.969,3.739-5.132,6.488-6.232,7.808-5.682,6.855-6.452,16.423-2.566,18.842,6.378,3.922,15.841-2.309,20.974-9.018-2.456,3.959-3.849,8.028-.513,10.741a10.416,10.416,0,0,0,6.635,2.639c3.959,0,7.662-2.566,11.254-5.132,5.5-3.959,24.126-22.8,29.625-28.7,5.5-5.871,41.246-40.842,41.246-40.842-1.178,3.519-3.524,22.4-7.85,32.992-2.053,4.991-14.26,42.638-2.749,38.533,4.985-1.8,9.6-6.745,13.679-12.83-.77,28.562-.44,66.686,12.427,91.546h27.713v60.711H25.05V160.281l58.768-8.138L67.029,30.758,25.05,36.55v-20.5h226.9c-3.849,5.755-7.661,11.3-10.374,14.925C233.618,41.572,194.358,78.9,183.758,93.045Z" transform="translate(-25.05 -16.053)" fill="#fff"/>
            </g>
          </g>
        </g>
      </g>
      <g id="line" transform="translate(12.434 11.363)">
        <g id="Group_98" data-name="Group 98" transform="translate(158.906)">
          <path id="Path_63" data-name="Path 63" d="M83.869,279.762a12.288,12.288,0,0,1-7.787-3.048c-5.347-4.347-1.246-10.961.1-13.134a1.845,1.845,0,0,1,.283-.351,17.133,17.133,0,0,1,.964-1.482l.3-.435c.042-.058.084-.115.126-.162.786-1.1,1.592-2.158,2.346-3.142l1.236-1.629c11.422-15.574,21.586-27.169,40.031-48.221,4.629-5.284,9.793-11.17,15.637-17.884a1.834,1.834,0,0,1,2.765,2.409c-5.85,6.714-11.013,12.605-15.648,17.894-18.376,20.974-28.5,32.521-39.837,47.98l-1.273,1.681c-.754.985-1.561,2.037-2.341,3.132h0l-.094.115-.257.372c-.278.4-.566.8-.812,1.225-.162.236-.272.4-.388.55-3.236,5.268-2.152,7.169-.838,8.238a8.65,8.65,0,0,0,5.478,2.226c3.483,0,7.049-2.545,10.186-4.792,5.148-3.7,23.356-22.026,29.347-28.462,5.467-5.834,39.847-39.475,41.308-40.905a1.835,1.835,0,0,1,3.022,1.891c-.335,1.005-.854,3.823-1.451,7.08-1.367,7.431-3.425,18.654-6.436,26.032-3.09,7.489-10.05,32.484-6.6,36.1.11.115.393.429,1.54.01,4.069-1.461,8.363-5.546,12.762-12.123,5.352-7.986,9.814-18.072,13.1-25.97.377-.848.7-1.613.985-2.315l.529-1.262c1.047-2.44,13.412-32.495,25.352-62.5,7.52-19.02,12.762-32.526,16.486-42.487A253.222,253.222,0,0,1,256.23,67.025C242.494,47.335,200.714,20.957,192.193,15.7c-2.252,3.524-8.107,12.631-13.825,21.241-3.032,4.54-7.305,10.825-10.432,15-3.755,5-14.249,15.742-25.362,27.111C130,91.921,115.741,106.506,110.121,114.016c-11.128,14.768-54.531,82.4-60.323,93.975-2.927,5.829-4.9,12.83-1.65,15,4.326,2.875,11.783-5.907,14.234-8.793a1.833,1.833,0,1,1,2.791,2.378c-3.6,4.226-12.034,14.14-19.052,9.468-6.2-4.132-2.409-14.113.4-19.691,6.321-12.658,50.478-81.019,60.664-94.541,5.761-7.693,19.486-21.738,32.762-35.317C150.974,65.208,161.4,54.551,165,49.744c3.074-4.116,7.305-10.338,10.311-14.836,7.237-10.893,14.684-22.581,14.757-22.7a1.835,1.835,0,0,1,2.493-.587c2.142,1.288,52.678,31.84,67.456,54.463a1.826,1.826,0,0,1-.094,2.131,246.874,246.874,0,0,0-32.495,59.449c-3.734,9.987-8.981,23.514-16.512,42.56-11.956,30.039-24.341,60.145-25.388,62.6l-.513,1.22c-.3.733-.628,1.524-1,2.362-3.341,8.007-7.9,18.308-13.427,26.556-4.844,7.248-9.751,11.8-14.574,13.537-2.948,1.063-4.671-.131-5.431-.927-6.394-6.719,5.734-39.706,5.865-40.025,2.865-7.023,4.886-18.02,6.221-25.3.094-.5.183-.979.262-1.44-9.688,9.5-32.589,31.992-36.852,36.538-5.232,5.614-24.173,24.828-29.892,28.939C92.777,276.725,88.53,279.762,83.869,279.762Z" transform="translate(-42.777 -11.363)"/>
        </g>
        <g id="Group_99" data-name="Group 99" transform="translate(168.654 168.843)">
          <path id="Path_64" data-name="Path 64" d="M53.381,140.008a10.251,10.251,0,0,1-5.441-1.487,7.333,7.333,0,0,1-3.126-5.294C44,128.246,46.1,121.7,50.05,116.934c2.55-3.079,11.134-14.092,21.063-26.839,11.924-15.3,26.76-34.333,35.972-45.807a1.833,1.833,0,1,1,2.859,2.294c-9.2,11.458-24.027,30.479-35.935,45.77-9.955,12.767-18.549,23.8-21.136,26.923-3.807,4.593-4.97,10.144-4.441,13.359a3.914,3.914,0,0,0,1.435,2.765,7.389,7.389,0,0,0,5.813.649c5.53-1.325,11.422-6.813,14.155-11.3a1.833,1.833,0,1,1,3.132,1.906c-3.095,5.085-9.557,11.312-16.439,12.961A13.346,13.346,0,0,1,53.381,140.008Z" transform="translate(-44.639 -43.604)"/>
        </g>
        <g id="Group_100" data-name="Group 100" transform="translate(158.338 149.309)">
          <path id="Path_65" data-name="Path 65" d="M51.358,136.682a11.039,11.039,0,0,1-4.352-.885,6.83,6.83,0,0,1-3.97-4.425c-1.4-4.666,1.43-11.348,4.535-16.051,5.205-7.871,50.583-71.949,52.51-74.678a1.835,1.835,0,0,1,3,2.121c-.471.665-47.273,66.754-52.447,74.578-3.278,4.959-4.917,10.18-4.08,12.977a3.128,3.128,0,0,0,1.9,2.105c5.9,2.545,13.668-3.582,18.727-10.777a1.834,1.834,0,1,1,3,2.11C65.644,130.2,58.438,136.682,51.358,136.682Z" transform="translate(-42.669 -39.874)"/>
        </g>
        <g id="Group_101" data-name="Group 101" transform="translate(323.509 156.362)">
          <path id="Path_66" data-name="Path 66" d="M76.042,110.992a1.836,1.836,0,0,1-1.833-1.838v-66.1a1.833,1.833,0,0,1,3.666,0v66.1A1.833,1.833,0,0,1,76.042,110.992Z" transform="translate(-74.209 -41.221)"/>
        </g>
        <g id="Group_102" data-name="Group 102" transform="translate(64.238 22.728)">
          <path id="Path_67" data-name="Path 67" d="M26.533,39.866A1.835,1.835,0,0,1,24.7,38.033v-20.5A1.835,1.835,0,0,1,26.533,15.7h226.9a1.833,1.833,0,0,1,0,3.666H28.366V38.033A1.832,1.832,0,0,1,26.533,39.866Z" transform="translate(-24.7 -15.703)"/>
        </g>
        <g id="Group_103" data-name="Group 103" transform="translate(64.238 166.956)">
          <path id="Path_68" data-name="Path 68" d="M285.8,280.961H26.533a1.835,1.835,0,0,1-1.833-1.833V45.077a1.833,1.833,0,1,1,3.666,0V277.295H283.972V218.417a1.833,1.833,0,1,1,3.666,0v60.711A1.832,1.832,0,0,1,285.8,280.961Z" transform="translate(-24.7 -43.244)"/>
        </g>
        <g id="Group_104" data-name="Group 104" transform="translate(283.135 222.461)">
          <path id="Path_69" data-name="Path 69" d="M174.995,175.343h-94a1.847,1.847,0,0,1-1.634-.99C66.623,149.74,65.922,112.024,66.728,81.913a1.835,1.835,0,0,1,1.833-1.781h.052a1.839,1.839,0,0,1,1.786,1.88c-.791,29.264-.152,65.77,11.715,89.665h89.974c-16.407-35.595-14.663-80.035-13.715-104.187.147-3.818.283-7.18.325-9.976H81.836a1.836,1.836,0,0,1,0-3.671h78.71a1.832,1.832,0,0,1,1.833,1.833c0,3.163-.157,7.216-.34,11.961-.964,24.425-2.739,69.886,14.6,105.062a1.834,1.834,0,0,1-1.644,2.645Z" transform="translate(-66.499 -53.843)"/>
        </g>
        <g id="Group_105" data-name="Group 105" transform="translate(129.646 60.915)">
          <path id="Path_70" data-name="Path 70" d="M145.672,26.661H39.023a1.833,1.833,0,1,1,0-3.666H145.672a1.833,1.833,0,1,1,0,3.666Z" transform="translate(-37.19 -22.995)"/>
        </g>
        <g id="Group_106" data-name="Group 106" transform="translate(155.768 78.621)">
          <path id="Path_71" data-name="Path 71" d="M129.3,30.042H44.121a1.836,1.836,0,1,1,0-3.666H129.3a1.836,1.836,0,1,1,0,3.666Z" transform="translate(-42.178 -26.376)"/>
        </g>
        <g id="Group_107" data-name="Group 107" transform="translate(132.202 98.531)">
          <path id="Path_72" data-name="Path 72" d="M130.527,33.844H39.569a1.834,1.834,0,1,1,0-3.666h90.959a1.834,1.834,0,1,1,0,3.666Z" transform="translate(-37.678 -30.178)"/>
        </g>
        <g id="Group_108" data-name="Group 108" transform="translate(147.32 142.327)">
          <path id="Path_73" data-name="Path 73" d="M89.058,42.207H42.4a1.833,1.833,0,1,1,0-3.666H89.058a1.833,1.833,0,1,1,0,3.666Z" transform="translate(-40.565 -38.541)"/>
        </g>
        <g id="Group_109" data-name="Group 109" transform="translate(136.716 170.611)">
          <path id="Path_74" data-name="Path 74" d="M79.241,47.608h-38.9a1.833,1.833,0,0,1,0-3.666h38.9a1.833,1.833,0,0,1,0,3.666Z" transform="translate(-38.54 -43.942)"/>
        </g>
        <g id="Group_110" data-name="Group 110" transform="translate(107.059 220.691)">
          <path id="Path_75" data-name="Path 75" d="M90.587,57.171H34.71a1.833,1.833,0,0,1,0-3.666H90.587a1.833,1.833,0,1,1,0,3.666Z" transform="translate(-32.877 -53.505)"/>
        </g>
        <g id="Group_111" data-name="Group 111" transform="translate(96.062 282.994)">
          <path id="Path_76" data-name="Path 76" d="M167.244,69.068H32.61a1.833,1.833,0,1,1,0-3.666H167.244a1.833,1.833,0,1,1,0,3.666Z" transform="translate(-30.777 -65.402)"/>
        </g>
        <g id="Group_112" data-name="Group 112" transform="translate(96.062 310.016)">
          <path id="Path_77" data-name="Path 77" d="M167.244,74.228H32.61a1.833,1.833,0,0,1,0-3.666H167.244a1.833,1.833,0,1,1,0,3.666Z" transform="translate(-30.777 -70.562)"/>
        </g>
        <g id="Group_113" data-name="Group 113" transform="translate(233.542 336.573)">
          <path id="Path_78" data-name="Path 78" d="M71.675,110.725l-.089-.005a1.829,1.829,0,0,1-1.451-.833C65.894,103.32,57.462,91.616,57.378,91.5a1.831,1.831,0,0,1,2.969-2.142c.079.1,6.96,9.667,11.463,16.412C76.76,99.56,91.7,80.875,96.016,76.219A1.832,1.832,0,0,1,98.7,78.712c-5,5.383-25.388,31.06-25.593,31.316A1.832,1.832,0,0,1,71.675,110.725Z" transform="translate(-57.029 -75.633)"/>
        </g>
        <g id="Group_114" data-name="Group 114" transform="translate(306.212 248.19)">
          <path id="Path_79" data-name="Path 79" d="M119.876,62.422H72.739a1.833,1.833,0,1,1,0-3.666h47.137a1.833,1.833,0,1,1,0,3.666Z" transform="translate(-70.906 -58.756)"/>
        </g>
        <g id="Group_115" data-name="Group 115" transform="translate(306.212 273.72)">
          <path id="Path_80" data-name="Path 80" d="M119.876,67.3H72.739a1.833,1.833,0,1,1,0-3.666h47.137a1.833,1.833,0,1,1,0,3.666Z" transform="translate(-70.906 -63.631)"/>
        </g>
        <g id="Group_116" data-name="Group 116" transform="translate(306.212 296.505)">
          <path id="Path_81" data-name="Path 81" d="M119.876,71.648H72.739a1.833,1.833,0,1,1,0-3.666h47.137a1.833,1.833,0,1,1,0,3.666Z" transform="translate(-70.906 -67.982)"/>
        </g>
        <g id="Group_132" data-name="Group 132" transform="translate(0 37.415)">
          <g id="Group_117" data-name="Group 117">
            <path id="Path_82" data-name="Path 82" d="M31.058,158.271a1.829,1.829,0,0,1-1.812-1.582L12.452,35.289a1.827,1.827,0,0,1,1.561-2.063L120.237,18.531a1.827,1.827,0,0,1,2.069,1.561l16.795,121.4a1.832,1.832,0,0,1-1.561,2.069L31.31,158.255A2.026,2.026,0,0,1,31.058,158.271ZM16.332,36.6,32.624,154.375l102.6-14.2-16.3-117.766Z" transform="translate(-12.434 -18.508)"/>
          </g>
          <g id="Group_124" data-name="Group 124" transform="translate(55.097 20.755)">
            <g id="Group_118" data-name="Group 118">
              <path id="Path_83" data-name="Path 83" d="M24.785,31.39a1.831,1.831,0,0,1-.251-3.645l37.941-5.253a1.832,1.832,0,1,1,.5,3.629L25.036,31.374A2.025,2.025,0,0,1,24.785,31.39Z" transform="translate(-22.955 -22.471)"/>
            </g>
            <g id="Group_119" data-name="Group 119" transform="translate(1.735 12.549)">
              <path id="Path_84" data-name="Path 84" d="M25.115,33.785a1.831,1.831,0,0,1-.246-3.645L62.81,24.888a1.834,1.834,0,0,1,.5,3.634L25.371,33.769A2.108,2.108,0,0,1,25.115,33.785Z" transform="translate(-23.286 -24.867)"/>
            </g>
            <g id="Group_120" data-name="Group 120" transform="translate(4.766 34.437)">
              <path id="Path_85" data-name="Path 85" d="M25.695,37.966a1.834,1.834,0,0,1-.251-3.65l37.936-5.247a1.832,1.832,0,1,1,.5,3.629L25.946,37.945A1.357,1.357,0,0,1,25.695,37.966Z" transform="translate(-23.865 -29.047)"/>
            </g>
            <g id="Group_121" data-name="Group 121" transform="translate(6.462 46.694)">
              <path id="Path_86" data-name="Path 86" d="M26.019,40.3a1.831,1.831,0,0,1-.251-3.645l37.941-5.253a1.832,1.832,0,1,1,.5,3.629L26.27,40.288A2.026,2.026,0,0,1,26.019,40.3Z" transform="translate(-24.189 -31.387)"/>
            </g>
            <g id="Group_122" data-name="Group 122" transform="translate(9.568 69.163)">
              <path id="Path_87" data-name="Path 87" d="M26.612,44.6a1.834,1.834,0,0,1-.246-3.65L64.3,35.7a1.832,1.832,0,0,1,.5,3.629L26.868,44.581A2.171,2.171,0,0,1,26.612,44.6Z" transform="translate(-24.782 -35.678)"/>
            </g>
            <g id="Group_123" data-name="Group 123" transform="translate(11.657 84.249)">
              <path id="Path_88" data-name="Path 88" d="M27.011,47.474a1.831,1.831,0,0,1-.251-3.645L64.7,38.577a1.834,1.834,0,0,1,.5,3.634L27.262,47.458A2.025,2.025,0,0,1,27.011,47.474Z" transform="translate(-25.181 -38.559)"/>
            </g>
          </g>
          <g id="Group_128" data-name="Group 128" transform="translate(14.816 22.763)">
            <g id="Group_125" data-name="Group 125">
              <path id="Path_89" data-name="Path 89" d="M20.407,52.755a1.829,1.829,0,0,1-1.817-1.582L15.28,27.241a1.834,1.834,0,0,1,1.566-2.063l16.632-2.3a1.833,1.833,0,0,1,2.069,1.566l3.31,23.927a1.839,1.839,0,0,1-1.566,2.069l-16.632,2.3A1.4,1.4,0,0,1,20.407,52.755Zm-1.246-24.2,2.807,20.3,13.008-1.8-2.807-20.3Z" transform="translate(-15.263 -22.854)"/>
            </g>
            <g id="Group_126" data-name="Group 126" transform="translate(4.985 36.036)">
              <path id="Path_90" data-name="Path 90" d="M21.354,59.641a1.836,1.836,0,0,1-1.812-1.587l-3.31-23.927a1.825,1.825,0,0,1,.356-1.356,1.8,1.8,0,0,1,1.21-.707l16.632-2.3a1.767,1.767,0,0,1,1.356.351,1.852,1.852,0,0,1,.712,1.215l3.31,23.927a1.844,1.844,0,0,1-.356,1.362,1.822,1.822,0,0,1-1.21.707l-16.632,2.3A1.415,1.415,0,0,1,21.354,59.641Zm-1.241-24.2,2.812,20.3,13-1.8-2.812-20.3Z" transform="translate(-16.215 -29.735)"/>
            </g>
            <g id="Group_127" data-name="Group 127" transform="translate(10.116 73.099)">
              <path id="Path_91" data-name="Path 91" d="M22.334,66.716a1.839,1.839,0,0,1-1.817-1.582L17.213,41.2a1.827,1.827,0,0,1,1.561-2.063l16.638-2.3a1.792,1.792,0,0,1,1.356.356,1.813,1.813,0,0,1,.707,1.21l3.31,23.927A1.829,1.829,0,0,1,39.218,64.4L22.586,66.7A2.026,2.026,0,0,1,22.334,66.716Zm-1.241-24.2,2.807,20.3,13-1.8L34.1,40.72Z" transform="translate(-17.195 -36.813)"/>
            </g>
          </g>
          <g id="Group_129" data-name="Group 129" transform="translate(19.963 56.603)">
            <path id="Path_92" data-name="Path 92" d="M28.272,51.043a1.837,1.837,0,0,1-.985-.283c-.052-.031-5.352-3.367-9.662-4.483a1.833,1.833,0,1,1,.916-3.551,41.035,41.035,0,0,1,9.075,3.964C31.21,41,40.023,30.462,40.432,29.97a1.837,1.837,0,0,1,2.817,2.357c-.115.131-11.008,13.16-13.344,17.722a1.828,1.828,0,0,1-1.634,1Z" transform="translate(-16.246 -29.316)"/>
          </g>
          <g id="Group_130" data-name="Group 130" transform="translate(25.477 94.066)">
            <path id="Path_93" data-name="Path 93" d="M29.319,58.2a1.812,1.812,0,0,1-.979-.288c-.058-.031-5.352-3.362-9.667-4.483a1.834,1.834,0,1,1,.922-3.551,41.392,41.392,0,0,1,9.075,3.964c3.587-5.687,12.4-16.229,12.809-16.721A1.835,1.835,0,0,1,44.3,39.476c-.11.136-11.008,13.165-13.344,17.727a1.833,1.833,0,0,1-1.152.932A1.674,1.674,0,0,1,29.319,58.2Z" transform="translate(-17.299 -36.47)"/>
          </g>
          <g id="Group_131" data-name="Group 131" transform="translate(15.245 20.757)">
            <path id="Path_94" data-name="Path 94" d="M27.365,44.208a1.812,1.812,0,0,1-.979-.288c-.058-.031-5.352-3.362-9.667-4.483a1.834,1.834,0,0,1,.922-3.551,41.144,41.144,0,0,1,9.075,3.964c3.587-5.687,12.4-16.229,12.809-16.721a1.835,1.835,0,0,1,2.817,2.351c-.11.136-11.008,13.165-13.344,17.727a1.833,1.833,0,0,1-1.152.932A1.877,1.877,0,0,1,27.365,44.208Z" transform="translate(-15.345 -22.471)"/>
          </g>
        </g>
      </g>
    </g>
  </g>
</svg>
