<svg xmlns="http://www.w3.org/2000/svg" xmlns:xlink="http://www.w3.org/1999/xlink" width="512" height="512" viewBox="0 0 512 512"><defs><clipPath id="b"><rect width="512" height="512"/></clipPath></defs><g id="a" clip-path="url(#b)"><rect width="512" height="512" fill="#fff"/><g transform="translate(59.072 -11.363)"><g transform="translate(29.404 14.839)"><rect width="312.037" height="505.049" rx="5.069" fill="#fff"/><g transform="translate(29.86 34.71)"><rect width="252.316" height="413.225" rx="17.12" fill="#dedede"/></g></g><g transform="translate(25.928 11.363)"><path d="M307.848,523.363H62.993A37.106,37.106,0,0,1,25.928,486.3V48.428A37.107,37.107,0,0,1,62.993,11.363H307.848a37.108,37.108,0,0,1,37.071,37.065V486.3A37.107,37.107,0,0,1,307.848,523.363ZM62.993,18.313A30.145,30.145,0,0,0,32.878,48.428V486.3a30.139,30.139,0,0,0,30.114,30.108H307.848A30.145,30.145,0,0,0,337.969,486.3V48.428a30.151,30.151,0,0,0-30.121-30.114Z" transform="translate(-25.928 -11.363)"/><g transform="translate(29.862 34.712)"><path d="M258.9,436.775H61.232a30.831,30.831,0,0,1-30.8-30.8V47.4a30.831,30.831,0,0,1,30.8-30.8H258.9a30.825,30.825,0,0,1,30.79,30.8v358.58A30.825,30.825,0,0,1,258.9,436.775ZM61.232,23.552A23.869,23.869,0,0,0,37.385,47.4v358.58a23.869,23.869,0,0,0,23.846,23.846H258.9a23.867,23.867,0,0,0,23.84-23.846V47.4A23.867,23.867,0,0,0,258.9,23.552Z" transform="translate(-30.435 -16.602)"/></g></g></g></g></svg>