<svg xmlns="http://www.w3.org/2000/svg" xmlns:xlink="http://www.w3.org/1999/xlink" width="512" height="512" viewBox="0 0 512 512"><defs><clipPath id="b"><rect width="512" height="512"/></clipPath></defs><g id="a" clip-path="url(#b)"><rect width="512" height="512" fill="#fff"/><g transform="translate(38.721 -11.36)"><g transform="translate(23.386 14.493)"><g transform="translate(150.314 285.463)"><path d="M83.386,54.92a39.879,39.879,0,0,1,26.084,70.049,25.669,25.669,0,0,1,1.511,8.527v63.086a25.776,25.776,0,1,1-51.551,0V133.5a25.437,25.437,0,0,1,.815-6.208A39.853,39.853,0,0,1,83.386,54.92Z" transform="translate(-43.436 -54.92)" fill="#dedede"/></g><g transform="translate(0 194.405)"><path d="M408.3,83.949V309.7a42.9,42.9,0,0,1-42.766,42.766H63.58A42.912,42.912,0,0,1,20.748,309.7V83.949A43.062,43.062,0,0,1,63.58,41.176H365.533a41.95,41.95,0,0,1,15.675,3.014v.06A42.774,42.774,0,0,1,408.3,83.949ZM250.9,172.118A39.917,39.917,0,1,0,187.87,204.6a25.437,25.437,0,0,0-.815,6.208v63.086a25.776,25.776,0,1,0,51.551,0V210.809a25.669,25.669,0,0,0-1.511-8.527A39.794,39.794,0,0,0,250.9,172.118Z" transform="translate(-20.748 -41.176)" fill="#fff"/></g><g transform="translate(20.068)"><path d="M364.17,209.253a41.95,41.95,0,0,0-15.675-3.014H313.122c.126-73.812-51.173-134.764-118.022-134.89-66.909-.126-113.067,61.078-113.193,134.89H46.541a42.222,42.222,0,0,0-22.764,6.652C25.91,104.521,94.886,11.648,193.47,11.833,292.305,12.085,362.917,100.512,364.17,209.253Z" transform="translate(-23.777 -11.833)" fill="#fff"/></g></g><g transform="translate(20.279 11.36)"><g transform="translate(150.314 285.443)"><path d="M87.833,228.185a28.934,28.934,0,0,1-28.9-28.9V136.14a27.832,27.832,0,0,1,.437-4.87,43.052,43.052,0,1,1,56.341-2.643,28.243,28.243,0,0,1,1.02,7.513v63.145A28.93,28.93,0,0,1,87.833,228.185ZM86.018,60.718a36.757,36.757,0,0,0-21.34,66.7,3.133,3.133,0,0,1,1.219,3.306,22.414,22.414,0,0,0-.689,5.413v63.145a22.629,22.629,0,1,0,45.257,0V136.14a22.427,22.427,0,0,0-1.3-7.447,3.136,3.136,0,0,1,.908-3.412A36.755,36.755,0,0,0,86.018,60.718Z" transform="translate(-42.967 -54.444)"/></g><g transform="translate(20.028)"><path d="M26.436,218.684h-.06a3.138,3.138,0,0,1-3.074-3.2C25.595,99.052,99.745,11.36,195.844,11.36h.3c97.782.252,172.509,86.453,173.827,200.513l-6.274.1c-1.272-110.562-73.315-194.1-167.566-194.339h-.285c-92.6,0-164.048,85.042-166.274,197.976A3.136,3.136,0,0,1,26.436,218.684Z" transform="translate(-23.302 -11.36)"/></g><g transform="translate(78.165 59.508)"><path d="M35.211,161.487H35.2a3.127,3.127,0,0,1-3.127-3.14c.166-78.721,50.054-138,116.088-138h.225c68.108.139,121.328,60.767,121.176,138.017a3.134,3.134,0,0,1-3.134,3.127h-.007a3.127,3.127,0,0,1-3.127-3.14c.146-73.739-50.339-131.6-114.922-131.737h-.212C85.689,26.61,38.5,83.2,38.345,158.359A3.134,3.134,0,0,1,35.211,161.487Z" transform="translate(-32.077 -20.342)"/></g><g transform="translate(0 194.385)"><path d="M368.185,358.315H66.192A45.967,45.967,0,0,1,20.279,312.4V86.606A45.961,45.961,0,0,1,66.192,40.7H368.185A45.961,45.961,0,0,1,414.1,86.606V312.4A45.967,45.967,0,0,1,368.185,358.315ZM66.192,46.967A39.684,39.684,0,0,0,26.553,86.606V312.4a39.684,39.684,0,0,0,39.639,39.639H368.185A39.684,39.684,0,0,0,407.824,312.4V86.606a39.684,39.684,0,0,0-39.639-39.639Z" transform="translate(-20.279 -40.7)"/></g><g transform="translate(180.035 235.621)"><path d="M47.453,46.924" transform="translate(-47.453 -46.924)" fill="none" stroke="#000" stroke-linecap="round" stroke-linejoin="round" stroke-width="1"/></g></g></g></g></svg>