<svg xmlns="http://www.w3.org/2000/svg" xmlns:xlink="http://www.w3.org/1999/xlink" width="512" height="512" viewBox="0 0 512 512"><defs><clipPath id="b"><rect width="512" height="512"/></clipPath></defs><g id="a" clip-path="url(#b)"><rect width="512" height="512" fill="#fff"/><g transform="translate(25.155 -11.415)"><g transform="translate(20.161 13.741)"><g transform="translate(188.419 273.366)"><path d="M86.547,61.109A22.335,22.335,0,0,1,91.8,75.572a22.6,22.6,0,1,1-22.6-22.6A22.36,22.36,0,0,1,86.547,61.109Z" transform="translate(-46.593 -52.968)" fill="#fff"/></g><g transform="translate(0 85.319)"><path d="M46.75,235.277c0,100.748,81.68,182.468,182.468,182.468s182.474-81.72,182.474-182.468a182.471,182.471,0,0,0-364.942,0ZM269.5,28.486C366.8,47.276,440.247,132.9,440.247,235.648c0,116.519-94.465,210.984-211.03,210.984S18.194,352.167,18.194,235.648A211.11,211.11,0,0,1,269.5,28.486Z" transform="translate(-18.194 -24.625)" fill="#fff"/><g transform="translate(28.559 28.162)"><circle cx="182.48" cy="182.48" r="182.48" fill="#fff"/></g><g transform="translate(43.924 43.528)"><circle cx="167.114" cy="167.114" r="167.114" fill="#dedede"/></g></g><g transform="translate(10.447 64.617)"><rect width="68.618" height="19.465" rx="1.467" transform="matrix(0.778, -0.628, 0.628, 0.778, 0, 43.086)" fill="#dedede"/></g><g transform="translate(347.303 64.617)"><rect width="68.618" height="19.465" rx="1.467" transform="matrix(-0.778, -0.628, 0.628, -0.778, 53.405, 58.235)" fill="#dedede"/></g><g transform="translate(160.008)"><rect width="102.027" height="28.414" rx="2.141" fill="#dedede"/></g><g transform="translate(180.212 28.413)"><path d="M76.181,72.954a210.673,210.673,0,0,1,30.8,2.256V16.048H45.356V75.21A210.765,210.765,0,0,1,76.181,72.954Z" transform="translate(-45.356 -16.048)" fill="#fff"/></g><g transform="translate(33.22 88.278)"><path d="M82.515,58.556,55.505,25.071,23.2,51.132,50.616,85.115A212.116,212.116,0,0,1,82.515,58.556Z" transform="translate(-23.201 -25.071)" fill="#fff"/></g><g transform="translate(330.368 88.278)"><path d="M99.748,85.871l28.025-34.739-32.3-26.061L67.988,59.147A211.825,211.825,0,0,1,99.748,85.871Z" transform="translate(-67.988 -25.071)" fill="#fff"/></g></g><g transform="translate(17.845 11.415)"><g transform="translate(0 85.333)"><path d="M231.2,450.944c-117.647,0-213.352-95.7-213.352-213.326,0-102.062,72.59-190.144,172.6-209.438a214.508,214.508,0,0,1,81.474,0c100.012,19.294,172.6,107.376,172.6,209.438C444.523,355.245,348.83,450.944,231.2,450.944Zm0-422.033a208.415,208.415,0,0,0-39.861,3.835C93.5,51.621,22.5,137.779,22.5,237.618c0,115.059,93.622,208.675,208.7,208.675s208.675-93.616,208.675-208.675c0-99.839-71-186-168.84-204.873h-.007A208.175,208.175,0,0,0,231.2,28.91Zm0,393.126c-101.9,0-184.8-82.907-184.8-184.81s82.9-184.8,184.8-184.8,184.8,82.9,184.8,184.8S333.1,422.036,231.2,422.036Zm0-364.962c-99.341,0-180.152,80.817-180.152,180.152S131.856,417.385,231.2,417.385s180.152-80.817,180.152-180.159S330.539,57.074,231.2,57.074Z" transform="translate(-17.845 -24.277)"/></g><g transform="translate(28.549 113.48)"><path d="M206.951,398.132c-101.9,0-184.8-82.907-184.8-184.81s82.9-184.8,184.8-184.8,184.8,82.9,184.8,184.8S308.853,398.132,206.951,398.132Zm0-364.962C107.61,33.17,26.8,113.987,26.8,213.322S107.61,393.481,206.951,393.481,387.1,312.663,387.1,213.322,306.292,33.17,206.951,33.17Z" transform="translate(-22.148 -28.519)"/></g><g transform="translate(188.419 273.356)"><path d="M71.177,102.476a24.93,24.93,0,1,1,24.94-24.933A24.959,24.959,0,0,1,71.177,102.476Zm0-45.209A20.279,20.279,0,1,0,91.466,77.543,20.3,20.3,0,0,0,71.177,57.267Z" transform="translate(-46.244 -52.616)"/></g><g transform="translate(208.7 198.705)"><path d="M53.96,145.6a4.651,4.651,0,0,1-2.979-8.227l114.1-94.929a4.652,4.652,0,0,1,5.951,7.152L56.926,144.518A4.621,4.621,0,0,1,53.96,145.6Z" transform="translate(-49.301 -41.364)"/></g><g transform="translate(14.389 68.561)"><path d="M32.084,76.732A12.05,12.05,0,0,1,24.508,55.3L62.763,24.431a12.049,12.049,0,0,1,16.952,1.811A12.05,12.05,0,0,1,77.9,43.2L39.641,74.065A12.007,12.007,0,0,1,32.084,76.732ZM70.32,26.408a7.356,7.356,0,0,0-4.644,1.645L27.42,58.918a7.426,7.426,0,0,0-1.115,10.416,7.432,7.432,0,0,0,10.416,1.108L74.984,39.578l1.46,1.811-1.46-1.811a7.406,7.406,0,0,0-3.868-13.13Q70.718,26.408,70.32,26.408Z" transform="translate(-20.014 -21.749)"/></g><g transform="translate(351.246 68.561)"><path d="M121.079,76.739a11.969,11.969,0,0,1-7.55-2.674L75.273,43.2a12.057,12.057,0,1,1,15.14-18.77L128.669,55.3a12.061,12.061,0,0,1-6.29,21.377A12.19,12.19,0,0,1,121.079,76.739ZM82.856,26.408c-.265,0-.531.013-.8.04a7.408,7.408,0,0,0-3.861,13.13h0l38.256,30.865a7.4,7.4,0,0,0,12.015-6.548,7.329,7.329,0,0,0-2.714-4.976L87.494,28.053A7.338,7.338,0,0,0,82.856,26.408Z" transform="translate(-70.786 -21.749)"/></g><g transform="translate(160.002)"><path d="M132.1,44.482H58.495a16.534,16.534,0,1,1,0-33.067H132.1a16.534,16.534,0,1,1,0,33.067ZM58.495,16.066a11.883,11.883,0,1,0,0,23.766H132.1a11.883,11.883,0,1,0,0-23.766Z" transform="translate(-41.961 -11.415)"/></g><g transform="translate(180.205 28.41)"><path d="M108.951,79.516a3.141,3.141,0,0,1-.345-.027,210,210,0,0,0-60.933,0,2.355,2.355,0,0,1-1.864-.544,2.314,2.314,0,0,1-.8-1.758V18.026A2.322,2.322,0,0,1,47.328,15.7h61.623a2.322,2.322,0,0,1,2.322,2.329V77.187a2.331,2.331,0,0,1-2.322,2.329ZM49.657,20.355V74.514a214.626,214.626,0,0,1,56.966,0V20.355Z" transform="translate(-45.006 -15.697)"/></g><g transform="translate(33.211 88.278)"><path d="M52.589,89.412h-.113a2.353,2.353,0,0,1-1.7-.863L23.37,54.567a2.321,2.321,0,0,1,.345-3.271l32.3-26.061a2.321,2.321,0,0,1,3.264.352l27.01,33.485a2.286,2.286,0,0,1,.491,1.8,2.331,2.331,0,0,1-.989,1.586A209.835,209.835,0,0,0,54.248,88.722,2.363,2.363,0,0,1,52.589,89.412ZM28.446,53.459,52.769,83.613a215.688,215.688,0,0,1,28.337-23.58L57.128,30.317Z" transform="translate(-22.851 -24.721)"/></g><g transform="translate(330.358 88.278)"><path d="M101.724,90.175a2.339,2.339,0,0,1-1.672-.7A209.122,209.122,0,0,0,68.643,63.039a2.33,2.33,0,0,1-.491-3.377L95.647,25.586a2.321,2.321,0,0,1,3.264-.352l32.3,26.061a2.324,2.324,0,0,1,.856,1.566,2.3,2.3,0,0,1-.5,1.705L103.529,89.306a2.3,2.3,0,0,1-1.7.862ZM73.341,60.637a215.3,215.3,0,0,1,28.211,23.719l24.927-30.9L97.8,30.317Z" transform="translate(-67.637 -24.721)"/></g></g></g></g></svg>