<svg xmlns="http://www.w3.org/2000/svg" xmlns:xlink="http://www.w3.org/1999/xlink" width="960" height="480" viewBox="0 0 960 480"><defs><clipPath id="b"><rect width="960" height="480"/></clipPath></defs><g id="a" clip-path="url(#b)"><rect width="960" height="480" fill="#fff"/><g transform="translate(-19.428 -109.079)"><circle cx="34.251" cy="34.251" r="34.251" transform="translate(71.554 307.227)" fill="#dedede"/><circle cx="25.148" cy="25.148" r="25.148" transform="translate(270.828 337.138)" fill="#dedede"/><circle cx="42.204" cy="42.204" r="42.204" transform="translate(808.617 381.442)" fill="#dedede"/><circle cx="42.204" cy="42.204" r="42.204" transform="translate(608.149 284.81)" fill="#dedede"/><circle cx="13.919" cy="13.919" r="13.919" transform="translate(199.968 209.686)" fill="#dedede"/><circle cx="16.861" cy="16.861" r="16.861" transform="translate(110.458 378.27)" fill="#dedede"/><circle cx="15.933" cy="15.933" r="15.933" transform="translate(183.119 508.341)" fill="#dedede"/><circle cx="6.809" cy="6.809" r="6.809" transform="translate(148.25 323.834)" fill="#dedede"/><circle cx="5.224" cy="5.224" r="5.224" transform="translate(155.059 409.51)" fill="#dedede"/><circle cx="6.809" cy="6.809" r="6.809" transform="translate(59.617 284.173)" fill="#dedede"/><circle cx="6.809" cy="6.809" r="6.809" transform="translate(267.905 162.858)" fill="#dedede"/><path d="M850.153,500.948a9.961,9.961,0,0,1,5-17.9c8.307-.793,24.928-8.33,33.11-16.5a9.961,9.961,0,0,1,14.077,14.1c-10.75,10.735-31.492,20.918-45.293,22.236A9.927,9.927,0,0,1,850.153,500.948Z" fill="#dedede"/><path d="M216.41,435.8a5.216,5.216,0,0,1-8.58,4.6c-3.31-2.852-12.182-6.4-18.235-6.533a5.216,5.216,0,1,1,.226-10.429c7.953.172,19.318,4.321,24.818,9.059A5.2,5.2,0,0,1,216.41,435.8Z" fill="#dedede"/><path d="M908.187,415.9a9.9,9.9,0,1,1,9.9-9.9A9.911,9.911,0,0,1,908.187,415.9Zm0-18.11A8.21,8.21,0,1,0,916.4,406,8.219,8.219,0,0,0,908.187,397.793Z" fill="#dedede"/><path d="M749.538,530.429a8.492,8.492,0,1,1,8.491-8.492A8.5,8.5,0,0,1,749.538,530.429Zm0-15.534a7.042,7.042,0,1,0,7.042,7.042A7.051,7.051,0,0,0,749.538,514.9Z" fill="#dedede"/><path d="M891.266,295.987A20.792,20.792,0,1,1,912.058,275.2,20.815,20.815,0,0,1,891.266,295.987Zm0-38.035A17.243,17.243,0,1,0,908.508,275.2,17.262,17.262,0,0,0,891.266,257.952Z" fill="#dedede"/><path d="M761.8,424.638a17.978,17.978,0,1,1,17.978-17.978A18,18,0,0,1,761.8,424.638Zm0-32.887a14.909,14.909,0,1,0,14.909,14.909A14.926,14.926,0,0,0,761.8,391.751Z" fill="#dedede"/><path d="M95.892,299.784a11.953,11.953,0,1,1,11.953-11.954A11.967,11.967,0,0,1,95.892,299.784Zm0-21.867a9.913,9.913,0,1,0,9.913,9.913A9.924,9.924,0,0,0,95.892,277.917Z" fill="#dedede"/><circle cx="8.259" cy="8.259" r="8.259" transform="translate(864.068 295.987)" fill="#dedede"/><circle cx="7.98" cy="7.98" r="7.98" transform="translate(802.704 372.722)" fill="#dedede"/><circle cx="6.164" cy="6.164" r="6.164" transform="translate(704.237 401.317)" fill="#dedede"/><circle cx="6.164" cy="6.164" r="6.164" transform="translate(769.158 312.367)" fill="#dedede"/><circle cx="4.562" cy="4.562" r="4.562" transform="translate(874.023 239.367)" fill="#dedede"/><circle cx="6.914" cy="6.914" r="6.914" transform="translate(850.24 260.616)" fill="#dedede"/><circle cx="6.914" cy="6.914" r="6.914" transform="translate(782.001 447.884)" fill="#dedede"/><circle cx="13.91" cy="13.91" r="13.91" transform="translate(797.79 461.712)" fill="#dedede"/><circle cx="14.732" cy="14.732" r="14.732" transform="translate(888.396 191.068)" fill="#dedede"/><circle cx="10.123" cy="10.123" r="10.123" transform="translate(755.077 204.5)" fill="#dedede"/><circle cx="14.732" cy="14.732" r="14.732" transform="translate(670.112 446.98)" fill="#dedede"/><circle cx="9.384" cy="9.384" r="9.384" transform="translate(108.013 172.714)" fill="#dedede"/><path d="M933.223,267.286a8.464,8.464,0,0,1,9.231,9.811c-3.161,18.92-11.837,29.422-19.043,36.457a8.462,8.462,0,0,1-11.823-12.11c5.983-5.84,11.84-13.17,14.173-27.135A8.484,8.484,0,0,1,933.223,267.286ZM918,312.174a4.663,4.663,0,0,0,2.786-1.311c6.8-6.635,14.979-16.54,17.96-34.386a4.7,4.7,0,0,0-3.862-5.411,4.694,4.694,0,0,0-5.411,3.862c-2.511,15.031-8.816,22.921-15.255,29.207a4.7,4.7,0,0,0,3.228,8.065A4.867,4.867,0,0,0,918,312.174Z" fill="#dedede"/><path d="M832.189,304.421a10.155,10.155,0,0,1,5,15.369c-13.108,18.916-27.9,25.874-39.314,29.823a10.152,10.152,0,0,1-6.636-19.189c9.48-3.278,19.586-8.237,29.261-22.2A10.179,10.179,0,0,1,832.189,304.421Zm-39.484,40.926a5.594,5.594,0,0,0,3.693,0c10.77-3.724,24.717-10.287,37.08-28.129a5.64,5.64,0,1,0-9.271-6.424c-10.413,15.027-21.291,20.363-31.495,23.892a5.643,5.643,0,0,0-.007,10.659Z" fill="#dedede"/><path d="M687.626,412.359a9.5,9.5,0,0,1-2.378,14.924c-18.964,10.171-34.238,9.672-45.425,8.1a9.493,9.493,0,0,1,2.64-18.8c9.289,1.3,19.813,1.477,33.81-6.031A9.518,9.518,0,0,1,687.626,412.359Zm-50.291,17.274a5.235,5.235,0,0,0,3.075,1.573c10.551,1.482,24.957,1.953,42.843-7.642a5.274,5.274,0,0,0,2.155-7.14,5.267,5.267,0,0,0-7.14-2.154c-15.065,8.08-26.394,7.9-36.391,6.491a5.274,5.274,0,0,0-4.945,8.4A5.415,5.415,0,0,0,637.335,429.633Z" fill="#dedede"/><path d="M88.9,386.714a6.411,6.411,0,0,1-.583,1.613,6.37,6.37,0,0,1-8.592,2.7A46.883,46.883,0,0,1,58.088,368.89a6.369,6.369,0,0,1,11.425-5.632c2.781,5.645,6.658,11.547,16.1,16.477A6.385,6.385,0,0,1,88.9,386.714ZM60.339,365.339a3.51,3.51,0,0,0,.288,2.3,44.21,44.21,0,0,0,20.407,20.879,3.538,3.538,0,1,0,3.274-6.273c-10.167-5.306-14.34-11.659-17.334-17.734a3.539,3.539,0,0,0-6.524.426A3.653,3.653,0,0,0,60.339,365.339Z" fill="#dedede"/><path d="M187.04,488.97a6.4,6.4,0,0,1,.65,1.588,6.368,6.368,0,0,1-4.561,7.766,46.878,46.878,0,0,1-30.9-1.9,6.368,6.368,0,1,1,4.695-11.84c5.849,2.32,12.683,4.1,23,1.416A6.385,6.385,0,0,1,187.04,488.97Zm-35.52,3.308a3.511,3.511,0,0,0,1.756,1.512,44.21,44.21,0,0,0,29.141,1.794,3.539,3.539,0,0,0,2.534-4.314,3.536,3.536,0,0,0-4.315-2.534c-11.1,2.886-18.456.973-24.752-1.524a3.538,3.538,0,0,0-4.552,4.693A3.72,3.72,0,0,0,151.52,492.278Z" fill="#dedede"/><path d="M836.937,181.571a5.483,5.483,0,0,1-.421-8.717,40.354,40.354,0,0,1,24.719-9.953,5.482,5.482,0,0,1,.731,10.94,29.279,29.279,0,0,0-18.4,7.409A5.5,5.5,0,0,1,836.937,181.571Zm26.384-15.714a3.026,3.026,0,0,0-1.924-.525,38.055,38.055,0,0,0-23.314,9.388,3.046,3.046,0,0,0,.235,4.843,3.052,3.052,0,0,0,3.683-.179,31.518,31.518,0,0,1,19.8-7.974,3.046,3.046,0,0,0,1.8-5.332A3.178,3.178,0,0,0,863.321,165.857Z" fill="#dedede"/><path d="M851.329,362.171a7.165,7.165,0,0,1,7.7-8.411c16.175,1.478,25.587,8.143,31.981,13.784a7.165,7.165,0,1,1-9.481,10.745c-5.308-4.684-11.866-9.169-23.8-10.26A7.182,7.182,0,0,1,851.329,362.171Zm38.86,10.03a3.952,3.952,0,0,0-1.283-2.269c-6.03-5.321-14.908-11.607-30.164-13a3.982,3.982,0,0,0-4.326,3.6,3.974,3.974,0,0,0,3.6,4.326c12.849,1.175,19.907,6,25.621,11.043a3.98,3.98,0,0,0,6.606-3.233A4.261,4.261,0,0,0,890.189,372.2Z" fill="#dedede"/><path d="M723.273,471.528a5.054,5.054,0,0,1,5.849-5.523,37.2,37.2,0,0,1,21.79,11.332,5.053,5.053,0,1,1-7.218,7.073,26.991,26.991,0,0,0-16.219-8.434A5.065,5.065,0,0,1,723.273,471.528Zm26.821,9.042a2.782,2.782,0,0,0-.786-1.662,35.082,35.082,0,0,0-20.552-10.687,2.807,2.807,0,1,0-.915,5.539,29.052,29.052,0,0,1,17.457,9.078,2.808,2.808,0,0,0,4.8-2.268Z" fill="#dedede"/><path d="M145.653,173.129a8.21,8.21,0,0,1,.451-2.157,8.18,8.18,0,0,1,10.441-4.981c17.481,6.19,26.02,16.215,31.506,24.257a8.18,8.18,0,1,1-13.515,9.22c-4.555-6.677-10.549-13.486-23.451-18.054A8.2,8.2,0,0,1,145.653,173.129Zm40.175,22.041a4.512,4.512,0,0,0-.78-2.873c-5.174-7.585-13.228-17.041-29.716-22.879a4.545,4.545,0,1,0-3.034,8.568c13.887,4.917,20.339,12.246,25.241,19.433a4.545,4.545,0,0,0,8.22-1.717A4.4,4.4,0,0,0,185.828,195.17Z" fill="#dedede"/><path d="M277.217,186.873a8.182,8.182,0,0,1,10.892-7.138c17.481,6.189,26.02,16.214,31.506,24.257a8.18,8.18,0,1,1-13.515,9.22c-4.555-6.678-10.549-13.486-23.451-18.055A8.2,8.2,0,0,1,277.217,186.873Zm40.175,22.04a4.511,4.511,0,0,0-.78-2.872c-5.174-7.586-13.228-17.041-29.716-22.879a4.545,4.545,0,1,0-3.034,8.568c13.887,4.917,20.339,12.246,25.241,19.433a4.544,4.544,0,0,0,8.22-1.718A4.4,4.4,0,0,0,317.392,208.913Z" fill="#dedede"/><path d="M154.962,258.422c6.6,4.834,9.513,15.053,18.239,20.159,9.534,5.58,22.624,7.885,31.43-4.817,6.054-8.73,3.155-19.359-1.1-24.986-7.427-9.817-19.782-10.754-24.72-15.967-7.349-7.755-11.272-25.627-24.177-34.586-11.582-8.039-31.616-4.93-40.419,7.858-7.546,10.961-1.344,31.082,8.914,38.639S148.116,253.406,154.962,258.422Z" fill="#dedede"/><path d="M789.5,294.377a14.145,14.145,0,0,1-2.967-12.1c9.091-41.734,42.494-74.68,61.6-90.6a14.17,14.17,0,1,1,18.147,21.768c-16.311,13.6-44.762,41.4-52.052,74.868a14.171,14.171,0,0,1-24.724,6.065Z" fill="#dedede"/><path d="M737.772,500.842A14.148,14.148,0,0,1,730.557,511c-37.524,20.4-84.291,16.665-108.829,12.621a14.17,14.17,0,0,1,4.609-27.963c20.952,3.454,60.6,6.8,90.682-9.556a14.171,14.171,0,0,1,20.753,14.744Z" fill="#dedede"/><path d="M181.454,471.39a14.145,14.145,0,0,1-11.415,4.984c-42.673-1.853-80.825-29.159-99.769-45.271a14.17,14.17,0,1,1,18.361-21.588c16.176,13.758,48.422,37.06,82.637,38.545a14.171,14.171,0,0,1,10.186,23.33Z" fill="#dedede"/><path d="M215.668,316.976a8.179,8.179,0,0,1-6.308,3.477c-24.669,1.2-48.09-12.489-59.856-20.759a8.194,8.194,0,1,1,9.424-13.407c10.046,7.061,29.853,18.762,49.634,17.8a8.195,8.195,0,0,1,7.106,12.892Z" fill="#dedede"/><path d="M800.534,205.2A11.167,11.167,0,1,1,811.7,194.035,11.18,11.18,0,0,1,800.534,205.2Zm0-18.849a7.682,7.682,0,1,0,7.681,7.682A7.691,7.691,0,0,0,800.534,186.353Z" fill="#dedede"/><path d="M682.607,172.53a11.167,11.167,0,1,1,11.167-11.168A11.181,11.181,0,0,1,682.607,172.53Zm0-18.849a7.682,7.682,0,1,0,7.681,7.681A7.69,7.69,0,0,0,682.607,153.681Z" fill="#dedede"/><path d="M102.263,249.524a8.36,8.36,0,1,1,8.359-8.36A8.369,8.369,0,0,1,102.263,249.524Zm0-14.111a5.751,5.751,0,1,0,5.75,5.751A5.758,5.758,0,0,0,102.263,235.413Z" fill="#dedede"/><path d="M228.534,207.761a7.055,7.055,0,1,1,7.054-7.055A7.063,7.063,0,0,1,228.534,207.761Zm0-11.908a4.853,4.853,0,1,0,4.852,4.853A4.859,4.859,0,0,0,228.534,195.853Z" fill="#dedede"/><path d="M159.9,397.078a8.158,8.158,0,1,1,8.157-8.158A8.167,8.167,0,0,1,159.9,397.078Zm0-13.769a5.611,5.611,0,1,0,5.611,5.611A5.618,5.618,0,0,0,159.9,383.309Z" fill="#dedede"/><path d="M280.605,502.66a10.56,10.56,0,1,1,10.56-10.56A10.572,10.572,0,0,1,280.605,502.66Zm0-17.824a7.264,7.264,0,1,0,7.263,7.264A7.273,7.273,0,0,0,280.605,484.836Z" fill="#dedede"/><rect width="365.105" height="401.013" transform="translate(299.119 138.393)" fill="#fff"/><path d="M724.409,200.408v.018a55.287,55.287,0,0,0-3.172,7.756c-.488-1.569-1.2-3.887-1.848-5.752A24.048,24.048,0,0,1,724.409,200.408Z" fill="#fff"/><path d="M715.729,377.706l.836-12.167c1.046-.122,2.894-.348,5.282-.714a4.589,4.589,0,0,1-.035,4.532,4.931,4.931,0,0,1-.506.767v.017C720.208,371.675,717.681,374.864,715.729,377.706Z" fill="#fff"/><path d="M638.432,199.4c5.386.349,11.277,5.195,11.922,5.787-1.36,2.022-3.242,5.369-4.915,7.983-.419.645-1.36,2.109-2.423,3.747,0,0-14.188-2.841-16.628-3.712-1.743-.645-2.737-2.423-1.046-3.538.7-.471,2.231-.576,4.009-.506-4.759-2.684-15.931-3.521-16.018-4.514-.087-.959,1.2-2.074,3.555-2.2a55.735,55.735,0,0,1,7.966.8S633.046,199.053,638.432,199.4Z" fill="#fff"/><path d="M723.938,172.9a7.22,7.22,0,0,0-13.246-3.974c.034-3.486.261-6.449.435-8.035.558-4.9,1.9-6.833,3.207-8.314,4.271-4.829,7.46-3.992,10.267-2.7,3.974,1.848,9.081,7.861,11.033,10.528.749,1.045,1.691,2.475,2.667,4.043a7.067,7.067,0,0,0-3.417-.871,7.216,7.216,0,0,0-6.658,10.039,3.126,3.126,0,0,0-4.357.227A5.731,5.731,0,0,0,723.938,172.9Z" fill="#fff"/><path d="M715.4,176.6c.923-.244,1.394-1.516,1.028-2.841-.349-1.307-1.394-2.179-2.318-1.917-.941.244-1.395,1.516-1.046,2.823C713.428,175.989,714.456,176.843,715.4,176.6Zm8.471-2.736a7.219,7.219,0,0,1-12.881,3.433,81.068,81.068,0,0,1-.3-8.366,7.22,7.22,0,0,1,13.246,3.974,5.731,5.731,0,0,1-.069.941Z" fill="#fff"/><path d="M728.226,173.618a7.216,7.216,0,0,1,6.658-10.039,7.067,7.067,0,0,1,3.417.871h.017c1.255,2.057,2.615,4.375,3.782,6.345v.017a7.226,7.226,0,0,1-13.874,2.806Zm1.482-1.777c.366,1.324,1.394,2.178,2.335,1.934.924-.261,1.395-1.516,1.029-2.841-.349-1.307-1.4-2.178-2.319-1.934C729.812,169.261,729.359,170.533,729.708,171.841Z" fill="#fff"/><path d="M722.945,189.619c1.481,1.046,4.113,2.58,7.32,1.255,3.277-1.359,3.033-5.926,3.033-5.926C729.481,187.51,722.945,189.619,722.945,189.619Zm-6.223-9.5a7.194,7.194,0,0,0,7.147-6.257v-.018a3.126,3.126,0,0,1,4.357-.227,7.226,7.226,0,0,0,13.874-2.806q.366.6.68,1.151c5.456-2.127,5.839,5.124,4.514,7.407a12.084,12.084,0,0,1-6.327,4.776c0,4.149-4.427,9.709-8.924,11.208a14.73,14.73,0,0,1-4.81.645,15.974,15.974,0,0,1-12.323-5.683c-2.319-2.823-3.434-7.843-3.922-13.02A7.252,7.252,0,0,0,716.722,180.12Z" fill="#fff"/><path d="M732.043,195.354c4.5-1.5,8.924-7.059,8.924-11.208.175,1.151.4,6.711.523,10.441.053,1.847.1,3.242.1,3.416v.017a.129.129,0,0,1-.018.07c0,.035-.017.087-.017.174-.035.21-.1.558-.192,1.046v.053c-.924,3.747-4.3,8-8.8,7.686a4.416,4.416,0,0,1-3.625-2.388,11.314,11.314,0,0,1-1.273-4.723v-.087a.3.3,0,0,0,.018-.088h-.018c-.3-1.568-.435-3.747-.435-3.747V196A14.73,14.73,0,0,0,732.043,195.354Z" fill="#fff"/><path d="M725.211,213.638c-.68-1.064-2.109-3.016-3.434-3.643,0,0-.209-.732-.54-1.813a55.287,55.287,0,0,1,3.172-7.756v-.018h.017a23.779,23.779,0,0,1,3.242-.645v.175c-.1.923-.627,5.612-1.255,12.166-.1.976-.191,2-.3,3.067C725.716,214.474,725.4,213.934,725.211,213.638Z" fill="#fff"/><path d="M741.595,198.02a33.691,33.691,0,0,1,4.34,1.569c.366.523,7.721,11.1,7.721,14.4-.017,2.7-10.3,5.874-10.58,7.6-.226,1.429,2.911,2.44,3.242,4.305.21,1.2-1.882,4.723-2.161,5.177l-.1.156c-2.178-1.359-4.2-2.579-5.995-3.625v-.017c.209-2.685.453-5.247.679-7.635.3-2.841.576-5.473.872-7.843.732-6.188,1.429-10.632,1.76-12.741v-.053a5.468,5.468,0,0,0,.192-1.046c0-.087.017-.139.017-.174A.129.129,0,0,0,741.595,198.02Z" fill="#fff"/><path d="M723.363,220.976c-1.6-3.155-4.253-10.633-2.719-11.121a1.552,1.552,0,0,1,1.133.14c1.325.627,2.754,2.579,3.434,3.643.191.3.505.836.906,1.533v.018c.732,1.29,1.708,3.1,2.615,4.758.069.14.139.262.209.384,1.133,2.109,2.074,3.869,2.074,3.869-1.342.384-6.379,9.151-8.21,13.439-.313-.14-.645-.279-.976-.454-6.118-3.1-13.3-11.4-13.944-12.863a2.01,2.01,0,0,1,.994-2.911l.4-.069c-1.6-1.987-2.789-3.783-2.789-4.323a1.482,1.482,0,0,1,2.562-1.22,5.036,5.036,0,0,1-.958-2.371,1.834,1.834,0,0,1,.505-1.324.852.852,0,0,1,.244-.192,1.648,1.648,0,0,1,2.022.436,1.623,1.623,0,0,1,.5-1.586c.8-.558,1.987.435,2.894,1.22C715.363,212.958,722.893,220.505,723.363,220.976Z" fill="#fff"/><path d="M721.237,208.182c.331,1.081.54,1.813.54,1.813a1.552,1.552,0,0,0-1.133-.14c-1.534.488,1.116,7.966,2.719,11.121-.47-.471-8-8.018-9.1-8.994-.907-.785-2.092-1.778-2.894-1.22a1.623,1.623,0,0,0-.5,1.586,1.648,1.648,0,0,0-2.022-.436.852.852,0,0,0-.244.192,1.834,1.834,0,0,0-.505,1.324,5.036,5.036,0,0,0,.958,2.371,1.482,1.482,0,0,0-2.562,1.22c0,.54,1.185,2.336,2.789,4.323l-.4.069a2.01,2.01,0,0,0-.994,2.911c.645,1.464,7.826,9.761,13.944,12.863-.383.122-1.15.279-2.161.471-.261.052-.54.1-.837.157-2.579.436-6.24.976-9.307,1.342-3,.349-5.438.523-5.822.314-.523-.3-3.817-9.412-6.8-18.058-2.65-7.686-5.038-15.007-4.968-15.408.1-.592,13.142-4.009,20.794-5.682,3.015-.662,5.211-1.063,5.4-.906a12.957,12.957,0,0,1,1.255,3.015C720.034,204.295,720.749,206.613,721.237,208.182Z" fill="#fff"/><path d="M718.64,239.155c-.244,1.516-.715,4.2-1.534,7.495-.61,2.51-1.429,5.386-2.475,8.366a67.466,67.466,0,0,1-2.946,7.059q-.707,1.491-1.516,2.929v.034a21.4,21.4,0,0,0-11.556,3.992,14.426,14.426,0,0,0-4.567,5.647l-.505-.261a23.839,23.839,0,0,0-8.437,1.551c16-10.162,21.823-26.371,23.653-33.4l.017-.017c.558-2.127.75-3.4.75-3.4,3.067-.366,6.728-.906,9.307-1.342C718.814,237.918,718.762,238.388,718.64,239.155Z" fill="#fff"/><path d="M744.052,231.224l.1-.156c.279-.454,2.371-3.974,2.161-5.177-.331-1.865-3.468-2.876-3.242-4.305.279-1.726,10.563-4.9,10.58-7.6,0-3.294-7.355-13.874-7.721-14.4a52.572,52.572,0,0,1,30.4,34.546c5.333,19.069-3.033,36.1-10.3,36.1-.175,0-.366,0-.541-.018-9.935-.366-20.445-10.806-24.855-14.066-1.08-.8-2.98-2.283-5.159-4.061-2.074-1.691-4.41-3.625-6.536-5.473-3.661-3.172-6.711-6.048-6.8-6.815a1.76,1.76,0,0,1,.1-.645,12.409,12.409,0,0,1,.557-1.516c1.831-4.288,6.868-13.055,8.21-13.439.523-.139,3.224,1.185,7.042,3.4C739.852,228.645,741.874,229.865,744.052,231.224Z" fill="#fff"/><path d="M765.491,270.233c1.395,5.4,3,19.661-.069,21.63-.332.209-1.465-.192-3.1-.993-8.488-4.2-30.886-19.5-30.886-19.5a46.245,46.245,0,0,0,2.737-9.291c.54-2.7.871-5.229,1.063-7.059.174-1.8.244-2.928.244-2.928,2.179,1.778,4.079,3.259,5.159,4.061,4.41,3.26,14.92,13.7,24.855,14.066Z" fill="#fff"/><path d="M758.24,329.407l.541,8.8H739.643c-.4-2.841-.854-5.839-1.36-8.959h19.94Z" fill="#fff"/><path d="M735.25,312.587c1.133,5.63,2.144,11.312,3.033,16.663.506,3.12.959,6.118,1.36,8.959,1.83,12.55,2.754,21.77,2.754,21.77-2.6.889-5.264,1.656-7.844,2.319-4.758,1.185-9.273,2-12.706,2.527-2.388.366-4.236.592-5.282.714-.627.07-.958.105-.958.105-1.185-2.057-4.48-10.475-8.192-20.428v-.035c-6.048-16.279-13.16-36.707-13.857-40.3-.906-4.723-4.236-20.323.488-30.206a14.426,14.426,0,0,1,4.567-5.647,21.4,21.4,0,0,1,11.556-3.992,30.673,30.673,0,0,1,9.5,1.081,40.927,40.927,0,0,1,9.273,3.748c.924.505,1.76,1.011,2.492,1.5,0,0,22.4,15.3,30.886,19.5a23.864,23.864,0,0,1-.819,5.542,28.112,28.112,0,0,1-4.724,10.005C750.571,314.627,735.93,312.692,735.25,312.587Z" fill="#fff"/><path d="M694.046,274.677c-4.724,9.883-1.394,25.483-.488,30.206.7,3.591,7.809,24.019,13.857,40.3v.035c.314,1.761,4.706,25.43,4.706,25.43a54.684,54.684,0,0,1-5.107,2.075,105.685,105.685,0,0,1-10.876,3.12c-4.462,1.045-7.757,1.586-7.757,1.586-3.364-8.959-19.208-72.16-16.663-84.971,2.005-10.057,8.14-14.519,13.386-16.489a23.839,23.839,0,0,1,8.437-1.551Z" fill="#fff"/><path d="M709.663,382.743c.3,1.516,1.83,6.693-.662,8.192-1.011.627-3.033-1.22-4.166-.889-1.133.349-12.2,6.972-14.554,7.355-1.778.3-5.508-.453-5.438-2.039.1-2.475,9.9-11.922,10.685-13.212,1.115-1.865.662-5.368.61-6.309a105.685,105.685,0,0,0,10.876-3.12S708.983,379.449,709.663,382.743Z" fill="#fff"/><path d="M718.762,384.294a8.681,8.681,0,0,1-3.486-.017c-1.151-.279-2.074-.767-2.109-1.552-.035-.923,1.1-2.876,2.562-5v-.017c1.952-2.842,4.479-6.031,5.577-7.565v-.017a4.931,4.931,0,0,0,.506-.767,4.589,4.589,0,0,0,.035-4.532c3.433-.523,7.948-1.342,12.706-2.527a35.409,35.409,0,0,1,2.214,5.7c.453,1.482,2.423,6.815.087,8.541a.853.853,0,0,1-.523.157c-1.081,0-2.806-1.36-3.73-.994a16.7,16.7,0,0,0-1.656,1.011c-2.632,1.743-7.652,5.229-10.51,6.815h-.018A7.761,7.761,0,0,1,718.762,384.294Z" fill="#fff"/><path d="M761.221,376.712l.575,8.959h-41.5l.14-2.144c2.858-1.586,7.878-5.072,10.51-6.815h30.276Z" fill="#fff"/><path d="M764.759,432.488l.575,8.976H716.565v-.017l.593-8.959Z" fill="#fff"/><path d="M768.489,492.29l.575,8.959h-56.49l.61-8.959Z" fill="#fff"/><path d="M761.517,296.412l17.221,268.63H773.16l-.4-6.222-.558-8.976-3.085-48.6-3.783-59.785-.575-8.976L761.8,385.671l-.575-8.959-2.981-47.3-.017-.157-1.447-22.833a28.112,28.112,0,0,0,4.724-10.005Z" fill="#fff"/><path d="M772.2,549.844l.558,8.976H708.914V558.8l.436-8.959Z" fill="#fff"/><path d="M720.417,383.527l-3.259,48.961h-.017l-.593,8.976h.017l-3.381,50.809v.017h-.017l-.593,8.959-3.225,48.6h-.017l-.593,8.976h.175l-.593,6.222h-5.577l12.532-180.765a8.681,8.681,0,0,0,3.486.017A7.761,7.761,0,0,0,720.417,383.527Z" fill="#fff"/><path d="M408.4,211.685v.018a24.414,24.414,0,0,0-5.874-1.656s-1.638-9.674-1.011-10.475c.541-.7,4.131-1.029,4.689-.558C406.853,199.572,408.2,208.688,408.4,211.685Z" fill="#fff"/><path d="M421.058,227.3v.017c-3.468,1.464-11.207,7.39-15.355,11.295,0,0-8.384-11.521-5.944-17.849,0,0-2.37-1.237-2.231-2.823.139-1.656,1.987-2.144,3.085-2.353,0,0-2.754-3.486-1.447-5.212.366-.47,1.674-.558,3.364-.331A24.414,24.414,0,0,1,408.4,211.7a14.05,14.05,0,0,1,4.323,2.649s-.872-4.183.662-4.9c1.708-.784,5.125,2.057,5.543,5.508S419.943,224.636,421.058,227.3Z" fill="#fff"/><path d="M421.058,227.32a2.332,2.332,0,0,1,1.517-.3c.836.348,3.085,3.608,6.466,8.122-5.02,10.319-18.022,18.371-18.022,18.371l-1.273.035c-4.427-6.118-7.094-10.772-6.78-11.765a12.274,12.274,0,0,1,2.737-3.172C409.851,234.71,417.59,228.784,421.058,227.32Z" fill="#fff"/><path d="M486.107,236.366c0,1.708.906,3.1,2.022,3.1s2.022-1.395,2.022-3.1-.907-3.085-2.022-3.085S486.107,234.658,486.107,236.366Zm29.526,6.606c.384,4.288-3.1,6.972-4.88,7.687a7.548,7.548,0,0,1-1.534.4c.627,3.085,1.6,8.523,2.388,12.915.662,3.817,1.185,6.85,1.185,6.85-4.253,2.963-9.987,3.957-16.3,3.695V274.5l-1.115-5.578c-6.083.7-9.779-3.573-11.731-6.972a20.863,20.863,0,0,1-1.76-3.921v-.471c2.946-.035,6.4-.453,7.32-1.185a7.752,7.752,0,0,0-4.479-4.549,6.975,6.975,0,0,0-4.741-.227c-.279-1.307-2.492-3.172-2.492-3.172.418-1.168,4.392-5.926,4.9-9.517.558-3.939.1-10.441.61-14.571.837-6.92,9.569-12.428,16.995-13.265a24.639,24.639,0,0,1,25.256,14.4c-2.685,5.4-16.576,12.967-16.576,13.4C508.679,239.155,515.11,237.482,515.633,242.972Z" fill="#fff"/><path d="M496.983,514.13h.157v.3l-17.726.035,2.266-33.082c2.44,9.639,4.723,17.726,5.7,18.2a9.305,9.305,0,0,0,3.033.348c.035.244.279,2.667-.174,3.486-1.1,2.022-4.793,4.567-4.41,7.652C486.124,513.415,489.14,514.095,496.983,514.13Z" fill="#fff"/><path d="M529.316,510.417c0-4.741-5.7-6.4-6.781-7.913a9.677,9.677,0,0,1-1.307-3.817,8.26,8.26,0,0,0,4.1-.4c1.342-.8,3.713-13.735,5.961-27.9h.018l4.392,43.993-14.972.017v-.261C526.91,514.13,529.316,512.2,529.316,510.417Z" fill="#fff"/><path d="M520.078,514.13h.645v.261l-23.583.035v-.3c7.826,0,9.29-2.493,9.6-4.428.558-3.294-1.795-7.181-2.144-7.965a11.9,11.9,0,0,1-.645-3.451c1.8-.523,3.1-1.168,3.451-1.935,0,0,1.6.384,3.87.837v.035c.453,1.638-.8,4.235-1.325,5.42-.471,1.116-1.9,4.027-1.325,6.728C508.958,510.975,513.42,513.99,520.078,514.13Z" fill="#fff"/><path d="M504.6,501.737c.349.784,2.7,4.671,2.144,7.965-.314,1.935-1.778,4.428-9.6,4.428h-.157c-7.843-.035-10.859-.715-11.155-3.068-.383-3.085,3.312-5.63,4.41-7.652.453-.819.209-3.242.174-3.486a55.241,55.241,0,0,0,13.543-1.638A11.9,11.9,0,0,0,504.6,501.737Z" fill="#fff"/><path d="M511.276,497.188a78.045,78.045,0,0,0,9.952,1.5,9.677,9.677,0,0,0,1.307,3.817c1.081,1.516,6.781,3.172,6.781,7.913,0,1.778-2.406,3.713-8.593,3.713h-.645c-6.658-.14-11.12-3.155-11.452-4.759-.575-2.7.854-5.612,1.325-6.728.523-1.185,1.778-3.782,1.325-5.42Z" fill="#fff"/><path d="M535.7,514.374l.889,8.976H478.8l.61-8.889,17.726-.035,23.583-.035Z" fill="#fff"/><path d="M534.37,450.144l7.6,73.38.941,8.977,3.364,32.541h-5.508l-.854-8.523L537.508,532.5l-.889-8.977-.924-9.15L531.3,470.381h-.018C532.383,463.513,533.447,456.349,534.37,450.144Z" fill="#fff"/><path d="M478.786,523.524l-.61,8.977-1.028,15.059-.61,8.959-.593,8.523h-5.508L473,532.5l.714-8.977L478.176,467c1.116,4.706,2.336,9.726,3.5,14.38l-2.266,33.082-.61,8.889Z" fill="#fff"/><path d="M539.007,547.56l.906,8.959H476.538l.61-8.959Z" fill="#fff"/><path d="M505.315,381.714s.122,100.345,2.091,114.637c-.348.767-1.656,1.412-3.451,1.935a55.241,55.241,0,0,1-13.543,1.638,9.305,9.305,0,0,1-3.033-.348c-.976-.471-3.259-8.558-5.7-18.2-1.168-4.654-2.388-9.674-3.5-14.38-1.29-5.473-2.457-10.528-3.277-14.118-2.98-13.073-8.959-67.7-8.959-67.7l-.017-.07A243.892,243.892,0,0,1,505.315,381.714Z" fill="#fff"/><path d="M521.228,498.687a78.045,78.045,0,0,1-9.952-1.5c-2.266-.453-3.87-.837-3.87-.837-1.969-14.292-2.091-114.637-2.091-114.637a223.16,223.16,0,0,1,35.487,3.225c.279,4.2-2.806,41.814-3.991,48.8-.436,2.51-1.325,8.75-2.441,16.4-.923,6.2-1.987,13.369-3.085,20.237-2.248,14.17-4.619,27.1-5.961,27.9A8.26,8.26,0,0,1,521.228,498.687Z" fill="#fff"/><path d="M465.923,385.113c-3.068.506-4.863.854-4.863.854S459.2,340.824,472.3,303.785c-11.9-5-24.82-11.329-37.648-22.432-9.395-8.14-18.807-19.365-24.908-27.8l1.273-.035s13-8.052,18.022-18.371c5.735,7.617,14.711,18.807,25.605,25.483,9.255,5.682,27.1,13.246,41.849,13.891,6.31.262,12.044-.732,16.3-3.695.227-.157.453-.314.68-.488,6.449-1.22,13.613,2.686,21.636,8.818,10.876,6.539,17.9,28.257,18.965,47.413.958,17.43-3.033,39.514-3.033,39.514,1.725,13.212,1.98,22.134,1.98,22.134-1.777-.994-6.17-2.179-12.218-3.277a223.16,223.16,0,0,0-35.487-3.225A243.892,243.892,0,0,0,465.923,385.113Z" fill="#fff"/><path d="M326.118,252.245c.836.627.244,8.889.244,10.475-1.639,1.1-3.434,2.51-4.794,3.626,0,0-.261-11.068.21-11.992C322.248,253.413,325.63,251.879,326.118,252.245Z" fill="#fff"/><path d="M330.458,261.064c1.551,1.273-.785,4.515-1.168,5.055,0,0,1.987,1.656,1.83,3.4-.174,1.76-1.848,4.235-1.848,5.281s1.046,3.5.7,5.944a15.862,15.862,0,0,1-8.82,11.486c-1.534-4.532-7.477-10.266-12.009-11.73,0,0,1.342-6.519,4.1-10.371,1.935-2.7,5.874-6.885,7.286-5.839.662.505-.122,2.231-1.116,3.887.157-.14.994-.872,2.161-1.83,1.36-1.116,3.155-2.528,4.794-3.626C328.227,261.448,329.9,260.594,330.458,261.064Z" fill="#fff"/><path d="M279.126,238.981c.785-.331.855-1.97.157-3.661s-1.9-2.788-2.684-2.457c-.784.314-.854,1.952-.157,3.643S278.342,239.294,279.126,238.981Zm1.918,19.574c.47-.314.784-3.887-.192-4.271-1.743-.645-6.362,3.748-6.135,4.218C274.961,258.973,280.573,258.886,281.044,258.555Zm4.706-5.508c-.331,2.074-.279,4.653-1.116,7.477-.8,2.7-2.248,6.066-3.73,7.321-.993.836-4.915.8-7.442.7a3.731,3.731,0,0,0-3.347,1.76,51.855,51.855,0,0,1-4.741,6.362c-5.647-6.885-9.046-8.628-13.369-9.046,6.24-11.016,6.676-16.8,6.676-16.8-3.573.906-6.187-2.371-6.466-5.717-.279-3.364.453-6.711,2.649-7.391,2.144-.662,3.817,1.22,4.445,3.173.47,1.429.854,3.677,2.266,3.573,1.394-.087,1.76-4.288,1.865-8.123.087-3.817.3-6.414,1.411-8.174,1.674-2.65,10.075-5.4,13.439-6.1.976.68,3.259,4.288,3.922,7.565.644,3.259,1.586,8.122,2.893,10.353,1.307,2.249,5.909,3.382,6.257,5.229C291.92,248.2,286.133,250.711,285.75,253.047Z" fill="#fff"/><path d="M299.119,286.216c4.026-3.469,7.442-6.135,8.279-6.083h.035a6.417,6.417,0,0,1,1.708.366c4.532,1.464,10.475,7.2,12.009,11.73a7.5,7.5,0,0,1,.349,1.534c.1,1.133-6.258,9.046-14.066,17.325-2.667,2.807-5.508,5.683-8.314,8.332-7.164,6.763-14.136,12.131-17.622,11.887-7.059-.488-15.774-8.907-23.548-18.406-6.449,16.4-12.811,35.906-16.959,49.4-1.865,6.048-3.294,10.893-4.1,13.717a3.031,3.031,0,0,1-3.26,2.179c-.453-.053-.923-.105-1.394-.175-17.256-2.283-39.636-12.166-50.651-17.412l-.018-.018c-1.168-.575-2.213-1.08-3.1-1.516a4.078,4.078,0,0,1-2.022-5.055c8.314-22.31,19.068-40.611,30.537-54.555,15.129-18.441,30.5-33.2,45.021-31.845,4.323.418,7.722,2.161,13.369,9.046,4.131,5.038,9.447,12.829,17.238,24.838C283.676,300.212,292.3,292.055,299.119,286.216Z" fill="#fff"/><path d="M282.839,404.949c2.649,11.625-12.933,34.04-22.328,46.1-1.011,1.307-1.952,2.475-2.788,3.5,0,0-1.029-.348-2.51-.854-3.085-1.063-8.14-2.806-10.232-3.66-.958-5.892-1.917-11.87-2.876-17.726,3.016-4.741,8.715-14.92,8.227-18.528-.523-3.87-12.079-9.726-13.037-10.2-2.319-13.3-4.184-23.147-5.055-25.57.471.07.941.122,1.394.175a3.031,3.031,0,0,0,3.26-2.179c.8-2.824,2.231-7.669,4.1-13.717C240.99,362.3,278.638,386.473,282.839,404.949Z" fill="#fff"/><path d="M260.511,451.051l1.168,13.909a9.886,9.886,0,0,1-1.412-.819c-2.771-2.075-5.786-6.118-5.054-10.441,1.481.506,2.51.854,2.51.854C258.559,453.526,259.5,452.358,260.511,451.051Z" fill="#fff"/><path d="M256.921,473.919c-4.166-.174-7.687-.453-8.227-.506-1.168-7.32-2.423-15.286-3.713-23.373,2.092.854,7.147,2.6,10.232,3.66-.732,4.323,2.283,8.366,5.054,10.441a9.886,9.886,0,0,0,1.412.819c3.782,1.9,11.19,4.148,10.127,7.442-.384,1.22-4.636,1.6-9.377,1.621C260.6,474.023,258.7,473.989,256.921,473.919Z" fill="#fff"/><path d="M217.93,483.348l-.453.157H207.211l.871-10.458h5.944l.47-.157C215.682,476.551,216.814,480.072,217.93,483.348Z" fill="#fff"/><path d="M242.1,432.314c.959,5.856,1.918,11.834,2.876,17.726,1.29,8.087,2.545,16.053,3.713,23.373.54,3.521,1.08,6.9,1.586,10.092,2.353,15.129,3.974,25.675,3.974,25.675a14.019,14.019,0,0,1-4.131.505c-3.852.157-9.569.017-14.136-.157-4.235-.174-7.512-.348-7.512-.348-2.022-1.935-5.874-11.888-10.545-25.832-1.116-3.276-2.248-6.8-3.434-10.458-1.568-4.845-3.172-9.987-4.81-15.3-1.447-4.706-2.929-9.569-4.393-14.467-11.747-39.043-23.321-81.1-23.7-82.513,11.015,5.246,33.395,15.129,50.651,17.412.871,2.423,2.736,12.271,5.055,25.57C238.776,412.1,240.432,422.012,242.1,432.314Z" fill="#fff"/><path d="M256.921,473.919l.819,9.586h-7.46c-.506-3.189-1.046-6.571-1.586-10.092C249.234,473.466,252.755,473.745,256.921,473.919Z" fill="#fff"/><path d="M262.429,474.023l3.66,43.645c-1.761-.558-3.8-1.028-5.578-1.447l-2.771-32.716-.819-9.586C258.7,473.989,260.6,474.023,262.429,474.023Z" fill="#fff"/><path d="M266.089,517.668c3,.924,5.194,2.109,3.956,3.66-.366.453-1.655.819-3.555,1.133a124.032,124.032,0,0,1-16.3.889c-7.669,0-14.763-.471-15.461-1.377-1.481-1.952,1.255-12.445,1.255-12.445,4.567.174,10.284.314,14.136.157v.017c.889,2.807,3.835,4.288,6.5,5.456a30.228,30.228,0,0,0,3.887,1.063C262.289,516.64,264.328,517.11,266.089,517.668Z" fill="#fff"/><path d="M250.193,523.35a124.032,124.032,0,0,0,16.3-.889l3.555,42.581h-5.507l-2.667-32.733-.767-8.959Z" fill="#fff"/><path d="M209.686,457.587l-.332.1-1.272,15.355-.871,10.458-3.887,46.939-.157,1.865-2.7,32.733h-5.508L205,443.207l.3-.087C206.757,448.018,208.239,452.881,209.686,457.587Z" fill="#fff"/><path d="M261.1,523.35l.767,8.959H203.184l.139-1.865.627-7.094H261.1Z" fill="#fff"/><path d="M280.852,254.284c.976.384.662,3.957.192,4.271-.471.331-6.083.418-6.327-.053C274.49,258.032,279.109,253.639,280.852,254.284Z" fill="#231f20"/><path d="M733.3,184.948s.244,4.567-3.033,5.926c-3.207,1.325-5.839-.209-7.32-1.255C722.945,189.619,729.481,187.51,733.3,184.948Z" fill="#231f20"/><path d="M714.91,190.316A15.974,15.974,0,0,0,727.233,196v.017s.139,2.179.435,3.747a23.779,23.779,0,0,0-3.242.645h-.017a24.048,24.048,0,0,0-5.02,2.022,12.957,12.957,0,0,0-1.255-3.015c-.192-.157-2.388.244-5.4.906V200.3c-7.495,0-11.469-6.5-11.974-10.2-.837-6.17,3.782-16.471,4.061-19.295.279-2.841-.7-11.172,0-18.458.714-7.286,7.495-14.5,20.288-16.942,12.724-2.44,24.576,5.229,28.045,14.275,2.214,5.839,8.541,17.8,12.044,21.125,3.5,3.312,7.443,7.269,4.758,13.334-3,6.78-11.9,4.026-11.9,4.026-4.916,10.6-16,6.624-16.559,6.415-.122-3.73-.348-9.29-.523-10.441a12.084,12.084,0,0,0,6.327-4.776c1.325-2.283.942-9.534-4.514-7.407q-.314-.549-.68-1.151v-.017c-1.167-1.97-2.527-4.288-3.782-6.345H738.3c-.976-1.568-1.918-3-2.667-4.043-1.952-2.667-7.059-8.68-11.033-10.528-2.807-1.29-6-2.127-10.267,2.7-1.307,1.481-2.649,3.416-3.207,8.314-.174,1.586-.4,4.549-.435,8.035a81.068,81.068,0,0,0,.3,8.366C711.476,182.473,712.591,187.493,714.91,190.316Z" fill="#231f20"/><path d="M484.73,251.827a7.752,7.752,0,0,1,4.479,4.549c-.923.732-4.374,1.15-7.32,1.185-2.283.035-4.253-.174-4.567-.662-.7-1.116.75-3.922,1.935-4.9a2.1,2.1,0,0,1,.732-.384V251.6A6.975,6.975,0,0,1,484.73,251.827Z" fill="#231f20"/><path d="M525.255,225.473a3.931,3.931,0,0,0,.418-1.133s4.479,5.6,2.824,17.97c-1.482,11.085-10.424,14.658-12.48,15.966a12.261,12.261,0,0,0-4.41,5.7c-.784-4.392-1.761-9.83-2.388-12.915a7.548,7.548,0,0,0,1.534-.4c1.778-.715,5.264-3.4,4.88-7.687-.523-5.49-6.954-3.817-6.954-4.1C508.679,238.44,522.57,230.876,525.255,225.473Z" fill="#231f20"/><path d="M263.44,236.331c-.105,3.835-.471,8.036-1.865,8.123-1.412.1-1.8-2.144-2.266-3.573-.628-1.953-2.3-3.835-4.445-3.173-2.2.68-2.928,4.027-2.649,7.391.279,3.346,2.893,6.623,6.466,5.717,0,0-.436,5.786-6.676,16.8,0,0-4.252-9.621-8.174-14.658s-9.151-8.593-9.151-14.572c0-7.843,11.016-17.744,17.918-22.031,6.92-4.306,16.715-7.338,22.415-7.094,5.578.244,9.691,1.882,10.109,5.839.314,3.137-3.73,6.292-6.832,6.954-3.364.7-11.765,3.451-13.439,6.1C263.736,229.917,263.527,232.514,263.44,236.331Z" fill="#231f20"/><path d="M733.072,170.934c.366,1.325-.105,2.58-1.029,2.841-.941.244-1.969-.61-2.335-1.934-.349-1.308.1-2.58,1.045-2.841C731.677,168.756,732.723,169.627,733.072,170.934Z" fill="#231f20"/><path d="M716.426,173.758c.366,1.325-.105,2.6-1.028,2.841-.942.244-1.97-.61-2.336-1.935-.349-1.307.1-2.579,1.046-2.823C715.032,171.579,716.077,172.451,716.426,173.758Z" fill="#231f20"/><path d="M488.129,233.281c1.115,0,2.022,1.377,2.022,3.085s-.907,3.1-2.022,3.1-2.022-1.395-2.022-3.1S487.013,233.281,488.129,233.281Z" fill="#231f20"/><path d="M279.283,235.32c.7,1.691.628,3.33-.157,3.661-.784.313-1.987-.785-2.684-2.475s-.627-3.329.157-3.643C277.383,232.532,278.586,233.63,279.283,235.32Z" fill="#231f20"/><path d="M703.7,239.469c.384.209,2.824.035,5.822-.314,0,0-.192,1.272-.75,3.4l-.017.017c-5.055,5.038-12.567,10.145-19.121,10.162-12.741,0-50.3-26.441-50.581-28.5,0-.418,2.37-4.218,4.357-7.321,1.046-1.638,1.987-3.1,2.405-3.747,1.691-2.614,3.556-5.961,4.933-7.983.732-1.081,1.325-1.778,1.673-1.778,1.273,0,35.958,24.576,38.242,24.611,2.475.053,5.6-4.653,6.24-6.606C699.885,230.057,703.179,239.172,703.7,239.469Z" fill="#fff"/><path d="M733.072,170.934c.366,1.325-.105,2.58-1.029,2.841-.941.244-1.969-.61-2.335-1.934-.349-1.308.1-2.58,1.045-2.841C731.677,168.756,732.723,169.627,733.072,170.934Z" fill="#231f20"/><path d="M713.062,174.664c-.349-1.307.1-2.579,1.046-2.823.924-.262,1.969.61,2.318,1.917.366,1.325-.105,2.6-1.028,2.841C714.456,176.843,713.428,175.989,713.062,174.664Z" fill="#231f20"/><path d="M738.51,222.492h-.018l-10.51-3.922c-.662-1.22-1.342-2.44-1.865-3.381v-.018c.14-1.568.3-3.05.418-4.444l12.777,3.9C739.033,217.036,738.771,219.668,738.51,222.492Z" fill="#818181"/><path d="M722.143,239.8c.1.854,3.974,4.41,8.244,8.07l-12.218-4.235c.819-3.382,1.185-5.665,1.238-5.927,1.15-.209,2.021-.4,2.422-.523.331.175.663.314.976.454A6.172,6.172,0,0,0,722.143,239.8Z" fill="#818181"/><path d="M716.095,251.077l18.824,6.449a64.682,64.682,0,0,1-1.481,7.826l-20.027-7.041C714.456,255.853,715.345,253.4,716.095,251.077Z" fill="#818181"/><path d="M727.668,199.938c.053,1.028.541,6.815,4.9,7.111,4.5.314,7.878-3.939,8.8-7.686-.383,2.387-1.2,7.773-2.056,15.268l-12.777-3.9C727.111,204.888,727.564,200.792,727.668,199.938Z" fill="#fff"/><path d="M727.982,218.57l10.51,3.922h.018c-.157,1.638-.314,3.329-.453,5.09v.017c-3.818-2.214-6.519-3.538-7.042-3.4C731.015,224.2,729.5,221.342,727.982,218.57Z" fill="#fff"/><path d="M718.169,243.635l12.218,4.235h.018c1.691,1.464,3.468,2.928,5.072,4.218,0,0-.122,2.249-.558,5.438l-18.824-6.449C716.966,248.306,717.646,245.761,718.169,243.635Z" fill="#fff"/><path d="M731.433,271.366c-4.479-2.981-12.828-6.781-21.264-6.328V265a62.537,62.537,0,0,0,3.242-6.693l20.027,7.041A38.672,38.672,0,0,1,731.433,271.366Z" fill="#fff"/><path d="M727.459,196.9a16.931,16.931,0,0,1-13.223-6.036c-6.333-7.667-4-29.845-3.976-30.066.6-5.223,2.077-7.275,3.418-8.79h0c4.492-5.079,8.078-4.4,11.282-2.921,4.1,1.9,9.237,7.9,11.379,10.8,1.794,2.434,4.425,6.918,6.541,10.521l.3.5a3.9,3.9,0,0,1,4.286,1.1c1.832,2.143,1.563,6.109.581,7.792a12.516,12.516,0,0,1-6.24,4.976c-.394,4.445-4.817,9.842-9.485,11.4A15.619,15.619,0,0,1,727.459,196.9Zm-6.628-47.16c-1.684,0-3.555.831-5.849,3.423h0c-1.163,1.315-2.451,3.114-2.989,7.832-.637,5.564-1.341,22.793,3.588,28.759,4.8,5.809,12.47,6.008,16.186,4.771,4.122-1.378,8.322-6.616,8.322-10.378a.874.874,0,0,1,.624-.836c.039-.012,3.968-1.21,5.825-4.389.71-1.218.815-4.359-.4-5.782-.245-.287-.992-1.161-3.038-.367a.873.873,0,0,1-1.067-.37l-.654-1.111c-1.985-3.379-4.7-8.008-6.441-10.369-2.381-3.232-7.2-8.63-10.708-10.255A8.115,8.115,0,0,0,720.831,149.743Zm-6.5,2.846h0Z" fill="#231f20"/><path d="M734.878,178.89a8.088,8.088,0,1,1,0-16.175,8,8,0,0,1,3.856.98.872.872,0,0,1-.841,1.527,6.252,6.252,0,0,0-3.015-.764,6.345,6.345,0,1,0,6.346,6.345.871.871,0,0,1,1.743,0A8.1,8.1,0,0,1,734.878,178.89Z" fill="#231f20"/><path d="M716.716,181a8.08,8.08,0,0,1-6.423-3.161.871.871,0,1,1,1.378-1.067A6.346,6.346,0,0,0,723,173.743a5.076,5.076,0,0,0,.063-.831,6.35,6.35,0,0,0-11.649-3.493.872.872,0,0,1-1.454-.962,8.093,8.093,0,0,1,14.846,4.455,6.568,6.568,0,0,1-.082,1.081A8.079,8.079,0,0,1,716.716,181Z" fill="#231f20"/><path d="M723.871,174.722a.871.871,0,0,1-.661-1.435,3.942,3.942,0,0,1,5.537-.361.872.872,0,0,1-1.045,1.4,2.2,2.2,0,0,0-3.176.106A.875.875,0,0,1,723.871,174.722Z" fill="#231f20"/><ellipse cx="1.742" cy="2.468" rx="1.742" ry="2.468" transform="translate(712.42 172.288) rotate(-15.127)" fill="#231f20"/><ellipse cx="1.742" cy="2.468" rx="1.742" ry="2.468" transform="translate(729.065 169.462) rotate(-15.127)" fill="#231f20"/><path d="M725.836,175.415a4.369,4.369,0,0,1-.15,3.107,14.254,14.254,0,0,1-1.339,2.46,4.684,4.684,0,0,0-.822,1.83c0,.464.452.926,1.167,1.3l.035.018a.592.592,0,0,1-.344,1.113,3.233,3.233,0,0,1-1.526-.557,2.592,2.592,0,0,1-1.034-1.561,3.142,3.142,0,0,1,.283-1.811,8.033,8.033,0,0,1,.681-1.289c.518-.808,1.037-1.461,1.373-2.141a5.146,5.146,0,0,0,.62-2.085l-.01-.156a.551.551,0,0,1,1.066-.225Z" fill="#231f20"/><path d="M727.76,192.256a9.335,9.335,0,0,1-5.323-1.931.871.871,0,0,1,.234-1.543c.064-.02,6.466-2.094,10.136-4.551a.871.871,0,0,1,1.355.674c.012.212.248,5.194-3.559,6.772A7.366,7.366,0,0,1,727.76,192.256Zm-2.776-2.431a5.81,5.81,0,0,0,4.951.242,4.373,4.373,0,0,0,2.361-3.485A52.224,52.224,0,0,1,724.984,189.825Z" fill="#231f20"/><path d="M733.038,207.937c-.173,0-.349-.006-.526-.018-4.432-.308-5.675-5.452-5.712-8.128a33.064,33.064,0,0,1-.436-3.715.872.872,0,0,1,.817-.924.881.881,0,0,1,.923.817,34.495,34.495,0,0,0,.424,3.644c.017.213.161,6.293,4.1,6.567,4.521.33,7.778-4.674,8.091-8.241-.1-3.252-.4-12.262-.623-13.652a.872.872,0,1,1,1.722-.274c.285,1.785.625,13.48.64,13.977C742.087,202.315,738.352,207.937,733.038,207.937Z" fill="#231f20"/><path d="M766.024,271.112c-8.572,0-17.554-7.431-22.919-11.87-1.173-.97-2.182-1.806-2.989-2.4-.184-.135-18.552-14.378-18.838-16.945-.219-1.972,7.236-15.9,9.505-16.53,2.626-.7,27.641,15.481,37.731,24.418a.871.871,0,0,1-1.154,1.306c-11.132-9.861-33.3-23.411-36.145-24.006-1.613,1.2-8.167,12.851-8.2,14.647.66,1.616,13.688,12.43,18.138,15.708.825.608,1.862,1.464,3.064,2.459,5.186,4.29,13.865,11.47,21.809,11.47,1.825,0,3.83-1.317,5.648-3.71,4.424-5.826,7.508-18.1,3.83-31.3-7.886-28.274-33.873-35.435-34.133-35.5a.871.871,0,1,1,.442-1.685c.271.07,27.209,7.459,35.369,36.721,3.86,13.838.711,26.455-4.121,32.819C770.906,269.55,768.407,271.112,766.024,271.112Z" fill="#231f20"/><path d="M738.053,228.462q-.036,0-.072,0a.872.872,0,0,1-.8-.94c1.081-13.326,2.543-23.442,3.319-28.287l.147-.885c.028-.164.049-.28.056-.343a1.021,1.021,0,0,1,.024-.132.872.872,0,0,1,1.732.139,1.328,1.328,0,0,1-.03.234c-.012.089-.034.222-.065.4l-.141.859c-.773,4.826-2.23,14.891-3.306,28.159A.87.87,0,0,1,738.053,228.462Z" fill="#231f20"/><path d="M722.81,238.509a.86.86,0,0,1-.335-.067c-6.4-2.677-14.579-11.941-15.391-13.764a3.2,3.2,0,0,1-.026-2.742,2.548,2.548,0,0,1,1.616-1.376.872.872,0,1,1,.422,1.692.823.823,0,0,0-.472.448,1.455,1.455,0,0,0,.053,1.269c.6,1.345,8.31,10.29,14.468,12.865a.871.871,0,0,1-.335,1.675Z" fill="#231f20"/><path d="M715.819,228.72a.863.863,0,0,1-.447-.124c-3.086-1.851-9.74-9.751-9.752-11.579a2.372,2.372,0,0,1,1.706-2.486,2.223,2.223,0,0,1,2.485.822.872.872,0,0,1-1.486.913.734.734,0,0,0-.628-.022c-.084.039-.337.154-.334.762.25,1.191,5.946,8.32,8.9,10.1a.871.871,0,0,1-.448,1.618Zm-7.513-12.485h0Z" fill="#231f20"/><path d="M731.016,225.079a.871.871,0,0,1-.769-.462c-.048-.089-4.814-9.013-5.777-10.514-1.4-2.171-2.759-3.387-3.4-3.437-.269,1.235,1.373,6.566,3.089,9.923a.871.871,0,1,1-1.552.793c-.96-1.879-4.055-9.238-3.1-11.516a1.435,1.435,0,0,1,.883-.846c1.956-.628,4.109,1.9,5.551,4.141,1,1.56,5.651,10.266,5.848,10.636a.872.872,0,0,1-.769,1.282Z" fill="#231f20"/><path d="M723.382,221.857a.865.865,0,0,1-.616-.256c-.08-.08-7.97-7.986-9.079-8.956-1.468-1.285-1.774-1.2-1.825-1.164-.141.115-.347.759.315,1.686a86.493,86.493,0,0,0,6.376,6.745.878.878,0,0,1,.172,1.218.861.861,0,0,1-1.2.186,79.853,79.853,0,0,1-6.765-7.136,3.524,3.524,0,0,1-.742-2.7,2.19,2.19,0,0,1,.865-1.44c1.4-.953,3,.454,3.954,1.293,1.154,1.007,8.839,8.709,9.164,9.036a.87.87,0,0,1-.616,1.487Z" fill="#231f20"/><path d="M716.495,224a.871.871,0,0,1-.4-.1c-3.456-1.8-8.971-7.967-8.872-10.518a2.352,2.352,0,0,1,2.019-2.5,2.31,2.31,0,0,1,2.478,1.232.871.871,0,0,1-1.618.632.992.992,0,0,0-.787-.1c-.214.087-.332.355-.349.8-.054,1.392,4.621,7.177,7.936,8.9a.872.872,0,0,1-.4,1.644Z" fill="#231f20"/><path d="M704.647,240.4a3.461,3.461,0,0,1-1.376-.17c-1.721-.983-12.235-34.124-12.192-34.374.1-.573.611-.813,1.331-1.087,1.271-.487,24.856-7.158,26.264-6.033.226.18.916.73,3.934,11.008a.871.871,0,0,1-1.672.492c-1.22-4.154-2.706-8.75-3.3-9.974-3.025.261-21.512,4.886-24.722,6.171,1.1,4.019,9.8,29.62,11.319,32.3,1.813.192,15.166-1.7,17.326-2.381a.871.871,0,1,1,.525,1.661C720.868,238.4,708.9,240.4,704.647,240.4Z" fill="#231f20"/><path d="M708.606,212.993a.88.88,0,0,1-.691-1.428,1.67,1.67,0,0,1,.483-.4.871.871,0,1,1,.882,1.5A.862.862,0,0,1,708.606,212.993Z" fill="#231f20"/><path d="M689.632,253.6c-12.867,0-51.029-26.172-51.446-29.244-.008-.539-.008-.974,6.584-11.161l.32-.494c.775-1.2,1.588-2.558,2.375-3.871,2.851-4.756,3.864-6.293,4.96-6.293.67,0,2.078.853,15.469,9.906,8.482,5.733,21.3,14.4,22.843,14.72h.015c1.767,0,4.669-4.031,5.326-6.025a.871.871,0,1,1,1.654.545c-.692,2.106-4.01,7.217-7.045,7.217h-.042c-1.323-.023-7.367-3.953-23.726-15.013-6.057-4.094-12.872-8.7-14.443-9.521a42.244,42.244,0,0,0-3.515,5.36c-.8,1.329-1.622,2.705-2.407,3.921l-.32.495c-4.356,6.731-5.831,9.208-6.226,10.015,2.909,3.562,37.741,27.7,49.624,27.7h.008c6.332-.007,13.716-5.125,18.515-9.912a.872.872,0,0,1,1.232,1.234c-5.047,5.032-12.882,10.414-19.743,10.421Zm-49.767-29.647" fill="#231f20"/><path d="M719.384,203.31a.871.871,0,0,1-.411-1.64,24.357,24.357,0,0,1,8.6-2.764.86.86,0,0,1,.972.759.872.872,0,0,1-.758.971,22.976,22.976,0,0,0-3.142.623,23.444,23.444,0,0,0-4.851,1.948A.866.866,0,0,1,719.384,203.31Z" fill="#231f20"/><path d="M726.112,216.06h-.041a.864.864,0,0,1-.83-.862v-.017c.83-8.964,1.566-15.443,1.573-15.508a.872.872,0,0,1,1.732.2c-.008.064-.74,6.528-1.566,15.391A.879.879,0,0,1,726.112,216.06Z" fill="#231f20"/><path d="M715.6,366.512a.871.871,0,0,1-.754-.434c-3.276-5.653-21.072-55.518-22.141-61.029l-.118-.606c-1.363-6.964-5.513-28.152,5.507-36.122,11.47-8.3,26.65-2.451,33.814,2.315a.872.872,0,0,1-.966,1.451c-6.787-4.516-21.129-10.1-31.827-2.354C689,277.05,692.99,297.415,694.3,304.107l.119.61c1.033,5.332,17.837,52.489,21.673,60a133.439,133.439,0,0,0,25.369-5.34c-.713-6.73-6.7-60.709-17.666-81.252a.872.872,0,0,1,1.538-.821c11.8,22.121,17.689,80.129,17.932,82.587a.87.87,0,0,1-.582.911,134.927,134.927,0,0,1-27,5.711Z" fill="#231f20"/><path d="M688.383,378.306a.869.869,0,0,1-.816-.565c-2.965-7.9-19.329-72.263-16.706-85.447,3.835-19.268,22.516-18.753,22.72-18.743a.872.872,0,0,1-.07,1.742c-.7-.02-17.4-.455-20.941,17.341-2.422,12.173,12.374,72.261,16.385,83.817,2.927-.528,14.233-2.71,22.189-6.315-.737-3.961-4.365-23.481-4.594-24.8a.871.871,0,1,1,1.715-.3c.251,1.426,4.671,25.2,4.715,25.444a.874.874,0,0,1-.483.949c-9.377,4.437-23.382,6.767-23.973,6.864A.76.76,0,0,1,688.383,378.306Z" fill="#231f20"/><path d="M712.733,201.183c-7.734,0-12.231-6.542-12.834-10.963-.6-4.38,1.37-10.532,2.807-15.023a31.352,31.352,0,0,0,1.249-4.476,48.867,48.867,0,0,0-.073-5.258,98.218,98.218,0,0,1,.073-13.191c.818-8.487,9.058-15.442,20.993-17.72,13.452-2.564,25.529,5.7,29.011,14.831,2.206,5.782,8.514,17.643,11.832,20.791,3.357,3.188,7.954,7.554,4.958,14.328-2.441,5.518-8.7,5.557-12.235,4.7-5.484,10.635-17.227,6.238-17.348,6.19a.871.871,0,0,1,.628-1.625c.439.167,10.833,4.023,15.464-5.963a.879.879,0,0,1,1.045-.466c.339.1,8.211,2.433,10.853-3.542,2.31-5.225-.7-8.688-4.567-12.358-3.532-3.355-9.945-15.37-12.257-21.434-3.236-8.476-14.494-16.143-27.057-13.741-11.156,2.129-18.843,8.478-19.583,16.175a96.415,96.415,0,0,0-.068,12.951,48.927,48.927,0,0,1,.068,5.5,30.578,30.578,0,0,1-1.326,4.835c-1.386,4.333-3.284,10.268-2.741,14.257.405,2.961,3.764,9.455,11.108,9.455a.871.871,0,1,1,0,1.743Z" fill="#231f20"/><path d="M689.448,398.337a7.866,7.866,0,0,1-4.713-1.386,2.018,2.018,0,0,1-.759-1.637c.076-1.716,2.812-4.945,8.172-10.688,1.2-1.281,2.434-2.607,2.628-2.931.851-1.416.607-4.31.516-5.4l-.031-.393a.872.872,0,0,1,.814-.926.9.9,0,0,1,.926.813l.028.36c.115,1.36.382,4.543-.759,6.444a33.518,33.518,0,0,1-2.847,3.222c-2.288,2.449-7.645,8.189-7.708,9.576,0,.089.135.218.177.256a6.622,6.622,0,0,0,4.254.9c1.352-.223,6.785-3.227,10.029-5.021a41.254,41.254,0,0,1,4.41-2.31,3.907,3.907,0,0,1,2.584.526,4.007,4.007,0,0,0,1.392.45c1.677-1.018.732-5.126.375-6.673l-.135-.6c-.66-3.228-2.612-9.881-2.631-9.949a.871.871,0,0,1,1.671-.491c.082.276,1.994,6.792,2.669,10.089l.125.562c.514,2.235,1.584,6.883-1.176,8.558-.937.56-2.029.077-3-.351-.434-.192-1.153-.529-1.384-.447-.358.115-2.324,1.2-4.06,2.163-5.065,2.8-9.062,4.965-10.59,5.216A6.105,6.105,0,0,1,689.448,398.337Z" fill="#231f20"/><path d="M717.188,385.334a7.211,7.211,0,0,1-3.995-1,2.027,2.027,0,0,1-.9-1.564c-.082-1.884,2.95-6.044,6.618-10.883.96-1.265,1.952-2.574,2.116-2.909a3.778,3.778,0,0,0,.127-3.622.871.871,0,1,1,1.389-1.052,5.356,5.356,0,0,1,.05,5.436,31.4,31.4,0,0,1-2.293,3.2c-2.053,2.708-6.325,8.344-6.264,9.755,0,.089.151.206.2.239a6.616,6.616,0,0,0,4.317.522c1.348-.347,6.519-3.663,9.609-5.644a45.173,45.173,0,0,1,4.069-2.494,4.1,4.1,0,0,1,2.611.233,3.838,3.838,0,0,0,1.5.281c1.624-1.191.213-5.637-.25-7.1l-.155-.493a37.153,37.153,0,0,0-2.163-5.559.872.872,0,0,1,1.554-.79,38.475,38.475,0,0,1,2.281,5.85l.145.466c.674,2.123,2.251,7.1-.383,9.032-.865.633-2.014.288-3.034-.019a4.162,4.162,0,0,0-1.469-.282c-.333.138-2.08,1.258-3.77,2.34-4.647,2.982-8.616,5.481-10.116,5.866A7.535,7.535,0,0,1,717.188,385.334Z" fill="#231f20"/><path d="M643.412,217.786a.835.835,0,0,1-.172-.017c-.582-.116-14.3-2.855-16.761-3.751A3.56,3.56,0,0,1,624,211.329a2.45,2.45,0,0,1,1.239-2.392c1.7-1.133,6.154-.636,11.366.078l.8.109a.871.871,0,0,1-.232,1.727l-.808-.11c-2.882-.393-8.877-1.212-10.164-.354-.522.348-.487.639-.475.735a1.92,1.92,0,0,0,1.34,1.259c2.34.85,16.364,3.651,16.506,3.679a.871.871,0,0,1-.169,1.726Z" fill="#231f20"/><path d="M650.75,206.059a.865.865,0,0,1-.582-.223c-.058-.052-6.041-5.217-11.4-5.564-5.086-.32-13.055,3.722-13.134,3.763a.872.872,0,0,1-.8-1.551c.342-.175,8.492-4.31,14.042-3.952,6.036.391,12.392,5.951,12.455,6.007a.872.872,0,0,1-.582,1.52Z" fill="#231f20"/><path d="M778.731,565.921h-5.573a.871.871,0,0,1-.87-.817L755.9,306.478a.872.872,0,0,1,.816-.925.854.854,0,0,1,.924.815l16.335,257.81H777.8L760.64,296.472a.872.872,0,1,1,1.74-.112L779.6,564.994a.873.873,0,0,1-.869.927Z" fill="#231f20"/><path d="M721.307,371a.863.863,0,0,1-.871-.863v-.017a.872.872,0,1,1,.871.88Z" fill="#231f20"/><path d="M715.729,378.585h-.03a.865.865,0,0,1-.841-.863l.837-12.241a.864.864,0,0,1,.93-.811.874.874,0,0,1,.81.93l-.836,12.165A.879.879,0,0,1,715.729,378.585Z" fill="#231f20"/><path d="M708.321,565.915h-5.577a.874.874,0,0,1-.87-.931l12.533-180.766a.862.862,0,0,1,.929-.81.871.871,0,0,1,.81.929L703.678,564.172h3.85l.518-5.435.434-8.937,11.067-166.331a.872.872,0,0,1,1.74.116L710.219,549.9l-.435,8.945-.594,6.28A.874.874,0,0,1,708.321,565.915Z" fill="#231f20"/><path d="M772.759,559.686H708.74a.871.871,0,0,1-.87-.929l.6-8.963a.871.871,0,0,1,.87-.814H772.2a.872.872,0,0,1,.87.817l.561,8.963a.871.871,0,0,1-.87.926Zm-63.088-1.743h62.161l-.453-7.22H710.153Z" fill="#231f20"/><path d="M539.908,557.4H476.53a.874.874,0,0,1-.87-.931l.614-8.964a.871.871,0,0,1,.869-.812h61.87a.87.87,0,0,1,.866.785l.9,8.963a.869.869,0,0,1-.867.959Zm-62.445-1.743h61.482l-.72-7.221H477.957Z" fill="#231f20"/><path d="M261.871,533.181h-58.7a.872.872,0,0,1-.868-.947l.78-8.963a.872.872,0,0,1,.868-.8h57.162a.871.871,0,0,1,.868.8l.76,8.963a.872.872,0,0,1-.868.945Zm-57.751-1.743h56.8l-.612-7.221H204.748Z" fill="#231f20"/><path d="M536.592,524.217H478.8a.873.873,0,0,1-.869-.931l.608-8.888a.872.872,0,0,1,.869-.812l56.286-.075h0a.87.87,0,0,1,.867.784l.9,8.964a.869.869,0,0,1-.867.958Zm-56.858-1.743h55.9l-.722-7.219-54.684.072Z" fill="#231f20"/><path d="M769.071,502.122h-56.5a.871.871,0,0,1-.87-.93l.6-8.965a.872.872,0,0,1,.87-.813H768.5a.871.871,0,0,1,.869.815l.576,8.965a.874.874,0,0,1-.87.928ZM713.5,500.379h54.639l-.463-7.222h-53.7Z" fill="#231f20"/><path d="M765.328,442.327H716.553a.871.871,0,0,1-.87-.929l.6-8.964a.871.871,0,0,1,.87-.813h47.61a.871.871,0,0,1,.87.817l.569,8.963a.874.874,0,0,1-.87.926Zm-47.844-1.743H764.4l-.458-7.22H717.964Z" fill="#231f20"/><path d="M761.8,386.543H720.3a.871.871,0,0,1-.87-.928l.14-2.144a.9.9,0,0,1,.926-.814.872.872,0,0,1,.813.926l-.08,1.217h39.642l-.463-7.217H731.515a.872.872,0,1,1,0-1.743h29.706a.871.871,0,0,1,.869.815l.576,8.96a.874.874,0,0,1-.87.928Z" fill="#231f20"/><path d="M758.785,339.089H739.654a.871.871,0,0,1,0-1.743h18.2l-.458-7.221H738.272a.872.872,0,0,1,0-1.743h19.946a.872.872,0,0,1,.87.817l.567,8.963a.873.873,0,0,1-.87.927Z" fill="#231f20"/><path d="M553.025,389.091a.865.865,0,0,1-.427-.112c-4.283-2.409-25.33-6.184-47.3-6.389-21.452-.25-43.855,4.179-44.078,4.224a.845.845,0,0,1-.709-.171.871.871,0,0,1-.331-.648c-.018-.45-1.691-45.088,11.023-81.728-11.174-4.733-24.241-11.107-37.117-22.249-15.475-13.389-33-37.263-31.958-40.5.86-2.675,13.53-12.673,18.261-14.857a3.261,3.261,0,0,1,2.513-.434c.834.347,1.982,1.865,4.73,5.572,5.341,7.2,15.28,20.609,27.468,28.083,12.307,7.545,43.958,20.483,57.837,9.763a.872.872,0,0,1,1.066,1.38c-14.6,11.263-47.188-1.915-59.813-9.657-12.477-7.651-22.548-21.234-27.958-28.532-1.723-2.324-3.505-4.727-4.017-5.008l-.046,0c-2.24,0-17.6,11.789-18.381,14.226-.054,2.444,15.075,24.491,31.438,38.649,12.983,11.234,26.2,17.566,37.408,22.28a.87.87,0,0,1,.484,1.093c-11.824,33.431-11.394,73.973-11.226,80.841,4.633-.848,24.373-4.286,43.423-4.066,20.773.192,40.218,3.463,46.736,5.976-.671-8.92-4.807-56.738-18.068-82.791a.871.871,0,1,1,1.552-.791c14.758,28.991,18.324,84.368,18.358,84.923a.871.871,0,0,1-.87.926Z" fill="#231f20"/><path d="M511.607,264.838a.872.872,0,0,1-.812-1.188,13.31,13.31,0,0,1,4.752-6.11c.25-.158.6-.35,1.016-.58,2.938-1.614,9.82-5.394,11.076-14.766,1.13-8.448-.667-13.616-1.811-15.912-2.078,3.588-8.061,7.741-14.373,11.754l-.019.012c3.09.326,4.787,1.95,5.057,4.848.419,4.518-3.011,7.606-5.417,8.579a12.125,12.125,0,0,1-3.747.622.871.871,0,0,1,0-1.742,10.453,10.453,0,0,0,3.093-.5c1.243-.5,4.705-2.829,4.335-6.8-.3-3.205-2.929-3.471-5.443-3.3-.562.037-.906.061-1.219-.231a.912.912,0,0,1-.284-.646c0-.6.1-.66,2.71-2.318,4.066-2.585,13.588-8.64,14.3-12.393a.872.872,0,0,1,1.537-.382c.193.241,4.7,6.038,3.008,18.635-1.372,10.245-8.793,14.322-11.963,16.062-.381.21-.694.382-.922.525a11.384,11.384,0,0,0-4.061,5.271A.871.871,0,0,1,511.607,264.838Z" fill="#231f20"/><path d="M512.793,271.7a.874.874,0,0,1-.858-.723c-.024-.14-2.427-14.045-3.574-19.751a.872.872,0,0,1,1.709-.344c1.152,5.73,3.559,19.658,3.584,19.8a.87.87,0,0,1-.711,1.006A.852.852,0,0,1,512.793,271.7Z" fill="#231f20"/><path d="M550.88,367.775a.892.892,0,0,1-.177-.017.875.875,0,0,1-.679-1.03c.043-.207,4.252-21.019,3.307-38.127-1.125-20.38-7.632-39.2-16.191-46.832-6.905-6.156-17.206-11.763-23.506-10.579a.871.871,0,0,1-.324-1.712c7.2-1.358,17.99,4.749,24.991,10.991,8.882,7.919,15.621,27.223,16.77,48.037.956,17.335-3.3,38.362-3.338,38.573A.872.872,0,0,1,550.88,367.775Z" fill="#231f20"/><path d="M494.085,269.889A10.91,10.91,0,0,1,488.9,268.6c-5.6-2.978-7.752-10.025-7.841-10.323a.872.872,0,0,1,1.671-.5c.02.066,2.039,6.657,7,9.285a10.01,10.01,0,0,0,7.953.49.872.872,0,0,1,.524,1.663A13.712,13.712,0,0,1,494.085,269.889Z" fill="#231f20"/><path d="M496.487,275.373a.871.871,0,0,1-.853-.7L494.52,269.1a.871.871,0,0,1,1.709-.342l1.114,5.569a.871.871,0,0,1-.684,1.025A.841.841,0,0,1,496.487,275.373Z" fill="#231f20"/><path d="M479.992,252.482a.873.873,0,0,1-.854-.7,6.09,6.09,0,0,0-1.806-2.331,1.626,1.626,0,0,1-.294-2.034c.22-.369.534-.843.9-1.391,1.3-1.964,3.276-4.933,3.6-7.238a62.536,62.536,0,0,0,.314-7.295,69.974,69.974,0,0,1,.289-7.263c.887-7.283,9.9-13.129,17.762-14.02a25.5,25.5,0,0,1,26.169,14.94.872.872,0,0,1-1.61.669A23.744,23.744,0,0,0,500.1,211.941c-7.053.8-15.452,6.129-16.228,12.5a69.039,69.039,0,0,0-.276,7.065,63.41,63.41,0,0,1-.331,7.523c-.379,2.7-2.482,5.866-3.874,7.961-.346.521-.645.971-.854,1.32a6.315,6.315,0,0,1,2.313,3.131.871.871,0,0,1-.684,1.025A.833.833,0,0,1,479.992,252.482Z" fill="#231f20"/><path d="M481.56,258.437a20.163,20.163,0,0,1-3.208-.207,2.413,2.413,0,0,1-1.762-.866c-1.042-1.667.749-4.908,2.115-6.029,1.472-1.207,4.545-1.125,6.385-.3a8.467,8.467,0,0,1,4.951,5.06.872.872,0,0,1-.291.963C488.518,258.024,484.646,258.437,481.56,258.437Zm.421-6.279a3.748,3.748,0,0,0-2.17.524c-1.087.893-2.074,3.228-1.743,3.758.869.518,7.746.33,10.043-.474a7.121,7.121,0,0,0-3.737-3.338A5.978,5.978,0,0,0,481.981,252.158Z" fill="#231f20"/><path d="M411.019,254.386a.872.872,0,0,1-.459-1.613c.128-.079,12.851-8.039,17.705-18a.872.872,0,1,1,1.567.765c-5.078,10.42-17.815,18.385-18.355,18.72A.87.87,0,0,1,411.019,254.386Z" fill="#231f20"/><path d="M405.71,239.484a.869.869,0,0,1-.7-.359c-.341-.469-8.079-11.207-6.287-17.97-.849-.578-2.2-1.748-2.066-3.28a3.284,3.284,0,0,1,2.536-2.8c-.832-1.352-1.9-3.658-.713-5.221a2.472,2.472,0,0,1,1.9-.778,22.433,22.433,0,0,1,11.218,3.292c-.053-1.46.189-3.128,1.435-3.7a3.187,3.187,0,0,1,2.882.342,8.228,8.228,0,0,1,3.881,5.853l.178,1.523c.387,3.339.971,8.387,1.895,10.577a.872.872,0,0,1-1.607.677c-1.019-2.42-1.6-7.41-2.02-11.053l-.177-1.514a6.463,6.463,0,0,0-3-4.541,1.658,1.658,0,0,0-1.3-.281c-.46.212-.553,2.161-.188,3.935a.871.871,0,0,1-1.469.792c-3.153-3.153-11.265-4.722-12.287-4.022-.628.843.743,3.177,1.472,4.1a.871.871,0,0,1-.519,1.394c-2.048.4-2.341,1.09-2.383,1.578-.064.737,1.192,1.662,1.775,1.971a.873.873,0,0,1,.408,1.083c-2.233,5.811,5.762,16.907,5.843,17.019a.872.872,0,0,1-.7,1.384Z" fill="#231f20"/><path d="M408.4,212.565a.872.872,0,0,1-.869-.812,80.878,80.878,0,0,0-1.927-12.046,8.3,8.3,0,0,0-3.34.392c-.143,1.093.451,5.821,1.122,9.809a.872.872,0,0,1-1.719.29c-1.69-10.052-1.07-10.852-.837-11.152.518-.67,1.9-.944,2.964-1.056,1.505-.155,2.507-.035,2.979.364,1.213,1.021,2.442,12.469,2.5,13.28a.873.873,0,0,1-.81.93Z" fill="#231f20"/><path d="M233.981,379.082a4.3,4.3,0,0,1-.437-.023c-19.177-2.094-45.171-14.127-55.457-19.2a4.925,4.925,0,0,1-2.451-6.15c7.78-20.893,18.386-39.842,30.671-54.8,13.744-16.732,29.94-33.63,45.789-32.15,8.028.753,12.97,6.086,30.646,33.354,4.111-4.1,22-21.009,24.708-20.842,5.581.31,14.362,8.8,14.913,14.416.222,2.256-11.27,14.914-16.547,20.342-6.747,6.942-18.878,18.6-24.382,18.148-6.078-.424-13.731-6.2-23.2-17.578-9.159,23.561-18.06,53.032-20.5,61.661A3.882,3.882,0,0,1,233.981,379.082Zm16.208-110.669c-14.646,0-30.354,16.771-42.536,31.6-12.163,14.81-22.669,33.586-30.383,54.3a3.185,3.185,0,0,0,1.588,3.978c10.2,5.035,35.974,16.969,54.876,19.032a2.157,2.157,0,0,0,2.318-1.541c2.477-8.762,11.6-38.958,20.908-62.73q-4.933-6.075-10.517-14.118a.871.871,0,1,1,1.431-.994c14.6,21.021,25.931,31.953,33.681,32.495,7.929.6,38.22-32.794,39.076-36.7-.471-4.659-8.536-12.462-13.278-12.726-2.254.446-21.848,18.383-24.079,21.054a.872.872,0,0,1-1.4-.086c-18.5-28.593-23.009-32.834-29.941-33.484Q251.063,268.413,250.189,268.413Z" fill="#231f20"/><path d="M246.065,510.643c-6.726,0-15.206-.45-17.631-.588a.872.872,0,0,1-.552-.24c-8.3-7.918-45.574-143.248-47.156-149.005a.871.871,0,1,1,1.68-.463c13.224,48.1,39.753,140.176,46.471,147.988,8.237.456,21.162.871,24.4.243-1.568-10.206-18.7-121.4-21.862-130.262a.871.871,0,0,1,1.641-.585c3.355,9.4,21.3,126.348,22.058,131.322a.87.87,0,0,1-.472.912C253.627,510.474,250.173,510.643,246.065,510.643Z" fill="#231f20"/><path d="M261.676,474.938c-4.42,0-9.348-.328-13.121-.651a.872.872,0,0,1,.148-1.737c9.942.848,21.291.916,22.3-.459.581-1.823-3.779-3.719-6.963-5.105a24.208,24.208,0,0,1-4.281-2.153c-3-2.227-6.214-6.516-5.4-11.277a.871.871,0,1,1,1.717.293c-.634,3.728,1.917,7.5,4.725,9.585a24.318,24.318,0,0,0,3.938,1.954c4.215,1.833,8.993,3.911,7.909,7.276C272.077,474.407,267.286,474.938,261.676,474.938Z" fill="#231f20"/><path d="M249.928,524.224c-.872,0-1.5-.005-1.8-.008-12.887-.147-13.783-1.323-14.077-1.709-1.625-2.133.425-10.639,1.093-13.194a.871.871,0,0,1,1.686.439c-1.264,4.846-2.156,10.7-1.393,11.7,2.469,1.713,32.028,1.185,33.938-.681.189-.24.154-.338.142-.378-.45-1.291-6.213-2.628-8.982-3.271a30.393,30.393,0,0,1-4.263-1.161c-2.848-1.248-5.972-2.842-6.97-5.99a.871.871,0,0,1,1.661-.527c.778,2.452,3.51,3.826,6.009,4.921a31.63,31.63,0,0,0,3.957,1.058c5.544,1.289,9.524,2.356,10.234,4.4a2.064,2.064,0,0,1-.437,2.047C269.005,524.018,255.166,524.224,249.928,524.224Z" fill="#231f20"/><ellipse cx="2.025" cy="3.093" rx="2.025" ry="3.093" transform="translate(486.104 233.278)" fill="#231f20"/><path d="M485.9,228.83a3.824,3.824,0,0,1,1.74-.806,3.675,3.675,0,0,1,1.95.178,3.985,3.985,0,0,1,1.56,1.067,5.211,5.211,0,0,1,.928,1.469.547.547,0,0,1-.9.6l-.023-.024a4.589,4.589,0,0,0-2.1-1.437,2.867,2.867,0,0,0-1.113-.035,6.056,6.056,0,0,0-1.138.288l-.167.055a.782.782,0,0,1-.734-1.354Z" fill="#231f20"/><path d="M252.014,268.5h-.043a.871.871,0,0,1-.754-.518c-.042-.1-4.267-9.587-8.077-14.486-1.016-1.3-2.135-2.524-3.217-3.7-3.147-3.426-6.118-6.662-6.118-11.4,0-8.288,11.25-18.37,18.34-22.777,6.933-4.31,17-7.487,22.908-7.227,8.5.369,10.633,3.806,10.928,6.624.4,3.778-4.189,7.2-7.52,7.892-3.623.756-11.453,3.46-12.879,5.723-.949,1.508-1.181,3.881-1.274,7.732-.152,6.255-.929,8.854-2.681,8.972-1.9.124-2.5-1.976-2.942-3.509-.067-.234-.132-.459-.2-.667-.37-1.153-1.544-3.178-3.358-2.62-1.745.544-2.288,3.648-2.052,6.484a6.065,6.065,0,0,0,2.3,4.382,3.578,3.578,0,0,0,3.086.565.872.872,0,0,1,1.084.908c-.018.245-.506,6.12-6.771,17.182A.871.871,0,0,1,252.014,268.5Zm22.317-58.382c-5.682,0-14.84,2.985-21.265,6.98-7.274,4.52-17.518,14.117-17.518,21.3,0,4.056,2.622,6.912,5.658,10.219,1.106,1.205,2.251,2.451,3.309,3.812,3.022,3.886,6.182,10.308,7.572,13.272,3.878-7.156,5.144-11.863,5.543-13.86a5.189,5.189,0,0,1-3.268-1.014,7.834,7.834,0,0,1-3.022-5.657c-.286-3.427.423-7.406,3.27-8.294,2.583-.8,4.742,1.278,5.536,3.753.071.222.141.463.213.714.248.856.607,2.317,1.152,2.254.033-.045.9-.782,1.054-7.275.1-4.256.371-6.758,1.542-8.619,1.959-3.109,11.076-5.89,14-6.5s6.4-3.56,6.143-6.005c-.326-3.108-3.445-4.812-9.271-5.065C274.767,210.12,274.551,210.116,274.331,210.116Z" fill="#231f20"/><path d="M265.336,277.564a.871.871,0,0,1-.645-1.458,50.74,50.74,0,0,0,4.688-6.271,4.577,4.577,0,0,1,4.124-2.168c4.686.215,6.5-.2,6.833-.483,1.294-1.092,2.671-4.258,3.462-6.911a25.585,25.585,0,0,0,.839-5.1c.074-.8.144-1.559.255-2.257.211-1.313,1.488-2.451,2.84-3.658,1.4-1.252,2.995-2.671,2.767-3.887-.1-.559-1.412-1.327-2.461-1.943a9.841,9.841,0,0,1-3.685-3.006c-1.335-2.279-2.254-6.882-2.924-10.243l-.079-.392c-.635-3.18-2.84-6.518-3.562-7.016a.872.872,0,0,1,.99-1.435c1.214.837,3.6,4.7,4.281,8.109l.079.394c.61,3.056,1.531,7.676,2.719,9.7a8.965,8.965,0,0,0,3.063,2.384c1.564.918,3.041,1.785,3.292,3.124.409,2.184-1.572,3.951-3.32,5.51-1.016.906-2.166,1.932-2.279,2.632-.105.662-.17,1.378-.24,2.141a27.058,27.058,0,0,1-.9,5.44c-.84,2.818-2.334,6.333-4.01,7.747-.387.327-1.419,1.193-8.037.891a2.9,2.9,0,0,0-2.569,1.356,51.45,51.45,0,0,1-4.872,6.515A.871.871,0,0,1,265.336,277.564Z" fill="#231f20"/><ellipse cx="1.541" cy="3.313" rx="1.541" ry="3.313" transform="translate(275.169 233.446) rotate(-22.553)" fill="#231f20"/><path d="M275.709,228.847a8.091,8.091,0,0,0-1.811.587,5.708,5.708,0,0,0-1.561,1.038,7.1,7.1,0,0,0-1.245,1.49c-.379.56-.674,1.192-1.023,1.841l-.02.039a.539.539,0,0,1-1.013-.293c.028-.4.094-.8.158-1.2a10.943,10.943,0,0,1,.387-1.173A7.068,7.068,0,0,1,271,229.055a6.3,6.3,0,0,1,2.225-1.355,5.123,5.123,0,0,1,2.593-.213.68.68,0,0,1,.024,1.332Z" fill="#231f20"/><path d="M277.989,259.694a18.581,18.581,0,0,1-3.2-.206,1.235,1.235,0,0,1-.851-.6c-.325-.645.165-1.274.7-1.863.041-.044,4.145-4.438,6.518-3.552h0c.634.238,1.023.894,1.157,1.95.1.812.112,3.232-.764,3.848A9.465,9.465,0,0,1,277.989,259.694Zm2.4-1.686Zm-4.224-.092a28.345,28.345,0,0,0,4.3-.093,5.844,5.844,0,0,0,0-2.735C279.683,255.009,277.331,256.727,276.166,257.916Z" fill="#231f20"/><path d="M309.139,281.364a.909.909,0,0,1-.177-.018.872.872,0,0,1-.677-1.029c.056-.273,1.408-6.733,4.238-10.694,1.17-1.639,4.727-5.971,7.109-6.34a1.8,1.8,0,0,1,1.406.313,1.493,1.493,0,0,1,.58,1.032c.267,1.993-2.966,6.333-3.964,7.615a.871.871,0,1,1-1.375-1.07c1.962-2.525,3.575-5.3,3.62-6.182-.911.041-3.758,2.563-5.958,5.645-2.613,3.658-3.936,9.969-3.949,10.033A.871.871,0,0,1,309.139,281.364Z" fill="#231f20"/><path d="M321.125,293.123a.871.871,0,0,1-.383-1.655,14.987,14.987,0,0,0,8.364-10.841,11.3,11.3,0,0,0-.417-4.127,8.161,8.161,0,0,1-.292-1.7,7.041,7.041,0,0,1,.848-2.537,10.516,10.516,0,0,0,1-2.821c.1-1.051-1.059-2.275-1.513-2.658a.871.871,0,0,1,1.118-1.337c.239.2,2.333,2.013,2.129,4.16a11.541,11.541,0,0,1-1.149,3.379,8.132,8.132,0,0,0-.691,1.814,8.019,8.019,0,0,0,.246,1.306,12.885,12.885,0,0,1,.446,4.77,16.808,16.808,0,0,1-9.326,12.161A.881.881,0,0,1,321.125,293.123Z" fill="#231f20"/><path d="M325.769,271.019a.872.872,0,0,1-.6-1.5,42.051,42.051,0,0,0,3.421-3.915c1.3-1.8,1.855-3.42,1.322-3.856-.922-.064-5.951,3.586-9.94,7.093a.871.871,0,0,1-1.15-1.309c6.689-5.881,10.793-8.281,12.194-7.133s1.052,3.366-1.013,6.226a42.669,42.669,0,0,1-3.627,4.152A.869.869,0,0,1,325.769,271.019Z" fill="#231f20"/><path d="M321.568,267.219a.872.872,0,0,1-.871-.851c-.1-4.213-.192-11.429.3-12.409.567-1.137,3.1-2.281,4.24-2.551a1.679,1.679,0,0,1,1.4.143c.75.563.963,2.046.659,9.262-.035.858-.065,1.544-.063,1.9a.873.873,0,0,1-.868.876h0a.872.872,0,0,1-.871-.868c0-.366.028-1.081.065-1.976a56.552,56.552,0,0,0-.007-7.622,7.87,7.87,0,0,0-3,1.626,108.771,108.771,0,0,0-.112,11.583.873.873,0,0,1-.851.892Zm3.891-14.421Z" fill="#231f20"/><path d="M490.9,500.789a11.246,11.246,0,0,1-3.92-.441c-.836-.419-2.393-1.2-12.925-47.272-2.965-12.972-8.931-67.257-8.991-67.8a.871.871,0,1,1,1.732-.191c.06.547,6.016,54.731,8.958,67.606,8.758,38.312,11.349,45.374,12.115,46.174,1.08.521,11.535.16,16.73-1.7,1.672-.594,1.965-1.086,2.007-1.178a.871.871,0,0,1,1-.487c6.138,1.469,15.554,3.076,17.275,2.041,1.991-2.16,7.178-37.6,9.392-52.734.76-5.191,1.359-9.292,1.684-11.212,1.162-6.868,4.247-44.564,3.978-48.6a.871.871,0,0,1,.812-.927.893.893,0,0,1,.927.812c.285,4.248-2.781,41.8-4,49-.322,1.9-.921,5.994-1.678,11.174-5.738,39.216-8.317,52.836-10.22,53.977-2.775,1.671-14.465-.88-18-1.706a6.511,6.511,0,0,1-2.617,1.49C501.674,500.052,495.189,500.789,490.9,500.789Z" fill="#231f20"/><path d="M507.4,497.22a.872.872,0,0,1-.862-.753c-1.947-14.184-2.1-110.648-2.1-114.746a.872.872,0,0,1,.87-.873h0a.871.871,0,0,1,.871.869c0,1,.155,100.445,2.085,114.512a.869.869,0,0,1-.743.982A.985.985,0,0,1,507.4,497.22Z" fill="#231f20"/><path d="M497.145,515h-.16c-7.656-.034-11.616-.637-12.017-3.839-.311-2.49,1.519-4.568,2.989-6.238a12.5,12.5,0,0,0,1.51-1.927,8.371,8.371,0,0,0,.076-2.989.871.871,0,1,1,1.731-.2c.077.682.286,2.985-.275,4.017a13.532,13.532,0,0,1-1.734,2.248c-1.3,1.481-2.781,3.16-2.567,4.869.206,1.654,3,2.28,10.294,2.313h.16c8.121,0,8.569-2.686,8.737-3.7.431-2.586-1.219-5.769-1.842-6.967-.109-.213-.2-.378-.245-.489-.015-.035-1.244-3.8-.41-4.483a.874.874,0,0,1,1.42.807,12.9,12.9,0,0,0,.577,2.955c.042.091.114.229.206.408.761,1.466,2.539,4.9,2.013,8.055C507.03,513.313,503.607,515,497.145,515Z" fill="#231f20"/><path d="M520.732,515.014c-.218,0-.443,0-.673-.007-6.929-.146-11.824-3.275-12.284-5.454-.591-2.8.669-5.636,1.275-7l.252-.575c.475-1.076,1.462-3.312,1.127-4.512a.871.871,0,0,1,1.678-.47c.5,1.8-.568,4.233-1.21,5.687l-.254.577c-.531,1.2-1.637,3.69-1.162,5.933.209.994,4.184,3.937,10.616,4.072,5.309.143,7.236-1.2,7.816-1.772a1.537,1.537,0,0,0,.538-1.069c0-2.882-2.5-4.466-4.5-5.74a7.811,7.811,0,0,1-2.126-1.664,11.294,11.294,0,0,1-1.491-4.431.871.871,0,0,1,1.729-.206A9.443,9.443,0,0,0,523.236,502a7.761,7.761,0,0,0,1.646,1.212c2.115,1.343,5.312,3.372,5.312,7.212a3.232,3.232,0,0,1-1.06,2.315C528.058,513.79,525.733,515.014,520.732,515.014Z" fill="#231f20"/><path d="M475.946,565.921h-5.509a.872.872,0,0,1-.869-.939l7.743-98.055a.872.872,0,0,1,1.738.136l-7.669,97.115h3.752l5.673-82.887a.872.872,0,1,1,1.739.119l-5.728,83.7A.872.872,0,0,1,475.946,565.921Z" fill="#231f20"/><path d="M546.269,565.921h-5.508a.869.869,0,0,1-.866-.784l-9.464-94.672a.87.87,0,1,1,1.732-.173l9.386,93.886H545.3l-11.8-113.949a.871.871,0,1,1,1.732-.181l11.9,114.912a.869.869,0,0,1-.866.961Z" fill="#231f20"/><path d="M200.471,565.921h-5.509a.871.871,0,0,1-.869-.943l10.036-121.842a.872.872,0,0,1,1.738.143l-9.958,120.9h4.562a.872.872,0,1,1,0,1.743Z" fill="#231f20"/><path d="M266.088,518.539a.87.87,0,0,1-.867-.8L261.56,474.1a.871.871,0,1,1,1.736-.146l3.661,43.644a.87.87,0,0,1-.8.941C266.137,518.537,266.113,518.539,266.088,518.539Z" fill="#231f20"/><path d="M261.679,465.832a.872.872,0,0,1-.868-.8l-1.168-13.91a.871.871,0,0,1,1.736-.147l1.169,13.91a.872.872,0,0,1-.8.942Z" fill="#231f20"/><path d="M270.045,565.915h-5.508a.874.874,0,0,1-.869-.8l-3.432-41.689.868-.094h.872l.763,8.9,2.6,31.938H269.1l-3.476-41.638a.871.871,0,0,1,1.736-.147l3.556,42.583a.871.871,0,0,1-.869.945Z" fill="#231f20"/><path d="M260.51,517.094a.871.871,0,0,1-.867-.8l-3.584-42.313a.871.871,0,0,1,1.736-.146l3.584,42.313a.87.87,0,0,1-.795.941C260.559,517.092,260.535,517.094,260.51,517.094Z" fill="#231f20"/><path d="M200.472,565.921l-.072,0a.872.872,0,0,1-.8-.94l8.875-107.354a.885.885,0,0,1,.941-.8.87.87,0,0,1,.8.939L201.34,565.121A.871.871,0,0,1,200.472,565.921Z" fill="#231f20"/><path d="M257.729,484.385H250.06a.872.872,0,1,1,0-1.743h7.669a.872.872,0,0,1,0,1.743Z" fill="#231f20"/><path d="M217.483,484.385H207.269a.872.872,0,1,1,0-1.743h10.214a.872.872,0,1,1,0,1.743Z" fill="#231f20"/><path d="M214.019,473.922h-5.933a.872.872,0,1,1,0-1.743h5.933a.872.872,0,1,1,0,1.743Z" fill="#231f20"/><path d="M744.16,231.942a.87.87,0,0,1-.74-1.331c1-1.606,2.131-4,2.034-4.572-.108-.607-.821-1.2-1.512-1.778-.9-.753-1.923-1.606-1.726-2.819.184-1.131,1.777-1.991,4.816-3.537,2.008-1.021,5.744-2.924,5.748-3.926.008-2.261-4.645-9.725-7.582-13.9a.872.872,0,0,1,1.427-1c.81,1.151,7.91,11.353,7.9,14.909-.009,2.066-3.258,3.721-6.7,5.472-1.452.739-3.644,1.855-3.91,2.342-.015.153.741.784,1.146,1.123a5.1,5.1,0,0,1,2.11,2.812c.29,1.627-2.006,5.375-2.268,5.8A.873.873,0,0,1,744.16,231.942Z" fill="#231f20"/><path d="M721.231,209.055a.874.874,0,0,1-.84-1.107,56.664,56.664,0,0,1,3.243-7.915.872.872,0,1,1,1.559.78,55.989,55.989,0,0,0-3.123,7.6A.873.873,0,0,1,721.231,209.055Z" fill="#231f20"/><path d="M511.343,243.74a5.392,5.392,0,0,0-1.021.439,2.593,2.593,0,0,0-.761.631,2.96,2.96,0,0,0-.612,1.817l-.009.078a.87.87,0,0,1-1.734-.078,3.914,3.914,0,0,1,.235-1.582,3.6,3.6,0,0,1,.914-1.429,3.555,3.555,0,0,1,1.437-.793,3.815,3.815,0,0,1,1.551-.1.508.508,0,0,1,.087.988Z" fill="#231f20"/><path d="M492.7,259.733a12.714,12.714,0,0,1-4.212,2.428,11.792,11.792,0,0,1-4.9.661.871.871,0,0,1,.1-1.738h.031a13.349,13.349,0,0,0,4.26-.537,22.211,22.211,0,0,0,4.106-1.648l.037-.019a.521.521,0,0,1,.583.853Z" fill="#231f20"/><path d="M257.729,455.434a.9.9,0,0,1-.279-.046c-.411-.138-10.081-3.41-12.972-4.622a.871.871,0,1,1,.675-1.606c2.435,1.021,10.112,3.644,12.28,4.381,7-8.69,27.476-35.517,24.55-48.392-4.074-17.929-41.094-41.88-41.468-42.12a.871.871,0,1,1,.941-1.467c1.55,1,37.995,24.579,42.227,43.2,3.155,13.883-18.55,42.047-25.277,50.346A.867.867,0,0,1,257.729,455.434Z" fill="#231f20"/><path d="M242.018,433.326a.861.861,0,0,1-.469-.138.871.871,0,0,1-.264-1.2c3.645-5.695,8.6-15.073,8.19-18.089-.351-2.607-7.931-7.246-12.626-9.557a.871.871,0,1,1,.769-1.563c1.329.654,13,6.511,13.585,10.889.665,4.946-8.359,19.117-8.451,19.26A.866.866,0,0,1,242.018,433.326Z" fill="#231f20"/><path d="M710.161,265.878a.871.871,0,0,1-.759-1.3c6.671-11.813,9.122-26.866,9.146-27.017a.872.872,0,0,1,1.723.274c-.026.154-2.528,15.516-9.35,27.6A.872.872,0,0,1,710.161,265.878Z" fill="#231f20"/><path d="M765.405,292.7c-2.843,0-14.421-6.925-34.469-20.62a.872.872,0,0,1-.306-1.07c3.35-7.627,3.978-18.852,3.984-18.965a.9.9,0,0,1,.916-.824.871.871,0,0,1,.824.916c-.024.459-.614,11.039-3.845,18.906,14.186,9.669,30.1,19.755,32.552,19.994,2.1-1.771,1.3-13.962-.419-20.579a.872.872,0,0,1,1.688-.437c1.012,3.892,3.555,20.024-.445,22.57A.893.893,0,0,1,765.405,292.7Z" fill="#231f20"/><path d="M629.737,210.033a.87.87,0,0,1-.427-.111c-2.6-1.461-7.406-2.39-10.916-3.067-4.179-.808-5.44-1.052-5.541-2.132a2.2,2.2,0,0,1,.576-1.623,5.374,5.374,0,0,1,3.792-1.522c3.083-.191,13.813,1.736,14.269,1.817a.872.872,0,0,1-.306,1.716c-.111-.02-11.018-1.965-13.868-1.793a3.742,3.742,0,0,0-2.568.92l-.022.028c.773.253,2.47.582,4,.877,3.828.74,8.593,1.661,11.44,3.259a.872.872,0,0,1-.427,1.631Z" fill="#231f20"/><path d="M255.565,243.111a6.688,6.688,0,0,1,1.946,1.275,4.353,4.353,0,0,1,1.257,2.16.87.87,0,0,1-1.656.5l-.035-.083c-.1-.232-.194-.469-.323-.713a7.792,7.792,0,0,0-.5-.71,9.98,9.98,0,0,0-1.3-1.338l-.051-.047a.631.631,0,0,1,.664-1.049Z" fill="#231f20"/><path d="M685.113,276.841a.872.872,0,0,1-.468-1.607c20.255-12.868,23.985-35.985,24.02-36.217a.871.871,0,1,1,1.723.261c-.036.24-3.867,24.123-24.807,37.427A.887.887,0,0,1,685.113,276.841Z" fill="#231f20"/><path d="M739.8,313.744a34.758,34.758,0,0,1-4.7-.293.87.87,0,0,1-.734-.989.855.855,0,0,1,.987-.735c.148.02,14.763,2.06,20.717-5.829a27.127,27.127,0,0,0,5.364-15.03.871.871,0,0,1,.861-.882h.01a.873.873,0,0,1,.872.862,29,29,0,0,1-5.715,16.1C753.1,312.73,744.972,313.744,739.8,313.744Z" fill="#231f20"/><path d="M472.364,540.277H299.119a.871.871,0,0,1-.872-.872V319.42a.871.871,0,1,1,1.743,0V538.534H472.364a.871.871,0,0,1,0,1.743Z" fill="#231f20"/><path d="M664.224,540.277h-120.6a.871.871,0,1,1,0-1.743H663.353V242.021a.871.871,0,1,1,1.743,0V539.405A.871.871,0,0,1,664.224,540.277Z" fill="#231f20"/><path d="M538.2,540.277H478.177a.871.871,0,1,1,0-1.743H538.2a.871.871,0,0,1,0,1.743Z" fill="#231f20"/><path d="M299.119,287.088a.871.871,0,0,1-.872-.872V138.393a.871.871,0,0,1,.872-.872H664.224a.871.871,0,0,1,.872.872v72.536a.871.871,0,0,1-1.743,0V139.264H299.99V286.216A.871.871,0,0,1,299.119,287.088Z" fill="#231f20"/><path d="M473.011,531.3H307.433a.871.871,0,0,1-.871-.872V311.089a.871.871,0,1,1,1.743,0V529.557H473.011a.871.871,0,1,1,0,1.743Z" fill="#231f20"/><path d="M655.926,531.3H542.7a.871.871,0,1,1,0-1.743h112.36V236.876a.871.871,0,0,1,1.743,0V530.428A.871.871,0,0,1,655.926,531.3Z" fill="#231f20"/><path d="M537.067,531.3H478.786a.871.871,0,1,1,0-1.743h58.281a.871.871,0,1,1,0,1.743Z" fill="#231f20"/><path d="M307.433,281a.87.87,0,0,1-.871-.871V147.352a.871.871,0,0,1,.871-.872H655.926a.871.871,0,0,1,.872.872v58.092a.871.871,0,1,1-1.743,0V148.223H308.3v131.91A.871.871,0,0,1,307.433,281Z" fill="#231f20"/><path d="M377.048,258.485A49.091,49.091,0,1,1,426.13,209.4a48.5,48.5,0,0,1-3.39,17.943l-1.62-.642a46.774,46.774,0,0,0,3.267-17.3,47.339,47.339,0,1,0-47.339,47.34,46.9,46.9,0,0,0,28.376-9.464l1.046,1.394A48.625,48.625,0,0,1,377.048,258.485Z" fill="#231f20"/><path d="M362.765,408.8a.872.872,0,0,1-.856-1.04l14.851-75.613a.872.872,0,0,1,1.54-.372l54.664,69.311a.871.871,0,0,1-.606,1.407l-69.515,6.3C362.817,408.8,362.791,408.8,362.765,408.8Zm15.34-74.457-14.261,72.612L430.6,400.9Z" fill="#231f20"/><path d="M509.367,192.782a2.581,2.581,0,0,1-.276-.015,1.612,1.612,0,0,1-1.115-.667c-.98-1.278-.953-4.144-.633-6.21.471-3.037,3.149-6.857,5.21-6.609h0a2.174,2.174,0,0,1,1.571.981c1.049,1.549.657,4.492.261,5.986C514.311,186.522,512.616,192.782,509.367,192.782Zm2.966-11.77c-.686,0-2.849,2.459-3.268,5.146s-.012,4.635.324,4.915c1.033.089,2.63-2.7,3.31-5.271.417-1.567.528-3.756-.018-4.563a.44.44,0,0,0-.334-.227Z" fill="#231f20"/><path d="M513.542,186.9H508.2a.871.871,0,1,1,0-1.743h5.346a.871.871,0,0,1,0,1.743Z" fill="#231f20"/><path d="M531.663,186.9h-10.97a.871.871,0,1,1,0-1.743h10.97a.871.871,0,0,1,0,1.743Z" fill="#231f20"/><path d="M531.663,190.176h-10.97a.871.871,0,1,1,0-1.743h10.97a.871.871,0,0,1,0,1.743Z" fill="#231f20"/><path d="M615.293,188.592H540.07a.871.871,0,1,1,0-1.743h75.223a.871.871,0,0,1,0,1.743Z" fill="#231f20"/><path d="M565.406,183.516H563.4a.871.871,0,0,1-.872-.872v-16.8a.871.871,0,0,1,.872-.872h2.008a.871.871,0,1,1,0,1.743h-1.137v15.055h1.137a.872.872,0,1,1,0,1.743Z" fill="#231f20"/><path d="M587.716,210.215h-2.007a.871.871,0,0,1-.871-.872v-16.8a.871.871,0,0,1,.871-.872h2.007a.871.871,0,1,1,0,1.743h-1.135v15.056h1.135a.871.871,0,1,1,0,1.743Z" fill="#231f20"/><path d="M581.126,183.516h-2.009a.872.872,0,1,1,0-1.743h1.137V166.718h-1.137a.871.871,0,1,1,0-1.743h2.009a.871.871,0,0,1,.871.872v16.8A.871.871,0,0,1,581.126,183.516Z" fill="#231f20"/><path d="M603.081,210.215h-2.006a.871.871,0,1,1,0-1.743h1.135V193.416h-1.135a.871.871,0,1,1,0-1.743h2.006a.871.871,0,0,1,.872.872v16.8A.871.871,0,0,1,603.081,210.215Z" fill="#231f20"/><path d="M573.73,167.991h-5.289a.871.871,0,0,1,0-1.743h5.289a.871.871,0,0,1,0,1.743Z" fill="#231f20"/><path d="M570.964,179.206a.871.871,0,0,1-.872-.872V167.12a.872.872,0,1,1,1.743,0v11.214A.871.871,0,0,1,570.964,179.206Z" fill="#231f20"/><path d="M576.392,179.206h-8.179a.871.871,0,0,1,0-1.743h7.723a6.457,6.457,0,0,0,.718-3.218.871.871,0,1,1,1.743,0,7.1,7.1,0,0,1-1.355,4.669A.873.873,0,0,1,576.392,179.206Z" fill="#231f20"/><path d="M595.875,194.706h-5.289a.871.871,0,0,1,0-1.743h5.289a.871.871,0,0,1,0,1.743Z" fill="#231f20"/><path d="M593.107,205.921a.871.871,0,0,1-.872-.872V193.835a.872.872,0,1,1,1.743,0v11.214A.871.871,0,0,1,593.107,205.921Z" fill="#231f20"/><path d="M598.535,205.921h-8.179a.872.872,0,0,1,0-1.743h7.723a6.422,6.422,0,0,0,.72-3.218.871.871,0,0,1,1.743,0,7.1,7.1,0,0,1-1.357,4.67A.87.87,0,0,1,598.535,205.921Z" fill="#231f20"/><path d="M584.823,172.986a.848.848,0,0,1-.271-.043.871.871,0,0,1-.558-1.1,21.144,21.144,0,0,0,.8-3.032c-.022.05-.044.1-.063.149a.872.872,0,0,1-1.62-.645c.223-.563,1.057-2.368,2.439-2.058a1.26,1.26,0,0,1,.822.622c.2.362.688,1.21-.716,5.5A.873.873,0,0,1,584.823,172.986Z" fill="#231f20"/><path d="M588.947,173.122a1.386,1.386,0,0,1-1.038-.412c-.731-.777-.412-2.01.039-3.225a2.421,2.421,0,0,0,.233-1.495c-.324-.056-1.21.531-1.869,1.162A.871.871,0,0,1,585.1,167.9c.652-.625,2.307-2.031,3.575-1.6a1.8,1.8,0,0,1,1.075.95,3.721,3.721,0,0,1-.173,2.848,6.1,6.1,0,0,0-.346,1.2,1.361,1.361,0,0,0,.693-.758.871.871,0,1,1,1.644.574,3.1,3.1,0,0,1-2.192,1.967A2.151,2.151,0,0,1,588.947,173.122Z" fill="#231f20"/><path d="M606.956,201.015a.848.848,0,0,1-.271-.043.871.871,0,0,1-.558-1.1,21.232,21.232,0,0,0,.8-3.036c-.024.051-.046.1-.064.152a.872.872,0,0,1-1.621-.645c.223-.561,1.042-2.362,2.439-2.058a1.263,1.263,0,0,1,.822.623c.206.363.688,1.213-.715,5.506A.871.871,0,0,1,606.956,201.015Z" fill="#231f20"/><path d="M611.063,201.16a1.371,1.371,0,0,1-1.021-.42c-.731-.777-.414-2.01.039-3.226a2.409,2.409,0,0,0,.231-1.494,4.017,4.017,0,0,0-1.869,1.161.871.871,0,0,1-1.207-1.257c.652-.626,2.307-2.031,3.577-1.6a1.813,1.813,0,0,1,1.074.949,3.727,3.727,0,0,1-.172,2.849,6.634,6.634,0,0,0-.336,1.128,1.944,1.944,0,0,0,.543-.761.872.872,0,0,1,1.6.686,3.135,3.135,0,0,1-2.153,1.957A1.759,1.759,0,0,1,611.063,201.16Z" fill="#231f20"/><path d="M549.292,194.682h-4.848a.872.872,0,0,1,0-1.743h4.848a.872.872,0,1,1,0,1.743Z" fill="#231f20"/><path d="M556.15,194.682h-3.723a.872.872,0,0,1,0-1.743h3.723a.872.872,0,0,1,0,1.743Z" fill="#231f20"/><path d="M546.649,205.946h-5.143a.871.871,0,0,1,0-1.743h5.143a.871.871,0,0,1,0,1.743Z" fill="#231f20"/><path d="M553.651,205.946h-4.359a.871.871,0,0,1,0-1.743h4.359a.871.871,0,1,1,0,1.743Z" fill="#231f20"/><path d="M544.077,205.946a.893.893,0,0,1-.215-.027.871.871,0,0,1-.63-1.059l2.855-11.264a.871.871,0,1,1,1.688.429l-2.854,11.264A.871.871,0,0,1,544.077,205.946Z" fill="#231f20"/><path d="M544.967,202.433a.871.871,0,0,1-.546-1.55l9.625-7.752a.872.872,0,1,1,1.093,1.358l-9.626,7.752A.869.869,0,0,1,544.967,202.433Z" fill="#231f20"/><path d="M551.677,205.946a.871.871,0,0,1-.8-.528l-2.845-6.625a.871.871,0,1,1,1.6-.687l2.845,6.624a.872.872,0,0,1-.8,1.216Z" fill="#231f20"/><path d="M560.41,208.867a1.281,1.281,0,0,1-.963-.412,2.228,2.228,0,0,1-.366-1.749c.053-.552.952-3.965,1.5-6h-.4a.871.871,0,1,1,0-1.743h1.535a.87.87,0,0,1,.841,1.1c-.654,2.417-1.583,5.959-1.724,6.713a3.015,3.015,0,0,0,.5-.582.9.9,0,0,1,1.153-.425.848.848,0,0,1,.454,1.1C562.7,207.465,561.4,208.867,560.41,208.867Z" fill="#231f20"/><path d="M557.733,208.867c-.749,0-2.015-.556-2.015-2.642,0-1.755,1.307-4.2,3.436-4.2a2.572,2.572,0,0,1,2.249,1.8.871.871,0,0,1-1.639.591c-.05-.129-.31-.649-.61-.649-.9,0-1.693,1.375-1.693,2.459,0,.661.187.894.274.9a2.579,2.579,0,0,0,1.562-1.273.871.871,0,1,1,1.495.9A4.094,4.094,0,0,1,557.733,208.867Z" fill="#231f20"/><path d="M579.869,201.946H568.7a.871.871,0,0,1,0-1.743h11.166a.871.871,0,1,1,0,1.743Z" fill="#231f20"/><path d="M574.286,207.529a.871.871,0,0,1-.871-.872v-11.1a.872.872,0,1,1,1.743,0v11.1A.871.871,0,0,1,574.286,207.529Z" fill="#231f20"/></g></g></svg>