<svg xmlns="http://www.w3.org/2000/svg" xmlns:xlink="http://www.w3.org/1999/xlink" width="960" height="470" viewBox="0 0 960 470"><defs><clipPath id="b"><rect width="960" height="470"/></clipPath></defs><g id="a" clip-path="url(#b)"><rect width="960" height="470" fill="#fff"/><g transform="translate(50.741 -11.3)"><g transform="translate(27.286 30.665)"><g transform="translate(62.038 143.757)"><path d="M61.687,119.65a10.865,10.865,0,0,1,19.7-4.813c5.195,7.475,21.247,19.249,33.388,22.659a10.865,10.865,0,0,1-5.876,20.921c-15.955-4.482-36.724-18.759-45.356-31.177A10.833,10.833,0,0,1,61.687,119.65Z" transform="translate(-61.597 -110.173)" fill="#dedede"/></g><g transform="translate(680.613 296.798)"><path d="M447.078,281.544a43.364,43.364,0,1,1,43.365-43.363A43.413,43.413,0,0,1,447.078,281.544Zm0-79.326a35.962,35.962,0,1,0,35.961,35.963A36,36,0,0,0,447.078,202.217Z" transform="translate(-403.713 -194.815)" fill="#dedede"/></g><g transform="translate(162.236 8.447)"><path d="M124,80.317a9.533,9.533,0,0,1-2.341-.984,9.428,9.428,0,0,1-3.343-12.9c10.836-18.415,24.048-25.876,34.348-30.316a9.425,9.425,0,0,1,7.466,17.309c-8.552,3.689-17.569,8.975-25.566,22.567A9.453,9.453,0,0,1,124,80.317Zm33.743-40.611a5.2,5.2,0,0,0-3.421.253c-9.715,4.189-22.176,11.225-32.4,28.595a5.239,5.239,0,0,0,1.857,7.169,5.229,5.229,0,0,0,7.169-1.857c8.608-14.631,18.312-20.321,27.517-24.29a5.237,5.237,0,0,0-.139-9.675A5.889,5.889,0,0,0,157.747,39.706Z" transform="translate(-117.014 -35.337)" fill="#dedede"/></g><g transform="translate(634.785 63.404)"><circle cx="41.52" cy="41.52" r="41.52" fill="#dedede"/></g><g transform="translate(11.705 272.821)"><circle cx="41.52" cy="41.52" r="41.52" fill="#dedede"/></g><g transform="translate(617.68 267.678)"><circle cx="26.717" cy="26.717" r="26.717" fill="#dedede"/></g><g transform="translate(133.906 276.008)"><circle cx="32.521" cy="32.521" r="32.521" fill="#dedede"/></g><g transform="translate(296.772 12.638)"><circle cx="26.457" cy="26.457" r="26.457" fill="#dedede"/></g><g transform="translate(92.59 61.32)"><path d="M122.1,151.787a43.6,43.6,0,1,1,43.6-43.6A43.653,43.653,0,0,1,122.1,151.787Zm0-79.764a36.16,36.16,0,1,0,36.16,36.16A36.2,36.2,0,0,0,122.1,72.023Z" transform="translate(-78.495 -64.579)" fill="#dedede"/></g><g transform="translate(704.578 244.699)"><path d="M446.5,166.05a7.75,7.75,0,0,1,2.005.512,7.684,7.684,0,0,1,4.245,10c-6.524,16.148-16.28,23.749-24.051,28.566a7.682,7.682,0,1,1-8.1-13.058c6.451-4,13.085-9.344,17.9-21.263A7.7,7.7,0,0,1,446.5,166.05ZM424.17,202.841a4.237,4.237,0,0,0,2.727-.615c7.328-4.544,16.531-11.711,22.684-26.942a4.269,4.269,0,1,0-7.916-3.2c-5.182,12.828-12.322,18.582-19.267,22.887a4.268,4.268,0,0,0,1.275,7.782A3.926,3.926,0,0,0,424.17,202.841Z" transform="translate(-416.967 -166)" fill="#dedede"/></g><g transform="translate(0 229.143)"><path d="M31.719,193.11a11.125,11.125,0,0,1-.089-17.7c19.987-15.365,37.738-17.694,50.97-18a11.121,11.121,0,0,1,.524,22.236c-10.986.259-23.185,2.061-37.937,13.4A11.153,11.153,0,0,1,31.719,193.11Zm54.852-29.535a6.134,6.134,0,0,0-3.855-1.233c-12.479.293-29.221,2.49-48.073,16.982a6.178,6.178,0,1,0,7.531,9.8c15.879-12.206,29.009-14.146,40.834-14.425a6.178,6.178,0,0,0,4.119-10.648A6.842,6.842,0,0,0,86.571,163.575Z" transform="translate(-27.286 -157.397)" fill="#dedede"/></g><g transform="translate(63.511 342.905)"><path d="M117.944,221.191a11.3,11.3,0,0,1,4.506,17.414c-15.852,20.12-32.752,26.841-45.7,30.45a11.3,11.3,0,0,1-6.064-21.769c10.755-3,22.319-7.815,34.017-22.664A11.325,11.325,0,0,1,117.944,221.191Zm-46.65,42.772a6.226,6.226,0,0,0,4.1.253c12.217-3.4,28.159-9.742,43.108-28.72a6.277,6.277,0,1,0-9.861-7.769C96.051,243.711,83.6,248.9,72.027,252.122a6.278,6.278,0,0,0-1.4,11.516A6.831,6.831,0,0,0,71.293,263.963Z" transform="translate(-62.412 -220.316)" fill="#dedede"/></g><g transform="translate(689.768 17.903)"><path d="M408.844,52.221A12.972,12.972,0,0,1,426.47,41.463c27.389,10.7,40.413,27.02,48.7,40.046a12.971,12.971,0,0,1-21.889,13.924c-6.878-10.814-16.031-21.909-36.247-29.8A13,13,0,0,1,408.844,52.221Zm62.549,36.974A7.141,7.141,0,0,0,470.3,84.6c-7.815-12.284-20.1-27.68-45.931-37.769a7.208,7.208,0,0,0-9.335,4.09,7.2,7.2,0,0,0,4.092,9.335c21.758,8.5,31.609,20.44,39.013,32.081a7.207,7.207,0,0,0,13.116-2.305A7.436,7.436,0,0,0,471.393,89.194Z" transform="translate(-408.776 -40.566)" fill="#dedede"/></g><g transform="translate(478.613)"><path d="M300.231,87.274a12.974,12.974,0,0,1-5.639-19.864c17.651-23.52,36.869-31.689,51.637-36.178a12.971,12.971,0,1,1,7.547,24.82c-12.262,3.728-25.407,9.572-38.435,26.93A13,13,0,0,1,300.231,87.274Zm52.391-50.346a7.159,7.159,0,0,0-4.716-.181c-13.931,4.235-32.056,11.941-48.7,34.124a7.207,7.207,0,0,0,1.437,10.089,7.2,7.2,0,0,0,10.089-1.439C324.752,60.838,338.9,54.55,352.1,50.538a7.207,7.207,0,0,0,1.3-13.253A7.428,7.428,0,0,0,352.622,36.928Z" transform="translate(-291.993 -30.665)" fill="#dedede"/></g><g transform="translate(639.752 161.488)"><path d="M434,220.9a12.114,12.114,0,0,1-10.3-2.79c-27.506-24.105-38.353-62.788-42.371-83.7a12.133,12.133,0,1,1,23.831-4.578c3.432,17.857,12.479,50.7,34.534,70.027A12.135,12.135,0,0,1,434,220.9Z" transform="translate(-381.114 -119.979)" fill="#dedede"/></g><g transform="translate(61.552 18.884)"><path d="M61.751,85.422a8.409,8.409,0,0,1,1.013-7.334c14.172-21.066,39.848-31.945,53.894-36.556a8.422,8.422,0,1,1,5.254,16C109.918,61.473,88.1,70.6,76.74,87.49a8.423,8.423,0,0,1-14.989-2.068Z" transform="translate(-61.328 -41.109)" fill="#dedede"/></g><g transform="translate(736.489 195.044)"><path d="M443.486,138.986a12.107,12.107,0,0,1,10.489,1.938c29.387,21.773,43.362,59.439,49.077,79.954a12.134,12.134,0,0,1-23.377,6.513c-4.88-17.517-16.586-49.509-40.149-66.968a12.135,12.135,0,0,1,3.96-21.437Z" transform="translate(-434.616 -138.538)" fill="#dedede"/></g><g transform="translate(607.465 28.752)"><path d="M382.839,85.732a19.582,19.582,0,1,1,19.58-19.582A19.6,19.6,0,0,1,382.839,85.732Zm0-33.052a13.469,13.469,0,1,0,13.468,13.47A13.485,13.485,0,0,0,382.839,52.68Z" transform="translate(-363.257 -46.567)" fill="#dedede"/></g><g transform="translate(712.642 143.172)"><path d="M437.647,142.288a16.219,16.219,0,1,1,16.219-16.22A16.239,16.239,0,0,1,437.647,142.288Zm0-27.376A11.157,11.157,0,1,0,448.8,126.068,11.17,11.17,0,0,0,437.647,114.912Z" transform="translate(-421.427 -109.849)" fill="#dedede"/></g><g transform="translate(642.564 363.073)"><path d="M398.888,263.909a16.219,16.219,0,1,1,16.219-16.219A16.236,16.236,0,0,1,398.888,263.909Zm0-27.376a11.157,11.157,0,1,0,11.156,11.158A11.17,11.17,0,0,0,398.888,236.533Z" transform="translate(-382.669 -231.47)" fill="#dedede"/></g><g transform="translate(115.032 216.526)"><path d="M110.6,189.8a19.691,19.691,0,1,1,19.688-19.69A19.713,19.713,0,0,1,110.6,189.8Zm0-33.234a13.544,13.544,0,1,0,13.543,13.544A13.56,13.56,0,0,0,110.6,156.566Z" transform="translate(-90.907 -150.419)" fill="#dedede"/></g><g transform="translate(30.367 95.106)"><path d="M60.3,115.7A16.219,16.219,0,1,1,76.52,99.485,16.239,16.239,0,0,1,60.3,115.7Zm0-27.376A11.157,11.157,0,1,0,71.457,99.485,11.17,11.17,0,0,0,60.3,88.328Z" transform="translate(-44.081 -83.265)" fill="#dedede"/></g></g><g transform="translate(201.53 70.931)"><g transform="translate(381.646 123.648)"><path d="M353.214,331.895l-.065.067a53.77,53.77,0,0,0-7.236,11.588c-1.376-6.826-3.764-20.035-6.27-35.815V307.7c2.473-20.724,13.358-61.124,12.441-63.988-1.441-4.5-17.352-19.545-17.352-19.545,8.234-10.084,21.216-26.485,21.919-28.6.7-2.1-4.37-70.747-4.551-74.251,4.321,5.354,9.953,11.836,14.061,15.157,8.626,6.974,21.084,16.681,28.4,28.009.277.441.555.868.817,1.309,8.807,14.618,11.787,59.6,10.035,82.4-.852,11.049-4.273,30.4-8.775,49.37-4.795,20.166-10.852,39.908-16.4,48.846,0,0-.8-.262-2.161-.754C372.774,343.779,359.074,338.427,353.214,331.895Z" transform="translate(-334.732 -121.321)" fill="#fff"/></g><g transform="translate(416.775 299.896)"><path d="M380.941,218.8c3.421,8.151,11.787,53.053,11.787,53.053-5.354,3.584-14.683,6.547-23.2,8.4a81.138,81.138,0,0,1-15.371,2.128c2.9-5.271,6.336-9.691,8.218-15.486,1.358.492,2.161.754,2.161.754C370.088,258.707,376.146,238.965,380.941,218.8Z" transform="translate(-354.161 -218.799)" fill="#fff"/></g><g transform="translate(326.174 8.068)"><path d="M332.793,79.934c-1.62,3.159-6.645,6.923-9.738,10.738a45.311,45.311,0,0,0-7.988,16.173c.13,2.618-.067,26.747,5.222,40.333,4.157,10.706,13.438,15.092,20.2,15.076.23,1.982.573,5.354.77,7.972-.655.376-2.226,1.293-4.386,2.75a91.32,91.32,0,0,0-28.91,31.463c-.26.474-.506.933-.736,1.407l-1.014-.523c-.884-1.933-2.815-6.319-1.933-15.437s8.071-41.4,6.844-54.543-7.907-38.581,3.945-58.061C326.9,57.82,357.774,50.976,379.348,64.3s18.58,46.75,17.793,52.529c-.785,5.795-.671,22.393,2.537,33.77,4.045,14.242,24.456,29.235,26.487,42.085,2.112,13.342-2.783,19.594-6.809,23.458-7.317-11.328-19.775-21.035-28.4-28.009-4.108-3.321-9.74-9.8-14.061-15.157-3.061-3.813-5.484-7.039-6.187-8.135,0-4.65-.181-15.24-.295-23.426-.049-3.47-.081-6.5-.081-8.462,8.659,4.4,12.293-3.372,13.324-8.758,1.163-6.008-1.325-10.476-5.008-11.393-4.059-1.014-7.726,2.455-8.693,3.553-1.833-11.966-14.765-17.566-25.863-23.818C336.427,88.234,333.988,83.485,332.793,79.934Z" transform="translate(-304.052 -57.398)"/></g><g transform="translate(387.784 334.221)"><path d="M356.837,277.561s.8,3.721-1.833,4.11c-3.012.448-3.813-4.11-3.813-4.11s1.665,5.869-1.02,6.636c-4.71,1.345-4.775-6.636-4.775-6.636s.313,4.15-2.493,4.663c-3.887.711-4.775-4.663-4.775-4.663,0-13.045,2.309-21.9,5.043-28.1v-.018a53.77,53.77,0,0,1,7.236-11.588l.065-.067c5.86,6.533,19.56,11.885,24.865,13.767-1.882,5.795-5.321,10.216-8.218,15.486a38.543,38.543,0,0,0-4.092,10.525,2.876,2.876,0,0,1-2.5,1.734C358.73,279.308,356.837,277.561,356.837,277.561Z" transform="translate(-338.127 -237.783)" fill="#fff"/></g><g transform="translate(337.189 30.605)"><path d="M373.722,102.731c3.683.917,6.171,5.384,5.008,11.393-1.031,5.386-4.665,13.161-13.324,8.758,0,1.964.033,4.992.081,8.462-6.057,10.509-21.411,20-28.434,20.757a14.664,14.664,0,0,1-1.49.081c-6.76.016-16.041-4.37-20.2-15.076-5.289-13.586-5.092-37.715-5.222-40.333A45.311,45.311,0,0,1,318.132,80.6c3.094-3.815,8.118-7.58,9.738-10.738,1.2,3.551,3.634,8.3,11.3,12.6,11.1,6.252,24.029,11.852,25.863,23.818C366,105.187,369.663,101.717,373.722,102.731Z" transform="translate(-310.144 -69.862)" fill="#fff"/></g><g transform="translate(377.6 115.513)"><path d="M353.909,124.957c.181,3.5,5.254,72.155,4.551,74.251-.7,2.112-13.685,18.513-21.919,28.6l-4.027.033c-.016-.425-.016-.85-.016-1.26q-.024-5.5.132-10.934h.016q.2-7.244.655-14.275.466-7.269,1.163-14.192.711-7.269,1.6-14.078c.638-4.878,1.342-9.559,2.063-14,.768-4.762,1.588-9.248,2.388-13.389,1.016-5.189,2.047-9.854,3-13.882a141.842,141.842,0,0,1,4.207-15.009C348.425,117.918,350.848,121.143,353.909,124.957Z" transform="translate(-332.494 -116.822)" fill="#fff"/></g><g transform="translate(377.619 226.495)"><path d="M353.884,197.748c.917,2.864-9.968,43.264-12.441,63.988-2.193-13.931-4.468-29.842-6.171-45.114-.244-2.228-.49-4.437-.7-6.614-.524-5.14-.966-10.165-1.309-14.946h-.016c-.36-5.189-.606-10.1-.705-14.617-.016-.754-.033-1.49-.033-2.211l4.027-.033S352.443,193.246,353.884,197.748Z" transform="translate(-332.505 -178.203)" fill="#fff"/></g><g transform="translate(362.608 92.088)"><path d="M354.127,103.866c.114,8.185.295,18.775.295,23.426-2.309,3.616-12.964,8.429-20.4,8.986-.539.049-1.031.065-1.522.065a15.441,15.441,0,0,1-7.415-1.506c-.016-.606-.049-1.342-.114-2.161-.2-2.618-.541-5.99-.77-7.972a14.664,14.664,0,0,0,1.49-.081C332.715,123.869,348.07,114.375,354.127,103.866Z" transform="translate(-324.203 -103.866)" fill="#fff"/></g><g transform="translate(370.908 115.513)"><path d="M350.712,116.822a141.842,141.842,0,0,0-4.207,15.009c-1.49,2.473-6.449,7.7-9.265,6.958-3.045-.785-8.447-12.915-8.447-12.915.492,0,.984-.016,1.522-.065C337.748,125.251,348.4,120.438,350.712,116.822Z" transform="translate(-328.793 -116.822)" fill="#818181"/></g><g transform="translate(359.81 124.564)"><path d="M351.465,127.786c-.949,4.028-1.98,8.693-3,13.882-6.793-1.622-25.109-5.238-25.814-5.386q.884-4.442,1.622-7.807c.016,2,1.293,3.551,2.929,2.061,1.671-1.488,5.844-7.4,6.547-8.708,0,0,5.4,12.13,8.447,12.915C345.016,135.481,349.975,130.259,351.465,127.786Z" transform="translate(-322.655 -121.828)" fill="#fff"/></g><g transform="translate(357.257 139.018)"><path d="M349.61,135.208c-.8,4.141-1.62,8.626-2.388,13.389-3.488-.866-25.979-5.4-25.979-5.4.9-4.976,1.752-9.478,2.553-13.374C324.5,129.97,342.817,133.586,349.61,135.208Z" transform="translate(-321.243 -129.822)" fill="#818181"/></g><g transform="translate(354.866 152.393)"><path d="M348.29,142.62c-.721,4.437-1.425,9.118-2.063,14-3.486-.868-26.306-5.468-26.306-5.468.819-4.976,1.62-9.641,2.39-13.93C322.311,137.219,344.8,141.754,348.29,142.62Z" transform="translate(-319.921 -137.219)" fill="#fff"/></g><g transform="translate(345.142 250.919)"><path d="M349.083,199.093c.213,2.177.459,4.386.7,6.614-4.435,1.588-10.279,1.439-18.054,1.047-7.777-.409-14.389-2.864-17.189-5.5.132-3.274.262-6.466.41-9.543C314.953,191.711,345.581,198.242,349.083,199.093Z" transform="translate(-314.543 -191.711)" fill="#818181"/></g><g transform="translate(352.706 166.322)"><path d="M347.193,150.391q-.884,6.8-1.6,14.078h-.016c-3.488-.852-26.846-5.582-26.846-5.582.72-4.862,1.441-9.543,2.161-13.964C320.887,144.923,343.707,149.523,347.193,150.391Z" transform="translate(-318.726 -144.923)" fill="#818181"/></g><g transform="translate(350.726 180.286)"><path d="M346.457,158.228h.016q-.689,6.924-1.163,14.192c-3.486-.868-27.68-5.762-27.68-5.762.638-4.811,1.309-9.494,1.98-14.011C319.611,152.646,342.97,157.376,346.457,158.228Z" transform="translate(-317.631 -152.646)" fill="#fff"/></g><g transform="translate(345.553 237.006)"><path d="M347.59,190.366c.344,4.781.785,9.805,1.309,14.946-3.5-.852-34.129-7.382-34.129-7.382.23-4.96.474-9.641.736-13.913h.016s28.483,5.482,32.052,6.35Z" transform="translate(-314.77 -184.016)" fill="#fff"/></g><g transform="translate(348.957 194.297)"><path d="M346.1,166.157q-.466,7.022-.655,14.275h-.016c-3.553-.868-28.778-5.976-28.778-5.976.557-4.779,1.163-9.478,1.768-14.061C318.421,160.395,342.615,165.289,346.1,166.157Z" transform="translate(-316.653 -160.395)" fill="#818181"/></g><g transform="translate(346.289 222.452)"><path d="M346.54,182.254c.1,4.517.345,9.427.705,14.617-3.569-.868-32.052-6.35-32.052-6.35h-.016c.344-5.665.721-10.624,1.114-14.553,0,0,26.714,5.419,30.2,6.287Z" transform="translate(-315.177 -175.967)" fill="#818181"/></g><g transform="translate(347.402 208.358)"><path d="M346.042,188.553h-.049c-3.486-.868-30.2-6.287-30.2-6.287.016-.114.016-.23.033-.344.081-.752.146-1.49.23-2.226q.613-5.845,1.293-11.525s25.225,5.108,28.778,5.976q-.149,5.424-.132,10.934c0,.41,0,.835.016,1.26C346.01,187.063,346.026,187.8,346.042,188.553Z" transform="translate(-315.793 -168.172)" fill="#fff"/></g><g transform="translate(361.431 123.058)"><path d="M325.613,121a15.441,15.441,0,0,0,7.415,1.506c-.7,1.309-4.876,7.22-6.547,8.708-1.636,1.49-2.913-.065-2.929-2.061v-.033C324.452,125.089,325.172,122.3,325.613,121Z" transform="translate(-323.552 -120.995)" fill="#818181"/></g><g transform="translate(334.167 120.898)"><path d="M334.115,137.921c-.8,3.9-1.653,8.4-2.553,13.374-.77,4.289-1.571,8.954-2.39,13.93-.72,4.421-1.441,9.1-2.161,13.964-.671,4.517-1.342,9.2-1.98,14.011-.606,4.583-1.211,9.283-1.768,14.061q-.689,5.674-1.293,11.525l-3.913-.41c-1.293-2.094-7.366-22.18-9.462-25.682-.49-.835.524-4.976,2.374-10.887,6.073-19.2,21.133-56.98,22.328-59.256,2.161-1.457,3.732-2.374,4.386-2.75.065.819.1,1.555.114,2.161-.441,1.309-1.161,4.094-2.061,8.12v.033Q335,133.476,334.115,137.921Z" transform="translate(-308.473 -119.8)" fill="#fff"/></g><g transform="translate(217.67 123.648)"><path d="M358.632,179.138c-4.189,12.653-9.9,35.863-15.3,61.253H343.3c-34.721,29.007-97.874,13.734-97.874,13.734a27.879,27.879,0,0,1-1.342-8.218c-.392-9.805,2.325-21.542,3.421-25.847.262-1.081.443-1.687.443-1.687,5.663.705,63.316,2.963,81.241-10.557,13.57-10.214,16.385-34.081,26.534-53.626.23-.474.476-.933.736-1.407a91.32,91.32,0,0,1,28.91-31.463c-1.2,2.276-16.255,40.056-22.328,59.256Z" transform="translate(-244.042 -121.321)" fill="#fff"/></g><g transform="translate(330.607 219.473)"><path d="M323.561,174.729c-.083.736-.148,1.474-.23,2.226-.016.114-.016.23-.033.344-.392,3.929-.77,8.889-1.114,14.553-.262,4.272-.506,8.954-.736,13.913-.148,3.077-.278,6.269-.41,9.543-.49,12.1-.915,25.273-1.26,38.026-2.8-10.279-13.275-53.856-13.275-61.482,0-3.045,13.145-17.533,13.145-17.533Z" transform="translate(-306.504 -174.319)" fill="#fff"/></g><g transform="translate(301.053 181.465)"><path d="M332.988,270.321v.016c-.933,33.639-1.374,64.316-1.374,64.316-8.807.506-17.434-1.949-24.505-5.01a82.633,82.633,0,0,1-16.86-9.771c-1.031-16.387,6.958-63.759,15.814-105.321,5.4-25.389,11.114-48.6,15.3-61.253l4.4,1.439c-1.85,5.911-2.864,10.051-2.374,10.887,2.1,3.5,8.169,23.588,9.462,25.682,0,0-13.145,14.488-13.145,17.533C319.713,216.465,330.189,260.042,332.988,270.321Z" transform="translate(-290.158 -153.298)" fill="#fff"/></g><g transform="translate(175.055 218.423)"><path d="M232.336,184.185c-1.376.278-2.734.606-3.994.949-2.228.606-6.6-.23-7.677-2.012-.868-1.441,1.325-3.34,4.027-4.945a36.772,36.772,0,0,1,12.375-3.895,47.241,47.241,0,0,1,6.368-.541c8.512-.13,17.368,4.124,23.113,3.962-1.1,4.305-3.813,16.041-3.421,25.847h-.049a66.151,66.151,0,0,0-9.511.376C241.011,199.866,232.794,187.573,232.336,184.185Z" transform="translate(-220.473 -173.738)" fill="#fff"/></g><g transform="translate(146.405 212.737)"><path d="M259.135,210.363l-.016.033c.622,1.293-.557,4.518-5.157,3.864a6.306,6.306,0,0,1-1.472-.427l-.016.051c-.557,1.947-2.03,3.927-5.583,2.651-.146-.049-.311-.114-.457-.179a6.457,6.457,0,0,1-7.12,2.356,18.605,18.605,0,0,1-5.844-3.651,10.609,10.609,0,0,1-1.817-2.045,10.365,10.365,0,0,0,.573-4.518c-.262-2.291-3.177-4.386-4.683-2.783a4.239,4.239,0,0,0-.555.7c-.213-3.4-1.589-7.137-4.207-7.169a2.443,2.443,0,0,0-2.293,1.474c.067-1.392-1.277-4.273-3.978-4.077a1.789,1.789,0,0,0-1.539,1.114c-.7-.965-2.683-1.276-3.4-.457a3.429,3.429,0,0,0-.557,2.437h-.016c-.736-.9-4.435-2.455-5.925-3.159l-.441-.049c.8-7.055,1.636-16.009,1.85-24.227a28.741,28.741,0,0,0,8.872.736c7.12-.327,14.421-2.323,18.594-2.437,6.336-.181,12.507,2.242,15.911,6.155l.016.065a36.772,36.772,0,0,0-12.375,3.895c-2.7,1.606-4.895,3.5-4.027,4.945,1.079,1.783,5.45,2.618,7.677,2.012,1.26-.344,2.618-.671,3.994-.949.457,3.388,8.675,15.682,21.231,19.741,0,0-1,4.764-5.238,4.305A10.787,10.787,0,0,1,259.135,210.363Z" transform="translate(-204.627 -170.594)" fill="#fff"/></g><g transform="translate(163.804 85.413)"><path d="M225.807,125.38c1.441-3.291,9.33-16.255,10.657-18.761,1.309-2.5,2.815-3.895,3.913-3.5.7.246.966,1.244.9,2.488.917-1.457,2.866-6.09,4.781-5.352,1.9.72,1.014,5.3.23,7.464-.033.114-.1.246-.148.409,2.341-.671,2.931,2.423,2.014,5.354-.262.835-.8,2.209-1.457,3.813h.016c2.75-2.045,5.075-.606,3.029,4.437-2.063,5.041-4.354,11.376-6.368,18.186s-2.734,16.958-5.5,21.411c-2.372,3.813-3.175,8.118-4.059,12.686-7.628-5.679-16.893-11.393-19.562-13.013.606-3.6,2.177-16.566,2.636-20.592.457-4.061,2.553-19.383,5.352-21.314C224.187,117.752,225.315,121.7,225.807,125.38Z" transform="translate(-214.25 -100.174)" fill="#fff"/></g><g transform="translate(68.519 104.856)"><path d="M206.91,212.712a148.909,148.909,0,0,1-27.141-9.659c.016-3.929-.213-8.4-.655-13.21v-.016c2.014-6.285,6.563-33.115,5.909-35.1s-11.7-15.143-11.7-15.143c1.309-2.128,3.029-4.8,3.159-5.99.132-1.179-12.686-19.267-14.928-22.672,7.907,4.649,24.111,15.452,30.054,22.639,9.789,11.834,14.551,31.117,18.759,40.071,4.207,8.937,11.082,20.511,16.157,22.966,8.937-11.033,26.174-36.733,29.562-44.754,0,0,.262.165.752.459,2.669,1.62,11.933,7.334,19.562,13.013a83.723,83.723,0,0,1,7.023,5.73s-17.007,32.885-33.262,50.2a28.741,28.741,0,0,1-8.872-.736c.016-1.211.033-2.407.033-3.569C241.318,216.951,227.06,217.786,206.91,212.712Z" transform="translate(-161.551 -110.928)" fill="#fff"/></g><g transform="translate(167.362 247.294)"><path d="M222.286,197.571a10.609,10.609,0,0,0,1.817,2.045l-.2.673c-6.336,2-7.382-1.671-7.645-4.077a7.837,7.837,0,0,1,1.36-5.238,4.239,4.239,0,0,1,.555-.7c1.506-1.6,4.421.492,4.683,2.783A10.365,10.365,0,0,1,222.286,197.571Z" transform="translate(-216.218 -189.706)" fill="#fff"/></g><g transform="translate(161.605 241.392)"><path d="M215.987,186.442c2.618.033,3.994,3.764,4.207,7.169a7.837,7.837,0,0,0-1.36,5.238c-1.6-.327-4.386-1.62-5.287-4.092a8.282,8.282,0,0,1-.295-1.146,9.732,9.732,0,0,1,.441-5.7A2.443,2.443,0,0,1,215.987,186.442Z" transform="translate(-213.034 -186.442)" fill="#fff"/></g><g transform="translate(156.406 238.779)"><path d="M212.04,185.006c2.7-.2,4.045,2.685,3.978,4.077a9.732,9.732,0,0,0-.441,5.7,5.808,5.808,0,0,1-4.7-3.289c-.606-1.327-1.065-3.9-.378-5.37A1.789,1.789,0,0,1,212.04,185.006Z" transform="translate(-210.158 -184.997)" fill="#fff"/></g><g transform="translate(152.768 238.974)"><path d="M212.127,186.033c-.687,1.474-.228,4.043.378,5.37a2.707,2.707,0,0,1-3.569-.852,5.54,5.54,0,0,1-.77-2.539,3.429,3.429,0,0,1,.557-2.437C209.444,184.756,211.424,185.067,212.127,186.033Z" transform="translate(-208.147 -185.105)" fill="#fff"/></g><g transform="translate(0 100.665)"><path d="M210.393,204.927a148.909,148.909,0,0,0,27.141,9.659c20.149,5.073,34.408,4.238,34.408,4.238,0,1.163-.016,2.358-.033,3.569-.213,8.218-1.049,17.171-1.85,24.227-.868,7.531-1.7,12.9-1.7,12.9a203.538,203.538,0,0,1-23.178-.835,193.289,193.289,0,0,1-34.786-6.5c-34.343-9.773-61.433-28.188-74.627-48.8-1.293-2.012-2.455-4.027-3.52-6.041-16.237-30.92-5.63-60.7.77-68.554,4.207-5.173,21.035-15.4,29.089-20.184l.033.065c.246,1.719,1.506,17.482,1.342,25.062a2.023,2.023,0,0,0,1.376,1.785c3.764,1.882,9.494,3.945,13.045,5.3-.016.033-.049.081-.081.148-.949,1.7-6.041,11.36-6.008,13.308,0,1.392,22.82,32.15,25.34,37.436.508,2.39.9,4.6,1.146,6.581v.016a59.973,59.973,0,0,0,5.647,3.421C206.1,202.88,208.264,203.945,210.393,204.927Z" transform="translate(-123.655 -108.61)" fill="#fff"/></g><g transform="translate(13.213 333.077)"><path d="M209.611,295.428h-78.08c-.571-11.72-.83-41.4-.208-49.585,14.781,2.374,45.714,6.3,69.481,2.486,0,0,6.041-8.413,8.415-11.179,0,0,9.9,8.643,11.655,11.458,0,0,15.976-.163,25.584-5.516v.016c.868,5.582,1.6,42.792.893,51.926Z" transform="translate(-130.963 -237.15)" fill="#fff"/></g><g transform="translate(86.738 244.24)"><path d="M215.2,281.813c-.506.344-1.047.671-1.6.982-9.608,5.354-25.584,5.516-25.584,5.516-1.752-2.815-11.655-11.458-11.655-11.458-2.374-22.393-4.732-77.706-4.732-88.837a193.287,193.287,0,0,0,34.786,6.5C209.228,204.518,215.2,281.813,215.2,281.813Z" transform="translate(-171.627 -188.017)" fill="#fff"/></g><g transform="translate(25.123)"><path d="M210.018,75.258c5.777,3.029,8.413,8.889,7.988,16.86-.427,8.218-4.764,14.241-9.838,18.415,1.815-12.555,1.277-24.227.016-27.009a6.338,6.338,0,0,0-5.337-3.6c.524-3.683-1.669-10.525-9.478-10.525-8.822.016-16.4,7.382-20.92,13.553a39.883,39.883,0,0,0-2.98,5.157c-3.437,6.744-7.334,15.927-12.8,18.137,0,0-3.11-6.614-7.5-5.549-3.7.9-5.433,8.462-3.159,14.683,1.915,5.187,5.008,9.543,10.657,8.61,0,2.045-.394,10.933-.9,18.643h-.016c-.524-6.5-10.968-21.885-13.423-27.32s-5.827-17.45-4.47-26.828c1.571-10.919,13.194-21.263,16.3-23.718,6.762-5.354,20.527-14.57,39.648-11.049C212.931,57.218,210.018,75.258,210.018,75.258Z" transform="translate(-137.55 -52.935)"/></g><g transform="translate(32.566 22.269)"><path d="M178.65,135.905c-.311,1.555-.819,7.923-1.031,11.933-.081,1.228-.116,2.242-.116,2.815-.817,1.244-2.7,1.98-5.433,1.8a17.408,17.408,0,0,1-4.354-.917c-3.045-1-15.289-9.74-15.944-10.395.228-2.209.457-5.238.671-8.464.506-7.71.9-16.6.9-18.643-5.648.933-8.742-3.423-10.657-8.61-2.275-6.222-.541-13.783,3.159-14.683,4.388-1.065,7.5,5.549,7.5,5.549,5.466-2.209,9.362-11.393,12.8-18.137C173.985,71.82,193.531,58,199.521,69.97a6.338,6.338,0,0,1,5.337,3.6c1.26,2.783,1.8,14.454-.016,27.009h-.018a94.09,94.09,0,0,1-1.882,9.641C199.931,122.155,194.856,138.115,178.65,135.905Z" transform="translate(-141.667 -65.251)" fill="#fff"/></g><g transform="translate(68.404 104.856)"><path d="M177.563,176.553c-2.6-17.761-7.039-37.306-11.311-50.6a79.309,79.309,0,0,0-4.764-12.212c0-.573.034-1.587.116-2.815,2.242,3.4,15.06,21.493,14.928,22.672-.13,1.2-1.85,3.862-3.159,5.99,0,0,11.049,13.177,11.7,15.143s-3.895,28.81-5.909,35.1C178.774,185.62,178.233,181.136,177.563,176.553Z" transform="translate(-161.487 -110.928)" fill="#fff"/></g><g transform="translate(57.043 16.462)"><path d="M179.1,62.04c7.809,0,10,6.842,9.478,10.525-5.99-11.966-25.536,1.85-33.377,8.185a39.884,39.884,0,0,1,2.98-5.157C162.7,69.422,170.282,62.056,179.1,62.04Z" transform="translate(-155.204 -62.04)"/></g><g transform="translate(5.448 189.402)"><path d="M207.958,212.525c0,11.131,2.358,66.444,4.732,88.837-2.374,2.766-8.415,11.179-8.415,11.179-23.767,3.815-53.707.049-68.489-2.323-5.681-.917-9.118-1.622-9.118-1.622,1.392-9.822,5.059-54.3,6.3-79.062,1.587-31.168-1.752-64.48-3.161-71.846,1.065,2.014,2.228,4.028,3.52,6.041C146.524,184.337,173.615,202.753,207.958,212.525Z" transform="translate(-126.668 -157.688)" fill="#fff"/></g><g transform="translate(61.383 133.392)"><path d="M182.3,177.09c.441,4.813.671,9.281.655,13.21-2.128-.982-4.289-2.047-6.449-3.191a59.973,59.973,0,0,1-5.647-3.421v-.016c-.246-1.982-.638-4.191-1.146-6.581a245.048,245.048,0,0,0-8.3-28.089c-1.358-8.726-3.813-22.165-3.813-22.165a18.835,18.835,0,0,1,7.807.9S175.969,151.8,180.7,163.8c.671,4.583,1.211,9.068,1.6,13.275Z" transform="translate(-157.604 -126.711)" fill="#818181"/></g><g transform="translate(69.19 119.883)"><path d="M177.211,169.837c-4.732-12-15.289-36.062-15.289-36.062l1.031-10.411c.41.427.738.638.984.589,1.325-.311,2.209-3.585,1.882-4.681l.081-.033C170.172,132.53,174.608,152.076,177.211,169.837Z" transform="translate(-161.922 -119.239)" fill="#fff"/></g><g transform="translate(62.97 107.671)"><path d="M165.732,128.821c-2.307-2.455-6.712-11.671-7.25-14.535,2.734.179,4.616-.557,5.433-1.8A79.309,79.309,0,0,1,168.68,124.7l-.081.033c.327,1.1-.557,4.37-1.882,4.681C166.47,129.459,166.143,129.248,165.732,128.821Z" transform="translate(-158.482 -112.485)" fill="#fff"/></g><g transform="translate(57.993 109.472)"><path d="M167.957,128.016l-1.031,10.411a18.835,18.835,0,0,0-7.807-.9l-3.39-9.362c2.9-2.571,4.978-14.683,4.978-14.683C161.245,116.345,165.65,125.561,167.957,128.016Z" transform="translate(-155.729 -113.481)" fill="#818181"/></g><g transform="translate(48.155 132.176)"><path d="M167.329,149.545a245.048,245.048,0,0,1,8.3,28.089c-2.52-5.287-25.34-36.044-25.34-37.436-.033-1.947,5.059-11.606,6.008-13.308l2.112-.852C161.486,133.567,164.563,141.654,167.329,149.545Z" transform="translate(-150.288 -126.038)" fill="#fff"/></g><g transform="translate(51.216 120.097)"><path d="M162.148,132.778s2.455,13.44,3.813,22.165c-2.766-7.891-5.844-15.978-8.921-23.507-1.7-4.24-3.421-8.315-5.059-12.08.738,1.685,4.126,5.074,6.057,4.5a1.625,1.625,0,0,0,.72-.441Z" transform="translate(-151.981 -119.357)" fill="#fff"/></g><g transform="translate(40.937 98.161)"><path d="M163.352,133.22a1.625,1.625,0,0,1-.72.441c-1.931.573-5.319-2.815-6.057-4.5-4.419-10.167-8.267-18.023-10.263-20.889l-.016-.016c.868-.523,1.474-.866,1.736-1.031.655.655,12.9,9.4,15.944,10.395a17.408,17.408,0,0,0,4.354.917S166.25,130.649,163.352,133.22Z" transform="translate(-146.296 -107.225)" fill="#fff"/></g><g transform="translate(38.449 99.191)"><path d="M162.746,140.78l-2.112.852c.033-.067.065-.116.081-.148-3.551-1.358-9.281-3.421-13.045-5.3a2.023,2.023,0,0,1-1.376-1.785c.165-7.58-1.1-23.342-1.342-25.062l-.033-.065c.966-.573,1.817-1.079,2.488-1.474l.016.016c2,2.866,5.844,10.722,10.263,20.889C159.325,132.465,161.043,136.54,162.746,140.78Z" transform="translate(-144.92 -107.795)" fill="#fff"/></g></g><g transform="translate(200.685 70.11)"><g transform="translate(66.335 52.474)"><g transform="translate(251.682 208.809)"><path d="M388.453,307.465c0,2.915,1.9,4.992,3.632,4.8,2.506-.295,2.817-2.766,3.045-3.8a34.841,34.841,0,0,1,3.161-8.364,83,83,0,0,0,15.763-2.209c.344,2.586.736,24.046.376,29.989H299.305c-.541-5.779-.049-29.6.606-33.542,7.071,3.061,15.7,5.517,24.505,5.01,0,0,.441-30.676,1.358-64.316.36-12.752.77-25.946,1.26-38.042h.016c2.8,2.636,9.4,5.092,17.188,5.5,7.777.392,13.6.541,18.039-1.047h.033c1.719,15.125,3.994,30.936,6.187,44.835,2.587,16.206,5.059,29.808,6.449,36.715l.083.034a69.976,69.976,0,0,0-4.829,26.8c.016,2.75,1.163,5.941,4.256,5.368,2.5-.474,2.521-2.8,2.5-4.616,0,4.388,1.9,7.612,4.764,6.581,2-.705,1.62-3.748,1.309-5.632.457,1.933,1.6,3.406,3.535,3.112,2.228-.345,1.866-2.7,1.833-4.683C388.386,309.069,388.4,308.251,388.453,307.465Z" transform="translate(-299.074 -196.989)" fill="#fff"/></g><g transform="translate(304.517 11.216)"><path d="M329.891,96.987c-.967-.033-1.671-2.128-1.589-4.7s.917-4.616,1.884-4.583c.949.016,1.653,2.128,1.571,4.7S330.84,97.02,329.891,96.987Z" transform="translate(-328.295 -87.706)"/></g><g transform="translate(276.985 11.216)"><path d="M314.646,96.987c-.949-.033-1.654-2.128-1.571-4.7s.917-4.616,1.866-4.583c.966.016,1.669,2.128,1.587,4.7S315.612,97.02,314.646,96.987Z" transform="translate(-313.068 -87.706)"/></g><g transform="translate(21.434 0.345)"><path d="M173.925,81.7c.949.1,1.539,2.226,1.309,4.8-.23,2.553-1.2,4.551-2.144,4.47s-1.539-2.228-1.309-4.781C172.01,83.611,172.975,81.613,173.925,81.7Z" transform="translate(-171.731 -81.694)"/></g><path d="M161.225,90.755c-.949-.083-1.539-2.228-1.293-4.781.23-2.553,1.179-4.551,2.128-4.47s1.539,2.228,1.309,4.781S162.174,90.853,161.225,90.755Z" transform="translate(-159.876 -81.503)"/></g><g transform="translate(0 0)"><g transform="translate(32.582 47.646)"><path d="M152.245,104.007c-4.347,0-7.69-3.112-9.952-9.274-1.575-4.291-1.423-9.44.376-12.812a5.408,5.408,0,0,1,3.356-2.947c4.981-1.208,8.294,5.692,8.431,5.985a.819.819,0,0,1-1.481.7c-.027-.06-2.895-6-6.563-5.093a3.967,3.967,0,0,0-2.3,2.126c-1.568,2.94-1.685,7.659-.284,11.478,2.287,6.229,5.392,8.805,9.755,8.089a.818.818,0,1,1,.264,1.615A9.876,9.876,0,0,1,152.245,104.007Z" transform="translate(-141.208 -78.833)"/></g><g transform="translate(44.271 16.473)"><path d="M176.738,139.884a29.708,29.708,0,0,1-11.06-2.441.819.819,0,0,1,.617-1.517c6.981,2.831,12.879,3.072,17.526.714,7.561-3.833,10.941-13.635,13.468-23.657,4-15.889,3.332-33.106,1.976-36.12a5.467,5.467,0,0,0-4.625-3.112.819.819,0,0,1-.788-.935,9.137,9.137,0,0,0-2.088-6.871,8.259,8.259,0,0,0-6.551-2.718h-.02c-9.583.016-17.358,9.245-20.256,13.213a58.4,58.4,0,0,0-4.256,7.724c-3.2,6.471-6.826,13.8-11.885,15.833a.818.818,0,0,1-.609-1.519c4.477-1.8,7.957-8.833,11.028-15.04a59.515,59.515,0,0,1,4.4-7.965c3.783-5.178,11.615-13.87,21.574-13.884h.023A9.94,9.94,0,0,1,193,64.874a10.946,10.946,0,0,1,2.546,7.343,6.946,6.946,0,0,1,5.213,3.976c1.689,3.748,2.047,21.608-1.882,37.191-2.622,10.4-6.169,20.589-14.313,24.718A17.083,17.083,0,0,1,176.738,139.884Z" transform="translate(-147.673 -61.592)"/></g><g transform="translate(25.155)"><path d="M156.114,143.813a.82.82,0,0,1-.815-.752c-.344-4.245-5.424-13-9.133-19.39-1.833-3.162-3.417-5.891-4.215-7.655-2.484-5.5-5.912-17.772-4.535-27.288,1.788-12.378,16.007-23.766,16.611-24.245,12.655-10.024,26.208-13.8,40.293-11.212,17.7,3.247,17.226,18.685,16.929,21.9,5.627,3.191,8.371,9.178,7.945,17.356-.382,7.3-3.895,13.872-10.16,19A.818.818,0,1,1,208,110.26c5.983-4.9,9.2-10.892,9.561-17.819.41-7.84-2.135-13.253-7.563-16.09a.82.82,0,0,1-.428-.855c.112-.705,2.542-17.3-15.541-20.616-13.6-2.493-26.714,1.166-38.981,10.886-.584.461-14.313,11.454-16.011,23.2-1.325,9.171,2,21.048,4.408,26.38.763,1.687,2.327,4.385,4.139,7.505,4,6.891,8.975,15.466,9.35,20.081a.819.819,0,0,1-.75.882Z" transform="translate(-137.1 -52.481)"/></g><g transform="translate(57.072 22.28)"><path d="M155.572,79.333a.819.819,0,0,1-.515-1.456c5.576-4.506,19.535-14.768,28.481-12.834a8.732,8.732,0,0,1,6.135,4.929.819.819,0,0,1-1.465.732,7.07,7.07,0,0,0-5.017-4.061c-8.5-1.857-22.9,9.106-27.105,12.507A.812.812,0,0,1,155.572,79.333Z" transform="translate(-154.753 -64.803)"/></g><g transform="translate(42.693 71.061)"><path d="M147.619,120.517a.7.7,0,0,1-.087-.005.817.817,0,0,1-.727-.9c.81-7.713,1.573-24.313,1.573-27.011a.819.819,0,1,1,1.638,0c0,3.124-.806,19.788-1.584,27.183A.82.82,0,0,1,147.619,120.517Z" transform="translate(-146.8 -91.783)"/></g><g transform="translate(66.528 77.003)"><path d="M160.846,95.156a38.559,38.559,0,0,0,7.01,3.763,15.021,15.021,0,0,0,7.5,1.141l.033-.005a.818.818,0,0,1,.264,1.615,12.563,12.563,0,0,1-4.35.045,17.411,17.411,0,0,1-4.092-1.206,25.755,25.755,0,0,1-7.035-4.461.558.558,0,0,1-.06-.787A.568.568,0,0,1,160.846,95.156Z" transform="translate(-159.983 -95.069)"/></g><g transform="translate(80.887 54.597)"><path d="M171.374,83.315c-.315,2.1-.767,4.028-.347,5.894a35.114,35.114,0,0,0,2.548,5.544,25.936,25.936,0,0,1,1.32,3,7.111,7.111,0,0,1,.4,1.754,3.8,3.8,0,0,1-.374,1.974,5.252,5.252,0,0,1-2.81,2.4,15.2,15.2,0,0,1-3.229.881.819.819,0,0,1-.293-1.611c1.936-.367,4.077-1.058,4.757-2.43a2.987,2.987,0,0,0-.092-2.41,24.117,24.117,0,0,0-1.213-2.792,34.671,34.671,0,0,1-2.649-5.952,10.4,10.4,0,0,1,.918-6.542l.009-.023a.556.556,0,0,1,1.052.32Z" transform="translate(-167.924 -82.677)"/></g><g transform="translate(61.503 43.487)"><path d="M157.4,78.913a7.1,7.1,0,0,1,1.551-.987,14.063,14.063,0,0,1,1.559-.658,11.89,11.89,0,0,1,3.367-.725,5.547,5.547,0,0,1,3.623.947,4.812,4.812,0,0,1,1.729,3.394.817.817,0,0,1-1.609.268l-.014-.069a3.484,3.484,0,0,0-1.177-2.172,4.094,4.094,0,0,0-2.5-.662,11.8,11.8,0,0,0-2.969.454,15.066,15.066,0,0,0-1.47.465,8.134,8.134,0,0,0-1.278.557l-.159.094a.561.561,0,0,1-.653-.906Z" transform="translate(-157.203 -76.533)"/></g><g transform="translate(86.595 46.72)"><path d="M171.274,80.713a6.868,6.868,0,0,1,1.609-1.55,4.906,4.906,0,0,1,2.267-.828,4.552,4.552,0,0,1,2.332.461,6.651,6.651,0,0,1,1.828,1.253.583.583,0,0,1-.685.935l-.043-.025a8.61,8.61,0,0,0-1.638-.828,3.231,3.231,0,0,0-1.631-.181,3.27,3.27,0,0,0-1.488.589,8.445,8.445,0,0,0-1.314,1.246.817.817,0,0,1-1.26-1.04Z" transform="translate(-171.081 -78.321)"/></g><g transform="translate(65.966 52.319)"><ellipse cx="4.648" cy="1.73" rx="4.648" ry="1.73" transform="matrix(0.09, -0.996, 0.996, 0.09, 0, 9.258)"/></g><g transform="translate(87.407 52.67)"><ellipse cx="4.648" cy="1.73" rx="4.648" ry="1.73" transform="matrix(0.09, -0.996, 0.996, 0.09, 0, 9.258)"/></g><g transform="translate(343.177 63.628)"><ellipse cx="4.648" cy="1.73" rx="4.648" ry="1.73" transform="translate(0 9.291) rotate(-88.187)"/></g><g transform="translate(370.712 63.628)"><ellipse cx="4.648" cy="1.73" rx="4.648" ry="1.73" transform="translate(0 9.291) rotate(-88.187)"/></g><g transform="translate(68.431 92.932)"><path d="M161.854,120.257a.817.817,0,0,1-.819-.819c0-2.37.73-12.738,1.155-14.9a.819.819,0,1,1,1.607.316c-.376,1.9-1.126,12.076-1.126,14.582A.817.817,0,0,1,161.854,120.257Z" transform="translate(-161.035 -103.879)"/></g><g transform="translate(42.693 98.158)"><path d="M168.723,119.738a17.532,17.532,0,0,1-5.417-.967c-3.142-1.038-15.5-9.834-16.266-10.6a.818.818,0,0,1,1.155-1.159c.806.768,12.832,9.286,15.622,10.21,4.826,1.595,7.925.866,8.852-.562a.819.819,0,0,1,1.372.9C173.1,118.993,171.189,119.738,168.723,119.738Z" transform="translate(-146.8 -106.769)"/></g><g transform="translate(0 98.158)"><path d="M264.544,261.87c-54.908,0-107.567-22.928-129.1-56.546-21.565-33.67-9.512-67.17-2.683-75.564,4.788-5.884,25.035-17.853,31.689-21.787.917-.541,1.55-.915,1.812-1.078a.818.818,0,0,1,.868,1.387c-.268.166-.913.548-1.846,1.1-17.683,10.454-28.2,17.658-31.253,21.41-6.63,8.149-18.285,40.74,2.792,73.649,17.759,27.729,66.312,56.873,131.2,55.76.575-3.875,3.381-23.523,3.481-39.038-5.406.114-35.124-.1-67.57-17.222-22.748-12.007-41.514-42.825-43.692-53.17a.819.819,0,0,1,1.6-.338c2.07,9.832,20.9,40.472,42.855,52.06,35.276,18.616,67.259,17.029,67.579,17.007a.768.768,0,0,1,.609.222.812.812,0,0,1,.257.595c0,17.437-3.569,40.584-3.605,40.816a.821.821,0,0,1-.792.693Q266.644,261.871,264.544,261.87Z" transform="translate(-123.188 -106.769)"/></g><g transform="translate(5.467 189.412)"><path d="M181.731,315.34c-27.4,0-54.517-5.5-54.866-5.573a.82.82,0,0,1-.645-.917c1.41-9.874,5.039-53.964,6.307-78.994,1.55-30.573-1.627-63.641-3.151-71.647a.818.818,0,1,1,1.607-.306c1.535,8.06,4.735,41.324,3.179,72.036-1.239,24.463-4.734,67.136-6.214,78.372,5.972,1.157,46.217,8.541,76.227,3.846,1.083-1.5,6.113-8.451,8.263-10.957a.816.816,0,0,1,.561-.286.837.837,0,0,1,.6.2c.391.34,9.221,8.053,11.548,11.234,2.727-.081,17.629-.754,25.906-6.081-.512-6.549-6.084-77.256-8.722-86.667a.818.818,0,1,1,1.575-.441c2.8,9.973,8.574,84.3,8.818,87.463a.825.825,0,0,1-.356.741c-9.393,6.381-26.9,6.623-27.637,6.63a.868.868,0,0,1-.7-.385c-1.258-2.012-7.337-7.59-10.877-10.708-2.589,3.179-7.789,10.411-7.845,10.489a.825.825,0,0,1-.535.331A148.074,148.074,0,0,1,181.731,315.34Z" transform="translate(-126.212 -157.239)"/></g><g transform="translate(13.236 341.773)"><path d="M131.9,292.727a.82.82,0,0,1-.817-.779c-.542-11.207-.861-41.112-.206-49.686a.819.819,0,0,1,1.633.125c-.608,7.963-.389,37.158.208,49.482a.818.818,0,0,1-.777.857Z" transform="translate(-130.508 -241.506)"/></g><g transform="translate(128.726 339.028)"><path d="M196.1,293.559c-.02,0-.042,0-.063,0a.819.819,0,0,1-.754-.879c.723-9.4-.056-46.423-.893-51.746a.819.819,0,1,1,1.618-.251c.926,5.893,1.578,43.4.908,52.122A.818.818,0,0,1,196.1,293.559Z" transform="translate(-194.383 -239.987)"/></g><g transform="translate(90.967 349.268)"><path d="M175.238,289.378h-.02a.82.82,0,0,1-.8-.839c.136-5.462-.662-39.066-.917-42a.818.818,0,0,1,.743-.884.835.835,0,0,1,.888.745c.257,2.949,1.058,36.7.924,42.183A.82.82,0,0,1,175.238,289.378Z" transform="translate(-173.499 -245.651)"/></g><g transform="translate(86.757 244.24)"><path d="M176.725,278.047a.817.817,0,0,1-.814-.732c-2.331-22.042-4.741-77.585-4.741-88.933a.819.819,0,1,1,1.638,0c0,11.326,2.4,66.76,4.73,88.761a.817.817,0,0,1-.727.9A.724.724,0,0,1,176.725,278.047Z" transform="translate(-171.171 -187.563)"/></g><g transform="translate(40.987 99.206)"><path d="M180.347,200.147a.817.817,0,0,1-.81-.718c-2.911-23.539-27.1-81.494-33.535-90.8a.819.819,0,0,1,1.347-.931c6.668,9.639,30.8,67.192,33.811,91.527a.816.816,0,0,1-.711.911A.661.661,0,0,1,180.347,200.147Z" transform="translate(-145.857 -107.349)"/></g><g transform="translate(68.43 107.673)"><path d="M180.183,202.99h-.005a.818.818,0,0,1-.812-.824c.166-25.407-10.727-74.7-18.236-88.933a.819.819,0,1,1,1.448-.765c7.587,14.383,18.593,64.106,18.424,89.708A.82.82,0,0,1,180.183,202.99Z" transform="translate(-161.034 -112.032)"/></g><g transform="translate(38.502 100.731)"><path d="M161.067,141.983a.848.848,0,0,1-.295-.054l-2.1-.794c-3.515-1.327-7.889-2.978-11.02-4.538a2.756,2.756,0,0,1-1.824-2.548c.159-7.4-1.1-23.209-1.342-24.923a.819.819,0,0,1,1.622-.231c.255,1.792,1.521,17.535,1.358,25.19,0,.145-.013.584.917,1.047,3.057,1.524,7.388,3.157,10.868,4.471l2.1.8a.818.818,0,0,1-.293,1.582Z" transform="translate(-144.482 -108.192)"/></g><g transform="translate(48.173 132.884)"><path d="M175.994,178.5a.815.815,0,0,1-.74-.466c-1.3-2.728-8.352-12.709-14.571-21.513-9.221-13.054-10.845-15.484-10.852-16.258-.024-2.47,6.14-13.765,6.2-13.873a.818.818,0,1,1,1.421.812c-1.246,2.177-6,11.467-5.987,13.047.307.828,5.75,8.532,10.552,15.327,6.563,9.292,13.349,18.9,14.711,21.755a.818.818,0,0,1-.738,1.17Z" transform="translate(-149.831 -125.975)"/></g><g transform="translate(51.243 109.467)"><path d="M157.96,129.852c-2.452,0-5.627-3.356-6.364-5.059a.819.819,0,0,1,1.5-.651c.685,1.584,3.773,4.432,5.068,4.047,1.917-.566,4.157-8.809,5.135-14.477a.819.819,0,0,1,.8-.68.766.766,0,0,1,.812.665c.638,3.378,5.77,13.389,7.35,14.423a1.819,1.819,0,0,0,.468-.582,5.4,5.4,0,0,0,.7-3,.818.818,0,0,1,1.564-.481,6.646,6.646,0,0,1-.841,4.294,2.68,2.68,0,0,1-1.622,1.418,1.386,1.386,0,0,1-1.1-.246c-1.875-1.22-5.366-8.042-7.118-12.454-.969,4.515-2.951,11.879-5.685,12.687A2.363,2.363,0,0,1,157.96,129.852Z" transform="translate(-151.529 -113.024)"/></g><g transform="translate(68.539 104.863)"><path d="M179.483,191.023a.8.8,0,0,1-.25-.04.819.819,0,0,1-.53-1.029c2.1-6.515,6.383-32.67,5.909-34.607-.439-1.316-7.321-9.818-11.554-14.864a.816.816,0,0,1-.069-.955l.322-.524c1.067-1.719,2.513-4.052,2.7-5.026-.548-1.588-7.872-12.187-11.42-17.32-1.546-2.238-2.8-4.048-3.365-4.913a.818.818,0,1,1,1.367-.9c.566.861,1.808,2.656,3.345,4.882,10.057,14.553,11.812,17.455,11.715,18.332-.132,1.181-1.305,3.153-2.953,5.808l-.011.02c2.5,2.989,10.841,13.051,11.476,14.956.79,2.369-3.942,29.517-5.907,35.612A.816.816,0,0,1,179.483,191.023Z" transform="translate(-161.095 -110.478)"/></g><g transform="translate(68.539 104.862)"><path d="M226.895,197.793a.8.8,0,0,1-.354-.081c-5.3-2.557-12.224-14.184-16.544-23.362-1.251-2.66-2.522-6.14-3.994-10.172-3.491-9.568-7.836-21.476-14.662-29.73C185.378,127.236,168.66,116.212,161.5,112a.819.819,0,1,1,.83-1.412c8.583,5.045,24.391,15.7,30.273,22.813,7.006,8.471,11.405,20.527,14.94,30.211,1.457,3.994,2.716,7.444,3.936,10.037,4.538,9.643,11.176,20.366,15.776,22.587a.818.818,0,0,1-.358,1.555Z" transform="translate(-161.095 -110.477)"/></g><g transform="translate(102.864 157.784)"><path d="M191.938,190.245a.819.819,0,0,1-.814-.74c-1.1-11.286-5.647-35.1-10.988-48.641a.819.819,0,0,1,1.524-.6c5.394,13.675,9.984,37.7,11.093,49.082a.818.818,0,0,1-.734.9C191.992,190.244,191.965,190.245,191.938,190.245Z" transform="translate(-180.079 -139.747)"/></g><g transform="translate(128.938 145.782)"><path d="M223.532,204.154a.818.818,0,0,1-.6-1.378c14.834-15.823,30.528-45.1,32.839-49.477-7.455-6.795-22.353-16.007-25.942-18.193-5.278,11.329-29.22,46-34.064,49.175a.818.818,0,1,1-.9-1.369c4.7-3.072,29.68-39.476,33.838-49.3a.82.82,0,0,1,1.173-.385c.776.465,19.083,11.443,27.467,19.3a.817.817,0,0,1,.168.973c-.17.331-17.251,33.186-33.386,50.4A.814.814,0,0,1,223.532,204.154Z" transform="translate(-194.5 -133.109)"/></g><g transform="translate(163.83 104.075)"><path d="M214.617,153.836a.924.924,0,0,1-.139-.011.819.819,0,0,1-.669-.944c.589-3.448,2.132-16.117,2.634-20.538.369-3.256,2.381-19.611,5.7-21.892a1.936,1.936,0,0,1,2.09-.183c2.674,1.439,3.079,9.881,3.05,11.485-.051,2.64-.559,7.127-.834,9.541l-.1.915c1.032,1.45,5.587,8.314,4.43,14.924a.819.819,0,0,1-1.613-.282c1.152-6.576-4.263-13.85-4.318-13.922a.82.82,0,0,1-.161-.579l.137-1.242c.269-2.385.772-6.824.821-9.388.065-3.372-.909-9.323-2.188-10.011-.056-.031-.145-.076-.389.092-1.864,1.28-3.967,11.635-5,20.726-.418,3.683-2.007,16.886-2.647,20.628A.817.817,0,0,1,214.617,153.836Z" transform="translate(-213.798 -110.042)"/></g><g transform="translate(175.381 88.291)"><path d="M221,125.278a.821.821,0,0,1-.749-1.15c.947-2.148,4.488-8.178,7.334-13.022,1.546-2.631,2.88-4.905,3.345-5.786,1.591-3.023,3.383-4.441,4.914-3.893a1.994,1.994,0,0,1,1.15,1.137c.647,1.481.19,3.911-.551,5.661-.108.259-.3.685-.546,1.246a142.154,142.154,0,0,0-5.79,14.73.819.819,0,1,1-1.569-.468A143.89,143.89,0,0,1,234.4,108.81c.244-.55.428-.969.537-1.222.691-1.635.931-3.511.557-4.367-.043-.1-.112-.221-.2-.253-.454-.159-1.644.7-2.913,3.115-.483.915-1.826,3.2-3.383,5.853-2.674,4.553-6.337,10.791-7.245,12.852A.82.82,0,0,1,221,125.278Z" transform="translate(-220.186 -101.312)"/></g><g transform="translate(187.977 85.403)"><path d="M227.972,129.5a.728.728,0,0,1-.165-.018.818.818,0,0,1-.638-.966c1.005-4.923,4.488-12.819,6.569-17.537.653-1.479,1.168-2.649,1.356-3.164.938-2.58,1.233-6.053.237-6.431-.852-.3-2.5,2.687-3.114,3.822-.262.485-.492.908-.68,1.2a.819.819,0,0,1-1.381-.879c.172-.271.383-.66.624-1.1,1.237-2.282,2.935-5.406,5.131-4.573,2.756,1.043,1.454,6.5.72,8.52-.2.568-.7,1.7-1.4,3.265-2.054,4.658-5.493,12.454-6.462,17.206A.819.819,0,0,1,227.972,129.5Z" transform="translate(-227.153 -99.715)"/></g><g transform="translate(191.528 93.277)"><path d="M229.936,127.49a.8.8,0,0,1-.206-.025.82.82,0,0,1-.588-1,105.467,105.467,0,0,1,3.936-10.532c.987-2.412,1.918-4.688,2.28-5.84.624-1.993.4-3.643-.127-4.184-.141-.145-.367-.293-.89-.145a.819.819,0,0,1-.448-1.575,2.426,2.426,0,0,1,2.51.577c1.076,1.1,1.278,3.387.517,5.817-.382,1.217-1.284,3.419-2.327,5.97a105.342,105.342,0,0,0-3.867,10.322A.816.816,0,0,1,229.936,127.49Z" transform="translate(-229.117 -104.07)"/></g><g transform="translate(183.398 101.629)"><path d="M225.439,167.945a.905.905,0,0,1-.155-.014.818.818,0,0,1-.649-.958l.031-.161c.881-4.578,1.71-8.9,4.131-12.8,1.629-2.625,2.562-7.581,3.464-12.375.573-3.047,1.166-6.2,1.947-8.836,2.347-7.918,4.768-14.3,6.386-18.26,1.072-2.624.741-3.8.378-4.086-.325-.255-1.116-.161-2.155.609a.819.819,0,1,1-.975-1.316c1.566-1.161,3.11-1.381,4.133-.586.732.57,1.725,2.106.134,6-1.6,3.925-4,10.254-6.33,18.106-.758,2.558-1.343,5.668-1.909,8.673-.973,5.169-1.893,10.051-3.683,12.937-2.26,3.641-3.065,7.82-3.915,12.246l-.031.161A.821.821,0,0,1,225.439,167.945Z" transform="translate(-224.62 -108.689)"/></g><g transform="translate(354.132 27.96)"><path d="M357.837,108.649a.82.82,0,0,1-.808-.694c-1.564-10.169-11.7-15.694-21.5-21.037-1.331-.725-2.658-1.448-3.962-2.181-9.463-5.325-11.23-11.416-12.284-15.056l-.2-.682a.819.819,0,0,1,1.568-.472l.2.7c1.051,3.62,2.634,9.089,11.516,14.083,1.3.73,2.616,1.45,3.942,2.171,10.151,5.535,20.647,11.255,22.335,22.227a.819.819,0,0,1-.683.933A1.02,1.02,0,0,1,357.837,108.649Z" transform="translate(-319.048 -67.945)"/></g><g transform="translate(337.207 30.601)"><path d="M310.506,97.954a.875.875,0,0,1-.179-.02.817.817,0,0,1-.618-.978,45.757,45.757,0,0,1,8.164-16.5,58.064,58.064,0,0,1,4.526-4.753c2.172-2.117,4.224-4.119,5.108-5.853a.818.818,0,1,1,1.457.743c-1.005,1.974-3.15,4.066-5.422,6.283a56.2,56.2,0,0,0-4.4,4.611A44.627,44.627,0,0,0,311.3,97.316.815.815,0,0,1,310.506,97.954Z" transform="translate(-309.687 -69.406)"/></g><g transform="translate(36.851 57.771)"><path d="M143.936,84.723a5.155,5.155,0,0,1,2.513-.233,7.364,7.364,0,0,1,2.374.73,5.843,5.843,0,0,1,1.955,1.653,5.427,5.427,0,0,1,1.041,2.361.818.818,0,0,1-1.591.372l-.011-.042a5.425,5.425,0,0,0-.783-1.682,5.006,5.006,0,0,0-1.4-1.255,5.837,5.837,0,0,0-1.824-.75,5.225,5.225,0,0,0-1.918-.09l-.061.013a.56.56,0,0,1-.293-1.078Z" transform="translate(-143.569 -84.432)"/></g><g transform="translate(392.104 63.29)"><path d="M345.983,110.757a11.353,11.353,0,0,1-5.108-1.39.818.818,0,0,1,.741-1.459c2.665,1.356,4.989,1.571,6.9.636,3.632-1.774,4.936-7.193,5.249-8.809,1.134-5.853-1.363-9.688-4.415-10.453-4.034-1.007-7.713,3.123-7.869,3.3a.817.817,0,0,1-1.228-1.079c.456-.521,4.6-5.032,9.492-3.806,3.8.951,6.952,5.5,5.627,12.349-.447,2.316-1.942,7.921-6.137,9.972A7.333,7.333,0,0,1,345.983,110.757Z" transform="translate(-340.049 -87.485)"/></g><g transform="translate(337.209 57.513)"><path d="M335.97,141.335c-6.52,0-16.475-3.936-21-15.586-4.741-12.2-5.117-32.338-5.242-38.955-.014-.788-.025-1.352-.038-1.645a.817.817,0,1,1,1.633-.081c.016.3.027.882.042,1.7.123,6.545.5,26.467,5.13,38.393,4.567,11.754,14.951,15.092,20.847,14.472,6.777-.72,21.938-10.136,27.827-20.377a.818.818,0,1,1,1.419.815c-6.327,11-22,20.437-29.074,21.189A14.441,14.441,0,0,1,335.97,141.335Z" transform="translate(-309.688 -84.29)"/></g><g transform="translate(392.483 83.624)"><path d="M341.443,132.266a.82.82,0,0,1-.819-.819c0-3.311-.092-9.753-.184-15.985-.089-6.205-.181-12.624-.181-15.913a.818.818,0,0,1,1.636,0c0,3.278.092,9.69.183,15.889.09,6.238.183,12.687.183,16.009A.818.818,0,0,1,341.443,132.266Z" transform="translate(-340.259 -98.731)"/></g><g transform="translate(348.561 67.747)"><path d="M321.12,90.274a9.646,9.646,0,0,1,1,6.368c-.483,2.253-1.644,3.971-2.529,5.779-.891,1.756-1.882,3.649-1.933,5.3a2.655,2.655,0,0,0,.837,2.085,4.649,4.649,0,0,0,2.389.875.819.819,0,1,1-.21,1.624,6.227,6.227,0,0,1-3.253-1.217,4.262,4.262,0,0,1-1.454-3.349,8.933,8.933,0,0,1,.8-3.267c.409-.982.882-1.906,1.36-2.813a23.416,23.416,0,0,0,2.412-5.323A11.027,11.027,0,0,0,320,90.787l-.007-.02a.619.619,0,0,1,1.13-.494Z" transform="translate(-315.967 -89.95)"/></g><g transform="translate(352.043 93.871)"><path d="M318.767,107.417a29.592,29.592,0,0,0,7-.606,27.119,27.119,0,0,0,6.594-2.332l.013-.005a.7.7,0,0,1,.725,1.2,18.26,18.26,0,0,1-6.947,2.945,23.771,23.771,0,0,1-7.523.43.819.819,0,0,1,.112-1.633Z" transform="translate(-317.892 -104.398)"/></g><g transform="translate(366.854 57.802)"><path d="M326.395,86.13a8.171,8.171,0,0,1,6.269-1.568,7.507,7.507,0,0,1,3.03,1.305,9.03,9.03,0,0,1,2.168,2.336.611.611,0,0,1-.928.787l-.045-.045A10.183,10.183,0,0,0,334.8,87.2a6.4,6.4,0,0,0-2.421-.891,6.75,6.75,0,0,0-2.584.13,7.838,7.838,0,0,0-2.4.987l-.043.031a.818.818,0,0,1-.958-1.324Z" transform="translate(-326.084 -84.449)"/></g><g transform="translate(340.15 57.899)"><path d="M311.431,87.935a8.988,8.988,0,0,1,4.179-3.128,6.5,6.5,0,0,1,2.748-.257,7.1,7.1,0,0,1,2.591.844.818.818,0,0,1-.723,1.466l-.036-.016a7.77,7.77,0,0,0-2.034-.635,5.115,5.115,0,0,0-2.083.152,8.685,8.685,0,0,0-3.772,2.327l-.011.011a.577.577,0,0,1-.859-.765Z" transform="translate(-311.315 -84.503)"/></g><g transform="translate(393.439 70.433)"><path d="M340.788,97.749a5.876,5.876,0,0,1,1.1-3.034,8.369,8.369,0,0,1,2.1-2.233,5.486,5.486,0,0,1,3.023-1.045,4.837,4.837,0,0,1,2.989,1.045.606.606,0,0,1-.655,1.016l-.033-.018a4.073,4.073,0,0,0-2.238-.562,3.933,3.933,0,0,0-2.1.906,7.461,7.461,0,0,0-1.669,1.824,5.835,5.835,0,0,0-.89,2.1l-.018.143a.814.814,0,0,1-1.62-.143Z" transform="translate(-340.788 -91.435)"/></g><g transform="translate(362.64 112.922)"><path d="M332.692,128.226a16.155,16.155,0,0,1-7.652-1.624.82.82,0,0,1-.409-.68c-.085-2.466-.562-7.435-.872-10.073a.817.817,0,0,1,1.624-.192c.286,2.412.736,7,.864,9.717a16.994,16.994,0,0,0,8.082,1.15c7.59-.582,17.732-5.422,19.761-8.612a.819.819,0,1,1,1.381.879c-2.473,3.886-13.472,8.787-21.017,9.366C333.84,128.2,333.25,128.226,332.692,128.226Z" transform="translate(-323.754 -114.935)"/></g><g transform="translate(217.681 120.904)"><path d="M283.166,260.474A180.241,180.241,0,0,1,245.6,256.51a.822.822,0,0,1-.58-.526c-4.254-12.156,2.224-35.258,2.5-36.236a.806.806,0,0,1,.888-.588c4.858.6,62.99,2.913,80.653-10.4,8.456-6.374,12.729-18.423,17.255-31.179,2.8-7.9,5.7-16.076,9.782-23.592a91.446,91.446,0,0,1,33.417-34.419l.177-.1a.819.819,0,1,1,.835,1.408l-.181.107a89.758,89.758,0,0,0-32.81,33.79c-4.021,7.4-6.9,15.513-9.679,23.357-4.609,12.995-8.961,25.27-17.811,31.94-17.687,13.333-72.486,11.559-81.131,10.791-1.02,3.846-5.916,23.5-2.5,34.162,5.658,1.267,64.218,13.49,96.718-13.664a.818.818,0,0,1,1.049,1.257C327.162,256.839,303.2,260.474,283.166,260.474Z" transform="translate(-243.581 -119.349)"/></g><g transform="translate(301.08 123.065)"><path d="M329.673,362c-20.411,0-39.375-14.864-39.57-15.022a.816.816,0,0,1-.309-.589c-1.642-26.351,20.191-133.795,31.175-166.926a.819.819,0,0,1,1.555.515c-10.9,32.882-32.527,139.1-31.117,165.939,2.49,1.882,20.71,15.125,39.771,14.42.148-9.758,1.716-108.634,4.922-140.009,5.01-49.061,13.919-92.945,16.09-99.232a.819.819,0,0,1,1.548.533c-2.157,6.242-11.011,49.927-16.011,98.864-3.349,32.781-4.907,139.559-4.923,140.633a.816.816,0,0,1-.77.806C331.245,361.979,330.458,362,329.673,362Z" transform="translate(-289.707 -120.545)"/></g><g transform="translate(392.849 115.521)"><path d="M375.61,351.228a.811.811,0,0,1-.251-.04c-.935-.3-22.972-7.473-28.848-16.649a.815.815,0,0,1-.076-.732c.117-.309,11.856-31.365,16.351-66.283,4.73-36.74-.407-67.935-2.784-76.855a.819.819,0,1,1,1.582-.423c2.4,9.006,7.589,40.483,2.826,77.486-4.244,32.972-14.911,62.515-16.3,66.261,5.348,7.719,23.561,14.215,27.139,15.434,10.859-18.245,23.022-75.334,24.711-97.3,1.779-23.107-1.267-67.561-9.914-81.91-6.688-11.1-18.7-20.784-27.47-27.855l-1.555-1.257c-7.241-5.858-18.82-21-20.43-23.473a.819.819,0,1,1,1.372-.893c1.528,2.351,13.11,17.45,20.086,23.093l1.553,1.253c8.867,7.151,21.008,16.944,27.846,28.288,8.807,14.618,11.937,59.566,10.142,82.879-1.714,22.323-14.228,80.784-25.286,98.584A.819.819,0,0,1,375.61,351.228Z" transform="translate(-340.461 -116.372)"/></g><g transform="translate(377.632 115.521)"><path d="M348.3,348.962a.817.817,0,0,1-.8-.656c-3.039-15.161-15.338-84.405-15.45-121.364-.157-51.865,11.3-99.47,15.268-110.038a.818.818,0,1,1,1.531.575c-3.938,10.5-15.318,57.819-15.163,109.456.112,36.831,12.387,105.921,15.419,121.048a.812.812,0,0,1-.8.98Z" transform="translate(-332.045 -116.372)"/></g><g transform="translate(381.669 123.646)"><path d="M340.019,308.914a.9.9,0,0,1-.1-.005.817.817,0,0,1-.716-.908c1.336-11.259,5.155-28.315,8.223-42.016,2.244-10.017,4.562-20.375,4.247-21.654-1.132-3.531-12.758-15.058-17.142-19.2a.819.819,0,0,1-.071-1.112c10.06-12.308,21.213-26.63,21.778-28.331.439-2.235-2.567-44.983-3.851-63.24-.414-5.864-.7-9.934-.74-10.72a.819.819,0,0,1,.776-.859.785.785,0,0,1,.859.776c.04.787.325,4.844.736,10.689,3.186,45.258,4.207,62.571,3.775,63.872-.835,2.5-15.421,20.7-21.587,28.259,2.878,2.754,15.674,15.152,17.029,19.377.445,1.389-.8,7.272-4.213,22.5-3.059,13.666-6.869,30.674-8.194,41.85A.818.818,0,0,1,340.019,308.914Z" transform="translate(-334.278 -120.866)"/></g><g transform="translate(175.083 218.426)"><path d="M226.991,186.517c-2.481,0-5.605-.872-6.654-2.6a2.172,2.172,0,0,1-.244-1.689c.333-1.338,1.819-2.775,4.54-4.4,3.537-2.1,11.038-4.423,19.151-4.544,4.71-.047,9.563,1.179,13.826,2.282,3.477.9,6.769,1.752,9.272,1.678a.83.83,0,0,1,.843.794.82.82,0,0,1-.8.843c-2.743.072-6.137-.8-9.728-1.729-4.166-1.078-8.865-2.3-13.394-2.229-7.813.114-14.982,2.316-18.338,4.312-3.121,1.857-3.689,2.987-3.788,3.385a.533.533,0,0,0,.054.443c.841,1.389,4.806,2.182,6.762,1.651,7.429-2.014,12.988-2.428,16.524-1.233a.819.819,0,0,1-.524,1.551c-3.175-1.07-8.56-.636-15.571,1.26A7.485,7.485,0,0,1,226.991,186.517Z" transform="translate(-220.022 -173.286)"/></g><g transform="translate(148.271 212.742)"><path d="M249.394,177.94a.818.818,0,0,1-.617-.28c-3.256-3.739-9.254-6.066-15.271-5.873a58.436,58.436,0,0,0-7.16.967c-6.3,1.083-14.132,2.428-20.547.7a.818.818,0,1,1,.425-1.58c6.068,1.633,13.705.32,19.846-.734a58.9,58.9,0,0,1,7.39-.991c6.505-.174,12.989,2.34,16.551,6.435a.815.815,0,0,1-.08,1.154A.807.807,0,0,1,249.394,177.94Z" transform="translate(-205.192 -170.142)"/></g><g transform="translate(184.886 228.868)"><path d="M244.871,204.787a5.8,5.8,0,0,1-.651-.036c-5.524-.595-13.351-6.073-18.612-13.024a.82.82,0,0,1,1.307-.989c4.931,6.518,12.447,11.843,17.481,12.385a3.967,3.967,0,0,0,4.142-2.969C235.95,195.7,227.991,183.516,227.5,179.99a.818.818,0,1,1,1.62-.224c.448,3.229,8.494,15.137,20.674,19.086a.817.817,0,0,1,.55.944C249.975,201.59,248.366,204.787,244.871,204.787Z" transform="translate(-225.443 -179.061)"/></g><g transform="translate(208.169 248.233)"><path d="M239.137,191.794a.818.818,0,0,1-.108-1.629,54.92,54.92,0,0,1,8.185-.389l1.445.005a.818.818,0,1,1,0,1.636l-1.454,0a53.428,53.428,0,0,0-7.957.372A.768.768,0,0,1,239.137,191.794Z" transform="translate(-238.32 -189.771)"/></g><g transform="translate(180.413 244.034)"><path d="M240.317,201.541a9.155,9.155,0,0,1-1.3-.1c-4.849-.693-12.5-8.579-15.862-12.655a.818.818,0,1,1,1.262-1.041c4.522,5.473,11.257,11.565,14.832,12.074,2.477.362,3.542-.546,3.958-1.116a1.742,1.742,0,0,0,.347-1.571.818.818,0,1,1,1.474-.712,3.3,3.3,0,0,1-.5,3.249A4.921,4.921,0,0,1,240.317,201.541Z" transform="translate(-222.969 -187.449)"/></g><g transform="translate(175.547 247.649)"><path d="M236.307,202.518a6.915,6.915,0,0,1-2.332-.45c-5.041-1.8-10.3-7.024-13.532-11.308a.819.819,0,1,1,1.307-.987c3.092,4.1,8.073,9.071,12.776,10.755a3.773,3.773,0,0,0,2.971.09,3.381,3.381,0,0,0,1.551-2.208.819.819,0,0,1,1.573.459,5,5,0,0,1-2.381,3.208A4.222,4.222,0,0,1,236.307,202.518Z" transform="translate(-220.278 -189.448)"/></g><g transform="translate(173.398 255.084)"><path d="M229.543,201.28a6.847,6.847,0,0,1-2.177-.358,18.419,18.419,0,0,1-8.147-6.1.819.819,0,0,1,1.38-.882,17.012,17.012,0,0,0,7.285,5.431,5.664,5.664,0,0,0,6.232-2.087.819.819,0,0,1,1.271,1.032A7.564,7.564,0,0,1,229.543,201.28Z" transform="translate(-219.09 -193.56)"/></g><g transform="translate(167.383 247.296)"><path d="M221.058,202.045a5.253,5.253,0,0,1-2.924-.777c-1.96-1.278-2.233-3.775-2.323-4.6a8.636,8.636,0,0,1,2.139-6.6,2.675,2.675,0,0,1,2.893-.649,4.985,4.985,0,0,1,3.2,3.907,11,11,0,0,1-.546,4.656c-.058.2-.11.363-.143.5a.819.819,0,1,1-1.593-.38c.04-.165.1-.363.168-.595a9.413,9.413,0,0,0,.488-3.989,3.353,3.353,0,0,0-2.088-2.548,1.02,1.02,0,0,0-1.188.219,7.011,7.011,0,0,0-1.705,5.3c.19,1.739.7,2.821,1.589,3.4,1.07.7,2.756.687,5.007-.023a.819.819,0,0,1,.5,1.56A11.716,11.716,0,0,1,221.058,202.045Z" transform="translate(-215.762 -189.253)"/></g><g transform="translate(161.637 241.389)"><path d="M219.194,200.04a.664.664,0,0,1-.168-.018c-1.687-.349-4.826-1.718-5.876-4.623-.718-1.98-.949-5.976.508-8.024a3.272,3.272,0,0,1,2.71-1.389c3.114.042,4.757,4.016,5,7.936a.818.818,0,1,1-1.633.1c-.2-3.161-1.428-6.375-3.392-6.4a1.57,1.57,0,0,0-1.354.7c-1.078,1.515-.9,4.871-.3,6.518.808,2.229,3.408,3.318,4.67,3.58a.818.818,0,0,1-.164,1.618Z" transform="translate(-212.585 -185.986)"/></g><g transform="translate(156.428 238.787)"><path d="M215.944,195.965h-.011a6.677,6.677,0,0,1-5.428-3.766c-.705-1.522-1.267-4.591-.233-6.346a2.544,2.544,0,0,1,2.081-1.295,4.135,4.135,0,0,1,3.247,1.208,5.307,5.307,0,0,1,1.609,3.717.783.783,0,0,1-.857.777.815.815,0,0,1-.777-.855,3.73,3.73,0,0,0-1.117-2.468,2.444,2.444,0,0,0-1.985-.747.92.92,0,0,0-.79.494c-.658,1.119-.259,3.605.307,4.828a5,5,0,0,0,3.965,2.817.818.818,0,0,1-.011,1.636Z" transform="translate(-209.704 -184.547)"/></g><g transform="translate(152.788 238.971)"><path d="M211.524,192.934a3.441,3.441,0,0,1-2.888-1.555c-1.079-1.566-1.367-4.632-.163-5.978a2.5,2.5,0,0,1,2.1-.741,3.41,3.41,0,0,1,2.577,1.269.819.819,0,0,1-1.331.955,1.872,1.872,0,0,0-1.333-.591,1.078,1.078,0,0,0-.8.2c-.6.676-.441,2.9.289,3.962a1.9,1.9,0,0,0,2.5.6.818.818,0,0,1,.787,1.436A3.669,3.669,0,0,1,211.524,192.934Z" transform="translate(-207.691 -184.649)"/></g><g transform="translate(146.87 238.728)"><path d="M211.171,189.309a.817.817,0,0,1-.633-.3c-.476-.577-3.213-1.821-4.527-2.419-.438-.2-.826-.374-1.128-.519a.819.819,0,0,1,.707-1.477c.291.141.671.311,1.1.506,2.492,1.132,4.452,2.063,5.115,2.869a.818.818,0,0,1-.112,1.152A.807.807,0,0,1,211.171,189.309Z" transform="translate(-204.418 -184.515)"/></g><g transform="translate(345.169 260.471)"><path d="M340.109,203.932c-2.432,0-5.106-.118-8.053-.269-7.354-.378-14.47-2.672-17.707-5.706a.819.819,0,0,1,1.119-1.2c2.4,2.247,8.637,4.855,16.671,5.269,7.665.394,13.425.553,17.734-.993a.818.818,0,0,1,.553,1.54A30.8,30.8,0,0,1,340.109,203.932Z" transform="translate(-314.091 -196.54)"/></g><g transform="translate(330.63 123.646)"><path d="M320.142,297.366a.818.818,0,0,1-.79-.6c-2.754-10.163-13.3-53.838-13.3-61.717,0-3.041,10.1-14.452,12.988-17.658-.673-1.475-1.848-4.914-3.576-10.019-2-5.9-4.488-13.248-5.61-15.123C307.3,188,334.222,121.9,334.536,121.3a.819.819,0,0,1,1.448.767c-1.947,3.683-26.094,65.3-24.711,69.375,1.2,1.985,3.506,8.805,5.739,15.4,1.562,4.616,3.179,9.391,3.707,10.245a.82.82,0,0,1-.09.98c-5.374,5.918-12.941,15.1-12.941,16.976,0,7.6,10.594,51.507,13.244,61.289a.82.82,0,0,1-.577,1.005A.863.863,0,0,1,320.142,297.366Z" transform="translate(-306.05 -120.866)"/></g><g transform="translate(388.332 334.286)"><path d="M342.34,283.446a3.642,3.642,0,0,1-2.381-.843,7.081,7.081,0,0,1-2-5.412c-.04-23.408,8.954-35.518,11.91-39.5a.818.818,0,1,1,1.315.975c-2.877,3.871-11.626,15.654-11.586,38.519a5.585,5.585,0,0,0,1.4,4.155,2.161,2.161,0,0,0,1.88.412c1.739-.32,1.855-1.8,1.83-3.855-.148-11.993,1.944-18.063,3.068-21.323a.819.819,0,0,1,1.548.533c-1.092,3.168-3.124,9.06-2.98,20.769.023,1.83.06,4.889-3.17,5.486A4.7,4.7,0,0,1,342.34,283.446Z" transform="translate(-337.963 -237.365)"/></g><g transform="translate(400.874 357.158)"><path d="M349.048,272.643a3.345,3.345,0,0,1-2.117-.734,6.524,6.524,0,0,1-1.973-4.692c-.372-5.609,1.108-12.279,2.614-16.651a.819.819,0,1,1,1.548.533c-1.456,4.22-2.886,10.642-2.528,16.009a5.027,5.027,0,0,0,1.36,3.52,1.74,1.74,0,0,0,1.454.349c1.085-.17,1.242-.942,1.163-3.175l-.02-.689c-.1-5.482.933-9.943,3.148-13.633a.818.818,0,0,1,1.4.841c-2.05,3.421-3,7.6-2.915,12.763l.02.658c.062,1.765.156,4.428-2.548,4.853A4.14,4.14,0,0,1,349.048,272.643Z" transform="translate(-344.9 -250.015)"/></g><g transform="translate(416.412 299.896)"><path d="M354.312,283.664a.819.819,0,1,1,0-1.638c7.887,0,28.606-4.188,38.044-10.2-.96-5.1-8.487-44.846-11.633-52.35a.819.819,0,1,1,1.51-.635c3.414,8.144,11.49,51.384,11.832,53.221a.823.823,0,0,1-.349.832C384.261,279.224,362.5,283.664,354.312,283.664Z" transform="translate(-353.493 -218.344)"/></g><g transform="translate(317.203 357.812)"><path d="M299.66,285.559a.819.819,0,0,1-.814-.745c-.512-5.636-.074-29.609.618-33.752a.818.818,0,1,1,1.615.268c-.62,3.714-1.155,27.279-.6,33.336a.818.818,0,0,1-.741.89C299.711,285.558,299.686,285.559,299.66,285.559Z" transform="translate(-298.624 -250.376)"/></g><g transform="translate(432.178 361.353)"><path d="M363.417,283.977l-.047,0a.818.818,0,0,1-.77-.864c.354-6.158-.058-27.544-.38-29.846a.82.82,0,0,1,.7-.924.829.829,0,0,1,.924.7c.385,2.759.732,24.274.392,30.166A.821.821,0,0,1,363.417,283.977Z" transform="translate(-362.213 -252.335)"/></g><g transform="translate(361.464 124.575)"><path d="M342.384,136a3.013,3.013,0,0,1-.745-.092c-2.8-.721-6.706-8.449-8.368-11.986a56.612,56.612,0,0,1-5.876,7.594,2.345,2.345,0,0,1-2.627.622A3.524,3.524,0,0,1,323.1,128.8a.819.819,0,0,1,1.638,0,2.1,2.1,0,0,0,.694,1.841c.289.125.665-.165.87-.349a59.888,59.888,0,0,0,6.359-8.485.84.84,0,0,1,.752-.427.818.818,0,0,1,.716.483c2.177,4.887,6.073,11.98,7.918,12.456,2.134.559,6.836-4.07,8.357-6.6a.819.819,0,1,1,1.4.844C350.481,130.775,345.809,136,342.384,136Z" transform="translate(-323.103 -121.38)"/></g><g transform="translate(326.196 8.067)"><path d="M419.717,217.332a.819.819,0,0,1-.566-1.41c4.112-3.933,8.576-10.071,6.574-22.737-1.007-6.374-6.724-13.329-12.778-20.692-5.739-6.983-11.675-14.2-13.685-21.3-3.24-11.451-3.392-28.031-2.566-34.1.21-1.542,4.9-37.937-17.41-51.72-10.5-6.486-23.872-8.444-36.7-5.368-11.508,2.761-21.155,9.35-26.461,18.075-9.639,15.85-6.75,36.205-4.838,49.677.409,2.868.794,5.578,1.007,7.874.857,9.183-2.325,27.492-4.65,40.861-1.031,5.925-1.918,11.042-2.188,13.837-.868,9.015,1.041,13.223,1.857,15.018a.818.818,0,1,1-1.49.676c-.87-1.915-2.907-6.4-2-15.85.275-2.859,1.17-8,2.206-13.962,2.309-13.279,5.471-31.463,4.634-40.429-.211-2.256-.593-4.949-1-7.8-1.945-13.7-4.884-34.406,5.059-50.757,5.531-9.095,15.546-15.955,27.478-18.817,13.241-3.177,27.073-1.148,37.941,5.569,22.811,14.094,18.714,49.359,18.169,53.333-.786,5.779-.613,22.352,2.522,33.43,1.917,6.771,7.74,13.857,13.373,20.708,6.2,7.542,12.055,14.665,13.13,21.478,2.119,13.416-2.66,19.967-7.059,24.176A.822.822,0,0,1,419.717,217.332Z" transform="translate(-303.598 -56.942)"/></g><g transform="translate(61.415 133.4)"><path d="M181.073,165.054a.818.818,0,0,1-.761-.521c-4.354-11.08-13.864-32.862-15.141-35.782a19.863,19.863,0,0,0-6.238-.839c.562,3.1,2.513,13.955,3.652,21.334a.819.819,0,0,1-1.618.249c-1.331-8.621-3.773-22.01-3.8-22.144a.818.818,0,0,1,.645-.949,19.5,19.5,0,0,1,8.256.931.814.814,0,0,1,.457.436c.107.242,10.65,24.306,15.307,36.167a.816.816,0,0,1-.463,1.06A.789.789,0,0,1,181.073,165.054Z" transform="translate(-157.155 -126.261)"/></g><g transform="translate(69.219 123.991)"><path d="M162.29,133.122c-.025,0-.052,0-.08,0a.821.821,0,0,1-.736-.895l1.025-10.429a.819.819,0,0,1,1.629.161L163.1,132.383A.818.818,0,0,1,162.29,133.122Z" transform="translate(-161.471 -121.057)"/></g><g transform="translate(58.027 124.149)"><path d="M159.488,132.157a.817.817,0,0,1-.77-.541l-3.388-9.377a.818.818,0,0,1,1.539-.555l3.388,9.377a.816.816,0,0,1-.492,1.047A.776.776,0,0,1,159.488,132.157Z" transform="translate(-155.281 -121.144)"/></g><g transform="translate(395.085 373.695)"><path d="M346.244,267.93a3.364,3.364,0,0,1-1.978-.644c-1.624-1.154-2.584-3.773-2.568-7.01a.819.819,0,0,1,.819-.815h0a.818.818,0,0,1,.815.821c-.013,2.625.725,4.851,1.879,5.67a1.844,1.844,0,0,0,1.8.2c1.483-.526.949-3.631.693-5.122-.074-.438-.13-.786-.141-1a.817.817,0,0,1,.776-.859.784.784,0,0,1,.857.776c.011.174.061.456.123.81.331,1.933,1.022,5.956-1.761,6.943A3.911,3.911,0,0,1,346.244,267.93Z" transform="translate(-341.698 -259.161)"/></g><g transform="translate(406.572 347.993)"><path d="M352.269,274.338a3.575,3.575,0,0,1-2.488-1.126,6.508,6.508,0,0,1-1.689-5.3.807.807,0,0,1,.9-.727.817.817,0,0,1,.727.9,4.891,4.891,0,0,0,1.211,3.965,1.915,1.915,0,0,0,1.484.649c1.571-.186,1.976-1.463,2.28-2.868l.071-.311c1.484-6.274,4.068-10.225,6.569-14.043a39.625,39.625,0,0,0,5.2-9.961.819.819,0,0,1,1.559.5,41.69,41.69,0,0,1-5.386,10.353c-2.423,3.7-4.929,7.527-6.348,13.524l-.061.28c-.248,1.141-.826,3.81-3.688,4.146A3.041,3.041,0,0,1,352.269,274.338Z" transform="translate(-348.051 -244.946)"/></g></g></g></g></g></svg>