<svg xmlns="http://www.w3.org/2000/svg" xmlns:xlink="http://www.w3.org/1999/xlink" width="960" height="470" viewBox="0 0 960 470"><defs><clipPath id="b"><rect width="960" height="470"/></clipPath></defs><g id="a" clip-path="url(#b)"><rect width="960" height="470" fill="#fff"/><g transform="translate(51.598 -14.803)"><g transform="translate(37.068 30.211)"><g transform="translate(607.688 32.529)"><circle cx="28.362" cy="28.362" r="28.362" fill="#dedede"/></g><g transform="translate(440.808 339.087)"><circle cx="25.788" cy="25.788" r="25.788" fill="#dedede"/></g><g transform="translate(202.634 383.968)"><circle cx="25.788" cy="25.788" r="25.788" fill="#dedede"/></g><g transform="translate(390.772 49.376)"><circle cx="14.444" cy="14.444" r="14.444" fill="#dedede"/></g><g transform="translate(279.658 1.53)"><circle cx="14.019" cy="14.019" r="14.019" fill="#dedede"/></g><g transform="translate(65.16 172.454)"><circle cx="23.569" cy="23.569" r="23.569" fill="#dedede"/></g><g transform="translate(629.501 375.872)"><circle cx="14.019" cy="14.019" r="14.019" fill="#dedede"/></g><g transform="translate(674.963 259.678)"><circle cx="29.448" cy="29.448" r="29.448" fill="#dedede"/></g><g transform="translate(123.991 185.625)"><circle cx="42.333" cy="42.333" r="42.333" fill="#dedede"/></g><g transform="translate(523.327 385.49)"><g transform="translate(0)"><path d="M325.12,248.13a6.879,6.879,0,0,1,12.558-2.675c3.146,4.827,13.085,12.581,20.7,14.967a6.88,6.88,0,0,1-4.113,13.132c-10.013-3.139-22.891-12.565-28.119-20.587A6.848,6.848,0,0,1,325.12,248.13Z" transform="translate(-325.033 -242.331)" fill="#dedede"/></g></g><g transform="translate(215.193 32.279)"><path d="M197.326,65.187a6.879,6.879,0,0,1-11.469,5.772c-4.267-3.873-15.845-8.856-23.823-9.234a6.88,6.88,0,0,1,.652-13.744c10.48.5,25.326,6.353,32.417,12.789A6.847,6.847,0,0,1,197.326,65.187Z" transform="translate(-155.48 -47.973)" fill="#dedede"/></g><g transform="translate(24.369 353.994)"><path d="M71.327,225.006a7.462,7.462,0,0,1,5.526,12.781c-4.462,4.378-10.582,16.6-11.495,25.215a7.461,7.461,0,1,1-14.84-1.568c1.2-11.318,8.471-27.024,15.883-34.3A7.429,7.429,0,0,1,71.327,225.006Z" transform="translate(-50.477 -225)" fill="#dedede"/></g><g transform="translate(541.594 302.277)"><path d="M368.666,263.7a33.581,33.581,0,1,1,33.582-33.581A33.618,33.618,0,0,1,368.666,263.7Zm0-61.429a27.849,27.849,0,1,0,27.849,27.849A27.881,27.881,0,0,0,368.666,202.276Z" transform="translate(-335.085 -196.542)" fill="#dedede"/></g><g transform="translate(723.59 170.425)"><path d="M457.806,218.665a33.581,33.581,0,1,1,33.582-33.581A33.618,33.618,0,0,1,457.806,218.665Zm0-61.429a27.849,27.849,0,1,0,27.849,27.849A27.881,27.881,0,0,0,457.806,157.236Z" transform="translate(-424.225 -151.502)" fill="#dedede"/></g><g transform="translate(62.587 369.015)"><path d="M91.734,273.717a20.226,20.226,0,1,1,20.225-20.227A20.25,20.25,0,0,1,91.734,273.717Zm0-37a16.773,16.773,0,1,0,16.772,16.772A16.792,16.792,0,0,0,91.734,236.718Z" transform="translate(-71.507 -233.265)" fill="#dedede"/></g><g transform="translate(178.821 75.206)"><path d="M164.122,128.907a28.656,28.656,0,1,1,28.656-28.657A28.69,28.69,0,0,1,164.122,128.907Zm0-52.421a23.764,23.764,0,1,0,23.763,23.763A23.791,23.791,0,0,0,164.122,76.486Z" transform="translate(-135.466 -71.594)" fill="#dedede"/></g><g transform="translate(29.219 129.174)"><path d="M72.853,140.7A19.707,19.707,0,1,1,92.56,121,19.729,19.729,0,0,1,72.853,140.7Zm0-36.05A16.343,16.343,0,1,0,89.2,121,16.362,16.362,0,0,0,72.853,104.654Z" transform="translate(-53.146 -101.29)" fill="#dedede"/></g><g transform="translate(127.824 316.4)"><path d="M136.06,261.624a28.656,28.656,0,1,1,28.656-28.656A28.689,28.689,0,0,1,136.06,261.624Zm0-52.421a23.764,23.764,0,1,0,23.765,23.765A23.791,23.791,0,0,0,136.06,209.2Z" transform="translate(-107.404 -204.313)" fill="#dedede"/></g><g transform="translate(314.984 18.384)"><path d="M215.562,75.483a7.932,7.932,0,0,1-3.667-12.08c10.53-14.573,22.186-19.778,31.165-22.686a7.93,7.93,0,1,1,4.887,15.089c-7.455,2.413-15.424,6.13-23.2,16.885A7.949,7.949,0,0,1,215.562,75.483ZM247.03,44.129a4.36,4.36,0,0,0-2.884-.058c-8.469,2.742-19.464,7.653-29.4,21.4a4.405,4.405,0,1,0,7.142,5.159c8.365-11.575,16.943-15.576,24.968-18.173a4.406,4.406,0,0,0,.645-8.116A4.246,4.246,0,0,0,247.03,44.129Z" transform="translate(-210.391 -40.327)" fill="#dedede"/></g><g transform="translate(451.485)"><path d="M289.666,68.348a15.368,15.368,0,0,1,4.069-24.118c30.842-16.183,55.552-15.151,73.634-12.443a15.364,15.364,0,1,1-4.549,30.389c-15.013-2.248-32.045-2.682-54.807,9.263A15.4,15.4,0,0,1,289.666,68.348ZM371.313,41.13a8.487,8.487,0,0,0-4.954-2.592C349.3,35.985,326,35.012,296.908,50.276A8.534,8.534,0,0,0,293.317,61.8a8.521,8.521,0,0,0,11.524,3.591c24.5-12.856,42.831-12.391,58.99-9.97a8.536,8.536,0,0,0,8.127-13.517A8.917,8.917,0,0,0,371.313,41.13Z" transform="translate(-285.502 -30.211)" fill="#dedede"/></g><g transform="translate(675.588 118.762)"><g transform="translate(0)"><path d="M435.724,170.847a12.822,12.822,0,0,1-2.779,2.034,12.785,12.785,0,0,1-17.332-5.138c-13.821-25.47-13.25-46.038-11.207-61.113a12.782,12.782,0,1,1,25.333,3.431c-1.7,12.516-1.857,26.689,8.343,45.488A12.814,12.814,0,0,1,435.724,170.847Zm-23.589-67.606a7.043,7.043,0,0,0-2.1,4.151c-1.926,14.219-2.466,33.619,10.571,57.642a7.1,7.1,0,1,0,12.481-6.775c-10.978-20.232-10.8-35.489-8.978-48.961a7.1,7.1,0,0,0-11.34-6.6A7.33,7.33,0,0,0,412.135,103.241Z" transform="translate(-403.314 -95.561)" fill="#dedede"/></g></g><g transform="translate(680.155 365.163)"><g transform="translate(0)"><path d="M489.037,254.534A12.876,12.876,0,0,1,477.4,271.4c-29.148,1.35-47.541-8.193-60.306-16.658a12.872,12.872,0,0,1,14.226-21.457c10.6,7.029,23.374,13.4,44.888,12.4A12.9,12.9,0,0,1,489.037,254.534Zm-71.624-8.283a7.1,7.1,0,0,0,2.84,3.724c12.042,7.985,29.388,16.986,56.88,15.711a7.152,7.152,0,0,0,6.813-7.475,7.145,7.145,0,0,0-7.475-6.811c-23.156,1.074-36.906-5.779-48.315-13.345a7.151,7.151,0,0,0-10.744,8.2Z" transform="translate(-411.33 -231.145)" fill="#dedede"/></g></g><g transform="translate(43.443 279.677)"><path d="M103.131,213.207c4.62-2.052,10.993-.476,16.412-3.586,5.921-3.4,11.177-9.708,7.073-18.331-2.822-5.928-9.412-7.638-13.735-7.086-7.546.967-11.844,7.3-16.154,8.349-6.417,1.557-17.2-1.828-25.971,2.339-7.869,3.74-12.356,15.436-8.2,24.083,3.558,7.413,16.252,10.27,23.454,7.091S98.339,215.337,103.131,213.207Z" transform="translate(-60.973 -184.106)" fill="#dedede"/></g><g transform="translate(71.325 92.29)"><path d="M78.325,85.441a10.607,10.607,0,0,1,8.236-4.4c32-1.132,62.116,17.023,77.222,27.945a10.622,10.622,0,1,1-12.447,17.216c-12.9-9.327-38.367-24.837-64.023-23.931a10.623,10.623,0,0,1-8.988-16.834Z" transform="translate(-76.315 -80.994)" fill="#dedede"/></g><g transform="translate(-30 199.605)"><path d="M37.4,185.728a9.272,9.272,0,0,1,1.516-8.023c16.761-22.431,45.64-33.014,61.362-37.326a9.289,9.289,0,1,1,4.914,17.917c-13.425,3.682-37.955,12.545-51.394,30.531a9.289,9.289,0,0,1-16.4-3.1Z" transform="translate(-37.068 -140.046)" fill="#dedede"/></g><g transform="translate(614.998 219.786)"><g transform="translate(0)"><path d="M420.364,153.934a7.771,7.771,0,0,1,1.648,6.648c-4.939,22.96-23.258,41.122-33.739,49.9a7.792,7.792,0,1,1-10.01-11.943c8.95-7.5,24.554-22.829,28.516-41.239a7.791,7.791,0,0,1,13.585-3.369Z" transform="translate(-375.476 -151.15)" fill="#dedede"/></g></g><g transform="translate(739.328 306.456)"><path d="M433.886,249.48a7.779,7.779,0,0,1-.391-6.837c9.1-21.652,30.466-36.112,42.389-42.8a7.791,7.791,0,1,1,7.627,13.588c-10.182,5.715-28.354,17.893-35.65,35.252a7.792,7.792,0,0,1-13.975.8Z" transform="translate(-432.885 -198.841)" fill="#dedede"/></g></g><g transform="translate(252.806 93.707)"><g transform="translate(75.266 21.181)"><path d="M207.746,76.96a11.623,11.623,0,0,1,.774,2.393,47.631,47.631,0,0,0-11.175,16.461c-.294-4.838-.294-9.832,1.309-13.052C201.186,77.63,205.162,76.305,207.746,76.96Z" transform="translate(-197.195 -76.805)" fill="#fff"/></g><g transform="translate(16.575 281.009)"><path d="M227.529,219.778c1.05,22.764.878,45.666,1.119,56.755-1.894,10.281-4.133,21.146-6.733,32.717H164.9V307.03c1.1-11.073,12.174-39.105,16.445-54.465a57.416,57.416,0,0,0,26.537-13.243C211.652,235.894,219.263,228.249,227.529,219.778Z" transform="translate(-164.9 -219.778)" fill="#fff"/></g><g transform="translate(73.589 316.516)"><path d="M263.808,263.837c.087,13.087-.189,19.389-.809,29.444H196.273c2.6-11.571,4.84-22.437,6.733-32.717q1.963-10.46,3.478-20.129c13.414,2.564,40.466,3.46,54.138-.225h.018c1.016-.274,1.946-.567,2.806-.894C263.654,249.8,263.774,257.6,263.808,263.837Z" transform="translate(-196.273 -239.316)" fill="#fff"/></g><g transform="translate(83.801 308.147)"><path d="M256.03,243.974c-13.672,3.686-40.724,2.79-54.138.225.516-3.22,1-6.39,1.447-9.488l.516.069S248.677,242.2,256.03,243.974Z" transform="translate(-201.892 -234.711)" fill="#fff"/></g><g transform="translate(85.248 291.995)"><path d="M257.895,235.208c.12,5.6.224,10.624.309,15.136-.86.327-1.79.62-2.806.894h-.018c-7.353-1.774-52.175-9.194-52.175-9.194l-.516-.069c.827-5.563,1.55-10.953,2.2-16.152C204.892,225.823,250.611,233.469,257.895,235.208Z" transform="translate(-202.688 -225.823)" fill="#818181"/></g><g transform="translate(79.203 269.936)"><path d="M199.362,224.758c3.531-3.635,7.18-7.422,10.693-11.073-.258,2.6-.516,5.268-.809,7.954-.5,4.563-1.034,9.265-1.636,14.1-.654,5.2-1.378,10.59-2.2,16.152-.447,3.1-.93,6.268-1.447,9.488q-1.524,9.685-3.478,20.129C200.24,270.424,200.412,247.522,199.362,224.758Z" transform="translate(-199.362 -213.685)" fill="#fff"/></g><g transform="translate(87.452 277.891)"><path d="M256.765,234.818c.051,2.343.085,4.58.138,6.733-7.284-1.739-53-9.385-53-9.385.6-4.839,1.136-9.541,1.636-14.1,0,0,43.721,7.078,51.005,8.834C256.645,229.635,256.714,232.286,256.765,234.818Z" transform="translate(-203.901 -218.062)" fill="#fff"/></g><g transform="translate(89.088 264.719)"><path d="M255.2,218.459c.242,4.994.449,9.8.6,14.361-7.284-1.756-51.005-8.834-51.005-8.834.293-2.686.551-5.354.809-7.954,1.7-1.774,3.375-3.531,4.978-5.218C210.587,210.814,247.626,216.944,255.2,218.459Z" transform="translate(-204.801 -210.814)" fill="#818181"/></g><g transform="translate(94.874 252.079)"><path d="M251.826,209.834c.293,4.89.567,9.677.774,14.31-7.576-1.516-44.615-7.645-44.615-7.645,4.7-4.925,8.9-9.385,11.9-12.639C219.883,203.859,243.508,207.957,251.826,209.834Z" transform="translate(-207.985 -203.859)" fill="#fff"/></g><g transform="translate(125.887 129.061)"><path d="M245.524,176.513l-15.309-2.773c-.378-3.409-.758-6.611-1.1-9.59-1.4-11.5-2.651-19.527-3.513-21.939a41.817,41.817,0,0,1-.551-6.044,35.589,35.589,0,0,0,6.026,6.044S238.5,159.93,245.524,176.513Z" transform="translate(-225.05 -136.167)" fill="#fff"/></g><g transform="translate(131.913 135.105)"><path d="M277.632,180.1l-34.818-6.3c-7.026-16.583-14.448-34.3-14.448-34.3a111.841,111.841,0,0,0,10.023,7.06c6.181,3.96,22.833,11.278,28.79,17.15C271.122,167.6,274.566,173.3,277.632,180.1Z" transform="translate(-228.366 -139.493)" fill="#fff"/></g><g transform="translate(168.316 199.231)"><path d="M277.463,206.084c5.768,24.676,15.549,92.711,15.155,137.724v2.221H262.327v-2.221c.122-51.263-8.816-123.518-13.93-154.185l21.163-14.844C272.522,185.025,275.088,195.891,277.463,206.084Z" transform="translate(-248.397 -174.779)" fill="#fff"/></g><g transform="translate(140.316 214.075)"><path d="M274.919,337.132v2.221H232.99c.62-10.055.9-16.358.809-29.444,2.084-20.061,11.745-83.206,15.756-118.955l11.435-8.007C266.1,213.614,275.041,285.869,274.919,337.132Z" transform="translate(-232.99 -182.947)" fill="#fff"/></g><g transform="translate(137.25 222.082)"><path d="M231.3,201.112l19.631-13.759c-4.011,35.749-13.672,98.893-15.756,118.955-.035-6.235-.154-14.035-.362-24.521-.085-4.512-.189-9.541-.309-15.136-.053-2.154-.087-4.391-.138-6.733-.051-2.531-.12-5.183-.224-7.922-.154-4.563-.362-9.367-.6-14.361-.207-4.632-.482-9.419-.774-14.31-.293-4.874-.6-9.85-.947-14.878Q231.562,204.8,231.3,201.112Z" transform="translate(-231.303 -187.353)" fill="#fff"/></g><g transform="translate(303.508 71.392)"><path d="M428.431,104.434a113.91,113.91,0,0,1-59.3,146.454L322.788,146.881Z" transform="translate(-322.788 -104.434)" fill="#fff"/></g><g transform="translate(303.508 0.327)"><path d="M428.431,136.395,322.788,178.842,331.449,65.33A113.869,113.869,0,0,1,428.431,136.395Z" transform="translate(-322.788 -65.33)" fill="#fff"/></g><g transform="translate(257.841 113.839)"><path d="M343.327,127.791,389.665,231.8a114.1,114.1,0,0,1-92.006.293Z" transform="translate(-297.659 -127.791)" fill="#fff"/></g><g transform="translate(210.28)"><path d="M373.378,65.477l-8.661,113.512-93.229-65.331A113.678,113.678,0,0,1,364.717,65.15C367.626,65.15,370.519,65.254,373.378,65.477Z" transform="translate(-271.488 -65.15)" fill="#fff"/></g><g transform="translate(189.667 48.508)"><path d="M373.987,157.173,268.706,200.5h-.018A113.96,113.96,0,0,1,280.758,91.842Z" transform="translate(-260.146 -91.842)" fill="#fff"/></g><g transform="translate(106.238 162.365)"><path d="M322.447,173.864l-24.968,17.5L276.316,206.2l-11.435,8.007-19.631,13.759-8.058,5.648-4.683,3.288q-1.4-2.35-2.635-4.7a127.222,127.222,0,0,1-5.665-11.882,13.765,13.765,0,0,0,.6-1.343c.792-2.066.585-4.254,3.547-8.491,2.944-4.253,11.64-10.848,12.45-11.709,1.2-1.258,1.17-4.356-2.808-3.787a7.409,7.409,0,0,1,.723-.38c1.739-.758,3.875-2.962,2.084-5.872a2.565,2.565,0,0,0-2.1-1.136c.894-.276,2.1-3.411-.672-4.616a7.671,7.671,0,0,0-3.237-.327c.947-.5,3.375-4.563-3.6-4.736-5.218-.136-11.091,2.17-16.29,5.786-.414-3.994-.6-7.68-.654-10.986a107.263,107.263,0,0,1,.62-13.932c.327-2.771.638-4.3.638-4.3l23.538,4.269,15.309,2.773,34.818,6.3Z" transform="translate(-214.238 -154.493)" fill="#fff"/></g><g transform="translate(71.957 11.638)"><path d="M195.75,124.9a54.727,54.727,0,0,1,.276-14.844,44.9,44.9,0,0,1,2.808-9.953,47.631,47.631,0,0,1,11.175-16.461A42.207,42.207,0,0,1,237.819,71.59c19.974-.638,35.9,7.146,43.823,21.181,7.938,14.017,4.582,31.545,0,43.358h-.016c.069-4.476-.053-9.212-.362-14.171-2.066-6.077-10.228-14.1-14.241-17.012a32.23,32.23,0,0,1-6.922-7.337c0,2.773-.276,4.84-4.289,9.265s-29.066,17.443-33.768,27.672c-4.7,10.246,2.773,18.546,2.773,18.546-6.717-2.377-8.507-8.472-8.61-14.1h-.016c-2.584-1.428-10.8-3.1-13.846,3.6a11.125,11.125,0,0,0-.843,2.7A66.426,66.426,0,0,1,195.75,124.9Z" transform="translate(-195.375 -71.554)"/></g><g transform="translate(77.939 37.693)"><path d="M246.75,169.079s-.274,3.909-.136,8.18a41.816,41.816,0,0,0,.551,6.044s-14.275,9.177-31.494-1.7c-.225-3.856-.431-7.438-.6-10.47-.258-4.649-.4-7.989-.362-9.092l-.276-13.466c-3.787,1.843-7.869.276-10.9-2.771-2.428-2.446-5.579-7.078-4.718-12.227a11.126,11.126,0,0,1,.843-2.7c3.049-6.7,11.262-5.029,13.846-3.6h.016c.1,5.632,1.894,11.727,8.61,14.1,0,0-7.475-8.3-2.773-18.546,4.7-10.23,29.757-23.247,33.768-27.672s4.289-6.491,4.289-9.265a32.23,32.23,0,0,0,6.922,7.337c4.013,2.91,12.174,10.935,14.241,17.012.309,4.959.431,9.7.362,14.171-.345,23.643-6.1,40.072-20.009,43.928A29.992,29.992,0,0,1,246.75,169.079Z" transform="translate(-198.666 -85.891)" fill="#fff"/></g><g transform="translate(106.772 237.804)"><path d="M245.528,201.376c.343,5.029.654,10,.947,14.878-8.318-1.877-31.943-5.975-31.943-5.975,2.513-2.721,4.2-4.614,4.632-5.217,0,0,.6-3.564-3.393-7.095.6-.654,1.189-1.308,1.739-1.963,0,0,5.648,1.05,12.123,2.273q1.24,2.35,2.635,4.7l4.683-3.288C240.311,200.326,243.393,200.945,245.528,201.376Z" transform="translate(-214.532 -196.004)" fill="#818181"/></g><g transform="translate(129.192 235.841)"><path d="M234.927,194.924q.259,3.694.518,7.335c-2.135-.431-5.218-1.05-8.576-1.686Z" transform="translate(-226.869 -194.924)" fill="#fff"/></g><g transform="translate(85.487 185.794)"><path d="M244.132,172.127a7.671,7.671,0,0,1,3.237.327c2.773,1.2,1.567,4.34.672,4.616a2.565,2.565,0,0,1,2.1,1.136c1.79,2.91-.345,5.114-2.084,5.872a7.4,7.4,0,0,0-.723.38c3.978-.569,4.013,2.53,2.808,3.787-.811.861-9.506,7.456-12.45,11.709-2.962,4.236-2.755,6.424-3.547,8.491a13.772,13.772,0,0,1-.6,1.343,46.485,46.485,0,0,1-6.459,9.608c-.551.654-1.136,1.308-1.739,1.963a62.813,62.813,0,0,1-5.183,4.994c-14.619-5.837-18.493-21.2-17.065-25.761a83.926,83.926,0,0,1,9.437-15.533,64.135,64.135,0,0,1,6.611-7.715q.594-.567,1.239-1.136a41.071,41.071,0,0,1,3.858-3.031c5.2-3.616,11.073-5.923,16.29-5.786C247.506,167.563,245.078,171.627,244.132,172.127Z" transform="translate(-202.82 -167.385)" fill="#fff"/></g><g transform="translate(95.855 149.915)"><path d="M243.721,164.361l-23.538-4.269s-.311,1.532-.638,4.3c-3.667-.894-10.35-1.963-10.35-1.963-.154-4.494-.4-9.592-.671-14.791,0,0,26.811,5.372,34.095,7.129C242.963,157.75,243.343,160.952,243.721,164.361Z" transform="translate(-208.525 -147.642)" fill="#818181"/></g><g transform="translate(94.943 133.401)"><path d="M239.517,140.26c.861,2.412,2.117,10.435,3.513,21.939-7.284-1.757-34.095-7.129-34.095-7.129-.293-5.614-.62-11.313-.912-16.514C225.242,149.437,239.517,140.26,239.517,140.26Z" transform="translate(-208.023 -138.555)" fill="#fff"/></g><g transform="translate(109.751 228.196)"><path d="M222.63,190.717a127.222,127.222,0,0,0,5.665,11.882c-6.475-1.223-12.123-2.273-12.123-2.273A46.485,46.485,0,0,0,222.63,190.717Z" transform="translate(-216.171 -190.717)" fill="#fff"/></g><g transform="translate(102.828 239.767)"><path d="M217.545,197.084c4,3.531,3.393,7.095,3.393,7.095a31.534,31.534,0,0,1-8.576-2.1A62.816,62.816,0,0,0,217.545,197.084Z" transform="translate(-212.362 -197.084)" fill="#fff"/></g><g transform="translate(0 131.18)"><path d="M228.7,236.673a116.832,116.832,0,0,0,12.845-11.52c-1.428,4.563,2.446,19.923,17.065,25.761a31.533,31.533,0,0,0,8.576,2.1c-.431.6-2.119,2.5-4.632,5.217-3,3.255-7.2,7.715-11.9,12.639-1.6,1.686-3.273,3.444-4.978,5.218-3.513,3.651-7.162,7.438-10.693,11.073-8.265,8.471-15.876,16.116-19.647,19.544A57.416,57.416,0,0,1,188.8,319.949c-6.957,1.274-14,.774-19.958-2.722-14.757-8.678-16.479-31.082-7.834-73.149,8.576-41.791,28.774-65.315,39.3-74.458,11.451-9.97,30.805-20.716,39.708-29.462,1.067-1.05,2-1.981,2.806-2.824l.018.016c-1.67,12.174-11.674,37.2-13.466,44.168-1.67,6.51-3.7,14.671-3.513,18.46.154,3.324,7.387,9.368,9.868,11.847,0,0-8.2,12.036-9.488,15.464C225.064,230.387,227.526,232.884,228.7,236.673Z" transform="translate(-155.78 -137.333)" fill="#fff"/></g><g transform="translate(95.803 179.119)"><path d="M218.949,165.193c.051,3.306.24,6.991.654,10.986a41.063,41.063,0,0,0-3.858,3.031l-.24-.293c-3.169-.6-7.009-1.239-7.009-1.239.224-4.34.465-9.11.792-13.966,0,0,5.2.672,9.643,1.481Z" transform="translate(-208.496 -163.712)" fill="#818181"/></g><g transform="translate(96.526 164.706)"><path d="M219.244,157.744a107.265,107.265,0,0,0-.62,13.932h-.018c-4.442-.809-9.643-1.481-9.643-1.481l.053-.878c.171-2.651.1-7.56-.122-13.535C208.894,155.781,215.576,156.85,219.244,157.744Z" transform="translate(-208.894 -155.781)" fill="#fff"/></g><g transform="translate(95.201 193.085)"><path d="M215.776,172.636l.24.293q-.643.567-1.239,1.136a64.135,64.135,0,0,0-6.611,7.715c.205-2.979.4-6.526.6-10.382C208.767,171.4,212.607,172.033,215.776,172.636Z" transform="translate(-208.165 -171.397)" fill="#fff"/></g><g transform="translate(70.064 122.931)"><path d="M219.212,143.264c.293,5.2.62,10.9.912,16.514.274,5.2.516,10.3.671,14.791.224,5.975.293,10.884.122,13.535l-.053.878c-.327,4.856-.569,9.626-.792,13.966-.205,3.856-.4,7.4-.6,10.382a83.926,83.926,0,0,0-9.437,15.533,116.834,116.834,0,0,1-12.845,11.52c-1.172-3.789-3.635-6.286-2.462-9.385,1.29-3.427,9.488-15.464,9.488-15.464-2.481-2.479-9.714-8.523-9.868-11.847-.189-3.789,1.843-11.951,3.513-18.46,1.792-6.973,11.8-31.994,13.466-44.168l-.018-.016c3.082-3.151,4.789-5.2,7.3-8.249C218.781,135.825,218.987,139.407,219.212,143.264Z" transform="translate(-194.333 -132.794)" fill="#fff"/></g><g transform="translate(12.684 9.553)"><path d="M181.218,174.692c-11.674.018-16.341-6.491-18.459-8.8a9.949,9.949,0,0,0,1.963.173c4.667,0,9.8-3.34,13.913-9.041l.018-.016a43.551,43.551,0,0,0,7.369-18.649c2.582-16.427.878-50.109,18.993-62.956,16.274-11.555,27.725-.413,30.876,6.786-2.584-.654-6.561.671-9.092,5.8-1.6,3.22-1.6,8.214-1.308,13.052A44.9,44.9,0,0,0,222.683,111a54.727,54.727,0,0,0-.276,14.844c.225,15.342-6.8,36.161-15.634,45.718C197.7,181.407,185.2,177.12,181.218,174.692Z" transform="translate(-162.759 -70.407)"/></g><g transform="translate(5.642 94.295)"><path d="M181.8,118.912c-4.114,5.7-9.247,9.041-13.913,9.041a9.95,9.95,0,0,1-1.963-.173c-6.682-1.2-6.922-8.592-7.042-10.744,1.806,2.41,4.064,4.787,7.954,5.372C171.9,123.167,178.1,122.444,181.8,118.912Z" transform="translate(-158.884 -117.037)"/></g></g><g transform="translate(82.423 92.845)"><g transform="translate(359.189)"><path d="M374.374,294.077a113.911,113.911,0,0,1-46.015-9.612.861.861,0,0,1,.692-1.577A113.01,113.01,0,0,0,479.217,137.251,113.607,113.607,0,0,0,382.97,66.722c-2.753-.214-5.645-.325-8.6-.325A113.032,113.032,0,0,0,269.833,222.282a.859.859,0,0,1-.741,1.281.883.883,0,0,1-.812-.532,114.726,114.726,0,0,1,106.1-158.354c3,0,5.932.111,8.727.329a115.341,115.341,0,0,1,97.714,71.6A114.662,114.662,0,0,1,374.374,294.077Z" transform="translate(-259.672 -64.676)"/><g transform="translate(113.842 0.325)"><path d="M323.178,180.092l-.067,0a.864.864,0,0,1-.794-.925l8.658-113.514a.889.889,0,0,1,.923-.794.863.863,0,0,1,.794.925L324.036,179.3A.863.863,0,0,1,323.178,180.092Z" transform="translate(-322.315 -64.855)"/></g><g transform="translate(113.842 71.388)"><path d="M323.177,148.132a.861.861,0,0,1-.322-1.659L428.514,104.02a.861.861,0,0,1,.643,1.6L323.5,148.07A.878.878,0,0,1,323.177,148.132Z" transform="translate(-322.315 -103.958)"/></g><g transform="translate(113.842 113.839)"><path d="M369.508,233.051a.86.86,0,0,1-.787-.511L322.39,128.529a.862.862,0,0,1,1.574-.7L370.294,231.84a.861.861,0,0,1-.436,1.138A.879.879,0,0,1,369.508,233.051Z" transform="translate(-322.315 -127.317)"/></g><g transform="translate(68.172 113.839)"><path d="M298.045,233.345a.861.861,0,0,1-.789-1.2l45.671-104.307a.861.861,0,0,1,1.577.691L298.834,232.829A.859.859,0,0,1,298.045,233.345Z" transform="translate(-297.184 -127.317)"/></g><g transform="translate(8.538 113.841)"><path d="M265.231,172.364a.86.86,0,0,1-.327-1.656l105.3-43.327a.861.861,0,0,1,.656,1.592L265.558,172.3A.834.834,0,0,1,265.231,172.364Z" transform="translate(-264.37 -127.318)"/></g><g transform="translate(20.604 48.515)"><path d="M365.11,158.419a.868.868,0,0,1-.494-.154l-93.24-65.327a.861.861,0,0,1,.989-1.41l93.24,65.326a.861.861,0,0,1-.494,1.567Z" transform="translate(-271.01 -91.372)"/></g></g><g transform="translate(169.493 9.563)"><g transform="translate(92.817 28.13)"><path d="M215.834,142.626a.875.875,0,0,1-.287-.049c-5.817-2.057-11.907-8.165-7.887-25.572l.136-.6a.861.861,0,1,1,1.685.354l-.144.634c-3.028,13.112-.075,19.253,3.9,22.079a17.956,17.956,0,0,1-.952-16.607c3.24-7.055,15.585-15.218,24.6-21.179,4.318-2.855,8.045-5.321,9.308-6.715,3.793-4.185,4.067-6.075,4.067-8.692a.861.861,0,0,1,1.581-.472,31.4,31.4,0,0,0,6.7,7.109c3.864,2.8,12.383,11.049,14.562,17.439a.861.861,0,0,1-1.63.554c-2.055-6.026-10.228-13.91-13.943-16.6a30.439,30.439,0,0,1-5.71-5.623c-.333,2.012-1.347,4.12-4.354,7.44-1.408,1.554-5.039,3.956-9.635,6.995-8.841,5.846-20.948,13.853-23.985,20.463-4.4,9.585,2.337,17.283,2.628,17.606a.862.862,0,0,1-.642,1.436Z" transform="translate(-206.364 -85.417)"/></g><g transform="translate(105.532 52.485)"><path d="M239.008,159.7c-12.053,0-22.509-6.766-25.459-10.451a.861.861,0,0,1,1.345-1.076c3.277,4.1,17.548,12.729,31.792,8.778,14.684-4.073,21.085-23.324,19.027-57.218a.86.86,0,0,1,1.717-.1c2.115,34.816-4.71,54.66-20.283,58.981A30.4,30.4,0,0,1,239.008,159.7Z" transform="translate(-213.36 -98.818)"/></g><g transform="translate(72.005 2.077)"><path d="M201.9,146.549a.861.861,0,0,1-.767-.469c-.085-.169-8.6-17.1-5.572-35.769,3.513-21.67,21.832-38.52,42.611-39.191,20.194-.669,36.465,7.222,44.6,21.608,9.183,16.227,3.1,36.239.055,44.092a.862.862,0,0,1-1.606-.623c2.955-7.622,8.872-27.036.054-42.622-7.813-13.808-23.511-21.366-43.051-20.734-19.971.645-37.58,16.872-40.966,37.746-2.935,18.1,5.323,34.546,5.407,34.709a.862.862,0,0,1-.767,1.252Z" transform="translate(-194.912 -71.081)"/></g><g transform="translate(5.672)"><path d="M168.266,167.315c-6.1,0-9.406-3.889-9.843-11.564l-.011-.178a.861.861,0,0,1,1.719-.1l.011.18c.242,4.267,1.348,9.941,8.123,9.941,7.8,0,17.837-10.321,20.459-26.993.538-3.422.9-7.7,1.276-12.225,1.447-17.265,3.429-40.91,18.064-51.3C217.2,68.6,224.5,69.418,229,71.244c7.122,2.891,11.338,9.674,12.056,13.565a.861.861,0,0,1-1.694.313c-.629-3.406-4.563-9.665-11.011-12.281-5.89-2.392-12.561-1.13-19.291,3.646-13.982,9.923-15.927,33.106-17.346,50.035-.382,4.56-.743,8.867-1.29,12.349C187.662,156.439,176.771,167.315,168.266,167.315Z" transform="translate(-158.411 -69.938)"/></g><g transform="translate(12.711 82.053)"><path d="M181.576,139.034c-11.067,0-16.04-5.646-18.489-8.429-.211-.238-.4-.454-.574-.642a.861.861,0,1,1,1.267-1.167c.18.2.38.422.6.671,2.393,2.717,7.362,8.372,18.806,7.8,9.983-.5,20.225-14.437,21.757-21.5a.861.861,0,0,1,1.683.365c-1.67,7.7-12.425,22.315-23.354,22.86Q182.4,139.033,181.576,139.034Z" transform="translate(-162.285 -115.089)"/></g><g transform="translate(31.179 55.245)"><path d="M184.841,154.139a24.567,24.567,0,0,1-11.983-3.177.861.861,0,1,1,.9-1.468c3.86,2.359,15.791,6.422,24.47-2.98,8.621-9.339,15.674-30.084,15.4-45.3a.863.863,0,0,1,.847-.876.878.878,0,0,1,.876.847c.28,15.589-6.982,36.881-15.858,46.5A19.346,19.346,0,0,1,184.841,154.139Z" transform="translate(-172.447 -100.337)"/></g><g transform="translate(5.672 84.724)"><path d="M170.838,123.925a25.463,25.463,0,0,1-3.742-.276c-4.233-.636-6.68-3.246-8.514-5.715a.861.861,0,1,1,1.381-1.027c1.708,2.3,3.784,4.5,7.387,5.039,4.532.68,10.662.174,14.268-3.288a.861.861,0,1,1,1.192,1.241C179.713,122.875,175.061,123.925,170.838,123.925Z" transform="translate(-158.411 -116.559)"/></g><g transform="translate(75.298 11.612)"><path d="M197.733,97.062a.861.861,0,0,1-.86-.809c-.28-4.718-.334-10.008,1.392-13.492,2.681-5.408,6.991-7.035,10.073-6.246a.861.861,0,0,1-.427,1.668c-2.413-.616-5.852.794-8.1,5.343-1.547,3.122-1.483,8.133-1.216,12.623a.859.859,0,0,1-.809.91Z" transform="translate(-196.724 -76.328)"/></g><g transform="translate(77.994 68.215)"><path d="M211.4,132.586a11.6,11.6,0,0,1-8.094-3.813c-3.744-3.769-6.771-9.926-4.049-15.907a8.671,8.671,0,0,1,5.33-4.847,13.552,13.552,0,0,1,9.708.852.861.861,0,1,1-.832,1.507,11.81,11.81,0,0,0-8.336-.723,7.006,7.006,0,0,0-4.3,3.924c-2.97,6.524,2.083,12.351,3.7,13.981,3.113,3.135,6.813,4.1,9.9,2.6a.861.861,0,1,1,.756,1.547A8.566,8.566,0,0,1,211.4,132.586Z" transform="translate(-198.207 -107.474)"/></g><g transform="translate(122.961 89.655)"><path d="M224.187,119.7a10.959,10.959,0,0,0,2.068,2.768,16.437,16.437,0,0,0,2.775,2.235,12.5,12.5,0,0,0,6.6,2.092l.018,0a.861.861,0,0,1-.018,1.721,13.359,13.359,0,0,1-7.527-2.4,16.015,16.015,0,0,1-2.957-2.6,10.288,10.288,0,0,1-2.155-3.395.634.634,0,0,1,1.172-.48Z" transform="translate(-222.951 -119.272)"/></g><g transform="translate(121.657 62.247)"><ellipse cx="2.388" cy="4.935" rx="2.388" ry="4.935"/></g><g transform="translate(146.287 62.247)"><ellipse cx="2.388" cy="4.935" rx="2.388" ry="4.935"/></g><g transform="translate(117.791 52.649)"><path d="M230.438,102.066a3.956,3.956,0,0,0-2.112-1.292,6.388,6.388,0,0,0-2.759-.194,5.415,5.415,0,0,0-2.541,1.023,7.29,7.29,0,0,0-1.808,2.2l-.018.033a.586.586,0,0,1-1.038-.542,8.513,8.513,0,0,1,2-2.757,6.891,6.891,0,0,1,3.142-1.508,7.992,7.992,0,0,1,3.471.16,5.422,5.422,0,0,1,3.126,1.968.861.861,0,1,1-1.385,1.023l-.024-.035Z" transform="translate(-220.106 -98.909)"/></g><g transform="translate(142.029 52.527)"><path d="M233.465,102.851a4.606,4.606,0,0,1,1.908-2.717,6.47,6.47,0,0,1,2.871-1.243,5.218,5.218,0,0,1,3.137.545,6.424,6.424,0,0,1,2.2,2.1.594.594,0,0,1-.916.751l-.038-.04a6.514,6.514,0,0,0-1.9-1.468,3.588,3.588,0,0,0-2.2-.2,4.937,4.937,0,0,0-2.083.958,3.855,3.855,0,0,0-1.281,1.6l-.044.147a.856.856,0,0,1-1.654-.436Z" transform="translate(-233.443 -98.842)"/></g><g transform="translate(137.189 62.034)"><path d="M231.591,127.18a13.371,13.371,0,0,0,3.258-.763,9.2,9.2,0,0,0,1.487-.672,4.292,4.292,0,0,0,.681-.5,3.853,3.853,0,0,0-.54-1.183l-.932-1.527a22.749,22.749,0,0,1-1.7-3.32,31.109,31.109,0,0,1-1.686-7.2,25.632,25.632,0,0,1,0-7.373.678.678,0,0,1,1.345.145l0,.035a39.766,39.766,0,0,0,.42,6.964,29.5,29.5,0,0,0,1.588,6.759,20.732,20.732,0,0,0,1.585,3.06l.945,1.541a4.565,4.565,0,0,1,.8,2.114,1.98,1.98,0,0,1-.691,1.427,4.643,4.643,0,0,1-.9.64,11.073,11.073,0,0,1-1.8.78,15.035,15.035,0,0,1-3.736.8.862.862,0,0,1-.14-1.717Z" transform="translate(-230.78 -104.073)"/></g><g transform="translate(0 113.369)"><path d="M182.43,325.525a26.531,26.531,0,0,1-13.617-3.462c-14.866-8.732-17.256-30.191-8.247-74.067,9.4-45.784,32.665-68.929,39.57-74.932,5.461-4.749,12.7-9.674,19.7-14.439,7.889-5.367,15.338-10.437,19.978-14.989a113.147,113.147,0,0,0,10.032-11,.861.861,0,0,1,1.332,1.09,114.456,114.456,0,0,1-10.159,11.138c-4.749,4.661-12.26,9.772-20.214,15.184-6.96,4.738-14.157,9.635-19.542,14.313-6.8,5.914-29.724,28.726-39.014,73.981-8.716,42.451-6.493,64.055,7.433,72.237,14.275,8.383,35.187-1.041,45.479-10.411s48.226-49.12,51.59-53.378c.042-.725-.045-3.406-3.153-6.137a.861.861,0,0,1,1.136-1.294c4.323,3.8,3.727,7.733,3.7,7.9a.866.866,0,0,1-.151.363c-2.3,3.184-41.46,44.254-51.963,53.822C208.59,318.484,195.029,325.523,182.43,325.525Z" transform="translate(-155.29 -132.321)"/></g><g transform="translate(85.517 209.444)"><path d="M229.127,214.77a.762.762,0,0,1-.091-.005c-12.038-1.279-18.677-7.8-22.126-13.039-3.913-5.943-5.234-12.769-4.253-15.933a.861.861,0,0,1,1.645.512c-.707,2.281.087,8.46,4.045,14.475,3.246,4.93,9.5,11.064,20.868,12.272a.861.861,0,0,1-.089,1.717Z" transform="translate(-202.347 -185.187)"/></g><g transform="translate(11.622 209.446)"><path d="M162.546,254.619a.86.86,0,0,1-.729-1.318c5.49-8.767,21.017-25.01,32.577-34.077,4.838-3.8,9.575-7.4,14.157-10.891,11.745-8.945,21.89-16.668,27.527-22.866a.861.861,0,1,1,1.272,1.159c-5.741,6.312-15.943,14.081-27.756,23.076-4.578,3.484-9.308,7.089-14.139,10.877-11.435,8.969-26.773,25-32.179,33.635A.862.862,0,0,1,162.546,254.619Z" transform="translate(-161.686 -185.188)"/></g><g transform="translate(93.722 90.813)"><path d="M208,135.095a.862.862,0,0,1-.861-.843l-.278-13.465a.862.862,0,0,1,1.723-.035l.278,13.465a.862.862,0,0,1-.845.878Z" transform="translate(-206.862 -119.909)"/></g><g transform="translate(79.232 271.443)"><path d="M200.868,277.783a.862.862,0,0,1-.861-.841c-.071-3.262-.105-7.544-.145-12.545-.1-11.873-.233-28.132-.972-44.19a.86.86,0,0,1,.82-.9.843.843,0,0,1,.9.82c.743,16.091.876,32.37.974,44.255.04,4.992.076,9.267.147,12.521a.861.861,0,0,1-.843.88Z" transform="translate(-198.889 -219.302)"/></g><g transform="translate(70.093 121.632)"><path d="M197.575,237.915a.862.862,0,0,1-.823-.607,24.283,24.283,0,0,0-1.347-3.253c-1.036-2.193-2.015-4.263-1.1-6.691,1.159-3.075,7.486-12.54,9.177-15.046-.365-.349-.791-.747-1.252-1.178-4.329-4.049-8.225-7.916-8.358-10.74-.191-3.8,1.726-11.654,3.538-18.715.605-2.359,2.146-6.777,3.929-11.894,3.553-10.188,8.416-24.141,9.519-32.178a.86.86,0,1,1,1.7.233c-1.125,8.207-6.023,22.255-9.6,32.512-1.77,5.079-3.3,9.468-3.887,11.754-1.781,6.939-3.666,14.64-3.486,18.2.109,2.364,5.121,7.049,7.813,9.568.714.667,1.339,1.252,1.8,1.714a.862.862,0,0,1,.1,1.094c-.08.12-8.152,11.989-9.394,15.282-.658,1.745.093,3.333,1.045,5.347a26.058,26.058,0,0,1,1.434,3.48.858.858,0,0,1-.569,1.076A.816.816,0,0,1,197.575,237.915Z" transform="translate(-193.86 -136.868)"/></g><g transform="translate(85.789 176.225)"><path d="M203.357,201.85a.879.879,0,0,1-.342-.071.863.863,0,0,1-.447-1.134c3.206-7.382,10.644-18.153,16.245-23.525,6.755-6.475,15.176-10.355,22-10.208,4.107.111,5.288,1.57,5.557,2.775a3.652,3.652,0,0,1-1.607,3.616.861.861,0,0,1-.771-1.541,2.02,2.02,0,0,0,.685-1.739c-.218-.823-1.645-1.33-3.911-1.388-6.37-.165-14.326,3.56-20.761,9.73-5.466,5.239-12.727,15.756-15.858,22.967A.86.86,0,0,1,203.357,201.85Z" transform="translate(-202.497 -166.908)"/></g><g transform="translate(102.21 180.939)"><path d="M212.393,188.568a.839.839,0,0,1-.353-.076.862.862,0,0,1-.433-1.138c.151-.338,3.784-8.312,10.568-12.554,6.462-4.042,15.069-6.31,18.419-4.858a3.433,3.433,0,0,1,2.23,3.429,3.109,3.109,0,0,1-1.648,2.791.861.861,0,0,1-.52-1.641,2.189,2.189,0,0,0,.443-1.512,1.746,1.746,0,0,0-1.19-1.487c-2.17-.945-9.99.469-16.819,4.736-6.333,3.958-9.875,11.722-9.912,11.8A.86.86,0,0,1,212.393,188.568Z" transform="translate(-211.532 -169.501)"/></g><g transform="translate(107.999 185.89)"><path d="M222.636,195.242a.837.837,0,0,1-.329-.065.859.859,0,0,1-.467-1.123c1.385-3.355,5.018-6.635,7.188-8.6a51.145,51.145,0,0,1,8.967-6.119,3.91,3.91,0,0,0,2.132-2.193,2.911,2.911,0,0,0-.442-2.444,1.54,1.54,0,0,0-1.029-.661c-2.513-.589-7.649,1.648-11.622,4.124-4.507,2.808-9.764,9.915-10.686,11.76a.86.86,0,0,1-1.539-.769c1.007-2.017,6.461-9.43,11.315-12.454,1.436-.894,8.8-5.3,12.925-4.338a3.22,3.22,0,0,1,2.1,1.434,4.61,4.61,0,0,1,.622,3.858,5.613,5.613,0,0,1-3.084,3.262,49.612,49.612,0,0,0-8.487,5.8c-2.079,1.877-5.532,5-6.768,7.991A.861.861,0,0,1,222.636,195.242Z" transform="translate(-214.718 -172.226)"/></g><g transform="translate(102.842 193.229)"><path d="M212.741,219.972a.863.863,0,0,1-.562-1.516c8.173-7.011,12.487-14.353,13.748-17.586a13.665,13.665,0,0,0,.5-1.716,18.478,18.478,0,0,1,3.146-6.949c2.3-3.309,7.844-7.889,10.822-10.35.836-.691,1.559-1.288,1.723-1.461a1.664,1.664,0,0,0,.322-1.732c-.294-.572-1.139-.789-2.388-.618a.861.861,0,0,1-.24-1.7c2.741-.387,3.78.8,4.16,1.536a3.38,3.38,0,0,1-.605,3.706c-.225.238-.767.687-1.875,1.6-2.913,2.408-8.336,6.889-10.5,10a16.785,16.785,0,0,0-2.888,6.384,15.285,15.285,0,0,1-.569,1.924c-1.319,3.382-5.8,11.037-14.23,18.27A.87.87,0,0,1,212.741,219.972Z" transform="translate(-211.88 -176.264)"/></g><g transform="translate(106.264 152.803)"><path d="M232.9,238.155a.87.87,0,0,1-.182-.02.858.858,0,0,1-.56-.4c-.927-1.563-1.821-3.158-2.655-4.738a128.792,128.792,0,0,1-5.7-11.954.86.86,0,1,1,1.59-.658,127.292,127.292,0,0,0,5.628,11.8c.681,1.292,1.4,2.59,2.146,3.871l87.484-61.322L216.6,155.879c-.12.712-.3,1.868-.478,3.406a116.917,116.917,0,0,0,.036,24.728.861.861,0,0,1-1.714.174,118.641,118.641,0,0,1-.033-25.1c.329-2.782.636-4.316.649-4.38a.871.871,0,0,1,1-.678L322.988,173.4a.86.86,0,0,1,.342,1.552L233.392,238A.855.855,0,0,1,232.9,238.155Z" transform="translate(-213.763 -154.02)"/></g><g transform="translate(73.618 260.373)"><path d="M196.662,315.479a.833.833,0,0,1-.189-.02.861.861,0,0,1-.652-1.029c2.593-11.549,4.858-22.546,6.726-32.686,1.278-6.806,2.446-13.572,3.475-20.109,1.339-8.338,2.533-16.716,3.647-25.612.6-4.836,1.136-9.53,1.634-14.092.244-2.228.463-4.447.678-6.624l.131-1.323a.861.861,0,0,1,1.714.173l-.131,1.318c-.216,2.184-.436,4.409-.68,6.644-.5,4.569-1.034,9.274-1.637,14.117-1.118,8.916-2.312,17.314-3.655,25.67-1.03,6.551-2.2,13.332-3.484,20.152-1.872,10.159-4.138,21.179-6.737,32.748A.864.864,0,0,1,196.662,315.479Z" transform="translate(-195.799 -213.211)"/></g><g transform="translate(94.001 104.276)"><path d="M209.1,218.668c-.02,0-.042,0-.062,0a.861.861,0,0,1-.8-.92c.213-3.015.4-6.6.6-10.53.224-4.3.467-9.01.791-13.815l.053-.871c.158-2.448.116-7.095-.122-13.454-.14-4.069-.36-8.9-.672-14.778-.24-4.631-.505-9.321-.756-13.741l-.758-13.239c-.189-3.413-.405-7.773-.363-9.168a.875.875,0,0,1,.889-.834.86.86,0,0,1,.832.889c-.031,1.04.1,4.242.362,9.018l.76,13.239c.249,4.422.514,9.114.756,13.746.313,5.886.531,10.729.672,14.808.244,6.5.284,11.086.118,13.619l-.051.872c-.323,4.807-.567,9.5-.791,13.8-.2,3.938-.391,7.538-.605,10.562A.861.861,0,0,1,209.1,218.668Z" transform="translate(-207.015 -127.317)"/></g><g transform="translate(16.604 304.228)"><path d="M165.289,293.54a.7.7,0,0,1-.087-.005.861.861,0,0,1-.771-.941c.7-7.038,5.3-20.6,9.737-33.713,2.648-7.816,5.148-15.2,6.733-20.908a.861.861,0,0,1,1.659.462c-1.6,5.754-4.105,13.159-6.76,21-4.411,13.023-8.972,26.489-9.655,33.331A.864.864,0,0,1,165.289,293.54Z" transform="translate(-164.427 -237.343)"/></g><g transform="translate(94.954 111.325)"><path d="M225.788,150.712a32.97,32.97,0,0,1-17.848-5.432.861.861,0,0,1,.921-1.456c14.789,9.365,27.5,3.418,30.108,2A72.963,72.963,0,0,1,238.644,132a.872.872,0,0,1,.921-.8.861.861,0,0,1,.8.921c-.005.085-.6,8.505.4,14a.859.859,0,0,1-.382.88A29.53,29.53,0,0,1,225.788,150.712Z" transform="translate(-207.54 -131.196)"/></g><g transform="translate(189.505 189.666)"><path d="M283.488,345.058h-.007a.862.862,0,0,1-.854-.867c.4-46.062-9.635-114.013-15.131-137.522-2.51-10.769-5-21.265-7.894-31.262a.862.862,0,0,1,1.656-.478c2.9,10.035,5.4,20.554,7.916,31.349,5.512,23.58,15.58,91.729,15.175,137.926A.858.858,0,0,1,283.488,345.058Z" transform="translate(-259.568 -174.304)"/></g><g transform="translate(125.914 119.498)"><path d="M280.73,184.064a.863.863,0,0,1-.785-.509c-3.275-7.266-6.633-12.543-10.272-16.132-3.849-3.795-12.543-8.351-19.529-12.011-3.755-1.968-7-3.667-9.123-5.029a112.267,112.267,0,0,1-10.1-7.118,36.384,36.384,0,0,1-6.173-6.2.861.861,0,1,1,1.383-1.027,34.657,34.657,0,0,0,5.883,5.892,110.394,110.394,0,0,0,9.943,7c2.059,1.319,5.27,3,8.99,4.952,7.086,3.713,15.905,8.336,19.938,12.309,3.791,3.742,7.271,9.188,10.633,16.654a.859.859,0,0,1-.433,1.138A.828.828,0,0,1,280.73,184.064Z" transform="translate(-224.576 -135.693)"/></g><g transform="translate(137.28 226.277)"><path d="M234.757,330.813l-.055,0a.859.859,0,0,1-.807-.911c.64-10.352.892-16.723.809-29.39-.035-5.944-.145-13.5-.362-24.508-.078-3.98-.167-8.349-.269-13.168l-.18-8.7c-.051-2.526-.12-5.174-.224-7.905-.409-12.332-1.212-27.382-2.323-43.523l-.516-7.333a.861.861,0,0,1,1.717-.122l.516,7.337c1.112,16.163,1.917,31.233,2.326,43.579.1,2.741.173,5.4.225,7.933l.18,8.7c.1,4.82.191,9.19.267,13.17.216,11.013.329,18.579.362,24.53.084,12.716-.169,19.113-.811,29.5A.86.86,0,0,1,234.757,330.813Z" transform="translate(-230.83 -194.45)"/></g><g transform="translate(126.466 125.542)"><path d="M230.354,172.272a.863.863,0,0,1-.856-.767c-.276-2.5-.554-4.88-.818-7.146l-.282-2.443c-1.427-11.749-2.657-19.474-3.469-21.748a.86.86,0,0,1,1.621-.578c1.094,3.06,2.539,13.721,3.558,22.122l.283,2.448q.4,3.4.818,7.155a.861.861,0,0,1-.761.95A.825.825,0,0,1,230.354,172.272Z" transform="translate(-224.879 -139.019)"/></g><g transform="translate(44.001 203.173)"><path d="M180.363,223.585a.876.876,0,0,1-.278-.047.861.861,0,0,1-.536-1.094,152.263,152.263,0,0,0,7.426-39.868.861.861,0,0,1,.86-.84h.024a.863.863,0,0,1,.84.883A154.136,154.136,0,0,1,181.177,223,.86.86,0,0,1,180.363,223.585Z" transform="translate(-179.502 -181.736)"/></g><g transform="translate(168.344 204.511)"><path d="M262.716,338.382h0a.861.861,0,0,1-.86-.863c.124-52.592-9.325-126.493-13.919-154.042a.86.86,0,0,1,1.7-.283c4.6,27.6,14.066,101.627,13.943,154.329A.859.859,0,0,1,262.716,338.382Z" transform="translate(-247.923 -182.472)"/></g><g transform="translate(141.154 212.521)"><path d="M233.824,307.554a.793.793,0,0,1-.091-.005.861.861,0,0,1-.767-.945c.963-9.265,3.493-27.378,6.422-48.354,3.362-24.072,7.173-51.354,9.334-70.607a.874.874,0,0,1,.952-.76.86.86,0,0,1,.76.95c-2.163,19.276-5.975,46.573-9.341,70.656-2.928,20.957-5.456,39.056-6.413,48.292A.863.863,0,0,1,233.824,307.554Z" transform="translate(-232.961 -186.88)"/></g><g transform="translate(131.941 125.541)"><path d="M243.2,175.044a.862.862,0,0,1-.792-.525c-7.028-16.585-14.45-34.306-14.45-34.306a.861.861,0,0,1,1.588-.665s7.422,17.717,14.446,34.3a.864.864,0,0,1-.792,1.2Z" transform="translate(-227.892 -139.018)"/></g><g transform="translate(83.83 306.952)"><path d="M230.945,243.94a168.776,168.776,0,0,1-28.826-2.266.861.861,0,1,1,.322-1.692c14.382,2.742,44.441,3.5,56.49-1.087a.861.861,0,0,1,.612,1.61C253.064,242.968,242.078,243.94,230.945,243.94Z" transform="translate(-201.419 -238.842)"/></g><g transform="translate(84.22 76.707)"><path d="M201.886,113.263a6.223,6.223,0,0,1,3.369-1.116,5.339,5.339,0,0,1,3.471,1.319,9.058,9.058,0,0,1,2.7,6.384.861.861,0,0,1-1.714.165l0-.029a8.6,8.6,0,0,0-2.154-5.214,3.883,3.883,0,0,0-2.35-1.085,5.691,5.691,0,0,0-2.768.554l-.015.005a.563.563,0,0,1-.538-.985Z" transform="translate(-201.633 -112.147)"/></g></g><g transform="translate(0 367.036)"><path d="M684.028,271.641H66.33c-2.377,0-4.305-1.12-4.305-2.5s1.928-2.5,4.305-2.5h617.7c2.377,0,4.305,1.119,4.305,2.5S686.4,271.641,684.028,271.641Z" transform="translate(-62.025 -266.641)"/></g></g></g></g></svg>