<svg xmlns="http://www.w3.org/2000/svg" xmlns:xlink="http://www.w3.org/1999/xlink" width="960" height="470" viewBox="0 0 960 470"><defs><clipPath id="b"><rect width="960" height="470"/></clipPath></defs><g id="a" clip-path="url(#b)"><rect width="960" height="470" fill="#fff"/><g transform="translate(13.258 -218.494)"><g transform="translate(217.548 440.322)"><g transform="translate(41.886 -99.472)"><circle cx="32.164" cy="32.164" r="32.164" fill="#dedede"/></g><g transform="translate(363.942 66.538)"><path d="M2291.066,1523.521a8.777,8.777,0,0,1-5.895-15.284c5.451-4.935,13.223-19.014,14.7-29.1a8.778,8.778,0,1,1,17.37,2.544c-1.94,13.246-11.23,31.364-20.286,39.565A8.746,8.746,0,0,1,2291.066,1523.521Z" transform="translate(-2282.285 -1471.635)" fill="#dedede"/></g><g transform="translate(558.616 67.586)"><path d="M1954.716,1651.084a6.585,6.585,0,0,1-5.7-9.868,56.144,56.144,0,0,1,13.244-15,6.583,6.583,0,0,1,7.73,10.659,44.455,44.455,0,0,0-9.562,10.909A6.582,6.582,0,0,1,1954.716,1651.084Z" transform="translate(-1948.138 -1624.961)" fill="#dedede"/></g><g transform="translate(367.782 127.364)"><circle cx="6.842" cy="6.842" r="6.842" fill="#dedede"/></g><g transform="translate(43.725 61.426)"><circle cx="6.16" cy="6.16" r="6.16" fill="#dedede"/></g><g transform="translate(301.511 21.201)"><circle cx="3.143" cy="3.143" r="3.143" fill="#dedede"/></g><g transform="translate(29.479 83.425)"><path d="M2059.133,1231.855a10.284,10.284,0,1,1,10.284-10.284A10.3,10.3,0,0,1,2059.133,1231.855Zm0-18.812a8.528,8.528,0,1,0,8.528,8.528A8.538,8.538,0,0,0,2059.133,1213.043Z" transform="translate(-2048.85 -1211.288)" fill="#dedede"/></g><g transform="translate(318.03)"><circle cx="2.799" cy="2.799" r="2.799" fill="#dedede"/></g><g transform="translate(234.455 183.674)"><circle cx="7.618" cy="7.618" r="7.618" fill="#dedede"/></g><g transform="translate(204.302 162.447)"><circle cx="11.422" cy="11.422" r="11.422" fill="#dedede"/></g><g transform="translate(226.339 149.248)"><circle cx="8.116" cy="8.116" r="8.116" fill="#dedede"/></g><g transform="translate(335.141 112.781)"><circle cx="13.526" cy="13.526" r="13.526" fill="#dedede"/></g><g transform="translate(215.672 43.666)"><path d="M1632.605,1417.6c4,4.608,4.423,12.522,9.922,17.681,6.009,5.637,15.145,9.481,23.652,1.7,5.848-5.346,5.5-13.555,3.339-18.351-3.774-8.369-12.6-11.1-15.329-15.706-4.058-6.857-3.95-20.5-11.85-29.154-7.09-7.765-22.172-8.823-30.692-.983-7.3,6.72-6.127,22.378.08,29.573S1628.459,1412.821,1632.605,1417.6Z" transform="translate(-1606.61 -1367.408)" fill="#dedede"/></g><g transform="translate(285.111 128.561)"><path d="M1932.935,1808.92a9.877,9.877,0,0,1-9.522-12.508c5.965-21.576,17.31-32.711,26.527-40a9.875,9.875,0,0,1,12.252,15.49c-7.653,6.053-15.341,13.849-19.744,29.774A9.9,9.9,0,0,1,1932.935,1808.92Zm23.12-50.251a5.443,5.443,0,0,0-3.392,1.184c-8.694,6.876-19.394,17.378-25.02,37.729a5.486,5.486,0,1,0,10.575,2.924c4.739-17.14,13.014-25.532,21.251-32.047a5.486,5.486,0,0,0-2.768-9.752A5.565,5.565,0,0,0,1956.055,1758.669Z" transform="translate(-1923.051 -1754.279)" fill="#dedede"/></g></g><g transform="translate(475.552 256.242)"><circle cx="33.608" cy="33.608" r="33.608" transform="translate(50.559)" fill="#dedede"/><g transform="translate(0 108.234)"><path d="M1828.332,909.871a9.858,9.858,0,0,1-7.8-3.81c-18.283-23.489-21.012-56.07-21.012-73.4a9.875,9.875,0,1,1,19.75,0c0,14.8,2.189,42.436,16.848,61.27a9.875,9.875,0,0,1-7.786,15.94Z" transform="translate(-1799.52 -822.786)" fill="#dedede"/></g><circle cx="46.863" cy="46.863" r="46.863" transform="translate(80.69 147.106)" fill="#dedede"/><g transform="translate(126.923 80.723)"><path d="M2387.783,744.678a9.875,9.875,0,0,1-7.659-16.1c7.016-8.637,11.156-15.9,13.844-24.294a9.875,9.875,0,0,1,18.809,6.023c-3.436,10.729-8.779,20.2-17.323,30.723A9.856,9.856,0,0,1,2387.783,744.678Z" transform="translate(-2377.914 -697.417)" fill="#dedede"/></g><g transform="translate(24.882 67.602)"><path d="M1936.8,681.779a6.318,6.318,0,0,1-4.025-1.25c-1.211-1-2.232-3.741-3.77-8.131a38.114,38.114,0,0,0-2.884-6.98,21.874,21.874,0,0,0-3.822-3.572c-3.109-2.542-6.978-5.707-8.414-9.824-2.469-7.079.293-10.839,2.16-12.451h0c1.845-1.593,3.682-2.215,5.463-1.847,2.74.566,4.25,3.284,4.647,4.1a48.3,48.3,0,0,1,1.733,5.459c1.325,4.634,3.14,10.98,4.8,13.071a45.052,45.052,0,0,0,4.966,4.8,36.909,36.909,0,0,1,5.437,5.4,7.438,7.438,0,0,1-1.128,9.515A8.124,8.124,0,0,1,1936.8,681.779ZM1917.193,640.9c-1.868,1.613-3.67,4.751-1.65,10.544,1.274,3.65,4.93,6.641,7.868,9.043a22.591,22.591,0,0,1,4.16,3.941,37.738,37.738,0,0,1,3.091,7.389c1.03,2.938,2.311,6.6,3.233,7.359,1.679,1.39,5.37.937,6.9-.416a5.7,5.7,0,0,0,.847-7.2,36.9,36.9,0,0,0-5.154-5.086,45.936,45.936,0,0,1-5.181-5.025c-1.871-2.364-3.665-8.637-5.107-13.678a50.853,50.853,0,0,0-1.625-5.176,5.593,5.593,0,0,0-3.423-3.151c-1.217-.251-2.55.239-3.96,1.457Z" transform="translate(-1912.908 -637.622)" fill="#dedede"/></g></g><g transform="translate(529.905 394.764)"><g transform="translate(0.877 0.888)"><path d="M2784.73,1901.394c-.777-5.381-1.488-10.775-2.109-15.96l.029,0s17.085,6.476,26.631,9.774c.487,4.415,1.082,8.438,1.749,11.968-6.19-1.971-10.944-3.491-13.052-4.178a1.629,1.629,0,0,0-1.817.575c-.134.18-.263.366-.391.557l0,0A93.945,93.945,0,0,1,2784.73,1901.394Z" transform="translate(-2622.12 -1683.418)" fill="#818181"/><path d="M2799.038,1716.462l.145.007q-.148,3.983-.18,7.845-.033,3.42.022,6.726c-7.933-3.577-27.669-13.026-27.669-13.026a117.591,117.591,0,0,1,.193-14.174S2792.889,1713.794,2799.038,1716.462Z" transform="translate(-2613.224 -1541.676)" fill="#818181"/><path d="M2813.1,1558.121c-.8,4.538-1.45,9.076-1.981,13.581-12.008-4.233-26.688-10.849-26.688-10.849,1.091-5.894,2.293-11.11,3.232-15.253-1.275,5.833,5.334,9.039,12.708,7.828C2800.371,1553.427,2810.72,1557.338,2813.1,1558.121Z" transform="translate(-2623.532 -1418.16)" fill="#818181"/><path d="M2078.1,1408.61a3.493,3.493,0,0,1,0,5.736c-2.469,1.929-10.983,4.24-12.721,4.428l-.007.024a21.128,21.128,0,0,0-3.331-.595,6.926,6.926,0,0,0-3.092.47s-2.126-2.4-2.175-4.891a5.215,5.215,0,0,1,4.044-5.124c1.834-.384,5.679-.068,8.7-.1.7-.006,1.35-.033,1.927-.09C2074.028,1408.213,2076.622,1407.623,2078.1,1408.61Z" transform="translate(-2055.555 -1310.802)" fill="#fff"/><path d="M2067.762,1457.085c1.986.893,7.7,3.739,7.007,7.053-.6,2.87-5.291,4.233-11.2,2.736a12,12,0,0,0-7.582-2.008,3.452,3.452,0,0,0-1.266.347l-.121-.228a6.354,6.354,0,0,1-3.386-5.455,5.137,5.137,0,0,1,3.4-4.843,6.924,6.924,0,0,1,3.092-.47,21.133,21.133,0,0,1,3.331.595A44.551,44.551,0,0,1,2067.762,1457.085Z" transform="translate(-2051.209 -1346.814)" fill="#fff"/><path d="M2070.748,1505.805c2.692,2.161,7.955,7.371,7,10.182-.858,2.541-3.844,2.41-6.065,1.6l-.011,0a.394.394,0,0,0-.052-.02,8.438,8.438,0,0,1-.875-.382c-.209-.1-.4-.213-.577-.323-1.262-.794-6.607-2.482-7.794-2.941-.059-.022-.118-.046-.182-.068-1.163-.43-2.857-.948-3.439-3.27-.533-2.137-.961-6.324,1.532-7.577a3.452,3.452,0,0,1,1.266-.347,12,12,0,0,1,7.582,2.008c.246.154.47.3.672.437C2070.057,1505.27,2070.38,1505.509,2070.748,1505.805Z" transform="translate(-2056.78 -1384.605)" fill="#fff"/><path d="M2082.51,1557.567c.805.389,4.167,4.624,3.324,7.751a3.44,3.44,0,0,1-.5,1.077q-.1.145-.211.277a3.8,3.8,0,0,1-3.02,1.492c-3.84.068-8.624-4.639-9.372-6.741a11.528,11.528,0,0,1,.287-7.593c.064.022.123.046.182.068,1.187.459,6.533,2.146,7.794,2.941.176.11.369.219.577.323a8.488,8.488,0,0,0,.875.382.394.394,0,0,1,.052.02Z" transform="translate(-2067.603 -1424.584)" fill="#fff"/><path d="M2118.682,1315a1.451,1.451,0,0,1,1.025,2.477,1.437,1.437,0,0,1-1.025.426h-1.411v12.023c-.928-1.422-1.753-2.587-2.35-2.431-1.086.283-2.164,3.07-1.883,7.349.292,4.415,4.233,16.175,4.233,16.175V1373.3a8.582,8.582,0,0,1-13.612,6.954q.109-.132.211-.276a3.434,3.434,0,0,0,.5-1.078c.843-3.127-2.519-7.362-3.324-7.751,2.22.81,5.207.941,6.065-1.6.95-2.811-4.312-8.021-7-10.182-.369-.3-.691-.535-.941-.7-.2-.134-.426-.283-.671-.437,5.914,1.5,10.6.134,11.2-2.736.693-3.313-5.021-6.16-7.007-7.053a44.588,44.588,0,0,0-6.732-2.273l.007-.024c1.738-.189,10.252-2.5,12.721-4.428a3.493,3.493,0,0,0,0-5.736c-1.481-.988-4.075-.4-6.653-.141-.577.057-1.229.083-1.927.09V1317.9H2098.7a1.452,1.452,0,0,1,0-2.9Z" transform="translate(-2086.14 -1238.163)" fill="#fff"/><path d="M2192.007,1397.295c1.646,7.077,1.3,14.992-.2,18.567-2.493.667-8.264,2.219-14.189,3.849a8.62,8.62,0,0,0,.239-2.019v-22.278s-3.941-11.76-4.233-16.175c-.281-4.279.8-7.066,1.883-7.349.6-.156,1.422,1.01,2.35,2.432a31.024,31.024,0,0,0,2.4,3.412C2181.713,1379.384,2190.2,1389.509,2192.007,1397.295Z" transform="translate(-2146.723 -1282.558)" fill="#fff"/><path d="M2232.244,1634.656h0c-3.168,3.245-24.9,22.161-44.3,21.088-42.306-2.339-66.828-64-70.66-74.373a3.8,3.8,0,0,0,3.02-1.492,8.584,8.584,0,0,0,13.373-4.935c5.925-1.63,11.7-3.182,14.189-3.849l1.286-.344s20.177,39.4,45.753,38.455c27.18-1,57.368-34.753,59.664-37.489h0q-.289.441-.522.838c-3.046,5.179-10.805,42.8-9.394,48.534s12.365,9.855,12.365,9.855c-2.789,3-5.776,6.6-5.877,8.391-.187,3.384,5.692,12.256,6.728,13.855-4.227-1.97-14.992-7.887-16.954-8.519-2.188-.707-6.138-1.694-7.266.423s1.341,7.827,8.887,10.3c0,0-5.124-.276-10.7-.559A98.153,98.153,0,0,1,2232.244,1634.656Z" transform="translate(-2102.782 -1437.792)" fill="#fff"/><path d="M2720.969,1508.75c-.173,1.716-.783,4.483-1.591,8.049,0,.013-.007.024-.009.037-.939,4.143-2.142,9.359-3.232,15.253a175.167,175.167,0,0,0-2.574,19.471,117.541,117.541,0,0,0-.193,14.174c.173,3.474.481,7.533.9,11.979-.147.138-2.4,2.262-4.793,4.834,0,0-10.955-4.117-12.365-9.855s6.348-43.355,9.394-48.534q.234-.4.522-.838C2710,1518.761,2717.1,1511.041,2720.969,1508.75Z" transform="translate(-2555.239 -1389.397)" fill="#fff"/><path d="M2739.409,1836.72c.621,5.185,1.332,10.579,2.109,15.96-2.754-.825-5.153-1.62-6.353-2.069-.29-.108-.689-.283-1.172-.509-1.036-1.6-6.915-10.472-6.728-13.855.1-1.793,3.088-5.4,5.876-8.391,2.394-2.572,4.646-4.7,4.793-4.834C2738.334,1827.29,2738.833,1831.914,2739.409,1836.72Z" transform="translate(-2578.908 -1634.703)" fill="#fff"/><path d="M2555.359,1932.7l-.353-.09c-4.185-1.082-5.506-4.2-5.337-6.559-2.2-1.082-4.538-3.728-4.538-5.5-2.614-1.584-3.9-3.577-3.386-4.7.777-1.694,3.6-1.834,8.676-1.694,2.39.066,7.7.318,12.649.568,5.574.283,10.7.559,10.7.559-7.547-2.469-10.016-8.181-8.887-10.3s5.078-1.13,7.266-.423c1.962.632,12.728,6.548,16.954,8.519.483.226.882.4,1.172.509,1.2.45,3.6,1.244,6.353,2.069a93.939,93.939,0,0,0,11.038,2.73l0,0c-3.924,5.833-5.1,16.026-1.042,30.671-.54-.092-2.107-.439-4.352-.952-8.178-1.883-25.354-6.01-34.571-8.238-2.791-.676-4.852-1.174-5.712-1.385C2557.347,1937.353,2555.359,1935.488,2555.359,1932.7Z" transform="translate(-2434.015 -1697.681)" fill="#fff"/><path d="M2699.005,2091.708l-29.2-.026s-5.159-8.113-9.383-23.162c9.217,2.227,26.392,6.355,34.571,8.238A116.636,116.636,0,0,0,2699.005,2091.708Z" transform="translate(-2526.735 -1826.331)" fill="#fff"/><path d="M2825.764,2111.608c6.864,2.319,26.739,9.028,28.021,9.376l-31.81.026a116.63,116.63,0,0,1-4.014-14.95c2.245.513,3.812.86,4.352.952.129.476.268.955.41,1.439A4.748,4.748,0,0,0,2825.764,2111.608Z" transform="translate(-2649.704 -1855.633)" fill="#fff"/><path d="M2899.151,1826.288c-.737-6.675-1.229-14.257-1.361-22.422q-.053-3.3-.022-6.726h.046s3.93,3.524,8.53,8.045c6.188,6.079,13.586,13.959,14.233,17.465,1.13,6.114-.838,15.025-3.237,20.667l-.048.149c-5.951-1.889-11.6-3.684-16.392-5.209C2900.232,1834.726,2899.638,1830.7,2899.151,1826.288Z" transform="translate(-2711.989 -1614.502)" fill="#fff"/><path d="M2772.716,1780.409c-.415-4.446-.722-8.506-.9-11.979,0,0,19.737,9.449,27.669,13.026.132,8.165.623,15.747,1.361,22.423-9.546-3.3-26.631-9.774-26.631-9.774l-.029,0C2773.614,1789.3,2773.116,1784.68,2772.716,1780.409Z" transform="translate(-2613.689 -1592.093)" fill="#fff"/><path d="M2801.964,1625.959c-.847,7.228-1.372,14.365-1.628,21.251l-.145-.007c-6.149-2.668-27.489-12.622-27.489-12.622a175.225,175.225,0,0,1,2.574-19.471S2789.956,1621.726,2801.964,1625.959Z" transform="translate(-2614.376 -1472.417)" fill="#fff"/><path d="M2860.755,1539.182c8.666-3.171,11.9-9.243,12.539-10.592-1.382,5.372-2.539,10.81-3.493,16.254-2.381-.783-12.729-4.694-12.729-4.694A20.389,20.389,0,0,0,2860.755,1539.182Z" transform="translate(-2680.232 -1404.883)" fill="#fff"/><path d="M2861.49,1652.705l.048-.149c2.4-5.642,4.367-14.553,3.237-20.667-.647-3.507-8.044-11.387-14.233-17.465,4.365-2,14.852-6.634,16.544-12.181s-2.914-17.211-4.608-27.274.966-19.89,1.246-22.219c4.938,4.044,13.755,8.111,20.527,10.086s25.111,7.428,35.549,19.75c12.385,14.621,36.818,64.186,36.537,105.31l-96.069,1.2c-1.281-.349-21.156-7.057-28.02-9.377a4.747,4.747,0,0,1-3.041-3.156c-.143-.485-.281-.963-.411-1.44-4.057-14.646-2.881-24.839,1.043-30.671.127-.191.257-.377.391-.557a1.628,1.628,0,0,1,1.817-.575c2.109.687,6.862,2.208,13.052,4.178C2849.889,1649.021,2855.539,1650.816,2861.49,1652.705Z" transform="translate(-2656.188 -1423.741)" fill="#fff"/><path d="M2907.159,1494.86c1.069,1.119,12.692,10.375,12.409,12.7s-2.938,12.155-1.246,22.219,6.3,21.724,4.608,27.274-12.179,10.18-16.543,12.181c-4.6-4.521-8.53-8.045-8.53-8.045h-.046q.033-3.858.18-7.845c.257-6.886.781-14.022,1.628-21.251.531-4.505,1.185-9.043,1.981-13.581.955-5.444,2.111-10.882,3.493-16.254a.007.007,0,0,1,0,0Q2906.051,1498.535,2907.159,1494.86Z" transform="translate(-2712.032 -1378.555)" fill="#fff"/><path d="M2829.2,1445.271q-1.106,3.67-2.063,7.4a.007.007,0,0,0,0,0c-.638,1.35-3.873,7.421-12.539,10.592a20.386,20.386,0,0,1-3.684.968c-7.373,1.211-13.982-1.995-12.708-7.828,0-.013.007-.024.009-.037.808-3.566,1.417-6.333,1.591-8.049.033-.323.05-.608.05-.854a15.454,15.454,0,0,0-.79-4.055c-.529-1.729-1.13-3.173-1.13-3.173a30.206,30.206,0,0,0,12.618.645,24.152,24.152,0,0,0,15.084-9.552S2826.535,1442.48,2829.2,1445.271Z" transform="translate(-2634.07 -1328.966)" fill="#fff"/><path d="M2752.13,1105.267c.439.325.9.669,1.389,1.031a13.888,13.888,0,0,0-1.97-.138,14.179,14.179,0,0,0-14,16.471h0c-.786-.56-2.761-2.093-4.134-2a5.326,5.326,0,0,0-2.668,1.552c.037-.4.055-.81.055-1.222a13.569,13.569,0,0,0-17.351-13.026,22.127,22.127,0,0,1,1.907-2.477c4.139-4.514,7.121-13.4,7.406-18.284.213-3.63,3.864-5.5,7.735-5.31a9.725,9.725,0,0,1,8.183,4.878C2742.913,1093.887,2747.427,1101.787,2752.13,1105.267Z" transform="translate(-2568.128 -1056.175)" fill="#fff"/><path d="M2702.124,1211.834c0,.412-.018.819-.055,1.222a13.563,13.563,0,0,1-24.116,7.228c-.825-3.763-1.242-6.274-1.242-6.274s4.246-9.587,8.06-15.2h0a13.569,13.569,0,0,1,17.351,13.026Z" transform="translate(-2539.45 -1147.049)" fill="#fff"/><path d="M2850.767,1205.956c.018.287.026.575.026.867a14.181,14.181,0,0,1-28.176,2.289,14.029,14.029,0,0,1-.187-2.289,14.184,14.184,0,0,1,14.182-14.182,13.871,13.871,0,0,1,1.971.138c4.687,3.493,11.077,8.538,12.183,13.175Z" transform="translate(-2653.193 -1142.654)" fill="#fff"/><path d="M2753.545,1242.24c.14,4.584-2.563,9.076-5.453,10.2s-7.76-.281-7.76-.281c1.512,11.567-.99,19.552-4.9,24.915a24.152,24.152,0,0,1-15.084,9.552,30.449,30.449,0,0,1-24.83-7.147c-6.721-5.87-11.141-22.394-13.147-31.534a13.563,13.563,0,0,0,24.117-7.228,5.327,5.327,0,0,1,2.668-1.552c1.374-.092,3.349,1.442,4.134,2h0a14.181,14.181,0,0,0,28.176-2.289c0-.292-.009-.579-.026-.867v0c1.316-3.147,3.551-4.468,6.177-4.283C2751.006,1233.965,2753.4,1237.632,2753.545,1242.24Z" transform="translate(-2543.868 -1174.714)" fill="#fff"/><path d="M2680.213,1017.191c3.246,7.757,24.266,27.367,21.975,39.923-1.385,7.59-8.328,9.484-12.027,9.952a3.267,3.267,0,0,0-2.752,2.478c-.856,3.5-3.344,9.98-10.3,12.4-8.7,3.026-18.968-.015-21.226-.783-2.662-2.791-3.564-13.941-3.564-13.941,3.91-5.363,6.412-13.349,4.9-24.915,0,0,4.867,1.409,7.759.281s5.594-5.62,5.453-10.2c-.14-4.608-2.539-8.275-5.925-8.51-2.627-.184-4.861,1.137-6.177,4.284-1.106-4.637-7.5-9.682-12.183-13.175-.485-.362-.95-.707-1.389-1.031-4.7-3.48-9.216-11.38-13.448-18.527a9.725,9.725,0,0,0-8.183-4.878c-3.871-.193-7.522,1.681-7.735,5.31-.285,4.887-3.268,13.77-7.406,18.284a22.163,22.163,0,0,0-1.907,2.477h0c-3.814,5.615-8.06,15.2-8.06,15.2s.417,2.51,1.242,6.274c2.006,9.14,6.425,25.664,13.147,31.534a30.381,30.381,0,0,0,12.212,6.5s.6,1.444,1.13,3.173c0,0-4.031,10.167-16.634,10.355-11.642.173-16.542-7.7-17.553-13.515a1.777,1.777,0,0,0-1.575-1.468c-4.174-.417-12.9-2.655-13.974-10.786-1.222-9.217,7.428-19.734,8.982-36.458s3.68-35.117,5.712-40.917c4.373-12.486,36.776-26.695,57.768-19.892C2671.326,974.022,2677.946,1011.766,2680.213,1017.191Z" transform="translate(-2460.757 -964.853)"/></g><g transform="translate(0 0)"><g transform="translate(137.567 25.683)"><path d="M2709.166,1166.23a31.647,31.647,0,0,1-20.673-7.749c-7.89-6.891-12.577-27.378-14.226-35.867a8.42,8.42,0,0,1,.649-5.215c2.064-4.4,5.99-12.28,9.087-15.659,3.866-4.217,6.885-12.734,7.177-17.741.251-4.3,4.546-6.341,8.656-6.138a10.635,10.635,0,0,1,8.893,5.309l.7,1.18c4.039,6.836,8.215,13.905,12.517,17.088l.162.12c4.372,3.234,10.711,7.925,13.033,12.667a6.521,6.521,0,0,1,6.092-3.036c3.749.26,6.583,4.2,6.742,9.36.145,4.742-2.552,9.7-6.013,11.049-2.207.861-5.33.412-7.056.05,1.148,10.565-.909,19.126-6.122,25.459a25,25,0,0,1-14.742,8.726A30.055,30.055,0,0,1,2709.166,1166.23Zm-9.9-86.627c-3.094,0-6.162,1.494-6.337,4.5-.309,5.3-3.521,14.336-7.636,18.825-3.05,3.327-7.165,11.751-8.792,15.219a6.673,6.673,0,0,0-.514,4.135c1.26,6.484,5.968,28.163,13.657,34.879a29.712,29.712,0,0,0,24.108,6.943c8.593-1.415,22.319-10.061,19.257-33.488a.878.878,0,0,1,1.115-.957c.045.013,4.618,1.314,7.2.307,2.422-.945,5.029-5.021,4.9-9.359-.13-4.243-2.278-7.466-5.109-7.662-2.412-.167-4.2,1.095-5.307,3.75a.878.878,0,0,1-1.664-.135c-1.129-4.747-8.608-10.28-13.077-13.587l-.163-.12c-4.588-3.4-8.856-10.62-12.985-17.606l-.7-1.179a8.843,8.843,0,0,0-7.471-4.45C2699.589,1079.607,2699.429,1079.6,2699.27,1079.6Z" transform="translate(-2674.11 -1077.848)"/></g><g transform="translate(199.974 64.513)"><path d="M2958.5,1262.382a4.509,4.509,0,0,1,.059-.641c.03-.2.074-.4.122-.594s.11-.386.172-.576.141-.375.215-.561a11.3,11.3,0,0,1,1.151-2.094,10.123,10.123,0,0,1,.736-.939,10.65,10.65,0,0,1,.853-.829,9.187,9.187,0,0,1,1.954-1.3.431.431,0,0,1,.469.719l-.028.022a9.776,9.776,0,0,0-1.533,1.426,9.407,9.407,0,0,0-.635.814c-.178.3-.371.578-.525.885a9.712,9.712,0,0,0-.777,1.894c-.044.165-.087.33-.135.493l-.122.493-.117.489c-.039.156-.075.336-.111.454l-.035.117a.875.875,0,0,1-1.714-.272Z" transform="translate(-2958.5 -1254.798)"/></g><g transform="translate(161.712 88.226)"><path d="M2788.823,1374.784a13.736,13.736,0,0,1-4.086-.531.878.878,0,0,1,.562-1.663,14.95,14.95,0,0,0,6.71.148c3.718-.669,9.389-2.875,15.3-9.583a.878.878,0,1,1,1.317,1.161c-6.29,7.138-12.4,9.471-16.425,10.171A19.692,19.692,0,0,1,2788.823,1374.784Z" transform="translate(-2784.141 -1362.857)"/></g><g transform="translate(169.237 49.996)"><path d="M2833.492,1218.758a15.059,15.059,0,1,1,0-30.118,14.8,14.8,0,0,1,2.095.147.878.878,0,1,1-.249,1.738,13.058,13.058,0,0,0-1.846-.129,13.3,13.3,0,1,0,13.3,13.3c0-.275-.008-.541-.025-.813,0-.018,0-.036,0-.054a.878.878,0,0,1,1.755-.039c.018.3.027.6.027.905A15.075,15.075,0,0,1,2833.492,1218.758Z" transform="translate(-2818.432 -1188.64)"/></g><g transform="translate(138.502 51.231)"><path d="M2689.857,1223.153a14.373,14.373,0,0,1-11.294-5.444.878.878,0,1,1,1.373-1.094,12.685,12.685,0,0,0,22.556-6.759c.035-.375.052-.749.052-1.144a12.693,12.693,0,0,0-16.23-12.183.878.878,0,1,1-.492-1.685,14.449,14.449,0,0,1,18.477,13.869c0,.444-.019.882-.058,1.3a14.442,14.442,0,0,1-14.383,13.138Z" transform="translate(-2678.371 -1194.27)"/></g><g transform="translate(162.62 64.465)"><path d="M2795.957,1258.337a.873.873,0,0,1-.509-.163c-.166-.119-.341-.261-.526-.413a4.964,4.964,0,0,0-3.1-1.426h0a3.17,3.17,0,0,0-1.97,1.217.878.878,0,0,1-1.38-1.086,4.861,4.861,0,0,1,3.35-1.887h.01a6.61,6.61,0,0,1,4.208,1.823c.169.138.315.258.434.342a.878.878,0,0,1-.511,1.593Z" transform="translate(-2788.278 -1254.579)"/></g><g transform="translate(163.974 123.713)"><path d="M2805.14,1538.137a12.825,12.825,0,0,1-8.416-2.648,6.467,6.467,0,0,1-2.09-6.531.878.878,0,0,1,1.713.384,4.72,4.72,0,0,0,1.535,4.828c2.87,2.518,8.5,2.95,13.69,1.051,8.131-2.975,11.28-8.519,12.051-10.147a.878.878,0,0,1,1.587.751c-.844,1.781-4.276,7.84-13.034,11.044A20.662,20.662,0,0,1,2805.14,1538.137Z" transform="translate(-2794.448 -1524.571)"/></g><g transform="translate(191.563 102.373)"><path d="M2923.844,1517.4a.878.878,0,0,1-.366-1.676l.451-.206c4.219-1.929,14.1-6.445,15.619-11.434,1.036-3.4-.535-9.569-2.2-16.106-.906-3.564-1.844-7.25-2.436-10.766-1.422-8.451.158-16.689.917-20.648.155-.806.277-1.442.323-1.821-.006-.074-.144-1-3.657-4.4-2.135-2.066-4.739-4.3-6.462-5.78-1.176-1.01-1.8-1.549-2.054-1.814-2.8-2.932-3.708-13.3-3.8-14.477a.878.878,0,0,1,1.75-.141c.244,3.016,1.318,11.3,3.324,13.407.2.214,1,.9,1.927,1.693,8.221,7.057,10.926,10.015,10.719,11.721-.053.439-.174,1.069-.341,1.941-.74,3.858-2.28,11.886-.911,20.026.58,3.444,1.508,7.094,2.406,10.624,1.726,6.781,3.355,13.187,2.176,17.051-1.752,5.744-11.759,10.319-16.568,12.518l-.449.206A.872.872,0,0,1,2923.844,1517.4Z" transform="translate(-2920.174 -1427.327)"/></g><g transform="translate(185.768 116.315)"><path d="M2897.784,1600.066a.878.878,0,0,1-.861-.715c-2.482-13.124-3.579-30.6-3.01-47.945.706-21.484,3.9-42.2,9.249-59.921a.878.878,0,1,1,1.68.507c-11.165,37.01-11.037,81.426-6.194,107.032a.878.878,0,0,1-.7,1.025A.9.9,0,0,1,2897.784,1600.066Z" transform="translate(-2893.766 -1490.861)"/></g><g transform="translate(157.456 68.1)"><path d="M2771.338,1294.176h-.034c-2.579-.1-6.64-1.522-6.558-4.919.059-2.388,2.376-6.515,4.545-10.2.345-.586.617-1.048.778-1.345a10.86,10.86,0,0,0,1.7-5.708.878.878,0,0,1,.878-.866h.012a.878.878,0,0,1,.866.89,12.617,12.617,0,0,1-1.906,6.518c-.176.325-.456.8-.81,1.4-1.38,2.342-4.25,7.214-4.3,9.347-.055,2.237,3.55,3.071,4.869,3.122a.878.878,0,0,1-.033,1.755Z" transform="translate(-2764.745 -1271.143)"/></g><g transform="translate(141.711 119.362)"><path d="M2706.393,1580.3a.873.873,0,0,1-.309-.056c-.465-.175-11.4-4.351-12.908-10.467-1.473-5.99,6.308-43.779,9.489-49.189,2.626-4.466,10.561-13.22,14.778-15.72a.878.878,0,1,1,.9,1.51c-3.916,2.322-11.66,10.849-14.159,15.1-1.339,2.277-3.973,12.28-6.263,23.785-2.435,12.231-3.626,21.689-3.034,24.1,1.283,5.22,11.716,9.2,11.821,9.243a.878.878,0,0,1-.309,1.7Z" transform="translate(-2692.993 -1504.744)"/></g><g transform="translate(148.354 188.321)"><path d="M2730.876,1847.837a.877.877,0,0,1-.738-.4l-.164-.253c-4.642-7.137-6.834-11.759-6.7-14.129.2-3.556,9.157-12.138,10.951-13.822a.878.878,0,0,1,1.2,1.28c-3.956,3.714-10.277,10.43-10.4,12.64-.061,1.1.691,4.264,6.421,13.075l.167.256a.878.878,0,0,1-.736,1.355Z" transform="translate(-2723.266 -1818.994)"/></g><g transform="translate(185.824 182.648)"><path d="M2914.423,1841.075a.878.878,0,0,1-.808-1.221c2.393-5.629,4.254-14.363,3.183-20.164-.881-4.773-16.531-19.676-22.487-25.016a.878.878,0,1,1,1.172-1.307c2.238,2.006,21.892,19.777,23.041,26,1.187,6.428-.875,15.48-3.293,21.169A.878.878,0,0,1,2914.423,1841.075Z" transform="translate(-2894.019 -1793.143)"/></g><g transform="translate(107.618 205.768)"><path d="M2564.79,1922.959a.882.882,0,0,1-.093,0c-1.446-.152-12.61-2.513-17.942-3.683-4.659-1.023-7.749-3.494-8.743-5.489a2.657,2.657,0,0,1-.189-2.364c1.039-2.268,4.437-2.345,9.5-2.2,3.45.1,13.072.586,18.838.889a14.17,14.17,0,0,1-5.723-6.363,4.42,4.42,0,0,1-.16-3.655c1.343-2.519,5.523-1.549,9.014-.422,1.178.38,5.031,2.389,9.112,4.517,3.792,1.977,7.712,4.021,9.055,4.525a120.823,120.823,0,0,0,17.214,4.754.878.878,0,0,1-.264,1.735,123.077,123.077,0,0,1-17.567-4.845c-1.443-.541-5.235-2.518-9.25-4.612-3.657-1.907-7.8-4.068-8.839-4.4-5.31-1.713-6.618-1-6.926-.422a2.878,2.878,0,0,0,.239,2.174c.941,2.34,3.823,5.656,8.852,7.3a.878.878,0,0,1-.32,1.711c-.183-.01-18.315-.989-23.324-1.128-3.951-.109-7.268-.1-7.854,1.182a1.124,1.124,0,0,0,.165.849c.782,1.569,3.478,3.664,7.549,4.558,6.287,1.38,16.509,3.522,17.749,3.652a.878.878,0,0,1-.091,1.751Z" transform="translate(-2537.631 -1898.499)"/></g><g transform="translate(111.116 222.875)"><path d="M2578.361,1988.5a.858.858,0,0,1-.1-.006c-4.082-.48-17.113-3.614-19.657-4.862-2.379-1.167-5.029-4.038-5.029-6.291a.878.878,0,1,1,1.755,0c0,1.352,2.042,3.731,4.047,4.715,2.377,1.166,15.209,4.238,19.089,4.695a.878.878,0,0,1-.1,1.75Z" transform="translate(-2553.571 -1976.458)"/></g><g transform="translate(115.639 228.378)"><path d="M2595.746,2012.955a.848.848,0,0,1-.118-.008c-2.178-.293-11.063-1.994-15.432-3.123-4.729-1.222-6.184-4.789-5.993-7.472a.878.878,0,0,1,1.751.124c-.143,2.01,1,4.7,4.681,5.648,4.162,1.076,13.068,2.793,15.227,3.083a.878.878,0,0,1-.116,1.748Z" transform="translate(-2574.186 -2001.536)"/></g><g transform="translate(121.343 235.027)"><path d="M2652.321,2049.957a.871.871,0,0,1-.148-.013c-3.237-.549-41.425-9.789-44.695-10.587-3.134-.765-7.3-2.285-7.3-6.641a.878.878,0,1,1,1.756,0c0,1.621.677,3.646,5.96,4.935,5.521,1.348,41.583,10.055,44.572,10.562a.878.878,0,0,1-.146,1.744Z" transform="translate(-2600.179 -2031.838)"/></g><g transform="translate(158.001 111.281)"><path d="M2772.715,1576.38a.878.878,0,0,1-.868-.753c-1.491-10.337-2.765-20.885-3.589-29.7-.426-4.565-.728-8.608-.9-12.017a118.972,118.972,0,0,1,.194-14.28,174.683,174.683,0,0,1,2.587-19.568c1.017-5.5,2.137-10.434,3.038-14.4l.2-.888c0-.01,0-.021.007-.031v-.006c.789-3.482,1.406-6.278,1.574-7.943.031-.3.046-.556.046-.765a14.407,14.407,0,0,0-.752-3.8c-.51-1.669-1.095-3.078-1.1-3.092a.878.878,0,0,1,1.621-.675c.025.061.624,1.5,1.159,3.254a15.8,15.8,0,0,1,.829,4.312,9.315,9.315,0,0,1-.055.943,82.091,82.091,0,0,1-1.608,8.154h0c0,.013-.006.026-.009.038l-.2.888c-.9,3.951-2.013,8.868-3.023,14.331a172.943,172.943,0,0,0-2.562,19.373,117.178,117.178,0,0,0-.192,14.068c.169,3.384.469,7.4.893,11.942.821,8.789,2.092,19.307,3.578,29.616a.878.878,0,0,1-.743.994A.891.891,0,0,1,2772.715,1576.38Z" transform="translate(-2767.23 -1467.918)"/></g><g transform="translate(133.685 242.199)"><path d="M2695.883,2089.463h0l-29.2-.026a.877.877,0,0,1-.74-.406c-.214-.336-5.277-8.395-9.488-23.4a.878.878,0,0,1,1.69-.475c3.616,12.881,7.966,20.708,9.034,22.522l27.459.025a130.15,130.15,0,0,1-3.625-13.887.888.888,0,0,1-.02-.185.878.878,0,0,1,1.742-.156,114.588,114.588,0,0,0,3.971,14.8.878.878,0,0,1-.822,1.186Z" transform="translate(-2656.421 -2064.52)"/></g><g transform="translate(128.721 168.728)"><path d="M2635.01,1779.786a.878.878,0,0,1-.874-.8,101.234,101.234,0,0,1,3.3-34.946,76.149,76.149,0,0,1,5.1-13.855.878.878,0,0,1,1.556.813,76.09,76.09,0,0,0-4.977,13.562,99.453,99.453,0,0,0-3.226,34.279.878.878,0,0,1-.8.948C2635.06,1779.785,2635.035,1779.786,2635.01,1779.786Z" transform="translate(-2633.8 -1729.71)"/></g><g transform="translate(115.137)"><path d="M2605.616,1087.376c-11.478,0-16.893-7.64-18.042-14.246a.893.893,0,0,0-.8-.745c-2.238-.223-13.469-1.827-14.758-11.542-.639-4.815,1.271-9.9,3.483-15.8s4.727-12.594,5.494-20.859c1.164-12.542,3.459-34.562,5.759-41.127,2.195-6.265,11.29-13.216,23.17-17.709,12.937-4.892,25.948-5.886,35.7-2.727,19.653,6.369,27.5,34.392,30.848,46.358.609,2.176,1.09,3.9,1.432,4.711,1.008,2.411,3.9,6.139,7.257,10.456,7.3,9.4,16.387,21.1,14.77,29.963a11.833,11.833,0,0,1-5.543,8.234,18.222,18.222,0,0,1-7.236,2.432,2.372,2.372,0,0,0-2.01,1.815c-.921,3.771-3.557,10.477-10.863,13.019-9.185,3.194-19.77-.09-21.8-.781a.878.878,0,1,1,.566-1.662c1.185.4,11.831,3.854,20.655.785,6.521-2.268,8.9-8.352,9.734-11.777a4.168,4.168,0,0,1,3.5-3.14c3.665-.464,10-2.281,11.272-9.24,1.477-8.093-7.717-19.929-14.429-28.571-3.43-4.416-6.392-8.229-7.49-10.856-.383-.916-.853-2.593-1.5-4.915-3.274-11.695-10.941-39.083-29.7-45.161-9.239-2.994-22.149-1.985-34.535,2.7-11.416,4.317-20.1,10.852-22.134,16.647-1.658,4.734-3.671,19.192-5.667,40.709-.789,8.5-3.344,15.307-5.6,21.313-2.129,5.671-3.967,10.569-3.386,14.949,1.115,8.4,11.184,9.826,13.192,10.026a2.665,2.665,0,0,1,2.352,2.192c1.033,5.931,5.927,12.791,16.321,12.791.119,0,.237,0,.357,0a17.388,17.388,0,0,0,12.382-4.94,16.135,16.135,0,0,0,3.447-4.862.878.878,0,0,1,1.632.648,17.565,17.565,0,0,1-3.787,5.406,19.247,19.247,0,0,1-13.647,5.5C2605.876,1087.375,2605.746,1087.376,2605.616,1087.376Z" transform="translate(-2571.895 -960.808)"/></g><g transform="translate(170.083 195.25)"><path d="M2857.162,1922.438a.879.879,0,0,1-.231-.031c-1.277-.349-20.055-6.684-28.07-9.392a5.635,5.635,0,0,1-3.6-3.739c-4.327-14.692-3.916-26.568,1.158-33.439a2.5,2.5,0,0,1,2.794-.887c8.5,2.766,59.916,19.052,75.472,23.977a2.649,2.649,0,0,0,3.447-2.507c.156-18.814-13.65-44.3-13.79-44.551a.878.878,0,0,1,1.54-.842,153.5,153.5,0,0,1,7.055,15.362c3.217,8.135,7.034,19.95,6.95,30.045a4.4,4.4,0,0,1-5.732,4.167c-15.558-4.926-66.983-21.213-75.486-23.982a.75.75,0,0,0-.839.26c-4.74,6.419-5.055,17.748-.886,31.9a3.879,3.879,0,0,0,2.481,2.572c6.1,2.062,25.8,8.712,27.858,9.328l56.724-.708h.011a.878.878,0,0,1,.011,1.755l-56.855.709Z" transform="translate(-2822.286 -1850.571)"/></g><g transform="translate(207.536 129.019)"><path d="M3086.454,1685.65h-.006a.877.877,0,0,1-.872-.884c.277-40.284-23.5-89.6-36.329-104.735-10.385-12.259-29.006-17.69-35.125-19.474-6.224-1.816-15.4-5.8-20.836-10.25a.878.878,0,1,1,1.112-1.358c5.013,4.106,13.964,8.1,20.215,9.923s25.247,7.364,35.973,20.025c12.972,15.312,37.024,65.171,36.745,105.882A.878.878,0,0,1,3086.454,1685.65Z" transform="translate(-2992.964 -1548.751)"/></g><g transform="translate(14.498 143.589)"><path d="M2186.452,1691.322q-.85,0-1.683-.046c-9.9-.548-19.6-4.358-28.83-11.325-7.524-5.68-14.792-13.493-21.6-23.222a190.4,190.4,0,0,1-21.006-40.4.878.878,0,1,1,1.647-.608,188.547,188.547,0,0,0,20.8,40c15.013,21.458,31.529,32.83,49.087,33.8,18.164,1,39.354-16.451,43.624-20.825a.878.878,0,1,1,1.256,1.226,94.833,94.833,0,0,1-16.237,12.3C2203.538,1688.267,2194.445,1691.322,2186.452,1691.322Z" transform="translate(-2113.28 -1615.149)"/></g><g transform="translate(30.89 132.968)"><path d="M2249.19,1606.975c-5.727,0-11.615-1.938-17.52-5.769a69.087,69.087,0,0,1-14.721-13.432,119.307,119.307,0,0,1-13.063-19.119l-.612.164c-1.725.461-7.845,2.1-14.183,3.847a.878.878,0,0,1-.466-1.692c6.343-1.746,12.469-3.389,14.2-3.851l1.285-.344a.877.877,0,0,1,1.009.447,115.934,115.934,0,0,0,13.2,19.438c7.389,8.719,18.9,19.013,31.744,18.54,11.024-.406,24.39-6.6,38.651-17.9a162.512,162.512,0,0,0,20.373-19.272.878.878,0,0,1,1.345,1.128,164.572,164.572,0,0,1-20.627,19.519c-14.764,11.706-28.114,17.857-39.677,18.283C2249.81,1606.97,2249.5,1606.975,2249.19,1606.975Z" transform="translate(-2187.981 -1566.748)"/></g><g transform="translate(13.967 120.414)"><path d="M2111.739,1512.092a.878.878,0,0,1-.878-.878v-.8a.878.878,0,1,1,1.756,0v.8A.878.878,0,0,1,2111.739,1512.092Z" transform="translate(-2110.861 -1509.54)"/></g><g transform="translate(17.518 112.865)"><path d="M2132.948,1507.755a9.387,9.387,0,0,1-5.545-1.8.878.878,0,0,1,1.031-1.421,7.706,7.706,0,0,0,12-4.43,7.762,7.762,0,0,0,.215-1.813v-22.278a.878.878,0,1,1,1.755,0V1498.3a9.452,9.452,0,0,1-9.46,9.46Z" transform="translate(-2127.041 -1475.14)"/></g><g transform="translate(13.967 79.75)"><path d="M2111.739,1344a.878.878,0,0,1-.878-.878v-18.018a.878.878,0,0,1,1.756,0v18.018A.878.878,0,0,1,2111.739,1344Z" transform="translate(-2110.861 -1324.23)"/></g><g transform="translate(31.13 79.75)"><path d="M2189.949,1338.009a.878.878,0,0,1-.878-.878v-12.023a.878.878,0,1,1,1.755,0v12.023A.878.878,0,0,1,2189.949,1338.009Z" transform="translate(-2189.071 -1324.23)"/></g><g transform="translate(11.104 76.846)"><path d="M2120.126,1315.659h-1.411a.878.878,0,0,1,0-1.756h1.411a.575.575,0,0,0,.573-.573.575.575,0,0,0-.573-.575h-19.984a.574.574,0,1,0,0,1.147h1.411a.878.878,0,0,1,0,1.756h-1.411a2.329,2.329,0,0,1,0-4.659h19.984a2.332,2.332,0,0,1,2.328,2.331,2.331,2.331,0,0,1-2.328,2.328Z" transform="translate(-2097.811 -1311)"/></g><g transform="translate(26.851 89.324)"><path d="M2188.681,1413.6a.878.878,0,0,1-.809-1.219c1.377-3.271,1.813-10.907.157-18.025-1.913-8.228-11.461-19.069-11.557-19.178a25.879,25.879,0,0,1-2.154-3.017,15.077,15.077,0,0,0-1.823-2.49c-.49.432-1.371,2.585-1.121,6.372.28,4.251,4.15,15.838,4.189,15.955a.878.878,0,1,1-1.665.558c-.163-.485-3.981-11.921-4.276-16.4-.29-4.4.753-7.792,2.536-8.256,1.281-.333,2.268,1.193,3.633,3.305a24.712,24.712,0,0,0,1.993,2.806c.1.112,9.941,11.288,11.954,19.945,1.581,6.8,1.474,15.012-.249,19.1A.878.878,0,0,1,2188.681,1413.6Z" transform="translate(-2169.575 -1367.861)"/></g><g transform="translate(1.222 97.267)"><path d="M2062.262,1416.53a.878.878,0,0,1-.093-1.75c1.778-.192,10.04-2.5,12.276-4.246a2.614,2.614,0,0,0,.053-4.315c-.933-.622-2.724-.4-4.62-.166-.476.059-.968.12-1.46.168a46.348,46.348,0,0,1-5.252.049,29.746,29.746,0,0,0-5.282.125,4.35,4.35,0,0,0-3.345,4.25c.04,2.13,1.934,4.3,1.953,4.326a.878.878,0,0,1-1.314,1.164c-.1-.108-2.342-2.672-2.394-5.456a6.073,6.073,0,0,1,4.742-6,29.61,29.61,0,0,1,5.687-.162,45.384,45.384,0,0,0,5.033-.041c.471-.047.953-.106,1.418-.164,2.229-.275,4.333-.536,5.809.448a4.481,4.481,0,0,1,1.892,3.476,4.427,4.427,0,0,1-1.838,3.683c-2.663,2.08-11.461,4.424-13.168,4.608A.873.873,0,0,1,2062.262,1416.53Z" transform="translate(-2052.782 -1404.058)"/></g><g transform="translate(0 107.39)"><path d="M2065.062,1465.236a19.889,19.889,0,0,1-4.833-.637.878.878,0,0,1,.43-1.7c3.59.907,6.982.745,8.852-.424a2.593,2.593,0,0,0,1.278-1.642c.444-2.12-3.07-4.527-6.507-6.073a37.483,37.483,0,0,0-9.771-2.794,5.64,5.64,0,0,0-4.2,1.337,4.117,4.117,0,0,0-1.346,3.113,5.42,5.42,0,0,0,2.9,4.658.878.878,0,0,1-.78,1.573,7.189,7.189,0,0,1-3.875-6.253,5.885,5.885,0,0,1,1.917-4.387,7.426,7.426,0,0,1,5.518-1.791,39.043,39.043,0,0,1,10.354,2.943c3.136,1.41,8.281,4.329,7.506,8.034a4.329,4.329,0,0,1-2.066,2.772A10.258,10.258,0,0,1,2065.062,1465.236Z" transform="translate(-2047.212 -1450.191)"/></g><g transform="translate(1.562 118.015)"><path d="M2071.281,1515.86a9.621,9.621,0,0,1-4.714-1.384,49.112,49.112,0,0,0-5.845-2.234c-.812-.277-1.453-.5-1.8-.629h0c-.1-.041-.215-.081-.33-.123a5.254,5.254,0,0,1-3.826-3.822c-.283-1.135-1.079-5.017.585-7.361a3.973,3.973,0,0,1,2.985-1.65,13.22,13.22,0,0,1,8.821,2.59c1.25.839,9.69,7.756,8.289,11.9a3.767,3.767,0,0,1-2.372,2.429A5.363,5.363,0,0,1,2071.281,1515.86Zm-11.725-5.885c.313.121.97.345,1.733.606a43.434,43.434,0,0,1,6.213,2.41,6.668,6.668,0,0,0,4.987.929,2.016,2.016,0,0,0,1.3-1.337c.792-2.342-5.031-8.151-7.6-9.876a11.693,11.693,0,0,0-7.684-2.3,2.212,2.212,0,0,0-1.713.918c-.979,1.378-.78,4.049-.313,5.918a3.511,3.511,0,0,0,2.726,2.6C2059.322,1509.887,2059.443,1509.931,2059.557,1509.976Z" transform="translate(-2054.328 -1498.608)"/></g><g transform="translate(4.605 129.255)"><path d="M2078.888,1565.92a6.05,6.05,0,0,1-.819-.057c-4.076-.556-8.531-5.11-9.3-7.269a12.4,12.4,0,0,1,.307-8.232.878.878,0,0,1,1.615.69,10.6,10.6,0,0,0-.268,6.953c.621,1.746,4.662,5.68,7.883,6.119a3.076,3.076,0,0,0,3.174-1.357,3.251,3.251,0,0,0,.369-2.616,10.536,10.536,0,0,0-2.848-4.91.878.878,0,0,1,.525-1.672c.978.245,2.863,2.788,3.667,4.949.775,2.081.679,3.9-.278,5.26A4.748,4.748,0,0,1,2078.888,1565.92Zm.211-10.649h0Zm-.122-.046Z" transform="translate(-2068.197 -1549.828)"/></g><g transform="translate(174.666 59.855)"><ellipse cx="3.527" cy="6.16" rx="3.527" ry="6.16"/></g><g transform="translate(143.631 60.182)"><ellipse cx="3.527" cy="6.16" rx="3.527" ry="6.16"/></g><g transform="translate(172.269 265.361)"><path d="M2833.128,2171.852a.878.878,0,0,1,0-1.756l31.811-.025h0a.878.878,0,0,1,0,1.755l-31.811.026Z" transform="translate(-2832.251 -2170.071)"/></g></g></g><g transform="translate(281.386 235.63)"><g transform="translate(0.882 0.879)"><path d="M1170.407,674.13v3.325c-2.782-.7-4.773-1.174-4.773-1.174l-.193,0a2.068,2.068,0,0,1,1.264-1.288A15.606,15.606,0,0,1,1170.407,674.13Z" transform="translate(-1111.3 -578.784)" fill="#fff"/><path d="M2391.444,684.14l-3.327,94.612-7.336,2.469,2.611-94.588Z" transform="translate(-2059.946 -586.597)" fill="#fff"/><path d="M2375.475,676.715l4.354.634-8.051,2.493-5.822-.93a4.757,4.757,0,0,1-.055-.733,4.893,4.893,0,0,1,.836-2.739l1.363.2,7.373,1.075Z" transform="translate(-2048.331 -579.806)" fill="#fff"/><path d="M2163.483,660.358l7.6,1.214,7.459,1.194,7.5,1.2,5.822.93-2.611,94.588-52.53-13.943-.441-.38.92-1.176a2.761,2.761,0,0,0,.474-2.491,26.5,26.5,0,0,0-2.269-5.315l.863-26.109a1.946,1.946,0,0,1,.777-.441c3.3-.974,8.444-.946,11.036-3.1,2.238-1.854,3.011-8.484-7.428-7.731a14.974,14.974,0,0,0-4.042.941l1.435-43.451,2.976.476,7.45,1.192,7.533,1.2Z" transform="translate(-1868.411 -564.859)" fill="#fff"/><path d="M2333.837,670.6l6.212.906a4.893,4.893,0,0,0-.836,2.739,4.757,4.757,0,0,0,.055.733l-7.5-1.2a4.808,4.808,0,0,1-.059-.759,4.874,4.874,0,0,1,.759-2.62l1.277.187Z" transform="translate(-2021.643 -575.872)" fill="#fff"/><path d="M2305.893,666.6l.186.026a4.876,4.876,0,0,0-.759,2.62,4.807,4.807,0,0,0,.059.759l-7.459-1.194q-.02-.214-.02-.434a4.877,4.877,0,0,1,.889-2.813l1.08.158h0Z" transform="translate(-1995.252 -572.095)" fill="#fff"/><path d="M2271.713,661.607l.077.011a4.877,4.877,0,0,0-.889,2.813q0,.221.02.435l-7.6-1.214q-.013-.178-.013-.362a4.874,4.874,0,0,1,.867-2.78h0l1.172.169.042.007Z" transform="translate(-1968.253 -568.153)" fill="#fff"/><path d="M2231.223,655.7l6.362.93a4.874,4.874,0,0,0-.867,2.78q0,.184.013.362l-7.483-1.2c0-.083-.007-.169-.007-.255a4.864,4.864,0,0,1,.867-2.78h0l1.11.16Z" transform="translate(-1941.659 -564.273)" fill="#fff"/><path d="M1229.478,1664.1l-9.664,111.134H944.3l.215-13.05h159.551l3.963-41.764,5.346-56.32Z" transform="translate(-938.688 -1351.514)" fill="#fff"/><path d="M2196.651,650.708l6.684.977a4.863,4.863,0,0,0-.867,2.78c0,.086,0,.171.007.255l-7.533-1.2v-.011a4.863,4.863,0,0,1,.957-2.905l.75.108Z" transform="translate(-1914.886 -560.417)" fill="#fff"/><path d="M2166.833,648.89l2.565.375a4.865,4.865,0,0,0-.957,2.905v.011l-7.45-1.192a4.674,4.674,0,0,1,.285-1.078Z" transform="translate(-1888.386 -559.083)" fill="#fff"/><path d="M2061.689,861.067l-.862,26.109c-6.535-11.769-20.965-19.794-20.965-19.794s12.142-12.956,22.17-16.642a14.977,14.977,0,0,1,4.042-.941c10.439-.753,9.667,5.877,7.428,7.731-2.592,2.15-7.74,2.122-11.035,3.1A1.945,1.945,0,0,0,2061.689,861.067Z" transform="translate(-1793.837 -715.858)" fill="#fff"/><path d="M1428.657,910.424l12.914,107.148-3.963,41.764h-43.732q.148-5.174.23-10.509c.112-7.077.138-14.338.094-21.7-.039-6.86-.141-13.809-.292-20.783-.154-7.081-.358-14.187-.6-21.248-.25-7.25-.547-14.455-.871-21.538-.327-7.105-.685-14.088-1.06-20.875-.423-7.656-.871-15.06-1.325-22.109-.481-7.465-.968-14.529-1.442-21.064-.27-3.755-.538-7.336-.8-10.717-.285-3.735-.56-7.226-.818-10.443-.823-10.208-1.488-17.656-1.824-21.3q-.02-.22-.039-.421c-.525-5.668-1.657-12.673-3.134-20.206-1.33-6.785-2.938-14-4.635-21.044-1.837-7.63-3.772-15.067-5.565-21.553q-.092-.336-.184-.665v0c1.121-12.42,3.57-22.346,6.335-29.491,2.774,2.853,8.33,6.12,13.342,8.6,4.562,2.256,25.17,6.77,35.672,16.8,10.32,9.857,23.572,43.12,26.627,65.328a2.887,2.887,0,0,0,4.85,1.69c14.1-13.4,58.314-55.334,59.815-55.887,0,0,14.43,8.025,20.965,19.794a26.5,26.5,0,0,1,2.269,5.315,2.76,2.76,0,0,1-.474,2.491q-.382.487-.919,1.176c-8.808,11.251-47.735,60.923-50.9,64.048-1.494,1.475-26.653,29.679-60.533,17.408Z" transform="translate(-1272.228 -648.667)" fill="#fff"/><path d="M1451.821,1890.353h-6.39V1869.57h6.1C1451.681,1876.544,1451.782,1883.493,1451.821,1890.353Z" transform="translate(-1329.849 -1511.896)" fill="#c6c6c6"/><path d="M1445.431,2063.18h6.3q-.082,5.329-.23,10.509h-6.065Z" transform="translate(-1329.849 -1663.02)" fill="#c6c6c6"/><path d="M1450.926,1696.128h-5.495V1674.59h4.624C1450.379,1681.674,1450.676,1688.878,1450.926,1696.128Z" transform="translate(-1329.849 -1359.702)" fill="#c6c6c6"/><path d="M1125.581,240.028c24.075,2.445,33.322,18.119,32.163,28.683-.753,6.866-7.5,10.772-15.905,8.982l-.013,0a12.889,12.889,0,0,0-2.289-.595c-12.493-3.818-19.765-15.712-22.725-19.881-3.456-4.867-11.78-4.47-14.459-1.65-1.428,1.5.351,4.189-.3,5.2-.7,1.093-2.245.858-2.949,1.069s-1.975.529-1.835,2.153,3.386,3.6,3.456,5.925-2.554,4.65-3.173,6.489a9.182,9.182,0,0,0,.285,5.284,13.169,13.169,0,0,0-2.271,12.776c-1.4-2.025-4.6-4.589-6.939-4.095-2.265.478-5.324,4.937-4.972,11.27s3.669,9.256,5.714,10.384,5.447-1.246,5.447-1.246a48.644,48.644,0,0,0,3.171,14.2,8.613,8.613,0,0,0-1.047-1.007c-3.864-3.23-13.3-7.652-17.305-13.182-14.529-20.066-6.289-48.738-2.962-53.64,2.809-4.139,5.951-5.126,8.547-5.144a4.55,4.55,0,0,0,3.364-1.573C1094.271,243.963,1105.9,238.029,1125.581,240.028Z" transform="translate(-1037.837 -239.634)"/><path d="M1448.995,1500.819h-3.564V1478.71h2.238C1448.124,1485.758,1448.571,1493.162,1448.995,1500.819Z" transform="translate(-1329.849 -1206.806)" fill="#c6c6c6"/><path d="M1330.643,693.688a2.662,2.662,0,0,1,.711,3.63,47.4,47.4,0,0,0-4,8.2c-2.765,7.145-5.214,17.07-6.335,29.491-.959-3.452-1.872-6.625-2.7-9.4-1.385-4.613-2.541-8.121-3.294-9.989-.107-.266-.228-.553-.36-.865h0c-.786-1.839-2.006-4.424-3.243-7.035-2.126-4.485-4.314-9.054-4.481-10.061a50.779,50.779,0,0,1-.044-6.555,19.964,19.964,0,0,0,7.678-1.935v0S1325.6,690.265,1330.643,693.688Z" transform="translate(-1221.64 -590.523)" fill="#fff"/><path d="M1333.631,412.318a13.151,13.151,0,0,1,.244,20.555v0a13.154,13.154,0,0,1-21.312-8.06,13.16,13.16,0,0,1,12.984-15.275,12.949,12.949,0,0,1,2.157.178q1.116.342,2.289.595a13.147,13.147,0,0,1,3.638,2Z" transform="translate(-1226.004 -372.256)" fill="#fff"/><path d="M1189.481,480.488c.018,5.35-.022,10.417-.178,13.318-.353,6.572-4.428,19.736-14.76,24.709a19.965,19.965,0,0,1-7.678,1.935c-.138.007-.279.013-.419.018-11.933.41-20.325-4.624-24.683-15.26a48.644,48.644,0,0,1-3.171-14.2s-3.4,2.374-5.447,1.246-5.361-4.053-5.714-10.384,2.708-10.792,4.973-11.27c2.341-.494,5.539,2.069,6.939,4.095a13.156,13.156,0,0,0,25.378-2.221h0a2.371,2.371,0,0,1,3.445-.046,13.154,13.154,0,0,0,21.312,8.06Z" transform="translate(-1081.611 -419.868)" fill="#fff"/><path d="M1375.772,1135.8c.806,1.946.4,3.055-.448,3.829s-3.024.244-4.248-.731a40.682,40.682,0,0,1-3.915-4.011,4.786,4.786,0,0,1,4.76-4.624C1374.135,1133.295,1375.594,1135.369,1375.772,1135.8Z" transform="translate(-1268.755 -934.82)" fill="#fff"/><path d="M1231.795,999.383c-.127.083-.257.176-.391.272A4.262,4.262,0,0,0,1231.795,999.383Zm-12.969,35.488c-1.325,3.219-2.328,6.16-2.853,7.661-.468-.667-.966-1.352-1.5-2.043,0,0,0,0,0,0-4.487-5.857-11.216-12.348-20.243-15.045,0,0,9.063-17.119,16.182-25.51a25.874,25.874,0,0,1,2.921-3.006c.145-.123.29-.244.434-.36a31.773,31.773,0,0,1,2.655-1.962c5.813-3.831,10.371-3.777,11.536-1.771l.235.6a12.351,12.351,0,0,1,2.256-.566,3.747,3.747,0,0,1,2.456.334h0a2.3,2.3,0,0,1,.459.353c.689.682.858,3.956-1.565,5.826.141-.1.279-.187.413-.268,1.764-1.08,3.939-.753,4.689.283s.566,3.349-1.3,5.043c-.037.033-.083.077-.141.129,0,0,2.311-.382,3.127.54.915,1.036.338,3.254-.707,4.233-.825.772-2.633,2.62-4.751,4.9-.338.364-.687.742-1.04,1.128-1.58,1.734-3.27,3.641-4.812,5.484a57.064,57.064,0,0,0-4.457,5.905A57.646,57.646,0,0,0,1218.826,1034.871Z" transform="translate(-1133.772 -826.495)" fill="#fff"/><path d="M1349.633,1100.35c1.824,2.447,3.483,4.689,4.85,6.563a4.786,4.786,0,0,0-4.76,4.624c-.542-.608-1.119-1.268-1.729-1.97-.985-1.141-2.052-2.394-3.173-3.733C1346.364,1103.99,1348.053,1102.083,1349.633,1100.35Z" transform="translate(-1251.317 -911.474)" fill="#fff"/><path d="M1231.794,326.374a12.951,12.951,0,0,0-2.157-.178,13.16,13.16,0,0,0-12.984,15.275,2.371,2.371,0,0,0-3.445.046h0a13.154,13.154,0,0,0-23.107-10.555,9.182,9.182,0,0,1-.285-5.284c.619-1.839,3.243-4.163,3.173-6.489s-3.316-4.3-3.456-5.925,1.128-1.94,1.835-2.153,2.251.024,2.949-1.069c.647-1.012-1.132-3.7.3-5.2,2.679-2.82,11-3.217,14.459,1.65C1212.029,310.662,1219.3,322.556,1231.794,326.374Z" transform="translate(-1130.094 -288.912)" fill="#fff"/><rect width="18.905" height="21.703" transform="translate(96.678 378.457)" fill="#555"/><rect width="18.905" height="21.248" transform="translate(96.678 336.426)" fill="#555"/><rect width="18.905" height="20.875" transform="translate(96.678 294.012)" fill="#555"/><rect width="18.905" height="21.064" transform="translate(96.678 250.839)" fill="#555"/><path d="M1377.367,1210.513h-18.086v-21.3h16.263C1375.88,1192.857,1376.545,1200.3,1377.367,1210.513Z" transform="translate(-1262.604 -980.834)" fill="#555"/><path d="M1377.179,1020.354h-10.41c2.118-2.284,3.926-4.132,4.751-4.9,1.044-.979,1.622-3.2.707-4.233-.816-.922-3.127-.54-3.127-.54.057-.053.1-.1.141-.129,1.87-1.694,2.056-4.009,1.3-5.043s-2.925-1.363-4.689-.283c-.134.081-.272.171-.413.268,2.423-1.87,2.254-5.144,1.565-5.826a2.3,2.3,0,0,0-.459-.353h6C1374.241,1006.356,1375.849,1013.569,1377.179,1020.354Z" transform="translate(-1267.412 -832.606)" fill="#555"/><path d="M1362.171,865.294h-2.89V855.23h0c.832,2.772,1.745,5.945,2.7,9.4v0Q1362.079,864.958,1362.171,865.294Z" transform="translate(-1262.604 -720.143)" fill="#555"/><path d="M1291.8,1869.57v20.783h-18.971c.208-6.294.426-13.276.643-20.783Z" transform="translate(-1195.125 -1511.896)" fill="#c6c6c6"/><path d="M1296.149,1674.59v21.538H1278.4c.178-6.954.351-14.165.513-21.538h17.235Z" transform="translate(-1199.472 -1359.702)" fill="#c6c6c6"/><path d="M1299.514,1478.71v22.109h-16.8c.138-7.338.266-14.738.375-22.109Z" transform="translate(-1202.836 -1206.806)" fill="#c6c6c6"/><path d="M1301.8,1286.29v21.161h-16.16c.055-5.223.1-10.386.129-15.455,1.53-2.148,2.87-4.077,3.974-5.705Z" transform="translate(-1205.123 -1056.611)" fill="#c6c6c6"/><path d="M1451.821,1964.28c.044,7.364.017,14.626-.094,21.7h-6.3v-21.7Z" transform="translate(-1329.849 -1585.823)" fill="#888"/><path d="M1451.529,1793.988h-6.1V1772.74h5.495C1451.172,1779.8,1451.376,1786.907,1451.529,1793.988Z" transform="translate(-1329.849 -1436.314)" fill="#888"/><path d="M1450.055,1600.335h-4.624V1579.46h3.564C1449.37,1586.247,1449.728,1593.23,1450.055,1600.335Z" transform="translate(-1329.849 -1285.448)" fill="#888"/><path d="M1447.669,1403.784h-2.238V1382.72h.8C1446.7,1389.255,1447.189,1396.319,1447.669,1403.784Z" transform="translate(-1329.849 -1131.88)" fill="#888"/><rect width="18.905" height="10.509" transform="translate(96.678 400.16)" fill="#888"/><rect width="18.905" height="20.783" transform="translate(96.678 357.674)" fill="#888"/><rect width="18.905" height="21.538" transform="translate(96.678 314.888)" fill="#888"/><rect width="18.905" height="22.109" transform="translate(96.678 271.904)" fill="#888"/><path d="M1378.186,1296.733v10.718h-18.9V1286.29h18.086C1377.626,1289.507,1377.9,1293,1378.186,1296.733Z" transform="translate(-1262.604 -1056.611)" fill="#888"/><path d="M1375.544,1115.838h-16.263v-10.283c.61.7,1.187,1.363,1.729,1.971a40.673,40.673,0,0,0,3.915,4.011c1.224.974,3.4,1.508,4.248.731s1.253-1.883.448-3.829c-.178-.428-1.637-2.5-3.851-5.536-1.367-1.874-3.026-4.117-4.85-6.563.353-.386.7-.764,1.04-1.128h10.41c1.477,7.533,2.609,14.538,3.134,20.206Q1375.524,1115.617,1375.544,1115.838Z" transform="translate(-1262.604 -907.462)" fill="#888"/><path d="M1367.736,922.643h-6a3.747,3.747,0,0,0-2.456-.334V901.09h2.89C1363.964,907.577,1365.9,915.014,1367.736,922.643Z" transform="translate(-1262.604 -755.94)" fill="#888"/><path d="M1278.394,816.624h0v10.064H1258.42l-.033,0c-1.172-7.07-2.311-14.47-2.736-20.919l.031,0h19.058c.132.312.252.6.36.865C1275.853,808.5,1277.009,812.011,1278.394,816.624Z" transform="translate(-1181.714 -681.537)" fill="#888"/><path d="M1287.025,1985.983v10.509h-20.314c.3-3.928.792-15.688,1.343-32.212h18.971Z" transform="translate(-1190.347 -1585.823)" fill="#888"/><path d="M1294.089,1772.74v21.248h-18.328c.2-6.706.391-13.829.579-21.248Z" transform="translate(-1197.411 -1436.314)" fill="#888"/><path d="M1297.976,1579.46v20.875h-17.235c.154-6.847.3-13.833.432-20.875Z" transform="translate(-1201.298 -1285.448)" fill="#888"/><path d="M1300.848,1382.72v21.064h-16.427c.105-7.075.2-14.121.268-21.064Z" transform="translate(-1204.171 -1131.88)" fill="#888"/><path d="M1307.788,1189.21v21.3h-12.056c.573-.843,1.08-1.606,1.519-2.276a4.484,4.484,0,0,0,.226-4.529,61.429,61.429,0,0,0-4.165-6.838c.525-1.5,1.527-4.442,2.853-7.661Z" transform="translate(-1211.11 -980.834)" fill="#888"/><path d="M1317.935,1129.073v10.283h-11.624a57.678,57.678,0,0,1,3.994-8.11,57.049,57.049,0,0,1,4.457-5.905C1315.883,1126.679,1316.949,1127.932,1317.935,1129.073Z" transform="translate(-1221.258 -930.98)" fill="#c6c6c6"/><path d="M1288.125,901.09v21.22a12.35,12.35,0,0,0-2.256.566l-.235-.6c-1.165-2.006-5.723-2.061-11.536,1.771-1.077-1.413-2.1-2.75-3.039-3.976-.555-5.133-1.762-11.889-2.938-18.977l.033,0Z" transform="translate(-1191.448 -755.94)" fill="#c6c6c6"/><path d="M1274.114,748.867h-19.056l-.031,0c-.138-2.078-.2-4.057-.167-5.894,0,0,2.5.257,3.759-.955,2.221-2.14,2.5-9.151,2.5-9.151s.446,8.822,4.514,9.644a8.187,8.187,0,0,0,5.234-.682C1272.108,744.443,1273.328,747.028,1274.114,748.867Z" transform="translate(-1181.09 -624.634)" fill="#c6c6c6"/><path d="M1288.7,727.86c.167,1.007,2.354,5.576,4.481,10.061a8.188,8.188,0,0,1-5.234.682c-4.068-.823-4.514-9.644-4.514-9.644A17.567,17.567,0,0,0,1288.7,727.86Z" transform="translate(-1203.398 -620.723)" fill="#2a2a2a"/><path d="M974.216,699.744a62.41,62.41,0,0,1-1.461-15.205,2,2,0,0,1,.105-.619l.193,0s1.99.472,4.773,1.174c6.392,1.619,16.967,4.466,17.162,5.644a9.545,9.545,0,0,1-.61,3.544c-.472,1.593-1.08,3.36-1.365,4.826a33.229,33.229,0,0,0-.524,5.657c-.033,1.837.029,3.816.167,5.894.426,6.449,1.565,13.849,2.736,20.919,1.176,7.088,2.383,13.844,2.938,18.977q-.54-.708-1.045-1.363c-2.53-3.294-4.312-5.578-4.742-6.072a5.1,5.1,0,0,0-4.74-1.826h0l-2.921-3.531a1.481,1.481,0,0,0-2.282,1.887l2.905,3.515a4.61,4.61,0,0,0,.235,4,5.962,5.962,0,0,0,.318.538c.511.768,2.506,3.41,5.31,7.037,1.2,1.551,2.548,3.281,3.992,5.122-7.119,8.391-16.182,25.51-16.182,25.51,9.028,2.7,15.756,9.188,20.243,15.045,0,0,0,0,0,0,.533.691,1.031,1.376,1.5,2.043a61.44,61.44,0,0,1,4.165,6.838,4.485,4.485,0,0,1-.226,4.529c-.439.669-.946,1.433-1.518,2.276-1.1,1.628-2.445,3.557-3.974,5.705-12.221,17.151-36.519,48.2-48.578,50.063a28.694,28.694,0,0,1-19.076-3.581,25.292,25.292,0,0,1-12.523-18.613c-1.477-12.308.353-81.083,7.972-95.472C934.741,739.886,973.834,700.132,974.216,699.744Z" transform="translate(-918.719 -586.426)" fill="#fff"/><path d="M1213.8,640.207c.141,0,.281-.011.419-.018a50.8,50.8,0,0,0,.044,6.555,17.565,17.565,0,0,1-5.267,1.1,14.214,14.214,0,0,1-4.373-.377,9.546,9.546,0,0,0,.61-3.544c-.2-1.178-10.77-4.025-17.162-5.644V623.94a8.6,8.6,0,0,1,1.047,1.007C1193.476,635.584,1201.867,640.617,1213.8,640.207Z" transform="translate(-1128.964 -539.608)" fill="#fff"/><path d="M1204.7,422.693a13.154,13.154,0,1,1-13.153-13.153A13.057,13.057,0,0,1,1204.7,422.693Z" transform="translate(-1121.408 -372.256)" fill="#fff"/><path d="M1018.938,1348.809c-.11,7.371-.237,14.771-.375,22.109-.134,7.042-.279,14.029-.432,20.875-.162,7.373-.336,14.584-.514,21.538-.189,7.419-.384,14.542-.579,21.248-.217,7.507-.435,14.49-.643,20.783-.551,16.524-1.042,28.284-1.343,32.212H944.517c-1.692-16.787,7.165-128.8,7.165-128.8v0a28.7,28.7,0,0,0,19.076,3.581c12.058-1.865,36.357-32.912,48.578-50.063-.031,5.069-.075,10.233-.129,15.455C1019.133,1334.688,1019.043,1341.734,1018.938,1348.809Z" transform="translate(-938.688 -1076.906)" fill="#fff"/><path d="M1259.783,986.719a31.811,31.811,0,0,0-2.655,1.962c-.145.116-.29.237-.435.36a25.878,25.878,0,0,0-2.921,3.006c-1.444-1.841-2.791-3.57-3.992-5.122,0,0,4.373-2.188,5.918-5.545q.5.655,1.045,1.363C1257.685,983.969,1258.706,985.306,1259.783,986.719Z" transform="translate(-1177.133 -818.611)" fill="#fff"/><path d="M1261.154,731.527s-.283,7.011-2.5,9.151c-1.26,1.211-3.759.955-3.759.955a33.235,33.235,0,0,1,.524-5.657c.285-1.466.893-3.232,1.365-4.826A14.216,14.216,0,0,0,1261.154,731.527Z" transform="translate(-1181.121 -623.291)" fill="#2a2a2a"/><path d="M1228.86,946.944c.43.494,2.212,2.778,4.742,6.072-1.545,3.357-5.918,5.545-5.918,5.545-2.8-3.627-4.8-6.269-5.311-7.037a5.918,5.918,0,0,1-.318-.538,4.609,4.609,0,0,1-.235-4,3.4,3.4,0,0,1,.968-1.281,3.07,3.07,0,0,1,1.33-.59h0A5.1,5.1,0,0,1,1228.86,946.944Z" transform="translate(-1155.035 -790.247)" fill="#fff"/><path d="M1210.894,927.388l2.921,3.531a3.071,3.071,0,0,0-1.33.59,3.406,3.406,0,0,0-.968,1.282l-2.905-3.515a1.481,1.481,0,1,1,2.282-1.887Z" transform="translate(-1144.732 -776.047)" fill="#646464"/><path d="M1267.252,2063.18h19.773v10.509h-20.314Z" transform="translate(-1190.348 -1663.02)" fill="#c6c6c6"/></g><g transform="translate(0 0)"><g transform="translate(56.988 37.284)"><path d="M1188.427,433.6a14.032,14.032,0,1,1,14.032-14.032A14.048,14.048,0,0,1,1188.427,433.6Zm0-26.309a12.277,12.277,0,1,0,12.277,12.277A12.29,12.29,0,0,0,1188.427,407.292Z" transform="translate(-1174.395 -405.536)"/></g><g transform="translate(86.392 37.284)"><path d="M1322.424,433.6a14.032,14.032,0,1,1,14.032-14.032A14.048,14.048,0,0,1,1322.424,433.6Zm0-26.309a12.277,12.277,0,1,0,12.277,12.277A12.29,12.29,0,0,0,1322.424,407.292Z" transform="translate(-1308.392 -405.536)"/></g><g transform="translate(83.12 51.806)"><path d="M1294.358,474.264a.876.876,0,0,1-.63-1.486,3.682,3.682,0,0,1,2.422-1.065,3.157,3.157,0,0,1,2.271,1.01.878.878,0,0,1-1.241,1.242,1.457,1.457,0,0,0-2.2.043A.882.882,0,0,1,1294.358,474.264Z" transform="translate(-1293.48 -471.713)"/></g><g transform="translate(81.344 82.015)"><path d="M1293.611,618.513a8.241,8.241,0,0,1-8.213-7.371,1.6,1.6,0,0,1,1.585-1.767h13.256a1.6,1.6,0,0,1,1.585,1.767A8.241,8.241,0,0,1,1293.611,618.513Zm-6.446-7.383a6.506,6.506,0,0,0,12.893,0Zm13.074,0h0Z" transform="translate(-1285.389 -609.375)"/></g><g transform="translate(78.797 72.437)"><path d="M1274.968,573.109a1.193,1.193,0,0,1-1.13-1.565c1.058-3.326,5.42-5.818,10.641-5.818s9.583,2.492,10.641,5.818a1.193,1.193,0,0,1-1.13,1.565Z" transform="translate(-1273.78 -565.727)"/></g><g transform="translate(70.616 49.847)"><ellipse cx="4.331" cy="5.854" rx="4.331" ry="5.854"/></g><g transform="translate(97.889 49.847)"><ellipse cx="4.331" cy="5.854" rx="4.331" ry="5.854"/></g><g transform="translate(85.766 52.313)"><path d="M1311.328,495.156a.9.9,0,0,1-.127-.009.878.878,0,0,1-.742-1,4.624,4.624,0,0,0-.058-1.546,28.032,28.032,0,0,0-1.43-3.26c-.7-1.466-1.493-3.129-2.184-4.833-1.368-3.372-1.642-7.457-.666-9.934a.878.878,0,0,1,1.633.644c-.7,1.765-.693,5.3.659,8.629.672,1.655,1.453,3.293,2.142,4.737a27.014,27.014,0,0,1,1.543,3.569,6.31,6.31,0,0,1,.1,2.246A.878.878,0,0,1,1311.328,495.156Z" transform="translate(-1305.538 -474.023)"/></g><g transform="translate(51.388 57.632)"><path d="M1151.628,506.521a.57.57,0,0,1,0-.093v-.851c-.007-.334-.01-.672-.049-1.01a8.7,8.7,0,0,0-.438-2,9.189,9.189,0,0,0-.878-1.892c-.169-.31-.386-.59-.587-.884a5.122,5.122,0,0,0-.334-.418l-.343-.416-.026-.031a.4.4,0,0,1,.58-.559c.287.256.591.5.864.777a9.807,9.807,0,0,1,.784.873,10.192,10.192,0,0,1,2.051,4.281,9.278,9.278,0,0,1,.188,1.206,6.163,6.163,0,0,1,.009.62c0,.1-.01.209-.026.316-.006.053-.012.105-.022.163s-.018.106-.034.185a.857.857,0,0,1-1.676.013Z" transform="translate(-1148.876 -498.26)"/></g><g transform="translate(45.799 50.672)"><path d="M1161.979,518.251c-11.721,0-19.84-5.32-24.146-15.828a48.24,48.24,0,0,1-3.1-13.075c-1.341.689-3.479,1.468-5.131.557-1.721-.949-5.767-3.931-6.167-11.1-.354-6.4,2.7-11.552,5.667-12.178,2.837-.6,6.356,2.3,7.842,4.455a.878.878,0,1,1-1.444,1c-1.261-1.825-4.167-4.128-6.035-3.735-1.673.354-4.617,4.224-4.277,10.363.351,6.3,3.8,8.856,5.262,9.664,1.273.7,3.753-.664,4.521-1.2a.878.878,0,0,1,1.376.644,47.986,47.986,0,0,0,3.109,13.943c4.165,10.166,12.186,15.115,23.841,14.716,15.609-.538,21.57-17.636,22.01-25.832.138-2.562.2-7.027.176-13.27a.878.878,0,1,1,1.755-.006c.021,6.276-.039,10.774-.179,13.37-.469,8.72-6.88,26.913-23.7,27.492Q1162.661,518.251,1161.979,518.251Z" transform="translate(-1123.41 -466.544)"/></g><g transform="translate(107.632 40.061)"><path d="M1406.06,419.947a.877.877,0,0,1-.878-.877v0a.878.878,0,1,1,.878.879Z" transform="translate(-1405.182 -418.19)"/></g><g transform="translate(33.493)"><path d="M1094.872,322.727a.876.876,0,0,1-.669-.309c-1.042-1.226-3.464-2.756-6.268-4.527-4.179-2.639-9.38-5.924-12.125-9.716-7.945-10.972-8.922-24.044-8.343-33.078.66-10.295,3.592-18.958,5.365-21.571,2.473-3.644,5.591-5.5,9.268-5.528a3.666,3.666,0,0,0,2.71-1.276,31.253,31.253,0,0,1,13.626-8.625c6.85-2.3,14.964-3,24.115-2.067,15.155,1.539,23.292,7.987,27.449,13.126,4.092,5.057,6.1,11.081,5.5,16.527a10.7,10.7,0,0,1-4.443,7.712c-3.238,2.341-7.684,3.063-12.517,2.033-13.123-2.8-20.949-14.149-24.71-19.605-.316-.458-.6-.869-.851-1.224a8.768,8.768,0,0,0-6.661-3.328c-2.667-.189-5.257.523-6.445,1.774-.485.511-.354,1.364-.115,2.512a3.4,3.4,0,0,1-.077,2.556,3.486,3.486,0,0,1-2.876,1.361,3.948,3.948,0,0,0-.561.077l-.078.023c-.907.269-1.2.482-1.134,1.212a5.365,5.365,0,0,0,1.277,1.887c1,1.167,2.134,2.489,2.182,4.087.052,1.723-1.037,3.312-2,4.714a10.042,10.042,0,0,0-1.222,2.082,8.364,8.364,0,0,0,.276,4.7.878.878,0,0,1-1.645.612,10.024,10.024,0,0,1-.295-5.872,11.051,11.051,0,0,1,1.438-2.515c.849-1.238,1.726-2.518,1.691-3.668-.03-.979-.949-2.052-1.76-3a5.745,5.745,0,0,1-1.693-2.878,2.8,2.8,0,0,1,2.384-3.047l.073-.022a4.758,4.758,0,0,1,.9-.142c.754-.073,1.308-.155,1.566-.559a4.417,4.417,0,0,0-.163-1.253c-.251-1.208-.6-2.862.56-4.079,1.554-1.636,4.633-2.545,7.843-2.316a10.5,10.5,0,0,1,7.968,4.062c.256.361.544.779.865,1.244,3.632,5.269,11.19,16.234,23.631,18.885,4.343.925,8.292.308,11.123-1.738a8.987,8.987,0,0,0,3.727-6.48c.546-4.984-1.32-10.536-5.119-15.232-3.947-4.879-11.707-11.005-26.261-12.483-21.854-2.22-32.089,5.378-36.245,10.105a5.422,5.422,0,0,1-4.017,1.872c-3.107.02-5.667,1.576-7.827,4.758-2.886,4.253-11.576,32.576,2.947,52.634,2.547,3.517,7.589,6.7,11.641,9.261,2.925,1.848,5.452,3.444,6.668,4.874a.878.878,0,0,1-.668,1.446Z" transform="translate(-1067.33 -235.63)"/></g><g transform="translate(54.029 95.346)"><path d="M1164.614,693.736a.877.877,0,0,1-.8-.506c-2.82-6.026-2.965-15.625-2.9-19.473a2.962,2.962,0,0,1,1.948-2.718,16.5,16.5,0,0,1,3.933-.91.878.878,0,0,1,.136,1.75h0a15.014,15.014,0,0,0-3.474.811,1.2,1.2,0,0,0-.788,1.1c-.066,3.725.067,13,2.731,18.7a.878.878,0,0,1-.795,1.25Z" transform="translate(-1160.911 -670.127)"/></g><g transform="translate(76.368 235.385)"><path d="M1263.59,1485.33l-.068,0a.878.878,0,0,1-.808-.942c.953-12.492,3.844-104.478,4.281-175.223a.878.878,0,0,1,.878-.872h.005a.877.877,0,0,1,.872.883c-.446,72.176-3.3,162.475-4.286,175.347A.878.878,0,0,1,1263.59,1485.33Z" transform="translate(-1262.711 -1308.29)"/></g><g transform="translate(80.706 213.992)"><path d="M1283.359,1212.558a.878.878,0,0,1-.878-.88h0a.878.878,0,1,1,.878.88Z" transform="translate(-1282.481 -1210.8)"/></g><g transform="translate(54.338 97.497)"><path d="M1188.474,748.32a.878.878,0,0,1-.872-.783c-.447-4.139-1.33-9.394-2.266-14.956-1.753-10.427-3.74-22.244-3.581-30.945a34.165,34.165,0,0,1,.54-5.808,36.59,36.59,0,0,1,.994-3.627c.134-.433.267-.863.391-1.28a11.853,11.853,0,0,0,.6-2.973c-.5-.366-3.091-1.71-16.53-5.115-2.743-.692-4.74-1.166-4.76-1.171a.878.878,0,1,1,.4-1.708c.02,0,2.029.481,4.785,1.177,17.5,4.433,17.679,5.542,17.814,6.352a9.813,9.813,0,0,1-.635,3.937c-.126.424-.261.861-.4,1.3a35.6,35.6,0,0,0-.948,3.443,32.448,32.448,0,0,0-.508,5.505c-.157,8.538,1.816,20.271,3.556,30.622.94,5.589,1.827,10.869,2.28,15.059a.877.877,0,0,1-.874.972Zm-4.1-60.3Z" transform="translate(-1162.32 -679.929)"/></g><g transform="translate(59.111 84.333)"><path d="M1184.949,636.034a.878.878,0,0,1-.878-.878V620.817a.878.878,0,1,1,1.756,0v14.339A.878.878,0,0,1,1184.949,636.034Z" transform="translate(-1184.071 -619.939)"/></g><g transform="translate(0 113.317)"><path d="M943.023,926.265a28.93,28.93,0,0,1-17.6-5.873,25.711,25.711,0,0,1-10.247-17.454c-.72-6-.706-25.716.571-47.112.872-14.612,3.006-40.392,7.5-48.875,7.591-14.338,45.593-53.029,47.207-54.669a.878.878,0,1,1,1.251,1.231c-.393.4-39.436,40.148-46.906,54.26-3.214,6.07-5.805,23.173-7.3,48.159-1.231,20.627-1.294,40.851-.58,46.8a23.97,23.97,0,0,0,9.565,16.265,27.5,27.5,0,0,0,21.029,5.167c13.371-2.07,43.872-42.986,53.47-57.657a3.614,3.614,0,0,0,.183-3.644c-3.053-5.862-11.73-19.912-26.324-23.759a1.979,1.979,0,0,0-2,.62c-7.317,8.322-43.913,49.955-45.823,52.247a.878.878,0,1,1-1.348-1.124c1.924-2.309,38.533-43.957,45.853-52.282a3.726,3.726,0,0,1,3.765-1.158c15.272,4.025,24.272,18.576,27.433,24.645a5.371,5.371,0,0,1-.271,5.415c-7.217,11.032-39.629,56.1-54.67,58.431A31.121,31.121,0,0,1,943.023,926.265Z" transform="translate(-914.7 -752.019)"/></g><g transform="translate(60.463 164.982)"><path d="M1191.108,1023.18a.878.878,0,0,1-.775-1.289c.372-.7,9.189-17.3,16.288-25.667a26.743,26.743,0,0,1,3.024-3.109c.149-.126.3-.252.45-.373a32.789,32.789,0,0,1,2.723-2.011c3.939-2.6,7.722-3.728,10.378-3.1a3.608,3.608,0,0,1,2.4,1.625.878.878,0,1,1-1.518.882,1.977,1.977,0,0,0-1.284-.8c-1.664-.391-4.905.155-9.01,2.861a31.067,31.067,0,0,0-2.582,1.908c-.145.117-.284.232-.423.35a25.058,25.058,0,0,0-2.819,2.9c-6.975,8.222-15.985,25.183-16.075,25.353A.878.878,0,0,1,1191.108,1023.18Z" transform="translate(-1190.231 -987.459)"/></g><g transform="translate(78.696 166.311)"><path d="M1274.2,1011.05a.878.878,0,0,1-.735-1.356c.465-.717,1.018-1.509,1.643-2.355q.321-.432.661-.877a64.806,64.806,0,0,1,5.377-6.145c2.232-2.234,5.519-5.111,8.5-6.126,1.836-.624,4.462-1.269,6.073.328a3.547,3.547,0,0,1,.694,2.666,6.119,6.119,0,0,1-2.348,4.484,5.393,5.393,0,0,1-.455.318.912.912,0,0,1-.108.063.878.878,0,0,1-.9-1.5c.019-.014.039-.027.059-.04a3.614,3.614,0,0,0,.326-.227,4.2,4.2,0,0,0,1.479-4.526c-.678-.671-2.075-.643-4.26.1-2.106.718-4.812,2.691-7.825,5.705a63.052,63.052,0,0,0-5.225,5.972c-.219.288-.436.575-.645.855-.6.815-1.135,1.578-1.581,2.265A.877.877,0,0,1,1274.2,1011.05Z" transform="translate(-1273.321 -993.518)"/></g><g transform="translate(84.503 171.952)"><path d="M1304.589,1041.251a.878.878,0,0,1-.713-1.388c3.577-5.007,12.33-13.339,13.526-14.424,1.607-1.456,1.625-3.27,1.184-3.876s-2.123-.907-3.522-.05c-3.322,2.035-9.073,8.424-13.675,15.192a.878.878,0,1,1-1.452-.987c4.725-6.949,10.7-13.553,14.21-15.7,2.021-1.238,4.759-1,5.859.514,1.042,1.432.718,4.269-1.426,6.21-1.12,1.015-9.841,9.334-13.276,14.143A.877.877,0,0,1,1304.589,1041.251Z" transform="translate(-1299.786 -1019.223)"/></g><g transform="translate(82.204 177.988)"><path d="M1290.187,1086.532a.878.878,0,0,1-.829-1.167l.14-.4c1.084-3.119,3.623-10.424,6.79-15.542,3.345-5.405,13.172-15.694,15.206-17.6.8-.746,1.159-2.433.649-3.009a3.482,3.482,0,0,0-2.329-.257.878.878,0,0,1-.284-1.732c.466-.077,2.844-.4,3.927.824,1.271,1.434.623,4.157-.762,5.455-2.436,2.284-11.864,12.315-14.914,17.244-3.066,4.953-5.56,12.13-6.625,15.195l-.14.4A.879.879,0,0,1,1290.187,1086.532Z" transform="translate(-1289.309 -1046.728)"/></g><g transform="translate(5.619 312.587)"><path d="M1216.694,1772.991H941.183a.878.878,0,0,1-.878-.892l.215-13.049a.878.878,0,0,1,.878-.863h158.75l9.235-97.288a.878.878,0,0,1,.874-.795h116.1a.878.878,0,0,1,.875.954l-9.663,111.132A.878.878,0,0,1,1216.694,1772.991Zm-274.619-1.755H1215.89l9.51-109.376H1111.056l-9.235,97.288a.878.878,0,0,1-.874.795H942.262Z" transform="translate(-940.306 -1660.104)"/></g><g transform="translate(5.618 281.87)"><path d="M941.395,1650.678a.878.878,0,0,1-.872-.79c-1.681-16.674,6.8-124.381,7.162-128.958a.878.878,0,0,1,1.75.138c-.089,1.119-8.831,112.126-7.165,128.643a.878.878,0,0,1-.785.961C941.454,1650.676,941.424,1650.678,941.395,1650.678Z" transform="translate(-940.302 -1520.122)"/></g><g transform="translate(146.502 179.349)"><path d="M1606.038,1244.241a.878.878,0,0,1-.87-.773l-22.845-189.557a.878.878,0,1,1,1.743-.21l22.846,189.557a.878.878,0,0,1-.767.976A.888.888,0,0,1,1606.038,1244.241Z" transform="translate(-1582.316 -1052.929)"/></g><g transform="translate(85.166 100.582)"><path d="M1340.168,1005.83h-.026a.877.877,0,0,1-.852-.9c2.3-80.147-7.606-190.312-8.743-202.61-2.267-24.515-15.7-73.287-19.454-82.607-.794-1.97-2.408-5.371-3.968-8.66-2.476-5.22-4-8.47-4.172-9.487a50.375,50.375,0,0,1-.053-6.742.878.878,0,1,1,1.753.086,47.7,47.7,0,0,0,.032,6.367c.138.826,2.294,5.371,4.026,9.023,1.571,3.312,3.2,6.738,4.01,8.756,3.78,9.378,17.294,58.446,19.574,83.1,1.139,12.309,11.055,122.572,8.75,202.822A.878.878,0,0,1,1340.168,1005.83Z" transform="translate(-1302.804 -693.987)"/></g><g transform="translate(75.664 107.136)"><path d="M1263.862,726.739a14.162,14.162,0,0,1-3.729-.44.878.878,0,0,1,.5-1.684h0a15.767,15.767,0,0,0,9.084-.7.878.878,0,1,1,.616,1.644A18.443,18.443,0,0,1,1263.862,726.739Z" transform="translate(-1259.504 -723.855)"/></g><g transform="translate(73.775 108.237)"><path d="M1252.367,740.759c-.353,0-.6-.022-.684-.031a.878.878,0,0,1,.18-1.746,4.517,4.517,0,0,0,3.059-.714c1.614-1.555,2.161-6.7,2.236-8.554a.878.878,0,0,1,.872-.842h0a.878.878,0,0,1,.876.833c.117,2.265,1.028,8.265,3.812,8.829a7.4,7.4,0,0,0,4.633-.588.878.878,0,0,1,.859,1.531,9.06,9.06,0,0,1-5.84.777c-2.212-.448-3.491-2.655-4.229-4.936a9.044,9.044,0,0,1-2.007,4.214A5.578,5.578,0,0,1,1252.367,740.759Z" transform="translate(-1250.894 -728.873)"/></g><g transform="translate(92.937 98.649)"><path d="M1345.546,732.769c-.026,0-.053,0-.08,0a.878.878,0,0,1-.8-.953c1.422-15.755,5.334-29.99,10.464-38.081a1.772,1.772,0,0,0-.462-2.433c-4.8-3.258-15.556-4.359-15.664-4.37a.878.878,0,0,1,.173-1.747c.459.046,11.309,1.156,16.477,4.665a3.519,3.519,0,0,1,.959,4.826c-4.987,7.866-8.8,21.81-10.2,37.3A.878.878,0,0,1,1345.546,732.769Z" transform="translate(-1338.217 -685.176)"/></g><g transform="translate(105.721 114.994)"><path d="M1465.253,911.264a51.149,51.149,0,0,1-17.485-3.135.878.878,0,0,1,.6-1.65c29.68,10.749,52.9-10.21,59.309-16.89.142-.148.246-.256.309-.318,3.288-3.244,46.8-58.815,51.748-65.14a1.891,1.891,0,0,0,.323-1.7c-3.808-12.818-19.438-22.591-22.352-24.319-3.853,3.065-32.728,30.285-59.251,55.484a3.764,3.764,0,0,1-6.323-2.206c-3.109-22.6-16.415-55.307-26.366-64.813-7.692-7.348-21.15-11.758-29.191-14.394a59.512,59.512,0,0,1-6.263-2.255c-2.925-1.448-10.1-5.2-13.584-8.776a.878.878,0,0,1,1.258-1.224c2.316,2.38,7.093,5.452,13.1,8.427a59.61,59.61,0,0,0,6.031,2.16c8.182,2.682,21.878,7.17,29.857,14.792,4.954,4.732,10.875,15.061,16.246,28.339,5.283,13.061,9.164,26.731,10.646,37.505a2.009,2.009,0,0,0,3.375,1.172c7.41-7.04,21.764-20.659,34.636-32.764,24.344-22.892,25.083-23.164,25.479-23.31a.878.878,0,0,1,.73.056,70.379,70.379,0,0,1,10.131,7.176c4.9,4.139,11.217,10.7,13.519,18.449a3.647,3.647,0,0,1-.623,3.282c-8.088,10.335-48.6,62.056-51.9,65.308-.056.055-.148.152-.275.284a72.058,72.058,0,0,1-19.374,14.409,55.7,55.7,0,0,1-18.721,5.732A49.345,49.345,0,0,1,1465.253,911.264Z" transform="translate(-1396.476 -759.662)"/></g><g transform="translate(246.027 133.884)"><path d="M2054.651,871.257a.878.878,0,0,1-.5-1.6c3.547-2.471,3.362-7.183,2.935-9.773a2.871,2.871,0,0,1,2.009-3.22,32.661,32.661,0,0,1,3.87-.784c2.612-.426,5.313-.867,6.854-2.145a3.452,3.452,0,0,0,.862-3.663c-.773-1.924-3.5-2.818-7.667-2.517-9.976.719-25.48,17.143-25.635,17.309a.878.878,0,0,1-1.281-1.2c.654-.7,16.131-17.091,26.79-17.859,6.739-.485,8.8,2.055,9.423,3.613a5.2,5.2,0,0,1-1.37,5.668c-1.909,1.583-4.849,2.063-7.692,2.527a31.532,31.532,0,0,0-3.656.735,1.113,1.113,0,0,0-.774,1.251c.494,3,.674,8.477-3.664,11.5A.871.871,0,0,1,2054.651,871.257Z" transform="translate(-2035.857 -845.746)"/></g><g transform="translate(266.994 145.21)"><path d="M2132.279,925.224h-.029a.878.878,0,0,1-.849-.906l.863-26.109a.878.878,0,0,1,1.755.058l-.863,26.109A.878.878,0,0,1,2132.279,925.224Z" transform="translate(-2131.401 -897.36)"/></g><g transform="translate(268.199 89.808)"><path d="M2190.411,751.462a.87.87,0,0,1-.225-.029l-52.53-13.943a.878.878,0,1,1,.45-1.7l52.275,13.875,6.51-2.191,3.278-93.218-52.131-7.6-7.979,1.47-1.412,42.745a.878.878,0,1,1-1.755-.058l1.435-43.451a.877.877,0,0,1,.718-.834l8.817-1.624a.883.883,0,0,1,.286-.005l53.052,7.735a.878.878,0,0,1,.751.9l-3.327,94.612a.877.877,0,0,1-.6.8l-7.336,2.469A.875.875,0,0,1,2190.411,751.462Z" transform="translate(-2136.892 -644.891)"/></g><g transform="translate(269.633 91.431)"><path d="M2198.124,662.646a.9.9,0,0,1-.139-.011l-53.818-8.605a.878.878,0,1,1,.277-1.733l53.615,8.573,7.856-2.432a.878.878,0,0,1,.519,1.677l-8.052,2.493A.877.877,0,0,1,2198.124,662.646Z" transform="translate(-2143.428 -652.285)"/></g><g transform="translate(320.841 100.036)"><path d="M2377.665,787.842h-.025a.877.877,0,0,1-.853-.9l2.61-94.587a.878.878,0,0,1,.877-.854h.024a.878.878,0,0,1,.853.9l-2.61,94.587A.878.878,0,0,1,2377.665,787.842Z" transform="translate(-2376.787 -691.5)"/></g><g transform="translate(317.574 93.475)"><path d="M2365.283,672.533a.873.873,0,0,1-.428-.112,5.777,5.777,0,1,1,8.333-6.767.878.878,0,0,1-1.676.523,4.021,4.021,0,1,0-5.8,4.712.878.878,0,0,1-.43,1.644Z" transform="translate(-2361.897 -661.602)"/></g><g transform="translate(310.071 92.249)"><path d="M2331.092,666.945a.871.871,0,0,1-.428-.112,5.777,5.777,0,1,1,8.333-6.767.878.878,0,0,1-1.676.523,4.021,4.021,0,1,0-5.8,4.712.878.878,0,0,1-.429,1.644Z" transform="translate(-2327.707 -656.014)"/></g><g transform="translate(302.652 91.381)"><path d="M2297.285,662.987a.874.874,0,0,1-.428-.112,5.777,5.777,0,1,1,8.3-6.871.878.878,0,0,1-1.666.555,4.021,4.021,0,1,0-5.776,4.784.878.878,0,0,1-.429,1.644Z" transform="translate(-2293.9 -652.056)"/></g><g transform="translate(295.063 90.24)"><path d="M2262.7,657.787a.875.875,0,0,1-.428-.112,5.777,5.777,0,1,1,8.313-6.827.878.878,0,1,1-1.67.542,4.021,4.021,0,1,0-5.786,4.753.878.878,0,0,1-.43,1.644Z" transform="translate(-2259.315 -646.856)"/></g><g transform="translate(287.587 89.149)"><path d="M2228.632,652.818a.875.875,0,0,1-.428-.112,5.777,5.777,0,1,1,8.313-6.828.878.878,0,0,1-1.67.542,4.021,4.021,0,1,0-5.786,4.754.878.878,0,0,1-.429,1.644Z" transform="translate(-2225.246 -641.887)"/></g><g transform="translate(280.059 88.191)"><path d="M2194.327,648.452a.874.874,0,0,1-.428-.112,5.777,5.777,0,1,1,8.253-7,.878.878,0,1,1-1.651.6,4.021,4.021,0,1,0-5.744,4.875.878.878,0,0,1-.43,1.644Z" transform="translate(-2190.941 -637.521)"/></g><g transform="translate(272.556 87.716)"><path d="M2160.136,646.286a.876.876,0,0,1-.428-.112,5.777,5.777,0,1,1,7.9-7.782.878.878,0,1,1-1.545.834,4.021,4.021,0,1,0-5.5,5.417.878.878,0,0,1-.429,1.644Z" transform="translate(-2156.751 -635.355)"/></g><g transform="translate(66.438 154.799)"><path d="M1228.544,961.448h-.017a.877.877,0,0,1-.674-.336c-1.418-1.808-2.762-3.533-4-5.126-2.874-3.717-4.823-6.3-5.347-7.088a6.932,6.932,0,0,1-.365-.616,5.473,5.473,0,0,1-.26-4.759,4.3,4.3,0,0,1,1.222-1.611,3.947,3.947,0,0,1,1.711-.766,5.972,5.972,0,0,1,5.57,2.109c.589.676,3.246,4.121,4.777,6.115q.5.656,1.046,1.365c.941,1.225,1.961,2.562,3.04,3.977a.877.877,0,0,1-.215,1.265,31.047,31.047,0,0,0-2.582,1.908c-.145.117-.284.232-.423.35a25.049,25.049,0,0,0-2.819,2.9A.878.878,0,0,1,1228.544,961.448Zm-6.754-18.641a3.268,3.268,0,0,0-.632.06,2.229,2.229,0,0,0-.951.413,2.539,2.539,0,0,0-.716.954,3.73,3.73,0,0,0,.211,3.234,5.121,5.121,0,0,0,.27.457c.5.745,2.467,3.356,5.275,6.987,1.039,1.343,2.157,2.779,3.333,4.281a23.815,23.815,0,0,1,2.319-2.3c.149-.126.3-.252.45-.373.644-.527,1.3-1.024,1.946-1.481-.871-1.142-1.7-2.227-2.476-3.238q-.541-.709-1.044-1.362c-2.547-3.316-4.307-5.57-4.708-6.03A4.379,4.379,0,0,0,1221.791,942.807Z" transform="translate(-1217.46 -941.054)"/></g><g transform="translate(80.963 172.853)"><path d="M1284.528,1031.142a.878.878,0,0,1-.695-1.413,64.818,64.818,0,0,1,5.374-6.141.878.878,0,0,1,1.241,1.241,63.013,63.013,0,0,0-5.225,5.972A.876.876,0,0,1,1284.528,1031.142Z" transform="translate(-1283.651 -1023.33)"/></g><g transform="translate(93.508 188.877)"><path d="M1353.559,1114.415a6.3,6.3,0,0,1-3.59-1.3,40.206,40.206,0,0,1-4.023-4.114c-1.346-1.511-3-3.436-4.92-5.724a.878.878,0,0,1,1.345-1.128c1.907,2.274,3.551,4.186,4.885,5.683a37.556,37.556,0,0,0,3.807,3.909c1.069.85,2.743,1.1,3.108.77.505-.462.927-1.161.23-2.847-.077-.169-.6-1.042-3.749-5.355-1.29-1.768-2.92-3.974-4.844-6.556a.878.878,0,0,1,1.408-1.049c1.928,2.587,3.561,4.8,4.855,6.57,3.664,5.022,3.859,5.492,3.953,5.717.849,2.053.632,3.627-.666,4.814A2.594,2.594,0,0,1,1353.559,1114.415Z" transform="translate(-1340.821 -1096.35)"/></g><g transform="translate(72.652 162.771)"><path d="M1246.658,984.682a.878.878,0,0,1-.394-1.663c.058-.029,4.123-2.1,5.514-5.126a.878.878,0,0,1,1.595.734c-1.654,3.6-6.133,5.867-6.323,5.962A.874.874,0,0,1,1246.658,984.682Z" transform="translate(-1245.78 -977.382)"/></g><g transform="translate(64.554 160.735)"><path d="M1217.524,982.284a.875.875,0,0,1-.644-.28c-3.65-3.931-8-9.027-8.005-10.982a2.686,2.686,0,0,1,.913-1.974,3.493,3.493,0,0,1,2.5-.933.878.878,0,0,1-.14,1.75,1.76,1.76,0,0,0-1.173.472.967.967,0,0,0-.349.682c.005.838,2.6,4.47,7.536,9.791a.878.878,0,0,1-.643,1.475Z" transform="translate(-1208.875 -968.106)"/></g><g transform="translate(63.544 150.804)"><path d="M1208.4,930.546a.876.876,0,0,1-.677-.319l-2.906-3.515a2.358,2.358,0,0,1,.315-3.321,2.357,2.357,0,0,1,3.322.317l2.9,3.506a.877.877,0,0,1-.656,1.459h0a.878.878,0,0,1-.676-.318l-2.921-3.531a.6.6,0,0,0-.93.767l2.906,3.517a.878.878,0,0,1-.676,1.437Z" transform="translate(-1204.271 -922.85)"/></g><g transform="translate(98.411 195.44)"><path d="M1364.042,1132.636h-.03a.876.876,0,0,1-.848-.9,5.593,5.593,0,0,1,5.6-5.475.878.878,0,1,1,.073,1.754,3.854,3.854,0,0,0-3.919,3.776A.88.88,0,0,1,1364.042,1132.636Z" transform="translate(-1363.163 -1126.259)"/></g></g></g><g transform="translate(103.341 407.148)"><g transform="translate(0.803 0.85)"><path d="M1277.55,2053.516c7.694-.22,16.833,2.53,18.916,4.861s1.071,4.112.307,4.681c-1.317.972-4.628.092-5.372-.606-1.745-2.1-4.815-4.446-10.028-7.318a22.415,22.415,0,0,0-3.831-1.589Z" transform="translate(-1020.677 -1826.957)" fill="#fff"/><path d="M1163.251,2057.349a3.035,3.035,0,0,1-.926,2.679c-1.222.845-2.256.564-3.9.281l-.634-.018a1.822,1.822,0,0,1-.342,1.11c-1.692,2.247-7.878-.386-7.878-.386-1.679,2.115-9.344.564-11.8.307-3.952-.415-21.593-.656-24.169-.726l-.02,0a261.091,261.091,0,0,0,.292-26.664s23.649.448,35.688,4.336a22.43,22.43,0,0,1,3.831,1.589c5.214,2.873,8.284,5.218,10.028,7.318a8.132,8.132,0,0,1,2.1,5.1c.143,3.526-.834,4.373-2.245,5.078Z" transform="translate(-892.697 -1811.678)" fill="#fff"/><path d="M729.564,2010.637a261.109,261.109,0,0,1-.292,26.664c-.072.886-.154,1.745-.246,2.568a2.513,2.513,0,0,1-2.5,2.227h-105.3c.147-4.354.272-9.144.38-14.229a34.877,34.877,0,0,0,15.08,3.224c10.369,0,24.617-14.389,26.1-15.87l11.128-11.128c19.93.055,44.924.1,52.949,0a2.512,2.512,0,0,1,2.543,2.407C729.455,2007.587,729.512,2009,729.564,2010.637Z" transform="translate(-508.388 -1788.385)" fill="#fff"/><path d="M1011.34,1584.786l.1.072s2.48,2.172,1.8,4.865a16.21,16.21,0,0,1-3.588,5.64,4.1,4.1,0,0,1,1.755,4.7c-.656,2.379-18.146,18.769-43.256,29.96h0c-4.549-12.673-13.91-23.737-16.682-26.838,0,0,7.748-9.517,10.494-13.281,3.809-5.218,12.932-12.789,17.54-10.862,2.747,1.15-2.115,5.973-3.573,6.912a25.5,25.5,0,0,0-6.1,6.71.59.59,0,0,0,.788.832c4.224-2.392,14.626-8.24,18.08-9.8,4.371-1.975,15.894-7.948,18.354-7.645,1.977.241,2.695,3.072,2.695,3.072l.031.05a2.589,2.589,0,0,1,1.3-.5,2.827,2.827,0,0,1,1.712,3.853A15.744,15.744,0,0,1,1011.34,1584.786Z" transform="translate(-766.152 -1454.267)" fill="#fff"/><path d="M638.916,1740.731c-1.723,1.31-3.149,2.392-4.193,3.186a2.342,2.342,0,0,1-3.366-.568c-1.591-2.4-4.047-6.182-6.908-10.634v0c-.007-12.818-.088-24.647-.217-33.713C624.231,1699,631.947,1721.721,638.916,1740.731Z" transform="translate(-510.73 -1550.245)" fill="#fff"/><path d="M220.719,1594.226v0c2.861,4.453,5.317,8.238,6.908,10.634a2.342,2.342,0,0,0,3.366.568c1.045-.794,2.471-1.876,4.193-3.186,14.27-10.836,48.878-37.088,55.391-41.779a1.285,1.285,0,0,1,1.712.187.2.2,0,0,1,.02.022c2.772,3.1,12.133,14.165,16.682,26.838q.286.787.542,1.584a1.778,1.778,0,0,1-.432,1.8l-36.572,36.572L261.4,1638.595c-1.481,1.481-15.73,15.87-26.1,15.87a34.878,34.878,0,0,1-15.08-3.224c-.108,5.084-.233,9.875-.38,14.229h0c-.134,3.97-.285,7.577-.456,10.72L107,1678.917c2.451-18.839,7.823-44.911,19.157-70.734,16.55-37.717,48.027-73.822,58.481-86.6,0,0,11.894,16.456,30.421,8.65A29.886,29.886,0,0,1,220,1543.443c.2,1.83.377,8.1.5,17.07C220.632,1569.578,220.713,1581.408,220.719,1594.226Z" transform="translate(-107.001 -1411.758)" fill="#fff"/><path d="M693.049,1362.892a39.582,39.582,0,0,1-2.723,9.546c-11.6-3.476-12.833-11.446-11.156-12.857,1.047-.88,5.747,1.777,7.562,2.4A13.072,13.072,0,0,0,693.049,1362.892Z" transform="translate(-553.141 -1285.17)" fill="#fff"/><path d="M500.208,1200.93l-8.986,22.857c-18.527,7.805-30.421-8.65-30.421-8.65.079-.1.158-.191.233-.283a13.937,13.937,0,0,0,2.416-4.2s0,0,0,0c2.179-4.036,9.712-24.617,10.2-32.64A1.784,1.784,0,0,0,472,1176.12a7.969,7.969,0,0,1-6.879-4.505c-2.539-5.291-.974-13.614,4.273-13.965,4.029-.272,7.834,2.243,9.991,4.191a1.755,1.755,0,0,0,2.682-.4,56.779,56.779,0,0,0,4.38-8.988c2.17-5.793,9.761-21.128,20.652-23.4a2.886,2.886,0,0,1,2.958,1.189c2.232,3.245,3.23,8.819,4.485,13.149,1.457,5.027,2.844,7.915,5.056,10.777,0,0,0,0,0,0a7.847,7.847,0,0,0,1.808,2.284c4.514,3.809,9.8,6.772,9.311,10.228s-5.157,5.712-6.138,7.476c-.546.981-.768,4.6-1.512,8.883a13.07,13.07,0,0,1-6.318-.913c-1.815-.621-6.515-3.278-7.562-2.4-1.677,1.411-.443,9.381,11.156,12.857a15.306,15.306,0,0,1-5.427,6.752C511.272,1201.68,505.909,1202.426,500.208,1200.93Z" transform="translate(-383.163 -1105.315)" fill="#fff"/><path d="M404.292,1026.829c11.755,11.569,5.146,25.075,4.422,27.792-.79,2.958-1.246,10.682,1.293,15.343-2.212-2.861-3.6-5.749-5.056-10.777-1.255-4.329-2.254-9.9-4.485-13.149a2.886,2.886,0,0,0-2.958-1.189c-10.891,2.276-18.481,17.61-20.652,23.4a56.79,56.79,0,0,1-4.38,8.988,1.755,1.755,0,0,1-2.682.4c-2.157-1.948-5.962-4.463-9.991-4.191-5.247.351-6.811,8.675-4.273,13.965a7.969,7.969,0,0,0,6.879,4.505,1.784,1.784,0,0,1,1.644,1.885c-.483,8.023-8.016,28.6-10.2,32.64,3.638-10.364-9.03-19.947-10.812-21.538-4.529-4.04-22.361-17.044-22.642-27.86a21.106,21.106,0,0,1,8.145-17.033,3.186,3.186,0,0,0,1.168-1.987c.5-3.015,2.685-11.14,12.269-20.339C351.346,1028.709,389.671,1012.44,404.292,1026.829Z" transform="translate(-273.569 -1021.119)"/></g><g transform="translate(0)"><g transform="translate(107.985 95.588)"><path d="M601.969,1541.45a.878.878,0,0,1-.878-.877c-.006-12.37-.083-24.34-.217-33.7-.131-9.219-.308-15.252-.5-16.987A29.276,29.276,0,0,0,595.6,1477.1a.879.879,0,0,1-.111-.843l8.986-22.857a.878.878,0,0,1,1.634.643l-8.814,22.419a30.856,30.856,0,0,1,4.821,13.233c.253,2.292.417,10.594.51,17.154.134,9.371.211,21.349.217,33.727a.878.878,0,0,1-.877.878Z" transform="translate(-595.433 -1452.84)"/></g><path d="M103.348,1285.148q.75-5.705,1.716-11.379c.344-1.887.659-3.779,1.038-5.659l.552-2.823.592-2.816.3-1.407.318-1.4.636-2.806.682-2.8c.228-.932.45-1.865.7-2.791.488-1.855.963-3.714,1.5-5.557l.783-2.769.833-2.755c2.239-7.34,4.783-14.592,7.73-21.683l1.125-2.651c.375-.883.741-1.771,1.157-2.637l2.424-5.228c.39-.878.844-1.724,1.277-2.581l1.31-2.564,1.31-2.564c.453-.845.926-1.68,1.389-2.521l1.395-2.518.7-1.259c.232-.42.462-.841.711-1.25l2.936-4.949.734-1.237.763-1.219,1.532-2.434,1.532-2.434.383-.609.4-.6.794-1.2,3.18-4.792,3.273-4.727.819-1.182.838-1.167,1.679-2.333,1.679-2.333,1.714-2.307q6.843-9.237,14.1-18.149l3.634-4.448,3.658-4.425,3.653-4.418c.3-.37.613-.735.883-1.092s.534-.733.772-1.116a12.163,12.163,0,0,0,1.168-2.412l-.047.268a.843.843,0,0,1,.1-.4.748.748,0,0,1,.14-.187l-.042.045a.817.817,0,0,0-.1.14.837.837,0,0,0-.1.394l.047-.269a10.952,10.952,0,0,0,.589-3.146,11.778,11.778,0,0,0-.336-3.205,18.17,18.17,0,0,0-2.808-5.957,34.289,34.289,0,0,0-4.4-5.115c-.813-.79-1.66-1.546-2.529-2.286l-.659-.557c-.219-.183-.464-.4-.666-.576-.423-.371-.864-.739-1.3-1.107-1.77-1.47-3.564-2.941-5.317-4.461s-3.478-3.082-5.148-4.707a69.03,69.03,0,0,1-4.773-5.134,36.151,36.151,0,0,1-4.024-5.825l-.214-.393c-.068-.133-.131-.269-.2-.4-.128-.272-.265-.538-.385-.814l-.344-.837c-.118-.277-.2-.573-.3-.859a13.264,13.264,0,0,1-.682-3.621,20.927,20.927,0,0,1,.981-7.11c.095-.285.181-.574.283-.857l.336-.837.169-.418.194-.406.391-.812a23.053,23.053,0,0,1,4.269-5.748c.214-.209.426-.42.651-.619l.333-.3.343-.292.313-.266c.087-.078.171-.159.25-.245a3.574,3.574,0,0,0,.42-.556,3.326,3.326,0,0,0,.3-.625,3.109,3.109,0,0,0,.1-.331c.016-.055.024-.113.037-.169l.043-.215c.058-.3.119-.59.192-.88s.142-.581.224-.868a28.873,28.873,0,0,1,1.167-3.367,37.726,37.726,0,0,1,3.333-6.237,49.894,49.894,0,0,1,4.284-5.59c.8-.86,1.579-1.734,2.421-2.547.415-.413.819-.828,1.273-1.237s.905-.783,1.375-1.144a50.57,50.57,0,0,1,5.878-3.875c2.026-1.164,4.1-2.225,6.212-3.214a98.043,98.043,0,0,1,13.037-5,74.663,74.663,0,0,1,13.7-2.862,47.294,47.294,0,0,1,7.041-.237,31.955,31.955,0,0,1,7.024,1.054,21.35,21.35,0,0,1,6.525,3l.731.539.7.58c.228.2.447.411.67.616s.418.426.628.639.415.426.616.646l.584.678c.4.442.746.932,1.114,1.4.185.234.341.491.513.736s.346.489.494.75c.307.515.623,1.024.888,1.564.29.526.523,1.08.77,1.628.117.276.217.56.326.84l.159.422.137.429a20.668,20.668,0,0,1,.822,3.5,22.611,22.611,0,0,1,.253,3.582,28.643,28.643,0,0,1-.983,7.053c-.3,1.145-.66,2.271-1.044,3.371l-.283.814-.131.393c-.038.129-.076.236-.106.37-.061.26-.126.517-.171.79s-.1.541-.133.816a28.538,28.538,0,0,0-.259,3.346,27.975,27.975,0,0,0,.12,3.36,20.813,20.813,0,0,0,.548,3.281,13.674,13.674,0,0,0,1.134,3.033l.105.41a.849.849,0,0,0-.248-.6l.146.2a7.047,7.047,0,0,0,1.578,2.011c.714.6,1.464,1.2,2.217,1.784,1.508,1.179,3.071,2.321,4.547,3.671a12.321,12.321,0,0,1,2.044,2.329,5.744,5.744,0,0,1,.71,1.538,4.1,4.1,0,0,1,.107,1.8,6.583,6.583,0,0,1-1.393,2.978,16.26,16.26,0,0,1-2.137,2.17c-.738.647-1.5,1.248-2.129,1.862a5.357,5.357,0,0,0-.408.452,2.354,2.354,0,0,0-.14.206.5.5,0,0,0-.042.087.514.514,0,0,0-.041.1,8.758,8.758,0,0,0-.289,1.253c-.155.918-.277,1.871-.406,2.825s-.26,1.914-.408,2.874a43.014,43.014,0,0,1-3.072,11.339,18.407,18.407,0,0,1-3.31,5.041,13.13,13.13,0,0,1-2.367,1.977,14.893,14.893,0,0,1-2.741,1.37,16.336,16.336,0,0,1-2.924.816,19.2,19.2,0,0,1-3,.327,21.374,21.374,0,0,1-3-.1c-.5-.04-.991-.124-1.485-.194-.246-.039-.49-.091-.735-.137s-.49-.092-.731-.154a28,28,0,0,1-10.68-5.053,32.121,32.121,0,0,1-7.783-8.74.388.388,0,0,1,.632-.448l0,0a50.086,50.086,0,0,0,3.838,4.206,37.5,37.5,0,0,0,4.319,3.619,31.936,31.936,0,0,0,4.8,2.874,25.52,25.52,0,0,0,5.256,1.838c.225.058.453.1.68.143s.454.092.683.128c.458.064.915.144,1.376.18a19.651,19.651,0,0,0,2.764.1,17.441,17.441,0,0,0,2.734-.3,14.613,14.613,0,0,0,2.628-.732,13.148,13.148,0,0,0,2.414-1.2,11.374,11.374,0,0,0,2.052-1.715,16.691,16.691,0,0,0,2.991-4.568,31.342,31.342,0,0,0,1.83-5.3c.466-1.828.816-3.693,1.106-5.577.145-.942.276-1.888.4-2.841s.251-1.908.417-2.888a10.006,10.006,0,0,1,.369-1.553,1.827,1.827,0,0,1,.1-.232,2.106,2.106,0,0,1,.119-.235,4.1,4.1,0,0,1,.265-.392,7.012,7.012,0,0,1,.557-.62c.751-.732,1.505-1.316,2.213-1.939a14.639,14.639,0,0,0,1.911-1.932,4.877,4.877,0,0,0,1.048-2.184,3,3,0,0,0-.566-2.13,10.693,10.693,0,0,0-1.76-1.991c-1.365-1.251-2.912-2.388-4.434-3.578-.765-.6-1.523-1.2-2.279-1.835a8.76,8.76,0,0,1-1.972-2.5l.146.2a.874.874,0,0,1-.253-.609l.1.409a15.352,15.352,0,0,1-1.29-3.435,22.523,22.523,0,0,1-.592-3.542,29.706,29.706,0,0,1-.126-3.557,30.192,30.192,0,0,1,.277-3.554c.041-.3.086-.593.146-.892s.124-.6.2-.9c.033-.148.088-.315.132-.462l.143-.428.286-.821c.377-1.08.723-2.153,1.006-3.242a26.944,26.944,0,0,0,.929-6.628,20.906,20.906,0,0,0-.234-3.319,18.912,18.912,0,0,0-.756-3.229l-.125-.4-.147-.388c-.1-.257-.191-.519-.3-.774-.228-.5-.441-1.016-.71-1.5-.243-.5-.537-.97-.82-1.447-.136-.242-.307-.463-.458-.7s-.3-.466-.476-.684c-.344-.438-.663-.895-1.039-1.309l-.546-.634c-.189-.206-.387-.4-.579-.606s-.384-.412-.585-.6-.4-.375-.6-.556l-.633-.523-.662-.488a19.643,19.643,0,0,0-6-2.757,30.237,30.237,0,0,0-6.645-1,45.628,45.628,0,0,0-6.789.228,72.97,72.97,0,0,0-13.38,2.794,96.3,96.3,0,0,0-12.811,4.9c-2.071.97-4.109,2.01-6.087,3.147a48.943,48.943,0,0,0-5.679,3.739c-.446.343-.87.7-1.287,1.07s-.807.776-1.209,1.176c-.82.79-1.578,1.637-2.35,2.471a48.2,48.2,0,0,0-4.136,5.393,36.035,36.035,0,0,0-3.188,5.958,27.179,27.179,0,0,0-1.1,3.172c-.077.268-.148.537-.209.808s-.124.541-.177.811l-.042.21c-.018.085-.033.17-.056.254a4.724,4.724,0,0,1-.15.5,5,5,0,0,1-.446.935,5.255,5.255,0,0,1-.622.823c-.117.126-.24.246-.368.361l-.347.3-.317.269-.308.28c-.208.183-.405.379-.6.573a21.39,21.39,0,0,0-3.959,5.324l-.359.748-.18.374-.155.385-.309.77c-.094.26-.172.525-.259.788a19.256,19.256,0,0,0-.905,6.542,11.606,11.606,0,0,0,.6,3.16c.092.258.163.521.271.775l.314.764c.11.253.238.5.355.751.061.124.118.251.181.374l.2.367a34.509,34.509,0,0,0,3.837,5.551,67.383,67.383,0,0,0,4.653,5.007q2.458,2.393,5.072,4.639c1.735,1.505,3.511,2.963,5.292,4.443.445.373.89.744,1.335,1.134.232.2.421.369.644.557l.663.561c.888.757,1.765,1.539,2.607,2.358a35.937,35.937,0,0,1,4.615,5.369,19.805,19.805,0,0,1,3.052,6.507,13.435,13.435,0,0,1,.381,3.658,12.608,12.608,0,0,1-.682,3.634l.047-.269a.84.84,0,0,1-.1.4.757.757,0,0,1-.14.187l.042-.045a.828.828,0,0,0,.2-.533l-.046.268a13.839,13.839,0,0,1-1.327,2.742c-.267.429-.556.843-.86,1.242s-.618.77-.921,1.139l-3.661,4.424-3.655,4.419-3.628,4.438q-7.223,8.9-14.065,18.089l-1.709,2.3-1.674,2.323-1.674,2.323-.835,1.163-.815,1.176-3.261,4.706-3.167,4.769-.791,1.193-.4.6-.381.605-1.525,2.421-1.525,2.421-.76,1.212-.73,1.23-2.921,4.919c-.248.407-.477.826-.707,1.243l-.693,1.251-1.386,2.5c-.46.835-.93,1.664-1.381,2.5l-1.3,2.545-1.3,2.545c-.43.85-.882,1.69-1.268,2.56l-2.4,5.182c-.413.858-.776,1.739-1.149,2.616l-1.117,2.631c-2.928,7.038-5.457,14.241-7.684,21.533l-.829,2.737-.779,2.752c-.532,1.831-1,3.679-1.49,5.522-.249.92-.471,1.848-.7,2.774l-.679,2.779-.633,2.79-.317,1.395-.3,1.4-.589,2.8-.55,2.807c-.377,1.87-.69,3.751-1.033,5.627q-.953,5.642-1.71,11.313v0a.8.8,0,0,1-1.592-.21Z" transform="translate(-103.341 -1017.243)"/><g transform="translate(112.31 239.455)"><path d="M616.02,2135.154h-.049a.878.878,0,0,1-.829-.924c.165-3.032.318-6.632.456-10.7,0-.021,0-.042,0-.063.138-4.118.266-8.879.377-14.155a.878.878,0,0,1,1.755.037c-.112,5.31-.24,10.1-.38,14.24,0,.021,0,.042,0,.063-.137,4.056-.29,7.647-.455,10.675A.878.878,0,0,1,616.02,2135.154Z" transform="translate(-615.141 -2108.45)"/></g><g transform="translate(125.348 74.211)"><path d="M687.2,1370.208a.878.878,0,0,1-.252-.037c-9.951-2.98-11.887-8.823-12.243-10.543-.351-1.693-.062-3.122.772-3.824,1.1-.923,3.262-.046,6.44,1.4.774.352,1.506.683,1.972.843a12.38,12.38,0,0,0,5.874.879.878.878,0,0,1,.319,1.726,13.808,13.808,0,0,1-6.761-.944c-.547-.187-1.28-.52-2.129-.905-1.279-.581-3.916-1.777-4.616-1.62a2.759,2.759,0,0,0-.152,2.093c.631,3.048,3.86,7.071,11.028,9.217a.878.878,0,0,1-.251,1.719Z" transform="translate(-674.559 -1355.424)"/></g><g transform="translate(126.949 39.977)"><ellipse cx="2.429" cy="6.066" rx="2.429" ry="6.066" transform="translate(0 0.414) rotate(-4.892)"/></g><g transform="translate(80.213 23.641)"><path d="M469.751,1208.4a.878.878,0,0,1-.772-1.3c2.054-3.8,9.618-24.388,10.094-32.281a.908.908,0,0,0-.834-.956,8.861,8.861,0,0,1-7.6-5,13.753,13.753,0,0,1,.2-12.022,5.937,5.937,0,0,1,4.8-3.2c4.831-.323,9.048,2.98,10.637,4.417a.863.863,0,0,0,.714.216.882.882,0,0,0,.627-.42,55.685,55.685,0,0,0,4.31-8.845c.324-.864,8.078-21.193,21.294-23.954a3.746,3.746,0,0,1,3.86,1.551c1.786,2.6,2.777,6.44,3.736,10.157.295,1.143.573,2.223.87,3.245,1.4,4.821,2.727,7.665,4.91,10.491a.878.878,0,0,1-1.389,1.073c-2.331-3.019-3.742-6.021-5.206-11.075-.3-1.048-.585-2.14-.883-3.3-.92-3.569-1.872-7.259-3.482-9.6a2.021,2.021,0,0,0-2.055-.827c-9.826,2.053-17.385,15.846-20.009,22.852a57.463,57.463,0,0,1-4.448,9.132,2.634,2.634,0,0,1-4.025.6c-1.423-1.286-5.181-4.251-9.342-3.967a4.316,4.316,0,0,0-3.4,2.333,12.054,12.054,0,0,0-.137,10.378,7.053,7.053,0,0,0,6.154,4.01,2.67,2.67,0,0,1,2.455,2.812c-.5,8.275-8.143,29.015-10.3,33.01A.878.878,0,0,1,469.751,1208.4Z" transform="translate(-468.873 -1124.978)"/></g><g transform="translate(119.971 31.132)"><path d="M650.058,1168.064a8.4,8.4,0,0,1,.566-3.137,9.9,9.9,0,0,1,1.585-2.809,8.717,8.717,0,0,1,1.139-1.185,7.7,7.7,0,0,1,1.35-.952,6.563,6.563,0,0,1,3.122-.87.295.295,0,0,1,.15.551l-.009.005a14.947,14.947,0,0,0-2.383,1.611c-.183.141-.346.309-.522.457-.164.165-.333.319-.491.489-.32.333-.626.68-.914,1.046a23.906,23.906,0,0,0-1.612,2.335c-.5.82-.989,1.683-1.494,2.561l-.009.016a.256.256,0,0,1-.478-.12Z" transform="translate(-650.055 -1159.112)"/></g><g transform="translate(87.829 59.016)"><path d="M504.3,1286.23a10.236,10.236,0,0,1,1.175.656,11.715,11.715,0,0,1,1.081.779,10.553,10.553,0,0,1,1.882,1.946,8.475,8.475,0,0,1,.732,1.184,7.461,7.461,0,0,1,.533,1.314,5.945,5.945,0,0,1,.2,2.839.879.879,0,0,1-1.744-.165v-.037a9.629,9.629,0,0,0-.16-2.185,5.758,5.758,0,0,0-.331-1.063,6.877,6.877,0,0,0-.517-1.017,9.7,9.7,0,0,0-1.463-1.842c-.284-.28-.58-.553-.892-.809a11.555,11.555,0,0,0-.958-.707l-.023-.015a.5.5,0,0,1,.488-.876Z" transform="translate(-503.584 -1286.182)"/></g><g transform="translate(77.563 109.795)"><path d="M478.237,1530.076a24.94,24.94,0,0,1-12.746-3.609,30.519,30.519,0,0,1-8.526-7.493.878.878,0,0,1,1.423-1.029,29.308,29.308,0,0,0,8.053,7.044,22.67,22.67,0,0,0,21.315,1.312.878.878,0,0,1,.682,1.618A26.108,26.108,0,0,1,478.237,1530.076Z" transform="translate(-456.799 -1517.582)"/></g><g transform="translate(49.934 142.167)"><path d="M410.064,1767.374c-13.8,0-21.431-6.46-27.566-11.651-1.35-1.143-2.626-2.222-3.848-3.12-8.226-6.043-34.236-35.626-47.6-55.23a.878.878,0,0,1,1.451-.989c13.287,19.484,39.067,48.835,47.194,54.8,1.271.933,2.569,2.032,3.943,3.194,5.916,5.006,13.279,11.236,26.432,11.236,9.168,0,21.773-11.905,25.418-15.554l.059-.059,47.7-47.7a.891.891,0,0,0,.219-.908c-4.241-13.137-14.133-24.852-17.064-28.13a.408.408,0,0,0-.543-.059c-7.342,5.29-50.908,38.373-59.568,44.952a3.219,3.219,0,0,1-4.629-.781c-7.193-10.826-32.287-50.525-32.539-50.925a.878.878,0,0,1,1.484-.938c.253.4,25.335,40.082,32.517,50.891a1.462,1.462,0,0,0,2.1.355c8.662-6.58,52.244-39.676,59.6-44.978a2.16,2.16,0,0,1,2.878.313c2.989,3.343,13.078,15.3,17.426,28.76a2.639,2.639,0,0,1-.648,2.689L436.723,1751.3C432.958,1755.074,419.907,1767.374,410.064,1767.374Z" transform="translate(-330.893 -1665.106)"/></g><g transform="translate(112.767 215.676)"><path d="M723.4,2039.852h-105.3a.878.878,0,0,1,0-1.755H723.4a1.633,1.633,0,0,0,1.627-1.448c.994-8.867.76-22.041.533-29.105-.054-1.67-.111-3.086-.156-4.132a1.623,1.623,0,0,0-1.655-1.567c-8.106.1-33.276.059-52.963,0a.878.878,0,0,1,0-1.756h0c19.681.054,44.841.1,52.935,0a3.385,3.385,0,0,1,3.431,3.248c.044,1.051.1,2.471.156,4.149.28,8.687.413,20.831-.543,29.358A3.386,3.386,0,0,1,723.4,2039.852Z" transform="translate(-617.227 -2000.089)"/></g><g transform="translate(113.426 148.727)"><path d="M635.793,1738.485a.878.878,0,0,1-.824-.576c-6.893-18.8-14.615-41.524-14.692-41.751a.878.878,0,0,1,1.662-.564c.077.227,7.792,22.929,14.678,41.711a.878.878,0,0,1-.824,1.18Z" transform="translate(-620.23 -1694.997)"/></g><g transform="translate(185.233 121.746)"><path d="M948.334,1600.942a.878.878,0,0,1-.68-1.432c.077-.1,7.767-9.542,10.467-13.242,3.8-5.205,13.259-13.384,18.587-11.155a2.071,2.071,0,0,1,1.355,1.764c.223,2.521-3.893,6.116-4.792,6.7a23.34,23.34,0,0,0-5.162,5.442c4.75-2.682,13.876-7.784,17.092-9.236.981-.443,2.316-1.084,3.861-1.828,7.255-3.487,12.961-6.133,14.962-5.89,2.543.311,3.4,3.588,3.438,3.727a.878.878,0,0,1-1.7.432c-.005-.02-.621-2.254-1.95-2.416-1.643-.2-9.676,3.656-13.988,5.729-1.556.748-2.9,1.394-3.9,1.845-3.409,1.54-13.728,7.34-18.007,9.761a1.468,1.468,0,0,1-1.962-2.065,26.121,26.121,0,0,1,6.365-6.977c1.313-.847,4.1-3.85,4-5.066-.007-.084-.016-.188-.284-.3-3.9-1.632-12.559,5.181-16.492,10.57-2.728,3.737-10.446,13.221-10.524,13.316A.875.875,0,0,1,948.334,1600.942Z" transform="translate(-947.457 -1572.045)"/></g><g transform="translate(219.64 124.38)"><path d="M1112.675,1608.247a.878.878,0,0,1-.526-1.581c14.755-11.029,18.353-16.777,19.1-18.276a1.788,1.788,0,0,0-.016-1.576,1.961,1.961,0,0,0-1.01-1c-1.08.3-5.748,3.741-9.878,6.784-4.74,3.493-10.112,7.452-14.755,10.367a.878.878,0,0,1-.934-1.487c4.588-2.88,9.932-6.819,14.647-10.293,7.989-5.887,10.134-7.353,11.212-7.11a3.566,3.566,0,0,1,2.3,1.99,3.489,3.489,0,0,1,0,3.113c-1.019,2.033-4.97,7.943-19.623,18.9A.873.873,0,0,1,1112.675,1608.247Zm17.619-22.449" transform="translate(-1104.249 -1584.049)"/></g><g transform="translate(229.585 130.563)"><path d="M1150.45,1636.448a.878.878,0,0,1-.5-1.6c8.492-5.8,16.148-13.47,17.067-17.091.544-2.147-1.5-3.973-1.523-3.991a.878.878,0,1,1,1.158-1.32c.118.1,2.873,2.565,2.067,5.742-1.188,4.683-10.046,12.825-17.778,18.109A.873.873,0,0,1,1150.45,1636.448Z" transform="translate(-1149.571 -1612.226)"/></g><g transform="translate(201.917 141.07)"><path d="M1024.366,1696.514a.878.878,0,0,1-.358-1.68c25.372-11.308,42.14-27.433,42.768-29.394a3.176,3.176,0,0,0-1.343-3.7.878.878,0,1,1,.867-1.526,4.967,4.967,0,0,1,2.168,5.692c-.476,1.729-5.966,6.948-12.771,12.14a157.794,157.794,0,0,1-30.974,18.389A.872.872,0,0,1,1024.366,1696.514Z" transform="translate(-1023.488 -1660.103)"/></g><g transform="translate(221.102 222.225)"><path d="M1161.2,2055.106a.878.878,0,0,1-.393-1.663c1.016-.508,1.893-.946,1.761-4.258-.111-2.787-1.6-6.131-11.678-11.68-9.432-5.195-38.816-5.81-39.112-5.815a.878.878,0,0,1,.016-1.755h.017c1.225.023,30.115.629,39.926,6.032,10.234,5.636,12.433,9.332,12.585,13.148.149,3.718-.888,4.978-2.73,5.9A.873.873,0,0,1,1161.2,2055.106Z" transform="translate(-1110.913 -2029.934)"/></g><g transform="translate(244.068 229.419)"><path d="M1240.144,2083.936a10.768,10.768,0,0,1-1.857-.223l-.4-.07a.878.878,0,0,1,.3-1.73l.412.072c1.438.255,2.053.336,2.843-.211a1.932,1.932,0,0,0,.548-1.4c.071-1.024-.225-3.832-4.5-7.765-6.536-6.016-21.014-8.126-21.159-8.147a.878.878,0,0,1,.246-1.738c.616.087,15.163,2.206,22.1,8.594,4.66,4.29,5.171,7.592,5.061,9.178a3.575,3.575,0,0,1-1.3,2.722A3.835,3.835,0,0,1,1240.144,2083.936Z" transform="translate(-1215.571 -2062.715)"/></g><g transform="translate(241.329 234.603)"><path d="M1224.83,2104.1a16.655,16.655,0,0,1-5.738-1.373.878.878,0,0,1,.687-1.615c2.308.98,5.953,1.834,6.834.667a1.4,1.4,0,0,0,.121-1.045c-.357-1.913-2.925-5.306-6.981-7.827a34.455,34.455,0,0,0-15.854-4.82.877.877,0,1,1,.138-1.75,36.15,36.15,0,0,1,16.643,5.078c4.064,2.525,7.264,6.224,7.781,9a2.966,2.966,0,0,1-.445,2.423A3.793,3.793,0,0,1,1224.83,2104.1Z" transform="translate(-1203.09 -2086.339)"/></g><g transform="translate(256.798 226.519)"><path d="M1291.942,2061.23c-1.8,0-3.824-.722-4.39-1.43a.878.878,0,0,1,1.371-1.1c.432.422,3.333,1.192,4.235.523a1.577,1.577,0,0,0,.566-1.081,3.164,3.164,0,0,0-1-2.307c-1.746-1.953-10.364-4.792-18.238-4.569a.878.878,0,1,1-.05-1.755c8.094-.238,17.34,2.63,19.6,5.154a4.734,4.734,0,0,1,1.44,3.655,3.322,3.322,0,0,1-1.266,2.313A3.825,3.825,0,0,1,1291.942,2061.23Z" transform="translate(-1273.58 -2049.5)"/></g><g transform="translate(220.831 241.169)"><path d="M1142.457,2127.247a47.088,47.088,0,0,1-6.275-.583c-.624-.089-1.164-.165-1.551-.206-3.109-.326-15.112-.55-20.881-.658-1.538-.029-2.693-.05-3.22-.065a.878.878,0,0,1,.023-1.755h.025c.524.014,1.673.036,3.2.064,6.237.117,17.848.334,21.031.667.42.044.974.123,1.615.214,2.488.353,8.315,1.18,9.405-.194a.409.409,0,0,0,.075-.425c-.405-1.418-4.181-3.721-7.287-4.833-4.9-1.754-13.057-1.434-13.139-1.431a.878.878,0,0,1-.074-1.754c.348-.014,8.578-.338,13.8,1.533,1.927.69,7.6,3.273,8.384,6a2.148,2.148,0,0,1-.388,2C1146.363,2126.889,1144.617,2127.247,1142.457,2127.247Z" transform="translate(-1109.676 -2116.258)"/></g></g></g></g><g transform="translate(230.807 439.32)"><path d="M1199.645,2164.536H627.187c-1.879,0-3.4-1.119-3.4-2.5s1.523-2.5,3.4-2.5h572.458c1.879,0,3.4,1.119,3.4,2.5S1201.524,2164.536,1199.645,2164.536Z" transform="translate(-623.786 -2159.536)"/></g></g></svg>