<svg xmlns="http://www.w3.org/2000/svg" xmlns:xlink="http://www.w3.org/1999/xlink" width="960" height="470" viewBox="0 0 960 470"><defs><clipPath id="b"><rect width="960" height="470"/></clipPath></defs><g id="a" clip-path="url(#b)"><rect width="960" height="470" fill="#fff"/><g transform="translate(94.834 -1.256)"><g transform="translate(67.786 33.554)"><g transform="translate(-65.594 179.259)"><circle cx="23.444" cy="23.444" r="23.444" fill="#dedede"/></g><g transform="translate(42.805 168.33)"><circle cx="27.069" cy="27.069" r="27.069" transform="translate(0 0)" fill="#dedede"/></g><g transform="translate(594.719 264.559)"><circle cx="7.745" cy="7.745" r="7.745" fill="#dedede"/></g><g transform="translate(353.432 108.003)"><circle cx="10.868" cy="10.868" r="10.868" fill="#dedede"/></g><g transform="translate(235.352 128.129)"><circle cx="9.016" cy="9.016" r="9.016" fill="#dedede"/></g><g transform="translate(23.523 284.582)"><circle cx="10.868" cy="10.868" r="10.868" fill="#dedede"/></g><g transform="translate(451.187 183.766)"><circle cx="8.249" cy="8.249" r="8.249" transform="translate(0 0)" fill="#dedede"/></g><g transform="translate(398.943 9.099)"><circle cx="13.216" cy="13.216" r="13.216" fill="#dedede"/></g><g transform="translate(244.368)"><circle cx="11.339" cy="11.339" r="11.339" fill="#dedede"/></g><g transform="translate(19.677 57.935)"><circle cx="10.512" cy="10.512" r="10.512" fill="#dedede"/></g><g transform="translate(-39.234 94.086)"><circle cx="13.121" cy="13.121" r="13.121" fill="#dedede"/></g><g transform="translate(397.241 89.37)"><circle cx="34.55" cy="34.55" r="34.55" fill="#dedede"/></g><g transform="translate(549.867 144.011)"><g transform="translate(0 0)"><path d="M425.066,119.513a6.8,6.8,0,0,1-6.9,10.655c-5.578-1.173-17.946.361-24.94,4.023a6.8,6.8,0,0,1-6.311-12.053c9.192-4.812,24.785-7.233,34.051-5.285A6.778,6.778,0,0,1,425.066,119.513Z" transform="translate(-383.263 -116.177)" fill="#dedede"/></g></g><g transform="translate(330.453 233.661)"><path d="M264.486,213.413a8.16,8.16,0,0,1-3.6-14.8c5.618-3.9,14.474-15.939,17.046-25.057a8.161,8.161,0,0,1,15.708,4.432c-3.38,11.978-14.12,27.565-23.453,34.037A8.13,8.13,0,0,1,264.486,213.413Z" transform="translate(-257.377 -167.613)" fill="#dedede"/></g><g transform="translate(537.031 52.921)"><g transform="translate(0)"><path d="M400.4,64.244a5.377,5.377,0,0,1,.183,10.034c-4.173,1.7-11.6,8.169-14.571,13.661a5.378,5.378,0,1,1-9.463-5.112c3.9-7.218,13.05-15.7,19.985-18.514A5.348,5.348,0,0,1,400.4,64.244Z" transform="translate(-375.899 -63.916)" fill="#dedede"/></g></g><g transform="translate(510.101 218.871)"><path d="M365.391,191.147a5.725,5.725,0,0,1-2.444-10.4c3.962-2.7,10.242-11.1,12.1-17.487a5.726,5.726,0,0,1,11,3.195c-2.437,8.385-10.057,19.263-16.64,23.753A5.7,5.7,0,0,1,365.391,191.147Z" transform="translate(-360.448 -159.127)" fill="#dedede"/></g><g transform="translate(-4.394 140.707)"><g transform="translate(0)"><path d="M406.771,187.855a19.068,19.068,0,1,1,19.068-19.068A19.09,19.09,0,0,1,406.771,187.855Zm0-34.88a15.812,15.812,0,1,0,15.812,15.812A15.83,15.83,0,0,0,406.771,152.975Z" transform="translate(-387.703 -149.719)" fill="#dedede"/></g></g><g transform="translate(333.406 29.999)"><path d="M286.6,105.813A27.524,27.524,0,1,1,314.12,78.288,27.555,27.555,0,0,1,286.6,105.813Zm0-50.349a22.825,22.825,0,1,0,22.826,22.824A22.849,22.849,0,0,0,286.6,55.464Z" transform="translate(-259.072 -50.765)" fill="#dedede"/></g><g transform="translate(641.444 147.654)"><path d="M104.078,276.011A27.524,27.524,0,1,1,131.6,248.488,27.555,27.555,0,0,1,104.078,276.011Zm0-50.349A22.825,22.825,0,1,0,126.9,248.488,22.852,22.852,0,0,0,104.078,225.662Z" transform="translate(-76.553 -220.963)" fill="#dedede"/></g><g transform="translate(235.531 181.838)"><g transform="translate(0 0)"><path d="M231.248,194.539a28.329,28.329,0,1,1,28.33-28.328A28.362,28.362,0,0,1,231.248,194.539Zm0-51.822a23.493,23.493,0,1,0,23.493,23.493A23.52,23.52,0,0,0,231.248,142.717Z" transform="translate(-202.918 -137.88)" fill="#dedede"/></g></g><g transform="translate(467.969 74.052)"><path d="M337.022,79.927A7.111,7.111,0,0,1,338.1,78.36a7.053,7.053,0,0,1,9.963-.5c11.852,10.731,15.315,21.545,17.01,29.766a7.053,7.053,0,0,1-13.817,2.845c-1.4-6.825-3.913-14.233-12.661-22.153A7.071,7.071,0,0,1,337.022,79.927Zm24.644,30.88a3.877,3.877,0,0,0,.333-2.543c-1.6-7.754-4.863-17.953-16.042-28.074a3.92,3.92,0,0,0-5.536.274,3.989,3.989,0,0,0-.6.871A3.93,3.93,0,0,0,340.7,86c9.415,8.525,12.114,16.5,13.628,23.846a3.917,3.917,0,0,0,7.11,1.363A3.683,3.683,0,0,0,361.666,110.807Z" transform="translate(-336.275 -76.04)" fill="#dedede"/></g><g transform="translate(422.404 221.707)"><path d="M341.489,202.855a8.117,8.117,0,0,1-1.281,1.759,8.077,8.077,0,0,1-11.422.249c-13.229-12.663-16.851-25.153-18.528-34.621a8.079,8.079,0,0,1,15.91-2.818c1.393,7.861,4.026,16.422,13.79,25.768A8.1,8.1,0,0,1,341.489,202.855Zm-27.232-36.14a4.445,4.445,0,0,0-.464,2.9c1.583,8.929,5,20.708,17.475,32.653a4.487,4.487,0,0,0,6.346-.138,4.48,4.48,0,0,0-.139-6.346c-10.508-10.06-13.344-19.275-14.843-27.734a4.487,4.487,0,0,0-8.1-1.788A4.3,4.3,0,0,0,314.257,166.715Z" transform="translate(-310.133 -160.754)" fill="#dedede"/></g><g transform="translate(627.131 228.039)"><g transform="translate(0)"><path d="M418.6,67.7a7.654,7.654,0,0,1,12.182-.155c10.679,13.672,12.375,25.874,12.659,34.978a7.653,7.653,0,1,1-15.3.478c-.235-7.558-1.541-15.943-9.423-26.033A7.672,7.672,0,0,1,418.6,67.7Zm20.612,37.587a4.218,4.218,0,0,0,.83-2.658c-.268-8.586-1.868-20.095-11.941-32.989a4.25,4.25,0,0,0-5.968-.734,4.246,4.246,0,0,0-.732,5.968c8.483,10.86,9.888,19.886,10.141,28.02a4.251,4.251,0,0,0,7.671,2.393Z" transform="translate(-417.1 -64.605)" fill="#dedede"/></g></g><g transform="translate(22.44 98.224)"><path d="M80.8,98.438a10.282,10.282,0,0,1,.819-2.627A10.215,10.215,0,0,1,95.2,90.873c20.991,9.8,30.4,23.286,36.256,33.944a10.218,10.218,0,0,1-17.913,9.837c-4.859-8.847-11.493-18.033-26.986-25.264A10.244,10.244,0,0,1,80.8,98.438Zm47.3,32.231a5.633,5.633,0,0,0-.626-3.665c-5.522-10.052-14.4-22.775-34.2-32.015a5.676,5.676,0,0,0-7.545,2.743,5.665,5.665,0,0,0,2.743,7.544c16.675,7.782,23.814,17.668,29.047,27.194a5.676,5.676,0,0,0,10.426-1.147A5.8,5.8,0,0,0,128.1,130.669Z" transform="translate(-80.66 -89.908)" fill="#dedede"/></g><g transform="translate(0 217.827)"><path d="M164.629,206.1a16.808,16.808,0,0,1-19.382,18.441c-37.612-6.066-58.564-23.18-72.614-37.411A16.806,16.806,0,1,1,96.55,163.518c11.666,11.816,26.287,23.368,54.048,27.846A16.847,16.847,0,0,1,164.629,206.1ZM75.312,176.367a9.259,9.259,0,0,0,2.635,5.518c13.252,13.423,33.014,29.564,68.488,35.286a9.337,9.337,0,0,0,10.7-7.732,9.318,9.318,0,0,0-7.73-10.7c-29.878-4.819-45.617-17.252-58.173-29.97a9.337,9.337,0,0,0-15.981,6.5A9.616,9.616,0,0,0,75.312,176.367Z" transform="translate(-67.786 -158.528)" fill="#dedede"/></g><g transform="translate(268.993 71.703)"><path d="M222.583,84.059a6.614,6.614,0,0,1,5.429-9.016c14.9-1.621,24.632,2.686,31.445,6.618a6.611,6.611,0,0,1-6.609,11.451c-5.658-3.265-12.408-6.121-23.4-4.924A6.629,6.629,0,0,1,222.583,84.059Zm36.981,1.964a3.652,3.652,0,0,0-1.576-1.818,45.9,45.9,0,0,0-29.658-6.242,3.675,3.675,0,0,0-3.254,4.049,3.671,3.671,0,0,0,4.049,3.254c11.837-1.288,19.1,1.787,25.193,5.3a3.672,3.672,0,0,0,5.382-4.133A3.437,3.437,0,0,0,259.564,86.023Z" transform="translate(-222.116 -74.692)" fill="#dedede"/></g><g transform="translate(449.098 20.838)"><path d="M337.168,59.195c-2.28,2.1-6.292,2.438-8.828,5.311-2.771,3.139-4.584,7.838-.5,12.039,2.8,2.888,6.968,2.587,9.37,1.415,4.194-2.046,5.443-6.571,7.742-8.028,3.42-2.167,10.352-2.32,14.625-6.466,3.835-3.72,4.141-11.4.028-15.6-3.526-3.606-11.46-2.768-15.019.5S339.531,57.016,337.168,59.195Z" transform="translate(-325.448 -45.509)" fill="#dedede"/></g><g transform="translate(237.136 42.893)"><path d="M203.987,87.565a6.47,6.47,0,0,1,1.353-5.53c12.494-15,32.989-21.3,44.094-23.722a6.476,6.476,0,0,1,2.759,12.656c-9.482,2.067-26.884,7.333-36.9,19.357a6.478,6.478,0,0,1-11.3-2.761Z" transform="translate(-203.839 -58.163)" fill="#dedede"/></g><g transform="translate(216.854 161.277)"><path d="M192.726,156.572a4.886,4.886,0,0,1-.049-4.3c6.329-13.33,20.15-21.8,27.827-25.662a4.9,4.9,0,1,1,4.4,8.748c-6.554,3.3-18.308,10.425-23.384,21.114a4.9,4.9,0,0,1-8.8.1Z" transform="translate(-192.202 -126.084)" fill="#dedede"/></g><g transform="translate(595.819 124.099)"><g transform="translate(0)"><path d="M437.192,105.959a7.634,7.634,0,0,1,3.5,5.745c2.111,22.967-9.724,45.368-16.968,56.676a7.652,7.652,0,1,1-12.886-8.255c6.184-9.656,16.307-28.6,14.613-47.02a7.652,7.652,0,0,1,11.742-7.146Z" transform="translate(-409.627 -104.753)" fill="#dedede"/></g></g><g transform="translate(25.001 24.452)"><path d="M83.884,48.653a4.76,4.76,0,0,1,4.079-.948c13.987,3.226,24.924,14.585,30.2,21.069a4.762,4.762,0,1,1-7.388,6.01c-4.5-5.536-13.733-15.211-24.949-17.8a4.764,4.764,0,0,1-1.938-8.333Z" transform="translate(-82.13 -47.583)" fill="#dedede"/></g><g transform="translate(383.112 172.412)"><path d="M297.882,153.056a10.292,10.292,0,1,1,10.292-10.292A10.305,10.305,0,0,1,297.882,153.056Zm0-17.37a7.079,7.079,0,1,0,7.08,7.078A7.087,7.087,0,0,0,297.882,135.686Z" transform="translate(-287.59 -132.472)" fill="#dedede"/></g><g transform="translate(516.439 109.334)"><g transform="translate(0)"><path d="M380.562,129.238a16.478,16.478,0,1,1,16.476-16.478A16.5,16.5,0,0,1,380.562,129.238Zm0-27.813a11.335,11.335,0,1,0,11.333,11.335A11.348,11.348,0,0,0,380.562,101.426Z" transform="translate(-364.084 -96.282)" fill="#dedede"/></g></g></g><g transform="translate(105.636 35.023)"><g transform="translate(72.481 167.986)"><path d="M189.947,131.6s3.932,2.484,9.482,6.735c-5.757,4.8-18.435,10.064-37.021,9.161a60,60,0,0,1-31.321-10.836,56.947,56.947,0,0,1,10.158-5.888,39.014,39.014,0,0,0,21.445,6.547C173.788,137.323,185.527,135.065,189.947,131.6Z" transform="translate(-131.087 -130.776)" fill="#818181"/></g><g transform="translate(476.647 140.822)"><path d="M377.792,128.641l-14.822-4.1v-.017s3.836-8.277,4.664-9.332c0,0,1.562.415,3.857,1.074,1.994.582,4.553,1.335,7.092,2.125,1.053.338,2.088.678,3.1,1.035C381.686,119.425,380.126,123.582,377.792,128.641Z" transform="translate(-362.97 -115.191)" fill="#fff"/></g><g transform="translate(485.168 132.057)"><path d="M378.864,112.383s-3.218,8.126-3.913,9.743c-2.54-.79-5.1-1.543-7.092-2.125,0,0,4.1-9.482,4.4-9.839C372.26,110.162,376.738,111.572,378.864,112.383Z" transform="translate(-367.859 -110.162)" fill="#fff"/></g><g transform="translate(451.062 148.987)"><path d="M388.7,125.162l5.418,1.5-4.722,11.306-3.537,8.5-11.1,26.6-26.468-7.186,21.332-46.013,4.251,1.185Z" transform="translate(-348.291 -119.876)" fill="#fff"/></g><g transform="translate(450.645 195)"><path d="M348.469,146.275l26.469,7.185c-3.406,6.66-10.44,8.842-18.887,5.984C347.831,156.658,347.416,148.7,348.469,146.275Z" transform="translate(-348.052 -146.275)" fill="#fff"/></g><g transform="translate(441.092 167.083)"><path d="M417.459,180.128c2.032-31.434-27.351-41.366-27.351-41.366l3.536-8.5s34.086,8.5,34.086,46.652c0,33.655-26,51.789-41.31,60.46h-43.85v-7.449h40.615C401.734,217.827,416.049,201.892,417.459,180.128Z" transform="translate(-342.571 -130.258)" fill="#fff"/></g><g transform="translate(433.549 274.196)"><path d="M414.016,191.712v11.23H338.243v-11.23h75.773Z" transform="translate(-338.243 -191.712)" fill="#fff"/></g><g transform="translate(402.999 285.427)"><path d="M458.886,198.156v19.112H320.716V198.156h138.17Z" transform="translate(-320.716 -198.156)" fill="#fff"/></g><g transform="translate(339.999 210.952)"><path d="M315.008,157.553a2.119,2.119,0,0,1-2.126,2.105H310.4V184.6c.321,6.433,5.513,15.03,11.251,23.626-2.071-3.141-18.38,1-29.61-1.429-4.91-1.2-7.469-.3-7.469-.3,5.267-8.032,9.8-15.913,10.1-21.9V159.659h-2.5a2.116,2.116,0,0,1,0-4.232h20.712A2.136,2.136,0,0,1,315.008,157.553Z" transform="translate(-284.571 -155.427)" fill="#fff"/></g><g transform="translate(347.468 262.326)"><path d="M288.856,184.9c11.23,2.426,27.539-1.712,29.61,1.429,1.56,2.351-2.334,4.026-8.241,4.045-9.067.017-16.065-3.932-20.147-5.137C289.646,185.109,289.25,185,288.856,184.9Z" transform="translate(-288.856 -184.902)" fill="#fff"/></g><g transform="translate(323.064 261.7)"><path d="M342.6,208.232c3.425,7.111,2.032,12.886-.394,15.106-4.741,4.345-25.209,4.025-32.451,4.025-7.261,0-27.729.321-32.449-4.025-2.447-2.221-3.819-7.995-.415-15.106,3.179-6.641,9.424-15.068,14.9-23.365,0,0,2.559-.9,7.469.3.394.094.79.207,1.222.338,4.082,1.2,11.08,5.154,20.147,5.137,5.907-.019,9.8-1.694,8.241-4.045C334.041,194.33,339.647,202.062,342.6,208.232Z" transform="translate(-274.855 -184.543)" fill="#fff"/></g><g transform="translate(271.877 165.58)"><path d="M254.484,146.983a32.825,32.825,0,0,0-2.52-2.935c-1.617-1.673-3.312-3.291-4.533-4.777a10.024,10.024,0,0,1-1.2-1.75c-1.806-3.479-.037-7.638,2.426-8.107a2.168,2.168,0,0,1,.885.075,15.326,15.326,0,0,1,4.872,2.916,31.657,31.657,0,0,1,2.653,2.351c3.4,3.329,6.716,7.788,7.788,12.152,1.581,6.508-.6,18.1-3.141,23.778a41.487,41.487,0,0,0-10.855-6.566Z" transform="translate(-245.487 -129.395)" fill="#fff"/></g><g transform="translate(220.979 107.48)"><path d="M288.088,97.99c-.188,2.576-6.264,31.9-11.983,59.181a15.326,15.326,0,0,0-4.872-2.916c4.8-22.481,10.195-48.007,10.346-50.189,0,0-21.182-2.484-41.385-1.168,0,0-12.6,52.559-19.019,81.022l-4.891-1.072c8.9-40.54,20.279-86.308,20.279-86.308C261.716,94.9,288.088,97.99,288.088,97.99Z" transform="translate(-216.285 -96.062)" fill="#fff"/></g><g transform="translate(280.799 109.408)"><path d="M250.606,156.349c5.719-27.277,11.795-56.6,11.983-59.181l2.841,3.988L253.259,158.7A31.662,31.662,0,0,0,250.606,156.349Z" transform="translate(-250.606 -97.168)" fill="#fff"/></g><g transform="translate(217.856 175.455)"><path d="M265.1,159.985s.207-.92.546-2.557c.884-4.026,2.689-12.417,4.816-22.368,1.222,1.487,2.916,3.1,4.533,4.777-1.487,6.961-2.858,13.489-4.026,19-2.144,10.158-3.592,16.949-3.592,16.949-2.614-.15-16.2-2.05-28.932-3.894-12.359-1.787-23.948-3.517-23.948-3.517.98-4.7,2.032-9.557,3.123-14.5l4.891,1.072s10.7,1.335,21.426,2.634h.019C253.527,158.744,263.122,159.874,265.1,159.985Z" transform="translate(-214.493 -135.061)" fill="#fff"/></g><g transform="translate(217.856 180.232)"><path d="M269.668,177.815l-32.6-4.384-18.925-2.539-3.65-4.553s11.589,1.731,23.948,3.517c12.734,1.844,26.317,3.744,28.932,3.894,0,0,1.448-6.791,3.592-16.949,1.168-5.511,2.54-12.039,4.026-19a32.821,32.821,0,0,1,2.52,2.935l-3.631,17.137Z" transform="translate(-214.493 -137.802)" fill="#fff"/></g><g transform="translate(225.87 113.932)"><path d="M279.5,101.316c-.152,2.182-5.55,27.708-10.346,50.189a2.168,2.168,0,0,0-.885-.075c-2.463.469-4.232,4.628-2.426,8.107a10.021,10.021,0,0,0,1.2,1.75c-2.126,9.951-3.932,18.341-4.816,22.368-.338,1.637-.546,2.557-.546,2.557-1.975-.112-11.57-1.241-21.144-2.407h-.019c-10.723-1.3-21.426-2.634-21.426-2.634,6.416-28.463,19.019-81.022,19.019-81.022C258.313,98.832,279.5,101.316,279.5,101.316Z" transform="translate(-219.091 -99.763)" fill="#fff"/></g><g transform="translate(0 173.874)"><path d="M308.825,229c7.582-18.172,15.614-38.64,21.107-52.861l32.6,4.384,4.213-19.941A41.487,41.487,0,0,1,377.6,167.15a30.643,30.643,0,0,1,5.774,6.208c-7.674,42.72-37.793,122.989-55.249,135.894-15.9,11.756-37.812-7-49.023-18.549-7.507-7.713-23.42-26.58-39.919-46.935,0,0-2.426,80.513,0,120.92L89.5,361.247c8.466-91.293,19.753-156.4,36.494-185.783,12.736-22.348,26.788-34.858,35.987-41.31A60,60,0,0,0,193.3,144.99c18.585.9,31.264-4.364,37.021-9.161a153.031,153.031,0,0,1,16.7,14.636c7.657,7.843,19.64,23.947,29.535,36.871C287.908,202.121,299.005,216.474,308.825,229Z" transform="translate(-89.502 -134.154)" fill="#fff"/></g><g transform="translate(82.639 47.104)"><path d="M161.2,130.083c-2.745-1.936-5.417-5.719-7.035-12.886-2.578-11.437,3.611-17.513,8.8-17.926,4.345-.338,10.46,5.248,10.723,9.011a20.563,20.563,0,0,1,8.973-19.49c8.579-5.813,14.6-9.086,28.067-22.836a39.484,39.484,0,0,0,3.819-4.533s.865,4.628,1.936,10.308c1.393,7.413,3.1,16.611,3.669,19.659,2.221,12.094,13,21.784,15.614,23.589,2.634,1.806-4.42,8.089-7.054,10.271-3.838,3.235-8.258,12.509-10.573,20.56-1.994,6.923-2.54,13.093-6.508,17.947-5.342,6.545-21.709,6.451-25.339,5.849a39.488,39.488,0,0,0-.678,13.525c-4.42,3.462-16.159,5.719-27.257,5.719a39.014,39.014,0,0,1-21.445-6.547c.809-4.044.507-10.986.507-10.986C152.529,157.1,161.2,130.083,161.2,130.083Z" transform="translate(-136.915 -61.422)" fill="#fff"/></g><g transform="translate(35.408)"><path d="M234.684,81.5a39.484,39.484,0,0,1-3.819,4.533c-13.47,13.75-19.488,17.024-28.067,22.836a20.563,20.563,0,0,0-8.973,19.49c-.263-3.763-6.378-9.349-10.723-9.011-5.192.413-11.382,6.489-8.8,17.926,1.617,7.167,4.289,10.949,7.035,12.886,0,0-8.671,27.014-23.778,41.235-1.825-6.358-16.968-21.82-28.932-34.16-12.284-12.7-18.416-24.173-18.793-44.339a75.7,75.7,0,0,1,17.494-50.3c16.931-19.959,34.764-24.191,55.325-27.164,22.554-3.273,78.8.471,81.228,22.235,2.409,21.766-27.145,34.124-27.145,34.124l-.113.019C235.548,86.129,234.684,81.5,234.684,81.5Z" transform="translate(-109.817 -34.397)"/></g><g transform="translate(72.481 167.986)"><g transform="translate(56.096 0.828)"><path d="M166.035,131.251s3.932,2.484,9.482,6.735a37.14,37.14,0,0,1-12.246,6.283v-11.4A14.185,14.185,0,0,0,166.035,131.251Z" transform="translate(-163.271 -131.251)" fill="#c6c6c6"/></g><g transform="translate(46.408 2.445)"><path d="M167.4,143.561v.019a60.261,60.261,0,0,1-9.687,2.182v-10.78a42.727,42.727,0,0,0,9.687-2.8Z" transform="translate(-157.713 -132.179)" fill="#2c2c2c"/></g><g transform="translate(36.702 5.248)"><path d="M161.851,133.787v10.8a72.8,72.8,0,0,1-9.707.753V134.916A81.751,81.751,0,0,0,161.851,133.787Z" transform="translate(-152.144 -133.787)" fill="#c6c6c6"/></g><g transform="translate(26.995 6.264)"><path d="M156.282,134.483V144.9c-1.731.038-3.536.019-5.381-.075-1.487-.075-2.935-.207-4.326-.376V134.37a40.172,40.172,0,0,0,4.608.282C152.876,134.652,154.587,134.6,156.282,134.483Z" transform="translate(-146.575 -134.37)" fill="#2c2c2c"/></g><g transform="translate(17.287 3.744)"><path d="M150.713,135.444v10.083a61.255,61.255,0,0,1-9.708-2.069V132.924A39.772,39.772,0,0,0,150.713,135.444Z" transform="translate(-141.005 -132.924)" fill="#c6c6c6"/></g><g transform="translate(7.58)"><path d="M145.143,134.52v10.535a63.017,63.017,0,0,1-9.707-3.857V132c1.656-.847,2.578-1.224,2.578-1.224A33.78,33.78,0,0,0,145.143,134.52Z" transform="translate(-135.436 -130.776)" fill="#2c2c2c"/></g><g transform="translate(0 1.243)"><path d="M138.667,131.489v9.178a47.843,47.843,0,0,1-7.58-4.533A71.466,71.466,0,0,1,138.667,131.489Z" transform="translate(-131.087 -131.489)" fill="#c6c6c6"/></g></g></g><g transform="translate(104.726 34.106)"><g transform="translate(35.399)"><path d="M157.942,192.694a.915.915,0,0,1-.877-.662c-1.682-5.891-15.912-20.579-27.345-32.381l-1.354-1.4C116.9,146.417,109.717,134.767,109.3,113.3a76.179,76.179,0,0,1,17.71-50.9c17.337-20.433,35.569-24.534,55.892-27.478,18.115-2.627,58.761-.915,75.26,11.842,4.181,3.233,6.536,7,7,11.188,2.466,22.19-26.46,34.563-27.692,35.079a.913.913,0,0,1-.706-1.684c.291-.12,28.9-12.365,26.584-33.195-.408-3.679-2.531-7.026-6.306-9.944-15.866-12.269-56.531-13.994-73.881-11.481-19.948,2.892-37.836,6.907-54.761,26.854a74.353,74.353,0,0,0-17.278,49.687c.4,20.956,7.106,31.9,18.549,43.715l1.353,1.4c12.178,12.57,25.981,26.819,27.79,33.151a.911.911,0,0,1-.626,1.128A.982.982,0,0,1,157.942,192.694Z" transform="translate(-109.289 -33.87)"/></g><g transform="translate(119.259 20.849)"><path d="M158.475,120.773a.911.911,0,0,1-.9-.795,21.516,21.516,0,0,1,9.365-20.351c1.145-.777,2.245-1.509,3.322-2.228,6.975-4.642,13-8.649,24.6-20.5a35.949,35.949,0,0,0,10.188-29.97.913.913,0,1,1,1.79-.357,37.912,37.912,0,0,1-10.674,31.605c-11.734,11.992-17.832,16.049-24.891,20.747-1.074.715-2.17,1.443-3.31,2.217a19.678,19.678,0,0,0-8.581,18.6.913.913,0,0,1-.786,1.023A.933.933,0,0,1,158.475,120.773Z" transform="translate(-157.403 -45.832)"/></g><g transform="translate(99.291 84.939)"><path d="M160.226,117.07a10.732,10.732,0,0,1-4.757-1.093c-4.225-2.067-7.218-6.885-8.9-14.318-1.3-5.764-.54-10.948,2.147-14.6a10.624,10.624,0,0,1,7.469-4.441c2.241-.176,4.978.967,7.507,3.139,2.445,2.1,4.058,4.675,4.208,6.714a.913.913,0,0,1-1.821.132c-.112-1.548-1.516-3.692-3.577-5.461-2.128-1.83-4.427-2.832-6.174-2.705a8.782,8.782,0,0,0-6.142,3.706c-2.369,3.216-3.021,7.871-1.835,13.111,1.551,6.852,4.208,11.249,7.9,13.071a9.635,9.635,0,0,0,7.636.211.912.912,0,0,1,.77,1.654A11.3,11.3,0,0,1,160.226,117.07Z" transform="translate(-145.947 -82.603)"/></g><g transform="translate(131.022 47.851)"><path d="M165.388,184.111a.912.912,0,0,1-.9-.781,39.877,39.877,0,0,1,.687-13.881.908.908,0,0,1,1.035-.678c4.242.708,19.669.389,24.487-5.52,2.832-3.472,3.843-7.652,5.013-12.492.4-1.652.812-3.364,1.318-5.124,2.238-7.782,6.691-17.5,10.873-21,4.5-3.774,7.366-7.111,7.3-8.507a.358.358,0,0,0-.18-.322c-2.8-1.936-13.717-11.716-16-24.166-.992-5.412-5.607-29.974-5.607-29.974l1.794-.336s4.617,24.569,5.609,29.981c2.147,11.718,12.736,21.261,15.242,22.995a2.171,2.171,0,0,1,.964,1.739c.122,2.642-4.256,6.892-7.951,9.991-3.387,2.839-7.81,11.486-10.29,20.11-.5,1.733-.906,3.42-1.3,5.048-1.171,4.845-2.278,9.423-5.372,13.217-5.321,6.527-20.262,6.815-25.339,6.28a38.4,38.4,0,0,0-.479,12.38.913.913,0,0,1-.77,1.035A.889.889,0,0,1,165.388,184.111Z" transform="translate(-164.152 -61.324)"/></g><g transform="translate(83.141 115.769)"><path d="M137.593,143.346a.912.912,0,0,1-.626-1.577c14.775-13.888,23.46-40.576,23.548-40.845a.913.913,0,1,1,1.738.558c-.087.272-8.921,27.41-24.036,41.617A.9.9,0,0,1,137.593,143.346Z" transform="translate(-136.681 -100.291)"/></g><g transform="translate(131.346 168.81)"><path d="M266.5,249.172a.906.906,0,0,1-.711-.34c-11.117-13.813-26.014-32.913-45.539-58.391-1.506-1.961-3.059-4-4.638-6.072-8.612-11.3-18.373-24.1-24.829-30.708a165.011,165.011,0,0,0-26.017-21.254.912.912,0,1,1,.978-1.541,166.809,166.809,0,0,1,26.343,21.519c6.534,6.688,16.332,19.539,24.977,30.878,1.577,2.071,3.13,4.1,4.635,6.069,19.518,25.465,34.4,44.554,45.512,58.355a.913.913,0,0,1-.711,1.485Z" transform="translate(-164.338 -130.722)"/></g><g transform="translate(247.302 197.976)"><path d="M231.8,149.281h-.017a.912.912,0,1,1,.017,0Z" transform="translate(-230.865 -147.456)"/></g><g transform="translate(219.329 215.867)"><path d="M215.729,212.414a.9.9,0,0,1-.913-.9.989.989,0,0,1,.071-.37c7.674-18.4,15.709-38.889,21.1-52.836a.912.912,0,1,1,1.7.655c-5.389,13.952-13.423,34.443-21.1,52.85A.916.916,0,0,1,215.729,212.414Z" transform="translate(-214.816 -157.721)"/></g><g transform="translate(128.582 200.31)"><path d="M262.386,303.006c-13.982,0-29.266-13.186-38.352-22.545-7.043-7.239-21.986-24.808-39.972-47-7.258-8.943-14.561-18.087-21.116-26.441a.913.913,0,0,1,1.438-1.126c6.548,8.347,13.844,17.482,21.1,26.416,17.953,22.15,32.853,39.672,39.863,46.874,11.357,11.7,32.672,29.662,47.825,18.451,16.644-12.3,46.8-90.755,54.827-134.955a32.041,32.041,0,0,0-5.4-5.715,40.539,40.539,0,0,0-10.616-6.419.912.912,0,0,1,.7-1.685,42.37,42.37,0,0,1,11.094,6.709,31.277,31.277,0,0,1,5.957,6.419.9.9,0,0,1,.127.65c-7.256,40.386-37.472,123.061-55.6,136.466A19.5,19.5,0,0,1,262.386,303.006Z" transform="translate(-162.752 -148.795)"/></g><g transform="translate(0 156.998)"><path d="M89.893,369.75c-.026,0-.056,0-.085,0a.915.915,0,0,1-.824-.993c9.21-99.334,20.842-158.481,36.609-186.149,19.57-34.34,42.565-45.79,46.128-47.4a62.984,62.984,0,0,0,.4-10.3.912.912,0,0,1,.871-.952.893.893,0,0,1,.952.871c.012.289.3,7.111-.521,11.2a.912.912,0,0,1-.556.669c-.246.1-24.862,10.271-45.688,46.818C111.546,210.942,99.987,269.857,90.8,368.921A.915.915,0,0,1,89.893,369.75Zm82.636-233.908h0Z" transform="translate(-88.98 -123.945)"/></g><g transform="translate(148.615 283.495)"><path d="M176.232,319.271a.913.913,0,0,1-.91-.858c-2.409-39.991-.026-120.2,0-121.007a.93.93,0,0,1,.941-.885.913.913,0,0,1,.884.939c-.024.805-2.405,80.937,0,120.842a.913.913,0,0,1-.854.967C176.27,319.271,176.251,319.271,176.232,319.271Z" transform="translate(-174.245 -196.521)"/></g><g transform="translate(217.862 107.485)"><path d="M267.042,205.342c-.017,0-.035,0-.052,0-1.536-.091-6.217-.715-12.7-1.576-4.655-.62-10.092-1.346-15.518-2.022-12.22-1.767-23.873-3.082-23.99-3.1a.908.908,0,0,1-.79-1.093C222.96,154.841,237.26,97.284,237.4,96.709a.914.914,0,0,1,.828-.69c24.942-1.623,51.043,1.379,51.3,1.41a.914.914,0,0,1,.805.973c-.15,2.027-3.65,18.617-8.079,39.619-1.325,6.282-2.709,12.844-4.065,19.312a.913.913,0,0,1-1.787-.375c1.356-6.468,2.74-13.032,4.066-19.314,3.706-17.573,7.225-34.256,7.922-38.5-4.8-.509-27.455-2.695-49.385-1.344-1.591,6.428-14.575,59.038-23.028,99.151,3.085.357,12.868,1.516,23.033,2.986,5.412.675,10.855,1.4,15.516,2.022,5.358.715,9.743,1.3,11.781,1.5.992-4.687,6.114-28.9,7.455-35.182a.913.913,0,0,1,1.785.382c-1.485,6.96-7.62,35.963-7.62,35.963A.912.912,0,0,1,267.042,205.342Z" transform="translate(-213.974 -95.538)"/></g><g transform="translate(225.876 113.941)"><path d="M262.075,187.511l-.052,0c-2.276-.129-14.261-1.569-21.2-2.414-10.742-1.3-21.447-2.634-21.447-2.634a.91.91,0,0,1-.777-1.105c6.343-28.144,18.9-80.508,19.021-81.034a.915.915,0,0,1,.828-.7c20.058-1.305,41.338,1.145,41.551,1.171a.912.912,0,0,1,.805.967c-.124,1.783-3.32,17.3-10.365,50.318a.912.912,0,1,1-1.783-.382c2.351-11.021,9.2-43.112,10.205-49.192a265.149,265.149,0,0,0-39.621-1.105c-1.457,6.083-12.626,52.772-18.638,79.371,2.9.361,11.654,1.448,20.424,2.51,10.625,1.293,17.719,2.109,20.33,2.343.092-.427.22-1.025.375-1.773.887-4.035,2.691-12.422,4.818-22.371a.912.912,0,1,1,1.785.38c-2.126,9.954-3.934,18.346-4.818,22.373-.338,1.635-.547,2.562-.547,2.562A.91.91,0,0,1,262.075,187.511Z" transform="translate(-218.572 -99.242)"/></g><g transform="translate(240.459 201.85)"><circle cx="3.882" cy="3.882" r="3.882"/></g><g transform="translate(271.887 165.585)"><path d="M262.1,171.986a.881.881,0,0,1-.371-.08.909.909,0,0,1-.46-1.2c2.358-5.278,4.673-16.652,3.085-23.188-.891-3.631-3.638-7.9-7.538-11.716a31.409,31.409,0,0,0-2.576-2.285,14.872,14.872,0,0,0-4.537-2.752,1.451,1.451,0,0,0-.507-.058,2.96,2.96,0,0,0-1.863,1.739,5.731,5.731,0,0,0,.1,5.048,9.411,9.411,0,0,0,1.1,1.595c.856,1.037,1.957,2.154,3.127,3.338.448.455.9.915,1.354,1.38a33.823,33.823,0,0,1,2.6,3.029,11.871,11.871,0,0,1,1.895,3.327.913.913,0,1,1-1.726.6,10.058,10.058,0,0,0-1.624-2.822,32.086,32.086,0,0,0-2.466-2.871c-.437-.451-.887-.908-1.332-1.36-1.2-1.211-2.33-2.358-3.242-3.463a10.928,10.928,0,0,1-1.314-1.922,7.574,7.574,0,0,1-.113-6.672,4.69,4.69,0,0,1,3.184-2.74,3.09,3.09,0,0,1,1.286.089,15.975,15.975,0,0,1,5.213,3.089,32.8,32.8,0,0,1,2.717,2.411c4.138,4.044,7.066,8.633,8.035,12.586,1.682,6.916-.727,18.852-3.193,24.368A.912.912,0,0,1,262.1,171.986Z" transform="translate(-244.97 -128.872)"/></g><g transform="translate(82.637 167.985)"><path d="M158.744,138.622a39.543,39.543,0,0,1-21.984-6.73.913.913,0,0,1,1.088-1.466,38.416,38.416,0,0,0,20.9,6.371c11.39,0,22.622-2.323,26.706-5.527a.913.913,0,1,1,1.128,1.436C182.133,136.189,170.689,138.622,158.744,138.622Z" transform="translate(-136.391 -130.249)"/></g><g transform="translate(72.482 173.884)"><path d="M166.907,146.388q-2.031,0-4.157-.1a60.363,60.363,0,0,1-31.834-11.019.913.913,0,0,1,1.121-1.441,59.649,59.649,0,0,0,30.8,10.636c17.874.88,30.514-4.054,36.4-8.955a.912.912,0,1,1,1.168,1.4C194.732,141.635,183.115,146.388,166.907,146.388Z" transform="translate(-130.565 -133.633)"/></g><g transform="translate(141.161 127.042)"><path d="M187.174,112.6a28.922,28.922,0,0,1-9-.49,20.447,20.447,0,0,1-4.328-1.48,13.041,13.041,0,0,1-3.713-2.773.655.655,0,0,1,.91-.938l.024.021a16.391,16.391,0,0,0,7.49,3.381,32.232,32.232,0,0,0,4.209.563,38.948,38.948,0,0,0,4.248.078h.035a.821.821,0,0,1,.12,1.637Z" transform="translate(-169.969 -106.759)"/></g><g transform="translate(156.796 73.097)"><ellipse cx="2.998" cy="7.861" rx="2.998" ry="7.861"/></g><g transform="translate(345.485 210.963)"><path d="M310.935,160.966H308.54a.912.912,0,0,1,0-1.825h2.395a1.2,1.2,0,0,0,0-2.409h-20.71a1.2,1.2,0,0,0,0,2.409h2.393a.912.912,0,1,1,0,1.825h-2.393a3.029,3.029,0,0,1,0-6.059h20.71a3.029,3.029,0,0,1,0,6.059Z" transform="translate(-287.196 -154.907)"/></g><g transform="translate(323.05 215.197)"><g transform="translate(0)"><path d="M312.528,248.5c-.349,0-.692,0-1.039,0l-1.346,0-1.346,0c-13.383.044-27.551-.457-31.72-4.27-2.8-2.562-4.185-8.72-.61-16.185,2.337-4.882,6.243-10.613,10.376-16.678,6.961-10.219,14.16-20.787,14.529-28.22l0-24.9a.912.912,0,1,1,1.825,0v24.942c-.4,7.992-7.741,18.774-14.845,29.2-4.094,6.008-7.96,11.683-10.237,16.44-3.39,7.076-1.739,12.279.2,14.048,4.206,3.85,23.305,3.819,30.483,3.794l1.349,0,1.349,0c7.192.023,26.275.056,30.485-3.794,1.936-1.769,3.585-6.972.2-14.048-2.276-4.757-6.142-10.432-10.237-16.44-7.1-10.428-14.447-21.21-14.841-29.158l0-24.985a.912.912,0,1,1,1.825,0v24.942c.366,7.388,7.566,17.956,14.526,28.175,4.134,6.066,8.04,11.8,10.376,16.678,3.575,7.465,2.189,13.623-.608,16.185C339.146,247.944,325.562,248.5,312.528,248.5Z" transform="translate(-274.325 -157.336)"/></g><g transform="translate(23.517 46.253)"><path d="M306.779,191.863c-5.123,0-8.622-2.081-11.178-3.6a18.962,18.962,0,0,0-2.728-1.447q-.35-.133-.659-.246l-.185-.047a.951.951,0,0,1-.227-.1,11.132,11.132,0,0,0-2.675-.72.9.9,0,0,1-.645.058.913.913,0,0,1-.633-1.124,1.077,1.077,0,0,1,.518-.614c.324-.162.9-.455,4.389.8,4.009,1.041,8.605.657,12.307.347,4.464-.371,7.688-.641,8.755,1.438a2.758,2.758,0,0,1-.023,2.789c-.941,1.553-3.479,2.449-6.958,2.463Zm-9.2-4.554a17.611,17.611,0,0,0,9.2,2.728h.054c3.076-.01,4.931-.8,5.4-1.583a.931.931,0,0,0-.038-1.009c-.512-.99-3.8-.715-6.982-.451A62.172,62.172,0,0,1,297.579,187.308Zm-7.972-2.177a.544.544,0,0,1-.028.08A.544.544,0,0,0,289.607,185.131Zm0,0,0,0Z" transform="translate(-287.817 -183.873)"/></g><g transform="translate(18.675 65.502)"><ellipse cx="3.789" cy="3.96" rx="3.789" ry="3.96"/></g><g transform="translate(23.681 56.555)"><ellipse cx="2.152" cy="2.249" rx="2.152" ry="2.249"/></g><g transform="translate(30.557 64.035)"><ellipse cx="1.754" cy="1.833" rx="1.754" ry="1.833"/></g><g transform="translate(6.789 46.35)"><path d="M305.846,223.451c-4.279,0-15.012-.153-22.256-1.584a6.372,6.372,0,0,1-4.652-2.951c-1.44-2.592-.457-6.057.694-9.105,1.086-2.872,6.669-11.608,11.155-18.629,1.881-2.94,3.505-5.482,4.286-6.806a.913.913,0,0,1,1.572.931c-.8,1.349-2.43,3.9-4.319,6.86-4.208,6.581-9.968,15.593-10.986,18.289-1,2.656-1.884,5.633-.805,7.573a4.616,4.616,0,0,0,3.408,2.05c7.087,1.394,17.679,1.546,21.9,1.546,6.346,0,22.467-1.088,25.663-2.017a2.914,2.914,0,0,0,1.905-1.665c.812-1.778.471-4.631-.911-7.636-1.97-4.284-11.071-19.53-13.139-22.838a.912.912,0,1,1,1.548-.966c2.151,3.442,11.211,18.611,13.248,23.04,1.626,3.533,1.959,6.871.915,9.156a4.731,4.731,0,0,1-3.057,2.661C328.437,222.4,311.812,223.451,305.846,223.451Z" transform="translate(-278.22 -183.929)"/></g></g><g transform="translate(264.855 304.54)"><path d="M529.648,210.42h-287.8a.912.912,0,1,1,0-1.825h287.8a.912.912,0,1,1,0,1.825Z" transform="translate(-240.936 -208.595)"/></g><g transform="translate(403.003 285.435)"><path d="M459.273,218.564H321.109a.912.912,0,0,1-.913-.913v-19.1a.912.912,0,0,1,.913-.912H459.273a.912.912,0,0,1,.913.912v19.1A.912.912,0,0,1,459.273,218.564Zm-137.25-1.825H458.361v-17.28H322.023Z" transform="translate(-320.196 -197.634)"/></g><g transform="translate(433.538 274.202)"><path d="M414.411,204.247H338.628a.913.913,0,0,1-.913-.913V192.1a.913.913,0,0,1,.913-.913h75.783a.912.912,0,0,1,.913.913v11.232A.912.912,0,0,1,414.411,204.247Zm-74.869-1.825H413.5v-9.409H339.542Z" transform="translate(-337.715 -191.189)"/></g><g transform="translate(451.067 148.987)"><path d="M375.144,174.383a.947.947,0,0,1-.239-.031l-26.458-7.188a.914.914,0,0,1-.591-1.264l21.32-46.021a.913.913,0,0,1,1.074-.5l24.487,6.8a.907.907,0,0,1,.577.479.918.918,0,0,1,.023.751l-19.349,46.407A.916.916,0,0,1,375.144,174.383Zm-25.175-8.7,24.64,6.695,18.643-44.714-22.744-6.318Z" transform="translate(-347.772 -119.349)"/></g><g transform="translate(476.635 140.822)"><path d="M378.192,129.956a.894.894,0,0,1-.382-.084.913.913,0,0,1-.448-1.211c1.665-3.611,2.946-6.806,3.528-8.288-4.974-1.663-10.589-3.225-12.459-3.737-.887,1.553-2.972,5.914-4.249,8.67a.913.913,0,0,1-1.658-.767c.65-1.4,3.929-8.436,4.781-9.522a.9.9,0,0,1,.953-.319c.078.021,7.835,2.1,14.12,4.251a.906.906,0,0,1,.528.472.916.916,0,0,1,.031.711c-.016.042-1.6,4.27-3.918,9.294A.913.913,0,0,1,378.192,129.956Z" transform="translate(-362.441 -114.665)"/></g><g transform="translate(450.649 195.008)"><path d="M363.348,161.973a22.532,22.532,0,0,1-7.214-1.285,12.177,12.177,0,0,1-7.57-6.653c-1.292-2.93-1.25-6.109-.537-7.737a.914.914,0,0,1,1.673.734,8.963,8.963,0,0,0,.533,6.266,10.4,10.4,0,0,0,6.487,5.661c8.107,2.754,14.587.741,17.789-5.52a.913.913,0,0,1,1.626.83A13.692,13.692,0,0,1,363.348,161.973Z" transform="translate(-347.532 -145.753)"/></g><g transform="translate(485.159 132.057)"><path d="M375.332,123.435a.9.9,0,0,1-.364-.077.911.911,0,0,1-.471-1.2c.56-1.281,2.716-6.716,3.564-8.856-1.616-.573-3.835-1.292-4.961-1.654-.723,1.553-2.738,6.144-4.019,9.1a.913.913,0,1,1-1.675-.725c4.164-9.614,4.448-9.947,4.558-10.073a.916.916,0,0,1,.966-.275c.183.058,4.514,1.429,6.648,2.234a.91.91,0,0,1,.526,1.189c-.131.331-3.224,8.159-3.936,9.787A.912.912,0,0,1,375.332,123.435Z" transform="translate(-367.332 -109.636)"/></g><g transform="translate(484.934 167.083)"><path d="M368.115,238.675a.912.912,0,0,1-.448-1.706c27.108-15.342,40.854-35.419,40.854-59.672,0-37-33.059-45.683-33.392-45.765a.913.913,0,0,1,.441-1.773c.349.087,34.776,9.126,34.776,47.538,0,24.959-14.055,45.57-41.781,61.262A.907.907,0,0,1,368.115,238.675Z" transform="translate(-367.202 -129.732)"/></g><g transform="translate(441.097 175.592)"><path d="M342.964,235.048a.911.911,0,0,1-.912-.912v-7.458a.912.912,0,0,1,.912-.913H383.3c21.4-14.019,32.4-30.026,33.624-48.93,1.971-30.378-26.448-40.348-26.734-40.444a.912.912,0,1,1,.584-1.729c.3.1,30.033,10.529,27.973,42.291-1.272,19.584-12.614,36.1-34.675,50.49a.922.922,0,0,1-.5.146h-39.7v6.547A.912.912,0,0,1,342.964,235.048Z" transform="translate(-342.052 -134.614)"/></g><g transform="translate(152.644 65.454)"><path d="M188.12,74.467a9.523,9.523,0,0,0-2.52-.946,9.812,9.812,0,0,0-2.747-.26,11.084,11.084,0,0,0-2.766.5,17.456,17.456,0,0,0-2.686,1.1l-.031.016a.565.565,0,0,1-.582-.964,12.844,12.844,0,0,1,2.764-1.617,10.965,10.965,0,0,1,3.172-.821,10.141,10.141,0,0,1,3.312.234,8.5,8.5,0,0,1,3.078,1.4.839.839,0,0,1-.908,1.407Z" transform="translate(-176.557 -71.424)"/></g><g transform="translate(106.827 94.832)"><path d="M150.957,88.286a11.014,11.014,0,0,1,5.053,2.264,8.225,8.225,0,0,1,1.872,2.186,7.843,7.843,0,0,1,1.014,2.719.911.911,0,0,1-1.771.425l-.026-.1a8.235,8.235,0,0,0-.781-2.142,7.11,7.11,0,0,0-1.431-1.807,9.453,9.453,0,0,0-1.931-1.415,13.024,13.024,0,0,0-2.228-.969l-.045-.016a.59.59,0,0,1,.274-1.145Z" transform="translate(-150.27 -88.278)"/></g><g transform="translate(283.457 109.37)"><path d="M252.522,160.019a.879.879,0,0,1-.19-.019.914.914,0,0,1-.7-1.082L263.709,101.8l-2.954-3.7a.913.913,0,1,1,1.426-1.14l3.224,4.03a.912.912,0,0,1,.18.76L253.415,159.3A.915.915,0,0,1,252.522,160.019Z" transform="translate(-251.609 -96.62)"/></g><g transform="translate(217.861 183.173)"><path d="M270.063,177.864a.713.713,0,0,1-.122-.009l-51.526-6.923a.911.911,0,0,1-.591-.333l-3.65-4.553a.912.912,0,0,1,1.424-1.14l3.421,4.267,50.325,6.761,7.669-36.249a.912.912,0,0,1,1.785.376l-7.843,37.078A.913.913,0,0,1,270.063,177.864Z" transform="translate(-213.974 -138.963)"/></g></g></g></g></svg>