<svg xmlns="http://www.w3.org/2000/svg" xmlns:xlink="http://www.w3.org/1999/xlink" width="960" height="470" viewBox="0 0 960 470"><defs><clipPath id="b"><rect width="960" height="470"/></clipPath></defs><g id="a" clip-path="url(#b)"><rect width="960" height="470" fill="#fff"/><g transform="translate(73.162 -15.342)"><g transform="translate(60.279 28.143)"><circle cx="33.655" cy="33.655" r="33.655" transform="translate(672.645 154.889)" fill="#dedede"/><circle cx="19.158" cy="19.158" r="19.158" transform="translate(470.774 25.336)" fill="#dedede"/><circle cx="15.942" cy="15.942" r="15.942" transform="translate(619.618 198.882)" fill="#dedede"/><circle cx="28.368" cy="28.368" r="28.368" transform="translate(81.683 131.786)" fill="#dedede"/><circle cx="21.915" cy="21.915" r="21.915" transform="translate(650.73 284.276)" fill="#dedede"/><circle cx="12.146" cy="12.146" r="12.146" transform="translate(39.347 280.858)" fill="#dedede"/><circle cx="14.884" cy="14.884" r="14.884" transform="translate(33.085 100.765)" fill="#dedede"/><circle cx="32.279" cy="32.279" r="32.279" transform="translate(254.988 352.337)" fill="#dedede"/><g transform="translate(246.057 36.568)"><path d="M229.192,48.292a8.8,8.8,0,0,1,2.79,16.192c-6.333,3.78-16.747,16.1-20.183,25.72a8.8,8.8,0,1,1-16.582-5.922c4.516-12.643,17.217-28.634,27.737-34.916A8.776,8.776,0,0,1,229.192,48.292Z" transform="translate(-194.702 -48.12)" fill="#dedede"/></g><g transform="translate(135.311 260.726)"><path d="M166.207,202.775a6.763,6.763,0,0,1-12.612-.448c-1.847-5.356-9.467-15.122-16.161-19.218a6.761,6.761,0,1,1,7.058-11.534c8.8,5.382,18.819,17.446,21.887,26.342A6.737,6.737,0,0,1,166.207,202.775Z" transform="translate(-134.2 -170.579)" fill="#dedede"/></g><g transform="translate(513.81 72.33)"><path d="M379.973,77.734a6.222,6.222,0,0,1-9.288,6.967c-4.419-2.766-15.519-5.354-22.68-4.419a6.221,6.221,0,1,1-1.613-12.337c9.409-1.23,23.556,1.614,30.9,6.211A6.194,6.194,0,0,1,379.973,77.734Z" transform="translate(-340.977 -67.657)" fill="#dedede"/></g><g transform="translate(461.007 396.373)"><path d="M313.391,259.43a6.222,6.222,0,0,1,6.127-9.864c5.12.976,16.4-.643,22.734-4.115a6.222,6.222,0,1,1,5.982,10.911c-8.321,4.562-22.537,7.047-31.043,5.427A6.2,6.2,0,0,1,313.391,259.43Z" transform="translate(-312.13 -244.684)" fill="#dedede"/></g><g transform="translate(0 330.113)"><path d="M80.16,208.491a6.221,6.221,0,0,1,3.723,11c-4.005,3.335-9.925,13.075-11.268,20.172a6.222,6.222,0,1,1-12.226-2.316c1.765-9.323,8.878-21.88,15.533-27.42A6.2,6.2,0,0,1,80.16,208.491Z" transform="translate(-60.279 -208.486)" fill="#dedede"/></g><g transform="translate(-16.849 273.836)"><path d="M122.324,38.38a6.221,6.221,0,0,1,.362,11.605c-4.8,2.025-13.3,9.623-16.648,16.02a6.222,6.222,0,0,1-11.025-5.771c4.4-8.406,14.862-18.351,22.841-21.715A6.193,6.193,0,0,1,122.324,38.38Z" transform="translate(-94.303 -38.029)" fill="#dedede"/></g><g transform="translate(557.344 301.945)"><path d="M364.9,202.368a7.785,7.785,0,0,1,12.308-7.715c5.219,3.912,18.788,8.3,27.814,7.876a7.784,7.784,0,0,1,.721,15.552c-11.858.551-29.2-4.474-37.871-10.97A7.765,7.765,0,0,1,364.9,202.368Z" transform="translate(-364.76 -193.098)" fill="#dedede"/></g><g transform="translate(37.634 346.699)"><path d="M116.44,288.749a35.6,35.6,0,1,1,35.6-35.6A35.641,35.641,0,0,1,116.44,288.749Zm0-65.125a29.524,29.524,0,1,0,29.524,29.524A29.558,29.558,0,0,0,116.44,223.624Z" transform="translate(-80.839 -217.547)" fill="#dedede"/></g><g transform="translate(321.096)"><path d="M269.45,95.653A33.755,33.755,0,1,1,303.2,61.9,33.793,33.793,0,0,1,269.45,95.653Zm0-61.747A27.993,27.993,0,1,0,297.442,61.9,28.023,28.023,0,0,0,269.45,33.905Z" transform="translate(-235.696 -28.143)" fill="#dedede"/></g><g transform="translate(569.891 35.683)"><path d="M388,80.412a16.387,16.387,0,1,1,16.386-16.386A16.405,16.405,0,0,1,388,80.412Zm0-29.976A13.589,13.589,0,1,0,401.59,64.025,13.6,13.6,0,0,0,388,50.436Z" transform="translate(-371.614 -47.637)" fill="#dedede"/></g><g transform="translate(84.526 39.914)"><path d="M130.767,98.571a24.311,24.311,0,1,1,24.312-24.312A24.339,24.339,0,0,1,130.767,98.571Zm0-44.473a20.162,20.162,0,1,0,20.163,20.161A20.184,20.184,0,0,0,130.767,54.1Z" transform="translate(-106.456 -49.948)" fill="#dedede"/></g><g transform="translate(218.099 5.762)"><path d="M195.869,64.174a16.441,16.441,0,1,1,16.441-16.441A16.459,16.459,0,0,1,195.869,64.174Zm0-30.077A13.635,13.635,0,1,0,209.5,47.732,13.652,13.652,0,0,0,195.869,34.1Z" transform="translate(-179.428 -31.291)" fill="#dedede"/></g><g transform="translate(575.647 251.538)"><path d="M397.587,211.214a22.827,22.827,0,1,1,22.828-22.828A22.853,22.853,0,0,1,397.587,211.214Zm0-41.759a18.931,18.931,0,1,0,18.931,18.931A18.952,18.952,0,0,0,397.587,169.455Z" transform="translate(-374.759 -165.56)" fill="#dedede"/></g><g transform="translate(409.445 53.387)"><path d="M325.271,57.529A9.715,9.715,0,0,1,331.8,71.541c-10.251,19.482-23.483,27.8-33.866,32.879a9.71,9.71,0,0,1-8.528-17.448c8.622-4.214,17.64-10.093,25.206-24.473A9.74,9.74,0,0,1,325.271,57.529ZM292.533,100.97a5.351,5.351,0,0,0,3.507-.426c9.793-4.787,22.273-12.636,31.94-31.012a5.394,5.394,0,1,0-9.548-5.023C310.29,79.985,300.581,86.315,291.3,90.849a5.4,5.4,0,0,0,.617,9.95A5.165,5.165,0,0,0,292.533,100.97Z" transform="translate(-283.961 -57.308)" fill="#dedede"/></g><g transform="translate(170.02 34.84)"><path d="M153.182,56.268a9.714,9.714,0,0,1,12.881-8.548c20.794,7.227,31,19.068,37.567,28.577a9.711,9.711,0,0,1-15.98,11.038C182.2,79.44,175.034,71.4,159.688,66.064A9.737,9.737,0,0,1,153.182,56.268Zm47.843,25.887a5.36,5.36,0,0,0-.946-3.4c-6.194-8.969-15.821-20.137-35.432-26.954A5.395,5.395,0,1,0,161.1,61.988c16.518,5.74,24.226,14.395,30.1,22.894a5.395,5.395,0,0,0,9.745-2.1A5.716,5.716,0,0,0,201.025,82.154Z" transform="translate(-153.162 -47.176)" fill="#dedede"/></g><g transform="translate(602.743 137.67)"><g transform="translate(0 0)"><path d="M443.338,111.277a8.868,8.868,0,0,1,.838,2.22,8.814,8.814,0,0,1-6.6,10.571c-19.465,4.494-33.027.329-42.667-3.8a8.813,8.813,0,0,1,6.943-16.2c8,3.43,17.389,6.147,31.757,2.83A8.837,8.837,0,0,1,443.338,111.277Zm-49.26,3.231a4.866,4.866,0,0,0,2.372,2.158c9.092,3.9,21.881,7.825,40.241,3.586a4.9,4.9,0,1,0-2.2-9.54c-15.462,3.571-25.566.646-34.18-3.046a4.9,4.9,0,0,0-6.474,6.319A4.716,4.716,0,0,0,394.078,114.508Z" transform="translate(-389.562 -103.353)" fill="#dedede"/></g></g><g transform="translate(-11.658 221.495)"><path d="M408.035,54.654A8.815,8.815,0,0,1,418.1,44.883c19.754,2.984,30.831,11.849,38.273,19.238a8.813,8.813,0,0,1-12.418,12.508c-6.18-6.136-13.908-12.116-28.488-14.318A8.835,8.835,0,0,1,408.035,54.654Zm46.99,15.125a4.865,4.865,0,0,0-1.411-2.879c-7.02-6.969-17.466-15.33-36.1-18.144a4.9,4.9,0,1,0-1.463,9.681c15.693,2.37,24.01,8.808,30.66,15.413a4.9,4.9,0,0,0,8.345-3.493A5.057,5.057,0,0,0,455.025,69.779Z" transform="translate(-407.972 -44.782)" fill="#dedede"/></g><g transform="translate(645.309 254.709)"><path d="M415.088,187.365a7.621,7.621,0,0,1,1.547-12.03c14.97-8.622,27.236-8.59,36.249-7.6a7.619,7.619,0,1,1-1.664,15.147c-7.483-.822-15.931-.7-26.979,5.658A7.64,7.64,0,0,1,415.088,187.365Zm39.932-15.076a4.2,4.2,0,0,0-2.506-1.188c-8.5-.934-20.069-.963-34.188,7.168a4.233,4.233,0,0,0-1.556,5.781,4.229,4.229,0,0,0,5.781,1.556c11.891-6.848,20.984-6.974,29.039-6.09a4.236,4.236,0,0,0,3.43-7.227Z" transform="translate(-412.815 -167.292)" fill="#dedede"/></g><g transform="translate(195.716 372.29)"><path d="M202.158,287.955A10.326,10.326,0,0,1,200.3,290a10.262,10.262,0,0,1-14.457-1.261c-14.955-17.814-17.805-34.083-18.618-46.267a10.261,10.261,0,1,1,20.476-1.366c.674,10.117,2.821,21.29,13.859,34.439A10.285,10.285,0,0,1,202.158,287.955Zm-29.4-49.388a5.648,5.648,0,0,0-.983,3.6c.765,11.492,3.454,26.837,17.562,43.639a5.7,5.7,0,0,0,9.065-.436,5.716,5.716,0,0,0-.335-6.9c-11.882-14.151-14.19-26.178-14.917-37.065a5.7,5.7,0,0,0-9.978-3.374A6,6,0,0,0,172.757,238.567Z" transform="translate(-167.2 -231.527)" fill="#dedede"/></g><g transform="translate(40.426 187.285)"><path d="M128.406,174.569a9.785,9.785,0,0,1-14.525,5.625C94.983,168.583,87.5,154.723,83.1,143.943a9.783,9.783,0,1,1,18.113-7.4c3.657,8.949,8.966,18.411,22.914,26.981A9.81,9.81,0,0,1,128.406,174.569ZM86.929,138.745a5.384,5.384,0,0,0,.194,3.555c4.153,10.165,11.21,23.238,29.035,34.19a5.435,5.435,0,1,0,5.689-9.262c-15.012-9.224-20.725-19.409-24.662-29.041a5.435,5.435,0,0,0-10.044-.048A5.669,5.669,0,0,0,86.929,138.745Z" transform="translate(-82.364 -130.458)" fill="#dedede"/></g><g transform="translate(619.853 343.984)"><path d="M399.425,221.012a7.735,7.735,0,0,1,11.823-3.425c14.073,10.447,19,21.874,21.728,30.662a7.731,7.731,0,1,1-14.77,4.576c-2.263-7.3-5.786-15.111-16.174-22.821A7.753,7.753,0,0,1,399.425,221.012ZM429.6,252.079a4.279,4.279,0,0,0,.093-2.812c-2.57-8.29-7.219-19.068-20.494-28.92a4.295,4.295,0,1,0-5.12,6.9c11.18,8.3,14.973,16.71,17.408,24.565a4.294,4.294,0,0,0,7.9.73A4.168,4.168,0,0,0,429.6,252.079Z" transform="translate(-398.909 -216.064)" fill="#dedede"/></g><g transform="translate(554.108 351.93)"><path d="M398.61,234.581c-4.71-2.759-7.34-9.343-13.481-12.136-6.709-3.053-15.555-3.69-20.534,5.341-3.421,6.207-.772,13.064,2.436,16.509,5.6,6.009,13.864,5.79,17.5,8.913,5.405,4.646,9.229,16.242,18.405,21.307,8.237,4.547,21.323,1.117,26.293-7.972,4.261-7.79-1.228-20.723-8.552-25.039S403.5,237.444,398.61,234.581Z" transform="translate(-362.992 -220.404)" fill="#dedede"/></g><g transform="translate(118.97 382.3)"><path d="M160.5,238.935a7.032,7.032,0,0,1,2.158,5.8c-2.1,21.135-16.71,39.322-25.235,48.281a7.045,7.045,0,1,1-10.209-9.713c7.276-7.65,19.736-23.014,21.42-39.961a7.046,7.046,0,0,1,11.865-4.411Z" transform="translate(-125.273 -236.996)" fill="#dedede"/></g><g transform="translate(554.107 405.174)"><path d="M411.324,289.032a6.6,6.6,0,0,1-5.68,1.2c-19.3-4.873-34.133-20.933-41.257-30.075a6.6,6.6,0,1,1,10.415-8.118c6.085,7.805,18.6,21.481,34.074,25.387a6.6,6.6,0,0,1,2.447,11.609Z" transform="translate(-362.992 -249.492)" fill="#dedede"/></g></g><g transform="translate(147.193 95.653)"><path d="M460.307,123.673v104.74H381.961c2.321-11.1.406-22.129-7.022-32.608a32.484,32.484,0,0,0-21.382-13.5l-.015.015-2.1-2.63c-.747-.763-9.577-7.382-10.154-6.851-.575.513,3.271,11.85,3.271,11.85l4.92,7.6a33.691,33.691,0,0,0-4.173,10.278c-.84,4.313,1.73,18.515,1.979,20.789-1.074.265-2.165.591-3.271.966,0,0,0,1.494-.108,4.095H324.843c-.811-2.352-1.636-4.578-2.493-6.681-1.01-2.522-2.054-4.873-3.145-7.084-.888-1.823-1.79-3.536-2.709-5.155a80.687,80.687,0,0,0-8.488-12.24c-.84-1-1.682-1.946-2.537-2.881v-70.7Z" transform="translate(56.432 -16.318)" fill="#fff"/><path d="M388,91.966l1.4,43.089-32.9,2.118-1.137-43.214,12.91-.794v3.8a13.125,13.125,0,0,1,8.751-1.089s-.077-1.356-.172-3.223Z" transform="translate(97.861 -42.649)" fill="#fff"/><path d="M370.989,97.273c.1,1.867.172,3.223.172,3.223a13.125,13.125,0,0,0-8.751,1.089V89.393c1.168-1.917,7.926-2.991,7.926-2.991C370.446,87.524,370.772,93.473,370.989,97.273Z" transform="translate(103.719 -47.27)" fill="#fff"/><path d="M350.166,190.676c.015,4.142-.156,8.208-.5,12.147h-5.123V190.676Z" transform="translate(88.882 39.327)" fill="#888"/><path d="M350.166,196.278h-5.621V183.93h3.3a.953.953,0,0,1,.124.141,23.639,23.639,0,0,1,1.807,2.381C350.025,189.786,350.15,193.055,350.166,196.278Z" transform="translate(88.882 33.724)" fill="#555"/><path d="M353.129,169.2c7.428,10.479,9.343,21.5,7.022,32.608a52.1,52.1,0,0,1-1.494,5.559h-.172a34.359,34.359,0,0,0-3.3-3.379,33.552,33.552,0,0,0-8.316-5.512l.981-2.041c1.307.467,4.236-.342,6.8-2.132,3.068-2.118,4.314-4.642,3.348-6.1a.625.625,0,0,0-.17-.187l-3.178-3.769-22.921-28.53.015-.015A32.484,32.484,0,0,1,353.129,169.2Z" transform="translate(78.242 10.283)" fill="#fff"/><path d="M344.545,197.312h5.123c-.359,4.2-.919,8.285-1.651,12.24h-3.472Z" transform="translate(88.882 44.838)" fill="#555"/><path d="M344.545,204h3.472a119.9,119.9,0,0,1-2.912,12.24h-.56Z" transform="translate(88.882 50.391)" fill="#888"/><path d="M347.845,185.463h-3.3v-3.379A34.364,34.364,0,0,1,347.845,185.463Z" transform="translate(88.882 32.191)" fill="#555"/><path d="M351.038,173.648c.966,1.463-.28,3.987-3.348,6.1-2.568,1.79-5.5,2.6-6.8,2.132a1.1,1.1,0,0,1-.577-.421c-.935-1.448,1.759-4.173,4.064-5.746,2.336-1.558,5.451-3.083,6.495-2.257A.625.625,0,0,1,351.038,173.648Z" transform="translate(85.206 24.838)" fill="#fff"/><path d="M349.08,171.338l3.178,3.769c-1.043-.826-4.159.7-6.495,2.257-2.3,1.572-5,4.3-4.064,5.746l-3.255-5.028S340.953,170.326,349.08,171.338Z" transform="translate(83.816 23.192)" fill="#fff"/><path d="M365.968,81.57c.251,2.493-2.879,41.283-2.879,41.283-.873,2.242-7.179,12.769-14.358,14.435-6.385,1.5-29.028,0-29.028,0l1.34-52.385,20.4-1.51.126,3.518a41.053,41.053,0,0,1,7.677-.668V82.817Z" transform="translate(68.251 -51.283)" fill="#fff"/><path d="M353.221,210.686v1.838q-1.565,5.022-3.489,9.623H334.1V210.686Z" transform="translate(80.206 55.945)" fill="#888"/><rect width="19.123" height="12.24" transform="translate(414.303 254.39)" fill="#c6c6c6"/><rect width="19.123" height="12.24" transform="translate(414.303 242.15)" fill="#888"/><rect width="19.123" height="12.146" transform="translate(414.303 230.004)" fill="#c6c6c6"/><rect width="19.123" height="12.349" transform="translate(414.303 217.655)" fill="#888"/><path d="M353.221,185.829v3.379H334.1V177.575a29.709,29.709,0,0,1,10.807,2.742A33.552,33.552,0,0,1,353.221,185.829Z" transform="translate(80.206 28.447)" fill="#c6c6c6"/><path d="M335.81,156.9l22.921,28.53c-8.127-1.012-10.635,6.743-10.635,6.743l-12.568-19.451c.811-2.056,1.807-4,2.1-4.858.5-1.419,1-4.1-1.417-4.595-1.386-.28-2.991,1.292-4.47,3.6l-4.92-7.6a7.25,7.25,0,0,1,6.883-5Z" transform="translate(74.165 9.096)" fill="#fff"/><path d="M334.1,216.947h15.634a98.171,98.171,0,0,1-5.653,11.461H334.1Z" transform="translate(80.206 61.144)" fill="#c6c6c6"/><path d="M339.876,192.857a34.3,34.3,0,0,0-10.589,1.012c-.249-2.273-2.819-16.476-1.979-20.789a33.692,33.692,0,0,1,4.173-10.278c1.479-2.3,3.084-3.877,4.47-3.6,2.413.5,1.915,3.176,1.417,4.595-.3.857-1.292,2.8-2.1,4.858l12.568,19.451,3.255,5.028a1.1,1.1,0,0,0,.577.421l-.981,2.041A29.708,29.708,0,0,0,339.876,192.857Z" transform="translate(74.428 13.165)" fill="#fff"/><path d="M334.1,223.208h9.982a80.528,80.528,0,0,1-7.988,11.462H334.1Z" transform="translate(80.206 66.344)" fill="#888"/><path d="M339.481,85.24v3.427a41.053,41.053,0,0,0-7.677.668l-.126-3.518-.218-6.167,8.021-1Z" transform="translate(78.015 -53.706)" fill="#fff"/><path d="M342.781,229.47h1.993a53.613,53.613,0,0,1-13.02,11.461h-8.113V229.47Z" transform="translate(71.523 71.544)" fill="#888"/><rect width="19.138" height="11.461" transform="translate(395.165 289.553)" fill="#555"/><rect width="19.138" height="11.461" transform="translate(395.165 278.091)" fill="#888"/><rect width="19.138" height="11.461" transform="translate(395.165 266.63)" fill="#555"/><rect width="19.138" height="12.24" transform="translate(395.165 254.39)" fill="#888"/><path d="M342.781,197.312v12.24H323.642v-8.627c.342-1.215.653-2.429.95-3.613Z" transform="translate(71.523 44.838)" fill="#555"/><path d="M342.35,190.676v12.147H324.161c1.012-4.236,1.807-8.33,2.4-12.147Z" transform="translate(71.954 39.327)" fill="#888"/><path d="M341.262,183.93v12.348H325.471c.732-4.655,1.184-8.876,1.464-12.348Z" transform="translate(73.042 33.724)" fill="#555"/><path d="M340.6,177.607v11.633H326.271c.187-2.18.3-4.064.359-5.559.108-2.6.108-4.095.108-4.095,1.106-.375,2.2-.7,3.271-.966A34.3,34.3,0,0,1,340.6,177.607Z" transform="translate(73.706 28.415)" fill="#888"/><path d="M335.217,157.4a7.25,7.25,0,0,0-6.883,5s-3.846-11.338-3.271-11.85C325.64,150.014,334.47,156.633,335.217,157.4Z" transform="translate(72.655 5.974)" fill="#fff"/><path d="M333.152,235.731h8.113a30.55,30.55,0,0,1-12.846,4.532,24.57,24.57,0,0,1-16.227-4.532h20.961Z" transform="translate(62.013 76.744)" fill="#888"/><rect width="19.528" height="11.461" transform="translate(375.637 301.014)" fill="#c6c6c6"/><rect width="19.528" height="11.461" transform="translate(375.637 289.553)" fill="#888"/><rect width="19.528" height="11.461" transform="translate(375.637 278.091)" fill="#c6c6c6"/><path d="M330.057,210.686H332.5v11.461H312.974V210.686Z" transform="translate(62.663 55.944)" fill="#888"/><path d="M325.338,204v12.24h-2.444c-.421-3.286-.842-6.463-1.294-9.515.359-.9.7-1.807,1.029-2.726Z" transform="translate(69.827 50.391)" fill="#c6c6c6"/><path d="M324.871,199.294v8.612h-2.709C323.189,205.042,324.093,202.144,324.871,199.294Z" transform="translate(70.294 46.484)" fill="#888"/><path d="M330.058,216.239H312.974V204h15.385c.124.888.265,1.807.4,2.726C329.216,209.776,329.637,212.954,330.058,216.239Z" transform="translate(62.663 50.391)" fill="#c6c6c6"/><path d="M328.359,209.552H312.974v-12.24h13.3Q327.349,203.081,328.359,209.552Z" transform="translate(62.663 44.838)" fill="#888"/><path d="M326.272,202.823h-13.3V190.676H323.7C324.607,194.461,325.447,198.51,326.272,202.823Z" transform="translate(62.663 39.327)" fill="#c6c6c6"/><path d="M323.7,196.278h-10.73V183.93H320.4C321.555,187.73,322.661,191.825,323.7,196.278Z" transform="translate(62.663 33.724)" fill="#888"/><path d="M320.4,189.483h-7.428v-12.24h3.145c.857,2.1,1.682,4.329,2.493,6.681C319.218,185.7,319.826,187.552,320.4,189.483Z" transform="translate(62.663 28.171)" fill="#c6c6c6"/><path d="M316.119,180.457h-3.145v-7.084C314.065,175.584,315.108,177.935,316.119,180.457Z" transform="translate(62.663 24.957)" fill="#888"/><path d="M318.874,229.47v11.461H317.44a48.966,48.966,0,0,1-11.57-11.461Z" transform="translate(56.763 71.544)" fill="#888"/><path d="M322.1,223.208V234.67h-13a81.767,81.767,0,0,1-7.115-11.462H322.1Z" transform="translate(53.535 66.344)" fill="#555"/><rect width="19.528" height="11.461" transform="translate(356.109 278.091)" fill="#888"/><rect width="19.528" height="11.461" transform="translate(356.109 266.63)" fill="#555"/><rect width="19.528" height="12.24" transform="translate(356.109 254.39)" fill="#888"/><rect width="19.528" height="12.24" transform="translate(356.109 242.15)" fill="#555"/><rect width="19.528" height="12.146" transform="translate(356.109 230.004)" fill="#888"/><rect width="19.528" height="12.349" transform="translate(356.109 217.655)" fill="#555"/><rect width="19.528" height="12.24" transform="translate(356.109 205.415)" fill="#888"/><path d="M321.833,175.712V182.8H302.306V170.557h16.818C320.043,172.175,320.946,173.888,321.833,175.712Z" transform="translate(53.804 22.618)" fill="#555"/><path d="M319.124,176.11H302.306V163.87h8.33A80.686,80.686,0,0,1,319.124,176.11Z" transform="translate(53.804 17.065)" fill="#888"/><path d="M310.636,167.77h-8.33v-8.6c.826.716,1.635,1.479,2.446,2.273,1.137,1.106,2.242,2.242,3.348,3.441C308.954,165.824,309.8,166.774,310.636,167.77Z" transform="translate(53.804 13.165)" fill="#555"/><path d="M304.842,216.947v11.461h-.591a88.306,88.306,0,0,1-5-11.461Z" transform="translate(51.267 61.144)" fill="#c6c6c6"/><path d="M305.775,210.686v11.461h-5.59a30.745,30.745,0,0,1-2.041-8.129h-.015v-3.331Z" transform="translate(50.335 55.945)" fill="#888"/><path d="M305.811,204v12.24h-7.646c-.017-4.283-.048-8.378-.079-12.24Z" transform="translate(50.299 50.391)" fill="#c6c6c6"/><path d="M305.867,197.312v12.24h-7.725c-.031-4.377-.077-8.471-.124-12.24Z" transform="translate(50.243 44.838)" fill="#888"/><path d="M305.952,190.676v12.147H298.1c-.062-4.53-.124-8.6-.187-12.147Z" transform="translate(50.158 39.327)" fill="#c6c6c6"/><path d="M306.044,183.93v12.348h-8.036c-.077-5.418-.17-9.608-.2-12.348Z" transform="translate(50.066 33.724)" fill="#888"/><path d="M302.928,189.483h-11.29v-12.24h19.528v12.24Z" transform="translate(44.944 28.171)" fill="#c6c6c6"/><rect width="19.528" height="12.24" transform="translate(336.582 193.175)" fill="#888"/><rect width="19.528" height="12.24" transform="translate(336.582 180.935)" fill="#c6c6c6"/><path d="M311.166,160.827v8.6H291.638v-12.24H306.82c1.464,1.137,2.912,2.336,4.346,3.628Z" transform="translate(44.944 11.512)" fill="#888"/><path d="M306.805,161.373H291.638V152.4l.139-.265A87.053,87.053,0,0,1,306.805,161.373Z" transform="translate(44.944 7.322)" fill="#c6c6c6"/><path d="M303.52,214.017c.015,2.647.015,5.358.015,8.129h-11.9V210.686H303.52Z" transform="translate(44.944 55.945)" fill="#888"/><path d="M291.638,216.947h11.9c0,3.707-.015,7.538-.046,11.461h-11.85Z" transform="translate(44.944 61.144)" fill="#c6c6c6"/><path d="M303.52,216.239H291.638V204h11.8C303.472,207.861,303.5,211.956,303.52,216.239Z" transform="translate(44.944 50.391)" fill="#c6c6c6"/><path d="M291.638,223.208h11.85q-.025,5.607-.093,11.462H291.638Z" transform="translate(44.944 66.344)" fill="#888"/><path d="M303.441,209.552h-11.8v-12.24h11.678C303.364,201.081,303.41,205.176,303.441,209.552Z" transform="translate(44.944 44.838)" fill="#888"/><path d="M291.638,229.47H303.4q-.071,5.629-.156,11.461h-11.6Z" transform="translate(44.944 71.544)" fill="#c6c6c6"/><path d="M303.316,202.823H291.638V190.676H303.13C303.192,194.227,303.254,198.293,303.316,202.823Z" transform="translate(44.944 39.327)" fill="#c6c6c6"/><path d="M291.638,235.731h11.6c-.062,4.283-.156,8.643-.249,13.049H291.638Z" transform="translate(44.944 76.744)" fill="#888"/><path d="M303.13,196.278H291.638V183.93h11.288C302.959,186.67,303.053,190.86,303.13,196.278Z" transform="translate(44.944 33.724)" fill="#888"/><path d="M291.638,242.86h11.353c-.1,4.3-.22,8.643-.344,13.035H291.638Z" transform="translate(44.944 82.664)" fill="#c6c6c6"/><path d="M291.638,249.981h11.008c-.124,4.313-.264,8.673-.436,13.049H291.638Z" transform="translate(44.944 88.578)" fill="#888"/><path d="M291.638,257.11h10.573c-.156,4.329-.326,8.689-.529,13.049H291.638Z" transform="translate(44.944 94.499)" fill="#c6c6c6"/><path d="M300.072,153.621l-.139.265v8.969H281.65v-12.24h10.963l.11-.264C295.152,151.348,297.612,152.439,300.072,153.621Z" transform="translate(36.649 5.839)" fill="#888"/><rect width="18.282" height="13.05" transform="translate(318.3 351.609)" fill="#888"/><rect width="18.282" height="13.05" transform="translate(318.3 338.559)" fill="#555"/><rect width="18.282" height="13.034" transform="translate(318.3 325.525)" fill="#888"/><rect width="18.282" height="13.05" transform="translate(318.3 312.475)" fill="#555"/><rect width="18.282" height="11.461" transform="translate(318.3 301.014)" fill="#888"/><rect width="18.282" height="11.461" transform="translate(318.3 289.553)" fill="#555"/><rect width="18.282" height="11.461" transform="translate(318.3 278.091)" fill="#888"/><rect width="18.282" height="11.461" transform="translate(318.3 266.63)" fill="#555"/><rect width="18.282" height="12.24" transform="translate(318.3 254.39)" fill="#888"/><rect width="18.282" height="12.24" transform="translate(318.3 242.15)" fill="#555"/><rect width="18.282" height="12.146" transform="translate(318.3 230.004)" fill="#888"/><rect width="18.282" height="12.349" transform="translate(318.3 217.655)" fill="#555"/><rect width="18.282" height="12.24" transform="translate(318.3 205.415)" fill="#888"/><rect width="18.282" height="12.24" transform="translate(318.3 193.175)" fill="#555"/><rect width="18.282" height="12.24" transform="translate(318.3 180.935)" fill="#888"/><rect width="18.282" height="12.24" transform="translate(318.3 168.695)" fill="#555"/><path d="M336.179,124.243c1.618,9.374-3.551,16.352-8.223,22.191s-13.128,13.064-15.636,18.905c-1.4,3.269-1.743,11.85-1.68,20.166-.935-4.75-7.241-7.538-11.214-10.714-3.892-3.1-7.007-6.509-8.05-11.9,2.508-1.464,4.159-4.283,5.31-7.086,2.134-5.169,3.037-14.217-1.884-17.285-5.559-3.472-12.693,1.51-14.669,5.3a18.387,18.387,0,0,0-4.844-12.8c-5.356-6.229-26.613-16.555-34.087-21.365a14,14,0,0,1-2.29-1.7c-4.049-4.219-3.831-7.256-3.255-9.841.591-2.6,3.752-4.843,6.432-2.929,0,0-4.906-13.033,4.92-17.347,8.876-3.908,17.845,3.582,19.106,5.5,0,0,4.329-9.982,18.173-9.374,11.4.5,17.4,8.254,18.656,13.641,1.464,6.291,8.55,10.979,16.055,15.246C326.509,107.1,334.543,114.853,336.179,124.243Z" transform="translate(-1.808 -57.625)"/><path d="M292.723,152.514l-.11.264H281.65v-5.028c3.364,1.68,7.241,3.192,10.963,4.717C292.644,152.483,292.691,152.5,292.723,152.514Z" transform="translate(36.649 3.677)" fill="#555"/><rect width="18.827" height="13.05" transform="translate(299.473 351.609)" fill="#c6c6c6"/><rect width="18.827" height="13.05" transform="translate(299.473 338.559)" fill="#888"/><rect width="18.827" height="13.034" transform="translate(299.473 325.525)" fill="#c6c6c6"/><rect width="18.827" height="13.05" transform="translate(299.473 312.475)" fill="#888"/><rect width="18.827" height="11.461" transform="translate(299.473 301.014)" fill="#c6c6c6"/><rect width="18.827" height="11.461" transform="translate(299.473 289.553)" fill="#888"/><rect width="18.827" height="11.461" transform="translate(299.473 278.091)" fill="#c6c6c6"/><rect width="18.827" height="11.461" transform="translate(299.473 266.63)" fill="#888"/><rect width="18.827" height="12.24" transform="translate(299.473 254.39)" fill="#c6c6c6"/><rect width="18.827" height="12.24" transform="translate(299.473 242.15)" fill="#888"/><rect width="18.827" height="12.146" transform="translate(299.473 230.004)" fill="#c6c6c6"/><rect width="18.827" height="12.349" transform="translate(299.473 217.655)" fill="#888"/><rect width="18.827" height="12.24" transform="translate(299.473 205.415)" fill="#c6c6c6"/><rect width="18.827" height="12.24" transform="translate(299.473 193.175)" fill="#888"/><rect width="18.827" height="12.24" transform="translate(299.473 180.935)" fill="#c6c6c6"/><rect width="18.827" height="12.24" transform="translate(299.473 168.695)" fill="#888"/><rect width="18.827" height="12.24" transform="translate(299.473 156.455)" fill="#c6c6c6"/><path d="M290.191,151v5.028H271.365V147.9a26.768,26.768,0,0,0,9.872-4.065C282.7,146.67,286.08,148.959,290.191,151Z" transform="translate(28.108 0.427)" fill="#888"/><path d="M295.564,146.688c1.043,5.389,4.159,8.8,8.05,11.9,3.972,3.176,10.278,5.964,11.213,10.714v.031c.031,6.509.311,12.832.513,16.35a26.768,26.768,0,0,1-9.872,4.065,39.538,39.538,0,0,1-18.843-1.012v-.016c-2.771-.871-4.812-1.962-5.653-2.958.639-7.007-1.62-16.646-1.62-16.646-20.274,1.759-33.589-2.369-37.171-7.117-3.6-4.767-2.757-13.985-3.582-17.364s-8.3-7.055-8.3-9.173,9.235-9.515,10.137-16.4c.5-3.769.124-8,.624-11.882s2.211-10.434,4.329-13.734c7.474,4.81,28.731,15.136,34.087,21.365a18.388,18.388,0,0,1,4.844,12.8c1.977-3.785,9.11-8.768,14.669-5.3,4.92,3.068,4.018,12.116,1.884,17.285C299.723,142.4,298.072,145.224,295.564,146.688Z" transform="translate(-5.995 -41.419)" fill="#fff"/><rect width="18.843" height="13.05" transform="translate(280.63 351.609)" fill="#888"/><rect width="18.843" height="13.05" transform="translate(280.63 338.559)" fill="#555"/><rect width="18.843" height="13.034" transform="translate(280.63 325.525)" fill="#888"/><rect width="18.843" height="13.05" transform="translate(280.63 312.475)" fill="#555"/><rect width="18.843" height="11.461" transform="translate(280.63 301.014)" fill="#888"/><rect width="18.843" height="11.461" transform="translate(280.63 289.553)" fill="#555"/><rect width="18.843" height="11.461" transform="translate(280.63 278.091)" fill="#888"/><rect width="18.843" height="11.461" transform="translate(280.63 266.63)" fill="#555"/><rect width="18.843" height="12.24" transform="translate(280.63 254.39)" fill="#888"/><rect width="18.843" height="12.24" transform="translate(280.63 242.15)" fill="#555"/><rect width="18.843" height="12.146" transform="translate(280.63 230.004)" fill="#888"/><rect width="18.843" height="12.349" transform="translate(280.63 217.655)" fill="#555"/><rect width="18.843" height="12.24" transform="translate(280.63 205.415)" fill="#888"/><rect width="18.843" height="12.24" transform="translate(280.63 193.175)" fill="#555"/><rect width="18.843" height="12.24" transform="translate(280.63 180.935)" fill="#888"/><rect width="18.843" height="12.24" transform="translate(280.63 168.695)" fill="#555"/><rect width="18.843" height="12.24" transform="translate(280.63 156.455)" fill="#888"/><path d="M279.914,146.515v8.127H261.071V145.5A39.538,39.538,0,0,0,279.914,146.515Z" transform="translate(19.559 1.812)" fill="#555"/><rect width="18.827" height="13.05" transform="translate(261.803 351.609)" fill="#c6c6c6"/><rect width="18.827" height="13.05" transform="translate(261.803 338.559)" fill="#888"/><rect width="18.827" height="13.034" transform="translate(261.803 325.525)" fill="#c6c6c6"/><rect width="18.827" height="13.05" transform="translate(261.803 312.475)" fill="#888"/><rect width="18.827" height="11.461" transform="translate(261.803 301.014)" fill="#c6c6c6"/><rect width="18.827" height="11.461" transform="translate(261.803 289.553)" fill="#888"/><rect width="18.827" height="11.461" transform="translate(261.803 278.091)" fill="#c6c6c6"/><rect width="18.827" height="11.461" transform="translate(261.803 266.63)" fill="#888"/><rect width="18.827" height="12.24" transform="translate(261.803 254.39)" fill="#c6c6c6"/><rect width="18.827" height="12.24" transform="translate(261.803 242.15)" fill="#888"/><rect width="18.827" height="12.146" transform="translate(261.803 230.004)" fill="#c6c6c6"/><rect width="18.827" height="12.349" transform="translate(261.803 217.655)" fill="#888"/><rect width="18.827" height="12.24" transform="translate(261.803 205.415)" fill="#c6c6c6"/><rect width="18.827" height="12.24" transform="translate(261.803 193.175)" fill="#888"/><rect width="18.827" height="12.24" transform="translate(261.803 180.935)" fill="#c6c6c6"/><rect width="18.827" height="12.24" transform="translate(261.803 168.695)" fill="#888"/><rect width="18.827" height="12.24" transform="translate(261.803 156.455)" fill="#c6c6c6"/><path d="M269.612,146.853v9.14H250.786V150.7c5.4-2.1,10.058-4.3,13.174-6.82.84,1,2.881,2.087,5.653,2.958Z" transform="translate(11.018 0.462)" fill="#888"/><rect width="18.843" height="13.05" transform="translate(242.96 351.609)" fill="#888"/><rect width="18.843" height="13.05" transform="translate(242.96 338.559)" fill="#555"/><rect width="18.843" height="13.034" transform="translate(242.96 325.525)" fill="#888"/><rect width="18.843" height="13.05" transform="translate(242.96 312.475)" fill="#555"/><rect width="18.843" height="11.461" transform="translate(242.96 301.014)" fill="#888"/><rect width="18.843" height="11.461" transform="translate(242.96 289.553)" fill="#555"/><rect width="18.843" height="11.461" transform="translate(242.96 278.091)" fill="#888"/><rect width="18.843" height="11.461" transform="translate(242.96 266.63)" fill="#555"/><rect width="18.843" height="12.24" transform="translate(242.96 254.39)" fill="#888"/><rect width="18.843" height="12.24" transform="translate(242.96 242.15)" fill="#555"/><rect width="18.843" height="12.146" transform="translate(242.96 230.004)" fill="#888"/><rect width="18.843" height="12.349" transform="translate(242.96 217.655)" fill="#555"/><rect width="18.843" height="12.24" transform="translate(242.96 205.415)" fill="#888"/><rect width="18.843" height="12.24" transform="translate(242.96 193.175)" fill="#555"/><rect width="18.843" height="12.24" transform="translate(242.96 180.935)" fill="#888"/><rect width="18.843" height="12.24" transform="translate(242.96 168.695)" fill="#555"/><path d="M259.427,150.5v12.24H240.584V152.458l-.2-.481c1.386-.514,2.788-1,4.19-1.481Z" transform="translate(2.377 5.958)" fill="#888"/><path d="M257.526,147.6V152.9H242.67C247.839,151.108,252.946,149.394,257.526,147.6Z" transform="translate(4.277 3.557)" fill="#555"/><rect width="18.827" height="13.05" transform="translate(224.133 351.609)" fill="#c6c6c6"/><rect width="18.827" height="13.05" transform="translate(224.133 338.559)" fill="#888"/><rect width="18.827" height="13.034" transform="translate(224.133 325.525)" fill="#c6c6c6"/><rect width="18.827" height="13.05" transform="translate(224.133 312.475)" fill="#888"/><rect width="18.827" height="11.461" transform="translate(224.133 301.014)" fill="#c6c6c6"/><rect width="18.827" height="11.461" transform="translate(224.133 289.553)" fill="#888"/><rect width="18.827" height="11.461" transform="translate(224.133 278.091)" fill="#c6c6c6"/><rect width="18.827" height="11.461" transform="translate(224.133 266.63)" fill="#888"/><rect width="18.827" height="12.24" transform="translate(224.133 254.39)" fill="#c6c6c6"/><rect width="18.827" height="12.24" transform="translate(224.133 242.15)" fill="#888"/><rect width="18.827" height="12.146" transform="translate(224.133 230.004)" fill="#c6c6c6"/><rect width="18.827" height="12.349" transform="translate(224.133 217.655)" fill="#888"/><rect width="18.827" height="12.24" transform="translate(224.133 205.415)" fill="#c6c6c6"/><rect width="18.827" height="12.24" transform="translate(224.133 193.175)" fill="#888"/><rect width="18.827" height="12.24" transform="translate(224.133 180.935)" fill="#c6c6c6"/><rect width="18.827" height="12.24" transform="translate(224.133 168.695)" fill="#888"/><path d="M250.92,151.786v10.278H227.935a72.515,72.515,0,0,1,8.612-5.014,141.966,141.966,0,0,1,14.17-5.746Z" transform="translate(-7.96 6.63)" fill="#c6c6c6"/><path d="M235.639,257.11v13.049H223.664c.141-4.236.218-8.6.234-13.049Z" transform="translate(-11.507 94.499)" fill="#888"/><path d="M235.554,249.981V263.03H223.814c.031-4.283.015-8.643-.048-13.049Z" transform="translate(-11.422 88.578)" fill="#555"/><path d="M235.646,242.86v13.035H223.857c-.031-4.3-.108-8.644-.2-13.035Z" transform="translate(-11.513 82.664)" fill="#888"/><path d="M235.787,235.731V248.78H223.8q-.14-6.494-.311-13.049Z" transform="translate(-11.654 76.744)" fill="#555"/><path d="M235.907,229.47v11.461h-12.3c-.093-3.815-.187-7.646-.265-11.461Z" transform="translate(-11.775 71.544)" fill="#888"/><path d="M236.028,223.208V234.67H223.461c-.108-3.831-.187-7.662-.265-11.462Z" transform="translate(-11.895 66.344)" fill="#555"/><path d="M236.1,216.947v11.461H223.273c-.077-3.846-.139-7.677-.17-11.461Z" transform="translate(-11.972 61.144)" fill="#888"/><path d="M236.126,210.686v11.461h-13c-.048-3.862-.062-7.693-.031-11.461Z" transform="translate(-11.994 55.945)" fill="#555"/><path d="M236.119,204v12.24H223.086q0-6.238.17-12.24Z" transform="translate(-11.987 50.391)" fill="#888"/><path d="M236.042,197.312v12.24H223.179c.11-4.19.265-8.268.514-12.24Z" transform="translate(-11.909 44.838)" fill="#555"/><path d="M226.437,202.17l-.653.653h-5.87V190.676h18.841v12.147H226.406C226.406,202.605,226.422,202.387,226.437,202.17Z" transform="translate(-14.622 39.327)" fill="#888"/><rect width="18.843" height="12.349" transform="translate(205.291 217.655)" fill="#555"/><rect width="18.843" height="12.24" transform="translate(205.291 205.415)" fill="#888"/><rect width="18.843" height="12.24" transform="translate(205.291 193.175)" fill="#555"/><rect width="18.843" height="12.24" transform="translate(205.291 180.935)" fill="#888"/><path d="M239.221,157.183v12.24h-19.87a164.222,164.222,0,0,1,15.713-12.24Z" transform="translate(-15.088 11.512)" fill="#555"/><path d="M219.913,197.312h5.87c-1.759,1.744-3.721,3.676-5.87,5.715Z" transform="translate(-14.622 44.838)" fill="#555"/><path d="M228.455,197.312v5.715c-2.2,2.087-4.58,4.3-7.1,6.526H209.627v-12.24Z" transform="translate(-23.164 44.838)" fill="#888"/><rect width="18.827" height="12.146" transform="translate(186.464 230.004)" fill="#c6c6c6"/><rect width="18.827" height="12.349" transform="translate(186.464 217.655)" fill="#888"/><rect width="18.827" height="12.24" transform="translate(186.464 205.415)" fill="#c6c6c6"/><path d="M228.455,170.557V182.8H209.627v-8.221c1.386-1.294,2.819-2.632,4.314-4.018Z" transform="translate(-23.164 22.618)" fill="#888"/><path d="M226.5,163.87v12.24H211.984c4.188-3.91,8.751-8.146,13.485-12.24Z" transform="translate(-21.206 17.065)" fill="#c6c6c6"/><path d="M209.627,204h11.726c-3.643,3.238-7.6,6.524-11.726,9.654Z" transform="translate(-23.164 50.391)" fill="#c6c6c6"/><path d="M288,65.024V237.1H222.707c-.079-.232-.156-.467-.234-.685-.326-.965-.606-1.869-.871-2.694-1.106-3.441-1.7-5.512-1.7-5.512-.342-.031-.7-.062-1.043-.079v-.015c.249-19.015,8.876-35.039,10.511-38.294,1.448-2.912,3.317-8.642,2.678-10.791l3.941-3.271,7.38-11.96-13.595,5.248-9.264,7.507c-5.468-.359-17.131,1.433-27.128,12.24-3.41,3.674-5.638,9.218-6.992,15.416v.015l-4.7,3.8c-1.5.95-.78,3.628.56,5.466a7.979,7.979,0,0,0,2.553,2.18,93.779,93.779,0,0,0,.919,21.428h-61.9V65.024Z" transform="translate(-94.422 -65.024)" fill="#fff"/><path d="M218.458,204v9.654c-1.151.873-2.319,1.744-3.5,2.587H198.993V204Z" transform="translate(-31.995 50.391)" fill="#888"/><rect width="19.466" height="12.24" transform="translate(166.998 242.15)" fill="#555"/><rect width="19.466" height="12.146" transform="translate(166.998 230.004)" fill="#888"/><rect width="19.466" height="12.349" transform="translate(166.998 217.655)" fill="#555"/><path d="M218.465,177.243v12.24H199v-4.391l-.015-.015c3.331-2.4,6.789-5.061,10.168-7.834Z" transform="translate(-32.002 28.171)" fill="#888"/><path d="M213.852,172.752v8.221H204.54l1.043-.855C207.981,178.124,210.769,175.586,213.852,172.752Z" transform="translate(-27.389 24.441)" fill="#555"/><path d="M198.993,210.686h15.962a101.461,101.461,0,0,1-15.962,9.515v-9.515Z" transform="translate(-31.995 55.945)" fill="#555"/><path d="M207.831,220.184v.016c-6.679,3.1-13.329,4.92-19.48,4.578V210.686h19.48Z" transform="translate(-40.833 55.945)" fill="#888"/><rect width="19.481" height="12.24" transform="translate(147.517 254.39)" fill="#c6c6c6"/><rect width="19.481" height="12.24" transform="translate(147.517 242.15)" fill="#888"/><rect width="19.481" height="12.146" transform="translate(147.517 230.004)" fill="#c6c6c6"/><path d="M207.831,185.929v12.348h-19.48v-5a44.039,44.039,0,0,0,5.636-2.726,142.023,142.023,0,0,0,13.829-9.032l.015.015Z" transform="translate(-40.833 31.725)" fill="#888"/><path d="M195.3,118.985l-7.38,11.96c1-4.2-4.173-7.038-6.214-6.712Z" transform="translate(-46.352 -20.211)" fill="#fff"/><path d="M188.351,182.365a67.165,67.165,0,0,0,5.636,7.49,44.035,44.035,0,0,1-5.636,2.726V182.365Z" transform="translate(-40.833 32.425)" fill="#888"/><path d="M197.868,224.748v.031c-.344-.016-.67-.048-1.012-.079-6.354-.608-13.238-5.887-19.965-14.014h20.977Z" transform="translate(-50.35 55.945)" fill="#555"/><rect width="19.466" height="12.24" transform="translate(128.052 254.39)" fill="#888"/><rect width="19.466" height="12.24" transform="translate(128.052 242.15)" fill="#555"/><rect width="19.466" height="12.146" transform="translate(128.052 230.004)" fill="#888"/><path d="M197.182,191.28v5H177.716V183.93h19.466Z" transform="translate(-49.665 33.725)" fill="#555"/><path d="M197.183,186.619v2.865H177.716v-12.24h14.016C193.46,180.529,195.283,183.706,197.183,186.619Z" transform="translate(-49.665 28.171)" fill="#888"/><path d="M191.732,182.8H177.716V170.557h8.222C187.714,174.637,189.645,178.794,191.732,182.8Z" transform="translate(-49.665 22.618)" fill="#555"/><path d="M199.877,121.864c2.041-.326,7.21,2.508,6.214,6.712l-3.941,3.271a1.256,1.256,0,0,0-.311-.593c-1.369-1.369-3.535-1.292-6.883,2.508a48.4,48.4,0,0,0-5.169,8.393L165.68,162.244c3.084-2.616-3.161-10.091-5.854-7.911l30.787-24.962Z" transform="translate(-64.522 -17.841)" fill="#fff"/><path d="M192.122,138.25a48.405,48.405,0,0,1,5.169-8.393c3.348-3.8,5.513-3.877,6.883-2.508a1.256,1.256,0,0,1,.311.593c.639,2.149-1.23,7.878-2.678,10.791-1.635,3.255-10.262,19.279-10.511,38.294v.015a45.849,45.849,0,0,0-15.854,1.682,50.71,50.71,0,0,0-9.81,3.908,53.287,53.287,0,0,0-7.258,4.516c-.077-.357-.156-.747-.218-1.137a93.78,93.78,0,0,1-.919-21.428c1.122.624,2.228.873,2.757.436l8-6.665.015-.015Z" transform="translate(-66.857 -13.937)" fill="#fff"/><path d="M185.938,176.11h-8.222V163.87h3.364C182.483,167.685,184.117,171.858,185.938,176.11Z" transform="translate(-49.665 17.065)" fill="#888"/><path d="M181.08,168.2h-3.364v-9.546c.079.218.156.452.234.685C178.807,161.91,179.85,164.93,181.08,168.2Z" transform="translate(-49.665 12.734)" fill="#555"/><path d="M182.343,204v12.24h-1.51a116.071,116.071,0,0,1-8.689-12.164l.11-.077Z" transform="translate(-54.293 50.391)" fill="#c6c6c6"/><path d="M185.537,197.312v12.24h-10.09l-.11.077c-2.429-3.846-4.781-7.988-7.038-12.317Z" transform="translate(-57.486 44.838)" fill="#888"/><path d="M186.547,190.676v12.147H169.31c-.749-1.448-1.5-2.927-2.228-4.422v-7.725Z" transform="translate(-58.496 39.327)" fill="#c6c6c6"/><rect width="19.466" height="12.349" transform="translate(108.586 217.655)" fill="#888"/><rect width="19.466" height="12.24" transform="translate(108.586 205.415)" fill="#c6c6c6"/><rect width="19.466" height="12.24" transform="translate(108.586 193.175)" fill="#888"/><rect width="19.466" height="12.24" transform="translate(108.586 180.935)" fill="#c6c6c6"/><path d="M186.547,159.877v9.546H167.082v-12.24h18.594C185.941,158.009,186.221,158.913,186.547,159.877Z" transform="translate(-58.496 11.512)" fill="#888"/><path d="M185.676,159.771H167.082v-3.908a45.849,45.849,0,0,1,15.854-1.682c.342.016.7.048,1.043.079C183.979,154.26,184.57,156.33,185.676,159.771Z" transform="translate(-58.496 8.924)" fill="#c6c6c6"/><path d="M192.125,125.972l-30.787,24.962-3.333,2.694c1.355-6.2,3.582-11.742,6.992-15.416C174.994,127.405,186.657,125.613,192.125,125.972Z" transform="translate(-66.035 -14.443)" fill="#fff"/><path d="M168.721,190.676V198.4c-1.245-2.522-2.46-5.107-3.612-7.725Z" transform="translate(-60.135 39.327)" fill="#888"/><path d="M171.017,183.93v12.348h-3.612c-1.807-4.047-3.505-8.19-5.061-12.348Z" transform="translate(-62.431 33.724)" fill="#555"/><path d="M172.939,177.243v12.24h-8.673c-1.558-4.08-2.975-8.191-4.236-12.24Z" transform="translate(-64.353 28.171)" fill="#888"/><path d="M174.486,170.557V182.8H161.577c-1.292-4.141-2.445-8.252-3.41-12.239Z" transform="translate(-65.9 22.618)" fill="#555"/><path d="M175.6,163.87v12.24H159.277c-1.029-4.236-1.854-8.332-2.446-12.24Z" transform="translate(-67.01 17.065)" fill="#888"/><path d="M175.92,157.183v12.24H157.156c-.3-1.977-.545-3.893-.716-5.746a29.113,29.113,0,0,1,2.413-1.962V161.7a53.287,53.287,0,0,1,7.258-4.516Z" transform="translate(-67.334 11.512)" fill="#555"/><path d="M171.533,155.048v3.908h-9.809A50.71,50.71,0,0,1,171.533,155.048Z" transform="translate(-62.947 9.739)" fill="#888"/><path d="M163.472,139.768c2.693-2.18,8.938,5.3,5.854,7.911l-.015.015-8,6.665c.95-.793.2-3.6-1.168-5.512-.981-1.371-3.535-3.317-4.7-2.57l4.7-3.8v-.015Z" transform="translate(-68.168 -3.277)" fill="#fff"/><path d="M160.517,145.791c1.371,1.915,2.118,4.719,1.168,5.512-.529.437-1.635.189-2.757-.436a7.979,7.979,0,0,1-2.553-2.18c-1.34-1.838-2.056-4.516-.56-5.466C156.983,142.474,159.536,144.42,160.517,145.791Z" transform="translate(-68.547 -0.221)" fill="#fff"/><path d="M173.2,198.418l-2.352,53.554-35.348-3.91,4.671-49.644h12.846v3.846a20.271,20.271,0,0,1,7.086-.747l-.17-3.1Z" transform="translate(-84.729 45.756)" fill="#fff"/><path d="M151.981,201.142l.17,3.1a20.271,20.271,0,0,0-7.086.747v-8.517c1.419-1.821,6.588-1.247,6.588-1.247Z" transform="translate(-76.781 43.032)" fill="#fff"/><path d="M145.8,172.881l-2.257,52.059-35.786-2.381,2.118-50.938,12.162.421-.265,5.341a56.377,56.377,0,0,1,7.445-.935V172.3Z" transform="translate(-107.761 23.501)" fill="#fff"/><path d="M122.862,175.737v4.142a56.377,56.377,0,0,0-7.445.935l.265-5.341.359-6.914c2.056-1.761,6.82-.826,6.82-.826Z" transform="translate(-101.403 20.068)" fill="#fff"/></g><g transform="translate(146.415 94.873)"><g transform="translate(0)"><g transform="translate(86.431 16.304)"><g transform="translate(147.111)"><path d="M395.918,334.225a.781.781,0,0,1-.774-.694c-6.778-61.546-18.881-84.643-34.969-100.387-9.943-9.731-20.75-14.889-29.053-18.3l-1.845-.754c-7.794-3.172-15.854-6.454-18.458-11.5a.775.775,0,0,1-.084-.313c-.176-3.073-1.629-30.221,1.228-36.89,1.69-3.941,5.892-8.382,9.956-12.676,2.151-2.272,4.181-4.419,5.783-6.421,5.109-6.387,9.572-12.843,8.06-21.57-1.609-9.271-9.727-16.851-16.791-20.855-7.119-4.033-14.843-8.907-16.434-15.746-1.157-4.975-6.884-12.553-17.922-13.038-13.125-.575-17.267,8.53-17.437,8.918a.775.775,0,0,1-.65.463.755.755,0,0,1-.716-.348c-1.133-1.741-9.8-8.88-18.14-5.221-9.022,3.968-4.693,15.863-4.5,16.368a.778.778,0,0,1-1.184.9,2.8,2.8,0,0,0-2.746-.37,4.115,4.115,0,0,0-2.464,2.83c-.551,2.438-.767,5.151,3.057,9.132,1.228,1.279,6.515,4.212,12.112,7.318,9.132,5.065,20.5,11.369,24.289,15.781a18.653,18.653,0,0,1,4.986,12.533l.04.729a.779.779,0,0,1-1.554.1l-.042-.756a17.034,17.034,0,0,0-4.611-11.592c-3.612-4.2-14.84-10.43-23.864-15.435-6.2-3.438-11.089-6.152-12.48-7.6-4.152-4.324-4.113-7.628-3.452-10.555a5.736,5.736,0,0,1,3.43-3.943,4.375,4.375,0,0,1,2.526-.2c-.97-3.806-2.354-13.066,5.836-16.666,8.254-3.632,16.535,2.083,19.277,4.86,1.62-2.64,6.9-9.31,18.36-8.8,11.905.524,18.107,8.8,19.372,14.241,1.446,6.225,8.854,10.875,15.684,14.744,7.375,4.177,15.857,12.136,17.558,21.944,1.757,10.143-4.342,17.765-8.376,22.81-1.644,2.052-3.7,4.221-5.87,6.518-3.968,4.2-8.074,8.532-9.652,12.217-2.2,5.127-1.741,24.968-1.117,36.02,2.429,4.455,10.132,7.593,17.584,10.626l1.851.756c8.435,3.46,19.416,8.706,29.549,18.623,16.328,15.978,28.6,39.324,35.431,101.33a.779.779,0,0,1-.688.86C395.975,334.223,395.946,334.225,395.918,334.225Z" transform="translate(-234.921 -73.505)"/></g><g transform="translate(260.086 198.366)"><path d="M297.418,335.978h-.037a.777.777,0,0,1-.74-.815c2.922-62.882,1.79-124.818,1.419-145.169-.068-3.688-.113-6.2-.113-7.34a.779.779,0,1,1,1.558,0c0,1.137.046,3.639.112,7.313.373,20.364,1.5,82.335-1.42,145.27A.777.777,0,0,1,297.418,335.978Z" transform="translate(-296.64 -181.874)"/></g><g transform="translate(2.671 146.681)"><path d="M216.721,272.969c-.879,0-1.746-.04-2.608-.123-24.477-2.358-54.53-68.875-58.1-106.147a.78.78,0,0,1,.243-.644c.154-.143,15.5-14.228,36.977-12.22a.78.78,0,0,1,.675.564c.117.406,11.792,41.028,27.508,58.8a.778.778,0,0,1-1.166,1.031c-14.975-16.936-26.267-54.072-27.69-58.892-18.9-1.541-32.831,9.764-34.96,11.605,3.952,39.59,34.887,102.254,56.657,104.352,24.074,2.336,56.25-30.34,68.366-42.635,1.578-1.6,2.824-2.867,3.619-3.608a.779.779,0,0,1,1.062,1.14c-.771.718-2.006,1.971-3.571,3.56C271.9,241.761,241.15,272.969,216.721,272.969Z" transform="translate(-156.013 -153.638)"/></g><g transform="translate(137.872 35.723)"><path d="M281.332,186.9a.478.478,0,0,1-.071,0,.778.778,0,0,1-.7-.844c.514-5.764-.983-13.47-1.464-15.742-20.423,1.64-33.571-2.705-37.182-7.492-2.641-3.5-3-9.213-3.267-13.384a28.722,28.722,0,0,0-.445-4.254c-.381-1.538-2.6-3.337-4.549-4.926-2.111-1.713-3.774-3.066-3.774-4.437,0-1.042,1.031-2.3,3.178-4.84,2.715-3.2,6.43-7.593,6.965-11.655a51.782,51.782,0,0,0,.3-5.8,54.718,54.718,0,0,1,.32-6.085c.478-3.7,2.171-10.505,4.444-14.053a.779.779,0,1,1,1.312.84c-1.92,2.995-3.681,9.293-4.212,13.41a54.214,54.214,0,0,0-.309,5.912,53.188,53.188,0,0,1-.317,5.978c-.593,4.516-4.481,9.107-7.32,12.458-1.245,1.47-2.793,3.3-2.81,3.833,0,.63,1.851,2.132,3.2,3.229,2.25,1.829,4.574,3.718,5.08,5.76a29.458,29.458,0,0,1,.487,4.529c.253,3.974.6,9.416,2.956,12.544,3.511,4.655,17.172,8.492,36.487,6.824a.754.754,0,0,1,.826.6c.093.4,2.273,9.837,1.642,16.888A.779.779,0,0,1,281.332,186.9Z" transform="translate(-229.874 -93.021)"/></g><g transform="translate(151.692 92.733)"><path d="M238.189,129.942a15.283,15.283,0,0,0,6.341-1.274,10.211,10.211,0,0,0,2.683-1.737,13.584,13.584,0,0,0,2.074-2.493l.013-.018a.562.562,0,0,1,.966.569,12.015,12.015,0,0,1-2.111,2.929,11.722,11.722,0,0,1-2.958,2.138,15.175,15.175,0,0,1-7.009,1.442.778.778,0,0,1,0-1.556Z" transform="translate(-237.424 -124.166)"/></g><g transform="translate(153.942 45.216)"><path d="M239.12,99.587a13.712,13.712,0,0,1,4.28-1.318,6.746,6.746,0,0,1,4.6,1.02,8.138,8.138,0,0,1,2.892,3.6,16.03,16.03,0,0,1,.758,2.094c.176.714.3,1.433.445,2.143a.506.506,0,0,1-.977.26l-.015-.046a20.564,20.564,0,0,0-1.506-3.807,7.027,7.027,0,0,0-2.478-2.859,5.327,5.327,0,0,0-3.546-.725,14.667,14.667,0,0,0-3.851,1.078.779.779,0,0,1-.617-1.43Z" transform="translate(-238.653 -98.207)"/></g><g transform="translate(60.901 128.039)"><path d="M188.6,225.747a.778.778,0,0,1-.271-1.508c6.41-2.37,19.009-10.756,30.64-20.391,3.253-2.7,7.157-6.333,11.678-10.545,11.565-10.776,25.958-24.186,38.866-30.433a200.343,200.343,0,0,1,21.453-8.3c10.106-3.483,19.652-6.771,24.79-10.941a.779.779,0,0,1,.983,1.21c-5.352,4.342-15.026,7.673-25.264,11.2a199.289,199.289,0,0,0-21.283,8.23c-12.7,6.143-27,19.465-38.484,30.17-4.54,4.23-8.459,7.882-11.746,10.606-11.938,9.892-24.433,18.189-31.094,20.651A.769.769,0,0,1,188.6,225.747Z" transform="translate(-187.824 -143.454)"/></g><g transform="translate(262.04 189.656)"><path d="M338.319,289.824c-6.582,0-13-2.812-19.123-8.378-13.63-12.4-21.488-34.73-21.488-39.551a.779.779,0,0,1,1.558,0c0,4.135,7.637,26.262,20.979,38.4,6.46,5.878,13.236,8.53,20.126,7.877,25.1-2.374,51.3-44.722,47.541-95.805-1.322-2-13.6-19.344-36.672-11.872-.055,3.943-.732,27.624-9.079,48.839a.778.778,0,0,1-1.448-.567c8.98-22.828,8.975-48.575,8.975-48.832a.776.776,0,0,1,.529-.741c25.493-8.6,38.984,12.293,39.115,12.5a.781.781,0,0,1,.119.357c1.851,24.689-2.923,48.839-13.449,68-9.548,17.38-22.813,28.471-35.486,29.672Q339.416,289.823,338.319,289.824Z" transform="translate(-297.708 -177.116)"/></g><g transform="translate(315.135 156.036)"><path d="M329.635,195.007a.778.778,0,0,1-.772-.694c-.051-.463-.2-1.417-.394-2.683-.793-5.166-2.268-14.783-1.576-18.347.849-4.355,4.018-11.755,7.256-13.912a3.03,3.03,0,0,1,2.314-.573,2.918,2.918,0,0,1,2.032,1.4c.774,1.375.309,3.229-.037,4.21-.139.392-.415,1-.754,1.75-.879,1.924-2.2,4.829-2.376,6.9a.778.778,0,0,1-1.55-.13c.194-2.341,1.587-5.4,2.508-7.417.315-.69.575-1.258.7-1.62a3.9,3.9,0,0,0,.152-2.929,1.385,1.385,0,0,0-.994-.639,1.584,1.584,0,0,0-1.133.346c-2.6,1.726-5.728,8.475-6.59,12.912-.641,3.3.862,13.1,1.585,17.814.2,1.294.35,2.275.4,2.748a.778.778,0,0,1-.688.858A.7.7,0,0,1,329.635,195.007Z" transform="translate(-326.714 -158.749)"/></g><g transform="translate(314.558 147.066)"><path d="M348.449,193.309a.78.78,0,0,1-.654-.357L335.228,173.5a.779.779,0,0,1,1.309-.846l11.79,18.246a10.5,10.5,0,0,1,9.064-5.984l-23.694-29.5a6.359,6.359,0,0,0-5.662,4.1l4.713,7.278a.778.778,0,1,1-1.307.846l-4.918-7.6a.776.776,0,0,1-.088-.659c1.792-5.618,7.617-5.53,7.642-5.541a.788.788,0,0,1,.589.291l25.024,31.16a.773.773,0,0,1,.073.866.786.786,0,0,1-.776.4c-7.384-.917-9.7,5.92-9.8,6.209a.775.775,0,0,1-.641.531A.62.62,0,0,1,348.449,193.309Z" transform="translate(-326.399 -153.848)"/></g><g transform="translate(311.252 140.268)"><path d="M328.682,163.491a.78.78,0,0,1-.738-.529c-4.02-11.832-3.489-12.306-3.064-12.687,1.43-1.294,11.144,6.789,11.234,6.881a.778.778,0,0,1-1.1,1.1,88.947,88.947,0,0,0-8.77-6.286c.415,1.948,1.8,6.443,3.176,10.49a.782.782,0,0,1-.487.988A.81.81,0,0,1,328.682,163.491Z" transform="translate(-324.593 -150.134)"/></g><g transform="translate(335.836 184.978)"><path d="M342.056,181.143a.782.782,0,0,1-.655-.357l-3.253-5.026a.779.779,0,0,1,1.309-.846l3.253,5.026a.78.78,0,0,1-.653,1.2Z" transform="translate(-338.023 -174.56)"/></g><g transform="translate(346.471 178.222)"><path d="M347.95,176.386a.786.786,0,0,1-.6-.276l-3.337-3.963a.779.779,0,0,1,1.193-1l3.337,3.961a.78.78,0,0,1-.6,1.281Z" transform="translate(-343.833 -170.869)"/></g><g transform="translate(338.893 181.762)"><path d="M342.133,183.149a3.862,3.862,0,0,1-.765-.07,1.981,1.981,0,0,1-1.355-.837h0c-1.386-2.156,2.041-5.3,4.285-6.811,1.045-.707,4.62-2.978,6.608-2.583a1.7,1.7,0,0,1,1.131.721c1.283,1.937-.141,4.821-3.542,7.183A12.469,12.469,0,0,1,342.133,183.149Zm-.809-1.748a.588.588,0,0,0,.348.152c1.1.22,3.562-.434,5.934-2.079,2.881-2,3.765-4.089,3.132-5.041-1-.234-3.3.756-5.566,2.29-2.694,1.818-4.28,4.009-3.848,4.679Z" transform="translate(-339.693 -172.803)"/></g><g transform="translate(323.555 149.69)"><path d="M358.965,208.644a.779.779,0,0,1-.74-1.025c4.523-13.564,2.711-26.218-5.383-37.611a31.821,31.821,0,0,0-20.825-13.174.783.783,0,0,1-.7-.853.8.8,0,0,1,.851-.7A32.907,32.907,0,0,1,354.111,169.1c8.4,11.823,10.28,24.948,5.594,39.007A.782.782,0,0,1,358.965,208.644Z" transform="translate(-331.314 -155.282)"/></g><g transform="translate(191.888 63.421)"><path d="M267.422,136.327a11.41,11.41,0,0,1-3.048-.441.779.779,0,0,1,.417-1.5c5.021,1.395,8.589-.919,11.212-7.289,2.024-4.924,2.929-13.518-1.572-16.328a7.378,7.378,0,0,0-6.072-.734,13.1,13.1,0,0,0-7.507,5.731.779.779,0,1,1-1.38-.721,14.59,14.59,0,0,1,8.479-6.513,9,9,0,0,1,7.305.915c5.319,3.322,4.479,12.667,2.186,18.242C275.079,133.433,271.716,136.327,267.422,136.327Z" transform="translate(-259.384 -108.152)"/></g><g transform="translate(203.144 88.963)"><path d="M285.564,146.306a.776.776,0,0,1-.763-.635c-.6-3.209-4.093-5.552-7.468-7.818-1.241-.833-2.413-1.62-3.461-2.456-3.648-2.907-7.181-6.418-8.325-12.365a.779.779,0,0,1,1.53-.295c1.047,5.451,4.351,8.72,7.765,11.442,1,.8,2.147,1.567,3.361,2.381,3.641,2.444,7.4,4.972,8.127,8.823a.778.778,0,0,1-.621.91A.963.963,0,0,1,285.564,146.306Z" transform="translate(-265.532 -122.106)"/></g><g transform="translate(150.885 50.706)"><path d="M244.268,134.548c-4.084,0-7.285-7.324-7.285-16.67s3.2-16.672,7.285-16.672,7.287,7.324,7.287,16.672S248.354,134.548,244.268,134.548Zm0-31.784c-2.709,0-5.728,6.207-5.728,15.114s3.018,15.112,5.728,15.112S250,126.783,250,117.878,246.979,102.764,244.268,102.764Z" transform="translate(-236.983 -101.206)"/></g><g transform="translate(153.854 59.327)"><ellipse cx="2.033" cy="4.63" rx="2.033" ry="4.63"/></g><g transform="translate(163.899 67.808)"><path d="M272.74,112.107H244.871a.779.779,0,0,1,0-1.558H272.74a.779.779,0,0,1,0,1.558Z" transform="translate(-244.093 -110.549)"/></g><g transform="translate(188.551 127.957)"><path d="M275.691,149.755c-8.552,0-16.079-2.771-17.946-4.983a.778.778,0,1,1,1.188-1c2.834,3.353,21.147,8.115,33.337-.223a.778.778,0,1,1,.879,1.285A30.805,30.805,0,0,1,275.691,149.755Z" transform="translate(-257.56 -143.409)"/></g><g transform="translate(124.652 225.192)"><path d="M224.428,323.8H224.4a.778.778,0,0,1-.749-.807c.031-.837.062-1.688.077-2.541.139-4.234.218-8.618.232-13.038.033-4.278.016-8.662-.046-13.035-.031-4.3-.11-8.642-.2-13.029q-.129-5.9-.282-11.854l-.031-1.192c-.093-3.817-.187-7.65-.264-11.466-.108-3.745-.183-7.5-.26-11.223l-.005-.238c-.079-3.849-.141-7.682-.172-11.472-.049-4.181-.059-7.935-.031-11.472,0-3.956.059-8.08.172-12.257.121-4.657.289-8.671.516-12.268,0-.187.015-.423.031-.661a.789.789,0,0,1,.833-.721.78.78,0,0,1,.721.833c-.015.2-.029.4-.029.6-.227,3.626-.394,7.62-.514,12.26-.113,4.163-.172,8.274-.172,12.22-.029,3.535-.018,7.276.031,11.451.031,3.785.093,7.613.172,11.455l0,.238c.077,3.72.154,7.468.262,11.217.077,3.82.17,7.65.264,11.462l.029,1.193q.148,5.961.282,11.86c.093,4.4.172,8.744.2,13.044.062,4.378.077,8.775.046,13.062-.015,4.432-.093,8.83-.234,13.07-.015.849-.046,1.712-.077,2.557A.778.778,0,0,1,224.428,323.8Z" transform="translate(-222.652 -196.529)"/></g><g transform="translate(0.838 87.727)"><path d="M155.79,161.956a.779.779,0,0,1-.491-1.384L203.377,121.6a.779.779,0,1,1,.981,1.21l-48.077,38.969A.777.777,0,0,1,155.79,161.956Z" transform="translate(-155.011 -121.431)"/></g><g transform="translate(51.197 94.431)"><path d="M183.3,129.921a.779.779,0,0,1-.5-1.378l3.939-3.269a.778.778,0,1,1,.994,1.2l-3.939,3.271A.774.774,0,0,1,183.3,129.921Z" transform="translate(-182.523 -125.094)"/></g><g transform="translate(6.707 108.012)"><path d="M159,160.838a.778.778,0,0,1-.5-1.377l32.125-26.769a.779.779,0,1,1,1,1.2l-32.127,26.769A.775.775,0,0,1,159,160.838Z" transform="translate(-158.218 -132.513)"/></g><g transform="translate(33.037 96.299)"><path d="M178.344,178.163h-.009a.779.779,0,0,1-.769-.789c.159-12.1,3.623-24.894,10.293-38.041l.3-.593c1.944-3.892,3.335-9.672,2.524-10.483a1.733,1.733,0,0,0-1.367-.586c-.8.026-2.2.577-4.38,3.051-3.438,3.91-9.625,17.393-10.82,20.807a.779.779,0,1,1-1.47-.514c1.258-3.591,7.5-17.2,11.12-21.321,2.072-2.356,3.871-3.527,5.5-3.579a3.313,3.313,0,0,1,2.517,1.04c1.962,1.96-.992,9.8-2.231,12.281l-.3.6c-6.562,12.932-9.969,25.5-10.124,37.358A.779.779,0,0,1,178.344,178.163Z" transform="translate(-172.602 -126.114)"/></g><g transform="translate(48.916 82.47)"><path d="M188.278,132.074a.781.781,0,0,1-.663-1.188l6.16-9.987-11.439,4.421a.778.778,0,1,1-.562-1.452l13.6-5.255a.778.778,0,0,1,.943,1.135L188.943,131.7A.782.782,0,0,1,188.278,132.074Z" transform="translate(-181.277 -118.559)"/></g><g transform="translate(0 126.524)"><path d="M161.312,152.65a3.03,3.03,0,0,1-.373-.024,8.266,8.266,0,0,1-4.842-3.13,6.973,6.973,0,0,1-1.483-4.831,2.563,2.563,0,0,1,1.137-1.746h0c1.832-1.175,4.816,1.477,5.75,2.779,1.4,1.951,2.537,5.316,1.032,6.56A1.864,1.864,0,0,1,161.312,152.65Zm-4.723-8.418a1.018,1.018,0,0,0-.443.721,5.437,5.437,0,0,0,1.208,3.626c1.322,1.808,3.771,2.777,4.186,2.478.4-.331.057-2.552-1.305-4.452-1.051-1.464-3.136-2.7-3.646-2.374Z" transform="translate(-154.554 -142.626)"/></g><g transform="translate(8.865 119.793)"><path d="M166.016,148.824a.78.78,0,0,1-.5-1.378c1.166-.97.39-3.165-.979-4.831-1.221-1.484-3-2.594-3.873-1.889a.778.778,0,0,1-.981-1.208c1.783-1.444,4.391.081,6.057,2.109,1.8,2.189,2.81,5.319.772,7.016A.777.777,0,0,1,166.016,148.824Z" transform="translate(-159.397 -138.949)"/></g><g transform="translate(48.916 87.697)"><path d="M188.281,129.7a.783.783,0,0,1-.76-.959,4.027,4.027,0,0,0-1.137-3.727,6.021,6.021,0,0,0-4.2-2.025.779.779,0,1,1-.251-1.538c1.582-.264,4.044.838,5.592,2.5a5.54,5.54,0,0,1,1.514,5.147A.779.779,0,0,1,188.281,129.7Z" transform="translate(-181.277 -121.415)"/></g><g transform="translate(5.538 95.188)"><path d="M158.359,154.774a.873.873,0,0,1-.167-.018.78.78,0,0,1-.595-.928c1.528-6.992,3.946-12.306,7.183-15.8,11.876-12.837,25.2-12.654,27.748-12.488a.779.779,0,1,1-.1,1.554c-6.7-.437-17.668,2.438-26.505,11.991-3.046,3.284-5.334,8.354-6.8,15.07A.778.778,0,0,1,158.359,154.774Z" transform="translate(-157.579 -125.507)"/></g><g transform="translate(3.72 134.345)"><path d="M158.731,171.027a.772.772,0,0,1-.772-.683,90.681,90.681,0,0,1-1.14-22.72.791.791,0,0,1,.829-.725.781.781,0,0,1,.725.829,88.872,88.872,0,0,0,1.122,22.354.755.755,0,0,1,.016.157A.784.784,0,0,1,158.731,171.027Z" transform="translate(-156.586 -146.899)"/></g><g transform="translate(195.43 71.498)"><path d="M261.36,121.576A7.3,7.3,0,0,1,261.9,118a8.726,8.726,0,0,1,1.981-2.953,8.213,8.213,0,0,1,6.436-2.447.53.53,0,0,1-.059,1.058,7.263,7.263,0,0,0-5.33,2.411,8.081,8.081,0,0,0-1.583,2.5,6.6,6.6,0,0,0-.434,2.852.778.778,0,0,1-1.549.152Z" transform="translate(-261.318 -112.565)"/></g></g><g transform="translate(29.4)"><path d="M288.356,238.229H223.061a.778.778,0,1,1,0-1.556h64.517V66.156H124.955V236.674h61.121a.778.778,0,1,1,0,1.556h-61.9a.779.779,0,0,1-.78-.778V65.378a.78.78,0,0,1,.78-.78H288.356a.779.779,0,0,1,.778.78V237.452A.777.777,0,0,1,288.356,238.229Z" transform="translate(-123.397 -64.598)"/><g transform="translate(12.676 77.753)"><path d="M267.251,190.389H213.6a.779.779,0,0,1,0-1.558h52.87v-80.2H131.88v80.2H179.2a.779.779,0,0,1,0,1.558H131.1a.78.78,0,0,1-.78-.78V107.853a.779.779,0,0,1,.78-.778H267.251a.777.777,0,0,1,.778.778v81.756A.779.779,0,0,1,267.251,190.389Z" transform="translate(-130.322 -107.075)"/></g><g transform="translate(34.108 10.709)"><circle cx="3.629" cy="3.629" r="3.629"/></g><g transform="translate(123.371 10.709)"><circle cx="3.629" cy="3.629" r="3.629"/></g><g transform="translate(19.416 33.955)"><path d="M139.777,113.071a4.862,4.862,0,0,1-2.239-.5c-4.217-2.153-4.677-8.332-1.292-17.4,3.313-8.88,7.6-11.391,8.834-11.949a.779.779,0,0,1,.643,1.419c-.78.353-4.832,2.544-8.017,11.076-3.028,8.111-2.83,13.749.542,15.469,3.558,1.816,11.413-3.89,15.347-9.831.994-1.5,1.816-2.835,2.506-4.036a23.3,23.3,0,0,1,.062-4.106c.026-.32.049-.593.057-.8.075-1.938,1.091-6.3,2.528-7.606a1.591,1.591,0,0,1,1.214-.483,1.906,1.906,0,0,1,1.561.849c.6.9.529,2.394-.2,4.444a46.793,46.793,0,0,1-3.61,8.017c.355,2.894,1.69,5.228,5.38,5.629,6.579.712,12.257-4.175,14.684-6.266.271-.234.5-.428.675-.573a19.876,19.876,0,0,0,1.591-1.514c1.338-1.369,2.6-2.66,3.857-1.986.734.4,1.036,1.409,1.452,2.813a11.453,11.453,0,0,0,2.447,4.992c4.6,4.521,24.1,3.251,31.4,1.711,3.84-.807,8.276-3.284,10.1-5.638a.779.779,0,1,1,1.232.954c-2.052,2.651-6.784,5.319-11.008,6.209-7.186,1.51-27.5,3.1-32.813-2.125a12.831,12.831,0,0,1-2.848-5.66,7.121,7.121,0,0,0-.721-1.9c-.315.013-1.358,1.08-1.982,1.719a20.917,20.917,0,0,1-1.724,1.636c-.168.135-.383.32-.639.542-2.358,2.028-8.611,7.426-15.87,6.634a6.867,6.867,0,0,1-6.39-5.166c-.491.805-1.032,1.658-1.635,2.568C151.564,107.237,144.687,113.071,139.777,113.071Zm20.1-27.2c-.712.247-2.008,4.254-2.1,6.6-.007.227-.033.524-.06.871-.031.368-.059.738-.077,1.106a46.436,46.436,0,0,0,2.215-5.356c.621-1.739.588-2.735.372-3.061C160.191,85.978,160.13,85.886,159.874,85.872Z" transform="translate(-134.004 -83.148)"/></g><g transform="translate(34.206 77.753)"><path d="M142.862,190.389a.779.779,0,0,1-.778-.78V107.853a.778.778,0,1,1,1.556,0v81.756A.779.779,0,0,1,142.862,190.389Z" transform="translate(-142.084 -107.075)"/></g><g transform="translate(56.229 77.753)"><path d="M154.895,190.389a.78.78,0,0,1-.78-.78V107.853a.779.779,0,0,1,1.558,0v81.756A.779.779,0,0,1,154.895,190.389Z" transform="translate(-154.115 -107.075)"/></g><g transform="translate(79.421 77.753)"><path d="M167.563,146.816a.779.779,0,0,1-.778-.78V107.853a.778.778,0,1,1,1.556,0v38.184A.779.779,0,0,1,167.563,146.816Z" transform="translate(-166.785 -107.075)"/></g><g transform="translate(102.779 130.527)"><path d="M180.324,166.446a.779.779,0,0,1-.778-.78v-28.98a.778.778,0,1,1,1.556,0v28.98A.779.779,0,0,1,180.324,166.446Z" transform="translate(-179.546 -135.906)"/></g><g transform="translate(102.779 77.753)"><path d="M180.324,137.472a.777.777,0,0,1-.778-.778V107.853a.778.778,0,1,1,1.556,0v28.841A.777.777,0,0,1,180.324,137.472Z" transform="translate(-179.546 -107.075)"/></g><g transform="translate(124.135 77.753)"><path d="M191.993,190.389a.779.779,0,0,1-.78-.78V107.853a.779.779,0,0,1,1.558,0v81.756A.779.779,0,0,1,191.993,190.389Z" transform="translate(-191.213 -107.075)"/></g><g transform="translate(17.28 83.635)"><path d="M137.391,120.855c-.026,0-.049,0-.075,0-2.363-.167-4.422-6.236-4.443-6.3a.778.778,0,1,1,1.485-.469c.714,2.261,2.405,5.136,3.068,5.213.941-.1,4.935-4.481,7.543-8.645a.779.779,0,1,1,1.32.827C145.365,112.955,139.855,120.855,137.391,120.855Z" transform="translate(-132.837 -110.288)"/></g><g transform="translate(39.211 83.635)"><path d="M149.374,120.855c-.027,0-.053,0-.079,0-2.359-.167-4.422-6.236-4.441-6.3a.778.778,0,0,1,1.484-.469c.716,2.261,2.407,5.136,3.068,5.213.941-.1,4.935-4.481,7.543-8.645a.779.779,0,1,1,1.32.827C157.348,112.953,151.836,120.855,149.374,120.855Z" transform="translate(-144.818 -110.288)"/></g><g transform="translate(61.818 83.635)"><path d="M161.724,120.855c-.026,0-.051,0-.077,0-2.363-.167-4.422-6.236-4.443-6.3a.779.779,0,0,1,1.486-.469c.712,2.261,2.4,5.136,3.066,5.213.941-.1,4.935-4.481,7.543-8.645a.779.779,0,1,1,1.32.827C169.7,112.955,164.186,120.855,161.724,120.855Z" transform="translate(-157.168 -110.288)"/></g><g transform="translate(85.093 83.635)"><path d="M174.44,120.855c-.027,0-.053,0-.079,0-2.36-.167-4.422-6.236-4.441-6.3a.778.778,0,0,1,1.484-.469c.716,2.261,2.405,5.136,3.066,5.213.943-.1,4.935-4.481,7.545-8.645a.779.779,0,1,1,1.32.827C182.412,112.953,176.9,120.855,174.44,120.855Z" transform="translate(-169.884 -110.288)"/></g><g transform="translate(17.28 105.45)"><path d="M137.391,132.774c-.026,0-.049,0-.075,0-2.363-.168-4.422-6.238-4.443-6.3a.778.778,0,1,1,1.485-.469c.714,2.262,2.405,5.136,3.068,5.215.941-.106,4.935-4.485,7.543-8.649a.779.779,0,0,1,1.32.827C145.367,124.871,139.855,132.774,137.391,132.774Z" transform="translate(-132.837 -122.206)"/></g><g transform="translate(39.211 105.45)"><path d="M149.374,132.774c-.027,0-.053,0-.079,0-2.359-.167-4.422-6.238-4.441-6.3a.779.779,0,1,1,1.484-.47c.716,2.264,2.407,5.138,3.068,5.217.941-.106,4.935-4.483,7.543-8.649a.779.779,0,0,1,1.32.827C157.348,124.871,151.838,132.774,149.374,132.774Z" transform="translate(-144.818 -122.206)"/></g><g transform="translate(61.818 105.45)"><path d="M161.724,132.774c-.026,0-.051,0-.077,0-2.363-.168-4.422-6.238-4.443-6.3a.779.779,0,0,1,1.486-.469c.712,2.262,2.405,5.136,3.066,5.215.941-.106,4.935-4.483,7.543-8.649a.779.779,0,0,1,1.32.827C169.7,124.871,164.186,132.774,161.724,132.774Z" transform="translate(-157.168 -122.206)"/></g><g transform="translate(91.753 105.455)"><path d="M174.3,130.058a.767.767,0,0,1-.524-.2.776.776,0,0,1-.053-1.1,49.779,49.779,0,0,0,4.715-6.185.778.778,0,0,1,1.314.835,50.489,50.489,0,0,1-4.878,6.4A.777.777,0,0,1,174.3,130.058Z" transform="translate(-173.523 -122.209)"/></g><g transform="translate(84.543 108.696)"><path d="M172.372,129.725a.775.775,0,0,1-.646-.342,19.21,19.21,0,0,1-2.109-4.4.779.779,0,0,1,1.49-.456,17.7,17.7,0,0,0,1.909,3.981.777.777,0,0,1-.644,1.214Z" transform="translate(-169.583 -123.979)"/></g><g transform="translate(107.452 83.635)"><path d="M186.654,120.855c-.026,0-.051,0-.077,0-2.363-.167-4.422-6.236-4.443-6.3a.779.779,0,1,1,1.486-.469c.714,2.262,2.4,5.136,3.066,5.213.943-.1,4.935-4.481,7.543-8.645a.779.779,0,1,1,1.32.827C194.627,112.953,189.117,120.855,186.654,120.855Z" transform="translate(-182.098 -110.288)"/></g><g transform="translate(130.764 83.635)"><path d="M199.388,120.855c-.026,0-.049,0-.077,0-2.361-.167-4.421-6.236-4.441-6.3a.778.778,0,1,1,1.485-.469c.714,2.262,2.405,5.136,3.068,5.213.941-.1,4.935-4.481,7.543-8.645a.779.779,0,1,1,1.32.827C207.362,112.955,201.85,120.855,199.388,120.855Z" transform="translate(-194.834 -110.288)"/></g><g transform="translate(118.227 100.91)"><path d="M219.363,121.282h-30.6a.778.778,0,1,1,0-1.556h30.6a.778.778,0,1,1,0,1.556Z" transform="translate(-187.985 -119.726)"/></g><g transform="translate(12.676 100.91)"><path d="M232.446,121.282H131.1a.778.778,0,1,1,0-1.556H232.446a.778.778,0,0,1,0,1.556Z" transform="translate(-130.322 -119.726)"/></g><g transform="translate(105.706 124.47)"><path d="M225.043,134.155h-43.12a.779.779,0,0,1,0-1.558h43.12a.779.779,0,0,1,0,1.558Z" transform="translate(-181.145 -132.597)"/></g><g transform="translate(12.676 124.47)"><path d="M187.38,134.155H131.1a.779.779,0,1,1,0-1.558H187.38a.779.779,0,0,1,0,1.558Z" transform="translate(-130.322 -132.597)"/></g><g transform="translate(98.185 143.002)"><path d="M228.456,144.279H177.814a.779.779,0,0,1,0-1.558h50.642a.779.779,0,0,1,0,1.558Z" transform="translate(-177.036 -142.721)"/></g><g transform="translate(12.676 143.002)"><path d="M176.293,144.279H131.1a.779.779,0,1,1,0-1.558h45.191a.779.779,0,0,1,0,1.558Z" transform="translate(-130.322 -142.721)"/></g><g transform="translate(109.062 106.784)"><path d="M186.734,136.338c-.879,0-2.4-1.272-3.514-2.341a.779.779,0,0,1,1.074-1.128,14.266,14.266,0,0,0,2.264,1.818,71.819,71.819,0,0,0,5.356-11.2.779.779,0,0,1,1.488.463C193.362,124.07,188.542,136.338,186.734,136.338Z" transform="translate(-182.978 -122.935)"/></g></g><g transform="translate(0 187.551)"><g transform="translate(0 7.573)"><path d="M143.9,226.071l-.051,0-35.786-2.381a.779.779,0,0,1-.727-.809l2.118-50.937a.812.812,0,0,1,.8-.747l12.164.419a.779.779,0,0,1-.053,1.558l-11.391-.394-2.054,49.406,34.234,2.277,2.187-50.475-15.8-.549a.779.779,0,0,1,.055-1.558l16.584.577a.776.776,0,0,1,.75.813l-2.257,52.057a.78.78,0,0,1-.778.745Z" transform="translate(-107.336 -171.195)"/></g><g transform="translate(50.765 56.626)"><path d="M171.2,253.1c-.027,0-.057,0-.086,0l-35.348-3.908a.78.78,0,0,1-.69-.847l4.671-49.644a.779.779,0,0,1,.776-.707h12.846a.779.779,0,1,1,0,1.558H141.229l-4.534,48.176,33.761,3.732,2.279-51.909H160.28a.779.779,0,0,1,0-1.558h13.269a.779.779,0,0,1,.778.813l-2.352,53.552a.777.777,0,0,1-.778.745Z" transform="translate(-135.069 -197.993)"/></g><g transform="translate(14.01)"><path d="M115.768,181.953a.779.779,0,0,1-.778-.818l.626-12.264a.771.771,0,0,1,.275-.553c2.283-1.94,6.948-1.087,7.474-.985a.778.778,0,0,1,.628.763v12.14a.779.779,0,0,1-.78.778,56.025,56.025,0,0,0-7.3.924A.791.791,0,0,1,115.768,181.953Zm1.384-12.636-.556,10.917a56.977,56.977,0,0,1,5.839-.754V168.758C121.011,168.564,118.5,168.456,117.152,169.317Z" transform="translate(-114.989 -167.058)"/></g><g transform="translate(10.907 21.409)"><path d="M126.259,203.117a.777.777,0,0,1-.686-.412L113.387,179.9a.778.778,0,1,1,1.373-.732l12.185,22.8a.777.777,0,0,1-.686,1.146Z" transform="translate(-113.294 -178.754)"/></g><g transform="translate(8.883 22.608)"><path d="M112.967,200.033a.777.777,0,0,1-.538-1.34l19.921-19.068a.779.779,0,0,1,1.076,1.126l-19.921,19.066A.772.772,0,0,1,112.967,200.033Z" transform="translate(-112.188 -179.409)"/></g><g transform="translate(11.016 25.095)"><path d="M134.276,183.673l-.051,0-20.144-1.347a.779.779,0,0,1,.1-1.554l20.143,1.347a.779.779,0,0,1-.051,1.556Z" transform="translate(-113.354 -180.768)"/></g><g transform="translate(11.512 28.618)"><path d="M131.218,185.377l-.051,0-16.815-1.126a.779.779,0,0,1,.1-1.554l16.815,1.126a.779.779,0,0,1-.051,1.556Z" transform="translate(-113.625 -182.692)"/></g><g transform="translate(10.808 32.899)"><path d="M130.584,187.7l-.053,0-16.564-1.109a.779.779,0,1,1,.1-1.554l16.564,1.109a.779.779,0,0,1-.051,1.556Z" transform="translate(-113.24 -185.031)"/></g><g transform="translate(9.871 36.894)"><path d="M129.241,189.821h-.053l-15.733-1.053a.779.779,0,1,1,.1-1.554l15.733,1.053a.778.778,0,0,1-.051,1.554Z" transform="translate(-112.728 -187.213)"/></g><g transform="translate(7.85 45.869)"><path d="M131.318,194.942l-.051,0-18.916-1.267a.779.779,0,0,1,.1-1.554l18.916,1.267a.779.779,0,0,1-.051,1.556Z" transform="translate(-111.624 -192.117)"/></g><g transform="translate(8.318 50.103)"><path d="M128.017,197.015l-.053,0-15.358-1.027a.779.779,0,1,1,.1-1.554l15.356,1.027a.779.779,0,0,1-.049,1.556Z" transform="translate(-111.88 -194.43)"/></g><g transform="translate(10.31 54.061)"><path d="M125.36,198.928l-.053,0-11.611-.778a.779.779,0,1,1,.1-1.554l11.613.778a.779.779,0,0,1-.051,1.556Z" transform="translate(-112.968 -196.592)"/></g><g transform="translate(68.277 50.615)"><path d="M145.414,206.122a.781.781,0,0,1-.778-.778v-8.51a.78.78,0,0,1,.163-.476c1.638-2.122,6.718-1.616,7.294-1.549a.776.776,0,0,1,.688.73l.5,9.01a.777.777,0,0,1-.249.613.787.787,0,0,1-.63.2,19.385,19.385,0,0,0-6.769.727A.818.818,0,0,1,145.414,206.122Zm.778-8.982v7.2a20.962,20.962,0,0,1,5.486-.6l-.412-7.437C149.52,196.184,147.1,196.329,146.192,197.14Z" transform="translate(-144.636 -194.709)"/></g><g transform="translate(59.936 71.333)"><path d="M152.12,243.355a.649.649,0,0,1-.119-.009.777.777,0,0,1-.652-.886c.4-2.674.092-16.963-.628-22.769a.78.78,0,0,1,.329-.738c2.057-1.422,3.974-2.749,3.826-6.639a4.887,4.887,0,0,0-1.534-3.72,5.164,5.164,0,0,0-4.045-.95c-2.731.351-4.437,2.72-4.243,5.9.163,2.672,1.58,4.649,2.857,5.014a.777.777,0,0,1,.478,1.106c-.06.115-5.944,11.6-6.756,22.972a.778.778,0,1,1-1.552-.11c.725-10.152,5.215-20.071,6.557-22.835-1.706-.992-2.975-3.368-3.137-6.053-.243-3.981,2.059-7.08,5.6-7.534a6.709,6.709,0,0,1,5.25,1.307,6.452,6.452,0,0,1,2.083,4.847c.172,4.477-2.112,6.317-4.111,7.714.69,6.158.972,20.053.567,22.727A.778.778,0,0,1,152.12,243.355Z" transform="translate(-140.079 -206.028)"/></g></g><g transform="translate(387.955 24.948)"><g transform="translate(65.264 24.37)"><path d="M356.847,138.3a.78.78,0,0,1-.778-.758l-1.137-43.214a.778.778,0,0,1,.732-.8l12.908-.794a.778.778,0,1,1,.1,1.554l-12.158.747L357.6,136.7l31.343-2.017L387.6,93.146l-10.351.635a.791.791,0,0,1-.824-.729.78.78,0,0,1,.73-.826l11.149-.685a.771.771,0,0,1,.573.2.786.786,0,0,1,.253.551l1.4,43.088a.775.775,0,0,1-.729.8L356.9,138.3Z" transform="translate(-354.932 -91.541)"/></g><g transform="translate(0 5.339)"><path d="M338.657,139.087c-8.38,0-18.041-.628-18.652-.668a.777.777,0,0,1-.727-.8l1.34-52.386a.779.779,0,0,1,.721-.756l20.4-1.512a.779.779,0,1,1,.115,1.554l-19.7,1.459-1.3,50.929c3.957.24,22.5,1.272,28.05-.027,6.707-1.556,12.81-11.559,13.771-13.859.816-10.115,2.775-35.268,2.881-40.263l-15.9,1.184a.778.778,0,1,1-.115-1.552l16.725-1.247a.773.773,0,0,1,.831.7c.254,2.533-2.749,39.837-2.878,41.422a.815.815,0,0,1-.051.22c-1,2.563-7.512,13.2-14.907,14.913A56.252,56.252,0,0,1,338.657,139.087Z" transform="translate(-319.278 -81.144)"/></g><g transform="translate(29.032 46.047)"><path d="M335.917,119.958a.766.766,0,0,1-.4-.11.779.779,0,0,1-.273-1.067c1.459-2.458,4.152-11.616,4.485-14.7a.783.783,0,0,1,.361-.577.774.774,0,0,1,.679-.071,21.467,21.467,0,0,0,9.387.533.778.778,0,1,1,.216,1.541,24.4,24.4,0,0,1-9.229-.342c-.642,3.71-2.995,11.781-4.558,14.415A.78.78,0,0,1,335.917,119.958Z" transform="translate(-335.138 -103.383)"/></g><g transform="translate(21.524)"><path d="M332.148,90.462a.78.78,0,0,1-.778-.752l-.333-9.678a.781.781,0,0,1,.681-.8l8.008-1A.779.779,0,0,1,340.6,79V89.016a.776.776,0,0,1-.243.564.746.746,0,0,1-.578.214,40.459,40.459,0,0,0-7.492.655A.749.749,0,0,1,332.148,90.462Zm.47-9.771.278,8.078a42.662,42.662,0,0,1,6.046-.555h.1V79.887Z" transform="translate(-331.037 -78.227)"/></g><g transform="translate(12.097 14.345)"><path d="M326.665,88.123a.778.778,0,0,1-.027-1.556l13.849-.5a.767.767,0,0,1,.805.749.781.781,0,0,1-.752.807l-13.848.5Z" transform="translate(-325.887 -86.064)"/></g><g transform="translate(11.18 18.015)"><path d="M326.164,90.3a.779.779,0,0,1-.029-1.558l17.435-.666a.731.731,0,0,1,.809.747.782.782,0,0,1-.749.809l-17.435.666Z" transform="translate(-325.386 -88.069)"/></g><g transform="translate(14.267 22.523)"><path d="M343.7,92.088H327.85a.778.778,0,1,1,0-1.556H343.7a.778.778,0,1,1,0,1.556Z" transform="translate(-327.072 -90.532)"/></g><g transform="translate(15.061 33.53)"><path d="M328.286,98.608a.779.779,0,0,1-.031-1.558l12.886-.5.031,0A.779.779,0,0,1,341.2,98.1l-12.887.5Z" transform="translate(-327.506 -96.545)"/></g><g transform="translate(11.18 37.035)"><path d="M326.164,100.6a.778.778,0,0,1-.026-1.556l17.853-.584a.72.72,0,0,1,.8.752.779.779,0,0,1-.752.8l-17.853.584Z" transform="translate(-325.386 -98.46)"/></g><g transform="translate(12.097 40.709)"><path d="M326.665,102.609a.779.779,0,0,1-.027-1.558l15.85-.584h.029a.778.778,0,0,1,.027,1.556l-15.85.584Z" transform="translate(-325.887 -100.467)"/></g><g transform="translate(7.009 44.713)"><path d="M323.885,104.962a.778.778,0,0,1-.027-1.556l20.1-.751a.778.778,0,1,1,.057,1.556l-20.1.75Z" transform="translate(-323.107 -102.655)"/></g><g transform="translate(9.178 51.133)"><path d="M325.07,108.223a.779.779,0,0,1-.027-1.558l13.961-.5a.768.768,0,0,1,.805.75.778.778,0,0,1-.75.805l-13.961.5Z" transform="translate(-324.292 -106.162)"/></g><g transform="translate(8.425 54.803)"><path d="M324.661,110.229a.778.778,0,0,1-.033-1.556l11.47-.5a.768.768,0,0,1,.813.745.779.779,0,0,1-.745.811l-11.472.5Z" transform="translate(-323.881 -108.166)"/></g><g transform="translate(6.119 14.437)"><circle cx="1.376" cy="1.376" r="1.376"/></g><g transform="translate(6.933 31.556)"><circle cx="1.376" cy="1.376" r="1.376"/></g><g transform="translate(78.169 14.18)"><path d="M362.762,102.716a.8.8,0,0,1-.39-.1.783.783,0,0,1-.39-.675V89.756a.768.768,0,0,1,.115-.4c1.289-2.118,7.278-3.176,8.466-3.366a.765.765,0,0,1,.6.15.785.785,0,0,1,.3.54c.167,1.668.811,13.626.838,14.135a.779.779,0,0,1-.943.8,12.412,12.412,0,0,0-8.206,1A.791.791,0,0,1,362.762,102.716Zm.778-12.707v10.716a14.263,14.263,0,0,1,7.15-.813c-.141-2.6-.527-9.61-.712-12.242C367.508,88.143,364.373,89.062,363.54,90.008Z" transform="translate(-361.982 -85.974)"/></g><g transform="translate(68.493 31.782)"><path d="M357.474,97.816a.779.779,0,0,1-.024-1.558l21.689-.668a.744.744,0,0,1,.8.754.78.78,0,0,1-.754.8l-21.687.668Z" transform="translate(-356.696 -95.59)"/></g><g transform="translate(68.493 36.955)"><path d="M357.474,100.473a.778.778,0,0,1-.018-1.556l19.1-.5a.818.818,0,0,1,.8.758.779.779,0,0,1-.758.8l-19.1.5Z" transform="translate(-356.696 -98.416)"/></g><g transform="translate(71.746 42.542)"><path d="M359.251,103.278a.779.779,0,0,1-.009-1.558l18.435-.251a.765.765,0,0,1,.789.769.776.776,0,0,1-.767.789l-18.437.251Z" transform="translate(-358.473 -101.468)"/></g><g transform="translate(82.93 42.669)"><path d="M368.026,121.741h-.005a.779.779,0,0,1-.707-.463c-.339-.765-2.586-6.888-2.683-7.148a.78.78,0,0,1,1.464-.536c.43,1.179,1.353,3.677,1.993,5.376,1.8-3.882,6.3-13.394,8.713-17.08a.778.778,0,1,1,1.3.853c-2.936,4.488-9.3,18.4-9.368,18.543A.784.784,0,0,1,368.026,121.741Z" transform="translate(-364.583 -101.538)"/></g><g transform="translate(70.327 50.72)"><path d="M358.476,107.827a.779.779,0,0,1-.015-1.558l16.6-.333a.8.8,0,0,1,.793.761.779.779,0,0,1-.763.794l-16.6.335Z" transform="translate(-357.698 -105.936)"/></g><g transform="translate(71.747 55.559)"><path d="M359.251,110.554a.779.779,0,0,1-.037-1.558l8.426-.416a.779.779,0,0,1,.077,1.556l-8.428.416Z" transform="translate(-358.473 -108.58)"/></g></g><g transform="translate(361.902 107.357)"><path d="M460.661,229.544H382.315a.778.778,0,0,1,0-1.556h77.568V124.8H306.6v69.922a.779.779,0,0,1-1.558,0v-70.7a.777.777,0,0,1,.778-.778H460.661a.777.777,0,0,1,.778.778v104.74A.777.777,0,0,1,460.661,229.544Z" transform="translate(-305.045 -123.248)"/><g transform="translate(19.372 104.74)"><path d="M335.469,182.024H316.408a.778.778,0,1,1,0-1.556h19.061a.778.778,0,0,1,0,1.556Z" transform="translate(-315.628 -180.468)"/></g><g transform="translate(0.007 27.774)"><path d="M426.851,180.65c-12.888,0-14.73-10.231-15.724-15.742l-.075-.416c-1.378-7.585-4.034-12.16-7.891-13.595-4.556-1.7-10.8,3.608-13.47,6.648-3.707,4.221-7.529,6.211-11.345,5.894-5.05-.41-11.03-7.906-13.818-12.844-2.9-5.134-6.4-10.613-11.23-10.617h-.007c-5.636,0-10.174,5.455-14.276,17.166-2.57,7.34-8.8,15.122-18.621,15.122-.1,0-.207,0-.311,0-9.925-.168-13.974-8.611-14.979-11.2a.779.779,0,0,1,1.452-.564c.915,2.356,4.6,10.051,13.555,10.2.1,0,.2,0,.3,0,11.322,0,15.975-10.76,17.137-14.082,2.74-7.816,7.351-18.208,15.746-18.208h.007c5.673,0,9.471,5.89,12.586,11.408,2.711,4.8,8.409,11.721,12.586,12.059,3.317.262,6.687-1.538,10.051-5.369.344-.394,8.484-9.572,15.186-7.082,4.406,1.642,7.393,6.613,8.878,14.776l.075.421c.983,5.449,2.607,14.625,14.417,14.457,8.817-.086,13.6-11.525,16.771-19.1,1.267-3.026,2.268-5.416,3.284-6.648,3.7-4.492,10.236-5.967,13.994-3.158a.779.779,0,1,1-.934,1.248c-3.064-2.3-8.72-.912-11.86,2.9a31.982,31.982,0,0,0-3.048,6.262c-3.324,7.946-8.349,19.956-18.191,20.051Z" transform="translate(-305.049 -138.421)"/></g><g transform="translate(11.603 23.686)"><path d="M335.6,137.746H312.162a.779.779,0,0,1,0-1.558H335.6a.779.779,0,0,1,0,1.558Z" transform="translate(-311.384 -136.188)"/></g><g transform="translate(15.775 31.861)"><path d="M326.872,142.212H314.441a.779.779,0,0,1,0-1.558h12.431a.779.779,0,0,1,0,1.558Z" transform="translate(-313.663 -140.654)"/></g><g transform="translate(10.017 7.165)"><path d="M311.3,137.817a.779.779,0,0,1-.778-.743,12.675,12.675,0,0,1,3.428-7.941,6.649,6.649,0,0,1,5.358-1.944c3.628.3,4.781,2.951,5.709,5.078.879,2.015,1.5,3.256,3.224,3.368,2.508.163,6.03-1.669,8.861-3.139,2.857-1.485,4.532-2.308,5.651-1.957a2.009,2.009,0,0,1,1.609,2.087c.027.5.038.683.615.954a4.689,4.689,0,0,0,3.709.026l.447-.134a.779.779,0,0,1,.417,1.5l-.414.123a6.221,6.221,0,0,1-4.818-.106,2.34,2.34,0,0,1-1.512-2.275c-.027-.5-.029-.536-.518-.69-.564-.168-2.821,1-4.466,1.854-3,1.561-6.722,3.5-9.68,3.311-2.757-.179-3.71-2.369-4.552-4.3-.917-2.105-1.71-3.923-4.41-4.148a5.162,5.162,0,0,0-4.15,1.512A11.223,11.223,0,0,0,312.074,137a.775.775,0,0,1-.741.813Z" transform="translate(-310.517 -127.162)"/></g></g></g></g></g></g></svg>