<svg xmlns="http://www.w3.org/2000/svg" xmlns:xlink="http://www.w3.org/1999/xlink" width="960" height="470" viewBox="0 0 960 470"><defs><clipPath id="b"><rect width="960" height="470"/></clipPath></defs><g id="a" clip-path="url(#b)"><rect width="960" height="470" fill="#fff"/><g transform="translate(55.17 4.83)"><g transform="translate(59.553 22.657)"><g transform="translate(232.156 0.801)"><circle cx="29.932" cy="29.932" r="29.932" fill="#dedede"/></g><g transform="translate(71.906 281.299)"><circle cx="17.869" cy="17.869" r="17.869" fill="#dedede"/></g><g transform="translate(4.809 135.699)"><circle cx="23.813" cy="23.813" r="23.813" fill="#dedede"/></g><g transform="translate(350.15 40.228)"><circle cx="13.281" cy="13.281" r="13.281" fill="#dedede"/></g><g transform="translate(490.203 45.705)"><circle cx="13.281" cy="13.281" r="13.281" fill="#dedede"/></g><g transform="translate(364.131 146.155)"><circle cx="13.281" cy="13.281" r="13.281" transform="translate(0 0)" fill="#dedede"/></g><g transform="translate(666.814 221.066)"><circle cx="13.281" cy="13.281" r="13.281" transform="translate(0 0)" fill="#dedede"/></g><g transform="translate(258.378 391.859)"><circle cx="10.568" cy="10.568" r="10.568" fill="#dedede"/></g><g transform="translate(205.354 213.426)"><circle cx="10.568" cy="10.568" r="10.568" fill="#dedede"/></g><g transform="translate(572.727 64.368)"><circle cx="43.571" cy="43.571" r="43.571" fill="#dedede"/></g><g transform="translate(603.901 22.84)"><path d="M425.092,41.012a6.716,6.716,0,0,1-8.54,9.173c-5.219-2.1-17.505-2.729-24.934-.368a6.716,6.716,0,0,1-4.068-12.8c9.761-3.1,25.334-2.777,34.008.7A6.7,6.7,0,0,1,425.092,41.012Z" transform="translate(-382.868 -34.885)" fill="#dedede"/></g><g transform="translate(299.326 357.433)"><path d="M256.67,215.288a6.715,6.715,0,0,1-3.187,12.12c-5.59.62-16.715,5.874-22.145,11.467a6.715,6.715,0,0,1-9.636-9.354c7.135-7.348,21.009-14.429,30.3-15.46A6.693,6.693,0,0,1,256.67,215.288Z" transform="translate(-219.806 -214.019)" fill="#dedede"/></g><g transform="translate(117.512)"><path d="M144.131,22.665a6.715,6.715,0,0,1,3.943,11.9c-4.346,3.569-10.8,14.042-12.3,21.691a6.715,6.715,0,0,1-13.179-2.583c1.969-10.051,9.733-23.553,16.956-29.486A6.693,6.693,0,0,1,144.131,22.665Z" transform="translate(-122.466 -22.657)" fill="#dedede"/></g><g transform="translate(655.682 132.879)"><path d="M416.249,130.972a6.714,6.714,0,0,1-2.609-12.255c4.711-3.073,12.279-12.772,14.61-20.21a6.715,6.715,0,1,1,12.815,4.016C438,112.3,428.8,124.862,420.973,129.967A6.688,6.688,0,0,1,416.249,130.972Z" transform="translate(-410.59 -93.798)" fill="#dedede"/></g><g transform="translate(382.709 361.422)"><path d="M268.717,217.161a6.716,6.716,0,0,1,9.987,7.572c-1.561,5.406-.951,17.692,2.144,24.846a6.714,6.714,0,1,1-12.324,5.335c-4.068-9.4-5.316-24.924-2.723-33.905A6.692,6.692,0,0,1,268.717,217.161Z" transform="translate(-264.447 -216.154)" fill="#dedede"/></g><g transform="translate(57.684 201.787)"><g transform="translate(0 0)"><path d="M91.155,137.013a10.044,10.044,0,0,1,18.746.228c2.931,7.888,14.592,22.128,24.678,27.98A10.045,10.045,0,1,1,124.5,182.6c-13.254-7.688-28.563-25.257-33.431-38.364A10,10,0,0,1,91.155,137.013Z" transform="translate(-90.436 -130.689)" fill="#dedede"/></g></g><g transform="translate(671.074 50.012)"><path d="M439.019,89.809a20.189,20.189,0,1,1,20.188-20.188A20.211,20.211,0,0,1,439.019,89.809Zm0-36.929A16.741,16.741,0,1,0,455.76,69.621,16.76,16.76,0,0,0,439.019,52.88Z" transform="translate(-418.831 -49.432)" fill="#dedede"/></g><g transform="translate(76.331 114.661)"><path d="M136.254,155.715a35.835,35.835,0,1,1,35.836-35.836A35.876,35.876,0,0,1,136.254,155.715Zm0-65.554a29.718,29.718,0,1,0,29.719,29.717A29.751,29.751,0,0,0,136.254,90.161Z" transform="translate(-100.419 -84.044)" fill="#dedede"/></g><g transform="translate(70 343.435)"><path d="M82.427,193.38A22.874,22.874,0,1,1,105.3,170.507,22.9,22.9,0,0,1,82.427,193.38Zm0-41.841a18.968,18.968,0,1,0,18.968,18.968A18.99,18.99,0,0,0,82.427,151.539Z" transform="translate(-59.553 -147.633)" fill="#dedede"/></g><g transform="translate(611.167 226.687)"><g transform="translate(0 0)"><path d="M403.311,184.067a20.187,20.187,0,1,1,23.5-16.218A20.21,20.21,0,0,1,403.311,184.067Zm6.655-36.324a16.742,16.742,0,1,0,13.45,19.483A16.761,16.761,0,0,0,409.966,147.743Z" transform="translate(-386.758 -144.02)" fill="#dedede"/></g></g><g transform="translate(246.579 288.809)"><path d="M222.167,238.481a30.6,30.6,0,1,1,30.6-30.6A30.636,30.636,0,0,1,222.167,238.481Zm0-55.977a25.376,25.376,0,1,0,25.376,25.376A25.406,25.406,0,0,0,222.167,182.5Z" transform="translate(-191.566 -177.279)" fill="#dedede"/></g><g transform="translate(701.267 158.238)"><path d="M185.279,279.85a24.638,24.638,0,1,1,24.637-24.637A24.666,24.666,0,0,1,185.279,279.85Zm0-45.069a20.431,20.431,0,1,0,20.432,20.432A20.455,20.455,0,0,0,185.279,234.781Z" transform="translate(-160.64 -230.575)" fill="#dedede"/></g><g transform="translate(191.391 340.773)"><path d="M256.22,283.246a24.638,24.638,0,1,1,24.637-24.637A24.666,24.666,0,0,1,256.22,283.246Zm0-45.069a20.432,20.432,0,1,0,20.43,20.432A20.455,20.455,0,0,0,256.22,238.177Z" transform="translate(-231.581 -233.971)" fill="#dedede"/></g><g transform="translate(371.271 67.218)"><path d="M288.9,119.8a30.579,30.579,0,1,1,30.578-30.58A30.614,30.614,0,0,1,288.9,119.8Zm0-55.938a25.359,25.359,0,1,0,25.358,25.358A25.387,25.387,0,0,0,288.9,63.865Z" transform="translate(-258.323 -58.644)" fill="#dedede"/></g><g transform="translate(421.598 215.114)"><g transform="translate(0 0)"><path d="M311.736,190.76A26.468,26.468,0,1,1,338.2,164.293,26.5,26.5,0,0,1,311.736,190.76Zm0-48.418a21.95,21.95,0,1,0,21.949,21.951A21.976,21.976,0,0,0,311.736,142.342Z" transform="translate(-285.267 -137.824)" fill="#dedede"/></g></g><g transform="translate(309.934 112.829)"><path d="M244.117,120.326a18.632,18.632,0,1,1,18.634-18.632A18.653,18.653,0,0,1,244.117,120.326Zm0-34.082a15.451,15.451,0,1,0,15.453,15.451A15.469,15.469,0,0,0,244.117,86.244Z" transform="translate(-225.485 -83.063)" fill="#dedede"/></g><g transform="translate(546.754 291.723)"><path d="M399.884,274.063A47.612,47.612,0,1,1,447.5,226.45,47.666,47.666,0,0,1,399.884,274.063Zm0-87.1a39.483,39.483,0,1,0,39.484,39.482A39.526,39.526,0,0,0,399.884,186.968Z" transform="translate(-352.273 -178.839)" fill="#dedede"/></g><g transform="translate(541.356 47.106)"><path d="M356.738,91.447a8.345,8.345,0,0,1-6.726-11.454c7.18-17.5,17.823-25.7,26.29-30.885a8.344,8.344,0,0,1,8.717,14.231c-7.031,4.307-14.267,10.071-19.567,22.989A8.366,8.366,0,0,1,356.738,91.447Zm24.467-39.828a4.6,4.6,0,0,0-2.964.652c-7.989,4.892-18.025,12.623-24.8,29.129a4.636,4.636,0,0,0,2.529,6.05,4.709,4.709,0,0,0,1.209.316,4.65,4.65,0,0,0,4.84-2.845c5.7-13.9,13.493-20.109,21.062-24.743a4.637,4.637,0,0,0-1.337-8.461A4.88,4.88,0,0,0,381.205,51.619Z" transform="translate(-349.383 -47.876)" fill="#dedede"/></g><g transform="translate(310.433 24.176)"><path d="M236.249,85.531a8.378,8.378,0,0,1-2.232.28,8.345,8.345,0,0,1-8.265-8.422c.176-18.916,7.016-30.476,12.955-38.435a8.345,8.345,0,0,1,13.376,9.982c-4.931,6.608-9.513,14.648-9.644,28.608A8.363,8.363,0,0,1,236.249,85.531Zm7.944-46.063a4.584,4.584,0,0,0-2.512,1.705c-5.6,7.5-12.055,18.409-12.221,36.251a4.636,4.636,0,0,0,4.593,4.677,4.526,4.526,0,0,0,1.24-.155,4.646,4.646,0,0,0,3.439-4.436c.14-15.027,5.071-23.68,10.38-30.791a4.636,4.636,0,0,0-4.382-7.361A4.541,4.541,0,0,0,244.193,39.468Z" transform="translate(-225.752 -35.6)" fill="#dedede"/></g><g transform="translate(436.107 130.492)"><path d="M303.308,139.1a7.705,7.705,0,0,1-10.161-6.87c-.979-17.44,4.629-28.505,9.623-36.195a7.705,7.705,0,1,1,12.925,8.392c-4.147,6.384-7.884,14.069-7.163,26.942A7.722,7.722,0,0,1,303.308,139.1Zm4.546-42.923a4.249,4.249,0,0,0-2.212,1.722c-4.711,7.255-10,17.69-9.078,34.14a4.283,4.283,0,0,0,4.515,4.035,4.277,4.277,0,0,0,4.035-4.515c-.777-13.854,3.246-22.125,7.709-29a4.28,4.28,0,0,0-4.968-6.384Z" transform="translate(-293.035 -92.519)" fill="#dedede"/></g><g transform="translate(539.148 143.491)"><path d="M417.451,137.019a12.291,12.291,0,0,1-.252,3.284,12.228,12.228,0,0,1-14.513,9.4c-27.1-5.794-41.7-19-51.382-29.863a12.227,12.227,0,0,1,18.251-16.276c8.041,9.016,18.239,17.95,38.246,22.227A12.259,12.259,0,0,1,417.451,137.019Zm-63.8-24.9a6.742,6.742,0,0,0,1.711,4.106c9.136,10.243,22.9,22.7,48.463,28.167a6.793,6.793,0,0,0,8.063-5.221,6.783,6.783,0,0,0-5.222-8.063c-21.533-4.6-32.51-14.22-41.163-23.925a6.793,6.793,0,0,0-11.851,4.134A6.412,6.412,0,0,0,353.648,112.115Z" transform="translate(-348.201 -99.479)" fill="#dedede"/></g><g transform="translate(513.225 384.967)"><g transform="translate(176 -115)"><path d="M369.531,245.771c-4.289-3.338-6.028-10.182-11.723-13.742-6.226-3.891-14.874-5.676-20.968,2.589-4.19,5.682-2.471,12.8.247,16.616,4.742,6.664,12.929,7.527,16.108,11.084,4.729,5.293,6.99,17.24,15.387,23.439,7.537,5.564,20.9,3.889,27-4.434,5.222-7.133,1.494-20.617-5.172-25.836S373.98,249.235,369.531,245.771Z" transform="translate(-334.322 -228.76)" fill="#dedede"/></g></g><g transform="translate(131.736 292.285)"><path d="M153.543,202.382c-4.524,3.577-12.016,3.637-17.124,8.609-5.583,5.43-9.608,13.893-2.63,22.263,4.8,5.753,12.563,5.779,17.186,3.943,8.065-3.2,11.024-11.422,15.494-13.8,6.65-3.536,19.532-2.847,28.042-9.933,7.639-6.362,9.289-20.559,2.253-28.944-6.031-7.186-20.871-6.75-27.932-1.2S158.236,198.672,153.543,202.382Z" transform="translate(-130.081 -179.14)" fill="#dedede"/></g><g transform="translate(448.057 90.141)"><path d="M300.711,73.049a5.73,5.73,0,0,1,4.576-2.131c17.309.334,33.035,11.026,40.868,17.369a5.743,5.743,0,0,1-7.229,8.926C332.238,91.8,318.945,82.67,305.065,82.4a5.741,5.741,0,0,1-4.354-9.352Z" transform="translate(-299.432 -70.916)" fill="#dedede"/></g><g transform="translate(350.065 285.47)"><path d="M255.05,175.506a7.593,7.593,0,0,1,5.809,3.306c12.91,18.942,13.426,44.116,12.584,57.436a7.605,7.605,0,0,1-15.18-.96c.719-11.373.379-32.721-9.971-47.908a7.6,7.6,0,0,1,6.758-11.874Z" transform="translate(-246.97 -175.491)" fill="#dedede"/></g><g transform="matrix(-0.53, 0.848, -0.848, -0.53, 68.903, 325.318)"><path d="M445.048,248.9a7.58,7.58,0,0,1-2.184,6.317c-16.246,16.17-40.9,21.3-54.145,22.918a7.6,7.6,0,1,1-1.845-15.1c11.312-1.382,32.235-5.637,45.262-18.6a7.6,7.6,0,0,1,12.912,4.462Z" transform="translate(-380.191 -242.22)" fill="#dedede"/></g><g transform="translate(115.274 383.875)"><path d="M181.1,234.509a6.92,6.92,0,0,1-2.193,5.689c-15.333,14.224-37.973,18.111-50.1,19.162a6.938,6.938,0,1,1-1.2-13.824c10.357-.9,29.572-4.107,41.866-15.511a6.937,6.937,0,0,1,11.629,4.483Z" transform="translate(-121.268 -228.175)" fill="#dedede"/></g><g transform="translate(9.232 53.509)"><path d="M114.063,54.77a7.585,7.585,0,0,1,.805,6.635c-7.52,21.654-27.431,37.067-38.631,44.328A7.6,7.6,0,1,1,67.965,92.97c9.563-6.2,26.507-19.192,32.536-36.554a7.6,7.6,0,0,1,13.562-1.646Z" transform="translate(-64.496 -51.304)" fill="#dedede"/></g><g transform="translate(669.988 304.803)"><path d="M429.278,186.173a7.594,7.594,0,0,1,4.888,4.561c8.181,21.413,2.862,46.024-1.037,58.787a7.6,7.6,0,1,1-14.547-4.442c3.33-10.9,7.935-31.748,1.375-48.917a7.607,7.607,0,0,1,9.32-9.989Z" transform="translate(-418.25 -185.842)" fill="#dedede"/></g><g transform="translate(-38.283 208.797)"><path d="M104.5,292.1a44.03,44.03,0,1,1,44.031-44.031A44.079,44.079,0,0,1,104.5,292.1Zm0-80.543a36.513,36.513,0,1,0,36.514,36.513A36.553,36.553,0,0,0,104.5,211.557Z" transform="translate(-60.472 -204.041)" fill="#dedede"/></g></g><g transform="translate(126.631 28.325)"><g transform="translate(446.532 200.954)"><path d="M358.109,207.885c.42-4.487.857-8.891,1.278-13.209.471-4.623.941-9.143,1.429-13.5.5-4.487,1.007-8.807,1.545-12.94.672-5.144,1.362-9.967,2.085-14.438.723-4.369,1.479-8.387,2.269-11.982.706-3.177,1.446-6.035,2.236-8.54,7.933,2.707,31.68,12.051,42.975,30.052,12.606,20.051,12.068,49.027,10.084,68.423-1.53,15.075-21.6,16.756-21.6,16.756H371.235v-9.362H355.924c0-16.487-12.656-24.958-18.37-24.941a15.663,15.663,0,0,0-3.026.151,3.926,3.926,0,0,1,3.766-2.959,5.42,5.42,0,0,1,.572-.017c1.6,0,5.361.2,10.236.4,2.606.1,5.529.218,8.622.286C357.857,210.676,357.975,209.28,358.109,207.885Z" transform="translate(-334.528 -133.278)" fill="#fff"/></g><g transform="translate(388.616 316.185)"><path d="M420.75,194.97c1.362,6.218,3.68,20.522,3.68,23.227,0,.723-1.713,1.732-4.755,2.757v.017c-8.252,2.807-26.269,5.9-46.018,4.522-8.656-.605-19.194-3.614-29.514-6.892-15.731-4.991-30.924-10.622-38.018-9.328-.671.437-1.461.941-2.335,1.513-.857-1.513.454-3.278,2.335-4.907,2.085-1.782,12.539-8.37,16.237-10.908H420.75Z" transform="translate(-303.521 -194.97)" fill="#fff"/></g><g transform="translate(422.145 104.495)"><path d="M372.531,83.3c29.7,7.832,26.069,29.984,24.439,36.471-1.109,4.369-3.782,14.168-7.647,21.178l-4.892-.74a11.8,11.8,0,0,0,1.967-8.336c-.572-5.564-8.185-4.774-9.513-.437-7.7-2.706-11.244-8.975-13.413-15.85-2.15-6.89-7.563-15.26-15.529-14.857s-5.8,8.773-5.8,8.773-5.682-.538-7.983,5.815c-.471,1.345-.941,11.665.235,22l-.454.05c-9.9-5.932-13.816-18.538-12.068-28.539,1.933-11.026,12.942-11.076,13.144-11.076C335.019,97.757,342.818,75.472,372.531,83.3Z" transform="translate(-321.472 -81.636)"/></g><path d="M-11376.238,49.875h-49.211c-.08-10.9.148-20.436.677-28.349.646-9.66,1.761-17.206,3.313-22.426,2.008-6.744,5.9-13.423,11.575-19.852a73.511,73.511,0,0,1,14.123-12.4c10.119,3.215,20.7,6.275,29.513,6.893,3.216.224,6.525.337,9.835.337,16.156,0,29.59-2.617,36.185-4.859-1,6.236-3.846,11.923-8.691,17.385-4.213,4.75-9.334,8.655-13.852,12.1l-.434.331A103.776,103.776,0,0,1-11357,7.975c-4.312,2.338-8.345,4.163-12.244,5.928l-.335.152a10.642,10.642,0,0,0-6.217,9.43c-.117,5.711-.267,14.59-.443,26.389Z" transform="translate(11825 372.97)" fill="#fff" stroke="rgba(0,0,0,0)" stroke-miterlimit="10" stroke-width="1"/><g transform="translate(478.315 163.073)"><path d="M358.334,113l4.892.74a30.612,30.612,0,0,1-1.715,2.805c-3.564,5.178-9.967,7.294-9.967,7.294v-6.218A12.888,12.888,0,0,0,358.334,113Z" transform="translate(-351.544 -112.997)"/></g><g transform="translate(434.332 123.578)"><path d="M380.736,123.011a11.8,11.8,0,0,1-1.967,8.336,12.888,12.888,0,0,1-6.79,4.621c-.992,14.506-9.5,22.489-18.118,23.161a19.679,19.679,0,0,1-10.538-1.782c-4.789-2.353-8.4-7.059-11.312-14.186a57.9,57.9,0,0,1-3.276-14.706c-1.177-10.337-.706-20.656-.235-22,2.3-6.353,7.983-5.815,7.983-5.815s-2.169-8.37,5.8-8.773,13.379,7.966,15.529,14.857c2.169,6.876,5.716,13.144,13.413,15.85C372.551,118.237,380.164,117.447,380.736,123.011Z" transform="translate(-327.997 -91.852)" fill="#fff"/></g><g transform="translate(331.319 231.712)"><path d="M424.766,224.856v9.362H296.494l-12.605-45.009-9.563-34.169-1.479-5.294,59.9.1,1.26,3.731,12.925,38.455,9.916,29.547,1.109,3.277h66.808Z" transform="translate(-272.846 -149.745)" fill="#fff"/></g><g transform="translate(461.104 200.116)"><path d="M362.18,133.668c-.79,2.5-1.53,5.363-2.236,8.54H342.33v-3.883l.017-.168a16.03,16.03,0,0,0,2.4.168,21.9,21.9,0,0,0,14.79-5.5S360.515,133.1,362.18,133.668Z" transform="translate(-342.33 -132.829)" fill="#888"/></g><g transform="translate(461.104 209.494)"><path d="M342.33,137.85h17.614c-.79,3.6-1.547,7.613-2.269,11.982l-.2-.034H342.33Z" transform="translate(-342.33 -137.85)" fill="#c6c6c6"/></g><g transform="translate(449.658 167.694)"><path d="M364.858,121.689v26.2a21.9,21.9,0,0,1-14.79,5.5,16.028,16.028,0,0,1-2.4-.168,19.69,19.69,0,0,1-11.463-5.949V136.85a19.679,19.679,0,0,0,10.538,1.782c8.622-.672,17.126-8.656,18.118-23.161Z" transform="translate(-336.202 -115.471)" fill="#fff"/></g><g transform="translate(461.104 221.443)"><path d="M357.473,144.247l.2.034c-.723,4.472-1.412,9.294-2.085,14.438H342.33V144.247Z" transform="translate(-342.33 -144.247)" fill="#888"/></g><g transform="translate(461.104 235.915)"><path d="M342.33,151.995h13.26c-.538,4.134-1.042,8.454-1.545,12.94H342.33Z" transform="translate(-342.33 -151.995)" fill="#c6c6c6"/></g><g transform="translate(461.104 248.855)"><path d="M342.33,158.923h11.715c-.487,4.354-.958,8.874-1.429,13.5H342.33Z" transform="translate(-342.33 -158.923)" fill="#888"/></g><g transform="translate(461.104 262.352)"><path d="M342.33,166.149h10.286c-.42,4.318-.857,8.723-1.278,13.209H342.33Z" transform="translate(-342.33 -166.149)" fill="#c6c6c6"/></g><g transform="translate(461.104 275.561)"><path d="M342.33,173.221h9.009c-.134,1.4-.252,2.791-.387,4.186-3.093-.067-6.016-.185-8.622-.286Z" transform="translate(-342.33 -173.221)" fill="#888"/></g><g transform="translate(418.951 281.863)"><path d="M346.586,201.555H319.762c1.009-5.831,4.673-11.194,9.362-15.462A40.761,40.761,0,0,1,341.6,178.31a26.353,26.353,0,0,1,5.747-1.545,15.661,15.661,0,0,1,3.026-.151c5.714-.017,18.37,8.454,18.37,24.941Z" transform="translate(-319.762 -176.595)" fill="#fff"/></g><g transform="translate(443.978 199.494)"><path d="M350.3,138.445l-.017.168V142.5H333.161a76.023,76.023,0,0,1,3.058-9.5q1.311-.277,2.622-.5A19.69,19.69,0,0,0,350.3,138.445Z" transform="translate(-333.161 -132.496)" fill="#555"/></g><g transform="translate(450.869 275.561)"><path d="M347.086,173.221v3.9c-4.875-.2-8.639-.4-10.236-.4v-3.5Z" transform="translate(-336.85 -173.221)" fill="#555"/></g><g transform="translate(440.784 262.352)"><path d="M351.771,166.149v13.21h-20.32v-13.21Z" transform="translate(-331.451 -166.149)" fill="#888"/></g><g transform="translate(440.784 248.855)"><rect width="20.32" height="13.496" fill="#555"/></g><g transform="translate(440.784 235.914)"><rect width="20.32" height="12.941" transform="translate(0 0)" fill="#888"/></g><g transform="translate(440.784 221.443)"><rect width="20.32" height="14.471" transform="translate(0 0)" fill="#555"/></g><g transform="translate(440.784 209.494)"><path d="M351.771,137.85V149.8h-20.32c1.16-4.587,2.253-8.639,3.194-11.949Z" transform="translate(-331.451 -137.85)" fill="#888"/></g><g transform="translate(440.784 275.561)"><path d="M341.535,173.221v3.5a5.42,5.42,0,0,0-.572.017,3.926,3.926,0,0,0-3.766,2.959,26.354,26.354,0,0,0-5.747,1.545v-8.017Z" transform="translate(-331.451 -173.221)" fill="#555"/></g><g transform="translate(392.48 199.998)"><path d="M334.8,198.531c-1.765,1.345-4.537,5.632-16.286,8.235L305.59,168.313c12.892-5.783,19.9-15.279,25.4-20.2,7.344-6.588,18.017-12.875,29.159-15.344a76.008,76.008,0,0,0-3.058,9.5c-.941,3.31-2.034,7.361-3.194,11.949-1.126,4.388-2.3,9.278-3.48,14.472-.923,4.134-1.864,8.487-2.755,12.94-.891,4.421-1.748,8.941-2.522,13.5-.756,4.419-1.446,8.84-2.034,13.209-.74,5.413-1.311,10.74-1.681,15.8-4.688,4.268-8.353,9.631-9.362,15.462h-2.52l-1.11-3.278.353-.118C330.315,222.533,332.6,209.422,334.8,198.531Z" transform="translate(-305.59 -132.766)" fill="#fff"/></g><g transform="translate(428.313 275.561)"><path d="M337.246,173.221v8.017a40.76,40.76,0,0,0-12.472,7.783c.37-5.06.941-10.387,1.681-15.8Z" transform="translate(-324.774 -173.221)" fill="#888"/></g><g transform="translate(429.994 262.352)"><path d="M336.465,166.149v13.209H325.674c.588-4.369,1.278-8.79,2.034-13.209Z" transform="translate(-325.674 -166.149)" fill="#c6c6c6"/></g><g transform="translate(432.028 248.855)"><path d="M335.519,158.923v13.5h-8.756c.773-4.556,1.631-9.076,2.522-13.5Z" transform="translate(-326.763 -158.923)" fill="#888"/></g><g transform="translate(434.549 235.915)"><path d="M334.348,151.995v12.94h-6.235c.891-4.453,1.832-8.807,2.755-12.94h3.48Z" transform="translate(-328.113 -151.995)" fill="#c6c6c6"/></g><g transform="translate(437.304 221.443)"><path d="M333.068,144.247v14.472h-3.48C330.765,153.525,331.941,148.635,333.068,144.247Z" transform="translate(-329.588 -144.247)" fill="#888"/></g><g transform="translate(350.011 330.299)"><path d="M-11775.46-270.908h-49.5c-.132-12.2.1-22.8.692-31.491.735-10.8,2.044-19.018,3.889-24.427a40.544,40.544,0,0,1,6.384-11.467,72.356,72.356,0,0,1,9.333-9.834,150.984,150.984,0,0,1,18.539-13.625q.7-.46,1.321-.856l.106-.068c.32-.207.624-.4.906-.587a13.128,13.128,0,0,1,2.333-.188c6.388,0,16.983,3.448,28.2,7.1l0,0c2.31.752,4.927,1.6,7.48,2.414-9.231,6.071-21.5,18.16-25.7,32.255-2.823,9.5-4.165,26.583-3.988,50.774Z" transform="translate(11825 363.454)" fill="#fff" stroke="rgba(0,0,0,0)" stroke-miterlimit="10" stroke-width="1"/></g><g transform="translate(305.857 233.057)"><path d="M259.332,174.885c1.378-17.7,9.429-24.42,9.429-24.42s7.025,2.017,17.4,3.951l9.563,34.168a245.883,245.883,0,0,1-36.505-11.715C259.248,176.2,259.281,175.524,259.332,174.885Z" transform="translate(-259.214 -150.465)" fill="#fff"/></g><g transform="translate(277.302 226.721)"><path d="M257.774,162a10.807,10.807,0,0,0-.235-2.269,11.239,11.239,0,0,0-2.755-5.562c1.378-2,3.058-4.505,4.823-7.092,1.244.067,2.572.168,3.967.319.841.1,1.7.235,2.555.4a46.381,46.381,0,0,1,5.411,1.36,71.323,71.323,0,0,1,10.488,4.253s-8.05,6.722-9.429,24.42c-2.723-.151-9.866-2.15-16.387-5.915a3.7,3.7,0,0,1-.471-.3,34.2,34.2,0,0,1-7.8-7.412,27.111,27.111,0,0,1-2.923-4.354,8.486,8.486,0,0,1-.555-1.227c-1.009-2.671-.437-4.318.4-4.739a1.188,1.188,0,0,1,.958.017,7.7,7.7,0,0,1,2.385,1.5,28.711,28.711,0,0,1,2.942,2.94,4.222,4.222,0,0,0,.471.488,13.524,13.524,0,0,0,4.606,2.74A9.3,9.3,0,0,0,257.774,162Z" transform="translate(-243.926 -147.073)" fill="#fff"/></g><g transform="translate(292.982 220.333)"><path d="M267.281,147.839l-3.026,4.285a46.377,46.377,0,0,0-5.411-1.36c-.857-.168-1.715-.3-2.555-.4-1.4-.151-2.723-.252-3.967-.319.689-.992,1.362-1.984,2.034-2.975.79-1.16,1.563-2.3,2.32-3.413Z" transform="translate(-252.321 -143.653)" fill="#fff"/></g><g transform="translate(281.586 207.035)"><path d="M268.776,136.74c1.278.74.37,2.654-.034,3.192-.151.219-3.177,4.623-6.773,9.9-.757,1.11-1.53,2.253-2.32,3.413-.672.992-1.345,1.984-2.034,2.975-1.765,2.587-3.444,5.092-4.823,7.092-1.883,2.791-3.16,4.655-3.16,4.655a4.216,4.216,0,0,1-.471-.488,28.717,28.717,0,0,0-2.942-2.94l6.069-8.269c1.093-1.479,2.236-3.043,3.394-4.623.824-1.126,1.647-2.236,2.454-3.327,3.833-5.228,7.176-9.765,7.428-10.084C266.17,137.5,267.5,135.983,268.776,136.74Z" transform="translate(-246.22 -136.534)" fill="#fff"/></g><g transform="translate(215.031 200.57)"><path d="M289.06,151.325c-.807,1.091-1.631,2.2-2.454,3.327-1.158,1.58-2.3,3.144-3.394,4.623-3.984.319-6.722,1.21-8.034,2.385-2,1.782-1.261,3.85-.42,4.371v.017a1.188,1.188,0,0,0-.958-.017c-.841.42-1.412,2.068-.4,4.739a8.488,8.488,0,0,0,.555,1.227l-3.4,4.741-.1,3.965H273.9l2.974-4.352a34.2,34.2,0,0,0,7.8,7.412l-8.185,11.614-65.9-26.471,8.5-9.446v-.017l6.823-7.582,5.262-5.848c3.293,1.563,7.109,3.917,9.41,4.64,3.463,1.074,7.985-3.026,4.4-4.606-3.413-1.5-5.932-3.6-8.773-5.63l6.6-7.344Z" transform="translate(-210.588 -133.072)" fill="#fff"/></g><g transform="translate(284.999 233.813)"><path d="M253.962,156.432l-1.309,1.832a13.525,13.525,0,0,1-4.606-2.74s1.278-1.864,3.16-4.655A11.239,11.239,0,0,1,253.962,156.432Z" transform="translate(-248.047 -150.87)" fill="#fff"/></g><g transform="translate(278.342 226.772)"><path d="M253.8,147.1l-6.069,8.269a7.7,7.7,0,0,0-2.385-1.5v-.017c-.841-.521-1.58-2.589.42-4.371C247.073,148.31,249.812,147.419,253.8,147.1Z" transform="translate(-244.483 -147.1)" fill="#fff"/></g><g transform="translate(274.898 239.493)"><path d="M249.059,158.265l-2.974,4.352h-3.446l.1-3.965,3.4-4.741A27.114,27.114,0,0,0,249.059,158.265Z" transform="translate(-242.639 -153.911)" fill="#fff"/></g><g transform="translate(212.493 202.551)"><path d="M232.357,145.092l-5.262,5.848-6.823,7.582c-4.606-1.967-10.589-9.664-11.043-11.429,5.176-4.219,10.673-9.58,14.018-12.959a26.607,26.607,0,0,1,11.007,3.261c1.126.672,2.152,1.378,3.144,2.1,2.841,2.032,5.361,4.134,8.773,5.63,3.581,1.58-.941,5.68-4.4,4.606C239.466,149.008,235.65,146.655,232.357,145.092Z" transform="translate(-209.229 -134.133)" fill="#fff"/></g><g transform="translate(121.617 81.625)"><path d="M166.643,94.485c-2.352-12.018-5.546-23.094-6-24.807l.05-.286c5.6,1.158,15.008,4.285,22.3,10.5.6.5,1.175,1.042,1.73,1.58,7.748,7.546,25.481,39.279,36.656,54.959,1.025,1.429,1.984,2.723,2.875,3.85,10.807,13.663,28.909,35.11,44.387,46.774,0,0-1.227,1.294-3.175,3.259-3.345,3.379-8.842,8.74-14.018,12.959-1.513,1.227-3.009,2.353-4.4,3.312-9.647-5.732-37.463-34.422-47.363-47.228-5.7-7.346-11.295-14.3-16.42-22.926-1.513-2.538-2.992-5.226-4.421-8.118a32.685,32.685,0,0,1-3.917,7.765v.353H160.576v-.353a16.84,16.84,0,0,0,7.243-9.547,35.082,35.082,0,0,0,1.446-10.353v-.42a80.6,80.6,0,0,0-.79-10.318C168,101.863,167.366,98.131,166.643,94.485Z" transform="translate(-160.576 -69.392)" fill="#fff"/></g><g transform="translate(140.828 13.841)"><path d="M242.173,33.1V167.928H212.458c-11.175-15.681-28.909-47.413-36.656-54.959-.555-.538-1.126-1.076-1.73-1.58,2.167-1.208,3.192-2.671,3.209-6.6.017-3.512-3.293-10.32-4.52-13.915-1.547-4.505-1.731-9.832-1.9-12.4v-.017c.2-.622.353-1.244.488-1.832.572-2.488,1.614-7.865,2.555-13.041,3.125-.723,8.672-6.018,9.345-12.1a32.3,32.3,0,0,0-4.371-18.37Z" transform="translate(-170.861 -33.102)" fill="#fff"/></g><g transform="translate(49.19)"><path d="M221.455,39.533a32.3,32.3,0,0,1,4.371,18.37c-.672,6.084-6.22,11.379-9.345,12.1,1.04-5.766,1.965-11.261,1.965-12.1-3.965-6.117-1.9-14.052-1.9-14.052-1.53,2.891-5.85,8.742-11.513,11.631-5.682,2.875-14.909,1.278-20.3,2.538a13.826,13.826,0,0,0-8.151,6.184c-.269-.807-1.715-4.84-5.478-4.251-3.043.471-4.253,3.243-4.119,7.428s2.438,8.084,7.395,6.773c-1.076,6.136-3.965,30.237-3.965,30.237-1.194-.286-3.446-.034-6.371.706-8.891,2.253-23.983,9.21-34.286,20.522-1.5,1.646-3.547,3.9-5.848,6.706-2.269-3.614-3.076-11.429-.538-16.79,3.293-7.027,12.52-11.228,17.916-18.017,6.924-8.74,14.453-39.8,16.756-45.8a45.974,45.974,0,0,1,7.042-12.186c6.537-8.118,17.261-15.412,33.782-13.547C210.8,27.33,217.639,33.13,221.455,39.533Z" transform="translate(-121.8 -25.692)"/></g><g transform="translate(117.65 59.204)"><path d="M183.53,69.792c1.227,3.6,4.537,10.4,4.52,13.915-.017,3.934-1.042,5.4-3.209,6.6-7.3-6.218-16.708-9.345-22.3-10.5a21.754,21.754,0,0,0-4.085-.572c.3-2.791.723-6.758.908-7.817V71.4a18.76,18.76,0,0,0,10.589-.872c7.378-2.875,10.269-8.288,11.681-13.144C181.8,59.96,181.983,65.287,183.53,69.792Z" transform="translate(-158.452 -57.388)"/></g><g transform="translate(94.363 18.16)"><path d="M195.492,61.567c-.941,5.176-1.984,10.553-2.555,13.041-.134.588-.286,1.21-.488,1.832v.017c-1.412,4.856-4.3,10.269-11.681,13.144a18.76,18.76,0,0,1-10.589.872c-6.42-1.242-11.915-5.428-14.184-9.847-2.219-4.32-2.606-10.471-2.606-14.909-4.957,1.311-7.26-2.589-7.395-6.773s1.076-6.958,4.119-7.428c3.764-.588,5.209,3.444,5.478,4.251a13.826,13.826,0,0,1,8.151-6.184c5.394-1.261,14.621.336,20.3-2.538,5.663-2.89,9.984-8.74,11.513-11.631,0,0-2.068,7.935,1.9,14.052C197.457,50.306,196.533,55.8,195.492,61.567Z" transform="translate(-145.985 -35.414)" fill="#fff"/></g><g transform="translate(100.742 112.415)"><path d="M178.964,101.456v.42l-28.875-5.26h-.034a65.314,65.314,0,0,0-.656-10.74h.017l28.757,5.262A80.6,80.6,0,0,1,178.964,101.456Z" transform="translate(-149.4 -85.876)" fill="#fff"/></g><g transform="translate(99.885 123.155)"><path d="M150.488,91.626l28.875,5.26a35.083,35.083,0,0,1-1.446,10.353l-28.589-5.209-.387-.118A36.912,36.912,0,0,0,150.3,94.77c.1-1.025.151-2.068.151-3.144Z" transform="translate(-148.941 -91.626)" fill="#818181"/></g><g transform="translate(98.693 101.439)"><path d="M179.126,96.237l-28.757-5.262h-.017A109.753,109.753,0,0,0,148.3,80l28.991,5.279C178.017,88.925,178.655,92.656,179.126,96.237Z" transform="translate(-148.303 -80)" fill="#818181"/></g><g transform="translate(95.415 133.441)"><path d="M179.994,102.46a16.84,16.84,0,0,1-7.243,9.547l-26.2-5.025a34.41,34.41,0,0,0,4.47-9.849l.387.118Z" transform="translate(-146.548 -97.133)" fill="#fff"/></g><g transform="translate(91.431 78.586)"><path d="M180.668,95.9l-28.991-5.279c-2.555-10.789-6.119-19.9-7.262-22.033,2.925-.74,5.178-.992,6.371-.706,0,0,.891,11.48,8.235,19.16,0,0,4.184-8.471,5.361-10.185,0,0,7.193,8.958,7.832,10.589,0,0-.4-10.135-1.9-14.707.084-.487.185-1.4.319-2.5a21.753,21.753,0,0,1,4.085.572l-.05.286C175.122,72.8,178.316,83.879,180.668,95.9Z" transform="translate(-144.415 -67.765)" fill="#fff"/></g><g transform="translate(90.187 143.29)"><path d="M175.179,107.43v.353h-31.43a19.729,19.729,0,0,0,5.228-5.378Z" transform="translate(-143.749 -102.406)" fill="#818181"/></g><g transform="translate(86.175 228.888)"><path d="M175.5,169.192c1.446,5.413-1.244,9.109-4.705,8.555-2.807-.437-23.161-3.713-26.219-4.2-3.917-.622-3.833-6-.5-10.522,1.091-1.479,2.923-3.682,4.924-5.985,2.807-3.243,5.915-6.706,7.8-8.807a3.438,3.438,0,0,0,.4.084c6.268,1.126,9.109,1.059,10.74.454.588,1.463,1.631,4.051,2.774,6.96C172.572,160.486,174.673,166.116,175.5,169.192Z" transform="translate(-141.601 -148.233)" fill="#fff"/></g><g transform="translate(97.802 78.7)"><path d="M167.354,72.682c1.5,4.572,1.9,14.707,1.9,14.707-.639-1.631-7.832-10.589-7.832-10.589-1.177,1.715-5.361,10.185-5.361,10.185-7.344-7.681-8.235-19.16-8.235-19.16C154.128,75.792,167.354,72.682,167.354,72.682Z" transform="translate(-147.826 -67.826)" fill="#818181"/></g><g transform="translate(97.802 48.464)"><path d="M167.674,84.228c-.134,1.108-.235,2.015-.319,2.5,0,0-13.226,3.11-19.528-4.856,0,0,2.89-24.1,3.965-30.237,0,4.438.387,10.589,2.606,14.909,2.269,4.419,7.765,8.605,14.184,9.847v.017C168.4,77.47,167.976,81.438,167.674,84.228Z" transform="translate(-147.826 -51.638)" fill="#fff"/></g><g transform="translate(85.751 203.896)"><path d="M172.9,145.963a2.336,2.336,0,0,1,1.21,2.908c-.252.992-1.059,1.8-2.856,1.948.857.319.975,1.9.639,2.824a2.687,2.687,0,0,1-2.723,1.664,8.714,8.714,0,0,1-.908-.017,2.35,2.35,0,0,1,2.034,2.875,2.827,2.827,0,0,1-2.152,2.217h-.017c-1.631.605-4.472.672-10.74-.454a3.444,3.444,0,0,1-.4-.084c-11.278-2.1-15.6-6.453-15.6-6.453l-.017-.017c5.142-5.915,8.185-13.781,9.7-18.521,2.606.454,8.37.219,11.127,1.025l-.74,4.657s5.731,1.545,8.84,1.948l.37-2.335h.017a4.859,4.859,0,0,1,3.293,2.015A2.744,2.744,0,0,1,172.9,145.963Z" transform="translate(-141.374 -134.853)" fill="#fff"/></g><g transform="translate(105.096 199)"><path d="M164.991,135.48a1.271,1.271,0,0,1-.017.252,1.635,1.635,0,0,1-1.881,1.362l-.538-.084-.874,5.413-.37,2.335c-3.11-.4-8.84-1.948-8.84-1.948l.74-4.657.42-2.572-.521-.084a1.656,1.656,0,0,1-1.378-1.629,1.273,1.273,0,0,1,.017-.252,1.648,1.648,0,0,1,1.883-1.362l9.984,1.6A1.654,1.654,0,0,1,164.991,135.48Z" transform="translate(-151.731 -132.232)" fill="#fff"/></g><g transform="translate(27.507 79.406)"><path d="M144.62,137.465a36.993,36.993,0,0,0-2.589,16.622c1.362,15.229,28.32,31.363,37.228,34.473,0,0-.353,1.629-1.126,4.134-1.513,4.741-4.556,12.606-9.7,18.521a26.924,26.924,0,0,1-3.009,3.026S114.8,199.92,110.534,159.13a65.959,65.959,0,0,1,1.4-21.665c4.051-18.017,14.506-32.908,22.052-42.034,2.3-2.807,4.352-5.06,5.848-6.706,10.3-11.312,25.4-18.269,34.286-20.522,1.143,2.135,4.707,11.244,7.262,22.033a109.749,109.749,0,0,1,2.049,10.975,65.312,65.312,0,0,1,.656,10.74c0,1.076-.05,2.118-.151,3.144a36.914,36.914,0,0,1-1.362,7.143,34.411,34.411,0,0,1-4.47,9.849,19.729,19.729,0,0,1-5.228,5.378Z" transform="translate(-110.192 -68.204)" fill="#fff"/></g><g transform="translate(0 13.841)"><path d="M95.465,33.1h92.473A45.974,45.974,0,0,0,180.9,45.288c-2.3,6-9.832,37.06-16.756,45.8-5.4,6.79-14.623,10.99-17.916,18.017-2.538,5.361-1.731,13.176.538,16.79-7.546,9.126-18,24.017-22.052,42.034H95.465Z" transform="translate(-95.465 -33.102)" fill="#fff"/></g></g><g transform="translate(125.792 27.485)"><g transform="translate(103.963 18.173)"><path d="M151.515,57a.831.831,0,0,1-.409-.106.842.842,0,0,1-.325-1.143,14.615,14.615,0,0,1,8.695-6.6,40.587,40.587,0,0,1,7.847-.629c4.419-.09,8.988-.183,12.264-1.847,5.613-2.852,9.756-8.613,11.164-11.259a.84.84,0,0,1,1.554.605c-.019.075-1.922,7.649,1.784,13.377a.841.841,0,0,1-1.412.913,18.27,18.27,0,0,1-2.54-10.854,29.65,29.65,0,0,1-9.788,8.715c-3.62,1.838-8.6,1.941-12.991,2.03a39.346,39.346,0,0,0-7.5.585c-4.961,1.158-7.583,5.734-7.61,5.779A.84.84,0,0,1,151.515,57Z" transform="translate(-150.675 -34.971)"/></g><g transform="translate(101.773 32.217)"><path d="M170.862,85.6c-8.542,0-16-5.529-18.671-10.734-1.806-3.519-2.71-8.661-2.688-15.288a.841.841,0,0,1,1.681.006c-.022,6.354.82,11.237,2.5,14.513,3.187,6.209,13.755,12.477,23.729,8.583,8.2-3.2,10.57-9.748,11.642-14.4,1.22-5.3,4.5-23.486,4.5-24.956a.841.841,0,0,1,1.681,0c0,1.707-3.385,20.294-4.544,25.334-1.158,5.019-3.73,12.1-12.67,15.585A19.615,19.615,0,0,1,170.862,85.6Z" transform="translate(-149.503 -42.49)"/></g><g transform="translate(94.364 34.204)"><path d="M151.939,59.754a5.665,5.665,0,0,1-3.456-1.1c-1.771-1.321-2.841-3.777-2.936-6.743-.2-6.2,2.516-7.925,4.83-8.286,4.221-.665,5.962,3.523,6.4,4.819a.84.84,0,0,1-1.593.532c-.42-1.257-1.7-4.128-4.544-3.689-2.391.372-3.538,2.581-3.409,6.569.078,2.451.9,4.436,2.262,5.45a4.6,4.6,0,0,0,4.083.542A.839.839,0,1,1,154,59.472,8.076,8.076,0,0,1,151.939,59.754Z" transform="translate(-145.536 -43.554)"/></g><g transform="translate(127.876 42.985)"><path d="M168,49.176a12.869,12.869,0,0,0-1.089,4.186,9.183,9.183,0,0,0,.971,4.212c.3.7.639,1.4.992,2.114l.538,1.1a2.321,2.321,0,0,1,.144,1.872,2.383,2.383,0,0,1-1.328,1.289,5.422,5.422,0,0,1-1.388.374,13.226,13.226,0,0,1-2.57.052.84.84,0,0,1,.071-1.679h.013a11.361,11.361,0,0,0,2.208-.12c.676-.088,1.313-.459,1.281-.579.015-.054.039-.125-.11-.433l-.523-1.042c-.361-.717-.736-1.446-1.053-2.213a10.977,10.977,0,0,1-1.065-5.051,7.712,7.712,0,0,1,1.879-4.8.632.632,0,0,1,1.048.674Z" transform="translate(-163.478 -48.255)"/></g><g transform="translate(117.626 60.65)"><path d="M159.073,58.093a8.528,8.528,0,0,0,1.771,2.266,9.327,9.327,0,0,0,2.376,1.657,8.894,8.894,0,0,0,2.748.773,11.581,11.581,0,0,0,2.923-.106l.067-.009a.839.839,0,0,1,.3,1.649,10.492,10.492,0,0,1-3.465.318,9.2,9.2,0,0,1-6.147-3.144A7.159,7.159,0,0,1,158,58.378a.553.553,0,0,1,1.039-.355Z" transform="translate(-157.99 -57.712)"/></g><g transform="translate(118.938 40.554)"><g transform="translate(0 0)"><g transform="translate(0)"><ellipse cx="3.478" cy="1.95" rx="3.478" ry="1.95" transform="translate(0 6.645) rotate(-72.829)"/></g></g></g><g transform="translate(135.618 42.921)"><g transform="translate(0 0)"><g transform="translate(0)"><ellipse cx="3.478" cy="1.95" rx="3.478" ry="1.95" transform="translate(0 6.645) rotate(-72.829)"/></g></g></g><g transform="translate(116.382 35.123)"><path d="M157.488,46.429a7.85,7.85,0,0,1,2.116-1.567,7.357,7.357,0,0,1,2.568-.794,4.723,4.723,0,0,1,2.843.592,4.826,4.826,0,0,1,1.877,2.172.839.839,0,0,1-1.472.8l-.035-.058a4.118,4.118,0,0,0-1.268-1.4,2.96,2.96,0,0,0-1.8-.374,6.78,6.78,0,0,0-2.062.488,9.647,9.647,0,0,0-1.943,1.009l-.047.032a.6.6,0,0,1-.777-.9Z" transform="translate(-157.325 -44.046)"/></g><g transform="translate(135.216 37.79)"><path d="M167.627,46.518a3.371,3.371,0,0,1,2.669-1.044,5.964,5.964,0,0,1,2.466.53,5,5,0,0,1,2.012,1.558,4.546,4.546,0,0,1,.885,2.339.549.549,0,0,1-1.05.269l-.017-.041a4.476,4.476,0,0,0-2.522-2.5,5.421,5.421,0,0,0-1.778-.349,2.515,2.515,0,0,0-1.354.288l-.138.127a.832.832,0,0,1-1.173-1.179Z" transform="translate(-167.408 -45.474)"/></g><g transform="translate(49.172)"><path d="M124.437,133.782a.841.841,0,0,1-.7-.372c-2.544-3.782-3.474-12.04-.738-17.843,1.974-4.193,5.818-7.3,9.888-10.589a51.476,51.476,0,0,0,8.131-7.583c5-6.3,10.512-25.149,13.805-36.408,1.235-4.223,2.212-7.559,2.834-9.171,2.69-6.963,13.622-29.432,41.692-26.271,25.242,2.85,28.542,25.231,27.708,32.846-.689,6.291-6.455,12.027-10.006,12.825a.84.84,0,0,1-.368-1.64c2.626-.59,8.058-5.475,8.7-11.368.786-7.184-2.342-28.3-26.226-30.991-26.846-3.045-37.355,18.525-39.936,25.2-.6,1.547-1.563,4.853-2.787,9.037-3.543,12.113-8.9,30.42-14.1,36.981a52.734,52.734,0,0,1-8.388,7.847c-3.917,3.164-7.615,6.155-9.427,10-2.423,5.144-1.675,12.789.615,16.189a.843.843,0,0,1-.23,1.167A.832.832,0,0,1,124.437,133.782Z" transform="translate(-121.341 -25.242)"/></g><g transform="translate(97.792 48.469)"><path d="M161.79,88.577c-4.513,0-10.477-1.042-14.237-5.8a.847.847,0,0,1-.176-.622c.03-.241,2.914-24.183,3.988-30.272a.839.839,0,0,1,1.653.293C152.025,57.818,149.453,79,149.09,82c5.25,6.248,15.419,4.866,17.911,4.412.12-.94.286-2.464.459-4.04.262-2.4.532-4.89.686-5.729a.84.84,0,1,1,1.653.3c-.142.779-.422,3.345-.669,5.611-.219,1.995-.428,3.908-.547,4.692a.84.84,0,0,1-.639.691A29.254,29.254,0,0,1,161.79,88.577Z" transform="translate(-147.372 -51.191)"/></g><g transform="translate(97.794 78.695)"><path d="M169.644,88.619a.842.842,0,0,1-.785-.538c-.385-1-4.2-5.957-6.954-9.418-1.562,2.748-4.664,9.01-4.7,9.083a.841.841,0,0,1-1.36.209c-7.46-7.8-8.433-19.2-8.471-19.676a.84.84,0,0,1,1.675-.133c.007.108.9,10.413,7.2,17.75,1.182-2.367,3.924-7.795,4.868-9.173a.836.836,0,0,1,.659-.364.784.784,0,0,1,.689.312c.527.656,3.952,4.925,6.151,7.976-.241-3.329-.74-8.471-1.664-11.308a.841.841,0,1,1,1.6-.519c1.505,4.627,1.915,14.506,1.931,14.924a.842.842,0,0,1-.669.857A.888.888,0,0,1,169.644,88.619Z" transform="translate(-147.372 -67.373)"/></g><g transform="translate(27.499 78.589)"><path d="M165.827,215.861a.885.885,0,0,1-.23-.032c-.512-.144-51.231-14.958-55.507-55.837-2.408-23.032,7.522-46.941,29.51-71.064C153.118,74.1,175.671,66.2,181.063,67.444a.841.841,0,1,1-.379,1.638c-4.268-.988-26.284,6.106-39.841,20.978-21.652,23.753-31.436,47.223-29.08,69.758,3.949,37.757,48.949,52.74,53.863,54.264,8.4-7.46,12.225-20.981,13.043-24.22-9.339-3.594-35.7-19.45-37.09-34.925-1.948-21.645,18.32-40.39,22.4-43.93a.841.841,0,0,1,1.1,1.272c-3.975,3.444-23.7,21.678-21.829,42.506,1.341,14.9,28.593,30.935,36.683,33.754a.839.839,0,0,1,.545.971c-.155.708-3.883,17.4-14.11,26.148A.832.832,0,0,1,165.827,215.861Z" transform="translate(-109.738 -67.317)"/></g><g transform="translate(135.971 114.692)"><path d="M168.651,121.956a.84.84,0,0,1-.695-1.311c10.91-16.106,2.077-32.588,1.985-32.753a.841.841,0,1,1,1.472-.813c.1.174,9.436,17.53-2.066,34.506A.838.838,0,0,1,168.651,121.956Z" transform="translate(-167.812 -86.645)"/></g><g transform="translate(117.637 81.063)"><path d="M249.279,208.081a.846.846,0,0,1-.43-.118c-9.814-5.837-38.012-35.046-47.594-47.434l-1.939-2.5c-6.814-8.768-13.249-17.05-18.99-28.69a.84.84,0,0,1,1.507-.743c5.667,11.487,12.049,19.7,18.809,28.4l1.943,2.5c9.369,12.111,36.595,40.377,46.668,46.735,7.628-5.331,17.752-15.688,20.38-18.424-15.794-12.158-34.165-34.185-43.8-46.356-4.909-6.2-11.868-17.36-18.6-28.148-8.019-12.854-16.308-26.148-20.849-30.575-9.548-9.307-24.413-12.412-27.551-12.412a.841.841,0,0,1,0-1.681c3.418,0,18.669,3.088,28.724,12.89,4.686,4.567,12.66,17.352,21.1,30.888,6.706,10.749,13.637,21.865,18.49,27.993,9.737,12.3,28.436,34.716,44.243,46.629a.84.84,0,0,1,.106,1.248c-.127.135-12.772,13.529-21.747,19.646A.844.844,0,0,1,249.279,208.081Z" transform="translate(-157.996 -68.641)"/></g><g transform="translate(86.17 199.003)"><g transform="translate(19.662 3.347)"><path d="M152.518,142.484a.805.805,0,0,1-.133-.009.842.842,0,0,1-.7-.962l1.16-7.23a.841.841,0,1,1,1.66.271l-1.16,7.223A.84.84,0,0,1,152.518,142.484Z" transform="translate(-151.676 -133.576)"/></g><g transform="translate(28.504 4.778)"><path d="M157.25,143.77a.811.811,0,0,1-.133-.011.838.838,0,0,1-.7-.962l1.242-7.748a.841.841,0,0,1,1.661.265l-1.244,7.748A.841.841,0,0,1,157.25,143.77Z" transform="translate(-156.41 -134.341)"/></g><g transform="translate(0 29.887)"><path d="M171.852,179.033a5.071,5.071,0,0,1-.8-.064c-1.842-.288-11.257-1.8-18.37-2.944l-7.849-1.259a4.09,4.09,0,0,1-3.269-2.544c-1.009-2.454-.136-6.106,2.219-9.306,1.306-1.765,3.422-4.257,4.967-6.037,2.645-3.056,5.561-6.308,7.464-8.433l.344-.383a.841.841,0,0,1,1.253,1.121l-.346.383c-1.9,2.122-4.806,5.364-7.445,8.413-2.157,2.486-3.893,4.593-4.884,5.934-1.982,2.7-2.794,5.777-2.017,7.671a2.4,2.4,0,0,0,1.978,1.52l7.852,1.261c7.109,1.141,16.521,2.654,18.365,2.94a3.106,3.106,0,0,0,2.884-1.02c1.263-1.4,1.591-3.823.882-6.487-.91-3.392-3.373-9.834-4.761-13.372-1.143-2.9-2.184-5.491-2.77-6.952a.84.84,0,1,1,1.558-.628c.59,1.464,1.633,4.055,2.776,6.965,1.4,3.571,3.889,10.079,4.821,13.553.859,3.216.389,6.224-1.257,8.047A4.791,4.791,0,0,1,171.852,179.033Z" transform="translate(-141.15 -147.784)"/></g><g transform="translate(18.922)"><path d="M163.75,138.352a2.427,2.427,0,0,1-.4-.032l-.532-.086a.84.84,0,1,1,.265-1.659l.534.086a.8.8,0,1,0,.254-1.586l-9.978-1.6a.8.8,0,1,0-.254,1.586l.51.08a.841.841,0,0,1-.265,1.661l-.512-.082a2.484,2.484,0,0,1-1.063-4.464,2.454,2.454,0,0,1,1.849-.439l9.98,1.6a2.485,2.485,0,0,1,1.063,4.466A2.46,2.46,0,0,1,163.75,138.352Z" transform="translate(-151.28 -131.783)"/></g><g transform="translate(6.928 36.383)"><path d="M152.134,157.64c-2.613,0-5.667-.626-7.051-2.118a.84.84,0,0,1,1.231-1.143c1.321,1.42,5.673,1.935,8.183,1.352a13.7,13.7,0,0,0,4.257-1.986,18.025,18.025,0,0,1,2.206-1.238,13.609,13.609,0,0,1,6.644-1.2.84.84,0,0,1-.2,1.668,12.323,12.323,0,0,0-5.759,1.068,16.889,16.889,0,0,0-2,1.128,15.289,15.289,0,0,1-4.763,2.2A12.541,12.541,0,0,1,152.134,157.64Z" transform="translate(-144.859 -151.262)"/></g><g transform="translate(25.668 50.788)"><circle cx="2.611" cy="2.611" r="2.611"/></g><g transform="translate(22.255 44.711)"><circle cx="1.808" cy="1.808" r="1.808"/></g></g><g transform="translate(226.517 202.562)"><path d="M236.842,151.131a4.877,4.877,0,0,1-1.455-.215,38.479,38.479,0,0,1-5.661-2.7c-3.117-1.67-7-3.747-8.536-3.329a.84.84,0,1,1-.441-1.621c2.184-.594,5.871,1.38,9.771,3.469a37.937,37.937,0,0,0,5.368,2.572,4.147,4.147,0,0,0,4.571-1.886c.084-.224.258-.691-.747-1.134a37.759,37.759,0,0,1-7.35-4.582c-1.459-1.08-2.97-2.2-4.662-3.209a25.631,25.631,0,0,0-10.667-3.136.84.84,0,0,1,.192-1.67,27.124,27.124,0,0,1,11.34,3.362c1.761,1.055,3.306,2.2,4.8,3.3a36.026,36.026,0,0,0,7.025,4.4c1.814.8,2.04,2.206,1.644,3.261C241.414,149.665,239.126,151.131,236.842,151.131Z" transform="translate(-216.288 -133.689)"/></g><g transform="translate(215.029 200.569)"><g transform="translate(82.306 19.767)"><path d="M262.622,153.355a.839.839,0,0,1-.686-1.324l2.408-3.413-9.61-3.792a.84.84,0,0,1,.616-1.563l10.606,4.184a.84.84,0,0,1,.377,1.266L263.308,153A.835.835,0,0,1,262.622,153.355Z" transform="translate(-254.202 -143.205)"/></g><g transform="translate(0 12.943)"><path d="M276.88,190.6a.838.838,0,0,1-.314-.062l-65.9-26.471a.84.84,0,0,1-.312-1.343l20.589-22.89a.841.841,0,0,1,1.25,1.124l-19.784,22,64.168,25.776,7.8-11.071a.841.841,0,0,1,1.375.968l-8.187,11.614A.842.842,0,0,1,276.88,190.6Z" transform="translate(-210.137 -139.551)"/></g><g transform="translate(25.631)"><path d="M277.542,152.555a.851.851,0,0,1-.308-.058L231.541,134.46l-6.216,6.909a.839.839,0,1,1-1.248-1.123l6.6-7.346a.84.84,0,0,1,.934-.218l46.235,18.252a.84.84,0,0,1-.308,1.621Z" transform="translate(-223.86 -132.622)"/></g><g transform="translate(74.574 38.806)"><path d="M250.9,156.911a.84.84,0,0,1-.682-1.328l1.309-1.832a.841.841,0,1,1,1.367.979l-1.309,1.831A.841.841,0,0,1,250.9,156.911Z" transform="translate(-250.063 -153.398)"/></g><g transform="translate(28.522 4.404)"><path d="M273.744,153.838a.834.834,0,0,1-.312-.06l-42.35-16.96-4.214,4.627a.84.84,0,1,1-1.242-1.132l4.606-5.058a.843.843,0,0,1,.934-.215l42.889,17.177a.84.84,0,0,1-.312,1.621Z" transform="translate(-225.407 -134.98)"/></g><g transform="translate(5.715 14.624)"><path d="M271.2,184.418a.787.787,0,0,1-.3-.058l-57.162-22.319a.845.845,0,0,1-.514-.592.836.836,0,0,1,.2-.757l18.135-19.965a.84.84,0,1,1,1.244,1.128L215.48,160.918,270.9,182.559l6.577-9.152a.841.841,0,0,1,1.367.981l-6.958,9.681A.844.844,0,0,1,271.2,184.418Z" transform="translate(-213.197 -140.451)"/></g><g transform="translate(79.987 23.177)"><path d="M258.288,150.409a.83.83,0,0,1-.489-.157.838.838,0,0,1-.194-1.171l.435-.609-4.552-1.819a.841.841,0,0,1,.624-1.562l5.548,2.219a.84.84,0,0,1,.493.545.83.83,0,0,1-.123.725l-1.059,1.477A.837.837,0,0,1,258.288,150.409Z" transform="translate(-252.961 -145.031)"/></g><g transform="translate(15.328 15.808)"><path d="M225.078,148.293a.829.829,0,0,1-.332-.069l-5.895-2.542a.84.84,0,0,1,.667-1.543l5.335,2.3,4.481-5.073a.84.84,0,1,1,1.257,1.113l-4.883,5.529A.838.838,0,0,1,225.078,148.293Z" transform="translate(-218.344 -141.085)"/></g><g transform="translate(22.845 17.354)"><path d="M223.207,151.448a.824.824,0,0,1-.534-.192.84.84,0,0,1-.11-1.184l6.521-7.854a.84.84,0,0,1,1.294,1.072l-6.522,7.856A.839.839,0,0,1,223.207,151.448Z" transform="translate(-222.368 -141.913)"/></g><g transform="translate(25.3 15.944)"><path d="M224.522,155.021a.841.841,0,0,1-.652-1.369l9.888-12.182a.84.84,0,1,1,1.3,1.059l-9.886,12.18A.839.839,0,0,1,224.522,155.021Z" transform="translate(-223.683 -141.158)"/></g><g transform="translate(24.939 23.949)"><path d="M224.329,160.09a.83.83,0,0,1-.5-.168.839.839,0,0,1-.168-1.177l9.724-12.965a.839.839,0,0,1,1.343,1.007L225,159.754A.841.841,0,0,1,224.329,160.09Z" transform="translate(-223.49 -145.444)"/></g><g transform="translate(28.662 13.775)"><path d="M226.322,166.889a.832.832,0,0,1-.484-.155.841.841,0,0,1-.2-1.171l17.8-25.21a.84.84,0,1,1,1.373.969l-17.8,25.21A.835.835,0,0,1,226.322,166.889Z" transform="translate(-225.483 -139.997)"/></g><g transform="translate(33.493 15.944)"><path d="M228.909,167.32a.828.828,0,0,1-.491-.159.838.838,0,0,1-.191-1.171l17.647-24.484a.84.84,0,1,1,1.364.982l-17.647,24.482A.84.84,0,0,1,228.909,167.32Z" transform="translate(-228.069 -141.158)"/></g><g transform="translate(44.568 28.126)"><path d="M234.838,158.149a.828.828,0,0,1-.445-.129.838.838,0,0,1-.267-1.156l5.491-8.79a.841.841,0,0,1,1.425.893l-5.491,8.786A.84.84,0,0,1,234.838,158.149Z" transform="translate(-233.998 -147.68)"/></g><g transform="translate(46.459 23.949)"><path d="M235.85,163.151a.831.831,0,0,1-.459-.138.841.841,0,0,1-.243-1.164l10.535-16.026a.84.84,0,0,1,1.4.923l-10.533,16.026A.847.847,0,0,1,235.85,163.151Z" transform="translate(-235.01 -145.444)"/></g><g transform="translate(51.726 38.664)"><path d="M238.67,161.981a.842.842,0,0,1-.7-1.309l4.683-6.976a.839.839,0,1,1,1.393.936l-4.681,6.976A.838.838,0,0,1,238.67,161.981Z" transform="translate(-237.831 -153.322)"/></g><g transform="translate(53.256 47.808)"><path d="M244.487,164.423c-.344,0-.484,0-5.5-3.794A.839.839,0,1,1,240,159.291c.736.555,1.5,1.13,2.208,1.653l-.762-1.5a.841.841,0,0,1,1.339-.981l1.728,1.7.895-.822a.841.841,0,0,1,1.136,1.24l-1.485,1.362a.818.818,0,0,1-.36.192l.542,1.07a.838.838,0,0,1-.749,1.22Z" transform="translate(-238.65 -158.218)"/></g></g><g transform="translate(140.834 59.182)"><path d="M174.464,91.561a.84.84,0,0,1-.413-1.571c1.873-1.055,2.768-2.206,2.779-5.887.006-2.363-1.692-6.575-3.06-9.959-.557-1.384-1.07-2.658-1.42-3.676A45.381,45.381,0,0,1,170.463,58.6l-.047-.773a.84.84,0,1,1,1.677-.106l.047.783a43.985,43.985,0,0,0,1.8,11.422c.342,1,.844,2.241,1.39,3.594,1.494,3.7,3.187,7.9,3.179,10.594-.011,3.919-.962,5.841-3.635,7.346A.833.833,0,0,1,174.464,91.561Z" transform="translate(-170.415 -56.927)"/></g><g transform="translate(212.485 215.505)"><path d="M220.663,153.743a.835.835,0,0,1-.332-.069c-4.778-2.056-10.992-9.911-11.528-12a.841.841,0,0,1,1.629-.418c.394,1.548,6.158,8.982,10.564,10.88a.84.84,0,0,1-.333,1.612Z" transform="translate(-208.776 -140.619)"/></g><g transform="translate(148.843 13.843)"><path d="M238.839,169.16H209.124a.841.841,0,0,1,0-1.681H238V34.332H175.544a.84.84,0,1,1,0-1.679h63.3a.839.839,0,0,1,.841.841V168.32A.839.839,0,0,1,238.839,169.16Z" transform="translate(-174.703 -32.653)"/></g><g transform="translate(0 13.843)"><path d="M125.1,169.16H95.855a.839.839,0,0,1-.839-.84V33.494a.839.839,0,0,1,.839-.841h92.473a.84.84,0,1,1,0,1.679H96.7V167.479h28.4a.841.841,0,1,1,0,1.681Z" transform="translate(-95.016 -32.653)"/></g><g transform="translate(61.934 148.669)"><path d="M211.384,106.517h-82.37a.841.841,0,1,1,0-1.681h82.37a.841.841,0,1,1,0,1.681Z" transform="translate(-128.174 -104.836)"/></g><g transform="translate(90.187 79.404)"><g transform="translate(0 0)"><path d="M144.142,138.7a.841.841,0,0,1-.465-1.543c5.465-3.616,9.86-12.554,10.69-21.734,1.6-17.8-7.628-42.484-9.73-46.431a.841.841,0,1,1,1.485-.79c2.141,4.023,11.556,29.2,9.918,47.372-.87,9.653-5.574,19.106-11.437,22.986A.84.84,0,0,1,144.142,138.7Z" transform="translate(-143.3 -67.753)"/></g></g><g transform="translate(121.61 81.913)"><g transform="translate(0 0)"><path d="M160.965,137.186a.84.84,0,0,1-.445-1.554c5.661-3.512,8.3-9.741,8.291-19.6,0-6.674-1.434-19.833-8.245-44.617-.161-.592-.28-1.02-.344-1.265a.84.84,0,0,1,1.627-.422c.063.239.179.659.338,1.24,6.859,24.966,8.3,38.285,8.3,45.064.006,10.5-2.882,17.186-9.085,21.032A.836.836,0,0,1,160.965,137.186Z" transform="translate(-160.123 -69.096)"/></g></g><g transform="translate(97.715 39.743)"><path d="M147.86,46.543a4.073,4.073,0,0,1,1.866.232,3.749,3.749,0,0,1,1.608,1.167,4.177,4.177,0,0,1,.786,1.819,7.62,7.62,0,0,1,.077.934l-.1.895a.838.838,0,0,1-1.672-.078v-.09a4.389,4.389,0,0,0-.54-2.4,2.42,2.42,0,0,0-.835-.8,5.009,5.009,0,0,0-1.194-.5l-.1-.03a.584.584,0,0,1,.1-1.145Z" transform="translate(-147.331 -46.52)"/></g><g transform="translate(95.439 203.892)"><path d="M158.087,137.113a.824.824,0,0,1-.239-.035,33.326,33.326,0,0,0-6.522-.665,40.97,40.97,0,0,1-4.516-.344.841.841,0,0,1,.288-1.657,39.455,39.455,0,0,0,4.3.321,33.347,33.347,0,0,1,6.924.734.84.84,0,0,1-.237,1.646Z" transform="translate(-146.112 -134.401)"/></g><g transform="translate(85.765 222.432)"><path d="M165.447,153.435a46.655,46.655,0,0,1-7.821-.9c-11.711-2.1-16.263-6.59-16.45-6.78a.839.839,0,0,1,1.192-1.182c.043.043,4.43,4.313,15.555,6.308,5.432.975,8.611,1.128,10.307.5,1.369-.51,1.58-1.1,1.618-1.505.09-.945.034-1.644-1.533-2.036a.841.841,0,1,1,.409-1.631c2.768.695,2.923,2.516,2.8,3.825s-1.037,2.3-2.707,2.923A9.747,9.747,0,0,1,165.447,153.435Z" transform="translate(-140.933 -144.327)"/></g><g transform="translate(105.827 209.57)"><path d="M161.365,141.08a.719.719,0,0,1-.108-.007c-3.127-.407-8.725-1.915-8.962-1.978a.841.841,0,0,1,.439-1.623c.058.015,5.727,1.543,8.74,1.937a.839.839,0,0,1-.108,1.672Z" transform="translate(-151.673 -137.441)"/></g><g transform="translate(109.89 209.188)"><path d="M159.645,145.3a23.258,23.258,0,0,1-5.155-.844.841.841,0,0,1,.4-1.634c2.7.654,4.524.977,5.843.693a2.4,2.4,0,0,0,1.793-1.283,1.881,1.881,0,0,0-.093-1.707,4.078,4.078,0,0,0-2.68-1.608.841.841,0,1,1,.209-1.668,5.657,5.657,0,0,1,3.928,2.436,3.583,3.583,0,0,1,.174,3.229,4.031,4.031,0,0,1-2.977,2.245A6.787,6.787,0,0,1,159.645,145.3Z" transform="translate(-153.848 -137.237)"/></g><g transform="translate(108.7 215.012)"><path d="M160.321,146.919c-.049,0-.1,0-.148,0a25.974,25.974,0,0,1-6.382-.979.84.84,0,1,1,.523-1.6,24.264,24.264,0,0,0,5.884.895c2.488.064,2.742-1.009,2.832-1.354a1.5,1.5,0,0,0-.706-1.9.839.839,0,1,1,.577-1.576,3.134,3.134,0,0,1,1.756,3.9C164.345,145.5,163.338,146.919,160.321,146.919Z" transform="translate(-153.212 -140.355)"/></g><g transform="translate(107.655 219.869)"><path d="M159.182,149.13a23.8,23.8,0,0,1-5.994-1.014.841.841,0,0,1,.609-1.567,22.144,22.144,0,0,0,5.551.9c1.427-.069,1.808-.671,1.969-1.117a2.416,2.416,0,0,0-.022-1.586.353.353,0,0,0-.112-.151.84.84,0,1,1,.534-1.593,1.882,1.882,0,0,1,1.091,1.012,4.054,4.054,0,0,1,.09,2.888c-.344.956-1.225,2.118-3.467,2.226C159.354,149.128,159.27,149.13,159.182,149.13Z" transform="translate(-152.652 -142.955)"/></g><g transform="translate(269.862 104.512)"><g transform="translate(164.472 19.066)"><path d="M352.154,160.436c-9.492,0-15.877-5.187-20.524-16.558-4.948-12.109-4.354-35.037-3.525-37.323a8.963,8.963,0,0,1,7.757-6.334,8.773,8.773,0,0,1,1.227-6.212,6.9,6.9,0,0,1,5.538-2.593c8.345-.39,14.059,8.052,16.377,15.443,2.63,8.379,6.6,13.1,12.884,15.311a.841.841,0,1,1-.558,1.586c-8.852-3.116-12.19-10.847-13.93-16.392-2.139-6.818-7.29-14.648-14.687-14.268A5.327,5.327,0,0,0,338.442,95c-1.659,2.258-.773,5.783-.764,5.818a.84.84,0,0,1-.893,1.046c-.205-.011-5.066-.37-7.1,5.258-.594,1.64-1.373,24.189,3.5,36.117,4.731,11.584,11.017,16.192,21.008,15.432,7.653-.588,16.344-7.839,17.339-22.371a.842.842,0,0,1,1.679.116c-1.067,15.527-10.54,23.29-18.891,23.933Q353.214,160.436,352.154,160.436Z" transform="translate(-327.549 -91.403)"/></g><g transform="translate(207.694 46.296)"><path d="M352.292,124.551a.841.841,0,0,1-.2-1.659c.372-.088,9.095-2.307,8.1-12.051a3.266,3.266,0,0,0-3.078-3.157,4.55,4.55,0,0,0-4.789,2.873.841.841,0,0,1-1.608-.493,6.211,6.211,0,0,1,6.562-4.053,4.938,4.938,0,0,1,4.586,4.66c1.141,11.228-9.283,13.833-9.388,13.858A.858.858,0,0,1,352.292,124.551Z" transform="translate(-350.689 -105.981)"/></g><g transform="translate(179.791 63.185)"><path d="M350.455,154.621a20.371,20.371,0,0,1-14.5-6.412.841.841,0,0,1-.2-.551V137.25a.84.84,0,1,1,1.679,0v10.086a18.8,18.8,0,0,0,13.026,5.605,21.252,21.252,0,0,0,13.96-5.026V115.864a.84.84,0,1,1,1.679,0v32.426a.834.834,0,0,1-.267.615A22.85,22.85,0,0,1,350.455,154.621Z" transform="translate(-335.75 -115.023)"/></g><g transform="translate(152.294)"><path d="M378.032,152.287a.841.841,0,0,1-.267-1.638c.062-.021,6.179-2.113,9.537-6.975,4.462-6.463,7.7-17.636,9.24-23.722,2.073-8.222,3.9-28.133-23.847-35.448-28.617-7.548-36.417,13.7-36.494,13.915a.838.838,0,0,1-.794.562h0c-.409.015-10.508.09-12.316,10.381-1.633,9.293,1.851,21.783,11.67,27.676a.84.84,0,1,1-.865,1.44c-10.469-6.282-14.194-19.549-12.46-29.407,1.788-10.182,10.983-11.556,13.4-11.741,1.474-3.411,10.8-21.7,38.293-14.451,29.2,7.7,27.241,28.778,25.044,37.482-1.561,6.2-4.871,17.588-9.487,24.269-3.681,5.333-10.114,7.522-10.385,7.613A.884.884,0,0,1,378.032,152.287Z" transform="translate(-321.029 -81.195)"/></g><g transform="translate(175.156 44.202)"><path d="M340.259,105.37a15.869,15.869,0,0,1-.308,6.715,12.914,12.914,0,0,1-1.257,3.222c-.562,1-1.179,1.892-1.756,2.794-1.1,1.793-2.4,3.65-1.737,5.241a2.821,2.821,0,0,0,1.6,1.81,6.478,6.478,0,0,0,2.8.415h.022a.84.84,0,0,1,.058,1.679,8.128,8.128,0,0,1-3.573-.5,4.5,4.5,0,0,1-2.591-2.869,4.881,4.881,0,0,1-.23-1.956,6.052,6.052,0,0,1,.523-1.806,20.9,20.9,0,0,1,1.675-2.947c.594-.917,1.208-1.806,1.717-2.7a11.239,11.239,0,0,0,1.109-2.806,26.939,26.939,0,0,0,.714-6.177v-.013a.62.62,0,0,1,1.231-.1Z" transform="translate(-333.268 -104.86)"/></g><g transform="translate(177.925 70.06)"><path d="M335.881,119.812a26.707,26.707,0,0,0,3.751.844,22.046,22.046,0,0,0,3.853.239,16.882,16.882,0,0,0,3.779-.532,13.674,13.674,0,0,0,3.457-1.556l.035-.021a.555.555,0,0,1,.626.915,12.529,12.529,0,0,1-3.706,2,16.837,16.837,0,0,1-4.12.792,23.734,23.734,0,0,1-4.156-.177,21.216,21.216,0,0,1-4.076-.915.84.84,0,0,1,.517-1.6Z" transform="translate(-334.751 -118.704)"/></g><g transform="translate(170.861 42.428)"><ellipse cx="1.711" cy="3.872" rx="1.711" ry="3.872"/></g><g transform="translate(194.963 44.769)"><ellipse cx="1.711" cy="3.872" rx="1.711" ry="3.872"/></g><g transform="translate(168.419 35.676)"><path d="M329.7,103.53a4.947,4.947,0,0,1,1.573-2.036,5.423,5.423,0,0,1,2.352-1.119,3.554,3.554,0,0,1,2.813.568,5.081,5.081,0,0,1,1.593,2.163.839.839,0,0,1-1.5.755l-.041-.075a4.123,4.123,0,0,0-1.089-1.365,1.981,1.981,0,0,0-1.468-.293,4.97,4.97,0,0,0-1.709.7,6.6,6.6,0,0,0-1.462,1.212l-.073.086a.585.585,0,0,1-.992-.594Z" transform="translate(-329.662 -100.295)"/></g><g transform="translate(192.262 39.472)"><path d="M343.266,105.694a.839.839,0,0,1-.628-1.4,6.71,6.71,0,0,1,4.84-1.971.841.841,0,0,1,0,1.681,5.02,5.02,0,0,0-3.586,1.408A.844.844,0,0,1,343.266,105.694Z" transform="translate(-342.427 -102.328)"/></g><g transform="translate(208.456 95.609)"><path d="M386.026,250.125a.84.84,0,0,1-.069-1.677c.194-.017,19.4-1.8,20.845-16,3.02-29.723-.333-52.567-9.961-67.9-13.351-21.258-44.819-30.431-45.134-30.52a.841.841,0,0,1,.461-1.618c.323.092,32.4,9.434,46.1,31.243,9.832,15.656,13.267,38.857,10.208,68.963-1.58,15.585-22.167,17.483-22.375,17.5C386.073,250.123,386.05,250.125,386.026,250.125Z" transform="translate(-351.097 -132.382)"/></g><g transform="translate(61.464 127.209)"><path d="M296.876,235.443a.839.839,0,0,1-.809-.615l-23.636-84.462a.841.841,0,0,1,.809-1.067h0l59.892.09a.842.842,0,0,1,.794.573l25.02,74.433h66.2a.839.839,0,0,1,.841.841V234.6a.841.841,0,1,1-1.681,0v-8.525H358.343a.839.839,0,0,1-.8-.573l-25.018-74.433-58.179-.088,23.335,83.393a.84.84,0,0,1-.583,1.035A.856.856,0,0,1,296.876,235.443Z" transform="translate(-272.4 -149.3)"/></g><g transform="translate(35.992 128.544)"><path d="M296.11,189.815a.784.784,0,0,1-.194-.022,248.776,248.776,0,0,1-36.643-11.76.841.841,0,0,1-.508-.814c.041-.779.073-1.406.121-2.008,1.39-17.843,9.388-24.715,9.728-25a.826.826,0,0,1,.77-.163c.071.021,7.111,2.028,17.317,3.932a.84.84,0,0,1,.672.981.849.849,0,0,1-.981.671c-8.8-1.638-15.275-3.362-17.01-3.838-1.462,1.455-7.643,8.441-8.822,23.55-.036.446-.062.908-.086,1.371A250.355,250.355,0,0,0,296.3,188.158a.84.84,0,0,1-.194,1.657Z" transform="translate(-258.763 -150.015)"/></g><g transform="translate(135.542 161.252)"><path d="M312.9,177.443a.84.84,0,0,1-.183-1.661c9.6-2.129,13.054-5.4,14.909-7.15.4-.381.741-.7,1.05-.934a.84.84,0,0,1,1.018,1.337c-.267.205-.56.484-.912.816-1.974,1.866-5.645,5.342-15.7,7.572A.882.882,0,0,1,312.9,177.443Z" transform="translate(-312.06 -167.526)"/></g><g transform="translate(122.617 94.981)"><path d="M305.98,169.78a.841.841,0,0,1-.346-1.606c9.7-4.352,15.929-10.74,20.933-15.875,1.505-1.547,2.929-3.005,4.247-4.19,8.338-7.477,19.381-13.286,29.538-15.539.893-.189,1.778-.359,2.664-.512a.841.841,0,1,1,.286,1.657q-1.3.224-2.593.5c-9.883,2.189-20.642,7.852-28.772,15.146-1.278,1.147-2.682,2.585-4.167,4.111-4.836,4.959-11.457,11.752-21.445,16.233A.841.841,0,0,1,305.98,169.78Z" transform="translate(-305.14 -132.046)"/></g><g transform="translate(149.086 177.346)"><path d="M320.155,202.783a.736.736,0,0,1-.144-.013.841.841,0,0,1-.687-.971c2.54-14.67,21.127-26.223,31.486-25.634a.838.838,0,0,1,.794.882.824.824,0,0,1-.884.8c-9.756-.521-27.338,10.372-29.74,24.243A.841.841,0,0,1,320.155,202.783Z" transform="translate(-319.311 -176.142)"/></g><g transform="translate(154.85 185.827)"><path d="M323.237,198.842a.886.886,0,0,1-.183-.021.841.841,0,0,1-.637-1c2.049-9.126,17-17.022,20.24-17.132a.841.841,0,1,1,.056,1.681c-2.288.077-16.775,7.438-18.654,15.819A.845.845,0,0,1,323.237,198.842Z" transform="translate(-322.397 -180.683)"/></g><g transform="translate(165.835 191.502)"><path d="M329.118,196.206a.842.842,0,0,1-.813-1.053c1.711-6.56,10.833-11.431,13.237-11.431a.841.841,0,0,1,0,1.681c-1.489,0-10.056,4.214-11.612,10.174A.84.84,0,0,1,329.118,196.206Z" transform="translate(-328.278 -183.721)"/></g><g transform="translate(175.918 194.068)"><path d="M334.52,195.013a.891.891,0,0,1-.172-.017.841.841,0,0,1-.654-.994c.885-4.33,7.5-8.908,10.548-8.908a.84.84,0,1,1,0,1.679c-2.191,0-8.163,3.958-8.9,7.567A.841.841,0,0,1,334.52,195.013Z" transform="translate(-333.677 -185.095)"/></g><g transform="translate(176.664 173.822)"><path d="M415.232,193.616a.827.827,0,0,1-.375-.09.84.84,0,0,1-.375-1.126c.5-1,.577-3.325-.431-6.078a13.755,13.755,0,0,0-7.458-8c-7.186-3.086-12.768-2.578-21.209-1.806-3.321.3-7.083.648-11.474.8-10.353.362-21.857-.136-28.733-.437-3.19-.14-5.712-.25-6.425-.2a3.11,3.11,0,0,0-3.043,2.389.84.84,0,1,1-1.582-.568,4.786,4.786,0,0,1,4.5-3.5c.813-.056,3.123.039,6.627.192,6.847.3,18.31.8,28.6.435,4.345-.151,8.084-.493,11.381-.8,8.385-.762,14.446-1.319,22.026,1.937a15.43,15.43,0,0,1,8.375,8.967c1.04,2.847,1.18,5.753.355,7.406A.843.843,0,0,1,415.232,193.616Z" transform="translate(-334.076 -174.256)"/></g><g transform="translate(179.699 177.363)"><path d="M354.91,202.775a.841.841,0,0,1-.84-.841,26.073,26.073,0,0,0-7.473-18.761c-3.7-3.689-7.7-5.34-10.036-5.34h-.019A.84.84,0,0,1,335.7,177a.819.819,0,0,1,.861-.842c3.265,0,7.666,2.284,11.222,5.828a27.862,27.862,0,0,1,7.966,19.952A.841.841,0,0,1,354.91,202.775Z" transform="translate(-335.701 -176.152)"/></g><g transform="translate(228.456 137.523)"><path d="M364.706,193.081l-.062,0a.845.845,0,0,1-.779-.9c1.293-17.965-2.015-36.18-2.047-36.363a.839.839,0,1,1,1.651-.3c.034.183,3.381,18.6,2.073,36.789A.84.84,0,0,1,364.706,193.081Z" transform="translate(-361.804 -154.822)"/></g><g transform="translate(145.815 132.897)"><path d="M318.4,220.041a.808.808,0,0,1-.1-.006.841.841,0,0,1-.741-.928,478.068,478.068,0,0,1,12.662-66.148.84.84,0,0,1,1.618.452,476.677,476.677,0,0,0-12.61,65.882A.84.84,0,0,1,318.4,220.041Z" transform="translate(-317.56 -152.346)"/></g><g transform="translate(7.431 128.929)"><path d="M273,175.937l-.047,0c-2.8-.149-10.069-2.172-16.769-6.029-4.772-2.751-10.654-9.845-12.12-13.725-1.18-3.121-.439-5.155.82-5.787,1.866-.925,4.993,2.019,7.29,4.658,1.384,1.59,4.791,3.463,7.109,3.491a.841.841,0,0,1-.011,1.681h-.011c-2.867-.037-6.7-2.174-8.355-4.07-2.863-3.289-4.832-4.391-5.275-4.255-.4.2-.824,1.5.006,3.687,1.341,3.553,6.973,10.32,11.386,12.862,6.183,3.56,13.277,5.66,16.024,5.809a.84.84,0,0,1-.047,1.679Z" transform="translate(-243.472 -150.221)"/></g><g transform="translate(5.034 134.983)"><path d="M246.476,163.849H243.03a.842.842,0,0,1-.841-.863l.1-3.965a.845.845,0,0,1,.159-.467l3.394-4.741a.841.841,0,0,1,1.367.979l-3.244,4.529-.073,2.847h2.141l2.723-3.986a.84.84,0,1,1,1.388.947l-2.975,4.354A.837.837,0,0,1,246.476,163.849Z" transform="translate(-242.189 -153.462)"/></g><g transform="translate(11.724 102.516)"><path d="M250.022,169.2a.841.841,0,0,1-.693-1.315s1.276-1.864,3.157-4.651c.8-1.166,1.7-2.5,2.664-3.913l2.163-3.183c.667-.96,1.315-1.915,1.961-2.869l2.391-3.517c3.6-5.28,6.625-9.687,6.776-9.905a2.734,2.734,0,0,0,.525-1.681.41.41,0,0,0-.222-.306c-.474-.282-1.2.151-2.139,1.3-.213.271-3.312,4.472-7.4,10.049l-.448.607q-.995,1.342-2.006,2.721l-9.462,12.89a.84.84,0,1,1-1.354-.994l9.462-12.89q1.009-1.381,2.01-2.729l.445-.6c3.771-5.142,7.182-9.771,7.447-10.107,1.554-1.9,3-2.466,4.3-1.7a2.073,2.073,0,0,1,1.018,1.421,4.263,4.263,0,0,1-.809,3c-.131.192-3.155,4.595-6.748,9.87l-2.32,3.411c-.721,1.063-1.373,2.021-2.036,2.981l-2.157,3.173c-.962,1.421-1.866,2.755-2.667,3.919-1.879,2.785-3.159,4.651-3.159,4.651A.84.84,0,0,1,250.022,169.2Z" transform="translate(-245.771 -136.08)"/></g><g transform="translate(8.479 122.261)"><path d="M245.731,155.088a.83.83,0,0,1-.441-.127,2.988,2.988,0,0,1-1.244-2.256,4.1,4.1,0,0,1,1.548-3.456c1.53-1.373,4.477-2.271,8.525-2.6a.84.84,0,0,1,.135,1.675c-3.571.286-6.319,1.08-7.54,2.174a2.456,2.456,0,0,0-.992,2.058,1.373,1.373,0,0,0,.454.973.84.84,0,0,1-.445,1.554Z" transform="translate(-244.033 -146.651)"/></g><g transform="translate(23.121 122.206)"><path d="M275.132,154.643a.858.858,0,0,1-.389-.1,71.017,71.017,0,0,0-10.352-4.2,44.873,44.873,0,0,0-5.308-1.337q-1.275-.249-2.507-.4c-1.369-.148-2.682-.248-3.911-.316a.837.837,0,0,1-.792-.883.8.8,0,0,1,.883-.794c1.255.067,2.6.17,4.01.323.87.1,1.748.243,2.626.415a46.466,46.466,0,0,1,5.5,1.384,71.317,71.317,0,0,1,10.626,4.309.841.841,0,0,1-.388,1.586Z" transform="translate(-251.872 -146.622)"/></g><g transform="translate(18.302 129.298)"><path d="M253.124,159.938a.839.839,0,0,1-.839-.84,10.837,10.837,0,0,0-2.742-7.24.84.84,0,0,1,1.173-1.2,12.336,12.336,0,0,1,3.248,8.443A.839.839,0,0,1,253.124,159.938Z" transform="translate(-249.292 -150.419)"/></g><g transform="translate(5.026 139.979)"><path d="M243.025,161.53a.842.842,0,0,1-.656-1.367l2.99-3.713a.84.84,0,1,1,1.309,1.053l-2.989,3.713A.841.841,0,0,1,243.025,161.53Z" transform="translate(-242.185 -156.137)"/></g><g transform="translate(0 208.308)"><path d="M553.876,197.719H243.695c-2.32,0-4.2-1.119-4.2-2.5s1.881-2.5,4.2-2.5H553.876c2.32,0,4.2,1.119,4.2,2.5S556.2,197.719,553.876,197.719Z" transform="translate(-239.494 -192.719)"/></g><g transform="translate(121.355 211.671)"><path d="M382.722,227.06c-3.248,0-6.577-.106-9.946-.34-10.837-.758-24.79-5.3-37.1-9.319-12.574-4.1-24.454-7.963-30.216-6.909a.852.852,0,0,1-.979-.676.842.842,0,0,1,.676-.979c6.175-1.124,17.7,2.619,31.04,6.967,12.219,3.982,26.068,8.495,36.7,9.238,26.333,1.851,48.721-4.219,49.9-6.567-.019-2.544-2.355-16.872-3.68-22.937a.84.84,0,1,1,1.642-.359c1.371,6.28,3.7,20.612,3.7,23.408a1.755,1.755,0,0,1-.654,1.276C420.716,222.742,403.383,227.06,382.722,227.06Z" transform="translate(-304.465 -194.519)"/></g><g transform="translate(131.95 365.396)"><path d="M310.137,276.82" transform="translate(-310.137 -276.82)" fill="none" stroke="#000" stroke-linecap="round" stroke-linejoin="round" stroke-width="1"/></g><path d="M-11743.135-43.629h-1.679c-.134-12.243.1-22.878.7-31.612.743-10.839,2.066-19.108,3.932-24.576,5.692-16.687,25.38-29.409,34.841-35.523l.226-.146.116-.075c.625-.4,1.216-.786,1.73-1.127a.849.849,0,0,1,.462-.137.841.841,0,0,1,.7.376.851.851,0,0,1-.239,1.168c-.646.422-1.33.865-2.088,1.354l-.017.011c-9.3,6.011-28.642,18.518-34.144,34.64-3.316,9.722-4.846,28.444-4.545,55.646Z" transform="translate(11825 362.803)" stroke="rgba(0,0,0,0)" stroke-miterlimit="10" stroke-width="1"/><path d="M-11693.628-52.955h-1.681c-.078-10.955.153-20.531.687-28.464.651-9.71,1.774-17.3,3.338-22.555,4.254-14.292,16.683-26.555,26.032-32.715a.829.829,0,0,1,.459-.138.849.849,0,0,1,.706.378.85.85,0,0,1-.239,1.168c-9.115,6-21.222,17.926-25.344,31.786-2.8,9.415-4.133,26.419-3.958,50.54Z" transform="translate(11825 372.129)" stroke="rgba(0,0,0,0)" stroke-miterlimit="10" stroke-width="1"/><g transform="translate(131.95 365.396)"><path d="M310.137,276.82" transform="translate(-310.137 -276.82)" fill="none" stroke="#000" stroke-linecap="round" stroke-linejoin="round" stroke-width="1"/></g><g transform="translate(178.259 237.657)"><path d="M-11822.684-292.966h-1.681c.182-11.968.334-20.854.451-26.412a11.493,11.493,0,0,1,6.714-10.169l.264-.12.021-.009c7.929-3.594,16.124-7.309,25.92-14.8l.531-.405c8.89-6.788,19.953-15.236,22.126-28.894a.842.842,0,0,1,.833-.71.85.85,0,0,1,.131.01.843.843,0,0,1,.549.338.835.835,0,0,1,.147.626c-2.279,14.326-13.641,23-22.769,29.965l-.528.405c-9.966,7.617-18.624,11.54-26.264,15l-.268.122a9.8,9.8,0,0,0-5.727,8.674C-11822.351-313.728-11822.5-304.854-11822.684-292.966Z" transform="translate(11825 374.483)" stroke="rgba(0,0,0,0)" stroke-miterlimit="10" stroke-width="1"/></g><g transform="translate(118.741 211.67)"><path d="M304.178,212.025a.841.841,0,0,1-.732-.426c-.956-1.692-.106-3.7,2.527-5.96,1.367-1.175,5.927-4.15,10.339-7.027,2.4-1.563,4.63-3.018,5.97-3.943a.84.84,0,0,1,.955,1.382c-1.347.93-3.592,2.4-6.007,3.969-4.162,2.714-8.878,5.79-10.159,6.892-1.334,1.147-2.791,2.744-2.159,3.859a.839.839,0,0,1-.732,1.253Z" transform="translate(-303.065 -194.519)"/></g><g transform="translate(199.861 96.453)"><path d="M347.337,213.293c-.026,0-.052,0-.079,0a.839.839,0,0,1-.76-.913c2.734-29.544,6.087-62.446,11.257-78.952a.841.841,0,0,1,1.6.5c-5.122,16.349-8.461,49.147-11.186,78.6A.841.841,0,0,1,347.337,213.293Z" transform="translate(-346.495 -132.834)"/></g><g transform="translate(158.451 95.484)"><path d="M325.167,225.365h-.062a.845.845,0,0,1-.779-.9c2.654-36.636,16.725-87.988,18.826-91.72a.841.841,0,1,1,1.464.826c-1.6,2.843-15.877,53.217-18.613,91.016A.841.841,0,0,1,325.167,225.365Z" transform="translate(-324.325 -132.315)"/></g><g transform="translate(209.101 52.467)"><path d="M357.083,110.7a4.185,4.185,0,0,0-2.325.988,5.637,5.637,0,0,0-1.69,2.073l-.021.049a.842.842,0,0,1-1.58-.558,5.4,5.4,0,0,1,2.223-3.043,5.753,5.753,0,0,1,1.72-.8,3.267,3.267,0,0,1,2.06.078.63.63,0,0,1-.235,1.212Z" transform="translate(-351.442 -109.285)"/></g></g></g></g></g></svg>