<svg xmlns="http://www.w3.org/2000/svg" xmlns:xlink="http://www.w3.org/1999/xlink" width="960" height="470" viewBox="0 0 960 470"><defs><clipPath id="b"><rect width="960" height="470"/></clipPath></defs><g id="a" clip-path="url(#b)"><rect width="960" height="470" fill="#fff"/><g transform="translate(96.716 -0.464)"><g transform="translate(43.427 24.699)"><g transform="translate(387.609 2.35)"><path d="M323.117,129.192a51.555,51.555,0,1,1,51.554-51.556A51.614,51.614,0,0,1,323.117,129.192Zm0-94.309A42.754,42.754,0,1,0,365.87,77.636,42.8,42.8,0,0,0,323.117,34.883Z" transform="translate(-271.561 -26.082)" fill="#dedede"/></g><g transform="translate(338.613 16.7)"><circle cx="17.765" cy="17.765" r="17.765" fill="#dedede"/></g><g transform="translate(644.327 166.728)"><circle cx="17.765" cy="17.765" r="17.765" fill="#dedede"/></g><g transform="translate(73.799 240.818)"><circle cx="21.387" cy="21.387" r="21.387" fill="#dedede"/></g><g transform="translate(0 25.961)"><circle cx="21.387" cy="21.387" r="21.387" fill="#dedede"/></g><g transform="translate(427.345 225.918)"><circle cx="31.543" cy="31.543" r="31.543" fill="#dedede"/></g><g transform="translate(575.362 2.923)"><circle cx="31.543" cy="31.543" r="31.543" fill="#dedede"/></g><g transform="translate(234.36 225.918)"><circle cx="35.497" cy="35.497" r="35.497" fill="#dedede"/></g><g transform="translate(100.414 34.465)"><circle cx="35.497" cy="35.497" r="35.497" fill="#dedede"/></g><g transform="translate(148.332 105.46)"><circle cx="47.678" cy="47.678" r="47.678" fill="#dedede"/></g><g transform="translate(539.974 167.657)"><path d="M364.643,159.008a11.654,11.654,0,0,1,8.838-19.87c9.749.5,30.267-5.4,41.125-13.463a11.652,11.652,0,1,1,13.893,18.71c-14.267,10.6-40,18.851-56.2,18.029A11.613,11.613,0,0,1,364.643,159.008Z" transform="translate(-361.238 -123.376)" fill="#dedede"/></g><g transform="translate(505.621 6.814)"><path d="M364.084,101.055a11.652,11.652,0,0,1-17.553-12.836c2.545-9.423,1.118-30.724-4.469-43.042a11.652,11.652,0,0,1,21.223-9.627c7.342,16.185,9.972,43.086,5.744,58.743A11.6,11.6,0,0,1,364.084,101.055Z" transform="translate(-341.019 -28.71)" fill="#dedede"/></g><g transform="translate(235.809 21.682)"><path d="M243.938,71.818A10.628,10.628,0,0,1,225.1,78.033c-5.643-6.886-22.206-17.126-34.31-19.513A10.629,10.629,0,0,1,194.9,37.664c15.9,3.138,37.262,15.454,46.639,26.9A10.589,10.589,0,0,1,243.938,71.818Z" transform="translate(-182.216 -37.46)" fill="#dedede"/></g><g transform="translate(31.843 123.333)"><path d="M116.746,98.2a11.5,11.5,0,0,1-.68,21.445c-9.092,3.176-25.647,16.2-32.567,27.611a11.5,11.5,0,0,1-19.661-11.924c9.093-14.992,29.538-32.117,44.646-37.394A11.441,11.441,0,0,1,116.746,98.2Z" transform="translate(-62.169 -97.289)" fill="#dedede"/></g><g transform="translate(206.174 54.966)"><path d="M164.8,68.476a12.164,12.164,0,0,1,16.093-10.76c26.07,8.962,38.9,23.747,47.164,35.627a12.16,12.16,0,1,1-19.964,13.89c-6.862-9.863-15.864-19.9-35.106-26.515A12.192,12.192,0,0,1,164.8,68.476Zm60.02,32.214a6.7,6.7,0,0,0-1.2-4.26c-7.8-11.205-19.9-25.149-44.484-33.6a6.755,6.755,0,1,0-4.392,12.777c20.71,7.119,30.4,17.925,37.785,28.542a6.756,6.756,0,0,0,12.2-2.666A6.625,6.625,0,0,0,224.818,100.69Z" transform="translate(-164.775 -57.05)" fill="#dedede"/></g><g transform="translate(547.931 91.088)"><path d="M367.416,98.744a12.163,12.163,0,0,1,7.894-17.677c26.84-6.293,45.572-.608,58.892,5.048a12.16,12.16,0,0,1-9.5,22.387c-11.061-4.7-24.024-8.4-43.835-3.755A12.192,12.192,0,0,1,367.416,98.744Zm67.957-4.688a6.7,6.7,0,0,0-3.283-2.967c-12.564-5.335-30.231-10.7-55.547-4.761a6.756,6.756,0,1,0,3.085,13.156c21.321-5,35.277-1.013,47.181,4.042a6.757,6.757,0,0,0,8.9-8.75A6.663,6.663,0,0,0,435.373,94.057Z" transform="translate(-365.921 -78.31)" fill="#dedede"/></g><g transform="translate(57.241 11.15)"><path d="M91.89,103.373A12.162,12.162,0,0,1,77.135,90.841c1.482-27.528,12.191-43.915,21.354-55.117a12.161,12.161,0,0,1,18.825,15.4c-7.608,9.3-14.8,20.706-15.893,41.023A12.19,12.19,0,0,1,91.89,103.373Zm14.551-66.546a6.708,6.708,0,0,0-3.768,2.319C94.029,49.71,83.93,65.167,82.532,91.131a6.756,6.756,0,1,0,13.492.725C97.2,69.99,104.942,57.711,113.131,47.7a6.757,6.757,0,0,0-5.9-11A7.12,7.12,0,0,0,106.441,36.827Z" transform="translate(-77.117 -31.262)" fill="#dedede"/></g><g transform="translate(97.176 162.414)"><path d="M156.606,176.387a12.162,12.162,0,0,1-18.244,6.472c-23.066-15.1-31.867-32.582-36.958-46.131a12.161,12.161,0,0,1,22.767-8.555c4.227,11.248,10.485,23.194,27.509,34.336A12.192,12.192,0,0,1,156.606,176.387ZM106.348,130.4a6.709,6.709,0,0,0,.116,4.423c4.8,12.779,13.1,29.271,34.858,43.509a6.756,6.756,0,1,0,7.4-11.305c-18.324-11.992-25.059-24.848-29.607-36.956a6.757,6.757,0,0,0-12.478-.415A7.073,7.073,0,0,0,106.348,130.4Z" transform="translate(-100.621 -120.29)" fill="#dedede"/></g><g transform="translate(25.884 219.358)"><path d="M76.944,227.933A12.163,12.163,0,0,1,59.926,218.7c-4.212-27.244,2.9-45.483,9.559-58.33a12.161,12.161,0,0,1,21.591,11.2c-5.532,10.667-10.223,23.309-7.114,43.417A12.192,12.192,0,0,1,76.944,227.933Zm.55-68.116a6.711,6.711,0,0,0-3.211,3.045C68,174.979,61.3,192.182,65.268,217.878a6.756,6.756,0,1,0,13.353-2.064c-3.345-21.642,1.7-35.25,7.658-46.73a6.755,6.755,0,0,0-8.04-9.55A6.655,6.655,0,0,0,77.494,159.817Z" transform="translate(-58.662 -153.806)" fill="#dedede"/></g><g transform="translate(614.905 227.698)"><path d="M424.942,159.294a11.108,11.108,0,0,1,2.927-.562,11.062,11.062,0,0,1,11.654,10.434c1.385,25.035-6.676,40.913-13.852,51.946a11.061,11.061,0,1,1-18.545-12.06c5.959-9.161,11.331-20.186,10.31-38.665A11.088,11.088,0,0,1,424.942,159.294Zm-6.57,61.609a6.1,6.1,0,0,0,3.177-2.47c6.769-10.408,14.372-25.382,13.066-49a6.145,6.145,0,1,0-12.271.68c1.1,19.889-4.684,31.755-11.1,41.616a6.144,6.144,0,0,0,6.424,9.362A6.332,6.332,0,0,0,418.371,220.9Z" transform="translate(-405.34 -158.715)" fill="#dedede"/></g><g transform="translate(175.163 224.153)"><path d="M163.224,190.029a16.7,16.7,0,1,1,16.7-16.7A16.721,16.721,0,0,1,163.224,190.029Zm0-28.189a11.487,11.487,0,1,0,11.486,11.487A11.5,11.5,0,0,0,163.224,161.841Z" transform="translate(-146.522 -156.628)" fill="#dedede"/></g><g transform="translate(186.65)"><path d="M169.985,58.1a16.7,16.7,0,1,1,16.7-16.7A16.72,16.72,0,0,1,169.985,58.1Zm0-28.189A11.488,11.488,0,1,0,181.47,41.4,11.5,11.5,0,0,0,169.985,29.912Z" transform="translate(-153.283 -24.699)" fill="#dedede"/></g><g transform="translate(504.304 113.71)"><path d="M358.993,129.119a18.747,18.747,0,1,1,18.746-18.747A18.769,18.769,0,0,1,358.993,129.119Zm0-31.643a12.9,12.9,0,1,0,12.894,12.9A12.911,12.911,0,0,0,358.993,97.476Z" transform="translate(-340.244 -91.625)" fill="#dedede"/></g><g transform="translate(638.574 59.392)"><path d="M438.018,97.149A18.747,18.747,0,1,1,456.764,78.4,18.768,18.768,0,0,1,438.018,97.149Zm0-31.643a12.9,12.9,0,1,0,12.894,12.9A12.912,12.912,0,0,0,438.018,65.506Z" transform="translate(-419.271 -59.655)" fill="#dedede"/></g><g transform="translate(555.202 233.249)"><path d="M393.5,208.573a23.3,23.3,0,1,1,23.3-23.3A23.323,23.323,0,0,1,393.5,208.573Zm0-39.319a16.024,16.024,0,1,0,16.024,16.024A16.044,16.044,0,0,0,393.5,169.254Z" transform="translate(-370.201 -161.982)" fill="#dedede"/></g><g transform="translate(439.164 126.784)"><path d="M334.1,146.506c4.818,3.531,6.946,10.993,13.319,14.722,6.963,4.074,16.522,5.758,22.952-3.517,4.421-6.376,2.3-14.138-.805-18.248-5.423-7.168-14.445-7.853-18.052-11.659-5.366-5.665-8.23-18.715-17.655-25.258-8.458-5.87-23.088-3.6-29.517,5.739-5.51,8-.98,22.7,6.511,28.216S329.1,142.845,334.1,146.506Z" transform="translate(-301.904 -99.32)" fill="#dedede"/></g></g><g transform="translate(135.056 96.282)"><g transform="translate(0)"><g transform="translate(375.872 174.959)"><path d="M360.191,169.806c7.617,2.052,29.7,12.6,28.663,41.781a45.254,45.254,0,0,1-5.313,20.074c-6.6,12.272-17.425,18.243-21.265,18.243H318.583v-8.087l44.319.173c4.435-2.132,9.37-4.968,13.227-10.328,3.165-4.372,5.593-10.437,6.424-19.182,2.2-23.178-17.379-35.653-24.933-37.6l-.516-.328Z" transform="translate(-318.583 -169.806)" fill="#fff"/></g><g transform="translate(345.311 333.103)"><path d="M395.3,262.884c1.206,3.4,2,10.077-1.692,15.279H300.6s1.677-8.635,0-15.279Z" transform="translate(-300.596 -262.884)" fill="#fff"/></g><g transform="translate(345.311 278.706)"><path d="M378.5,230.868l16.8,54.4H300.6l20.859-54.4Z" transform="translate(-300.596 -230.868)" fill="#fff"/></g><g transform="translate(366.17 255.057)"><path d="M382.769,216.949v10.923h-69.9V216.949h69.9Z" transform="translate(-312.873 -216.949)" fill="#fff"/></g><g transform="translate(414.768 141.704)"><path d="M355.22,155.765l-6.174,9.183-7.569-4.89,6.426-9.826S353.512,150.78,355.22,155.765Z" transform="translate(-341.476 -150.233)" fill="#fff"/></g><g transform="translate(406.666 150.244)"><path d="M354.495,162.813l-6.081,9.7-11.707-7.334,6.1-9.92,2.006,1.285,7.569,4.89Z" transform="translate(-336.707 -155.26)" fill="#fff"/></g><g transform="translate(384.099 158.174)"><path d="M356.806,176.712l-3.087,4.749L339.206,203.73c-9.9-2.2-15.781-11.253-15.781-11.253l19.386-32.55,3.181,1.99,11.708,7.335,2.82,1.77Z" transform="translate(-323.425 -159.927)" fill="#fff"/></g><g transform="translate(383.031 190.725)"><path d="M339.645,190.338c-2.161,3.118-9.307,6.456-13.978,1.738-4.436-4.482-2.618-11.6-1.8-12.991C323.864,179.085,329.741,188.143,339.645,190.338Z" transform="translate(-322.796 -179.085)" fill="#fff"/></g><g transform="translate(346.502 133.82)"><path d="M333.988,175.432c0,.581-.031,1.16-.078,1.725h-.015c-.8-1.755-2.916-3.542-7.241-2.43-3.213.831-11.017,5.768-16.894,5.595a9.087,9.087,0,0,1-8.463-6.268,16.177,16.177,0,0,1,4.576-10.014A16.727,16.727,0,0,1,312.22,160V146.721a2.529,2.529,0,0,0,2.649-1.128,6.137,6.137,0,0,0,.172,4.545c1.38,2.272,2.853.846,3.182-.376a13.441,13.441,0,0,0,.375-3.009c0,1.378.642,1.927,1.9,2.506a2.076,2.076,0,0,0-1.959,1.05c-.438.831.282,2.2,1.3,3.1a7.622,7.622,0,0,0,1.707,1.065,2.886,2.886,0,0,0-2.868,1.395c-.408,1.035.8,2.178,1.991,2.695a6.6,6.6,0,0,0,2.35.486V160A16.373,16.373,0,0,1,333.988,175.432Z" transform="translate(-301.297 -145.593)" fill="#fff"/></g><g transform="translate(346.439 162.281)"><path d="M333.921,165.446h.015a16.384,16.384,0,0,1-32.676-1.725,13.353,13.353,0,0,1,.063-1.378,9.087,9.087,0,0,0,8.463,6.268c5.877.173,13.681-4.764,16.894-5.595C331.005,161.9,333.12,163.691,333.921,165.446Z" transform="translate(-301.26 -162.344)" fill="#fff"/></g><g transform="translate(363.737 130.042)"><path d="M320.174,145.69c.533.987.048,3.087-1.206,3.306-.627-1.081-2.742-2.1-4.059-2.35a4.16,4.16,0,0,0-2.289.267l-.015-.282c-.377-.314-1.223-.831-1.16-1.725.063-.878,1.206-1.567,3.714-1.536a5.937,5.937,0,0,1,.768.048A5.18,5.18,0,0,1,320.174,145.69Z" transform="translate(-311.441 -143.369)" fill="#fff"/></g><g transform="translate(363.61 137.487)"><path d="M318.988,149.851a2.5,2.5,0,0,1-1.191,3.872,1.836,1.836,0,0,1-.3.063,6.743,6.743,0,0,1-2.994-.816,7.621,7.621,0,0,1-1.708-1.065c-1.019-.909-1.74-2.273-1.3-3.1a2.076,2.076,0,0,1,1.959-1.05c.251,0,.534.017.846.048a7.446,7.446,0,0,1,3.935,1.332A4.667,4.667,0,0,1,318.988,149.851Z" transform="translate(-311.366 -147.751)" fill="#fff"/></g><g transform="translate(363.804 133.262)"><path d="M318.94,147.671c.579,1-.032,2.948-.783,3.2a7.446,7.446,0,0,0-3.935-1.332c-.313-.031-.595-.048-.846-.048-1.254-.579-1.9-1.128-1.9-2.506a1.576,1.576,0,0,1,1.113-1.395,4.16,4.16,0,0,1,2.289-.267C316.2,145.571,318.314,146.591,318.94,147.671Z" transform="translate(-311.48 -145.264)" fill="#fff"/></g><g transform="translate(363.801 142.681)"><path d="M317.718,151.586c.894.831.957,2.851-.141,3.525a3.154,3.154,0,0,1-1.677.3,6.6,6.6,0,0,1-2.35-.486c-1.191-.516-2.4-1.66-1.991-2.695a2.886,2.886,0,0,1,2.868-1.395,6.743,6.743,0,0,0,2.994.816A1.837,1.837,0,0,0,317.718,151.586Z" transform="translate(-311.478 -150.808)" fill="#fff"/></g><g transform="translate(354.464 123.618)"><path d="M321,139.588a1.693,1.693,0,0,1,0,3.386h-1.254v3.087a5.935,5.935,0,0,0-.768-.048c-2.508-.031-3.651.658-3.714,1.536-.063.894.783,1.41,1.16,1.725l.015.282a1.576,1.576,0,0,0-1.113,1.395c.015-1.646-.282-3.371-1.3-3.966a8.518,8.518,0,0,0-5.078-.6v-3.415h-1.269a1.693,1.693,0,0,1,0-3.386Z" transform="translate(-305.983 -139.588)" fill="#fff"/></g><g transform="translate(349.245 130.284)"><path d="M311.092,148.176v13.275a16.727,16.727,0,0,0-6.348,4.044c-.768-.768-1.378-1.49-1.833-2.039,2.759-2.695,2.6-6.786,2.538-8.791-.093-3.95,1.067-7.9,2.837-9.747a4.914,4.914,0,0,1,2.805-1.271,8.518,8.518,0,0,1,5.078.6c1.018.595,1.315,2.319,1.3,3.966a13.441,13.441,0,0,1-.375,3.009c-.33,1.222-1.8,2.647-3.182.376a6.137,6.137,0,0,1-.172-4.545A2.529,2.529,0,0,1,311.092,148.176Z" transform="translate(-302.911 -143.512)" fill="#fff"/></g><g transform="translate(253.6 101.207)"><path d="M276.66,194.366h-.015c1.347,4.31,4.248,27.615,4.749,42.393a123,123,0,0,0-23.382,5.422h-.017c1.271-7.053,7.962-52.3,7.617-54.318-.328-2-13.258-15.436-13.258-15.436.5-.345,8.73-10.923,9.058-13.635.345-2.712-14.119-30.216-14.794-32.394,6.066,3.51,15.859,7.3,23.664,10.923a51.864,51.864,0,0,1,9.921,5.564c11.6,9.4,19.558,44.005,28.741,48.6,12.333,6.174,30.968-13.98,32.238-17.379,0,0,.376.5,1.081,1.315.455.549,1.065,1.271,1.833,2.039a16.177,16.177,0,0,0-4.576,10.014,13.37,13.37,0,0,0-.063,1.378,16.3,16.3,0,0,0,6.771,13.259c-12.96,10.75-32.064,20.718-44.336,18.1-13.225-2.836-17.974-10.39-23.866-22.849C277.554,196.373,277.1,195.369,276.66,194.366Z" transform="translate(-246.618 -126.398)" fill="#fff"/></g><g transform="translate(154.477 270.859)"><path d="M382.715,232.341v10.311s-1.786-.579-4.873-1.364c-8.385-2.115-26.344-5.751-43.473-3.165-23.43,3.527-37.284,7.3-43.584,18.132H279.2s-22.1-11.91-45.84-13.086c-17.082-.846-27.63.675-34.086,2.885v.015a23.693,23.693,0,0,0-5.955,2.883l-5.046-11.832a.015.015,0,0,0,.015-.015c4.842-3.308,44.085-27.159,94.422,8.572,0,0,.093-.078.267-.219C286.57,242.683,324.949,214.35,382.715,232.341Z" transform="translate(-188.277 -226.25)" fill="#fff"/></g><g transform="translate(256.985 281.839)"><path d="M335.667,236.771l4.873,14.967H248.61c6.3-10.828,20.154-14.6,43.584-18.132C309.323,231.02,327.282,234.656,335.667,236.771Z" transform="translate(-248.61 -232.712)" fill="#555"/></g><g transform="translate(248.915 210.67)"><path d="M320.964,216.969c8.4,12.96,17.726,28.335,22.9,40.136-57.766-17.991-96.145,10.342-99.734,13.117l-.267-.454.894-66.324a92.3,92.3,0,0,1,11.22-4.905c1.239-.471,2.555-.94,3.949-1.395h.017a123,123,0,0,1,23.382-5.422h.015a105.354,105.354,0,0,1,19.981-.705S311.562,202.472,320.964,216.969Z" transform="translate(-243.86 -190.824)" fill="#fff"/></g><g transform="translate(180.003)"><path d="M297.725,84.352c15.171,1.5,18.446,18.508,16.3,27.708-2.4,10.311-10.954,12.772-14.763,13.492a119.412,119.412,0,0,0,1.3-13.492c-.126-2.4-2.727-7.3-4.122-9.7a11.634,11.634,0,0,1-1.551-6.3c-.564,5.36-5.454,11.457-11.582,16-6.723,4.966-17.473,5.532-23.178,5.029s-11.047,2.508-12.145,3.684l-.063.078c-1.833-1.521-4.764-2.775-7.773-.486-4.2,3.2-3.182,13.932,7.9,16.8,0,0,.753,18.462,1.5,24.888v.015a33.179,33.179,0,0,1-3.087,2.445c-3.432,2.491-8.854,6.159-12.349,8.164-1.254.722-3.84,1.85-6.834,3.371l-.141-.267c-23.053-3.9-25.749-19.559-22.927-31.986,3.118-13.682,13.854-20.484,18.9-26.454,3.729-4.419,4.905-10.578,8.806-23.538,3.9-12.977,14.607-26.328,35.012-26.955S297.725,84.352,297.725,84.352Z" transform="translate(-203.301 -66.831)"/></g><g transform="translate(249.608 78.812)"><path d="M271.925,138.825a17.558,17.558,0,0,1,0,7.71c-7.805-3.621-17.6-7.413-23.664-10.923a23.152,23.152,0,0,1-3.792-2.586,11.115,11.115,0,0,1,.345-5.61,24.9,24.9,0,0,0,13.633-6.613,31.7,31.7,0,0,0,5.784-7.586,34.228,34.228,0,0,0,.894,13.008C266.126,129.75,271.282,135.3,271.925,138.825Z" transform="translate(-244.268 -113.217)"/></g><g transform="translate(214.565 29.227)"><path d="M233.7,108.825l.063-.078c1.1-1.176,6.441-4.185,12.145-3.684s16.455-.063,23.178-5.029c6.128-4.545,11.018-10.641,11.582-16a11.634,11.634,0,0,0,1.551,6.3c1.395,2.4,4,7.3,4.122,9.7a119.418,119.418,0,0,1-1.3,13.492c-1.018,6.489-2.9,13.839-6.394,20.091a31.7,31.7,0,0,1-5.784,7.586,24.9,24.9,0,0,1-13.633,6.613,11.116,11.116,0,0,0-.345,5.61c-15.327,3.182-23.132-3.055-23.54-3.4h-.015c-.751-6.426-1.5-24.888-1.5-24.888-11.081-2.868-12.1-13.6-7.9-16.8C228.937,106.051,231.868,107.3,233.7,108.825Z" transform="translate(-223.643 -84.033)" fill="#fff"/></g><g transform="translate(256.03 147.236)"><path d="M251.981,196.084c-.3-4.2-.642-8.572-1.035-13.023-.375-4.309-.8-8.682-1.222-13.071-.44-4.387-.894-8.776-1.349-13.086-.109-1.033-.219-2.037-.328-3.055l3.306-.36s12.93,13.431,13.258,15.436c.345,2.022-6.346,47.266-7.617,54.318-1.393.455-2.71.924-3.949,1.395.031-.878.031-1.8.048-2.775.015-3.76-.1-8.164-.33-13.006C252.576,204.861,252.309,200.566,251.981,196.084Z" transform="translate(-248.048 -153.489)" fill="#fff"/></g><g transform="translate(249.808 98.621)"><path d="M248.178,127.462c.675,2.178,15.138,29.682,14.794,32.394-.328,2.712-8.556,13.29-9.058,13.635l-3.306.36q-.566-5.148-1.13-10.046h-.015c-.516-4.638-1.05-9.058-1.551-13.132-.627-5.157-1.222-9.78-1.74-13.65-.894-6.771-1.567-11.253-1.786-12.146A23.152,23.152,0,0,0,248.178,127.462Z" transform="translate(-244.386 -124.876)" fill="#fff"/></g><g transform="translate(225.077 195.395)"><path d="M265.5,189.043c.234,4.842.345,9.246.33,13.006-3.339-.814-34.761-7.161-34.761-7.161q-.706-6.652-1.239-13.054h.017S262.161,188.212,265.5,189.043Z" transform="translate(-229.83 -181.834)" fill="#fff"/></g><g transform="translate(226.316 208.449)"><path d="M265.32,196.678c-.017.972-.017,1.9-.048,2.775a92.3,92.3,0,0,0-11.221,4.905,74.32,74.32,0,0,0-23.07-10.767l.015-.063c-.156-1.347-.3-2.679-.438-4.011C230.559,189.517,261.981,195.865,265.32,196.678Z" transform="translate(-230.559 -189.517)" fill="#818181"/></g><g transform="translate(224.168 182.387)"><path d="M265.09,181.622c.328,4.482.595,8.777.783,12.773-3.339-.831-35.653-7.209-35.653-7.209H230.2q-.54-6.654-.909-13.008S261.658,180.791,265.09,181.622Z" transform="translate(-229.295 -174.178)" fill="#818181"/></g><g transform="translate(223.558 169.458)"><path d="M264.307,173.918c.392,4.451.737,8.823,1.035,13.023-3.432-.831-35.8-7.443-35.8-7.443-.265-4.419-.469-8.745-.61-12.93C229.782,166.741,261.016,173.12,264.307,173.918Z" transform="translate(-228.936 -166.568)" fill="#fff"/></g><g transform="translate(223.228 156.905)"><path d="M263.221,166.012c.423,4.389.846,8.762,1.222,13.071-3.291-.8-34.525-7.177-35.371-7.35h-.015c-.158-4.326-.251-8.509-.314-12.552C228.742,159.18,259.882,165.2,263.221,166.012Z" transform="translate(-228.742 -159.18)" fill="#818181"/></g><g transform="translate(223.165 143.756)"><path d="M261.9,158.336c.455,4.31.909,8.7,1.349,13.086-3.339-.814-34.479-6.832-34.479-6.832-.078-4.577-.078-8.964-.031-13.149C229.911,151.692,258.623,157.537,261.9,158.336Z" transform="translate(-228.705 -151.441)" fill="#fff"/></g><g transform="translate(223.198 131.015)"><path d="M261.556,160.523c.109,1.018.219,2.022.328,3.055-3.274-.8-31.986-6.643-33.16-6.895.031-4.513.124-8.76.25-12.741,0,0,28.038,5.688,31.437,6.535h.015Q260.992,155.367,261.556,160.523Z" transform="translate(-228.724 -143.942)" fill="#818181"/></g><g transform="translate(223.448 118.322)"><path d="M258.757,142.567c.5,4.074,1.035,8.493,1.551,13.132-3.4-.846-31.437-6.535-31.437-6.535.156-4.623.345-8.871.579-12.694C229.45,136.471,255.419,141.752,258.757,142.567Z" transform="translate(-228.871 -136.471)" fill="#fff"/></g><g transform="translate(224.027 105.219)"><path d="M256.779,134.308c.518,3.87,1.113,8.494,1.74,13.65-3.339-.816-29.307-6.1-29.307-6.1.3-5.157.659-9.545.989-13.1C230.2,128.759,250.151,132.709,256.779,134.308Z" transform="translate(-229.212 -128.759)" fill="#818181"/></g><g transform="translate(225.016 95.222)"><path d="M254.586,126.275c.219.894.892,5.376,1.786,12.146-6.628-1.6-26.578-5.549-26.578-5.549.517-5.469,1-8.917,1.237-9.982l.015-.015C231.454,123.22,239.259,129.457,254.586,126.275Z" transform="translate(-229.794 -122.875)" fill="#fff"/></g><g transform="translate(154.492 210.095)"><path d="M283.6,203.681,282.708,270l.267.454c-.173.141-.267.219-.267.219-50.337-35.731-89.58-11.88-94.422-8.572.267-.737,8.9-24.636,17.238-44.9,2.618-6.378,5.219-12.4,7.523-17.223a162.5,162.5,0,0,0,18.759,17.772s1.018-.987,2.836-2.4c1.128,1.614,2.618,4.044,4.091,6.613a93.58,93.58,0,0,1,5.2,10.172c.078.2.156.406.251.627,1.1,2.883,2.805,7.083,3.777,8.947a2.6,2.6,0,0,0,4.059.11,14.4,14.4,0,0,1,.265,1.787,4.113,4.113,0,0,0,.785,2.428,2.875,2.875,0,0,0,2.788.972.68.68,0,0,0,.362-.156c.547-.36.846-1.38.877-2.883.236.673,1.3,3.118,2.961,2.586,1.427-.455,1.427-1.74,1.505-3.512a15.811,15.811,0,0,0-.314-2.554,1.915,1.915,0,0,0,2.948-.408,6.58,6.58,0,0,0,.595-3.15,41.5,41.5,0,0,0-1.332-8.227,24.85,24.85,0,0,0-.768-2.508,68.138,68.138,0,0,0-3.1-7.287c1.143,1.332,3.181,5,4.528,6.769,1,1.3,2.7,1.662,3.809-.282,1.018-1.818-.987-6.346-2.649-9.433-.957-1.8-6.237-8.9-6.864-9.78.705-.015,1.426-.015,2.148.015,0,0-.987-1.332-2.555-3.432-2.319-3.072-5.908-7.788-9.513-12.286,2.618.345,5.313.814,8.072,1.441h.015q1.95.446,3.949.987A74.321,74.321,0,0,1,283.6,203.681Z" transform="translate(-188.286 -190.486)" fill="#fff"/></g><g transform="translate(161.529 287.542)"><path d="M276.3,249.392H192.428l3.949-10.186v-.015c6.456-2.21,17-3.731,34.086-2.885C254.205,237.481,276.3,249.392,276.3,249.392Z" transform="translate(-192.428 -236.068)" fill="#555"/></g><g transform="translate(200.849 225.798)"><path d="M242.18,234.033a15.808,15.808,0,0,1,.314,2.554c-.078,1.772-.078,3.057-1.505,3.512-1.66.532-2.725-1.913-2.961-2.586-.031,1.5-.33,2.523-.877,2.883a.68.68,0,0,1-.362.156,2.875,2.875,0,0,1-2.788-.972,4.113,4.113,0,0,1-.785-2.428,14.4,14.4,0,0,0-.265-1.787,2.6,2.6,0,0,1-4.059-.11c-.972-1.864-2.681-6.064-3.777-8.947-.1-.221-.173-.423-.251-.627a93.582,93.582,0,0,0-5.2-10.172c-1.473-2.569-2.963-5-4.091-6.613,4.3-3.306,13.086-8.886,23.775-9.168.627.877,5.908,7.977,6.864,9.78,1.662,3.087,3.667,7.615,2.649,9.433-1.113,1.944-2.805,1.584-3.809.282-1.347-1.77-3.385-5.437-4.528-6.769a68.129,68.129,0,0,1,3.1,7.287,24.86,24.86,0,0,1,.768,2.508,41.5,41.5,0,0,1,1.332,8.227,6.58,6.58,0,0,1-.595,3.15A1.915,1.915,0,0,1,242.18,234.033Z" transform="translate(-215.57 -199.728)" fill="#fff"/></g><g transform="translate(164.67 97.682)"><path d="M244.309,236.737c3.605,4.5,7.194,9.214,9.513,12.286,1.568,2.1,2.555,3.432,2.555,3.432-.722-.031-1.442-.031-2.148-.015-10.689.282-19.479,5.862-23.775,9.168-1.818,1.41-2.836,2.4-2.836,2.4a162.5,162.5,0,0,1-18.759-17.772c-7.178-8.242-13.541-18.258-14.45-28.789-1.755-20.655,14.105-58.69,25.781-72.2,3.384-3.935,8.869-7.1,13.4-9.387,2.994-1.521,5.58-2.649,6.834-3.371,3.495-2,8.917-5.673,12.349-8.164-1.521,3.384-13.681,33.678-13.54,36.954.126,2.4,7.569,8.181,8.572,9.2,0,0-8.572,15.358-8.917,18.885-.3,2.883,11.737,43.4,13.494,48.817C249.622,237.55,246.927,237.081,244.309,236.737Z" transform="translate(-194.276 -124.323)" fill="#fff"/></g><g transform="translate(209.276 95.237)"><path d="M234.452,171.4c-.048,4.185-.048,8.572.031,13.149.063,4.044.156,8.227.314,12.552h.015c.141,4.185.345,8.511.61,12.93q.377,6.346.909,13.008.543,6.394,1.239,13.054c.141,1.332.282,2.664.438,4.011l-.015.063q-2-.54-3.949-.987h-.015c-1.757-5.422-13.791-45.934-13.494-48.817.345-3.527,8.917-18.885,8.917-18.885-1-1.018-8.446-6.8-8.572-9.2-.141-3.276,12.019-33.57,13.54-36.954a33.178,33.178,0,0,0,3.087-2.445c-.234,1.065-.72,4.513-1.237,9.982-.33,3.558-.69,7.946-.989,13.1-.234,3.823-.423,8.07-.579,12.694C234.576,162.643,234.483,166.891,234.452,171.4Z" transform="translate(-220.53 -122.884)" fill="#fff"/></g><g transform="translate(93.937 287.356)"><path d="M208.562,241.884h.015c0,4.953-12.522,8.979-27.958,8.979-15.453,0-27.959-4.027-27.959-8.979h-.015v-5.925a4.144,4.144,0,0,0,1.568,2.978h.015c3.823,3.495,14.2,6,26.376,6,12.208,0,22.6-2.523,26.407-6.018a4.151,4.151,0,0,0,1.551-2.963Z" transform="translate(-152.645 -235.959)" fill="#fff"/></g><g transform="translate(93.937 278.376)"><path d="M208.562,239.653a4.151,4.151,0,0,1-1.551,2.963c-3.809-3.527-14.2-6.035-26.391-6.035-12.209,0-22.584,2.508-26.391,6.035v.015h-.015a4.144,4.144,0,0,1-1.568-2.978c0-4.968,12.522-8.979,27.959-8.979S208.562,234.685,208.562,239.653Z" transform="translate(-152.645 -230.674)" fill="#fff"/></g><g transform="translate(95.52 284.284)"><path d="M206.359,240.186c-3.809,3.495-14.2,6.018-26.406,6.018-12.177,0-22.553-2.508-26.376-6v-.015c3.808-3.527,14.182-6.035,26.391-6.035C192.161,234.151,202.55,236.659,206.359,240.186Zm-18.885.345c.313-1.067-3.087-2.321-5.109-2.634-2.007-.314-6.738-.674-7.617.831-.768,1.317,3.135,2.632,6.63,3.024C184.7,242.128,187.16,241.612,187.475,240.531Z" transform="translate(-153.577 -234.151)" fill="#fff"/></g><g transform="translate(116.594 287.751)"><path d="M173.7,236.471c2.022.313,5.422,1.567,5.109,2.634s-2.775,1.6-6.1,1.222c-3.495-.392-7.4-1.708-6.63-3.024C166.957,235.8,171.688,236.156,173.7,236.471Z" transform="translate(-165.98 -236.192)" fill="#fff"/></g><g transform="translate(49.779 324.373)"><path d="M168.886,257.746v9.747l-41.813,20.139c-.94-2.256-.093-8.29.6-10.062l39.79-19.824Z" transform="translate(-126.656 -257.746)" fill="#fff"/></g><g transform="translate(0.596 272.406)"><path d="M189.121,278.3v.831h-1.426L147.9,298.952l-50.2-56.841L140.1,227.16Z" transform="translate(-97.708 -227.16)" fill="#fff"/></g><g transform="translate(33.833 229.273)"><path d="M165.964,224.674c4.7,12.928-8.4,16.126-10.75,16.126H131.032c-7.554,0-13.932-4.2-13.759-14.277.061-3.762,2.788-10.281,6.283-17.208.909-1.833,1.881-3.682,2.868-5.532,3.276-1.9,5.721-2.209,7.9-1.911,4.232.595,13.839,7.444,18.288,7.444,4.139,0,4.953-1.347,6.05-3.369.454,1.128.894,2.256,1.347,3.369C162.313,215.1,164.491,220.678,165.964,224.674Z" transform="translate(-117.27 -201.774)" fill="#fff"/></g><g transform="translate(42.987 182.496)"><path d="M146.37,204.427c1.725,4.137,5.14,12.4,8.526,20.764-1.1,2.022-1.911,3.369-6.05,3.369-4.45,0-14.056-6.849-18.288-7.444-2.178-.3-4.623.015-7.9,1.911,3.746-6.91,7.71-13.6,10.077-17.692a14.958,14.958,0,0,0,1.991-7.445V178.27h-.705a2.014,2.014,0,1,1,0-4.028h11.91a2.014,2.014,0,1,1,0,4.028h-.69v20.436A14.887,14.887,0,0,0,146.37,204.427Z" transform="translate(-122.658 -174.242)" fill="#fff"/></g><g transform="translate(0 287.356)"><path d="M97.953,235.959l50.2,56.841c-.69,1.772-1.536,7.805-.6,10.062L98.016,247.008a23.739,23.739,0,0,1-.659-5.265A33.423,33.423,0,0,1,97.953,235.959Z" transform="translate(-97.357 -235.959)" fill="#fff"/></g></g></g><g transform="translate(134.268 95.496)"><g transform="translate(437.693 233.683)"><path d="M401.929,208.906H358.423c-2.163,0-3.918-1.119-3.918-2.5s1.755-2.5,3.918-2.5h43.506c2.163,0,3.918,1.119,3.918,2.5S404.091,208.906,401.929,208.906Z" transform="translate(-354.505 -203.906)"/></g><g transform="translate(10.39 233.683)"><path d="M133.519,208.906H106.926c-2.165,0-3.918-1.119-3.918-2.5s1.753-2.5,3.918-2.5h26.593c2.165,0,3.918,1.119,3.918,2.5S135.684,208.906,133.519,208.906Z" transform="translate(-103.008 -203.906)"/></g><g transform="translate(73.436 233.683)"><path d="M239.191,208.906H144.033c-2.163,0-3.918-1.119-3.918-2.5s1.755-2.5,3.918-2.5h95.158c2.165,0,3.918,1.119,3.918,2.5S241.356,208.906,239.191,208.906Z" transform="translate(-140.115 -203.906)"/></g><g transform="translate(322.884 233.683)"><path d="M398.248,208.906h-107.4c-2.163,0-3.916-1.119-3.916-2.5s1.753-2.5,3.916-2.5h107.4c2.165,0,3.918,1.119,3.918,2.5S400.413,208.906,398.248,208.906Z" transform="translate(-286.932 -203.906)"/></g><g transform="translate(0)"><g transform="translate(434.2 237.601)"><path d="M352.449,206.212" transform="translate(-352.449 -206.212)" fill="none" stroke="#000" stroke-linecap="round" stroke-linejoin="round" stroke-width="5"/></g><g transform="translate(271.597 29.234)"><path d="M263.2,101.135a.784.784,0,0,1-.783-.742c-.1-1.966-2.224-6.263-4.01-9.346a12.3,12.3,0,0,1-1.658-6.689.783.783,0,1,1,1.566,0,10.877,10.877,0,0,0,1.448,5.9c.953,1.645,4.069,7.228,4.219,10.048a.783.783,0,0,1-.741.824Z" transform="translate(-256.746 -83.574)"/></g><g transform="translate(234.823 45.228)"><path d="M246.951,142.666a28.382,28.382,0,0,1-11.414-2.229.783.783,0,1,1,.7-1.4c.153.078,15.917,6.861,28.075-4.654,11.852-11.22,12.891-33.371,13.232-40.648a.8.8,0,0,1,.819-.746.784.784,0,0,1,.746.819c-.348,7.435-1.41,30.058-13.72,41.713A26.218,26.218,0,0,1,246.951,142.666Z" transform="translate(-235.102 -92.988)"/></g><g transform="translate(180.006)"><path d="M227.46,176.884a.866.866,0,0,1-.131-.01c-9.73-1.648-16.685-5.5-20.669-11.453-4.79-7.155-4.212-15.629-2.885-21.479,2.4-10.551,9.141-17.013,14.562-22.2,1.689-1.617,3.283-3.145,4.494-4.577,2.89-3.42,4.214-8,6.618-16.306.6-2.078,1.271-4.387,2.046-6.964,5.024-16.688,18.382-26.971,35.736-27.507,19.065-.6,29.675,15.006,31.281,17.551a17.69,17.69,0,0,1,12.644,7.4c4.616,6.446,5.287,15.519,3.96,21.221-2.377,10.208-10.658,13.2-15.383,14.083a.784.784,0,0,1-.287-1.541c5.311-.987,12.077-4.027,14.143-12.9,1.25-5.369.625-13.9-3.707-19.954a15.992,15.992,0,0,0-11.915-6.794.787.787,0,0,1-.6-.389c-.1-.178-10.439-17.721-30.085-17.113-24,.741-31.969,18.7-34.283,26.393-.775,2.572-1.442,4.875-2.042,6.949-2.464,8.516-3.821,13.2-6.925,16.88a65.748,65.748,0,0,1-4.608,4.7c-5.269,5.044-11.825,11.324-14.117,21.416-1.261,5.549-1.821,13.569,2.659,20.261,3.734,5.58,10.339,9.205,19.627,10.779a.784.784,0,0,1-.131,1.556Z" transform="translate(-202.838 -66.368)"/></g><g transform="translate(214.57 52.281)"><path d="M234.146,116.754a.782.782,0,0,1-.2-.024c-5.634-1.451-9.579-5.2-10.553-10.033-.671-3.335.263-6.531,2.382-8.142a6.261,6.261,0,0,1,4.9-1.341,9.286,9.286,0,0,1,5.622,3.7.783.783,0,0,1-1.283.9,7.747,7.747,0,0,0-4.582-3.05,4.754,4.754,0,0,0-3.7,1.042c-1.621,1.23-2.341,3.876-1.794,6.582.851,4.229,4.368,7.528,9.406,8.827a.783.783,0,0,1-.194,1.541Z" transform="translate(-223.182 -97.139)"/></g><g transform="translate(224.694 29.232)"><path d="M229.925,109.847a.783.783,0,0,1-.574-1.317c1.234-1.327,6.856-4.443,12.787-3.921,5.32.467,16.075-.032,22.636-4.886,6.451-4.771,10.77-10.69,11.275-15.446a.783.783,0,0,1,1.558.165c-.549,5.179-5.107,11.516-11.9,16.54-6.489,4.8-16.822,5.8-23.707,5.189-5.315-.46-10.451,2.3-11.5,3.427A.773.773,0,0,1,229.925,109.847Z" transform="translate(-229.14 -83.573)"/></g><g transform="translate(251.684 62.879)"><path d="M255.207,104.38a16.587,16.587,0,0,0-2.8,4.662,12.874,12.874,0,0,0-1,5.3,6.892,6.892,0,0,0,.523,2.515,4.024,4.024,0,0,0,.285.528,2.157,2.157,0,0,1,.408,1,2.381,2.381,0,0,1-.829,1.9,5.839,5.839,0,0,1-6.281.695l-.02-.008a.784.784,0,0,1,.632-1.434l.01.005a4.387,4.387,0,0,0,4.565-.4c.258-.229.394-.535.36-.615.109.107-.364-.567-.552-1.04a8.408,8.408,0,0,1-.627-3.092,14.952,14.952,0,0,1,4.569-10.87.57.57,0,0,1,.805.8Z" transform="translate(-245.026 -103.376)"/></g><g transform="translate(242.152 60.495)"><g transform="translate(0 0)"><ellipse cx="3.865" cy="1.803" rx="3.865" ry="1.803" transform="translate(0 7.19) rotate(-68.469)"/></g></g><g transform="translate(264.4 62.141)"><g transform="translate(0 0)"><ellipse cx="3.865" cy="1.803" rx="3.865" ry="1.803" transform="translate(0 7.19) rotate(-68.469)"/></g></g><g transform="translate(240.9 54.137)"><path d="M238.912,99.874a10.292,10.292,0,0,1,2.982-1.259,10.7,10.7,0,0,1,3.245-.37,4.773,4.773,0,0,1,3.289,1.332,4.141,4.141,0,0,1,.982,3.5.784.784,0,0,1-1.556-.182l0-.015a2.907,2.907,0,0,0-.6-2.209,3.7,3.7,0,0,0-2.239-.96,9.429,9.429,0,0,0-2.834.15,11.014,11.014,0,0,0-2.734.873l-.025.014a.507.507,0,0,1-.508-.877Z" transform="translate(-238.679 -98.232)"/></g><g transform="translate(264.726 56.779)"><g transform="translate(0)"><path d="M252.8,102.3a4.723,4.723,0,0,1,2.431-2.132,4.6,4.6,0,0,1,3.17-.182,4.311,4.311,0,0,1,2.459,1.969,5.246,5.246,0,0,1,.676,2.921.507.507,0,0,1-1.009.036l0-.017a4.9,4.9,0,0,0-.768-2.243,3.1,3.1,0,0,0-1.772-1.227,3.039,3.039,0,0,0-2.131.182,3.941,3.941,0,0,0-1.623,1.33l-.063.116a.781.781,0,0,1-1.369-.753Z" transform="translate(-252.702 -99.786)"/></g></g><g transform="translate(245.654 87.036)"><path d="M245.528,119.918a.8.8,0,0,1-.178-.019l-3.266-.756a.784.784,0,0,1,.353-1.527l3.266.756a.783.783,0,0,1-.175,1.546Z" transform="translate(-241.477 -117.595)"/></g><g transform="translate(224.748 70.327)"><path d="M246.582,138.534c-10.213,0-15.358-4.273-15.623-4.5a.781.781,0,0,1-.268-.5c-.751-6.378-1.509-24.767-1.517-24.952a.784.784,0,0,1,1.567-.065c.007.182.737,17.906,1.47,24.507,1.388,1.014,8.974,5.9,22.648,3.051a.784.784,0,0,1,.319,1.536A42.232,42.232,0,0,1,246.582,138.534Z" transform="translate(-229.173 -107.76)"/></g><g transform="translate(219.745 59.311)"><path d="M226.6,101.539a4.346,4.346,0,0,1,3.994.569,3.991,3.991,0,0,1,1.371,1.624,4.512,4.512,0,0,1,.415,2.051.783.783,0,0,1-1.563.034l0-.049a4.106,4.106,0,0,0-.289-1.368,3,3,0,0,0-.833-1.072,3.336,3.336,0,0,0-2.669-.7l-.088.019a.58.58,0,0,1-.335-1.108Z" transform="translate(-226.227 -101.276)"/></g><g transform="translate(249.615 93.01)"><path d="M244.787,128.291a.782.782,0,0,1-.77-.644,11.947,11.947,0,0,1,.391-6.042.784.784,0,0,1,1.458.578,10.433,10.433,0,0,0-.308,5.184.782.782,0,0,1-.63.911A.673.673,0,0,1,244.787,128.291Z" transform="translate(-243.808 -121.111)"/></g><g transform="translate(164.664 95.224)"><path d="M227.939,266.124a.783.783,0,0,1-.5-.184l-.715-.6a158.939,158.939,0,0,1-18.13-17.257C199.666,237.833,194.74,228,193.95,218.847c-1.825-21.478,14.408-59.4,25.968-72.78,4.523-5.253,12.607-9.12,17.439-11.431,1.308-.627,2.341-1.121,3-1.5,3.429-1.966,8.772-5.573,12.277-8.118a27.506,27.506,0,0,0,2.987-2.355.783.783,0,1,1,1.154,1.06,30.161,30.161,0,0,1-3.215,2.56c-3.544,2.572-8.947,6.218-12.425,8.213-.707.4-1.762.907-3.1,1.548-4.718,2.258-12.619,6.037-16.928,11.042-11.127,12.874-27.355,50.878-25.593,71.623.761,8.81,5.558,18.345,14.26,28.34a157.309,157.309,0,0,0,17.955,17.084l.189.158c.483-.432,1.288-1.126,2.379-1.973,4.367-3.364,13.319-9.046,24.235-9.333.2-.005.392-.007.591-.008-.42-.566-.965-1.3-1.607-2.156-3.65-4.835-6.757-8.849-9.494-12.265-2.1-2.627-3.87-4.764-5.418-6.541-.734-.846-1.5-1.711-2.282-2.594-6.385-7.212-13.621-15.387-13.157-23.916.523-9.35,9.905-29.334,13.727-35.267a.783.783,0,0,1,1.317.848c-3.648,5.665-12.979,25.564-13.48,34.506-.426,7.885,6.582,15.8,12.768,22.789.785.889,1.555,1.759,2.29,2.606,1.561,1.791,3.347,3.949,5.459,6.589,2.746,3.429,5.862,7.454,9.525,12.3,1.572,2.105,2.559,3.439,2.559,3.439a.779.779,0,0,1,.063.833.735.735,0,0,1-.727.416c-.7-.031-1.405-.032-2.093-.015-10.47.277-19.1,5.761-23.314,9.007-1.753,1.359-2.761,2.329-2.771,2.34A.781.781,0,0,1,227.939,266.124Z" transform="translate(-193.809 -122.414)"/></g><g transform="translate(249.81 98.624)"><path d="M315.959,194.825a12.089,12.089,0,0,1-5.488-1.254c-4.795-2.4-9.115-12.2-13.691-22.568-4.66-10.565-9.479-21.49-15.183-26.119-3.48-2.824-10.984-6.079-18.243-9.228-7.671-3.328-15.606-6.771-19.162-9.868a.783.783,0,1,1,1.028-1.181c3.374,2.938,11.2,6.331,18.759,9.611,7.692,3.337,14.958,6.49,18.606,9.448,6,4.868,10.893,15.968,15.628,26.7,4.458,10.106,8.669,19.651,12.957,21.8,3.068,1.534,6.83,1.441,11.19-.279,9.894-3.9,19.2-14.613,19.965-16.676a.784.784,0,1,1,1.47.545c-1.013,2.732-10.845,13.637-20.861,17.588A19.073,19.073,0,0,1,315.959,194.825Z" transform="translate(-243.923 -124.415)"/></g><g transform="translate(276.134 148.916)"><g transform="translate(0)"><path d="M297.265,202.115a21.462,21.462,0,0,1-4.491-.445c-13.876-2.975-18.674-11.151-24.412-23.28-.474-.994-.931-2-1.373-3.016a190.389,190.389,0,0,1-7.54-20.354.783.783,0,1,1,1.5-.443,189.433,189.433,0,0,0,7.472,20.166c.437,1,.889,2,1.354,2.975,5.539,11.71,10.153,19.6,23.324,22.421,12.065,2.571,31.087-7.5,43.67-17.937a.784.784,0,0,1,1,1.206C325.972,193.2,309.622,202.115,297.265,202.115Z" transform="translate(-259.417 -154.015)"/></g></g><g transform="translate(363.805 133.259)"><path d="M318.617,151.442a.784.784,0,0,1-.248-1.527.668.668,0,0,0,.277-.387,1.372,1.372,0,0,0-.061-1.137,6.591,6.591,0,0,0-3.529-1.979,3.1,3.1,0,0,0-2.222.449.556.556,0,0,0-.248.449c0,.885.217,1.059,1.451,1.633a.783.783,0,1,1-.661,1.42c-1.16-.54-2.358-1.1-2.358-3.053a2.112,2.112,0,0,1,.822-1.66,4.61,4.61,0,0,1,3.519-.775c1.419.279,3.8,1.383,4.582,2.73a2.925,2.925,0,0,1,.172,2.477,2.124,2.124,0,0,1-1.247,1.322A.78.78,0,0,1,318.617,151.442Z" transform="translate(-311.017 -144.8)"/></g><g transform="translate(363.744 130.04)"><path d="M319.286,150.105a.784.784,0,0,1-.136-1.556c.28-.049.471-.365.559-.551a2.033,2.033,0,0,0,.1-1.6c-.654-1.181-2.273-1.9-4.327-1.927-.053,0-.1,0-.153,0-1.974,0-2.751.5-2.775.817s.3.608.7.917l.18.144a.783.783,0,1,1-1,1.2l-.143-.114a2.711,2.711,0,0,1-1.3-2.265c.051-.7.581-2.357,4.508-2.272,2.625.034,4.749,1.055,5.682,2.734a3.536,3.536,0,0,1-.051,3.033,2.385,2.385,0,0,1-1.7,1.419A.752.752,0,0,1,319.286,150.105Z" transform="translate(-310.981 -142.905)"/></g><g transform="translate(363.608 137.495)"><path d="M317.6,154.9a9.827,9.827,0,0,1-5.005-2.081c-1.186-1.062-2.148-2.788-1.461-4.061h0c.629-1.166,1.77-1.616,3.58-1.415,2.12.236,3.816.72,5.2,2.317a3.059,3.059,0,0,1,.486,3.164,3.174,3.174,0,0,1-2.486,2.059A3.06,3.06,0,0,1,317.6,154.9Zm-5.087-5.4c-.168.313.187,1.307,1.128,2.151a8.16,8.16,0,0,0,4.088,1.672,1.619,1.619,0,0,0,1.208-1.07,1.526,1.526,0,0,0-.212-1.57c-1.05-1.216-2.379-1.584-4.181-1.784-1.612-.178-1.883.33-2.03.6Z" transform="translate(-310.901 -147.293)"/></g><g transform="translate(363.805 142.683)"><g transform="translate(0 0)"><path d="M316.429,156.529a7.91,7.91,0,0,1-2.859-.566c-1.606-.678-3-2.2-2.418-3.694a3.633,3.633,0,0,1,3.728-1.884.784.784,0,0,1-.258,1.546,2.135,2.135,0,0,0-2.008.906c-.173.442.6,1.276,1.565,1.682a4.839,4.839,0,0,0,3.317.243,1.117,1.117,0,0,0,.428-.863,1.812,1.812,0,0,0-.42-1.422.783.783,0,1,1,1.07-1.143,3.354,3.354,0,0,1,.909,2.722,2.644,2.644,0,0,1-1.167,2.042A3.653,3.653,0,0,1,316.429,156.529Z" transform="translate(-311.017 -150.346)"/></g></g><g transform="translate(349.237 130.267)"><g transform="translate(0 0)"><path d="M303.226,164.583a.784.784,0,0,1-.545-1.347c2.47-2.4,2.372-6.108,2.319-8.1-.109-4.261,1.116-8.4,3.045-10.425,2.066-2.165,6.793-1.984,8.849-.81,2.436,1.392,1.619,6.631,1.286,7.855a2.852,2.852,0,0,1-2.114,2.136c-.642.093-1.614-.1-2.5-1.558-1.033-1.706-.588-4.312-.228-5.242a.784.784,0,0,1,1.461.569,5.438,5.438,0,0,0,.107,3.86c.335.549.671.846.941.819.3-.042.686-.508.819-1,.467-1.714.615-5.417-.552-6.083-1.566-.894-5.5-.968-6.937.532-1.633,1.713-2.708,5.49-2.613,9.187.058,2.19.172,6.509-2.793,9.385A.79.79,0,0,1,303.226,164.583Z" transform="translate(-302.443 -143.039)"/></g></g><g transform="translate(356.198 133.817)"><path d="M308.98,147.861a3.734,3.734,0,0,1-2.141-.593.784.784,0,0,1,.967-1.234,2.652,2.652,0,0,0,1.726.2,1.333,1.333,0,0,0,.977-.683.783.783,0,1,1,1.393.717,2.885,2.885,0,0,1-2.034,1.5A4.158,4.158,0,0,1,308.98,147.861Z" transform="translate(-306.539 -145.128)"/></g><g transform="translate(348.162 148.914)"><path d="M305.509,158.936a.79.79,0,0,1-.562-.236,35.007,35.007,0,0,1-2.985-3.439.783.783,0,1,1,1.264-.926,34.261,34.261,0,0,0,2.844,3.271.783.783,0,0,1-.561,1.33Z" transform="translate(-301.81 -154.014)"/></g><g transform="translate(283.638 169.18)"><g transform="translate(0)"><path d="M269.365,209.9a.785.785,0,0,1-.783-.758c-.5-14.766-3.427-38.059-4.713-42.187a.784.784,0,1,1,1.5-.464c1.341,4.3,4.266,27.424,4.785,42.6a.786.786,0,0,1-.758.81Z" transform="translate(-263.833 -165.942)"/></g></g><g transform="translate(249.81 98.624)"><path d="M255.928,245.74h-.022a.784.784,0,0,1-.761-.805c.851-29.847-10.091-115.134-11.2-119.546a.783.783,0,1,1,1.519-.381c1.111,4.426,12.129,88.953,11.246,119.973A.783.783,0,0,1,255.928,245.74Z" transform="translate(-243.923 -124.415)"/></g><g transform="translate(223.165 95.225)"><path d="M232.621,241.224a.782.782,0,0,1-.776-.695c-7.212-63.488-1.551-112.733-.491-117.5a.794.794,0,0,1,.936-.595.784.784,0,0,1,.595.934c-1.053,4.74-6.67,53.708.517,116.987a.783.783,0,0,1-.69.867A.8.8,0,0,1,232.621,241.224Z" transform="translate(-228.241 -122.414)"/></g><g transform="translate(209.282 97.677)"><path d="M234.353,239.284a.785.785,0,0,1-.746-.542c-1.584-4.864-13.851-45.928-13.531-49.141.333-3.311,7.024-15.59,8.711-18.642-.217-.189-.491-.421-.8-.69-4.6-3.933-7.471-6.749-7.557-8.628-.167-3.578,12.468-34.779,13.6-37.319a.784.784,0,0,1,1.432.637c-1.893,4.258-13.6,33.711-13.461,36.608.073,1.582,5.293,6.045,7.009,7.511.635.544,1.115.955,1.325,1.166a.78.78,0,0,1,.129.934c-2.358,4.236-8.543,15.827-8.82,18.579-.258,2.577,11.448,42.308,13.463,48.5a.784.784,0,0,1-.5.987A.8.8,0,0,1,234.353,239.284Z" transform="translate(-220.069 -123.858)"/></g><g transform="translate(253.603 101.21)"><path d="M258.325,243.28a.965.965,0,0,1-.139-.012.784.784,0,0,1-.634-.909c1.346-7.539,7.855-51.826,7.613-54.05-.284-1.2-6.861-8.585-13.055-15.021a.784.784,0,0,1,.129-1.194c.686-.635,8.437-10.741,8.725-13.076.126-1.728-6.832-15.755-10.57-23.294-2.532-5.1-3.974-8.026-4.2-8.772a.784.784,0,0,1,1.5-.46c.2.661,2.013,4.31,4.11,8.536,7.279,14.678,10.937,22.448,10.721,24.182-.318,2.569-6.636,11.044-8.772,13.521,3.541,3.7,12.634,13.344,12.965,15.332.382,2.292-6.555,48.618-7.618,54.571A.785.785,0,0,1,258.325,243.28Z" transform="translate(-246.155 -125.937)"/></g><g transform="translate(269.299 78.812)"><g transform="translate(0)"><path d="M264.143,147.639a.783.783,0,0,1-.768-.946,16.628,16.628,0,0,0,0-7.413c-.308-1.714-1.893-4.11-3.424-6.429a25.711,25.711,0,0,1-3.361-6.086,35.284,35.284,0,0,1-.907-13.348.784.784,0,0,1,1.549.245,34.025,34.025,0,0,0,.865,12.673,25.41,25.41,0,0,0,3.162,5.653c1.619,2.45,3.293,4.983,3.658,7.017a18.229,18.229,0,0,1-.005,8.014A.785.785,0,0,1,264.143,147.639Z" transform="translate(-255.393 -112.754)"/></g></g><g transform="translate(154.475 210.097)"><path d="M291.105,282.362H279.523a.785.785,0,0,1-.372-.093c-.219-.119-22.223-11.847-45.505-12.993-24.329-1.2-34.939,2.407-39.554,5.641a.768.768,0,0,1-.666.112.78.78,0,0,1-.5-.445l-5.046-11.832a.788.788,0,0,1-.017-.574c.088-.243,8.894-24.573,17.267-44.948,2.853-6.949,5.389-12.756,7.54-17.261a.784.784,0,0,1,1.414.676c-2.137,4.477-4.662,10.259-7.5,17.181-7.865,19.14-16.115,41.781-17.138,44.595l4.559,10.685c5.189-3.225,16.238-6.552,39.727-5.394,22.526,1.108,43.834,11.954,45.995,13.084h10.942c6.487-10.7,19.94-14.515,43.912-18.122,20.652-3.113,42.724,2.8,47.682,4.248v-9.093c-4.316-9.8-11.977-23.217-22.772-39.875-8.446-13.021-16.046-23.71-17.407-25.618a105.107,105.107,0,0,0-19.462.725,121.831,121.831,0,0,0-23.25,5.386c-1.388.454-2.708.919-3.935,1.385A92.957,92.957,0,0,0,284.3,204.69a.786.786,0,0,1-.829-.046,74.434,74.434,0,0,0-26.738-11.63c-2.606-.591-5.3-1.072-8.018-1.429a.784.784,0,1,1,.206-1.555c2.761.364,5.5.855,8.157,1.456a76.073,76.073,0,0,1,26.9,11.6,98.287,98.287,0,0,1,10.893-4.722c1.244-.472,2.586-.946,3.993-1.405a123.446,123.446,0,0,1,23.544-5.456,106.274,106.274,0,0,1,20.129-.71.789.789,0,0,1,.588.325c.083.115,8.361,11.637,17.668,25.983,10.894,16.812,18.62,30.353,22.956,40.247a.781.781,0,0,1,.066.316v10.311a.784.784,0,0,1-1.024.746c-.246-.08-25.03-7.955-47.991-4.5-23.766,3.578-36.944,7.306-43.021,17.752A.78.78,0,0,1,291.105,282.362Z" transform="translate(-187.812 -190.024)"/></g><g transform="translate(154.478 270.772)"><path d="M283.039,246.825a.782.782,0,0,1-.454-.144c-50.592-35.921-89.3-11.463-93.546-8.555a.784.784,0,1,1-.884-1.295c4.326-2.96,43.635-27.808,94.863,8.235,4.684-3.539,43.4-30.814,100.252-13.122a.784.784,0,1,1-.464,1.5c-59.573-18.538-98.881,12.887-99.27,13.2A.782.782,0,0,1,283.039,246.825Z" transform="translate(-187.814 -225.735)"/></g><g transform="translate(248.92 223.296)"><path d="M244.182,265.685h-.01a.784.784,0,0,1-.773-.793l.89-66.326a.785.785,0,0,1,.783-.773h.01a.784.784,0,0,1,.773.8l-.889,66.325A.785.785,0,0,1,244.182,265.685Z" transform="translate(-243.399 -197.793)"/></g><g transform="translate(346.438 134.951)"><path d="M317.955,192.452a17.17,17.17,0,0,1-17.16-17.162,13.977,13.977,0,0,1,.068-1.459,17,17,0,0,1,4.795-10.48,17.617,17.617,0,0,1,6.123-4.04V146.579a.783.783,0,0,1,1.567,0v13.275a.784.784,0,0,1-.522.739,16.055,16.055,0,0,0-6.05,3.853,15.446,15.446,0,0,0-4.353,9.528,12.862,12.862,0,0,0-.06,1.315,15.593,15.593,0,1,0,20.739-14.7.782.782,0,0,1-.523-.739v-.941a.783.783,0,0,1,1.567,0v.4a17.147,17.147,0,0,1-6.19,33.143Z" transform="translate(-300.795 -145.796)"/></g><g transform="translate(354.462 123.621)"><path d="M309.263,147.5a.784.784,0,0,1-.783-.783V144.08h-.486a2.476,2.476,0,0,1,0-4.953h13.32a2.476,2.476,0,0,1,0,4.953h-.471v2.287a.783.783,0,1,1-1.567,0V143.3a.784.784,0,0,1,.783-.785h1.254a.91.91,0,0,0,.909-.909.9.9,0,0,0-.909-.907h-13.32a.909.909,0,0,0-.909.907.921.921,0,0,0,.909.909h1.269a.784.784,0,0,1,.783.785v3.417A.784.784,0,0,1,309.263,147.5Z" transform="translate(-305.518 -139.127)"/></g><g transform="translate(346.505 162.274)"><path d="M310.367,169.733c-.1,0-.209,0-.313-.005a9.834,9.834,0,0,1-9.193-6.864.784.784,0,0,1,1.516-.4,8.342,8.342,0,0,0,7.724,5.7c3.746.156,8.687-2.127,12.252-3.762a32.1,32.1,0,0,1,4.429-1.813c5.661-1.461,7.668,1.813,8.145,2.854a.784.784,0,1,1-1.425.652c-.444-.975-1.954-3.123-6.329-1.988A31.487,31.487,0,0,0,323,165.822C319.394,167.48,314.479,169.733,310.367,169.733Z" transform="translate(-300.835 -161.877)"/></g><g transform="translate(366.956 170.055)"><circle cx="2.235" cy="2.235" r="2.235"/></g><g transform="translate(371.993 166.8)"><circle cx="1.448" cy="1.448" r="1.448"/></g><g transform="translate(200.847 234.969)"><path d="M231.326,233.621c-.112,0-.228-.007-.343-.017a3.068,3.068,0,0,1-2.469-1.439c-.963-1.849-2.652-5.977-3.813-9.029-.087-.2-.17-.413-.25-.627a92.056,92.056,0,0,0-5.152-10.06c-1.555-2.712-2.994-5.039-4.054-6.555a.783.783,0,0,1,1.284-.9c1.086,1.551,2.552,3.921,4.129,6.67a93.419,93.419,0,0,1,5.255,10.281c.075.2.15.391.24.6,1.157,3.04,2.815,7.1,3.751,8.893a1.613,1.613,0,0,0,1.218.6,1.673,1.673,0,0,0,1.526-.607.837.837,0,0,1,1.149-.046.732.732,0,0,1,.041,1.064l-.015.015A3.1,3.1,0,0,1,231.326,233.621Z" transform="translate(-215.105 -204.663)"/></g><g transform="translate(223.666 234.967)"><path d="M234.524,231.881a3.022,3.022,0,0,1-1.923-.7.783.783,0,1,1,1.021-1.188,1.38,1.38,0,0,0,1.069.308.966.966,0,0,0,.692-.52,5.862,5.862,0,0,0,.488-2.752,41.726,41.726,0,0,0-1.31-8.048,24.483,24.483,0,0,0-.746-2.423,66.868,66.868,0,0,0-3.065-7.2,15.77,15.77,0,0,0-2-3.371.783.783,0,0,1,1.14-1.074,17.834,17.834,0,0,1,2.261,3.743,68.811,68.811,0,0,1,3.141,7.379,25.971,25.971,0,0,1,.792,2.584,41.472,41.472,0,0,1,1.352,8.4,7.186,7.186,0,0,1-.7,3.549,2.513,2.513,0,0,1-1.792,1.281A2.472,2.472,0,0,1,234.524,231.881Z" transform="translate(-228.535 -204.662)"/></g><g transform="translate(222.772 245.015)"><path d="M231.8,233.379c-1.526,0-2.652-1.6-3.2-3.153a.829.829,0,0,1-.073-.328.783.783,0,0,1,1.492-.335,1.006,1.006,0,0,1,.048.109c.221.639,1.055,2.4,1.983,2.1.785-.25.875-.838.951-2.6l.008-.2a15.416,15.416,0,0,0-.3-2.384c-.246-1.346-.61-3.045-1.021-4.795a.769.769,0,0,1-.049-.141c-1.135-4.708-2.436-8.383-3.48-9.834a.784.784,0,1,1,1.273-.916c1.633,2.27,3.1,7.805,3.7,10.238a.689.689,0,0,1,.051.148c.433,1.825.814,3.607,1.074,5.022a17.543,17.543,0,0,1,.326,2.725l-.008.2c-.073,1.68-.148,3.42-2.041,4.023A2.374,2.374,0,0,1,231.8,233.379Z" transform="translate(-228.009 -210.576)"/></g><g transform="translate(215.094 248.29)"><path d="M230.665,232.451a3.454,3.454,0,0,1-2.831-1.325,4.886,4.886,0,0,1-.943-2.861,13.949,13.949,0,0,0-.251-1.677,69.973,69.973,0,0,0-2.294-8.329c-.3-.844-.574-1.561-.783-2.01a.784.784,0,0,1,1.422-.661c.231.5.523,1.247.841,2.156a71.268,71.268,0,0,1,2.351,8.543,15.412,15.412,0,0,1,.279,1.883,3.448,3.448,0,0,0,.608,1.984,2.126,2.126,0,0,0,2.068.693c.065-.051.53-.377.569-2.282a19.485,19.485,0,0,0-.151-2.317c-.438-3.721-2.956-10.186-4.183-12.609a.783.783,0,0,1,1.4-.707c1.307,2.581,3.876,9.175,4.341,13.128a21.2,21.2,0,0,1,.161,2.52c-.039,1.869-.44,3.023-1.232,3.539a1.323,1.323,0,0,1-.695.28A4.634,4.634,0,0,1,230.665,232.451Z" transform="translate(-223.49 -212.503)"/></g><g transform="translate(224.621 225.8)"><path d="M237.473,221.406a3.23,3.23,0,0,1-2.508-1.381c-.652-.858-1.449-2.125-2.219-3.351a35.965,35.965,0,0,0-2.284-3.39.783.783,0,0,1,.083-1.1.791.791,0,0,1,1.106.085,35.808,35.808,0,0,1,2.421,3.576c.751,1.194,1.529,2.431,2.137,3.23a1.344,1.344,0,0,0,2.5-.2c.629-1.125-.387-4.453-2.659-8.677-.768-1.446-4.657-6.749-6.122-8.747l-.69-.945a.784.784,0,0,1,1.274-.912l.68.931c2.681,3.655,5.518,7.574,6.239,8.935,1.866,3.466,3.838,8.05,2.64,10.186a3.037,3.037,0,0,1-2.431,1.752C237.588,221.4,237.531,221.406,237.473,221.406Z" transform="translate(-229.098 -199.267)"/></g><g transform="translate(260.01 260.137)"><g transform="translate(0)"><path d="M250.71,232.73a.784.784,0,0,1-.415-1.449c.236-.144,23.982-14.607,59.257-11.319a.784.784,0,1,1-.148,1.561c-34.728-3.252-58.049,10.945-58.282,11.09A.777.777,0,0,1,250.71,232.73Z" transform="translate(-249.927 -219.476)"/></g></g><g transform="translate(260.01 252.505)"><path d="M250.711,228.651a.784.784,0,0,1-.428-1.441c.253-.165,25.678-16.4,60.153-11.2a.783.783,0,0,1,.658.89.793.793,0,0,1-.89.659c-33.915-5.1-58.817,10.8-59.064,10.964A.8.8,0,0,1,250.711,228.651Z" transform="translate(-249.926 -214.984)"/></g><g transform="translate(253.603 239.663)"><path d="M246.94,221.825a.783.783,0,0,1-.387-1.465c.287-.163,29-16.192,59.951-12.337a.784.784,0,1,1-.194,1.556c-30.433-3.787-58.7,11.983-58.984,12.141A.761.761,0,0,1,246.94,221.825Z" transform="translate(-246.155 -207.426)"/></g><g transform="translate(253.603 229.64)"><path d="M246.94,214.885a.783.783,0,0,1-.45-1.425c.224-.158,22.879-15.762,53.321-11.045a.783.783,0,1,1-.24,1.548c-29.811-4.62-51.962,10.626-52.181,10.78A.777.777,0,0,1,246.94,214.885Z" transform="translate(-246.155 -201.526)"/></g><g transform="translate(253.603 220.227)"><path d="M246.94,207.677a.784.784,0,0,1-.455-1.422c.183-.133,18.718-13.069,45.077-9.712a.783.783,0,0,1,.678.878.793.793,0,0,1-.877.678c-25.759-3.284-43.791,9.3-43.969,9.431A.779.779,0,0,1,246.94,207.677Z" transform="translate(-246.155 -195.987)"/></g><g transform="translate(222.428 266.469)"><path d="M249.213,234.33a.782.782,0,0,1-.5-.18c-.07-.058-7.136-5.819-20.331-9.409a.783.783,0,0,1,.413-1.51c13.548,3.685,20.625,9.469,20.919,9.713a.784.784,0,0,1-.5,1.386Z" transform="translate(-227.807 -223.203)"/></g><g transform="translate(168 263.473)"><path d="M196.555,227.835a.784.784,0,0,1-.221-1.536c18.413-5.415,35.8-6.31,51.675-2.659a.784.784,0,0,1-.35,1.527c-15.612-3.588-32.732-2.7-50.883,2.635A.764.764,0,0,1,196.555,227.835Z" transform="translate(-195.772 -221.44)"/></g><g transform="translate(226.377 255.123)"><path d="M230.931,218.092h-.017a.783.783,0,1,1,.017,0Z" transform="translate(-230.131 -216.525)"/></g><g transform="translate(231 256.547)"><path d="M245.687,224.73a.771.771,0,0,1-.426-.127,53.786,53.786,0,0,0-11.88-5.714.783.783,0,1,1,.51-1.482,55.325,55.325,0,0,1,12.225,5.882.784.784,0,0,1-.428,1.441Z" transform="translate(-232.852 -217.363)"/></g><g transform="translate(175.051 251.959)"><path d="M200.7,218.467a.783.783,0,0,1-.156-1.549,140.267,140.267,0,0,1,35.564-1.83c1.939.167,3.809.377,5.561.63a.784.784,0,0,1-.223,1.551c-1.723-.248-3.563-.457-5.473-.622a139.012,139.012,0,0,0-35.114,1.8A.729.729,0,0,1,200.7,218.467Z" transform="translate(-199.923 -214.663)"/></g><g transform="translate(228.9 245.815)"><path d="M245.7,218.756a.786.786,0,0,1-.406-.114,65.776,65.776,0,0,0-13.149-6.071.783.783,0,0,1,.5-1.485,67.328,67.328,0,0,1,13.463,6.215.785.785,0,0,1-.408,1.454Z" transform="translate(-231.616 -211.047)"/></g><g transform="translate(178.233 241.5)"><path d="M202.578,212.523a.784.784,0,0,1-.2-1.543,103.738,103.738,0,0,1,26.932-2.392.783.783,0,0,1,.751.816.818.818,0,0,1-.814.751,101.2,101.2,0,0,0-26.476,2.343A.8.8,0,0,1,202.578,212.523Z" transform="translate(-201.795 -208.507)"/></g><g transform="translate(224.214 222.383)"><path d="M246.457,206.895a.788.788,0,0,1-.53-.207,39.569,39.569,0,0,0-16.462-7.885.784.784,0,1,1,.355-1.527c10.843,2.528,16.914,8.026,17.169,8.259a.785.785,0,0,1-.532,1.361Z" transform="translate(-228.858 -197.256)"/></g><g transform="translate(93.945 278.371)"><path d="M180.927,249.744c-14.128,0-28.741-3.653-28.741-9.768s14.613-9.768,28.741-9.768,28.741,3.655,28.741,9.768S195.054,249.744,180.927,249.744Zm0-17.967c-16.255,0-27.173,4.239-27.173,8.2s10.918,8.2,27.173,8.2,27.174-4.241,27.174-8.2S197.183,231.776,180.927,231.776Z" transform="translate(-152.186 -230.208)"/></g><g transform="translate(93.95 293.283)"><path d="M180.932,249.533c-14.129,0-28.743-3.651-28.743-9.764a.784.784,0,0,1,1.568,0c0,3.877,11.159,8.2,27.174,8.2s27.174-4.319,27.174-8.2a.783.783,0,1,1,1.567,0C209.673,245.881,195.059,249.533,180.932,249.533Z" transform="translate(-152.189 -238.985)"/></g><g transform="translate(95.517 284.287)"><path d="M206.678,241.292a.785.785,0,0,1-.533-.207c-3.763-3.485-14.155-5.828-25.858-5.828s-22.1,2.343-25.859,5.828a.785.785,0,0,1-1.065-1.152c4.1-3.792,14.664-6.242,26.925-6.242,12.07,0,22.889,2.508,26.923,6.242a.783.783,0,0,1,.042,1.108A.772.772,0,0,1,206.678,241.292Z" transform="translate(-153.111 -233.69)"/></g><g transform="translate(93.945 287.355)"><path d="M152.971,242.984a.785.785,0,0,1-.785-.785v-5.919a.784.784,0,0,1,1.568,0V242.2A.784.784,0,0,1,152.971,242.984Z" transform="translate(-152.186 -235.496)"/></g><g transform="translate(149.86 287.355)"><path d="M185.879,242.984a.784.784,0,0,1-.783-.785v-5.919a.783.783,0,1,1,1.566,0V242.2A.784.784,0,0,1,185.879,242.984Z" transform="translate(-185.096 -235.496)"/></g><g transform="translate(116.6 287.739)"><path d="M175.058,241.558a18.717,18.717,0,0,1-2.114-.124c-2.307-.263-6.434-1.149-7.262-2.8a1.414,1.414,0,0,1,.042-1.393c1.29-2.216,7.238-1.405,8.415-1.22,1.378.216,4.686,1.145,5.546,2.5a1.349,1.349,0,0,1,.185,1.137C179.459,241.064,177.364,241.558,175.058,241.558Zm-8.657-3.925.676.4c.212.423,2.727,1.468,6.045,1.845,3.481.4,5.141-.3,5.247-.659a11.406,11.406,0,0,0-4.47-1.65c-3.2-.5-6.387-.285-6.82.462h0Zm0,0h0Z" transform="translate(-165.52 -235.722)"/></g><g transform="translate(33.831 182.496)"><path d="M155.54,261.149H131.359c-4.465,0-8.183-1.38-10.75-3.989-2.6-2.645-3.881-6.373-3.8-11.081.131-7.855,11.463-27.3,17.553-37.748.659-1.133,1.259-2.163,1.781-3.067a14.115,14.115,0,0,0,1.886-7.046V179.374a2.8,2.8,0,0,1,.08-5.595H150.03a2.8,2.8,0,0,1,.08,5.595v19.663a14.024,14.024,0,0,0,1.077,5.406c3.5,8.426,12.058,29.145,15.835,39.533,1.643,4.519,1.38,8.375-.782,11.462C163.189,259.8,157.329,261.149,155.54,261.149Zm-17.432-85.8a1.232,1.232,0,0,0,0,2.464h.7a.782.782,0,0,1,.783.783v19.626a15.684,15.684,0,0,1-2.095,7.831c-.522.9-1.123,1.937-1.784,3.07-6.018,10.323-17.218,29.54-17.34,36.986-.071,4.271,1.055,7.62,3.352,9.955,2.265,2.3,5.6,3.522,9.632,3.522H155.54c1.3,0,6.73-1.208,9.418-5.043,1.85-2.644,2.049-6.016.591-10.026-3.767-10.359-12.311-31.052-15.81-39.467a15.59,15.59,0,0,1-1.2-6.01V178.592a.782.782,0,0,1,.783-.783h.7a1.232,1.232,0,1,0,0-2.464Z" transform="translate(-116.805 -173.779)"/></g><g transform="translate(42.996 229.277)"><path d="M149.181,210.417h-.015c-2.623,0-6.655-2.075-10.558-4.081-2.975-1.529-6.052-3.111-7.834-3.362-2.377-.34-4.657.221-7.4,1.8a.783.783,0,1,1-.783-1.356,12.731,12.731,0,0,1,8.4-2c2.046.287,5.1,1.857,8.332,3.52,3.561,1.832,7.6,3.906,9.841,3.908h.015c3.748,0,4.348-1.109,5.342-2.948a.783.783,0,0,1,1.378.744C154.634,208.993,153.548,210.417,149.181,210.417Z" transform="translate(-122.199 -201.313)"/></g><g transform="translate(49.823 241.614)"><circle cx="2.771" cy="2.771" r="2.771"/></g><g transform="translate(57.26 252.163)"><circle cx="4.541" cy="4.541" r="4.541"/></g><g transform="translate(0 272.413)"><path d="M147.881,310.123a.784.784,0,0,1-.586-.263L97.751,254a.8.8,0,0,1-.173-.323,24.278,24.278,0,0,1-.685-5.457,34.207,34.207,0,0,1,.612-5.95.789.789,0,0,1,.508-.583l42.4-14.943a.789.789,0,0,1,.826.2l49.019,51.129a.779.779,0,0,1,.219.542v10.578a.781.781,0,0,1-.443.705l-41.81,20.149A.79.79,0,0,1,147.881,310.123ZM99.052,253.105l49.022,55.271L188.908,288.7v-9.77l-48.45-50.538-41.5,14.624a32.321,32.321,0,0,0-.5,5.206A23.013,23.013,0,0,0,99.052,253.105Z" transform="translate(-96.893 -226.702)"/></g><g transform="translate(0.596 287.355)"><path d="M148.224,293.9a.783.783,0,0,1-.588-.265L97.439,236.8a.784.784,0,1,1,1.176-1.038l49.8,56.388L187.67,272.6a.783.783,0,0,1,.7,1.4l-39.795,19.813A.758.758,0,0,1,148.224,293.9Z" transform="translate(-97.244 -235.496)"/></g><g transform="translate(49.786 344.193)"><path d="M127.4,280.591a.779.779,0,0,1-.722-.483c-1.059-2.54-.141-8.791.579-10.658a.784.784,0,1,1,1.463.564c-.683,1.772-1.417,7.52-.6,9.491a.785.785,0,0,1-.421,1.026A.818.818,0,0,1,127.4,280.591Z" transform="translate(-126.195 -268.949)"/></g><g transform="translate(16.203 282.989)"><path d="M107.214,245.828a.783.783,0,0,1-.287-1.512l28.712-11.334a.784.784,0,0,1,.576,1.458L107.5,245.772A.745.745,0,0,1,107.214,245.828Z" transform="translate(-106.429 -232.926)"/></g><g transform="translate(22.625 289.882)"><path d="M110.994,247.274a.784.784,0,0,1-.294-1.51l21.661-8.725a.783.783,0,0,1,.586,1.453l-21.661,8.726A.8.8,0,0,1,110.994,247.274Z" transform="translate(-110.21 -236.983)"/></g><g transform="translate(28.167 295.077)"><path d="M114.256,249.923a.784.784,0,0,1-.313-1.5l19.269-8.312a.784.784,0,0,1,.622,1.439l-19.269,8.312A.777.777,0,0,1,114.256,249.923Z" transform="translate(-113.471 -240.041)"/></g><g transform="translate(36.604 304.02)"><path d="M119.222,255.184a.783.783,0,0,1-.33-1.5l18.008-8.312a.784.784,0,0,1,.658,1.424l-18.01,8.312A.8.8,0,0,1,119.222,255.184Z" transform="translate(-118.437 -245.304)"/></g><g transform="translate(47.435 308.177)"><path d="M125.6,256.916a.784.784,0,0,1-.335-1.492l16.119-7.6a.784.784,0,0,1,.669,1.417l-16.119,7.6A.812.812,0,0,1,125.6,256.916Z" transform="translate(-124.812 -247.751)"/></g><g transform="translate(46.007 316.74)"><path d="M124.756,263.677a.784.784,0,0,1-.342-1.49l19.31-9.318a.783.783,0,1,1,.681,1.41L125.1,263.6A.765.765,0,0,1,124.756,263.677Z" transform="translate(-123.971 -252.791)"/></g><g transform="translate(366.172 255.063)"><path d="M383.087,228.971H313.193a.784.784,0,0,1-.783-.785V217.273a.782.782,0,0,1,.783-.783h69.893a.782.782,0,0,1,.783.783v10.913A.784.784,0,0,1,383.087,228.971Zm-69.11-1.568H382.3v-9.346H313.977Z" transform="translate(-312.41 -216.49)"/></g><g transform="translate(417.427 175.066)"><path d="M345.5,250.97a.783.783,0,1,1,0-1.566c4.837,0,24.877-12.08,25.788-37.559,1.169-32.7-26.935-40.58-28.131-40.9a.784.784,0,0,1,.4-1.516c1.247.333,30.506,8.533,29.295,42.468C371.894,238.856,350.827,250.97,345.5,250.97Z" transform="translate(-342.577 -169.406)"/></g><g transform="translate(384.095 158.173)"><path d="M339.528,204.831a.826.826,0,0,1-.168-.019c-10.106-2.226-16.027-11.207-16.275-11.589a.782.782,0,0,1-.015-.826l19.4-32.554a.786.786,0,0,1,.489-.36.811.811,0,0,1,.6.1l17.714,11.1a.785.785,0,0,1,.24,1.092l-21.323,32.7A.788.788,0,0,1,339.528,204.831Zm-14.853-12.067c1.227,1.7,6.487,8.395,14.5,10.393l20.589-31.57L343.4,161.335Z" transform="translate(-322.959 -159.463)"/></g><g transform="translate(406.664 150.241)"><path d="M348.747,173.626a.783.783,0,0,1-.664-1.2l5.665-9.049-10.369-6.7-5.685,9.233a.783.783,0,0,1-1.334-.821l6.1-9.916a.779.779,0,0,1,.494-.353.756.756,0,0,1,.6.105l11.693,7.557a.784.784,0,0,1,.24,1.074l-6.077,9.7A.778.778,0,0,1,348.747,173.626Z" transform="translate(-336.242 -154.795)"/></g><g transform="translate(383.056 190.724)"><path d="M331.619,195.529a8.508,8.508,0,0,1-6.195-2.581c-4.708-4.751-2.853-12.323-1.932-13.932a.783.783,0,0,1,1.359.776c-.765,1.337-2.335,8,1.685,12.055a7.1,7.1,0,0,0,5.828,2.081,10.234,10.234,0,0,0,6.947-3.721.783.783,0,0,1,1.288.89,11.771,11.771,0,0,1-8.1,4.392C332.2,195.516,331.909,195.529,331.619,195.529Z" transform="translate(-322.347 -178.622)"/></g><g transform="translate(414.77 141.701)"><g transform="translate(0 0)"><path d="M349.366,166.063a.782.782,0,0,1-.651-1.218l5.948-8.864c-1.366-3.395-4.8-4.343-6.052-4.579l-6.161,9.414a.783.783,0,0,1-1.31-.858l6.436-9.836a.8.8,0,0,1,.734-.352c.248.025,6.125.671,7.967,6.06a.781.781,0,0,1-.09.69l-6.171,9.2A.781.781,0,0,1,349.366,166.063Z" transform="translate(-341.013 -149.768)"/></g></g><g transform="translate(375.869 180.043)"><path d="M318.9,248.922a.782.782,0,0,1-.783-.783V240.05a.781.781,0,0,1,.231-.556.575.575,0,0,1,.556-.229l44.148.168c8.9-4.293,17.334-10.794,19.045-28.8,2.161-22.743-17.092-34.9-24.349-36.754a.784.784,0,0,1,.387-1.519c7.6,1.944,27.779,14.661,25.523,38.419-1.8,18.892-10.718,25.654-20.089,30.146a3.345,3.345,0,0,1-.342.076l-43.543-.165v7.3A.782.782,0,0,1,318.9,248.922Z" transform="translate(-318.117 -172.336)"/></g><g transform="translate(345.309 278.709)"><g transform="translate(0)"><path d="M395.621,286.377H300.914a.784.784,0,0,1-.732-1.064l20.863-54.4a.786.786,0,0,1,.732-.5h57.049a.778.778,0,0,1,.748.552l16.8,54.4a.784.784,0,0,1-.748,1.016Zm-93.566-1.568h92.5l-16.312-52.835H322.316Z" transform="translate(-300.131 -230.407)"/></g></g><g transform="translate(345.308 333.107)"><path d="M393.937,279.275H300.915a.785.785,0,0,1-.77-.935c.015-.083,1.626-8.556.01-14.936a.783.783,0,0,1,1.517-.386c1.4,5.513.557,12.243.172,14.69h91.682c3.289-4.958,2.418-11.248,1.358-14.235a.783.783,0,1,1,1.475-.525c1.475,4.149,1.891,10.826-1.782,16A.782.782,0,0,1,393.937,279.275Z" transform="translate(-300.13 -262.424)"/></g><g transform="translate(369.992 308.931)"><path d="M361.952,266.217H315.441a.78.78,0,0,1-.76-.97l4.03-16.455a.783.783,0,0,1,.761-.6h40.466a.784.784,0,0,1,.778.688l2.013,16.455a.784.784,0,0,1-.778.878ZM316.44,264.65h44.629l-1.823-14.889H320.088Z" transform="translate(-314.658 -248.195)"/></g><g transform="translate(356.224 336.932)"><path d="M382.144,266.242H307.338a.783.783,0,0,1,0-1.567h74.805a.783.783,0,0,1,0,1.567Z" transform="translate(-306.555 -264.675)"/></g><g transform="translate(356.224 343.018)"><path d="M382.144,269.823H307.338a.783.783,0,1,1,0-1.566h74.805a.783.783,0,0,1,0,1.566Z" transform="translate(-306.555 -268.257)"/></g><g transform="translate(379.773 300.873)"><path d="M348.023,245.019H321.2a.783.783,0,1,1,0-1.567h26.824a.783.783,0,0,1,0,1.567Z" transform="translate(-320.415 -243.452)"/></g><g transform="translate(379.773 297.22)"><path d="M348.023,242.87H321.2a.784.784,0,0,1,0-1.568h26.824a.784.784,0,0,1,0,1.568Z" transform="translate(-320.415 -241.302)"/></g><g transform="translate(379.773 293.569)"><path d="M348.023,240.721H321.2a.784.784,0,0,1,0-1.568h26.824a.784.784,0,0,1,0,1.568Z" transform="translate(-320.415 -239.153)"/></g><g transform="translate(374.232 288.28)"><path d="M355.845,237.607H317.937a.783.783,0,1,1,0-1.567h37.907a.783.783,0,1,1,0,1.567Z" transform="translate(-317.154 -236.04)"/></g><g transform="translate(374.232 284.627)"><path d="M355.845,235.456H317.937a.783.783,0,1,1,0-1.567h37.907a.783.783,0,1,1,0,1.567Z" transform="translate(-317.154 -233.89)"/></g><g transform="translate(161.53 290.67)"><path d="M276.62,249.211H192.749a.778.778,0,0,1-.647-.341.787.787,0,0,1-.085-.725l3.947-10.194a.783.783,0,1,1,1.461.566l-3.534,9.129h82.73a.783.783,0,1,1,0,1.566Z" transform="translate(-191.964 -237.447)"/></g><g transform="translate(256.983 285.909)"><g transform="translate(0)"><path d="M340.865,251.17H248.93a.783.783,0,1,1,0-1.566h90.856l-4.533-13.934a.784.784,0,0,1,1.492-.483l4.864,14.958a.784.784,0,0,1-.744,1.025Z" transform="translate(-248.145 -234.645)"/></g></g></g></g></g></g></svg>