<svg xmlns="http://www.w3.org/2000/svg" xmlns:xlink="http://www.w3.org/1999/xlink" width="960" height="470" viewBox="0 0 960 470"><defs><clipPath id="b"><rect width="960" height="470"/></clipPath></defs><g id="a" clip-path="url(#b)"><rect width="960" height="470" fill="#fff"/><g transform="translate(-19.118 -115.731)"><circle cx="69.903" cy="69.903" r="69.903" transform="translate(540.977 155.166)" fill="#dedede"/><circle cx="42.907" cy="42.907" r="42.907" transform="translate(370.77 271.117)" fill="#dedede"/><circle cx="15.416" cy="15.416" r="15.416" transform="translate(548.008 519.262)" fill="#dedede"/><path d="M523.341,391.484a13.394,13.394,0,0,1-8.994-23.322c8.317-7.531,20.176-29.014,22.429-44.4a13.394,13.394,0,1,1,26.505,3.882c-2.96,20.212-17.136,47.858-30.954,60.371A13.343,13.343,0,0,1,523.341,391.484Z" fill="#dedede"/><path d="M550.788,505.983a9.038,9.038,0,1,1,9.037-9.038A9.048,9.048,0,0,1,550.788,505.983Zm0-16.532a7.495,7.495,0,1,0,7.494,7.494A7.5,7.5,0,0,0,550.788,489.451Z" fill="#dedede"/><path d="M380.085,227.06A27.957,27.957,0,1,1,408.042,199.1,27.989,27.989,0,0,1,380.085,227.06Zm0-51.142A23.185,23.185,0,1,0,403.27,199.1,23.211,23.211,0,0,0,380.085,175.918Z" fill="#dedede"/><path d="M455.711,415.969a16.783,16.783,0,1,1,16.783-16.783A16.8,16.8,0,0,1,455.711,415.969Zm0-30.7a13.918,13.918,0,1,0,13.918,13.918A13.934,13.934,0,0,0,455.711,385.268Z" fill="#dedede"/><circle cx="15.328" cy="15.328" r="15.328" transform="translate(529.217 144.731)" fill="#dedede"/><circle cx="9.297" cy="9.297" r="9.297" transform="translate(320.099 171.146)" fill="#dedede"/><circle cx="9.297" cy="9.297" r="9.297" transform="translate(512.684 205.481)" fill="#dedede"/><circle cx="6.437" cy="6.437" r="6.437" transform="translate(507.244 177.578)" fill="#dedede"/><circle cx="5.518" cy="5.518" r="5.518" transform="translate(330.571 199.103)" fill="#dedede"/><circle cx="12.729" cy="12.729" r="12.729" transform="translate(439.783 232.853)" fill="#dedede"/><circle cx="8.653" cy="8.653" r="8.653" transform="translate(539.356 415.064)" fill="#dedede"/><path d="M528.131,522.233a11.379,11.379,0,0,1-15.459,9.437c-24.026-9.382-35.45-23.7-42.718-35.124a11.378,11.378,0,0,1,19.2-12.215c6.035,9.485,14.063,19.217,31.8,26.143A11.406,11.406,0,0,1,528.131,522.233ZM473.263,489.8a6.272,6.272,0,0,0,.957,4.028c6.855,10.775,17.63,24.278,40.291,33.128a6.323,6.323,0,0,0,8.188-3.588,6.314,6.314,0,0,0-3.589-8.188c-19.086-7.454-27.728-17.929-34.223-28.138a6.321,6.321,0,0,0-11.5,2.021A6.466,6.466,0,0,0,473.263,489.8Z" fill="#dedede"/><path d="M499.681,332.845a11.584,11.584,0,0,1-12.589-13.47c4.41-25.883,16.333-40.217,26.227-49.813a11.582,11.582,0,1,1,16.127,16.627c-8.214,7.967-16.264,17.974-19.52,37.077A11.611,11.611,0,0,1,499.681,332.845Zm21.04-61.371a6.379,6.379,0,0,0-3.818,1.782c-9.332,9.051-20.577,22.571-24.737,46.984a6.434,6.434,0,1,0,12.686,2.161c3.5-20.561,12.169-31.331,21.011-39.907a6.435,6.435,0,0,0-4.383-11.053A6.378,6.378,0,0,0,520.721,271.474Z" fill="#dedede"/><path d="M412.908,156.925a11.046,11.046,0,0,1,1.9-2.274,11,11,0,0,1,15.54.7c16.821,18.406,20.607,35.7,22.025,48.717a11,11,0,1,1-21.869,2.384c-1.178-10.8-3.98-22.674-16.395-36.26A11.028,11.028,0,0,1,412.908,156.925ZM446.621,208.5a6.062,6.062,0,0,0,.892-3.9c-1.338-12.274-4.908-28.588-20.774-45.949a6.111,6.111,0,0,0-8.633-.388,6.1,6.1,0,0,0-.389,8.633c13.364,14.622,16.379,27.4,17.646,39.029a6.111,6.111,0,0,0,10.839,3.164A6.218,6.218,0,0,0,446.621,208.5Z" fill="#dedede"/><path d="M495.762,466.8c4.667,4.36,5.978,12.553,12.269,17.322,6.874,5.21,16.809,8.211,24.815-.819,5.5-6.207,4.242-14.716,1.464-19.473-4.847-8.3-14.339-10.173-17.684-14.673-4.977-6.694-6.36-20.914-15.535-29.057-8.233-7.307-24.054-6.755-32.065,2.342-6.867,7.8-3.926,23.973,3.326,30.783S490.92,462.273,495.762,466.8Z" fill="#dedede"/><path d="M934.715,239.11V465.716H881.726c3.093-2.179,6.07-4.8,7.429-7.148.609-1.054,1.172-2.062,1.664-3.046h34.1V249.328H593.458V455.522H730.092a60.42,60.42,0,0,0-7.054,8.812c-.328.515-.68,1.031-1.031,1.57l-.281-.188H583.662V239.11Z" fill="#fff"/><path d="M904.975,429.2c3.14-5.085,6.913,0,6.913,0s2.11-8.671,13.031-6.421v32.741h-34.1a55.242,55.242,0,0,0,5.086-13.219c.586-2.39,2.437-8.39.7-9.515-2.039-1.312-4.078,1.781-4.289,2.11,1.148-2.953,2.18-5.578,2.7-7.1A9.528,9.528,0,0,1,904.975,429.2Z" fill="#fff"/><path d="M876.968,321.958c-.211-3.586-.328-6.938-.351-9.961V307.4l-3.071-3.024V289.756h-.562V264.093h-2.2V249.328h54.138V422.781c-10.921-2.25-13.031,6.421-13.031,6.421s-3.773-5.085-6.913,0a9.528,9.528,0,0,0-9.961-1.406c.164-.445.258-.8.328-1.031.586-2.062,1.055-5.132-.89-6.117-1.711-.867-4.031,2.6-4.289,2.977.117-.352.187-.633.258-.868.8-3.07.8-6.937-1.664-7.757-.282-1.711-.657-4.078-1.1-6.984-.375-2.25-.773-4.851-1.219-7.687q-.421-2.847-.914-5.976c-.3-1.969-.609-4.031-.914-6.164-.445-3.023-.914-6.187-1.382-9.445-.3-2.3-.633-4.64-.961-7.008-.258-1.945-.539-3.913-.8-5.929-.281-2.062-.539-4.125-.8-6.211-.3-2.39-.609-4.781-.867-7.171-.234-1.945-.469-3.914-.68-5.836q-.386-3.375-.7-6.679c-.187-1.875-.375-3.727-.515-5.531-.188-2.039-.352-4.008-.493-5.953C877.226,326.2,877.085,324.043,876.968,321.958Z" fill="#fff"/><path d="M883.062,423.812c.375-1.031,3.421-9.562,5.7-8.812,2.46.82,2.46,4.687,1.664,7.757-.071.235-.141.516-.258.868.258-.375,2.578-3.844,4.289-2.977,1.945.985,1.476,4.055.89,6.117-.07.234-.164.586-.328,1.031-.515,1.524-1.547,4.149-2.7,7.1.211-.329,2.25-3.422,4.289-2.11,1.734,1.125-.117,7.125-.7,9.515a55.242,55.242,0,0,1-5.086,13.219c-.492.984-1.055,1.992-1.664,3.046-1.359,2.344-4.336,4.969-7.429,7.148-.563.4-1.1.8-1.664,1.149a12.3,12.3,0,0,0-2.555,3.351l-.07.117a149.489,149.489,0,0,0-16.523-8.648l.024-.047a18.416,18.416,0,0,0,1.054-6.116,6.277,6.277,0,0,0-.07-1.032,26.2,26.2,0,0,1-.375-5.437,42.267,42.267,0,0,1,1.172-7.64.086.086,0,0,1,.023-.07,31.393,31.393,0,0,1,3.82-8.859c.961-1.453,1.946-2.414,2.766-2.25,1.617.3.937,4.078.281,8.484-.047.375-.117.75-.187,1.148h.023s4.2-10.429,5.6-13.007c.258-.492.563-1.031.868-1.617a42.826,42.826,0,0,1,4.007-6.7c.774-.961,1.524-1.477,2.133-1.148C884.046,418.4,883.858,420.906,883.062,423.812Z" fill="#fff"/><path d="M888.757,415c-2.274-.75-5.32,7.781-5.7,8.812.8-2.906.984-5.414-1.008-6.421-.164-1.289-.516-4.078-1.008-7.969l6.609-1.406C888.1,410.922,888.475,413.289,888.757,415Z" fill="#fff"/><path d="M887.655,408.016l-6.609,1.406c-.258-2.32-.586-5.015-.961-8.039h.141l6.21-1.054C886.882,403.165,887.28,405.766,887.655,408.016Z" fill="#fff"/><path d="M887.632,483.106v79.168H736.209V551.048h71.95V483.106h79.473Z" fill="#fff"/><path d="M886.436,400.329l-6.21,1.054h-.141c-.211-1.992-.469-4.1-.726-6.351h.047l6.116-.679Q886.016,397.48,886.436,400.329Z" fill="#fff"/><path d="M885.522,394.353l-6.116.679h-.047c-.211-1.9-.446-3.89-.68-5.929l5.929-.914C884.913,390.322,885.218,392.384,885.522,394.353Z" fill="#fff"/><path d="M884.608,388.189l-5.929.914c-.352-3.07-.7-6.281-1.055-9.562l5.6-.8C883.694,382,884.163,385.166,884.608,388.189Z" fill="#fff"/><path d="M883.226,378.744l-5.6.8c-.234-2.3-.492-4.617-.726-6.984l5.367-.821C882.593,374.1,882.921,376.447,883.226,378.744Z" fill="#fff"/><path d="M882.288,474.013c.258,2.109-3,7.242-4.336,9.093h-36c3.867-6.867,7.523-13.171,10.289-17.39,2.015-3.07,3.539-5.038,4.312-5.32.516-.187,2.156.352,4.359,1.289a149.489,149.489,0,0,1,16.523,8.648C880.273,472.068,882.218,473.474,882.288,474.013Z" fill="#fff"/><path d="M882.265,371.736l-5.367.821c-.211-2.016-.422-4.031-.61-6.047l5.18-.7C881.726,367.823,882.007,369.791,882.265,371.736Z" fill="#fff"/><path d="M882.054,417.391c-.609-.329-1.359.187-2.133,1.148l-.023-.024H850.93c.563-2.929,1.125-5.976,1.688-9.093h28.428C881.538,413.313,881.89,416.1,882.054,417.391Z" fill="#fff"/><path d="M881.468,365.807l-5.18.7c-.21-1.992-.4-3.984-.585-5.976l4.968-.938C880.929,361.682,881.187,363.745,881.468,365.807Z" fill="#fff"/><path d="M881.046,409.422H852.618c.492-2.625.984-5.3,1.453-8.039h26.014C880.46,404.407,880.788,407.1,881.046,409.422Z" fill="#fff"/><path d="M880.671,359.6l-4.968.938c-.235-2.508-.469-5.016-.68-7.476l4.758-.633h.023C880.062,354.815,880.366,357.206,880.671,359.6Z" fill="#fff"/><path d="M880.085,401.383H854.071c.375-2.085.726-4.218,1.1-6.351h24.187C879.616,397.282,879.874,399.391,880.085,401.383Z" fill="#fff"/><path d="M879.9,418.515l.023.024a42.826,42.826,0,0,0-4.007,6.7H849.641c.422-2.156.844-4.406,1.289-6.727Z" fill="#fff"/><path d="M879.8,352.425h-.023l-4.758.633c-.164-1.922-.328-3.8-.492-5.672l4.593-.8C879.335,348.511,879.57,350.48,879.8,352.425Z" fill="#fff"/><path d="M879.359,395.032H855.172c.328-1.968.68-3.937,1.008-5.929h22.5C878.913,391.142,879.148,393.134,879.359,395.032Z" fill="#fff"/><path d="M879.124,346.589l-4.593.8c-.188-2.273-.352-4.523-.516-6.7l4.406-.773Q878.738,343.215,879.124,346.589Z" fill="#fff"/><path d="M878.679,389.1h-22.5q.774-4.746,1.547-9.562h19.9C877.976,382.822,878.327,386.033,878.679,389.1Z" fill="#fff"/><path d="M878.421,339.91l-4.406.773c-.117-1.851-.258-3.679-.351-5.46l4.218-.844h.024C878.046,336.183,878.234,338.035,878.421,339.91Z" fill="#fff"/><path d="M877.906,334.379h-.024l-4.218.844c-.141-2.086-.258-4.1-.328-6.024l4.054-.773h.023C877.554,330.371,877.718,332.34,877.906,334.379Z" fill="#fff"/><path d="M877.624,379.541h-19.9c.351-2.32.726-4.641,1.078-6.984H876.9C877.132,374.924,877.39,377.244,877.624,379.541Z" fill="#fff"/><path d="M877.413,328.426h-.023l-4.054.773h-.024c-.117-2.6-.187-5.038-.234-7.241h3.89C877.085,324.043,877.226,326.2,877.413,328.426Z" fill="#fff"/><path d="M876.968,321.958h-3.89V312h3.539C876.64,315.02,876.757,318.372,876.968,321.958Z" fill="#fff"/><path d="M876.9,372.557H858.8c.3-2.016.586-4.031.891-6.047h16.592C876.476,368.526,876.687,370.541,876.9,372.557Z" fill="#fff"/><path d="M876.617,307.4V312H864.945V307.4Z" fill="#fff"/><path d="M876.617,307.4H864.945l3.047-3.023V289.756h5.554V304.38Z" fill="#fff"/><path d="M876.288,366.51H859.7q.422-3.023.843-5.976H875.7C875.89,362.526,876.078,364.518,876.288,366.51Z" fill="#fff"/><path d="M849.641,425.242h26.273c-.3.586-.61,1.125-.868,1.617-1.406,2.578-5.6,13.007-5.6,13.007h-.023c.07-.4.14-.773.187-1.148.656-4.406,1.336-8.18-.281-8.484-.82-.164-1.8.8-2.766,2.25H848.188c.352-1.735.727-3.563,1.1-5.461.117-.586.234-1.172.328-1.781Z" fill="#fff"/><path d="M875.7,360.534H860.539c.352-2.508.68-5.016.985-7.476h13.5C875.234,355.518,875.468,358.026,875.7,360.534Z" fill="#fff"/><path d="M875.023,353.058h-13.5c.257-1.9.492-3.8.7-5.672h12.3C874.7,349.261,874.859,351.136,875.023,353.058Z" fill="#fff"/><path d="M874.531,347.386H862.25c.258-2.273.516-4.5.75-6.7h11.015C874.179,342.863,874.343,345.113,874.531,347.386Z" fill="#fff"/><path d="M874.015,340.683H863c.188-1.851.375-3.679.539-5.46h10.125C873.757,337,873.9,338.832,874.015,340.683Z" fill="#fff"/><path d="M873.664,335.223H863.539c.211-2.063.4-4.078.563-6.024h9.234C873.406,331.121,873.523,333.137,873.664,335.223Z" fill="#fff"/><path d="M873.312,329.2H864.1c.187-2.507.375-4.921.492-7.241h8.484C873.125,324.161,873.2,326.6,873.312,329.2Z" fill="#fff"/><rect width="4.594" height="9.96" transform="translate(868.484 311.997)" fill="#fff"/><path d="M872.984,264.093v25.663h-4.406V264.093h4.406Z" fill="#fff"/><path d="M864.594,321.958c-.117,2.32-.3,4.734-.492,7.241-.164,1.946-.352,3.961-.563,6.024-.164,1.781-.351,3.609-.539,5.46-.234,2.2-.492,4.43-.75,6.7h-.023c-.211,1.875-.446,3.773-.7,5.672-.3,2.46-.633,4.968-.985,7.476q-.422,2.953-.843,5.976c-.3,2.016-.586,4.031-.891,6.047-.352,2.343-.727,4.664-1.078,6.984q-.774,4.817-1.547,9.562c-.328,1.992-.68,3.961-1.008,5.929-.375,2.133-.726,4.266-1.1,6.351-.469,2.743-.961,5.414-1.453,8.039-.563,3.117-1.125,6.164-1.688,9.093-.445,2.321-.867,4.571-1.289,6.727h-.023c-.094.609-.211,1.2-.328,1.781h-.024s-4.617-4.594-8.976-4.805a5.015,5.015,0,0,0-1.031.047V388.189H819.291v35.318a6.989,6.989,0,0,0-1.242,4.617s-7.453-7.546-14.46-2.953c.726-1.242,1.265-2.39,1.711-3.328,1.781-3.8,6.234-17.882,5.179-31.451h.164s9.586-12.984,7.969-24.679c-1.149-8.179-5.344-16.874-20.226-15.89a7.744,7.744,0,0,1-4.664-1.148c-3.609-2.25-11.906-6.047-23.249-2.719-15.444,4.524-29.084,15.258-31.147,27.679-1.9,11.343-.14,23.975,6.7,32.764,5.6,7.2,14.765,14.6,18.234,17.062l-.844,17.038a53.933,53.933,0,0,0-12.4,2.133V420.976H738.6V408.157H715.21V443.5h-.023a6.279,6.279,0,0,0-1.664-2.063c-4.406-3.562-8.414-2.7-10.406-2.6.586-2.648.8-5.578-2.226-7.289-3.75-2.179-8.789.633-9.258.891.047-.305,1.43-6.867-3.351-8.531a4.473,4.473,0,0,0-.68-.211V380.549H664.236v36.138c-7.265,3.141-10.429,12.586-10.429,12.586.211-3.469-2.3-4.828-4.594-4.594h-.046V384.041H618.535V332.316H593.458V293.9h94.894c1.172,0,4.125-.75,4.008-2.507s-5.484-4.43-9.89-3.164a13.108,13.108,0,0,0-7.313-7.875,23.814,23.814,0,0,0-14.811-1.008,11.989,11.989,0,0,0-9.82-10.335c-9.4-1.945-17.038,1.922-18.937,6.82,0,0-1.757-7.547-9.281-2.391,0,0-3.89-8.038-12.936-8.3-9.023-.258-12.141,2.367-15.914,5.648V249.328H870.781v14.765h-2.2v25.663h-.586V304.38l-3.047,3.024V312C864.922,315.044,864.8,318.395,864.594,321.958Zm-26.788-39.842c.375-3.211-7.336-4.336-7.336-4.336,2.578-1.008,4.9-4.828,1.641-7.664-3.281-2.835-8.226.68-8.226.68-.75-2.531-7.172-7.617-15.82-7.8-8.671-.188-13.874,7.382-13.874,7.382-1.008-2.836-8.344-6.445-13.664-6.4-3.913.047-13.054.984-15.022,5.742-1.758,4.289,3.07,5.742,3.07,5.742-7.289-1.008-22.569,2.7-22.569,6.374,0,2.625,4.992,3.094,4.992,3.094H832.72C834.994,284.928,837.431,285.3,837.806,282.116Z" fill="#fff"/><path d="M868.484,312v9.961h-3.89c.211-3.563.328-6.914.351-9.961Z" fill="#fff"/><path d="M848.188,432.484h18.374a31.393,31.393,0,0,0-3.82,8.859H846.313C846.9,438.694,847.532,435.718,848.188,432.484Z" fill="#fff"/><path d="M862.742,441.343a.086.086,0,0,0-.023.07,42.267,42.267,0,0,0-1.172,7.64c-4.148-1.312-8.484,2.508-8.484,2.508a7.793,7.793,0,0,0-7.9-3.445l-.141-1.032c.4-1.687.821-3.632,1.289-5.741h16.429Z" fill="#fff"/><path d="M861.992,455.522a18.416,18.416,0,0,1-1.054,6.116l-.024.047c-2.2-.937-3.843-1.476-4.359-1.289-.773.282-2.3,2.25-4.312,5.32h-33.21a42.732,42.732,0,0,0-7.1-9.093c-.375-.375-.75-.75-1.125-1.1h51.185Z" fill="#fff"/><path d="M861.992,455.522H819.033s3.516-8.32,11.062-9.609c7.523-1.289,10.547,2.109,10.922,3.609a12.051,12.051,0,0,1,4.148-1.406,7.793,7.793,0,0,1,7.9,3.445s4.336-3.82,8.484-2.508a26.2,26.2,0,0,0,.375,5.437A6.277,6.277,0,0,1,861.992,455.522Z" fill="#fff"/><path d="M849.266,427.023h.024c-.375,1.9-.75,3.726-1.1,5.461-.656,3.234-1.289,6.21-1.875,8.859-.468,2.109-.89,4.054-1.289,5.741l.141,1.032a12.051,12.051,0,0,0-4.148,1.406c-.375-1.5-3.4-4.9-10.922-3.609-7.546,1.289-11.062,9.609-11.062,9.609h-8.226a52.81,52.81,0,0,0-21.21-12.68v-6.585c7.242-1.313,11.531-6.773,13.992-11.086,7.007-4.593,14.46,2.953,14.46,2.953a6.989,6.989,0,0,1,1.242-4.617c.938-1.1,2.531-1.945,5.273-2.156,6.024-.515,10.055,5.508,10.055,5.508a5.08,5.08,0,0,1,4.64-4.594,5.015,5.015,0,0,1,1.031-.047C844.649,422.429,849.266,427.023,849.266,427.023Z" fill="#fff"/><path d="M839.259,422.242v.023a5.08,5.08,0,0,0-4.64,4.594s-4.031-6.023-10.055-5.508c-2.742.211-4.335,1.055-5.273,2.156V388.189h19.968Z" fill="#fff"/><path d="M830.47,277.78s7.711,1.125,7.336,4.336c-.375,3.187-2.812,2.812-5.086,2.812H751s-4.992-.469-4.992-3.094c0-3.679,15.28-7.382,22.569-6.374,0,0-4.828-1.453-3.07-5.742,1.968-4.758,11.109-5.695,15.022-5.742,5.32-.047,12.656,3.562,13.664,6.4,0,0,5.2-7.57,13.874-7.382,8.648.187,15.07,5.273,15.82,7.8,0,0,4.945-3.515,8.226-.68C835.369,272.952,833.048,276.772,830.47,277.78Z" fill="#fff"/><path d="M795.363,467.638c-.68-3.89-1.36-7.312-1.992-10.288a136.688,136.688,0,0,0-3.774-14.508,52.81,52.81,0,0,1,21.21,12.68c.375.351.75.726,1.125,1.1a42.732,42.732,0,0,1,7.1,9.093c2.321,4.078,4.406,9.4,6.352,17.39H808.159v67.942h-7.734q.281-8.893.258-17.085c0-3.539-.047-6.961-.117-10.288-.118-4.1-.258-8.039-.446-11.812-.187-3.586-.4-7.008-.656-10.312-.3-4.149-.656-8.086-1.031-11.789-.4-3.656-.82-7.078-1.266-10.312-.3-2.367-.633-4.617-.961-6.75v-.046C795.925,470.9,795.644,469.232,795.363,467.638Z" fill="#fff"/><path d="M818.612,365.713c1.617,11.695-7.969,24.679-7.969,24.679h-.164a42.937,42.937,0,0,0-.633-4.9c-1.382-7.242-3.257-11.437-4.828-13.851a2.342,2.342,0,0,0-4.148.4c-1.617,4.1-4.992,10.453-10.781,11.882-8.648,2.133-16.053,1.9-18.936,2.766a13.4,13.4,0,0,0-6.8,4.218,4.056,4.056,0,0,1-4.664,1.383c-2.6-1.054-6.374-1.617-8.577,2.18-3.211,5.531.4,13.077,4.476,15.28,3.4,1.828,7.359,1.078,9.328.422l-.656,13.289c-3.469-2.461-12.633-9.867-18.234-17.062-6.843-8.789-8.6-21.421-6.7-32.764,2.063-12.421,15.7-23.155,31.147-27.679,11.343-3.328,19.64.469,23.249,2.719a7.744,7.744,0,0,0,4.664,1.148C813.268,348.839,817.463,357.534,818.612,365.713Z" fill="#221f1f"/><path d="M810.479,390.392c1.055,13.569-3.4,27.655-5.179,31.451-.446.938-.985,2.086-1.711,3.328-2.461,4.313-6.75,9.773-13.992,11.086-.047,0-.07.023-.117.023-9.421,1.641-17.952-5.273-21.093-9.913s-3.468-16.2-3.468-16.2c-1.969.656-5.93,1.406-9.328-.422-4.078-2.2-7.687-9.749-4.476-15.28,2.2-3.8,5.976-3.234,8.577-2.18a4.056,4.056,0,0,0,4.664-1.383,13.4,13.4,0,0,1,6.8-4.218c2.883-.867,10.288-.633,18.936-2.766,5.789-1.429,9.164-7.78,10.781-11.882a2.342,2.342,0,0,1,4.148-.4c1.571,2.414,3.446,6.609,4.828,13.851A42.937,42.937,0,0,1,810.479,390.392Zm-4.711,5.32c0-2.555-1.289-4.617-2.882-4.617s-2.906,2.062-2.906,4.617,1.312,4.617,2.906,4.617S805.768,398.266,805.768,395.712ZM789.6,428.8c6.4.188,6.117-6.4,6.117-6.4-8.507.375-13.546-2.344-13.546-2.344C781.7,424.679,783.2,428.617,789.6,428.8Zm-5.648-33.092c0-2.555-1.289-4.617-2.883-4.617s-2.882,2.062-2.882,4.617,1.289,4.617,2.882,4.617S783.949,398.266,783.949,395.712Z" fill="#fff"/><path d="M802.886,391.1c1.593,0,2.882,2.062,2.882,4.617s-1.289,4.617-2.882,4.617-2.906-2.063-2.906-4.617S801.292,391.1,802.886,391.1Z" fill="#221f1f"/><path d="M800.683,533.963q.035,8.191-.258,17.085h-4.219V533.963Z" fill="#c6c5c4"/><path d="M800.566,523.675h-4.36V511.863h3.914C800.308,515.636,800.448,519.573,800.566,523.675Z" fill="#c6c5c4"/><path d="M799.464,501.551h-3.258V489.762h2.227C798.808,493.465,799.159,497.4,799.464,501.551Z" fill="#c6c5c4"/><path d="M798.433,489.762h-2.227V479.45h.961C797.613,482.684,798.034,486.106,798.433,489.762Z" fill="#646565"/><path d="M776.379,551.048H757.818c-1.383-7.406.023-15.843.914-19.944a60.359,60.359,0,0,1,8.835.726q1.2.177,2.461.422a56.528,56.528,0,0,1,6.867,1.711,36.861,36.861,0,0,1,3.867,1.43c6.8,2.859,13.1,7.64,15.444,15.655H776.379Z" fill="#fff"/><path d="M795.714,422.406s.281,6.586-6.117,6.4-7.9-4.125-7.429-8.742C782.168,420.062,787.207,422.781,795.714,422.406Z" fill="#221f1f"/><rect width="15.445" height="10.289" transform="translate(780.762 523.674)" fill="#555"/><rect width="15.445" height="10.312" transform="translate(780.762 501.551)" fill="#555"/><rect width="15.445" height="10.312" transform="translate(780.762 479.45)" fill="#555"/><path d="M795.363,467.638h-14.6V457.35h12.609C794,460.326,794.683,463.748,795.363,467.638Z" fill="#555"/><path d="M770.028,448.842a23.954,23.954,0,0,1-6.586-8.273.184.184,0,0,1-.023-.07l.844-17.038.656-13.289s.328,11.554,3.468,16.2,11.672,11.554,21.093,9.913c.047,0,.07-.023.117-.023v6.585c-.867,5.953-5.179,7.945-8.835,8.508a18.29,18.29,0,0,1-3.773.187A12.557,12.557,0,0,1,770.028,448.842Z" fill="#fff"/><ellipse cx="2.883" cy="4.617" rx="2.883" ry="4.617" transform="translate(778.184 391.095)" fill="#221f1f"/><rect width="10.734" height="11.812" transform="translate(770.028 511.863)" fill="#c6c5c4"/><rect width="10.734" height="11.788" transform="translate(770.028 489.762)" fill="#c6c5c4"/><rect width="10.734" height="11.812" transform="translate(770.028 467.638)" fill="#c6c5c4"/><path d="M780.762,451.35v6H770.028v-8.508a12.557,12.557,0,0,0,6.961,2.695A18.29,18.29,0,0,0,780.762,451.35Z" fill="#c6c5c4"/><path d="M770.028,523.675v8.577q-1.266-.246-2.461-.422c.258-2.742.492-5.46.68-8.155Z" fill="#646565"/><path d="M770.028,511.863v11.812h-1.781q.387-6.012.562-11.812h1.219Z" fill="#c6c5c4"/><path d="M770.028,479.45v10.312h-1.266c-.117-3.586-.3-7.031-.515-10.312h1.781Z" fill="#646565"/><path d="M770.028,467.638V479.45h-1.781c-.281-4.218-.61-8.179-.961-11.812h2.742Z" fill="#c6c5c4"/><path d="M800.683,533.963h-4.477V523.675h4.36C800.636,527,800.683,530.424,800.683,533.963Z" fill="#888"/><path d="M800.12,511.863h-3.914V501.551h3.258C799.722,504.855,799.933,508.277,800.12,511.863Z" fill="#888"/><path d="M796.206,533.963v17.085c-2.343-8.015-8.648-12.8-15.444-15.655v-1.43Z" fill="#888"/><rect width="15.445" height="11.812" transform="translate(780.762 511.863)" fill="#888"/><rect width="15.445" height="11.788" transform="translate(780.762 489.762)" fill="#888"/><path d="M796.206,472.7v6.75H780.762V467.638h14.6c.281,1.594.562,3.258.843,5.016Z" fill="#888"/><path d="M793.371,457.35H780.762v-6c3.656-.563,7.968-2.555,8.835-8.508A136.688,136.688,0,0,1,793.371,457.35Z" fill="#888"/><path d="M780.762,523.675v10.288H776.9a56.528,56.528,0,0,0-6.867-1.711v-8.577Z" fill="#888"/><rect width="10.734" height="10.312" transform="translate(770.028 501.551)" fill="#888"/><rect width="10.734" height="10.312" transform="translate(770.028 479.45)" fill="#888"/><rect width="10.734" height="10.289" transform="translate(770.028 457.35)" fill="#888"/><path d="M770.028,457.35v10.288h-2.742c-.375-3.773-.774-7.218-1.148-10.288Z" fill="#888"/><path d="M770.028,448.842v8.508h-3.89c-1.289-9.891-2.555-16.031-2.7-16.781A23.954,23.954,0,0,0,770.028,448.842Z" fill="#c6c5c4"/><path d="M758.732,531.1c-.891,4.1-2.3,12.538-.914,19.944H736.209v11.226H702.953c-.609-46.638,6.211-71.645,14.015-87.441a101.276,101.276,0,0,1,5.039-8.929c.351-.539.7-1.055,1.031-1.57a60.42,60.42,0,0,1,7.054-8.812,48.187,48.187,0,0,1,20.929-12.867v-.023a53.933,53.933,0,0,1,12.4-2.133.184.184,0,0,0,.023.07c.141.75,1.407,6.89,2.7,16.781.374,3.07.773,6.515,1.148,10.288.351,3.633.68,7.594.961,11.812.211,3.281.4,6.726.515,10.312.141,3.773.211,7.734.211,11.789.024,3.374-.023,6.8-.164,10.312q-.176,5.8-.562,11.812c-.188,2.7-.422,5.413-.68,8.155A60.359,60.359,0,0,0,758.732,531.1Z" fill="#fff"/><path d="M738.6,420.976h12.421v21.679a48.187,48.187,0,0,0-20.929,12.867H716.945s.726-7.547-1.758-12.023h.023V408.157H738.6Z" fill="#fff"/><path d="M691.633,432.437c.469-.258,5.508-3.07,9.258-.891,3.023,1.711,2.812,4.641,2.226,7.289,1.992-.094,6-.961,10.406,2.6a6.279,6.279,0,0,1,1.664,2.063c2.484,4.476,1.758,12.023,1.758,12.023H642.7s3.844-12.961-7.453-14.789c1.453-2.789,2.766-6.632.75-8.976a5.376,5.376,0,0,0-.75-.726s.961-5.321,6.141-4.758a4.431,4.431,0,0,1,3.351,2.461s1.453-3.7,4.43-4.055h.046c2.3-.234,4.8,1.125,4.594,4.594,0,0,3.164-9.445,10.429-12.586a12.211,12.211,0,0,1,3.8-.96,11.741,11.741,0,0,1,13.1,10.5A5.773,5.773,0,0,1,687.6,423.7a4.473,4.473,0,0,1,.68.211C693.063,425.57,691.68,432.132,691.633,432.437Z" fill="#fff"/><path d="M716.335,474.528l.633.3c-7.8,15.8-14.624,40.8-14.015,87.441H658.33c-2.976-26.741-3.047-63.512,7.476-76.848C679.165,468.529,716.335,474.528,716.335,474.528Z" fill="#fff"/><path d="M692.36,291.4c.117,1.757-2.836,2.507-4.008,2.507H593.458V270.8c3.773-3.281,6.891-5.906,15.914-5.648,9.046.258,12.936,8.3,12.936,8.3,7.524-5.156,9.281,2.391,9.281,2.391,1.9-4.9,9.539-8.765,18.937-6.82a11.989,11.989,0,0,1,9.82,10.335,23.814,23.814,0,0,1,14.811,1.008,13.108,13.108,0,0,1,7.313,7.875C686.876,286.967,692.243,289.639,692.36,291.4Z" fill="#fff"/><path d="M687.6,380.549V423.7a5.773,5.773,0,0,0-6.468,2.531,11.741,11.741,0,0,0-13.1-10.5,12.211,12.211,0,0,0-3.8.96V380.549Z" fill="#fff"/><path d="M618.535,384.041h30.632v40.638c-2.977.352-4.43,4.055-4.43,4.055a4.431,4.431,0,0,0-3.351-2.461c-5.18-.563-6.141,4.758-6.141,4.758-3.328-2.649-7.991.515-7.991.515s2.46-8.531-1.711-11.343c-2.672-1.781-8.25-.75-11.39,3.4,0,0,.679-4.64-1.149-6.328a4.957,4.957,0,0,0-6.749.328c.4-.679,5.085-8.858-.024-13.546-5.25-4.8-12.773.938-12.773.938V332.316h25.077Z" fill="#fff"/><path d="M606.255,417.6a4.957,4.957,0,0,1,6.749-.328c1.828,1.688,1.149,6.328,1.149,6.328,3.14-4.148,8.718-5.179,11.39-3.4,4.171,2.812,1.711,11.343,1.711,11.343s4.663-3.164,7.991-.515a5.376,5.376,0,0,1,.75.726c2.016,2.344.7,6.187-.75,8.976,11.3,1.828,7.453,14.789,7.453,14.789h-49.24V404.993s7.523-5.742,12.773-.938C611.34,408.743,606.653,416.922,606.255,417.6Z" fill="#fff"/><path d="M453.777,459.646c.211,11.179.821,72.091-5.46,102.628H405.053c.117-5.859.117-20.272,0-25.569,16.359,7.242,34.873,12.211,36.162-1.547,3.586-38.224-26.694-75.418-40.052-85.1-12.258-8.906-20.929-10.851-28.874-12.046v-.024c-1.336-.187-2.625-.375-3.937-.562a.023.023,0,0,1-.024-.024c-5.2-3.562-7.406-10.218-8.32-14.671h.047c7.687-.094,16.968-.023,26.624.422,1.992,4.265,4.523,7.945,7.711,9.89a18.57,18.57,0,0,0,20.3-.422V432.6a11.241,11.241,0,0,0,7.265-.4,23.165,23.165,0,0,0,6.585-3.8c3.094.773,6.633,1.429,10.5,3.539C453.285,439.725,453.543,447.577,453.777,459.646Z" fill="#fff"/><path d="M394.882,491.075c-3.4-2.6-6.258-4.641-8.789-6.305-.07-2.109-.633-23.2-1.711-25.171-.258-.468-3.187-.726-7.546-.8v-.024c-2.3-10.734-4.57-20.694-4.57-20.694l.023-.07c7.945,1.195,16.616,3.14,28.874,12.046,13.358,9.679,43.638,46.873,40.052,85.1-1.289,13.758-19.8,8.789-36.162,1.547a230.773,230.773,0,0,1-25.147-13.218,32.872,32.872,0,0,1,1.031-5.156C383.914,507.644,391.741,495.621,394.882,491.075Z" fill="#fff"/><path d="M414.686,432.6v.023a18.57,18.57,0,0,1-20.3.422c-3.188-1.945-5.719-5.625-7.711-9.89-4.9-10.359-6.586-24.116-6.586-24.116l-.421-.164a52.491,52.491,0,0,0,2.226-26.554,35.817,35.817,0,0,0-6.351-13.8c3.515-5.671-3.844-11.648-5.625-12.913,0,0,10.8-11.718,23.624-10.546a25.807,25.807,0,0,1,11.109,3.7,27.35,27.35,0,0,1,8.038,7.524c4.524,6.3,7.266,15.374,6.492,27.467-1.617,25.428-1.242,37.85,1.383,41.061a13.137,13.137,0,0,0,12.679,4.593c1.711-.3.445,4.758-4.711,9a23.165,23.165,0,0,1-6.585,3.8A11.241,11.241,0,0,1,414.686,432.6Z" fill="#221f1f"/><path d="M412.693,322.637v23.648a27.35,27.35,0,0,0-8.038-7.524V247.383H71.2V456.811h136.47l.117-.047a6.837,6.837,0,0,0,.445,1.007,1.806,1.806,0,0,0,.235.329s-1.875-.586-2.625.445c-.656.914-.422,3.023.445,4.148a3.22,3.22,0,0,0,.3.352l-.024.023s-2.3,0-2.976,1.406a.216.216,0,0,0-.023.117H63.163V239.6h349.53Z" fill="#fff"/><path d="M405.053,536.705c.117,5.3.117,19.71,0,25.569H358.719c0-.492.024-1.008.024-1.547V560.7c2.39-7.617,11.46-31.241,16.124-43.943a11.3,11.3,0,0,0,1.852-.75c2.367,1.336,4.218,2.32,4.218,2.32a32.872,32.872,0,0,0-1.031,5.156A230.773,230.773,0,0,0,405.053,536.705Z" fill="#fff"/><path d="M348.806,483.153c-2.836-1.758-4.523-3.375-3.891-4.711.961-2.039,6.633-.726,10.711.422,0,0-2.672-2.765-2.109-4.476,1.265-3.867,16.335,1.9,21.045,4.007a80.257,80.257,0,0,1,11.531,6.375c2.531,1.664,5.39,3.7,8.789,6.305-3.141,4.546-10.968,16.569-13.945,27.256,0,0-1.851-.984-4.218-2.32-2.274-1.266-5.039-2.859-7.078-4.172-4.148-2.625-19.148-13.171-19.921-15.491a3.49,3.49,0,0,1,1.758-4.336c-2.227-1.664-5.016-4.453-5.274-6.093A2.272,2.272,0,0,1,348.806,483.153Z" fill="#fff"/><path d="M384.382,459.6c1.078,1.969,1.641,23.062,1.711,25.171a80.257,80.257,0,0,0-11.531-6.375c-4.71-2.109-19.78-7.874-21.045-4.007-.563,1.711,2.109,4.476,2.109,4.476-4.078-1.148-9.75-2.461-10.711-.422-.632,1.336,1.055,2.953,3.891,4.711a2.272,2.272,0,0,0-2.6,2.766c.258,1.64,3.047,4.429,5.274,6.093a3.49,3.49,0,0,0-1.758,4.336c.773,2.32,15.773,12.866,19.921,15.491,2.039,1.313,4.8,2.906,7.078,4.172a11.3,11.3,0,0,1-1.852.75c-3.726,1.336-9.351,2.133-15.046,2.507-9.89.68-20.038.165-21.14-.96a.835.835,0,0,1-.14-.211c-.844-1.711-2.227-11.461-3.422-22.312v-.023c-1.594-14.414-2.906-30.725-2.273-32.694.234-.726,2.554-1.383,6.07-1.969a234.582,234.582,0,0,1,25.592-2.109c4.594-.187,8.883-.258,12.328-.187C381.2,458.873,384.124,459.131,384.382,459.6Z" fill="#fff"/><path d="M380.093,399.04s1.688,13.757,6.586,24.116c-9.656-.445-18.937-.516-26.624-.422h-.047a38.8,38.8,0,0,1-.609-4.453v-.023c11.109-3.235,17.156-10.969,20.273-19.382Z" fill="#fff"/><path d="M311.308,358.495a42.751,42.751,0,0,1,12.655-11.671c13.476-7.617,31.4-4.336,39.959.773a11.335,11.335,0,0,1,1.477.937,45.907,45.907,0,0,1,10.148,9.984,35.817,35.817,0,0,1,6.351,13.8,52.491,52.491,0,0,1-2.226,26.554c-3.117,8.413-9.164,16.147-20.273,19.382a37.709,37.709,0,0,0,1.172-7.148,11.98,11.98,0,0,0,12.351-7.195c2.015-4.9-.609-11.648-5.086-12.258-2.625-.375-5.273,2.367-6.773,4.266a1.012,1.012,0,0,1-1.758-.328c-3.562-11.929-18.327-16.429-27.233-20.507-6.7-3.094-10.359-9.7-11.9-13.265a1.1,1.1,0,0,0-2.016.023c-2.484,5.719-8.2,21.07-7.054,38.084h-.024s-10.546-6.866-10.546-16.171a27.351,27.351,0,0,1,1.594-7.851A65.069,65.069,0,0,1,311.308,358.495Z" fill="#221f1f"/><path d="M376.836,458.779v.024c-3.445-.071-7.734,0-12.328.187v-.023c.446-3.352.938-6.586,1.453-9.68.7-4.242,1.477-8.179,2.344-11.765.023-.023.023-.07.047-.093,1.312.187,2.6.375,3.937.562v.024l-.023.07S374.539,448.045,376.836,458.779Z" fill="#fff"/><path d="M369.922,345.605c1.781,1.265,9.14,7.242,5.625,12.913a45.907,45.907,0,0,0-10.148-9.984,11.335,11.335,0,0,0-1.477-.937l.024-.023S368,344.269,369.922,345.605Z" fill="#fff"/><path d="M367.836,391.657c4.477.61,7.1,7.359,5.086,12.258a11.98,11.98,0,0,1-12.351,7.195,37.709,37.709,0,0,1-1.172,7.148v.023a23.615,23.615,0,0,1-4.547,9.351c-3.7,4.219-9.7,7.242-14.975,8.719a26.221,26.221,0,0,1-6.117,1.054c-3.844.117-9.914-2.039-15-10.616-2.624-4.43-4.992-10.547-6.656-18.937a58.233,58.233,0,0,1-.937-6.867,7.944,7.944,0,0,1-.07-1.055c-1.149-17.014,4.57-32.365,7.054-38.084a1.1,1.1,0,0,1,2.016-.023c1.546,3.562,5.2,10.171,11.9,13.265,8.906,4.078,23.671,8.578,27.233,20.507a1.012,1.012,0,0,0,1.758.328C362.563,394.024,365.211,391.282,367.836,391.657Zm-21.96,5.836c0-2.461-.984-4.429-2.2-4.429s-2.2,1.968-2.2,4.429c0,2.437.985,4.43,2.2,4.43S345.876,399.93,345.876,397.493Zm-23.975,0c0-2.461-.984-4.429-2.18-4.429-1.218,0-2.2,1.968-2.2,4.429,0,2.437.985,4.43,2.2,4.43C320.917,401.923,321.9,399.93,321.9,397.493Z" fill="#fff"/><path d="M368.328,437.4c0,.047-.023.071-.023.117-3.539,7.313-11.109,16.125-19.921,14.32-2.578-.539-4.172-4.617-4.523-6.234a26.256,26.256,0,0,0-1.875-5.531v-.023a22.869,22.869,0,0,0-2.109-3.7c5.273-1.477,11.272-4.5,14.975-8.719a23.615,23.615,0,0,0,4.547-9.351,38.8,38.8,0,0,0,.609,4.453C360.922,427.187,363.125,433.843,368.328,437.4Z" fill="#fff"/><path d="M374.867,516.761c-4.664,12.7-13.734,36.326-16.124,43.943.047-3.375.094-7.687.211-12.679.07-3.117.14-6.539.258-10.148.117-4.383.257-9.093.445-13.992.047-1.523.094-3.07.164-4.617C365.516,518.894,371.141,518.1,374.867,516.761Z" fill="#fff"/><ellipse cx="2.203" cy="4.429" rx="2.203" ry="4.429" transform="translate(341.47 393.064)" fill="#221f1f"/><path d="M341.986,440.054v.023a28.269,28.269,0,0,0-3.914.375A39.037,39.037,0,0,0,312.69,455.5s-1.734-18.187.516-23.788a11.741,11.741,0,0,1,.586-1.219c.961-1.781,2.32-2.882,4.945-3.679l.023-.023c5.086,8.577,11.156,10.733,15,10.616a26.221,26.221,0,0,0,6.117-1.054A22.869,22.869,0,0,1,341.986,440.054Z" fill="#fff"/><path d="M333.033,531.409c-.14,4.523-.211,9.046-.211,13.546q0,5.2.141,10.335c.047,2.344.117,4.664.211,6.984-3.68-8.788-13.054-47.857-13.171-52.732-.094-4.429,9.7-12.14,9.679-14.319-.024-1.641-8.2-4.594-11.508-7.641a3.862,3.862,0,0,1-1.359-2.132c-.4-3.047,11.2-29.952,21.28-44.811l-.023-.187a28.269,28.269,0,0,1,3.914-.375c-.82,5.062-1.664,10.664-2.484,16.663-.188,1.43-.4,2.883-.586,4.359-3.516.586-5.836,1.243-6.07,1.969-.633,1.969.679,18.28,2.273,32.694v.023c-.68,7.734-1.242,15.726-1.641,23.788C333.291,523.51,333.127,527.448,333.033,531.409Z" fill="#fff"/><path d="M338.072,440.452l.023.187c-10.077,14.859-21.678,41.764-21.28,44.811a3.862,3.862,0,0,0,1.359,2.132l-4.968,4.43s-1.312,8.226-2.391,21.515c0,0-10.546,16.358-21.186,17.858-11.2,1.594-59.294-32.436-59.294-35.834,0-.656.75-2.109,1.945-4.008,1.828-2.859,4.734-6.773,7.781-10.593a122.665,122.665,0,0,1,9.867-11.085,6.011,6.011,0,0,1,2.32-1.618c2.695-.187,29.131,24.773,35.061,23.906,4.382-.657,11.9-15.328,19.382-27.538,1.687-2.789,3.375-5.461,5.038-7.8.329-.446.633-.891.961-1.313A39.037,39.037,0,0,1,338.072,440.452Z" fill="#fff"/><path d="M333.174,562.274h-23.53a421.593,421.593,0,0,1,1.171-48.747c1.079-13.289,2.391-21.515,2.391-21.515l4.968-4.43c3.3,3.047,11.484,6,11.508,7.641.023,2.179-9.773,9.89-9.679,14.319C320.12,514.417,329.494,553.486,333.174,562.274Z" fill="#fff"/><path d="M319.721,393.064c1.2,0,2.18,1.968,2.18,4.429,0,2.437-.984,4.43-2.18,4.43-1.218,0-2.2-1.993-2.2-4.43C317.518,395.032,318.5,393.064,319.721,393.064Z" fill="#221f1f"/><path d="M238.538,456.811h73.191c-1.663,2.343-3.351,5.015-5.038,7.8l-.024-.024H246.342a53.01,53.01,0,0,0-3.82-4.8A19.069,19.069,0,0,0,238.538,456.811Z" fill="#fff"/><path d="M246.342,464.591c1.969,2.719,3.586,5.274,3.586,5.274a122.665,122.665,0,0,0-9.867,11.085l-.305-.258a6.908,6.908,0,0,0,.352-8.109l-2.953-4.5-.024-.023c-.328-.3-2.859-2.766-4.288-3.961-1.5-1.242-11.555-8.46-10.219-11.109.586-1.171,3-1.1,5.977-.328a40.874,40.874,0,0,1,9.937,4.149,19.069,19.069,0,0,1,3.984,2.976A53.01,53.01,0,0,1,246.342,464.591Z" fill="#fff"/><path d="M240.108,472.583a6.908,6.908,0,0,1-.352,8.109,6.833,6.833,0,0,1-5.437,2.625H210.7a6.93,6.93,0,0,1-5.789-10.734l1.43-2.179c1.242.89,2.742,1.593,3.633,1.289,1.64-.516,2.2-3.3,1.921-3.8a1.944,1.944,0,0,0,1.36.258c1.734-.563,1.851-3.984,1.476-5.25a1.83,1.83,0,0,0,1.688.117c1.57-1.078,1.336-4.359.7-5.461.89.61,1.617.938,2.015.7,1.5-.891.867-5.789-.281-7.523a13.5,13.5,0,0,0-2.437-2.625V435.554h-3.305a2.2,2.2,0,1,1,0-4.406h18.8a2.2,2.2,0,0,1,0,4.406h-3.3v17.108c-2.977-.773-5.391-.843-5.977.328-1.336,2.649,8.719,9.867,10.219,11.109,1.429,1.2,3.96,3.656,4.288,3.961l.024.023Z" fill="#fff"/><path d="M239.756,480.692l.305.258c-3.047,3.82-5.953,7.734-7.781,10.593,0,0-4.031-2.2-7.453-8.226h9.492A6.833,6.833,0,0,0,239.756,480.692Z" fill="#fff"/><path d="M218.851,450.741c1.148,1.734,1.781,6.632.281,7.523-.4.234-1.125-.094-2.015-.7v-.023a43.177,43.177,0,0,1-5.578-5.25c-.094-.117-.188-.234-.281-.375-1.031-1.546-.938-4.289-.235-5.132,1.219-1.43,3.539-.258,5.391,1.336A13.5,13.5,0,0,1,218.851,450.741Z" fill="#fff"/><path d="M217.117,457.56c.633,1.1.867,4.383-.7,5.461a1.83,1.83,0,0,1-1.688-.117,20.2,20.2,0,0,1-6.257-4.8,1.806,1.806,0,0,1-.235-.329,6.837,6.837,0,0,1-.445-1.007c-.515-1.5-.726-3.539-.117-4.36.937-1.265,3.586-.492,3.586-.492.093.141.187.258.281.375a43.177,43.177,0,0,0,5.578,5.25Z" fill="#fff"/><path d="M214.726,462.9c.375,1.266.258,4.687-1.476,5.25a1.944,1.944,0,0,1-1.36-.258c-1.828-.914-4.335-3.656-5.3-4.851a3.22,3.22,0,0,1-.3-.352c-.867-1.125-1.1-3.234-.445-4.148.75-1.031,2.625-.445,2.625-.445A20.2,20.2,0,0,0,214.726,462.9Z" fill="#fff"/><path d="M203.571,464.591a.216.216,0,0,1,.023-.117c.68-1.406,2.976-1.406,2.976-1.406l.024-.023c.961,1.195,3.468,3.937,5.3,4.851.282.492-.281,3.281-1.921,3.8-.891.3-2.391-.4-3.633-1.289a7.824,7.824,0,0,1-1.992-1.8C203.735,467.591,203.125,465.669,203.571,464.591Z" fill="#fff"/><path d="M776.835,533.963h3.927v1.43A23.685,23.685,0,0,0,776.835,533.963Z" fill="#c6c5c4"/><path d="M359.141,540.01c-.117,4.57-.211,8.765-.281,12.444l-26.014-6.187c-.024-4.265.023-8.554.117-12.843h.023Z" fill="#808081"/><path d="M338.681,518.308c1.1,1.125,11.25,1.64,21.14.96-.141,3.328-.258,6.586-.352,9.75h-.046l-26.038-7.312c.4-8.789,1.007-17.484,1.734-25.921C336.385,507.246,337.861,517.487,338.681,518.308Z" fill="#808081"/><path d="M340.041,452.92l22.335,6.14a230.893,230.893,0,0,0-23.46,2.039C339.291,458.287,339.666,455.568,340.041,452.92Z" fill="#808081"/><path d="M358.719,562.274H333.174c-.211-5.3-.328-10.616-.328-16.007l26.014,6.187c-.047,3.141-.094,5.93-.117,8.25v.023C358.743,561.266,358.719,561.782,358.719,562.274Z" fill="#fff"/><path d="M359.423,529.018h.046c-.14,3.844-.234,7.547-.328,10.992l-26.155-6.586h-.023c.094-3.914.234-7.828.422-11.718Z" fill="#fff"/><path d="M362.376,459.06l-22.335-6.14q.984-6.855,1.945-12.843a26.256,26.256,0,0,1,1.875,5.531c.351,1.617,1.945,5.7,4.523,6.234,8.812,1.8,16.382-7.007,19.921-14.32a217.164,217.164,0,0,0-3.8,21.445v.023Z" fill="#fff"/><circle cx="11.02" cy="11.02" r="11.02" transform="translate(358.9 262.42)" fill="#fff"/><path d="M309.94,400.59c.08,1.04.18,2.08.31,3.13-3.31-1.71-9.86-4.98-13.72-6.16a102.829,102.829,0,0,0-18.15-2.97c-4.55-.32-11.83-1.82-13.81-4.15a1.389,1.389,0,0,1-.43-1.09c.22-2.52,7.1-4.88,10.13-4.88h19.95a1.16,1.16,0,0,0,.97-1.81l-5.18-7.85h11.26a29.125,29.125,0,0,0-1.92,8.95C299.35,392.5,307.77,399.04,309.94,400.59Z" fill="#fff"/><path d="M310.95,408.07a63.457,63.457,0,0,0,6.11,18.1,7.757,7.757,0,0,0-3.92,3.13c-7.72-.21-35.63-3.74-47.2-8.67a256.913,256.913,0,0,1-37.68-19.74q-6.33-3.975-12.4-7.25h32.68a1.17,1.17,0,0,0,.97-1.82l-4.91-7.35h21.2c-2.13,1.15-3.82,2.72-3.99,4.67a3.718,3.718,0,0,0,.98,2.82c2.77,3.26,11.3,4.68,15.42,4.97a101.133,101.133,0,0,1,17.63,2.87c4.36,1.32,12.69,5.65,14.83,6.77C310.76,407.07,310.85,407.57,310.95,408.07Z" fill="#fff"/><path d="M231.91,436.73a3.375,3.375,0,0,0,0-6.75H213.12a3.375,3.375,0,1,0,0,6.75h2.13v9.11a6.007,6.007,0,0,0-2.56-.87,1.925,1.925,0,0,0-.24-.01,2.959,2.959,0,0,0-2.31,1.06,5.805,5.805,0,0,0-.67,4.49,3.33,3.33,0,0,0-2.73,1.2,5.375,5.375,0,0,0-.44,3.93H181.11c-3.63,0-8.31-1.11-9.49-2.76a1.133,1.133,0,0,1-.15-1.15c.34-.99,3.98-2.21,6.39-3.02,4.53-1.52,9.22-3.09,8.55-6.39-.51-2.48-5.48-3.86-13.53-5.91-2.71-.68-5.26-1.33-7.07-1.96-5.67-1.97-8.94-4.87-9.14-6.59-.41-3.43,7.76-6.89,15.57-8.12,2.66-.42,6.53-.6,10.27-.76,5.17-.24,10.51-.48,13.45-1.38a7.634,7.634,0,0,0,5.28-5.51,7.993,7.993,0,0,0-2.36-7.65c-3.58-3.5-13.52-5.29-21.52-6.73-2.58-.46-4.8-.86-6.25-1.23-4.95-1.27-10.74-4.44-10.79-9.18a5.666,5.666,0,0,1,1.85-4.32,10.435,10.435,0,0,1,7.38-2.6h.06c2.63.29,5.29.69,7.98,1.23a127.457,127.457,0,0,1,32.85,11.83,1.008,1.008,0,0,0,.23.12q7.95,4.035,16.34,9.32a260.5,260.5,0,0,0,38.02,19.91c11.31,4.82,37.83,8.33,46.98,8.8-1.99,5.64-.79,20.7-.53,23.56-.12.16-.24.32-.36.49H238.86a43.706,43.706,0,0,0-9.08-3.86V436.73Z" fill="#fff"/><path d="M123.16,355.82a33.484,33.484,0,0,1,2.57,14.84,188.282,188.282,0,0,0-22.29,3.53c-1.29.26-2.43.49-3.4.68-5.5,1.05-22.9,1.86-27.67,2.06V248.56H403.49v88.15a27.472,27.472,0,0,0-9.83-2.82c-11.71-1.04-21.56,7.87-24.02,10.32-2.01-.5-4.54,1.06-5.79,1.96-9.23-5.09-27.16-7.89-40.46-.36a36.54,36.54,0,0,0-7.11,5.34l-32.12-47.36a.175.175,0,0,0-.04-.05.527.527,0,0,0-.12-.14.857.857,0,0,0-.81-.32.749.749,0,0,0-.21.02l-.12.03a.471.471,0,0,0-.15.06.953.953,0,0,0-.3.19.86.86,0,0,0-.18.2c-.01.01-.01.02-.02.03l-20.02,28.88-27.33-41.38a1.053,1.053,0,0,0-.07-.11,1.287,1.287,0,0,0-.16-.17,1.153,1.153,0,0,0-1.57,0,.613.613,0,0,0-.17.19.231.231,0,0,0-.05.07l-25.09,38.02-14.32-21.42c-.01-.02-.03-.05-.04-.07a.176.176,0,0,0-.04-.05,1.175,1.175,0,0,0-.41-.35,1.8,1.8,0,0,0-.21-.08h-.02a.142.142,0,0,0-.06-.02.246.246,0,0,0-.12-.01.855.855,0,0,0-.32.01.606.606,0,0,0-.18.05.407.407,0,0,0-.19.08.669.669,0,0,0-.19.14.852.852,0,0,0-.16.17l-.03.03-45.78,63.98a102.5,102.5,0,0,0-11.82-1.27c-.25-7.77-4.41-13.46-7.42-16.6a23.154,23.154,0,0,1,5.35.8,2.192,2.192,0,0,0,.76.08,2.34,2.34,0,0,0,.51-4.59,27.286,27.286,0,0,0-4.12-.81.251.251,0,0,1,.07-.04,13.218,13.218,0,0,1,2.84-1,2.346,2.346,0,1,0-.87-4.61,14.816,14.816,0,0,0-2.03.57,2.341,2.341,0,0,0-4.02-2.37,37,37,0,0,0-3.58,6.54,19.246,19.246,0,0,0-7.15-1.28,2.3,2.3,0,0,0-2.3,2.38,2.354,2.354,0,0,0,2.39,2.31,13.767,13.767,0,0,1,1.97.12,21.878,21.878,0,0,0-3.03,2.21,2.343,2.343,0,0,0-.19,3.31,2.349,2.349,0,0,0,3.3.2,15.265,15.265,0,0,1,1.53-1.17,14.511,14.511,0,0,0-.53,2.35,2.349,2.349,0,0,0,2.05,2.61,2.707,2.707,0,0,0,.4.01,2.333,2.333,0,0,0,2.2-2.06A14.353,14.353,0,0,1,123.16,355.82Zm260.12-82.38a13.365,13.365,0,1,0-13.36,13.37A13.371,13.371,0,0,0,383.28,273.44Z" fill="#fff"/><path d="M103.91,376.48c7.13-1.46,19.05-3.92,28.34-3.68.15,0,.3.01.45.01a98.008,98.008,0,0,1,13.29,1.38c.02,0,.04.01.06.01a56.176,56.176,0,0,1,13.49,3.77c-16.82,1.49-34.56,10.18-42.88,14.25-1.69.83-2.98,1.46-3.79,1.8-5.42,2.26-8.52,2.43-11.5,1.99a1.189,1.189,0,0,0-1.33.99,1.174,1.174,0,0,0,.99,1.33c3.99.58,7.68-.04,12.74-2.15.83-.35,2.17-1,3.92-1.86,8.57-4.18,27.32-13.35,44.29-14.17a9.461,9.461,0,0,0-1.43,1.13,8.109,8.109,0,0,0-2.58,6.05c.07,6.06,6.53,9.87,12.56,11.42,1.53.39,3.79.8,6.42,1.27,6.86,1.24,17.23,3.1,20.3,6.09a5.727,5.727,0,0,1,1.71,5.43,5.26,5.26,0,0,1-3.69,3.82c-2.65.81-7.84,1.05-12.86,1.27-3.98.18-7.74.35-10.54.79-6.38,1.01-18.25,4.55-17.53,10.71.43,3.7,6.03,6.91,10.7,8.53,1.9.66,4.51,1.33,7.26,2.03,3.93.99,11.25,2.85,11.81,4.1.26,1.27-4.28,2.79-7,3.7-3.83,1.29-7.14,2.4-7.86,4.47a3.494,3.494,0,0,0,.46,3.28,5.46,5.46,0,0,0,1.53,1.4H72.37V379.28c4.71-.2,22.34-1,28.11-2.11C101.46,376.98,102.61,376.75,103.91,376.48Z" fill="#fff"/><path d="M263.59,334.8l16.71-24.13-9.46,35.12Z" fill="#fff"/><path d="M314.58,352.83a63.739,63.739,0,0,0-12.42,19.63H288.45L272.57,348.4l11.09-41.18Z" fill="#fff"/><path d="M231.7,297.28l-9.51,53.64-13.03-19.5Z" fill="#fff"/><path d="M234.49,294.98l26.64,40.34,9.13,13.83.12.18,16.56,25.07,5.1,7.73H244.08a1.156,1.156,0,0,0-.82.34l-19.2-28.74Z" fill="#fff"/><path d="M190.18,313.6,176.9,379.09c-2.34-.43-4.66-.78-6.96-1.02a.22.22,0,0,0-.08-.01.5.5,0,0,0-.12-.02h-.11c-.34-.04-.68-.08-1.02-.11a43.741,43.741,0,0,0-5.01-.18c-2.78-2.39-8.82-4.27-15.36-5.53Z" fill="#fff"/><path d="M206.72,331.98l15.1,22.61a1.523,1.523,0,0,0,.11.16l20.03,29.98,4.38,6.56H211.37a131.3,131.3,0,0,0-32.17-11.75L193,311.46Z" fill="#fff"/><path d="M128.09,370.52a34.81,34.81,0,0,0-1.88-13.29,22.531,22.531,0,0,1,5.3,13.21C130.4,370.43,129.25,370.46,128.09,370.52Z" fill="#fff"/><path d="M311.728,457.984H238.545a1.172,1.172,0,0,1,0-2.343h73.183a1.172,1.172,0,1,1,0,2.343Z" fill="#221f1f"/><path d="M306.673,465.768H246.341a1.172,1.172,0,0,1,0-2.344h60.332a1.172,1.172,0,0,1,0,2.344Z" fill="#221f1f"/><path d="M852.243,466.887H819.034a1.171,1.171,0,1,1,0-2.343h33.209a1.171,1.171,0,1,1,0,2.343Z" fill="#221f1f"/><path d="M934.715,466.887H881.726a1.171,1.171,0,0,1,0-2.343h52.989a1.171,1.171,0,0,1,0,2.343Z" fill="#221f1f"/><path d="M934.712,466.9a1.171,1.171,0,0,1-1.171-1.171V240.276h-348.7V464.553H721.718a1.171,1.171,0,1,1,0,2.343H583.67a1.171,1.171,0,0,1-1.172-1.171V239.1a1.171,1.171,0,0,1,1.172-1.172H934.712a1.171,1.171,0,0,1,1.172,1.172v226.62A1.171,1.171,0,0,1,934.712,466.9Z" fill="#221f1f"/><path d="M861.993,456.693H810.806a1.171,1.171,0,1,1,0-2.343h51.187a1.171,1.171,0,1,1,0,2.343Z" fill="#221f1f"/><path d="M924.919,456.693h-34.1a1.171,1.171,0,0,1,0-2.343h32.928V250.5H594.631V454.35H730.115a1.171,1.171,0,1,1,0,2.343H593.459a1.171,1.171,0,0,1-1.172-1.172V249.328a1.172,1.172,0,0,1,1.172-1.172h331.46a1.172,1.172,0,0,1,1.172,1.172V455.521A1.171,1.171,0,0,1,924.919,456.693Z" fill="#221f1f"/><path d="M203.6,465.768H63.162A1.171,1.171,0,0,1,61.99,464.6V239.606a1.171,1.171,0,0,1,1.172-1.172H412.7a1.171,1.171,0,0,1,1.172,1.172V346.287a1.172,1.172,0,1,1-2.344,0V240.778H64.333V463.424H203.6a1.172,1.172,0,0,1,0,2.344Z" fill="#221f1f"/><path d="M207.681,457.984H71.2a1.172,1.172,0,0,1-1.172-1.172V247.391a1.172,1.172,0,0,1,1.172-1.172H404.663a1.171,1.171,0,0,1,1.172,1.172v91.672a1.171,1.171,0,1,1-2.343,0v-90.5H72.369V455.641H207.681a1.172,1.172,0,1,1,0,2.343Z" fill="#221f1f"/><path d="M404.1,437.033a19.61,19.61,0,0,1-10.306-2.993c-11.278-6.855-14.728-33.706-14.869-34.846a1.172,1.172,0,1,1,2.326-.288c.033.267,3.449,26.865,13.76,33.129a17.26,17.26,0,0,0,18.984-.348,1.172,1.172,0,0,1,1.408,1.874A20.581,20.581,0,0,1,404.1,437.033Z" fill="#221f1f"/><path d="M333.523,438.59c-3.332,0-16.878-1.824-22.572-30.516-3.986-20.085,2.96-39.347,6.133-46.7a2.272,2.272,0,0,1,2.08-1.375,2.233,2.233,0,0,1,2.079,1.366c1.513,3.475,4.994,9.741,11.31,12.648,1.3.6,2.73,1.206,4.232,1.842,9.05,3.85,20.3,8.631,23.59,19.189,1.719-2.305,4.563-4.976,7.63-4.555a7.3,7.3,0,0,1,5.232,3.879,11.779,11.779,0,0,1,.773,10,13.172,13.172,0,0,1-12.365,7.989c-.287,3.008-1.448,10.934-5.912,16.035-5.277,6.031-15.5,9.986-21.937,10.194C333.714,438.587,333.623,438.59,333.523,438.59ZM319.094,362.3c-2.944,7.152-9.7,25.879-5.845,45.317,5.5,27.7,18.037,28.721,20.471,28.624,5.952-.19,15.386-3.835,20.248-9.392,4.934-5.638,5.42-15.687,5.425-15.788a1.164,1.164,0,0,1,.41-.84,1.193,1.193,0,0,1,.895-.275,10.821,10.821,0,0,0,11.144-6.467,9.492,9.492,0,0,0-.635-7.938,5.04,5.04,0,0,0-3.52-2.73c-1.516-.215-3.616,1.185-5.705,3.833a2.172,2.172,0,0,1-3.79-.723h0c-2.889-9.647-13.666-14.226-22.325-17.907-1.522-.647-2.972-1.263-4.294-1.872C324.552,372.911,320.741,366.083,319.094,362.3Z" fill="#221f1f"/><path d="M375.543,359.68a1.173,1.173,0,0,1-.995-1.79c3.249-5.237-4.953-11.081-5.3-11.327-.667-.472-2.958.626-4.555,1.925a1.172,1.172,0,0,1-1.482-1.816c.794-.649,4.879-3.79,7.383-2.027,3.865,2.712,9.466,8.814,5.95,14.481A1.173,1.173,0,0,1,375.543,359.68Z" fill="#221f1f"/><path d="M417.651,434.209c-8.522,0-13.493-9.132-13.551-9.242a1.171,1.171,0,0,1,2.068-1.1c.239.447,5.929,10.844,15.373,7.244,7.557-2.881,10.825-8.484,11.224-10.45a14.311,14.311,0,0,1-13.091-5.1c-2.858-3.467-3.335-15.6-1.647-41.874,1.552-24.177-11.227-36.235-24.582-37.459-12.057-1.1-22.563,10.061-22.667,10.174a1.172,1.172,0,0,1-1.722-1.589c.458-.5,11.337-12.1,24.6-10.92,14.483,1.329,28.359,14.195,26.706,39.945-.994,15.483-1.96,36.5,1.116,40.236a11.9,11.9,0,0,0,11.569,4.172,1.7,1.7,0,0,1,2,1.27c.772,2.781-3.564,10.313-12.676,13.785A13.2,13.2,0,0,1,417.651,434.209Z" fill="#221f1f"/><path d="M350.661,453.24a12.469,12.469,0,0,1-2.5-.252c-3.341-.68-5.065-5.383-5.447-7.139a25.448,25.448,0,0,0-3.769-8.8,1.172,1.172,0,1,1,1.886-1.392A27.53,27.53,0,0,1,345,445.353c.354,1.625,1.826,4.973,3.623,5.337,8.683,1.778,15.816-7.832,18.666-13.778a1.172,1.172,0,1,1,2.115,1.012C365.594,445.879,358.516,453.24,350.661,453.24Z" fill="#221f1f"/><path d="M430.42,545c-17.834,0-49.608-19.575-51.14-20.525a1.174,1.174,0,0,1-.547-1.124c1.586-14.389,15.92-34.017,16.528-34.846a1.17,1.17,0,0,1,1.439-.368c16.151,7.509,36.334,23.594,36.537,23.754a1.172,1.172,0,0,1-1.465,1.831c-.2-.158-19.44-15.494-35.182-23.045-2.636,3.738-13.728,20.059-15.434,32.2,5.319,3.215,42.235,25,54.918,18.7,2.378-1.181,3.68-3.317,3.98-6.53,3.659-39.071-28.186-75.779-39.572-84.032-13.455-9.752-22.411-11.027-31.072-12.259l-1.23-.176a1.162,1.162,0,0,1-.493-.192c-8.663-5.914-9.43-19.491-9.458-20.067a1.173,1.173,0,0,1,.844-1.184c24.282-7.044,23.285-36.956,21.688-44.579-2.576-12.3-12.08-20.237-16.047-23.081-7.761-5.561-26.533-9.346-40.173-1.628-14.218,8.045-22.851,28.89-22.851,35.91,0,8.55,9.924,15.133,10.023,15.2a1.171,1.171,0,0,1-1.279,1.963c-.452-.295-11.088-7.333-11.088-17.16,0-8.359,9.363-29.644,24.042-37.949,14.476-8.191,34.431-4.159,42.692,1.763,4.19,3,14.23,11.4,16.974,24.5,2.052,9.8,2.246,39.165-22.4,47.031.319,3,1.824,12.684,8.14,17.19l.951.138c8.944,1.272,18.192,2.588,32.117,12.679,15.372,11.144,44.005,49.043,40.531,86.152-.378,4.03-2.151,6.859-5.272,8.408A15.043,15.043,0,0,1,430.42,545Z" fill="#221f1f"/><path d="M936.167,563.874H63.52c-1.88,0-3.4-1.12-3.4-2.5s1.522-2.5,3.4-2.5H936.167c1.878,0,3.4,1.12,3.4,2.5S938.045,563.874,936.167,563.874Z" fill="#221f1f"/><path d="M394.877,492.251a1.155,1.155,0,0,1-.712-.243c-9.143-7.008-14.465-9.992-20.086-12.533-6.3-2.849-16.454-6.159-19.14-4.989-.265.116-.3.222-.314.268-.193.585.818,2.226,1.852,3.3a1.172,1.172,0,0,1-1.688,1.627c-.53-.549-3.134-3.4-2.391-5.662a2.768,2.768,0,0,1,1.6-1.68c4.932-2.174,20.89,4.923,21.049,5,5.773,2.609,11.224,5.662,20.546,12.81a1.171,1.171,0,0,1-.714,2.1Z" fill="#221f1f"/><path d="M371.451,494.69a1.189,1.189,0,0,1-.42-.077c-.072-.028-7.3-2.811-13.759-5.809-7.632-3.536-12.549-6.246-13.48-8.816a2.612,2.612,0,0,1,.068-2.046c1.481-3.131,7.989-1.461,14.528.519,3.686,1.113,19.08,7.612,19.733,7.887a1.173,1.173,0,0,1-.913,2.161c-.158-.069-15.931-6.727-19.5-7.8-10.2-3.09-11.555-2.126-11.729-1.76-.016.032-.043.087.015.245.786,2.17,8.829,5.9,12.264,7.489,6.384,2.964,13.541,5.719,13.612,5.747a1.171,1.171,0,0,1-.42,2.265Z" fill="#221f1f"/><path d="M368.72,502.348a1.227,1.227,0,0,1-.267-.029c-3.109-.726-15.6-7.821-17.668-9.37-.215-.16-5.289-3.985-5.729-6.848a3.55,3.55,0,0,1,.936-3.158,3.509,3.509,0,0,1,3.013-.946,1.172,1.172,0,0,1-.386,2.312,1.162,1.162,0,0,0-.98.3,1.25,1.25,0,0,0-.267,1.133c.161,1.039,2.41,3.529,4.817,5.328,2.085,1.561,14.17,8.352,16.8,8.963a1.172,1.172,0,0,1-.266,2.313Z" fill="#221f1f"/><path d="M380.929,519.512a1.173,1.173,0,0,1-.553-.14c-.3-.158-7.244-3.905-11.375-6.534-.19-.122-19.3-12.817-20.385-16.131A4.581,4.581,0,0,1,351,490.944a1.172,1.172,0,0,1,.981,2.128,2.253,2.253,0,0,0-1.14,2.907c.792,1.829,13.672,11.226,19.416,14.881,4.058,2.584,11.156,6.409,11.227,6.447a1.172,1.172,0,0,1-.557,2.205Z" fill="#221f1f"/><path d="M350.9,520.727c-6.609,0-12.018-.556-13.045-1.584-2.682-2.682-7-53.684-6.118-56.437.291-.907.78-2.426,15.571-3.822.361-.032,36.4-2.978,38.1.153,1.175,2.151,1.715,20.351,1.854,25.876a1.173,1.173,0,0,1-1.142,1.2,1.219,1.219,0,0,1-1.2-1.142c-.264-10.615-.882-22.327-1.487-24.57-4.517-1.318-45.918.442-49.5,3.166-.9,4.52,3.949,51.026,5.67,54.027,2.073,1.247,28.375,1.549,36.64-2.648a1.171,1.171,0,1,1,1.062,2.087C372.29,519.582,360.364,520.727,350.9,520.727Zm32.756-60.241Z" fill="#221f1f"/><path d="M288.87,532.61c-11.317,0-45.918-23.741-55.915-32.422-3.5-3.039-3.79-3.953-3.79-4.63,0-4.019,19.561-28.236,23-28.476,1.334-.119,3.691,1.643,12.3,8.582,7.323,5.9,19.58,15.845,22.682,15.326,2.89-.421,8.669-10.288,13.768-18.992a200.869,200.869,0,0,1,10.825-17.2c11.682-15.71,29.474-15.9,30.244-15.9h0a1.172,1.172,0,0,1,0,2.343c-.173,0-17.4.2-28.365,14.952a199.45,199.45,0,0,0-10.684,16.987c-7.1,12.119-11.641,19.573-15.451,20.129s-12.558-6.2-24.491-15.821c-4.4-3.541-9.358-7.539-10.686-8.036-3.258,1.536-20.587,23.239-20.8,26.116,1.662,3.877,47.3,36.155,57.954,34.661,9.994-1.417,20.269-17.18,20.372-17.34a1.172,1.172,0,0,1,1.969,1.273c-.442.684-10.969,16.822-22.012,18.387A6.54,6.54,0,0,1,288.87,532.61Z" fill="#221f1f"/><path d="M309.651,563.448a1.172,1.172,0,0,1-1.17-1.128,408.751,408.751,0,0,1,3.58-70.495,1.172,1.172,0,1,1,2.314.371,406.338,406.338,0,0,0-3.552,70.037,1.174,1.174,0,0,1-1.129,1.215Z" fill="#221f1f"/><path d="M333.185,563.457a1.171,1.171,0,0,1-1.081-.719c-3.654-8.72-13.152-47.811-13.266-53.169-.065-3.073,3.37-6.889,6.4-10.255a27,27,0,0,0,3.218-3.967,25.615,25.615,0,0,0-4.3-2.62c-4.015-2.163-8.165-4.4-8.509-7.132-.463-3.7,11.62-31.085,21.478-45.618a1.17,1.17,0,1,1,1.938,1.313c-10.063,14.84-21.314,41.286-21.089,44.017.191,1.533,4.637,3.925,7.293,5.355,3.755,2.024,5.561,3.06,5.583,4.553.019,1.29-1.243,2.748-3.868,5.666-2.467,2.74-5.845,6.493-5.8,8.638.092,4.353,9.261,43.19,13.083,52.313a1.173,1.173,0,0,1-1.08,1.625Z" fill="#221f1f"/><path d="M405.2,425.7a1.178,1.178,0,1,1-.023-2.355,1.167,1.167,0,0,1,1.074.7,1.144,1.144,0,0,1,.109.488A1.161,1.161,0,0,1,405.2,425.7Z" fill="#221f1f"/><path d="M448.325,563.448a1.2,1.2,0,0,1-.237-.023,1.173,1.173,0,0,1-.912-1.385c6.635-32.277,5.48-99.529,5.428-102.376-.22-11.945-.353-19.156-14.132-26.684a34.214,34.214,0,0,0-9.013-3.14l-1.191-.286a1.171,1.171,0,0,1,.558-2.275l1.174.281a36.117,36.117,0,0,1,9.6,3.365c14.974,8.18,15.132,16.785,15.351,28.7.132,7.161,1.1,70.909-5.475,102.889A1.173,1.173,0,0,1,448.325,563.448Z" fill="#221f1f"/><path d="M386.691,424.338a.512.512,0,0,1-.055,0c-8.366-.383-17.547-.522-26.554-.419h-.015a1.172,1.172,0,0,1-.015-2.344c9.053-.105,18.282.034,26.692.423a1.172,1.172,0,0,1-.053,2.342Z" fill="#221f1f"/><path d="M312.68,456.666a1.172,1.172,0,0,1-1.165-1.062c-.072-.755-1.714-18.541.616-24.341,1.252-3.073,2.955-4.579,6.285-5.563a1.171,1.171,0,1,1,.663,2.247c-2.948.872-3.921,2.1-4.776,4.2-2.117,5.271-.472,23.064-.456,23.242a1.171,1.171,0,0,1-1.056,1.277C312.753,456.664,312.717,456.666,312.68,456.666Z" fill="#221f1f"/><path d="M249.935,471.044a1.169,1.169,0,0,1-.989-.541,91.341,91.341,0,0,0-7.287-9.928c-3.092-3.312-13.167-7.592-17.137-7.292-.613.048-.833.2-.858.236-.079.387.31,2.218,8.893,8.866.471.367.834.648,1.041.82,1.525,1.272,4.255,3.929,4.371,4.042a1.172,1.172,0,1,1-1.635,1.679c-.028-.027-2.783-2.707-4.236-3.92-.193-.16-.534-.424-.976-.767-6.87-5.323-10.865-9.148-9.554-11.768a2.9,2.9,0,0,1,2.381-1.481c4.429-.648,15.689,3.987,19.424,7.987a92.16,92.16,0,0,1,7.549,10.263,1.172,1.172,0,0,1-.987,1.8Z" fill="#221f1f"/><path d="M216.422,449.289a1.171,1.171,0,0,1-1.172-1.171V435.555a1.172,1.172,0,1,1,2.343,0v12.563A1.171,1.171,0,0,1,216.422,449.289Z" fill="#221f1f"/><path d="M228.609,453.837a1.171,1.171,0,0,1-1.172-1.172v-17.11a1.172,1.172,0,0,1,2.344,0v17.11A1.171,1.171,0,0,1,228.609,453.837Z" fill="#221f1f"/><path d="M231.914,436.727h-3.305a1.172,1.172,0,1,1,0-2.344h3.305a1.031,1.031,0,0,0,0-2.062h-18.8a1.031,1.031,0,1,0,0,2.062h3.3a1.172,1.172,0,0,1,0,2.344h-3.3a3.375,3.375,0,1,1,0-6.75h18.8a3.375,3.375,0,0,1,0,6.75Z" fill="#221f1f"/><path d="M234.327,484.492H210.7a8.1,8.1,0,0,1-6.769-12.549l1.431-2.181a1.172,1.172,0,0,1,1.959,1.286l-1.429,2.181a5.757,5.757,0,0,0,4.808,8.919h23.624a5.758,5.758,0,0,0,4.809-8.921l-2.953-4.5a1.107,1.107,0,0,1,.124-1.6,1.229,1.229,0,0,1,1.7.14l3.088,4.669a8.1,8.1,0,0,1-6.769,12.549Z" fill="#221f1f"/><path d="M218.837,459.538c-1.184,0-3.292-1.2-8.16-6.456-1.69-1.829-1.736-5.649-.536-7.061h0a2.98,2.98,0,0,1,2.553-1.048c2.771.171,6.013,3.417,7.133,5.117a11.335,11.335,0,0,1,1.188,7.182,2.971,2.971,0,0,1-1.286,2.005A1.693,1.693,0,0,1,218.837,459.538Zm.019-2.366h0Zm-6.928-9.634a4.392,4.392,0,0,0,.469,3.951c3.571,3.859,5.52,5.294,6.243,5.612a8.786,8.786,0,0,0-.77-5.72c-1.034-1.57-3.723-3.971-5.319-4.067A.649.649,0,0,0,211.928,447.538Zm-.894-.757h0Z" fill="#221f1f"/><path d="M215.859,464.344a3.42,3.42,0,0,1-.777-.1c-2.6-.608-7.03-4.433-7.862-5.9-.95-1.679-1.611-5.1-.484-6.637,1.362-1.858,4.482-1.027,4.836-.922a1.172,1.172,0,0,1-.643,2.254c-.849-.24-2.065-.265-2.3.055-.328.451-.109,2.781.635,4.1.691,1.224,5.411,4.921,6.623,4.811.742-.533.661-3.124.223-3.868a1.173,1.173,0,0,1,2.021-1.19c.909,1.549,1.1,5.591-1.042,7.047A2.142,2.142,0,0,1,215.859,464.344Z" fill="#221f1f"/><path d="M212.995,469.354c-3.041,0-7.606-5.893-7.654-5.957-1.067-1.424-1.479-4.09-.436-5.532,1.2-1.666,3.635-.973,3.909-.886a1.172,1.172,0,0,1-.688,2.241c-.523-.158-1.2-.144-1.322.018a3.226,3.226,0,0,0,.412,2.754c1.435,1.915,4.7,5.03,5.7,5.03a.127.127,0,0,0,.027,0c.706-.229.972-2.708.652-3.788a1.172,1.172,0,0,1,2.247-.664c.446,1.5.436,5.839-2.225,6.7A2.065,2.065,0,0,1,212.995,469.354Z" fill="#221f1f"/><path d="M209.529,472.939c-2.364,0-5.513-2.632-6.182-3.724-.724-1.188-1.583-3.664-.8-5.25.985-2,3.728-2.06,4.038-2.06a1.171,1.171,0,0,1,0,2.343c-.5.005-1.669.2-1.939.751a4.665,4.665,0,0,0,.7,2.994c.573.938,3.531,2.833,4.266,2.6s1.22-1.9,1.167-2.352a1.07,1.07,0,0,1,.515-1.484,1.255,1.255,0,0,1,1.626.582c.536,1-.147,2.781-.228,2.982a4.045,4.045,0,0,1-2.347,2.5A2.6,2.6,0,0,1,209.529,472.939Z" fill="#221f1f"/><path d="M786.635,437.7c-8.688,0-16.231-6.244-19.225-10.675-2.632-3.893-3.383-11.99-3.584-15.338a12.852,12.852,0,0,1-8.784-.9c-2.564-1.387-4.848-4.514-5.818-7.965a11.459,11.459,0,0,1,.879-8.928c2.032-3.5,5.589-4.457,10.027-2.681a2.938,2.938,0,0,0,3.327-1.043,14.632,14.632,0,0,1,7.345-4.594,33.225,33.225,0,0,1,5.724-.789,86.454,86.454,0,0,0,13.295-1.989c5.356-1.321,8.535-7.564,9.954-11.167a3.508,3.508,0,0,1,6.216-.622h0c2.147,3.289,3.829,8.093,5,14.279,3.028,15.934-2.989,33.555-4.642,37.063-1.547,3.287-6.257,13.286-16.68,15.092A17.593,17.593,0,0,1,786.635,437.7ZM764.927,409a1.172,1.172,0,0,1,1.172,1.139c0,.113.341,11.265,3.252,15.573,3.009,4.456,11.084,10.951,19.923,9.42,8.265-1.433,12.494-8.553,14.959-13.783,2.135-4.536,7.159-21.41,4.458-35.628-1.391-7.328-3.3-11.352-4.664-13.435h0a1.16,1.16,0,0,0-1.11-.54,1.145,1.145,0,0,0-.964.74c-1.583,4.023-5.193,11.011-11.574,12.583a88.565,88.565,0,0,1-13.645,2.048,32.431,32.431,0,0,0-5.25.7,12.189,12.189,0,0,0-6.209,3.834,5.279,5.279,0,0,1-6.015,1.735c-3.314-1.325-5.717-.76-7.129,1.682a9.148,9.148,0,0,0-.653,7.118,11.131,11.131,0,0,0,4.681,6.539c3.323,1.8,7.271.711,8.4.336A1.213,1.213,0,0,1,764.927,409Z" fill="#221f1f"/><path d="M777.924,452.736c-.389,0-.73-.011-1.007-.027-9.464-.524-14.364-11.286-14.567-11.744a1.176,1.176,0,0,1-.1-.533l1.506-30.321A1.147,1.147,0,0,1,764.984,409a1.169,1.169,0,0,1,1.112,1.227l-1.49,30.025c.749,1.52,5.122,9.711,12.439,10.119,3.067.167,10.293-.241,11.394-7.7l-.012-6.39a1.172,1.172,0,0,1,2.344,0v6.561C789.473,451.7,781.568,452.736,777.924,452.736Z" fill="#221f1f"/><path d="M764.268,424.626a1.156,1.156,0,0,1-.676-.215c-2.892-2.041-12.5-9.6-18.485-17.289-6.48-8.324-9.077-20.916-6.949-33.68,2.021-12.11,14.879-23.61,32-28.619,11.611-3.4,20.136.323,24.187,2.847a6.554,6.554,0,0,0,3.967.984c12.542-.848,19.769,4.848,21.454,16.907,1.68,12.012-7.768,24.982-8.171,25.529a1.172,1.172,0,0,1-1.886-1.392c.092-.126,9.281-12.755,7.736-23.812-1.506-10.772-7.692-15.642-18.978-14.894a8.9,8.9,0,0,1-5.362-1.334c-3.715-2.316-11.558-5.731-22.288-2.585-16.275,4.761-28.469,15.513-30.343,26.753-2.024,12.13.4,24.041,6.486,31.857,5.813,7.465,15.169,14.826,17.987,16.815a1.171,1.171,0,0,1-.675,2.128Z" fill="#221f1f"/><path d="M702.944,563.448a1.173,1.173,0,0,1-1.172-1.158c-.739-59.175,10.453-83.774,20.283-98.593,10.045-15.14,23.94-23.34,41.295-24.377a1.123,1.123,0,0,1,1.24,1.1,1.171,1.171,0,0,1-1.1,1.241c-16.584.991-29.868,8.841-39.483,23.333-9.647,14.54-20.623,38.734-19.893,97.27a1.174,1.174,0,0,1-1.158,1.186Z" fill="#221f1f"/><path d="M841.946,484.286a1.154,1.154,0,0,1-.574-.151,1.17,1.17,0,0,1-.446-1.6c10.457-18.578,13.585-22.672,15.242-23.256,2.747-.952,19.235,8.4,22.563,10.476,4.231,2.645,4.643,3.428,4.723,4.117.341,2.966-4.035,9.214-4.536,9.917a1.172,1.172,0,1,1-1.909-1.36c2.017-2.831,4.077-6.646,4.122-8.1-2.094-2.483-21.623-12.8-24.287-12.8h-.037c-.792.44-4,4.685-13.84,22.162A1.171,1.171,0,0,1,841.946,484.286Z" fill="#221f1f"/><path d="M825.4,484.286a1.17,1.17,0,0,1-1.138-.893c-3.783-15.442-8.022-20.692-13.174-25.951a52.4,52.4,0,0,0-21.777-13.462,1.173,1.173,0,0,1-.844-1.424,1.161,1.161,0,0,1,1.423-.847A53.747,53.747,0,0,1,812.761,455.8c5.218,5.328,9.857,11.041,13.773,27.032a1.172,1.172,0,0,1-1.137,1.451Z" fill="#221f1f"/><path d="M887.631,563.448a1.171,1.171,0,0,1-1.171-1.172v-77.99H809.328v66.769a1.171,1.171,0,0,1-1.172,1.171H737.387v10.05a1.172,1.172,0,0,1-2.344,0V551.055a1.171,1.171,0,0,1,1.172-1.172h70.769V483.114a1.171,1.171,0,0,1,1.172-1.172h79.475a1.171,1.171,0,0,1,1.172,1.172v79.162A1.171,1.171,0,0,1,887.631,563.448Z" fill="#221f1f"/><path d="M757.809,552.226a1.171,1.171,0,0,1-1.149-.956c-1.595-8.526.373-18.184,1.213-21.665-12.94-1.412-29.382.542-44.312,5.3a1.172,1.172,0,0,1-.709-2.234c15.751-5.015,33.188-6.974,46.639-5.23a1.176,1.176,0,0,1,.977,1.481c-.034.119-3.346,12.071-1.506,21.921a1.17,1.17,0,0,1-.936,1.367A1.225,1.225,0,0,1,757.809,552.226Z" fill="#221f1f"/><path d="M800.436,552.226H800.4a1.173,1.173,0,0,1-1.135-1.208c2.227-69.309-10.642-107.414-10.773-107.791a1.172,1.172,0,0,1,2.216-.765c.13.38,13.139,38.894,10.9,108.629A1.175,1.175,0,0,1,800.436,552.226Z" fill="#221f1f"/><path d="M767.561,533c-.039,0-.078,0-.117-.005a1.174,1.174,0,0,1-1.052-1.281,334.465,334.465,0,0,0-4.118-90.979,1.173,1.173,0,0,1,.9-1.391,1.191,1.191,0,0,1,1.391.9,337.073,337.073,0,0,1,4.159,91.7A1.173,1.173,0,0,1,767.561,533Z" fill="#221f1f"/><path d="M796.2,552.226a1.169,1.169,0,0,1-1.123-.844c-5.619-19.241-35.995-19.063-36.327-19.1a1.132,1.132,0,0,1-1.185-1.159,1.171,1.171,0,0,1,1.158-1.185c1.284-.025,32.49-.151,38.6,20.788a1.174,1.174,0,0,1-1.124,1.5Z" fill="#221f1f"/><path d="M790.217,552.226a1.172,1.172,0,0,1-1.151-.961c-.941-5.177-7.045-8.75-7.107-8.784a1.172,1.172,0,0,1,1.168-2.032c.288.164,7.108,4.14,8.246,10.4a1.175,1.175,0,0,1-.943,1.364A1.393,1.393,0,0,1,790.217,552.226Z" fill="#221f1f"/><path d="M784.092,552.226a1.176,1.176,0,0,1-1.133-.869c-1.375-5.148-8.587-8.116-8.658-8.146a1.172,1.172,0,1,1,.875-2.174c.341.137,8.367,3.428,10.049,9.715a1.174,1.174,0,0,1-.83,1.435A1.223,1.223,0,0,1,784.092,552.226Z" fill="#221f1f"/><path d="M776.379,552.226a1.175,1.175,0,0,1-1.126-.846c-1.425-4.928-7.9-6.53-7.964-6.546a1.172,1.172,0,0,1-.87-1.41,1.159,1.159,0,0,1,1.41-.87c.32.076,7.866,1.923,9.677,8.176a1.174,1.174,0,0,1-.8,1.451A1.133,1.133,0,0,1,776.379,552.226Z" fill="#221f1f"/><path d="M860.931,462.8a1.17,1.17,0,0,1-1.1-1.584,16.113,16.113,0,0,0,.941-6.543c-.655-4.143-.689-6.937.808-13.517.6-2.66,4.261-12.826,7.973-12.078,2.616.508,2.079,4.088,1.332,9.04l-.116.779a43.431,43.431,0,0,1-1.444,6.632,15.346,15.346,0,0,1,5.74,6.2,1.173,1.173,0,1,1-2.152.934c-1.465-3.374-5.511-5.557-5.55-5.578a1.173,1.173,0,0,1-.554-1.432,38.369,38.369,0,0,0,1.644-7.1l.116-.78c.35-2.326.879-5.839.405-6.471-.984.3-4.138,6.081-5.11,10.373-1.474,6.5-1.362,8.944-.776,12.633a18.369,18.369,0,0,1-1.062,7.734A1.176,1.176,0,0,1,860.931,462.8Z" fill="#221f1f"/><path d="M877.142,441.462a1.172,1.172,0,0,1-1.078-1.632c.575-1.353,2.573-6.134,4.1-10.878.2-.63.421-1.273.641-1.92,1.215-3.58,2.6-7.638.71-8.61-.884.318-3.4,5.126-4.475,7.181-.345.66-.67,1.28-.966,1.825-1.348,2.474-5.511,12.775-5.552,12.88a1.172,1.172,0,1,1-2.174-.878c.174-.428,4.254-10.531,5.667-13.124.29-.533.611-1.142.949-1.79,2.564-4.9,4.978-9.539,7.622-8.177,3.685,1.9,1.959,6.971.437,11.448-.215.634-.43,1.266-.63,1.884-1.554,4.838-3.586,9.7-4.172,11.079A1.173,1.173,0,0,1,877.142,441.462Z" fill="#221f1f"/><path d="M882.109,444.927a1.172,1.172,0,0,1-1.051-1.689,206.08,206.08,0,0,0,8.226-20.781c.709-2.694.636-5.832-.9-6.342-.783.231-2.863,4.126-4.253,8.179a1.171,1.171,0,1,1-2.215-.76c1.382-4.041,4.2-10.642,7.212-9.644,3.277,1.1,3.35,5.621,2.417,9.162a203.36,203.36,0,0,1-8.391,21.22A1.17,1.17,0,0,1,882.109,444.927Z" fill="#221f1f"/><path d="M887.537,447.257a1.15,1.15,0,0,1-.5-.11,1.173,1.173,0,0,1-.565-1.559c2.719-5.8,7.184-17.062,7.747-19.124.332-1.218.966-4.12-.3-4.767-.343-.188-1.792,1.034-2.795,2.607a1.172,1.172,0,0,1-1.979-1.255c.515-.812,3.22-4.783,5.843-3.44,1.412.724,2.815,2.607,1.492,7.471-.6,2.183-5.067,13.489-7.885,19.5A1.173,1.173,0,0,1,887.537,447.257Z" fill="#221f1f"/><path d="M878.579,470.709l-1.064-.5-1-.607a12.217,12.217,0,0,1,2.9-3.717c4.174-2.7,7.433-5.657,8.72-7.9a60.038,60.038,0,0,0,6.639-15.943l.291-1.156c1.08-4.2,1.38-6.6.9-7.113a.719.719,0,0,0-.6-.1,4.516,4.516,0,0,0-2.051,1.854,1.172,1.172,0,0,1-2-1.222c.153-.252,1.558-2.465,3.529-2.916a3.1,3.1,0,0,1,2.408.428c2.041,1.313,1.247,5.149.091,9.656l-.281,1.112a62.211,62.211,0,0,1-6.887,16.57c-2.108,3.671-7.329,7.306-9.475,8.7A12.75,12.75,0,0,0,878.579,470.709Z" fill="#221f1f"/><path d="M329.966,395.89a9.334,9.334,0,0,1,1.767,5.343,7.348,7.348,0,0,1-.635,3.02,12.365,12.365,0,0,1-1.564,2.413c-.557.714-1.146,1.34-1.654,1.936a4.611,4.611,0,0,0-.8,1.209,1.917,1.917,0,0,0,.284.484,5.876,5.876,0,0,0,.686.753c.5.489,1.058.964,1.512,1.334l.218.178a.942.942,0,0,1,.136,1.326.953.953,0,0,1-.76.347,4.721,4.721,0,0,1-2.872-1.2,7.222,7.222,0,0,1-1.062-1.107,3.782,3.782,0,0,1-.838-1.781,3.434,3.434,0,0,1,.488-2.052,8.978,8.978,0,0,1,.862-1.242c.576-.721,1.154-1.337,1.683-1.938a9.867,9.867,0,0,0,1.3-1.809,4.759,4.759,0,0,0,.477-1.93,12.74,12.74,0,0,0-.685-4.475l-.021-.066a.838.838,0,0,1,1.476-.744Z" fill="#221f1f"/><path d="M328.944,420.64a38.386,38.386,0,0,0,4.736-.025,22.053,22.053,0,0,0,4.567-.769,13.565,13.565,0,0,0,4.029-1.923,13.236,13.236,0,0,0,3.1-3.325l.034-.047a.543.543,0,0,1,.958.479,10.163,10.163,0,0,1-2.776,4.494,12.957,12.957,0,0,1-4.684,2.565,17.843,17.843,0,0,1-5.167.68,18.362,18.362,0,0,1-5.089-.723.72.72,0,0,1,.247-1.408Z" fill="#221f1f"/><path d="M336.082,387.581a11.676,11.676,0,0,1,2.862-1.406,13.482,13.482,0,0,1,3.118-.631,10.523,10.523,0,0,1,3.224.318,8.06,8.06,0,0,1,2.867,1.462.7.7,0,0,1-.628,1.231l-.078-.024a11.189,11.189,0,0,0-2.565-.541,10.376,10.376,0,0,0-2.567.094,15.2,15.2,0,0,0-2.557.59,26.235,26.235,0,0,0-2.463.912l-.089.039a1.171,1.171,0,0,1-1.124-2.044Z" fill="#221f1f"/><path d="M320.951,389.917a6.643,6.643,0,0,0-1.159-.973,2.6,2.6,0,0,0-1.348-.391,3.236,3.236,0,0,0-1.507.284,11.819,11.819,0,0,0-1.574.921l-.076.05a.729.729,0,0,1-.956-1.082l.734-.858a10.646,10.646,0,0,1,.926-.724,5.392,5.392,0,0,1,2.382-.88,4.841,4.841,0,0,1,2.582.6,5.3,5.3,0,0,1,1.912,1.7,1.166,1.166,0,0,1-1.8,1.468Z" fill="#221f1f"/><ellipse cx="2.197" cy="4.426" rx="2.197" ry="4.426" transform="translate(341.48 393.062)" fill="#221f1f"/><ellipse cx="2.197" cy="4.426" rx="2.197" ry="4.426" transform="translate(317.515 393.062)" fill="#221f1f"/><path d="M795.96,394.33a16.513,16.513,0,0,0,.423,2.835c.1.47.222.977.352,1.379.092.237.37.752.591,1.159,1.005,1.755,2.172,3.519,3.271,5.339a28.4,28.4,0,0,1,1.53,2.918,7.178,7.178,0,0,1,.336.89,3.017,3.017,0,0,1,.137,1.311,4.009,4.009,0,0,1-.972,2.135,8.148,8.148,0,0,1-6.592,2.523.891.891,0,0,1-.252-1.73l.111-.038a12.392,12.392,0,0,0,4.683-2.5,1.3,1.3,0,0,0,.325-.679c.009-.166.016,0-.046-.234a4.538,4.538,0,0,0-.231-.578c-.383-.852-.919-1.748-1.409-2.65-.987-1.825-2.06-3.617-3.055-5.557a8.539,8.539,0,0,1-.7-1.709,9.983,9.983,0,0,1-.212-1.717,8.565,8.565,0,0,1,.47-3.435.637.637,0,0,1,1.229.207Z" fill="#221f1f"/><path d="M789.816,429.753c-.1,0-.192,0-.29-.005-2.889-.084-5.063-.94-6.464-2.538-1.441-1.643-2.016-4.012-1.705-7.038a1.173,1.173,0,0,1,1.722-.913c.043.023,4.6,2.394,12.221,2.09a1.079,1.079,0,0,1,.845.306,1.173,1.173,0,0,1,.38.813,8.065,8.065,0,0,1-1.987,5.493A6.36,6.36,0,0,1,789.816,429.753Zm-6.193-7.713a5.626,5.626,0,0,0,1.2,3.625c.954,1.09,2.559,1.676,4.769,1.74a4.2,4.2,0,0,0,3.266-1.081,4.862,4.862,0,0,0,1.22-2.6A27.446,27.446,0,0,1,783.623,422.04Z" fill="#221f1f"/><ellipse cx="2.888" cy="4.623" rx="2.888" ry="4.623" transform="translate(778.173 391.084)" fill="#221f1f"/><ellipse cx="2.888" cy="4.623" rx="2.888" ry="4.623" transform="translate(799.991 391.084)" fill="#221f1f"/><path d="M737.481,528.984a1.171,1.171,0,0,1-1.172-1.171c0-26.723,5.211-45.717,5.264-45.907a1.171,1.171,0,0,1,2.256.629c-.05.188-5.177,18.9-5.177,45.278A1.171,1.171,0,0,1,737.481,528.984Z" fill="#221f1f"/><path d="M405.058,563.448h-.023a1.174,1.174,0,0,1-1.149-1.2c.111-5.749.111-20.056,0-25.514a1.174,1.174,0,0,1,1.148-1.2,1.21,1.21,0,0,1,1.2,1.149c.111,5.477.111,19.836,0,25.606A1.173,1.173,0,0,1,405.058,563.448Z" fill="#221f1f"/><path d="M358.73,563.457a1.171,1.171,0,0,1-1.172-1.172l.024-1.547c.2-14.849.55-28.412,1.079-41.506a1.158,1.158,0,0,1,1.218-1.123A1.173,1.173,0,0,1,361,519.328c-.529,13.071-.881,26.614-1.077,41.4l-.024,1.554A1.171,1.171,0,0,1,358.73,563.457Z" fill="#221f1f"/><path d="M364.521,460.149a.921.921,0,0,1-.157-.011,1.17,1.17,0,0,1-1.006-1.316,216.959,216.959,0,0,1,3.843-21.681,1.171,1.171,0,1,1,2.277.549,215.04,215.04,0,0,0-3.8,21.443A1.173,1.173,0,0,1,364.521,460.149Z" fill="#221f1f"/><path d="M333.184,563.457a1.171,1.171,0,0,1-1.17-1.124,528,528,0,0,1,1.949-66.661,1.171,1.171,0,1,1,2.334.2,526.113,526.113,0,0,0-1.942,66.363,1.171,1.171,0,0,1-1.121,1.22Z" fill="#221f1f"/><path d="M338.928,462.282a1.133,1.133,0,0,1-.153-.009,1.172,1.172,0,0,1-1.009-1.316c.921-7.017,1.956-14.11,3.074-21.079a1.172,1.172,0,1,1,2.314.371c-1.114,6.948-2.147,14.018-3.065,21.015A1.173,1.173,0,0,1,338.928,462.282Z" fill="#221f1f"/><path d="M358.73,561.933a1.169,1.169,0,0,1-1.07-1.646c1.67-5.294,6.489-18.149,10.743-29.5,2-5.328,3.906-10.416,5.375-14.419a1.171,1.171,0,1,1,2.2.806c-1.471,4.007-3.381,9.1-5.381,14.437-4.254,11.347-9.074,24.205-10.712,29.414a1.282,1.282,0,0,1-.144.33A1.172,1.172,0,0,1,358.73,561.933Zm.024-1.218h0Z" fill="#221f1f"/><path d="M370.262,494.2h-.024a1.172,1.172,0,1,1,.024,0Z" fill="#221f1f"/><path d="M376.845,459.962a1.171,1.171,0,0,1-1.144-.927c-2.3-10.725-4.566-20.677-4.566-20.679a1.171,1.171,0,1,1,2.284-.522s2.275,9.968,4.573,20.711a1.173,1.173,0,0,1-.9,1.391A1.294,1.294,0,0,1,376.845,459.962Z" fill="#221f1f"/><path d="M232.279,492.724a1.152,1.152,0,0,1-.561-.144c-.176-.1-4.359-2.437-7.907-8.681a1.172,1.172,0,0,1,2.037-1.158c3.2,5.623,6.962,7.766,7,7.786a1.172,1.172,0,0,1-.569,2.2Z" fill="#221f1f"/><path d="M658.339,563.448a1.172,1.172,0,0,1-1.162-1.041c-3.209-28.779-2.868-64.3,7.715-77.695,13.629-17.25,50.1-11.583,51.642-11.329a1.171,1.171,0,1,1-.375,2.311c-.359-.052-36.651-5.7-49.427,10.469-10.155,12.853-10.24,48.964-7.225,75.983a1.174,1.174,0,0,1-1.035,1.295A1.209,1.209,0,0,1,658.339,563.448Z" fill="#221f1f"/><path d="M642.707,456.684a1.174,1.174,0,0,1-1.123-1.5c.016-.057,1.7-5.952-.776-9.873a7.9,7.9,0,0,0-5.759-3.41,1.171,1.171,0,0,1,.371-2.312,10.129,10.129,0,0,1,7.377,4.479c3.039,4.827,1.117,11.5,1.034,11.78A1.172,1.172,0,0,1,642.707,456.684Z" fill="#221f1f"/><path d="M633.1,445.364a1.172,1.172,0,0,1-.936-1.877c1.6-2.128,5.252-8.248,2.934-10.96-2.6-3.04-6.99-.137-7.178-.012a1.172,1.172,0,0,1-1.783-1.293c.612-2.147,1.58-8.132-1.254-10.036-1.959-1.316-6.873-.748-9.807,3.124a1.172,1.172,0,0,1-2.094-.878c.194-1.319.261-4.354-.769-5.31a3.717,3.717,0,0,0-2.721-.838,3.316,3.316,0,0,0-2.344,1.087,1.172,1.172,0,0,1-1.913-1.346c.048-.077,4.769-7.932.206-12.111-4.45-4.086-11.2.959-11.27,1.009a1.172,1.172,0,0,1-1.419-1.865c.339-.259,8.379-6.271,14.272-.875,3.841,3.52,2.939,8.56,1.735,11.828.186-.029.371-.05.561-.064a5.879,5.879,0,0,1,4.49,1.458,6.434,6.434,0,0,1,1.6,4.255c3.545-2.758,8.168-3.168,10.775-1.419,3.314,2.227,3.165,7.17,2.712,10.173,2.429-.888,5.669-1.108,7.976,1.589,3.946,4.614-2.137,12.958-2.842,13.894A1.168,1.168,0,0,1,633.1,445.364Z" fill="#221f1f"/><path d="M645.912,436.2c-.039,0-.078,0-.117,0a1.176,1.176,0,0,1-1.053-1.282c.33-3.392-.989-7.2-3.479-7.477-3.911-.421-4.792,3.378-4.877,3.813a1.172,1.172,0,0,1-2.3-.426c.405-2.215,2.449-6.28,7.436-5.717,4.047.442,6,5.449,5.56,10.036A1.174,1.174,0,0,1,645.912,436.2Z" fill="#221f1f"/><path d="M702.6,442.226a1.17,1.17,0,0,1-1.142-1.432l.222-.927c.824-3.353,1.208-5.839-1.357-7.3-3.314-1.9-8.066.868-8.111.9a1.174,1.174,0,0,1-1.74-1.27c.053-.236,1.268-5.841-2.57-7.169a4.622,4.622,0,0,0-5.752,1.781,1.173,1.173,0,0,1-2.192-.535,11.268,11.268,0,0,0-3.616-6.949,10.469,10.469,0,0,0-8.2-2.428c-9.107.773-13.165,12.642-13.2,12.762a1.155,1.155,0,0,1-1.332.78,1.173,1.173,0,0,1-.949-1.215,3.239,3.239,0,0,0-.845-2.639,3.074,3.074,0,0,0-2.481-.746c-2.238.229-3.481,3.305-3.493,3.334a1.172,1.172,0,0,1-2.183-.853c.071-.181,1.769-4.436,5.438-4.811a5.431,5.431,0,0,1,4.337,1.378,4.7,4.7,0,0,1,.675.8c2.044-4.044,6.434-10.5,13.84-11.128a12.729,12.729,0,0,1,9.954,3.01,13.933,13.933,0,0,1,3.934,6.166,7.042,7.042,0,0,1,6.841-.925c3.6,1.247,4.449,4.857,4.36,7.688,2.124-.82,5.548-1.63,8.454.032,4.3,2.456,3.2,6.935,2.47,9.9l-.213.888A1.171,1.171,0,0,1,702.6,442.226Z" fill="#221f1f"/><path d="M716.946,456.684c-.039,0-.075,0-.112,0a1.174,1.174,0,0,1-1.057-1.278c.261-2.748.226-10.454-3-13.059a10.972,10.972,0,0,0-8.764-2.392c-.316.028-.6.053-.86.064a1.142,1.142,0,0,1-1.225-1.114,1.169,1.169,0,0,1,1.115-1.225c.229-.011.485-.034.769-.059a13.359,13.359,0,0,1,10.439,2.9c4.859,3.928,3.9,14.648,3.856,15.1A1.173,1.173,0,0,1,716.946,456.684Z" fill="#221f1f"/><path d="M715.214,444.673a1.171,1.171,0,0,1-1.172-1.172V408.159a1.171,1.171,0,0,1,1.172-1.172H738.6a1.171,1.171,0,0,1,1.172,1.172v20.2a1.172,1.172,0,0,1-2.344,0v-19.03H716.386V443.5A1.172,1.172,0,0,1,715.214,444.673Z" fill="#221f1f"/><path d="M751.011,443.819a1.171,1.171,0,0,1-1.171-1.171v-20.51H738.6a1.171,1.171,0,1,1,0-2.343h12.407a1.171,1.171,0,0,1,1.172,1.172v21.681A1.171,1.171,0,0,1,751.011,443.819Z" fill="#221f1f"/><path d="M687.591,424.889a1.171,1.171,0,0,1-1.172-1.171V381.711H665.411v34.98a1.172,1.172,0,1,1-2.343,0V380.539a1.171,1.171,0,0,1,1.172-1.172h23.351a1.171,1.171,0,0,1,1.172,1.172v43.179A1.171,1.171,0,0,1,687.591,424.889Z" fill="#221f1f"/><path d="M618.539,403.3a1.171,1.171,0,0,1-1.172-1.172V333.5h-23.9a1.172,1.172,0,0,1,0-2.344h25.075a1.171,1.171,0,0,1,1.171,1.172v69.8A1.171,1.171,0,0,1,618.539,403.3Z" fill="#221f1f"/><path d="M649.173,425.842A1.172,1.172,0,0,1,648,424.67V385.222H618.539a1.172,1.172,0,0,1,0-2.344h30.634a1.171,1.171,0,0,1,1.172,1.172v40.62A1.172,1.172,0,0,1,649.173,425.842Z" fill="#221f1f"/><path d="M368.114,398.927c-.243.188-.611.461-.889.71a7.323,7.323,0,0,0-.817.826,17.716,17.716,0,0,0-1.386,1.919l-.06.087a1.176,1.176,0,0,1-2.088-1.024,5.849,5.849,0,0,1,.689-1.49,6.906,6.906,0,0,1,1.087-1.276,6.479,6.479,0,0,1,1.413-.927,4.676,4.676,0,0,1,1.7-.448.817.817,0,0,1,.571,1.457Z" fill="#221f1f"/><path d="M755.94,398.971a6.8,6.8,0,0,1,2.083.086,7.357,7.357,0,0,1,2,.685,5.985,5.985,0,0,1,2.8,3.286,1.172,1.172,0,0,1-2.176.862l-.021-.045a4.622,4.622,0,0,0-1.743-2.169,5.173,5.173,0,0,0-1.348-.661,9,9,0,0,0-1.507-.329l-.1-.012a.857.857,0,0,1,.01-1.7Z" fill="#221f1f"/><path d="M313.8,431.655c-6.756,0-36.59-3.678-48.773-8.867a260.475,260.475,0,0,1-38.018-19.911c-21.554-13.536-40.729-20.933-58.622-22.615-18.4-1.721-41.032,9.338-50.692,14.062-1.75.856-3.091,1.51-3.927,1.86-5.059,2.106-8.75,2.722-12.736,2.15a1.173,1.173,0,0,1,.338-2.321c2.98.439,6.08.263,11.5-1.994.809-.336,2.105-.972,3.8-1.8,9.838-4.813,32.863-16.094,51.942-14.293,18.266,1.717,37.777,9.228,59.648,22.963a257.92,257.92,0,0,0,37.69,19.742c11.925,5.079,41.215,8.679,47.855,8.679a1.172,1.172,0,0,1,0,2.344Z" fill="#221f1f"/><path d="M181.115,457.984c-3.511,0-9.445-1-11.4-3.749a3.474,3.474,0,0,1-.462-3.273c.72-2.073,4.029-3.183,7.861-4.472,2.713-.911,7.255-2.435,7-3.7-.561-1.254-7.879-3.11-11.81-4.108-2.756-.7-5.358-1.362-7.264-2.023-4.665-1.623-10.265-4.83-10.7-8.53-.723-6.164,11.151-9.7,17.531-10.709a105.411,105.411,0,0,1,10.537-.79c5.019-.227,10.209-.46,12.865-1.275a5.257,5.257,0,0,0,3.69-3.815,5.716,5.716,0,0,0-1.715-5.431c-3.064-2.989-13.436-4.857-20.3-6.093-2.625-.471-4.892-.879-6.42-1.272-6.027-1.547-12.491-5.36-12.557-11.416a8.073,8.073,0,0,1,2.575-6.049,12.815,12.815,0,0,1,9.2-3.239,1.171,1.171,0,1,1-.13,2.339,10.513,10.513,0,0,0-7.447,2.593,5.709,5.709,0,0,0-1.85,4.328c.052,4.738,5.848,7.9,10.8,9.173,1.444.371,3.672.774,6.252,1.236,7.993,1.44,17.941,3.23,21.519,6.722a8.033,8.033,0,0,1,2.358,7.658,7.642,7.642,0,0,1-5.28,5.505c-2.941.906-8.283,1.144-13.449,1.377-3.741.167-7.609.341-10.276.765-7.8,1.233-15.972,4.689-15.569,8.12.2,1.724,3.473,4.619,9.139,6.587,1.812.632,4.366,1.279,7.072,1.966,8.056,2.046,13.02,3.424,13.528,5.912.673,3.291-4.014,4.866-8.547,6.388-2.41.81-6.05,2.032-6.393,3.018a1.14,1.14,0,0,0,.158,1.145c1.176,1.654,5.856,2.765,9.491,2.765a1.172,1.172,0,1,1,0,2.343Z" fill="#221f1f"/><path d="M163.159,380.1a1.155,1.155,0,0,1-.825-.341c-3.708-3.68-18.943-6.713-30.085-6.967-9.289-.236-21.209,2.227-28.343,3.685-1.293.265-2.447.5-3.425.689-6.541,1.259-28.314,2.119-29.238,2.156a1.214,1.214,0,0,1-1.216-1.126,1.171,1.171,0,0,1,1.124-1.218c.225-.007,22.52-.888,28.886-2.115.971-.185,2.117-.421,3.4-.682,7.231-1.478,19.35-3.948,28.864-3.733,10.289.236,27.023,3.024,31.683,7.649a1.171,1.171,0,0,1-.825,2Z" fill="#221f1f"/><path d="M248.537,393.637H211.1a1.172,1.172,0,0,1,0-2.344h35.249l-53.962-80.761L147.17,373.716a1.172,1.172,0,0,1-1.907-1.364l46.2-64.562a1.16,1.16,0,0,1,.972-.49,1.174,1.174,0,0,1,.955.521l56.122,83.994a1.172,1.172,0,0,1-.974,1.822Z" fill="#221f1f"/><path d="M177.852,381.461a1.171,1.171,0,0,1-1.15-1.4l14.564-71.818a1.172,1.172,0,0,1,2.3.467L179,380.523A1.172,1.172,0,0,1,177.852,381.461Z" fill="#221f1f"/><path d="M294.217,384.473H244.083a1.172,1.172,0,0,1,0-2.344h47.956l-58.192-88.113-25.114,38.058a1.172,1.172,0,1,1-1.957-1.291l26.092-39.539a1.217,1.217,0,0,1,1.956,0l60.37,91.412a1.171,1.171,0,0,1-.977,1.817Z" fill="#221f1f"/><path d="M222.832,355.166a1.045,1.045,0,0,1-.206-.018,1.169,1.169,0,0,1-.948-1.357l11.015-62.107a1.172,1.172,0,0,1,2.307.41l-11.015,62.1A1.171,1.171,0,0,1,222.832,355.166Z" fill="#221f1f"/><path d="M369.917,286.807a13.365,13.365,0,1,1,13.365-13.365A13.38,13.38,0,0,1,369.917,286.807Zm0-24.385a11.021,11.021,0,1,0,11.022,11.02A11.033,11.033,0,0,0,369.917,262.422Z" fill="#221f1f"/><path d="M316.087,354.141a1.175,1.175,0,0,1-.972-.515l-31.936-47.1-20.041,28.926a1.172,1.172,0,0,1-1.928-1.334l21.015-30.331a1.174,1.174,0,0,1,.964-.505.965.965,0,0,1,.97.514l32.9,48.519a1.172,1.172,0,0,1-.969,1.829Z" fill="#221f1f"/><path d="M302.947,374.806H288.086a1.172,1.172,0,1,1,0-2.344h14.861a1.172,1.172,0,0,1,0,2.344Z" fill="#221f1f"/><path d="M271.3,349.768a1.136,1.136,0,0,1-.305-.04,1.172,1.172,0,0,1-.828-1.436l11.891-44.146a1.172,1.172,0,0,1,2.264.609L272.43,348.9A1.173,1.173,0,0,1,271.3,349.768Z" fill="#221f1f"/><path d="M311.735,406.992a1.15,1.15,0,0,1-.553-.14c-.1-.055-10.336-5.527-15.34-7.049a100.3,100.3,0,0,0-17.633-2.872c-4.123-.3-12.652-1.715-15.424-4.967a3.748,3.748,0,0,1-.977-2.824c.4-4.555,9.028-7.011,12.466-7.011a1.172,1.172,0,1,1,0,2.344c-3.031,0-9.91,2.355-10.132,4.873a1.419,1.419,0,0,0,.427,1.1c1.978,2.321,9.265,3.822,13.807,4.147a103.065,103.065,0,0,1,18.149,2.969c5.224,1.591,15.337,7,15.765,7.228a1.172,1.172,0,0,1-.555,2.2Z" fill="#221f1f"/><path d="M132.7,372.782h-.018a1.172,1.172,0,0,1-1.154-1.19,22.3,22.3,0,0,0-5.319-14.361A33.654,33.654,0,0,1,127.99,371.6a1.171,1.171,0,1,1-2.32-.325,32.991,32.991,0,0,0-4.043-18.607,1.172,1.172,0,0,1,1.7-1.525c.44.312,10.747,7.787,10.547,20.489A1.172,1.172,0,0,1,132.7,372.782Z" fill="#221f1f"/><path d="M119.789,361.52a2.343,2.343,0,0,1-2.45-2.616,18.977,18.977,0,0,1,3.423-8.2,2.344,2.344,0,0,1,3.778,2.776,14.363,14.363,0,0,0-2.546,5.971A2.345,2.345,0,0,1,119.789,361.52Z" fill="#221f1f"/><path d="M132.546,354.783a2.353,2.353,0,0,1-.754-.084c-2.116-.592-6.231-1.226-8.279-.424a2.343,2.343,0,1,1-1.724-4.358c4.171-1.656,10.56.067,11.275.27a2.344,2.344,0,0,1-.518,4.6Z" fill="#221f1f"/><path d="M122.769,354.437a2.344,2.344,0,0,1-2.2-3.418c3.021-5.84,10.112-7.23,10.412-7.287a2.344,2.344,0,0,1,.872,4.607h0c-.051.009-5.162,1.047-7.12,4.834A2.344,2.344,0,0,1,122.769,354.437Z" fill="#221f1f"/><path d="M122.772,354.437a2.379,2.379,0,0,1-.591-.044,2.345,2.345,0,0,1-1.826-2.767c.917-4.479,4.421-9.489,4.571-9.7a2.344,2.344,0,0,1,3.832,2.7c-.031.044-3.093,4.428-3.811,7.94A2.344,2.344,0,0,1,122.772,354.437Z" fill="#221f1f"/><path d="M122.772,354.437a2.34,2.34,0,0,1-1.843-.751c-1.315-1.426-5.043-1.835-6.643-1.809a2.346,2.346,0,0,1-2.382-2.3,2.294,2.294,0,0,1,2.295-2.385c.716-.014,7.077-.039,10.174,3.317a2.344,2.344,0,0,1-1.6,3.93Z" fill="#221f1f"/><path d="M114.91,358.3a2.343,2.343,0,0,1-1.682-4.088c.485-.432,4.869-4.232,9.3-4.459a2.344,2.344,0,1,1,.24,4.681c-2.37.121-5.443,2.409-6.427,3.28A2.337,2.337,0,0,1,114.91,358.3Z" fill="#221f1f"/><path d="M819.03,456.684a1.171,1.171,0,0,1-1.078-1.629c.153-.364,3.874-8.908,11.944-10.29,6.9-1.181,10.3,1.29,11.62,3.183,3.021-1.371,8.1-2.158,11.755,1.984,1.648-1.148,5.117-3.094,8.622-1.988a1.172,1.172,0,1,1-.71,2.233c-3.47-1.091-7.3,2.234-7.338,2.268a1.113,1.113,0,0,1-.913.284,1.171,1.171,0,0,1-.819-.487c-3.921-5.548-10.224-1.868-10.492-1.708a1.173,1.173,0,0,1-1.741-.718c-.206-.836-2.573-3.937-9.59-2.74-6.795,1.163-10.15,8.819-10.182,8.9A1.176,1.176,0,0,1,819.03,456.684Z" fill="#221f1f"/><path d="M907.026,432.621a1.168,1.168,0,0,1-.95-.488c-4.424-6.14-10.29-3.4-10.539-3.286a1.171,1.171,0,0,1-1.03-2.1,10.826,10.826,0,0,1,13.469,4.022,1.167,1.167,0,0,1-.266,1.634A1.152,1.152,0,0,1,907.026,432.621Z" fill="#221f1f"/><path d="M904.984,430.382a1.151,1.151,0,0,1-.613-.174,1.171,1.171,0,0,1-.385-1.611c1.113-1.808,2.465-2.758,4.019-2.824a5.225,5.225,0,0,1,3.482,1.343c1.389-2.7,5.058-7.266,13.67-5.477a1.171,1.171,0,0,1-.476,2.294c-9.631-2-11.574,5.248-11.652,5.559a1.175,1.175,0,0,1-2.078.417,4.222,4.222,0,0,0-2.852-1.795c-.728.035-1.439.609-2.117,1.71A1.174,1.174,0,0,1,904.984,430.382Z" fill="#221f1f"/><path d="M845.034,448.266a1.191,1.191,0,0,1-.263-.029,1.172,1.172,0,0,1-.879-1.406c5.77-24.97,19.683-99.236,19.87-134.849a1.171,1.171,0,0,1,1.172-1.166h11.677a1.172,1.172,0,0,1,1.172,1.163c.121,18.953,4.161,53.274,12,102.012l.133.826a1.175,1.175,0,0,1-.973,1.343,1.19,1.19,0,0,1-1.343-.972l-.131-.824c-7.706-47.878-11.748-81.912-12.022-101.205h-9.356c-.476,36.228-14.195,109.423-19.919,134.2A1.174,1.174,0,0,1,845.034,448.266Z" fill="#221f1f"/><path d="M876.987,323.14H864.568a1.172,1.172,0,1,1,0-2.343h12.419a1.172,1.172,0,0,1,0,2.343Z" fill="#221f1f"/><path d="M873.068,323.14h-4.582a1.172,1.172,0,0,1-1.172-1.172v-9.981a1.171,1.171,0,0,1,1.172-1.171h4.582a1.171,1.171,0,0,1,1.172,1.171v9.981A1.171,1.171,0,0,1,873.068,323.14Zm-3.41-2.343H871.9v-7.638h-2.238Z" fill="#221f1f"/><path d="M876.611,313.159a1.171,1.171,0,0,1-1.172-1.17l0-3.413h-9.331v3.411a1.172,1.172,0,0,1-2.344,0V307.4a1.172,1.172,0,0,1,1.172-1.172h11.675a1.171,1.171,0,0,1,1.172,1.171l0,4.583a1.172,1.172,0,0,1-1.172,1.173Z" fill="#221f1f"/><path d="M873.551,305.563a1.171,1.171,0,0,1-1.172-1.172V290.936h-3.213v13.455a1.172,1.172,0,0,1-2.344,0V289.764a1.171,1.171,0,0,1,1.172-1.172h5.557a1.171,1.171,0,0,1,1.172,1.172v14.627A1.171,1.171,0,0,1,873.551,305.563Z" fill="#221f1f"/><path d="M864.934,308.576a1.171,1.171,0,0,1-.821-2.007l3.06-3.013a1.172,1.172,0,1,1,1.643,1.671l-3.06,3.013A1.166,1.166,0,0,1,864.934,308.576Z" fill="#221f1f"/><path d="M876.609,308.576a1.16,1.16,0,0,1-.822-.338l-3.057-3.013a1.171,1.171,0,1,1,1.643-1.668l3.058,3.013a1.171,1.171,0,0,1-.822,2.006Z" fill="#221f1f"/><path d="M872.977,290.936h-4.408a1.171,1.171,0,0,1-1.172-1.172V264.089a1.172,1.172,0,0,1,1.172-1.172h4.408a1.172,1.172,0,0,1,1.172,1.172v25.675A1.172,1.172,0,0,1,872.977,290.936Zm-3.237-2.344H871.8V265.261H869.74Z" fill="#221f1f"/><path d="M870.773,265.261a1.171,1.171,0,0,1-1.172-1.172v-9.354a1.172,1.172,0,0,1,2.344,0v9.354A1.172,1.172,0,0,1,870.773,265.261Z" fill="#221f1f"/><path d="M882.047,418.552a1.172,1.172,0,0,1-1.161-1.018c-1.673-12.712-8.532-69.669-8.99-95.545a1.172,1.172,0,0,1,1.152-1.192,1.2,1.2,0,0,1,1.192,1.151c.456,25.766,7.3,82.6,8.972,95.279a1.165,1.165,0,0,1-1.165,1.325Z" fill="#221f1f"/><path d="M818.041,429.3a1.17,1.17,0,0,1-.833-.348c-.277-.279-6.873-6.8-12.986-2.8a1.171,1.171,0,1,1-1.282-1.959c5.106-3.341,10.739-.977,14.126,1.55.508-2.667,2.213-5.132,7.406-5.564,4.459-.367,7.882,2.375,9.686,4.291a6.246,6.246,0,0,1,6.182-3.415c4.76.222,9.56,4.944,9.761,5.145a1.172,1.172,0,1,1-1.652,1.662c-.044-.044-4.365-4.287-8.219-4.468a4.063,4.063,0,0,0-4.461,3.669,1.173,1.173,0,0,1-2.131.46c-.034-.055-3.657-5.431-8.971-5.01-5.038.421-5.454,2.895-5.454,5.614a1.175,1.175,0,0,1-1.172,1.172Z" fill="#221f1f"/><path d="M819.3,424.69a1.171,1.171,0,0,1-1.171-1.172V388.2a1.171,1.171,0,0,1,1.171-1.172h19.962a1.171,1.171,0,0,1,1.172,1.172v34.056a1.172,1.172,0,1,1-2.343,0V389.369H820.469v34.149A1.171,1.171,0,0,1,819.3,424.69Z" fill="#221f1f"/><path d="M881.049,410.587H852.626a1.172,1.172,0,1,1,0-2.343h28.3l6.474-1.364a1.172,1.172,0,1,1,.486,2.293l-6.6,1.389A1.261,1.261,0,0,1,881.049,410.587Z" fill="#221f1f"/><path d="M879.905,419.7h-28.98a1.172,1.172,0,1,1,0-2.343h28.98a1.172,1.172,0,0,1,0,2.343Z" fill="#221f1f"/><path d="M854.067,402.552a1.172,1.172,0,0,1,0-2.344h26.149l6.026-1.035a1.172,1.172,0,0,1,.389,2.312l-6.221,1.051Z" fill="#221f1f"/><path d="M875.9,426.421H849.625a1.172,1.172,0,0,1,0-2.344H875.9a1.172,1.172,0,0,1,0,2.344Z" fill="#221f1f"/><path d="M866.566,433.646H848.181a1.172,1.172,0,1,1,0-2.344h18.385a1.172,1.172,0,0,1,0,2.344Z" fill="#221f1f"/><path d="M862.726,442.524h-16.41a1.172,1.172,0,0,1,0-2.344h16.41a1.172,1.172,0,0,1,0,2.344Z" fill="#221f1f"/><path d="M855.173,396.2a1.172,1.172,0,0,1,0-2.344H879.41l5.978-.675a1.172,1.172,0,1,1,.261,2.33l-6.108.682Z" fill="#221f1f"/><path d="M856.175,390.264a1.172,1.172,0,0,1,0-2.344h22.5l5.754-.881a1.189,1.189,0,0,1,1.332.984,1.171,1.171,0,0,1-.984,1.332l-5.928.895Z" fill="#221f1f"/><path d="M857.722,380.713a1.172,1.172,0,0,1,0-2.344h19.837l5.509-.787a1.172,1.172,0,0,1,.325,2.321l-5.672.8Z" fill="#221f1f"/><path d="M858.8,373.725a1.172,1.172,0,1,1,0-2.343H876.89l5.191-.8a1.171,1.171,0,1,1,.353,2.316l-5.367.813Z" fill="#221f1f"/><path d="M859.7,367.681a1.172,1.172,0,0,1,0-2.344h16.584l5.029-.686a1.155,1.155,0,0,1,1.316,1,1.168,1.168,0,0,1-1.005,1.316l-5.184.7Z" fill="#221f1f"/><path d="M860.542,361.7a1.172,1.172,0,0,1,0-2.344H875.7l4.749-.913a1.171,1.171,0,1,1,.435,2.3l-4.967.934Z" fill="#221f1f"/><path d="M861.535,354.221a1.172,1.172,0,0,1,0-2.344h13.481l4.621-.625a1.2,1.2,0,0,1,1.316,1.01,1.174,1.174,0,0,1-1.009,1.316l-4.775.634Z" fill="#221f1f"/><path d="M862.238,348.548a1.172,1.172,0,1,1,0-2.343h12.3l4.385-.78a1.172,1.172,0,0,1,.4,2.31l-4.586.8Z" fill="#221f1f"/><path d="M863,341.852a1.172,1.172,0,0,1,0-2.344h11.018l4.2-.752a1.172,1.172,0,0,1,.4,2.309l-4.4.769Z" fill="#221f1f"/><path d="M863.556,336.4a1.172,1.172,0,0,1,0-2.344h10.071l4.032-.834a1.172,1.172,0,1,1,.463,2.3l-4.264.857Z" fill="#221f1f"/><path d="M864.092,330.368a1.172,1.172,0,0,1,0-2.344h9.223l3.864-.743a1.171,1.171,0,1,1,.43,2.3l-4.078.764Z" fill="#221f1f"/><path d="M833.963,286.115c-.208,0-.409,0-.6-.006l-.631-.007H750.995c-.727-.063-6.161-.672-6.161-4.279a3.413,3.413,0,0,1,1.373-2.538c3.026-2.638,11.835-4.939,18.562-5.157a4.628,4.628,0,0,1-.378-.652,5.022,5.022,0,0,1,.041-4.213c2.491-6.031,13.829-6.436,16.074-6.455h.112c4.8,0,11.094,2.7,13.661,5.568,2.021-2.29,6.88-6.676,13.806-6.557,7.731.168,14.137,4.08,16.277,7.333,1.872-.989,5.624-2.417,8.507.078a5.222,5.222,0,0,1,1.934,4.928,6.215,6.215,0,0,1-1.517,3.016c2.623.723,6.028,2.219,5.692,5.069C838.557,285.819,835.973,286.115,833.963,286.115Zm-1.233-2.357.668.007c2.406.055,3.058-.132,3.255-1.8.155-1.333-3.655-2.64-6.352-3.035a1.172,1.172,0,0,1-.256-2.251,4.137,4.137,0,0,0,2.449-2.923A2.9,2.9,0,0,0,831.336,271c-2.541-2.2-6.74.73-6.779.76a1.182,1.182,0,0,1-1.06.152,1.167,1.167,0,0,1-.741-.774c-.577-1.945-6.448-6.8-14.721-6.976-7.821-.186-12.838,6.8-12.886,6.867a1.172,1.172,0,0,1-2.067-.274c-.723-2.03-7.248-5.605-12.455-5.605h-.1c-4.12.037-12.329,1.13-13.931,5.007a2.768,2.768,0,0,0-.1,2.3,4.4,4.4,0,0,0,2.41,1.871,1.177,1.177,0,0,1,.8,1.374,1.149,1.149,0,0,1-1.3.908c-5.916-.807-17.492,1.675-20.664,4.439-.554.483-.57.744-.57.771,0,1.107,2.559,1.811,3.927,1.942Z" fill="#221f1f"/><path d="M688.347,295.08H593.464a1.172,1.172,0,0,1,0-2.344h94.883a4.668,4.668,0,0,0,2.707-.954c.151-.163.144-.253.14-.3-.275-.94-4.617-3.207-8.4-2.122a1.174,1.174,0,0,1-1.457-.832,11.922,11.922,0,0,0-6.658-7.111,22.637,22.637,0,0,0-13.989-.952,1.175,1.175,0,0,1-1.513-1.021,10.772,10.772,0,0,0-8.891-9.278c-8.734-1.8-15.934,1.755-17.6,6.084a1.212,1.212,0,0,1-1.174.749,1.172,1.172,0,0,1-1.062-.9c-.005-.02-.6-2.406-2.381-3.09-1.288-.5-3.014-.028-5.106,1.4a1.172,1.172,0,0,1-1.714-.454c-.149-.3-3.717-7.411-11.908-7.639-8.69-.252-11.528,2.235-15.11,5.371a1.171,1.171,0,1,1-1.543-1.763c3.651-3.2,7.079-6.2,16.717-5.951a16.36,16.36,0,0,1,13.3,7.828c2.342-1.345,4.427-1.676,6.221-.976a5.875,5.875,0,0,1,2.788,2.4c3.165-4.236,10.4-7.143,19.037-5.36A13.148,13.148,0,0,1,661.267,277.9a25.271,25.271,0,0,1,14.38,1.383,14.67,14.67,0,0,1,7.58,7.584,12.342,12.342,0,0,1,8.491,1.906,3.673,3.673,0,0,1,1.815,2.542,2.7,2.7,0,0,1-.765,2.065A6.761,6.761,0,0,1,688.347,295.08Z" fill="#221f1f"/><rect width="4.897" height="7.721" rx="1.045" transform="translate(599.015 342.559)" fill="#221f1f"/><rect width="4.897" height="7.721" rx="1.045" transform="translate(608.432 342.559)" fill="#221f1f"/><rect width="4.897" height="7.721" rx="1.045" transform="translate(605.983 386.771)" fill="#221f1f"/><rect width="4.897" height="7.721" rx="1.045" transform="translate(623.31 393.833)" fill="#221f1f"/><rect width="4.897" height="7.721" rx="1.045" transform="translate(637.017 403.061)" fill="#221f1f"/><rect width="4.897" height="7.721" rx="1.045" transform="translate(671.658 389.031)" fill="#221f1f"/><rect width="4.897" height="7.721" rx="1.045" transform="translate(678.25 403.438)" fill="#221f1f"/><rect width="4.897" height="7.721" rx="1.045" transform="translate(720.435 416.195)" fill="#221f1f"/><rect width="4.897" height="7.721" rx="1.045" transform="translate(822.948 395.03)" fill="#221f1f"/><rect width="4.897" height="7.721" rx="1.045" transform="translate(830.481 398.891)" fill="#221f1f"/><rect width="4.897" height="7.721" rx="1.045" transform="translate(825.396 408.721)" fill="#221f1f"/><rect width="4.897" height="7.721" rx="1.045" transform="translate(728.268 424.956)" fill="#221f1f"/></g></g></svg>