<svg xmlns="http://www.w3.org/2000/svg" xmlns:xlink="http://www.w3.org/1999/xlink" width="960" height="470" viewBox="0 0 960 470"><defs><clipPath id="b"><rect width="960" height="470"/></clipPath></defs><g id="a" clip-path="url(#b)"><rect width="960" height="470" fill="#fff"/><g transform="translate(58.642 -12.056)"><g transform="translate(33.714 28.185)"><g transform="translate(593.459 40.759)"><path d="M425.587,172.9a61,61,0,1,1,61-61A61.066,61.066,0,0,1,425.587,172.9Zm0-111.582a50.584,50.584,0,1,0,50.583,50.585A50.641,50.641,0,0,0,425.587,61.322Z" transform="translate(-364.59 -50.91)" fill="#dedede"/></g><g transform="translate(572.536 307.323)"><path d="M413.92,321.523a61,61,0,1,1,61-61A61.064,61.064,0,0,1,413.92,321.523Zm0-111.58A50.583,50.583,0,1,0,464.5,260.527,50.641,50.641,0,0,0,413.92,209.944Z" transform="translate(-352.925 -199.53)" fill="#dedede"/></g><g transform="translate(59.944 288.069)"><path d="M128.13,310.788a61,61,0,1,1,61-61A61.066,61.066,0,0,1,128.13,310.788Zm0-111.58a50.583,50.583,0,1,0,50.585,50.583A50.641,50.641,0,0,0,128.13,199.209Z" transform="translate(-67.135 -188.795)" fill="#dedede"/></g><g transform="translate(262.692 29.682)"><path d="M219.84,124.063A39.665,39.665,0,1,1,259.506,84.4,39.711,39.711,0,0,1,219.84,124.063Zm0-72.558A32.894,32.894,0,1,0,252.733,84.4,32.93,32.93,0,0,0,219.84,51.5Z" transform="translate(-180.175 -44.734)" fill="#dedede"/></g><g transform="translate(702.302 11.268)"><circle cx="21.698" cy="21.698" r="21.698" fill="#dedede"/></g><g transform="translate(200.222 351.824)"><circle cx="21.698" cy="21.698" r="21.698" fill="#dedede"/></g><g transform="translate(706.619 376.607)"><circle cx="21.698" cy="21.698" r="21.698" fill="#dedede"/></g><g transform="translate(454.412 330.127)"><circle cx="21.698" cy="21.698" r="21.698" fill="#dedede"/></g><g transform="translate(511.628 124.449)"><circle cx="31.915" cy="31.915" r="31.915" fill="#dedede"/></g><g transform="translate(680.022 201.989)"><circle cx="43.978" cy="43.978" r="43.978" fill="#dedede"/></g><g transform="translate(340.168 240.454)"><circle cx="39.127" cy="39.127" r="39.127" fill="#dedede"/></g><g transform="translate(210.193 131.614)"><circle cx="31.413" cy="31.413" r="31.413" fill="#dedede"/></g><g transform="translate(3.117 98.572)"><circle cx="39.272" cy="39.272" r="39.272" fill="#dedede"/></g><g transform="translate(550.094)"><path d="M392.25,28.5a12.891,12.891,0,0,1,3.524,23.8c-9.4,5.316-25.071,22.987-30.434,36.957a12.891,12.891,0,1,1-24.068-9.241c7.045-18.356,26.192-41.325,41.809-50.158A12.841,12.841,0,0,1,392.25,28.5Z" transform="translate(-340.412 -28.185)" fill="#dedede"/></g><g transform="translate(197.039 279.152)"><path d="M231.371,227.423a14.805,14.805,0,0,1-25.683,10.191c-8.414-9.111-32.287-21.99-49.315-24.314a14.806,14.806,0,0,1,4.007-29.34c22.373,3.056,53.083,18.427,67.063,33.567A14.748,14.748,0,0,1,231.371,227.423Z" transform="translate(-143.571 -183.823)" fill="#dedede"/></g><g transform="translate(20.74 254.967)"><path d="M99.712,170.8a12.891,12.891,0,0,1,2.4,23.937c-9.641,4.87-26.124,21.783-32.138,35.486a12.891,12.891,0,0,1-23.609-10.362c7.9-18,28.106-40.047,44.121-48.138A12.851,12.851,0,0,1,99.712,170.8Z" transform="translate(-45.277 -170.339)" fill="#dedede"/></g><g transform="translate(728.623 165.951)"><path d="M440.017,129.9a8.139,8.139,0,0,1,9.214-9.106c18.264,2.59,28.565,10.683,35.5,17.443a8.138,8.138,0,1,1-11.362,11.653c-5.756-5.614-12.941-11.07-26.421-12.982A8.158,8.158,0,0,1,440.017,129.9Zm43.514,13.574a4.475,4.475,0,0,0-1.327-2.647c-6.539-6.376-16.255-14.01-33.481-16.453a4.521,4.521,0,1,0-1.27,8.952c14.508,2.059,22.242,7.933,28.439,13.974A4.521,4.521,0,0,0,483.569,144,4.338,4.338,0,0,0,483.531,143.471Z" transform="translate(-439.949 -120.709)" fill="#dedede"/></g><g transform="translate(163.99 82.019)"><path d="M133.112,127.266a11.781,11.781,0,0,1-5.906-17.8c15.077-22.04,32.186-30.217,45.407-34.878a11.78,11.78,0,1,1,7.834,22.219c-10.977,3.871-22.669,9.694-33.8,25.961A11.809,11.809,0,0,1,133.112,127.266ZM178.641,79.5a6.5,6.5,0,0,0-4.287.023c-12.469,4.4-28.606,12.109-42.828,32.9a6.542,6.542,0,0,0,1.706,9.1,6.529,6.529,0,0,0,9.1-1.706c11.978-17.509,24.562-23.778,36.376-27.942a6.544,6.544,0,0,0,.649-12.075A6.422,6.422,0,0,0,178.641,79.5Z" transform="translate(-125.145 -73.914)" fill="#dedede"/></g><g transform="translate(185.627 0.885)"><path d="M178.486,28.686a11.835,11.835,0,0,1,3.126.542A11.78,11.78,0,0,1,189.3,44.009c-8.041,25.464-22.045,38.25-33.347,46.544a11.78,11.78,0,0,1-13.938-18.994c9.382-6.886,18.883-15.848,24.818-34.643A11.811,11.811,0,0,1,178.486,28.686ZM148.76,87.6a6.486,6.486,0,0,0,4.095-1.264c10.659-7.824,23.867-19.882,31.451-43.9a6.544,6.544,0,1,0-12.48-3.941c-6.389,20.228-16.614,29.876-26.714,37.287A6.544,6.544,0,0,0,148.76,87.6Z" transform="translate(-137.208 -28.679)" fill="#dedede"/></g><g transform="translate(84.657 153.051)"><path d="M118.684,113.563a12.809,12.809,0,0,1,13.683,15.116c-5.334,28.543-18.77,44.183-29.88,54.62a12.809,12.809,0,0,1-17.541-18.671c9.224-8.665,18.3-19.588,22.241-40.654A12.84,12.84,0,0,1,118.684,113.563ZM94.336,181.055a7.049,7.049,0,0,0,4.253-1.9c10.48-9.843,23.152-24.6,28.183-51.517a7.115,7.115,0,1,0-13.988-2.613c-4.238,22.675-14.01,34.43-23.939,43.758a7.116,7.116,0,0,0,4.651,12.3A7.286,7.286,0,0,0,94.336,181.055Z" transform="translate(-80.914 -113.517)" fill="#dedede"/></g><g transform="translate(523.559 334.201)"><path d="M360.254,295.51a13.742,13.742,0,0,1-21.6-3.419c-14.751-27.431-14.053-49.537-11.8-65.732a13.74,13.74,0,0,1,27.216,3.793c-1.874,13.445-2.107,28.678,8.782,48.924A13.773,13.773,0,0,1,360.254,295.51Zm-25.08-72.759A7.573,7.573,0,0,0,332.9,227.2c-2.129,15.274-2.787,36.125,11.128,62a7.632,7.632,0,1,0,13.443-7.232c-11.718-21.79-11.466-38.187-9.45-52.658a7.633,7.633,0,0,0-12.161-7.144A7.432,7.432,0,0,0,335.174,222.751Z" transform="translate(-325.618 -214.515)" fill="#dedede"/></g><g transform="translate(383.601 198.588)"><g transform="translate(0)"><path d="M247.589,150.4a11.734,11.734,0,0,1,15.09-11c25.474,7.617,38.419,21.364,46.849,32.489a11.729,11.729,0,1,1-18.7,14.168c-7-9.237-16.069-18.558-34.871-24.181A11.757,11.757,0,0,1,247.589,150.4ZM306.7,179.1a6.451,6.451,0,0,0-1.324-4.057c-7.951-10.494-20.158-23.46-44.187-30.644a6.516,6.516,0,1,0-3.732,12.487c20.237,6.05,30,16.085,37.533,26.027A6.52,6.52,0,0,0,306.7,179.1Z" transform="translate(-247.587 -138.906)" fill="#dedede"/></g></g><g transform="translate(553.774 188.066)"><path d="M344.29,218.588a12.836,12.836,0,0,1-.949-11.257c14.042-36.105,48.623-60.9,67.986-72.47a12.851,12.851,0,1,1,13.181,22.065c-16.533,9.879-45.952,30.771-57.21,59.721a12.853,12.853,0,0,1-23.008,1.941Z" transform="translate(-342.464 -133.04)" fill="#dedede"/></g><g transform="translate(103.628 16.696)"><path d="M96.038,139.989a12.381,12.381,0,0,1-4.543-9.911c.94-37.377,24.23-71.2,38.03-88.042a12.4,12.4,0,1,1,19.186,15.726c-11.782,14.376-31.661,42.971-32.416,72.94a12.4,12.4,0,0,1-20.257,9.287Z" transform="translate(-91.491 -37.494)" fill="#dedede"/></g><g transform="translate(0 42.689)"><path d="M54.455,93.467A20.74,20.74,0,1,1,75.195,72.727,20.764,20.764,0,0,1,54.455,93.467Zm0-35.007A14.267,14.267,0,1,0,68.721,72.727,14.284,14.284,0,0,0,54.455,58.459Z" transform="translate(-33.714 -51.986)" fill="#dedede"/></g><g transform="translate(612.677 247.778)"><path d="M396.161,208.043a20.856,20.856,0,1,1,20.854-20.856A20.879,20.879,0,0,1,396.161,208.043Zm0-35.2a14.347,14.347,0,1,0,14.345,14.347A14.364,14.364,0,0,0,396.161,172.84Z" transform="translate(-375.305 -166.331)" fill="#dedede"/></g><g transform="translate(392.984 345.314)"><g transform="translate(0)"><path d="M273.676,262.425a20.857,20.857,0,1,1,20.854-20.856A20.88,20.88,0,0,1,273.676,262.425Zm0-35.2a14.346,14.346,0,1,0,14.343,14.347A14.364,14.364,0,0,0,273.676,227.222Z" transform="translate(-252.818 -220.711)" fill="#dedede"/></g></g></g><g transform="translate(185.644 34.88)"><path d="M422.84,156.192v83.675a13.163,13.163,0,0,1-13.16,13.16H305.08a13.164,13.164,0,0,1-13.16-13.16V156.192a13.118,13.118,0,0,1,12.986-13.124.575.575,0,0,1,.174-.018h104.6a.576.576,0,0,1,.174.018A13.13,13.13,0,0,1,422.84,156.192Zm-56.123,39.255a18.265,18.265,0,1,0-18.673,0v29.128a9.337,9.337,0,0,0,18.673,0Z" transform="translate(19.268 56.276)" fill="#fff"/><path d="M404.109,169.2v.036a.576.576,0,0,0-.174-.018H390.221V169.2a2.007,2.007,0,0,0,.018-.328c0-22.956-17.287-43.5-38.6-43.5-21.326,0-38.595,20.546-38.595,43.5v.346H299.334a.575.575,0,0,0-.174.018V169.2c0-31.191,23.494-59.122,52.482-59.122S404.109,138.009,404.109,169.2Z" transform="translate(25.013 30.109)" fill="#fff"/><path d="M354.765,171.6a18.252,18.252,0,0,1-8.93,15.674V216.4a9.337,9.337,0,0,1-18.673,0V187.276a18.254,18.254,0,1,1,27.6-15.674Z" transform="translate(40.149 64.446)" fill="#888"/><path d="M352.608,49.93l21.57,59.054L301.53,135.3a40.377,40.377,0,0,0,1.18-4.7,17.281,17.281,0,0,0,4.125-4.681,9.191,9.191,0,0,1,2.047-3.5c1.162-1.214,3.693-2.6,3.675-3.469,0-1.108-2.081-1.352-4.229-.8a10.164,10.164,0,0,0-5.167,3.693c-.034-.174-.052-.33-.07-.486-.71-5.305-3-9.415-4.7-10.629-1.024-.71-3.573-.866-3.365.8a12.632,12.632,0,0,0-2.565-3.121,5.061,5.061,0,0,0-2.845-1.126l.192-3.885a8.1,8.1,0,0,0,3.761-.5c6.866-2.445,4.491-9.917,4.491-9.917l-6.952-20.79L308.24,66l14.392,42.376,22.538-8.166-14.84-42.22Z" transform="translate(17.441 -17.624)" fill="#fff"/><path d="M306.765,88.892c.018.868-2.513,2.255-3.675,3.469a9.191,9.191,0,0,0-2.047,3.5,17.281,17.281,0,0,1-4.125,4.681,32.959,32.959,0,0,0,.45-8.756,10.164,10.164,0,0,1,5.167-3.693C304.684,87.54,306.765,87.784,306.765,88.892Z" transform="translate(23.234 12.437)" fill="#fff"/><path d="M308.538,96.472a32.959,32.959,0,0,1-.45,8.756,40.376,40.376,0,0,1-1.18,4.7,35.516,35.516,0,0,1-1.959,4.785c-3.727-2.219-13.714-7.8-22.106-9.207.364-3.085,4.023-5.634,4.647-7.334.64-1.7.26-4.455-.556-6.4-.676-1.612-1.629-2.827-1.108-3.745.554-.988,1.577-.866,2.565-.174a9.15,9.15,0,0,1,3.329,5.237q-.129-.756-.26-1.4a14.261,14.261,0,0,0-2.479-5.913c-1.282-2.1.884-2.843,2.2-2.357a6.589,6.589,0,0,1,3.5,3.311c-.52-1.144-.988-2.081-1.2-2.427a1.476,1.476,0,0,1,.538-2.133,1.643,1.643,0,0,1,.97-.26,5.061,5.061,0,0,1,2.845,1.126,12.632,12.632,0,0,1,2.565,3.121c-.208-1.664,2.341-1.508,3.365-.8,1.7,1.214,3.987,5.323,4.7,10.629C308.486,96.142,308.5,96.3,308.538,96.472Z" transform="translate(12.064 7.754)" fill="#fff"/><path d="M340.092,104.393c.954.572,1.49.92,1.49.92-2.965,16.349-31,42.2-48.1,48.025-15.76,5.375-50.178-8.408-54.927-16.245l48.355-17.513c15.812-6.8,28.764-24.671,28.764-24.671.746.052,1.526.156,2.307.276C326.378,96.591,336.365,102.174,340.092,104.393Z" transform="translate(-23.079 18.072)" fill="#fff"/><path d="M304.785,91.126l-.192,3.885a1.643,1.643,0,0,0-.97.26,1.476,1.476,0,0,0-.538,2.133c.208.346.676,1.282,1.2,2.427a6.589,6.589,0,0,0-3.5-3.311c-1.318-.486-3.485.26-2.2,2.357a14.261,14.261,0,0,1,2.479,5.913q.132.648.26,1.4a9.15,9.15,0,0,0-3.329-5.237c-.988-.692-2.011-.814-2.565.174-.52.918.432,2.133,1.108,3.745.816,1.942,1.2,4.7.556,6.4-.624,1.7-4.283,4.249-4.647,7.334-.78-.12-1.56-.224-2.307-.276l-3.485-2.879-15.9-42.722L290.984,65.4s5.392,14.7,7.126,19.487C298.872,87,300.918,90.676,304.785,91.126Z" transform="translate(2.467 -5.349)" fill="#fff"/><path d="M238.241,150.763l-1.456.52-6.71,2.445-2.479.884c2.341-2.895,5.219-4.109,4.819-6.38-.38-2.081-4.213-.312-7.506,2.133-2.533,1.873-6.78,5.652-11.391,6.728.606-1.544,1.23-3.173,1.855-4.889a73.677,73.677,0,0,1-19.539-4.2l15.69-5.722h.018l7.558-2.757,10.975-3.987,14.634-5.34h.018l1.316-.486,4.907-1.769,5.74-2.1,44.386-16.159L346.1,93.305l3.485,2.879s-12.952,17.875-28.764,24.671l-48.355,17.513-22.332,8.078-4.093,1.492Z" transform="translate(-56.987 16.798)" fill="#fff"/><path d="M270.256,268.719c3.121,1.422,10.211,3.035,8.408,5.878-1.56,2.463-10.229,2.653-16.263,2.133-8.912-.744-28.454-.016-31.575-1-3.1-.988-1.889-9.693-1.473-12.952h.016a119.018,119.018,0,0,0,28.662-.416C261.69,265.2,267.151,267.3,270.256,268.719Z" transform="translate(-30.848 150.958)" fill="#fff"/><path d="M274.763,124.32l-44.386,16.159c1.525-2.3,3.865-5.236,4.663-6.986.936-2.029-5.514-11.859-5.514-11.859.746-2.22,7.212-21.864,8.166-24.1.97-2.22-7.854-20.546-8.7-22.662,7.11,4.093,24.4,13.888,28.21,17.495C264.429,99.213,270.134,113.865,274.763,124.32Z" transform="translate(-30.674 2.169)" fill="#fff"/><path d="M178.153,357.669a19.721,19.721,0,0,1-3.191-1.076c-1.7-30.012,6.936-145.728,8.062-150.269,8.774,1.837,19.645,3.641,28.818,3.745,0,0,8.46-38.683,14.182-63.614l.034.016c4.821,1.8,9.831,2.965,18.275,3.573a20.634,20.634,0,0,0,2.5.052c6.848-.07,11.357-2.6,11.807-4.3,1.526,4.889,4.075,12.4,7.854,23.13v.016c.086,20.946.33,39.635.71,45.513a90.135,90.135,0,0,0,14.964-1.3c18.6,55.119,25.885,140.475,25.885,140.475-2.427.5-4.8.92-7.142,1.232a119.018,119.018,0,0,1-28.662.416h-.016c-3.641-.382-5.774-.8-5.774-.8,0-76.981-32.6-158.7-32.6-158.7-8.772,22.73-21.17,160.812-21.17,160.812-1.855.416-3.641.764-5.357,1.058C192.249,360.3,182.713,358.848,178.153,357.669Z" transform="translate(-73.725 58.454)" fill="#fff"/><path d="M267.006,47.129c1.664,2.045,4.421,6.1,3.953,10.125-.468,4.057-2.843,6.554-6.12,7.11-.174-3.087,0-5.583-.138-7.006-.156-1.7-.556-4.647-2.029-6.484-.348,1.508-2.22,2.913-4.283,3.659-2.965,1.074-6.936,1.144-11.219,4.785-4.871,4.143-6.016,10.715-6.086,11.859,0-2.237-1.4-6.174-4.177-6.156-2.237,0-3.833,2.983-4.023,5.514a6.678,6.678,0,0,0,1.925,5.566,5.741,5.741,0,0,0,3.051,1.4c-2.513,4.005-7.992,7.924-13.384,10.369-1.076-7.092-11.755-23.164-12.97-25.9-1.282-2.861-5.2-9.763,2.861-16.993,8.08-7.212,29.3-14.01,41.4-12.952,12.119,1.058,18,8.86,17.789,11.305s-4.3,3.727-5.7,3.727Z" transform="translate(-46.203 -31.918)"/><path d="M231.728,69.118a5.741,5.741,0,0,1-3.051-1.4,6.678,6.678,0,0,1-1.925-5.566c.19-2.531,1.786-5.514,4.023-5.514,2.773-.018,4.177,3.919,4.177,6.156.07-1.144,1.214-7.716,6.086-11.859,4.283-3.641,8.254-3.711,11.219-4.785,2.063-.746,3.935-2.151,4.283-3.659,1.473,1.837,1.873,4.785,2.029,6.484.138,1.422-.036,3.919.138,7.006.018.588.07,1.212.122,1.855a26.288,26.288,0,0,0,2.133,8.5c.8,1.7,3.329,4.455,3.173,5.738-.156,1.266-4.509,2.913-4.925,4.127-.432,1.23-1.664,14.13-3.865,15.76-1.612,1.2-9.78.138-16.056-3.641a15.81,15.81,0,0,0-3.243,6.884h-.016a42.3,42.3,0,0,0-8.53-2.653,56,56,0,0,0-10.351-1.526,44.142,44.142,0,0,0,1.282-10.681,7.959,7.959,0,0,0-.086-.848C223.736,77.042,229.215,73.123,231.728,69.118Z" transform="translate(-40.071 -23.531)" fill="#fff"/><path d="M226.291,126.507l22.332-8.078c-1.058,11.027,11.2,110.1,11.2,110.1-5.236,3.417-12.1,5.305-18.239,6.346a90.135,90.135,0,0,1-14.964,1.3c-.38-5.878-.624-24.567-.71-45.513v-.016c-.07-18.1-.018-37.9.174-52.6.034-2.567.068-4.993.12-7.214C226.239,129.282,226.255,127.844,226.291,126.507Z" transform="translate(-33.142 36.737)" fill="#fff"/><path d="M227.915,83.364c.086-5.183.138-8.686.138-9.431.416.26,1.422.848,2.861,1.681.85,2.116,9.675,20.442,8.7,22.662-.954,2.237-7.42,21.88-8.166,24.1,0,0,6.45,9.831,5.514,11.859-.8,1.751-3.139,4.681-4.663,6.986l-5.74,2.1c.086-2.463.174-5.167.242-8.028.1-3.277.192-6.778.3-10.385.068-3.467.156-7.056.242-10.611.07-3.433.138-6.848.19-10.161.088-4.005.156-7.854.208-11.391C227.811,89.259,227.881,86.086,227.915,83.364Z" transform="translate(-32.6 1.425)" fill="#fff"/><path d="M231.449,73.048h.016a17.83,17.83,0,0,0-.52,3.693c-.952,1.542-3.9,6.588-5.236,6.362-.4-.052-.8-1.144-1.162-2.669V80.4c-.884-3.623-1.577-9.6-1.629-10A42.3,42.3,0,0,1,231.449,73.048Z" transform="translate(-35.492 -1.383)" fill="#c6c6c6"/><path d="M230.225,73.933c0,.744-.052,4.247-.138,9.431h-6.26V77.626c.364,1.525.764,2.617,1.162,2.669C226.324,80.521,229.272,75.475,230.225,73.933Z" transform="translate(-34.771 1.425)" fill="#c6c6c6"/><path d="M223.827,79.191h6.26c-.034,2.723-.1,5.9-.174,9.381h-6.086Z" transform="translate(-34.771 5.598)" fill="#888"/><path d="M229.913,84.421c-.052,3.537-.12,7.386-.208,11.391h-5.878V84.421Z" transform="translate(-34.771 9.748)" fill="#c6c6c6"/><path d="M223.827,90.772H229.7c-.052,3.313-.12,6.728-.19,10.161h-5.688Z" transform="translate(-34.771 14.788)" fill="#888"/><path d="M229.5,96.437h.018c-.086,3.555-.174,7.144-.242,10.611h-5.445V96.437Z" transform="translate(-34.771 19.284)" fill="#c6c6c6"/><path d="M229.254,102.353h.018c-.1,3.607-.192,7.108-.3,10.385h-5.149V102.353Z" transform="translate(-34.771 23.979)" fill="#888"/><path d="M223.827,108.143h5.149c-.068,2.861-.156,5.566-.242,8.028l-4.907,1.768Z" transform="translate(-34.771 28.574)" fill="#c6c6c6"/><path d="M223.827,124.425l4.093-1.492c-.036,1.336-.052,2.775-.088,4.317h-4.005Z" transform="translate(-34.771 40.311)" fill="#c6c6c6"/><path d="M223.827,135.623V125.34h4.005c-.052,2.22-.086,4.647-.12,7.214H227.5c-.728,1.438-2.289,4.125-3.677,7.16Z" transform="translate(-34.771 42.221)" fill="#888"/><path d="M229.337,129.362h.208c-.192,14.7-.244,34.5-.174,52.6-3.779-10.733-6.328-18.241-7.854-23.13a57.448,57.448,0,0,0,.694-5.842c.276-2.931.588-6.382,1.04-9.19.052-.364.12-.728.208-1.092a32.651,32.651,0,0,1,2.2-6.19C227.048,133.487,228.609,130.8,229.337,129.362Z" transform="translate(-36.604 45.413)" fill="#fff"/><path d="M230.892,131.073v4.091a32.651,32.651,0,0,0-2.2,6.19H214.924v-9.033a11.636,11.636,0,0,0,1.492-1.248Z" transform="translate(-41.836 46.771)" fill="#888"/><path d="M230.232,125.34v10.283H215.756A10.562,10.562,0,0,0,218.3,130.8c.086-.068.19-.138.276-.208,2.047-1.629,2.861-3.381,2.393-4.733l1.456-.52Z" transform="translate(-41.176 42.221)" fill="#555"/><path d="M227.28,123.765v2.826h-7.8Z" transform="translate(-38.223 40.971)" fill="#888"/><path d="M230.893,108.143v9.8l-1.318.485H214.924V108.143Z" transform="translate(-41.836 28.574)" fill="#888"/><rect width="15.969" height="10.386" transform="translate(173.088 126.332)" fill="#555"/><rect width="15.969" height="10.611" transform="translate(173.088 115.721)" fill="#888"/><rect width="15.969" height="10.16" transform="translate(173.088 105.561)" fill="#555"/><path d="M231.422,84.421V95.812H214.257c.66-3.935,1.266-7.768,1.82-11.391Z" transform="translate(-42.366 9.748)" fill="#888"/><path d="M230.616,79.191v9.381H215.272c.5-3.347.954-6.5,1.336-9.381Z" transform="translate(-41.56 5.598)" fill="#555"/><path d="M230.025,80.434v5.738H216.017a97.805,97.805,0,0,0,1.144-13.818c.4,1.422,1.212,8.2,2.7,8.27,1.473.086,7.438-8.738,8.53-10.229.052.4.744,6.38,1.629,10Z" transform="translate(-40.969 -1.383)" fill="#888"/><path d="M229.558,113.876l-14.633,5.34v-5.34Z" transform="translate(-41.836 33.123)" fill="#555"/><path d="M217.539,69.544A56,56,0,0,1,227.89,71.07c-1.092,1.49-7.058,10.315-8.53,10.229-1.492-.07-2.307-6.848-2.7-8.27C216.689,72.873,217.087,71.521,217.539,69.544Z" transform="translate(-40.463 -2.058)" fill="#c6c6c6"/><path d="M214.924,136.8h13.768c-.088.364-.156.728-.208,1.092-.452,2.809-.764,6.26-1.04,9.19H214.924Z" transform="translate(-41.836 51.32)" fill="#555"/><path d="M214.924,142.538h12.519a57.448,57.448,0,0,1-.694,5.842c-.45,1.7-4.959,4.231-11.807,4.3l-.018-.33Z" transform="translate(-41.836 55.87)" fill="#888"/><path d="M228.991,132.328a10.562,10.562,0,0,1-2.549,4.821,11.633,11.633,0,0,1-1.492,1.248,31.215,31.215,0,0,1-3.189,1.941,86,86,0,0,1-13.091,4.993,31.661,31.661,0,0,1-6.38,1.44c1.7-3.329,3.831-7.854,6.1-13.576,4.611-1.076,8.859-4.855,11.391-6.728,3.293-2.445,7.126-4.213,7.506-2.133.4,2.271-2.479,3.485-4.819,6.38l2.479-.884,6.71-2.445c.468,1.352-.346,3.1-2.393,4.733C229.181,132.19,229.077,132.26,228.991,132.328Z" transform="translate(-51.863 40.695)" fill="#fff"/><path d="M224.112,94.685c-.554,3.623-1.16,7.456-1.82,11.391-.572,3.347-1.16,6.762-1.769,10.161-.624,3.589-1.282,7.144-1.924,10.611-.658,3.607-1.334,7.108-1.977,10.385-.728,3.763-1.421,7.248-2.063,10.283-.814,3.969-1.526,7.178-2.047,9.327l-7.558,2.757h-.018c.71-5.808,0-24.221-.086-26.943a4.119,4.119,0,0,1,1.04-2.045,66.929,66.929,0,0,1,7.472-7.386c.138-3.537-9.761-27.031-9.207-30.29.572-3.261,15.43-16.732,16.853-19.419,2.843-1.04,4.855-1.751,5.583-2.029A97.805,97.805,0,0,1,225.448,85.3C225.066,88.184,224.615,91.339,224.112,94.685Z" transform="translate(-50.4 -0.516)" fill="#fff"/><path d="M224.122,152.367l.018.33a20.634,20.634,0,0,1-2.5-.052c-8.444-.608-13.454-1.769-18.275-3.573l-.034-.016c.52-2.324,1.022-4.509,1.49-6.538l.122.036h19.175Z" transform="translate(-51.034 55.854)" fill="#c6c6c6"/><path d="M223.462,136.8v10.283H204.287l-.122-.036c1.006-4.229,1.838-7.768,2.481-10.247h16.817Z" transform="translate(-50.375 51.32)" fill="#888"/><path d="M222.365,131.785V140.8H205.548c.19-.814.38-1.526.536-2.1a86,86,0,0,0,13.091-4.993,31.221,31.221,0,0,0,3.189-1.941Z" transform="translate(-49.277 47.323)" fill="#c6c6c6"/><path d="M219.78,113.876v5.34L208.8,123.2c.52-2.149,1.232-5.357,2.047-9.327Z" transform="translate(-46.692 33.124)" fill="#888"/><path d="M218.875,108.143v10.283h-8.929c.642-3.035,1.334-6.52,2.063-10.283Z" transform="translate(-45.787 28.574)" fill="#c6c6c6"/><path d="M217.962,102.353v10.385H211.1c.642-3.277,1.318-6.778,1.977-10.385Z" transform="translate(-44.874 23.979)" fill="#888"/><path d="M217.087,96.437v10.611H212.2c.642-3.467,1.3-7.022,1.924-10.611h2.965Z" transform="translate(-44 19.284)" fill="#c6c6c6"/><path d="M216.236,90.772v10.161h-2.965c.608-3.4,1.2-6.814,1.769-10.161Z" transform="translate(-43.148 14.788)" fill="#888"/><path d="M214.519,123.35c-6.744,10.455-16.3,28.608-9.727,33.913a46.91,46.91,0,0,0,13.074,7.16h.018a73.677,73.677,0,0,0,19.539,4.2c-.624,1.716-1.248,3.345-1.855,4.889-2.272,5.722-4.405,10.247-6.1,13.576-2.289,4.455-3.8,6.728-3.8,6.728-3.017.38-14.91-.764-27.135-4.249h-.016c-7.994-2.289-16.124-5.566-21.968-10.109-5.375-4.161-8.824-9.363-8.478-15.794,1.734-31.919,24.447-60.3,37.866-70.6,10.647-8.184,33.065-16.593,43.71-20.442-1.422,2.687-16.28,16.159-16.853,19.419-.554,3.259,9.345,26.753,9.207,30.29a66.929,66.929,0,0,0-7.472,7.386l-3.711-2.7,2.687-4.543H225.79v-7.178a1.205,1.205,0,0,0-2.411,0v1.768a1.2,1.2,0,1,0-2.393,0v5.41h-2.913l-1.058,2.133Z" transform="translate(-79.038 0.381)" fill="#fff"/><path d="M234.032,135.635c-.156.572-.346,1.284-.536,2.1-.642,2.479-1.474,6.018-2.481,10.247-.468,2.029-.97,4.213-1.49,6.538-5.722,24.931-14.182,63.614-14.182,63.614-9.172-.1-20.043-1.908-28.818-3.745-9.275-1.925-16.193-3.9-16.193-3.9,1.7-18.9,9.553-58.188,12.656-65.972h.018l13.7-4.959h.016c12.225,3.485,24.118,4.629,27.135,4.249,0,0,1.508-2.272,3.8-6.728A31.659,31.659,0,0,0,234.032,135.635Z" transform="translate(-77.225 50.392)" fill="#fff"/><path d="M215.536,104.562l3.711,2.7a4.119,4.119,0,0,0-1.04,2.045c.086,2.723.8,21.136.086,26.943l-15.69,5.722h-.018a46.91,46.91,0,0,1-13.074-7.16c-6.572-5.305,2.983-23.458,9.727-33.913l2.5,1.248-1.212,2.411Z" transform="translate(-63.756 22.828)" fill="#fff"/><path d="M212.375,100.41l-2.687,4.543H194.673l1.214-2.41,1.058-2.133h15.431Z" transform="translate(-57.908 22.437)" fill="#fff"/><path d="M217.991,269.861c3.1,1.42,10.195,3.033,8.39,5.878-1.56,2.479-10.229,2.653-16.245,2.149-8.93-.762-28.47-.016-31.574-1.022-3.121-.988-2.133-9.657-1.7-12.934,4.559,1.178,14.1,2.635,29.18-.018C209.7,266.756,214.871,268.456,217.991,269.861Z" transform="translate(-72.436 152.193)" fill="#fff"/><path d="M201.308,96.937v7.178H198.9V96.937a1.205,1.205,0,0,1,2.411,0Z" transform="translate(-54.555 18.732)" fill="#888"/><path d="M199.956,97.923v5.41h-2.393v-5.41a1.2,1.2,0,1,1,2.393,0Z" transform="translate(-55.614 19.514)" fill="#888"/><path d="M171.858,148.222l44.074-16.038c5.844,4.543,13.974,7.82,21.968,10.109l-13.7,4.959h-.018l-45.893,16.627a30.781,30.781,0,0,1,.156,3.1,30.021,30.021,0,1,1-6.59-18.761Zm-8.114,18.761a15.309,15.309,0,1,0-15.31,15.308A15.313,15.313,0,0,0,163.743,166.983Z" transform="translate(-118.421 47.653)" fill="#fff"/></g><g transform="translate(184.771 34.019)"><g transform="translate(218.63 13.84)"><path d="M240.7,59.488a.867.867,0,0,1-.138-1.724c3.022-.486,4.993-2.805,5.411-6.36.61-5.2-4.862-10.715-4.918-10.771a.867.867,0,1,1,1.223-1.229c.249.248,6.125,6.163,5.417,12.2-.506,4.319-3.069,7.262-6.857,7.872A.914.914,0,0,1,240.7,59.488Z" transform="translate(-239.829 -39.154)"/></g><g transform="translate(163.243)"><path d="M222.778,104.126a.789.789,0,0,1-.181-.02.86.86,0,0,1-.669-1.01c.009-.043.045-.178.1-.393,1.851-6.83,2.131-11.144,2.041-13.561-.176-4.683-6.774-15.787-10.319-21.755-1.349-2.267-2.321-3.9-2.667-4.681l-.257-.561c-1.412-3.06-4.715-10.222,3.336-17.427,8.344-7.461,29.975-14.23,42.063-13.17,12.127,1.064,18.853,9.027,18.573,12.247-.274,3.151-5.081,4.507-6.57,4.507a.866.866,0,0,1,0-1.733c1.178,0,4.688-1.15,4.843-2.925.147-1.682-5.153-9.33-17-10.369-11.732-1.024-32.687,5.517-40.754,12.736-7.1,6.349-4.378,12.241-2.918,15.407l.265.583c.3.683,1.306,2.369,2.572,4.5,3.88,6.525,10.371,17.45,10.562,22.574.1,2.538-.192,7.04-2.1,14.08l-.077.291A.876.876,0,0,1,222.778,104.126Z" transform="translate(-208.948 -31.438)"/></g><g transform="translate(194.893 18.943)"><path d="M227.462,64.041l-.054,0a.869.869,0,0,1-.812-.92c.005-.074.721-7.635,6.392-12.462A20.1,20.1,0,0,1,242,46.417c.886-.222,1.724-.43,2.466-.7,1.946-.7,3.483-1.957,3.736-3.046a.867.867,0,0,1,1.69.393c-.475,2.041-2.811,3.55-4.836,4.283a27.141,27.141,0,0,1-2.637.75,18.391,18.391,0,0,0-8.313,3.88c-4.454,3.792-5.695,9.838-5.784,11.251A.867.867,0,0,1,227.462,64.041Z" transform="translate(-226.594 -41.999)"/></g><g transform="translate(193.478 18.943)"><path d="M246.062,93.67a22,22,0,0,1-3.7-.375c-5.662-1.028-12.948-4.037-16.417-9.407a.867.867,0,0,1,1.456-.942c3.171,4.911,10.209,7.725,15.271,8.643,3.132.569,4.906.332,5.286.05,1.334-.99,2.556-9.172,3.017-12.252a26.336,26.336,0,0,1,.538-3.087c.3-.868,1.437-1.573,2.75-2.391a8.491,8.491,0,0,0,2.156-1.611c.048-.429-1.049-2.007-1.638-2.855A17.863,17.863,0,0,1,253.3,67.08a26.846,26.846,0,0,1-2.2-8.781,61.1,61.1,0,0,1-.215-6.258c.005-1.06.007-1.977-.052-2.608-.1-1.042-.395-4.215-1.833-6.026a.868.868,0,0,1,1.36-1.078c1.182,1.49,1.9,3.761,2.2,6.943.066.716.063,1.623.059,2.775a59.9,59.9,0,0,0,.206,6.091,25.1,25.1,0,0,0,2.045,8.208,17.62,17.62,0,0,0,1.336,2.111c1.108,1.6,2.064,2.974,1.925,4.1-.135,1.082-1.44,1.892-2.95,2.83a8.815,8.815,0,0,0-2.032,1.5c-.081.239-.273,1.523-.459,2.764-1.132,7.582-2.1,12.2-3.7,13.387A5.218,5.218,0,0,1,246.062,93.67Z" transform="translate(-225.805 -41.999)"/></g><g transform="translate(186.654 33.092)"><path d="M228.743,64.183a6.813,6.813,0,0,1-4.523-1.731,7.58,7.58,0,0,1-2.188-6.245c.244-3.031,2.185-6.31,4.9-6.319h.013a3.929,3.929,0,0,1,2.794,1.229,8.95,8.95,0,0,1,2.238,5.8.866.866,0,0,1-1.733,0,7.278,7.278,0,0,0-1.729-4.568,2.183,2.183,0,0,0-1.571-.725h-.007c-1.647.007-3,2.495-3.173,4.724a5.824,5.824,0,0,0,1.67,4.866,4.955,4.955,0,0,0,4.211,1.119.867.867,0,1,1,.506,1.659A4.859,4.859,0,0,1,228.743,64.183Z" transform="translate(-222.001 -49.888)"/></g><g transform="translate(178.278 45.588)"><path d="M218.2,68.953a.867.867,0,0,1-.359-1.657c5.671-2.563,10.781-6.5,13.018-10.037a.867.867,0,1,1,1.464.929c-2.441,3.858-7.716,7.953-13.766,10.688A.871.871,0,0,1,218.2,68.953Z" transform="translate(-217.331 -56.855)"/></g><g transform="translate(195.459 64.78)"><path d="M227.778,79.859h-.025a.868.868,0,0,1-.843-.891c.127-4.523,2.185-9.312,4.018-11.156a.867.867,0,1,1,1.23,1.221c-1.4,1.4-3.393,5.653-3.514,9.985A.867.867,0,0,1,227.778,79.859Z" transform="translate(-226.91 -67.555)"/></g><g transform="translate(177.084 67.476)"><path d="M236.416,74.968a.858.858,0,0,1-.377-.088c-4.064-1.973-14.34-4.088-18.508-4.088a.867.867,0,0,1,0-1.734c4.387,0,14.912,2.149,19.265,4.263a.867.867,0,0,1-.38,1.647Z" transform="translate(-216.665 -69.058)"/></g><g transform="translate(89.02 70.962)"><path d="M224.662,196.027c-8.173,0-37.124-4.023-50.493-16.485-4.654-4.339-6.868-9.266-6.577-14.643,1.722-31.851,24.341-60.6,38.193-71.245,11.727-9.007,37.023-18.087,46.546-21.505,1.464-.524,2.495-.9,2.967-1.083a.866.866,0,1,1,.647,1.607c-.484.2-1.535.572-3.028,1.108-8.55,3.069-34.566,12.406-46.076,21.249-13.608,10.453-35.827,38.691-37.518,69.963-.262,4.841,1.767,9.311,6.028,13.282,13.416,12.5,44.253,16.388,50.2,16,1.074-1.711,5.91-9.757,11.043-23.589-4.491-.386-20.686-2.368-31.962-11.468-9.92-8.007,12.535-39.479,12.765-39.795a.867.867,0,0,1,1.4,1.021c-7.176,9.863-19.814,31.987-13.079,37.423,12.491,10.08,31.933,11.162,32.127,11.171a.867.867,0,0,1,.771,1.162c-6.016,16.524-11.786,25.293-11.843,25.381a.871.871,0,0,1-.615.38A13.067,13.067,0,0,1,224.662,196.027Z" transform="translate(-167.566 -71.002)"/></g><g transform="translate(53.376 179.832)"><path d="M148.539,149.513a.856.856,0,0,1-.757-.481.894.894,0,0,1,.407-1.18l.036-.018L192.4,131.753a.866.866,0,1,1,.592,1.629L148.916,149.42A.807.807,0,0,1,148.539,149.513Z" transform="translate(-147.693 -131.701)"/></g><g transform="translate(59.868 189.945)"><path d="M152.179,160.655a.867.867,0,0,1-.294-1.682l59.608-21.586a.893.893,0,0,1,1.171.814.862.862,0,0,1-.66.845L152.475,160.6A.9.9,0,0,1,152.179,160.655Z" transform="translate(-151.313 -137.339)"/></g><g transform="translate(138.835 32.301)"><path d="M196.217,183.68a.874.874,0,0,1-.877-.868.861.861,0,0,1,.662-.843l149.367-54.375-15.594-41.9a.865.865,0,0,1,.517-1.117l20.234-7.336a.873.873,0,0,1,1.11.517s5.392,14.706,7.126,19.491c.648,1.772,3.243,7.388,9.332,5.218,5.982-2.127,4.039-8.564,3.955-8.839L365.1,72.852a.868.868,0,0,1,.527-1.091l17.131-6.19a.867.867,0,0,1,1.116.536l14.1,41.536,20.9-7.571L404.325,58.664a.867.867,0,0,1,.522-1.1l22.28-8.062a.866.866,0,0,1,1.108.518l21.57,59.054a.866.866,0,0,1-.52,1.112L376.637,136.5a.867.867,0,0,1-.588-1.632l71.83-26.022L426.9,51.424,406.244,58.9,420.8,100.306a.868.868,0,0,1-.524,1.1l-22.54,8.166a.852.852,0,0,1-.669-.034.868.868,0,0,1-.447-.5L382.516,67.5l-15.5,5.6L373.7,93.089c.913,2.873,1.033,8.855-5.022,11.009-6.034,2.149-9.922-1.82-11.542-6.258-1.489-4.109-5.675-15.531-6.828-18.677l-18.6,6.742,15.594,41.9a.864.864,0,0,1-.517,1.116l-150.269,54.7A.839.839,0,0,1,196.217,183.68Z" transform="translate(-195.34 -49.447)"/></g><g transform="translate(170.608 137.644)"><path d="M213.922,143.676a.868.868,0,0,1-.292-1.684l22.535-8.164,70.693-25.6a.867.867,0,0,1,.59,1.63l-93.235,33.763A.829.829,0,0,1,213.922,143.676Z" transform="translate(-213.055 -108.179)"/></g><g transform="translate(195.459 75.351)"><path d="M276.406,126.323a.865.865,0,0,1-.793-.517c-.594-1.345-1.205-2.757-1.837-4.215-4.168-9.632-9.355-21.616-15.522-27.465-3.435-3.257-18.8-12.074-26.188-16.313-2.421-1.388-4.17-2.393-4.757-2.768a.867.867,0,1,1,.935-1.46c.551.352,2.285,1.347,4.687,2.724,8.014,4.6,22.931,13.156,26.517,16.559,6.423,6.091,11.689,18.259,15.92,28.034.628,1.453,1.239,2.863,1.831,4.2a.867.867,0,0,1-.793,1.218Z" transform="translate(-226.91 -73.449)"/></g><g transform="translate(162.114 70.961)"><path d="M209.187,158.1a.915.915,0,0,1-.208-.023.867.867,0,0,1-.635-1.049c3.3-13.515,14.623-73.545,14.067-85.117a.867.867,0,1,1,1.733-.083c.576,11.972-10.7,71.64-14.116,85.612A.866.866,0,0,1,209.187,158.1Z" transform="translate(-208.319 -71.001)"/></g><g transform="translate(153.746 72.995)"><path d="M205.324,159.953c-.034,0-.07,0-.106-.005a.869.869,0,0,1-.755-.967c.622-5.108.118-20.388-.047-25.408l-.045-1.4c-.061-2.219,5.675-7.424,8.489-9.841-.221-2-2.391-8.1-4.323-13.531-3.227-9.079-5.166-14.72-4.852-16.528.357-2.048,4.423-6.355,10.582-12.693,2.868-2.949,5.833-6,6.346-6.975a.867.867,0,1,1,1.535.805c-.6,1.143-2.913,3.548-6.638,7.379-3.912,4.025-9.825,10.109-10.116,11.78-.258,1.489,2.534,9.343,4.776,15.651,2.807,7.894,4.506,12.81,4.437,14.532a.87.87,0,0,1-.3.626c-3.942,3.356-8.179,7.673-8.2,8.751l.045,1.392c.167,5.054.674,20.434.034,25.677A.864.864,0,0,1,205.324,159.953Z" transform="translate(-203.654 -72.135)"/></g><g transform="translate(156.537 164.109)"><path d="M206.077,134.441a.867.867,0,0,1-.2-1.711c3.7-.863,7.18-3.569,9.723-5.544.488-.38.938-.73,1.345-1.031,1.614-1.2,5.594-3.9,7.7-3.062a1.876,1.876,0,0,1,1.168,1.478c.355,1.944-1.076,3.25-2.592,4.631a22.114,22.114,0,0,0-2.405,2.445.867.867,0,1,1-1.349-1.089,23.583,23.583,0,0,1,2.586-2.638c1.469-1.34,2.228-2.082,2.055-3.038-.027-.147-.063-.161-.1-.176-.594-.24-2.861.49-6.032,2.841-.4.3-.838.637-1.315,1.008-2.669,2.073-6.324,4.914-10.392,5.865A.935.935,0,0,1,206.077,134.441Z" transform="translate(-205.209 -122.935)"/></g><g transform="translate(150.433 173.022)"><path d="M202.672,144.082a.866.866,0,0,1,0-1.733c2.484,0,14.483-3.847,19.055-6.331,5.1-2.768,5.732-4.089,6.819-7.508a.867.867,0,1,1,1.652.526c-1.241,3.9-2.163,5.53-7.644,8.507C217.941,140.048,205.677,144.082,202.672,144.082Z" transform="translate(-201.806 -127.904)"/></g><g transform="translate(169.234 168.083)"><path d="M213.156,136.329a.868.868,0,0,1-.339-1.666,30.783,30.783,0,0,0,7.974-4.6c1.654-1.316,2.461-2.757,2.109-3.756a.867.867,0,1,1,1.634-.578c.626,1.77-.346,3.844-2.663,5.689a32.3,32.3,0,0,1-8.378,4.845A.859.859,0,0,1,213.156,136.329Z" transform="translate(-212.289 -125.151)"/></g><g transform="translate(0 184.617)"><path d="M148.813,196.128a30.879,30.879,0,1,1,24.1-50.181.866.866,0,0,1-1.352,1.083,29.143,29.143,0,1,0,6.4,18.219,29.545,29.545,0,0,0-.152-3.017.867.867,0,1,1,1.725-.176,31.442,31.442,0,0,1,.161,3.193A30.915,30.915,0,0,1,148.813,196.128Z" transform="translate(-117.934 -134.369)"/></g><g transform="translate(14.708 199.314)"><path d="M142.31,174.914a16.176,16.176,0,1,1,16.176-16.175A16.193,16.193,0,0,1,142.31,174.914Zm0-30.617a14.442,14.442,0,1,0,14.442,14.442A14.458,14.458,0,0,0,142.31,144.3Z" transform="translate(-126.134 -142.563)"/></g><g transform="translate(192.734 155.159)"><path d="M227.411,237.424l-.422,0a.865.865,0,0,1-.854-.811c-.759-11.788-1.008-74.843-.418-105.419l.039-2.009q.021-1.205.047-2.314a.853.853,0,0,1,.89-.845.868.868,0,0,1,.845.89c-.02.735-.034,1.5-.048,2.3l-.038,2.014c-.565,29.191-.335,91.045.366,104.457,3.89-.05,20.935-.647,31.458-7.212-1.076-8.719-12.161-99.053-11.136-109.745a.85.85,0,0,1,.945-.778.865.865,0,0,1,.78.945c-1.037,10.806,11.075,108.92,11.2,109.908a.865.865,0,0,1-.386.834C249.234,237.1,230.537,237.424,227.411,237.424Z" transform="translate(-225.391 -117.945)"/></g><g transform="translate(193.963 75.353)"><path d="M226.944,144.57h-.032a.866.866,0,0,1-.836-.9c.086-2.459.172-5.16.242-8.019.065-2.041.124-4.165.183-6.344l.113-4.045c.068-3.454.154-7.04.24-10.591l.005-.256c.068-3.349.136-6.679.187-9.911.156-7.944.294-15.294.382-20.772.086-5.178.138-8.674.138-9.418a.867.867,0,0,1,1.734,0c0,.746-.052,4.254-.14,9.447-.086,5.478-.224,12.831-.38,20.773-.052,3.23-.118,6.565-.187,9.917l-.005.244c-.086,3.567-.174,7.149-.242,10.609l-.113,4.05c-.059,2.185-.118,4.31-.183,6.348-.068,2.857-.156,5.566-.242,8.03A.865.865,0,0,1,226.944,144.57Z" transform="translate(-226.076 -73.45)"/></g><g transform="translate(176.206 68.993)"><path d="M231.148,84.373a1.348,1.348,0,0,1-.224-.018c-.61-.1-1.837-.291-3.241-11.253-5.305,7.472-6.918,8.823-7.99,8.785-1.7-.081-2.38-3.072-3.157-7.289-.133-.721-.24-1.311-.328-1.627a.867.867,0,1,1,1.672-.463c.1.346.215.988.361,1.774.26,1.4.924,5.01,1.573,5.808.692-.418,2.484-2.353,6.981-8.735.352-.5.622-.881.782-1.1a.867.867,0,0,1,1.559.414c.563,4.888,1.534,10.554,2.21,11.89.429-.3,1.532-1.467,3.989-5.517l.226-.369a.867.867,0,0,1,1.478.906l-.221.362C233.98,82.617,232.446,84.373,231.148,84.373Z" transform="translate(-216.175 -69.904)"/></g><g transform="translate(198.326 77.032)"><path d="M230.75,141.734a.868.868,0,0,1-.723-1.345c.547-.829,1.2-1.734,1.846-2.638a33.078,33.078,0,0,0,2.768-4.233c.334-.951-2.165-6-5.458-11.018a.87.87,0,0,1-.1-.752l.529-1.589c2.929-8.842,6.911-20.8,7.673-22.578.459-1.79-5.472-14.828-7.422-19.113-.649-1.426-1.125-2.473-1.293-2.893a.868.868,0,1,1,1.611-.646c.163.411.628,1.429,1.261,2.821,6.17,13.56,8.116,18.928,7.436,20.512-.82,1.916-5.939,17.364-7.621,22.442l-.4,1.2c2.115,3.254,6.339,10.2,5.354,12.342a32.871,32.871,0,0,1-2.933,4.518c-.635.884-1.272,1.772-1.808,2.585A.868.868,0,0,1,230.75,141.734Z" transform="translate(-228.508 -74.386)"/></g><g transform="translate(210.668 119.024)"><path d="M237.686,118.152a.866.866,0,0,1-.838-.646c-1.923-7.266-1.4-18.413-1.378-18.883a.867.867,0,0,1,1.733.084c-.005.113-.533,11.352,1.32,18.356a.866.866,0,0,1-.615,1.06A.957.957,0,0,1,237.686,118.152Z" transform="translate(-235.389 -97.798)"/></g><g transform="translate(215.484 112.974)"><path d="M285.3,155.78c-17.672,0-42.985-11.066-47.1-17.861a.867.867,0,1,1,1.483-.9c4.656,7.689,39.866,21.588,54.82,15.545,15.269-6.163,43.082-30.724,46.506-46.452-2.642-1.623-15.181-9.061-24.529-9.92-2.052,2.741-14.1,18.232-28.843,24.563a.867.867,0,0,1-.683-1.593c15.423-6.624,28.285-24.206,28.412-24.382a.914.914,0,0,1,.761-.357c10.927.75,25.693,10.141,26.316,10.541a.863.863,0,0,1,.387.884c-3.04,16.716-31.865,41.943-47.676,48.325A26.65,26.65,0,0,1,285.3,155.78Z" transform="translate(-238.074 -94.425)"/></g><g transform="translate(305.309 89.656)"><path d="M298.73,105.166a.844.844,0,0,1-.165-.016.867.867,0,0,1-.689-1.013c.587-3.074.942-7.933.011-11.513-.945-3.652-3.236-7.345-4.78-8.5-1.27-.951-2.448-1.114-2.812-.861-.5.344-.481.61-.258,1.01a54.965,54.965,0,0,1,3.587,8.428,31.347,31.347,0,0,1,.579,8.062.867.867,0,1,1-1.709-.287,30.965,30.965,0,0,0-.552-7.361,54.622,54.622,0,0,0-3.42-8,2.34,2.34,0,0,1,.787-3.281c1.134-.782,3.074-.418,4.837.9,1.812,1.358,4.335,5.266,5.422,9.456,1,3.856.631,9.022.013,12.272A.869.869,0,0,1,298.73,105.166Z" transform="translate(-288.156 -81.424)"/></g><g transform="translate(312.461 92.596)"><path d="M297.576,114.666a.868.868,0,0,1-.775-1.254,33.887,33.887,0,0,0,3.426-18.228c-.708-5.3-2.963-9.056-4.339-10.026a2.386,2.386,0,0,0-1.964-.23c-.032.022-.072.047-.032.239a.865.865,0,0,1-.682,1.021.875.875,0,0,1-1.019-.68,1.867,1.867,0,0,1,.787-2.034,3.915,3.915,0,0,1,3.908.267c1.953,1.377,4.317,5.671,5.058,11.214a35.727,35.727,0,0,1-3.593,19.229A.866.866,0,0,1,297.576,114.666Z" transform="translate(-292.143 -83.063)"/></g><g transform="translate(320.149 100.235)"><path d="M297.3,101.794a.866.866,0,0,1-.52-1.56,16.4,16.4,0,0,0,3.856-4.326l.262-.61a8.691,8.691,0,0,1,1.95-3.146,15.856,15.856,0,0,1,1.813-1.519,8.271,8.271,0,0,0,1.65-1.456,6.384,6.384,0,0,0-3.162.14,9.28,9.28,0,0,0-4.678,3.356.867.867,0,0,1-1.449-.952,11.1,11.1,0,0,1,5.693-4.082c1.532-.4,3.555-.531,4.627.291a1.688,1.688,0,0,1,.687,1.338c.011.978-1.019,1.758-2.321,2.748A15.373,15.373,0,0,0,304.1,93.35a7.065,7.065,0,0,0-1.607,2.626l-.269.626a17.645,17.645,0,0,1-4.4,5.018A.868.868,0,0,1,297.3,101.794Z" transform="translate(-296.43 -87.323)"/></g><g transform="translate(300.662 91.02)"><path d="M289.9,99.89a.894.894,0,0,1-.118-.007.867.867,0,0,1-.741-.976,29.433,29.433,0,0,0-.585-7.264,12.96,12.96,0,0,0-2.127-5.239l-.247-.4a2.366,2.366,0,0,1-.068-2.909,3.075,3.075,0,0,1,3.309-.71,7.409,7.409,0,0,1,4.023,3.837.868.868,0,0,1-1.569.743,5.668,5.668,0,0,0-3.055-2.952,1.431,1.431,0,0,0-1.367.181c-.187.228.108.75.2.906l.246.4a14.613,14.613,0,0,1,2.35,5.8,30.6,30.6,0,0,1,.6,7.852A.867.867,0,0,1,289.9,99.89Z" transform="translate(-285.565 -82.185)"/></g><g transform="translate(294.91 95.055)"><path d="M283.225,104.362a.678.678,0,0,1-.1-.007.866.866,0,0,1-.757-.965c.264-2.186,1.89-4.043,3.2-5.537a9.108,9.108,0,0,0,1.507-2,9.06,9.06,0,0,0-.545-5.759c-.172-.413-.366-.8-.547-1.159-.583-1.166-1.134-2.267-.52-3.347a2.154,2.154,0,0,1,1.417-1.1,3.075,3.075,0,0,1,2.405.642,10.187,10.187,0,0,1,3.68,5.811.867.867,0,0,1-1.7.325,8.376,8.376,0,0,0-2.968-4.714,1.5,1.5,0,0,0-1.031-.373c-.043.011-.161.036-.292.267-.156.274.212,1.006.565,1.715.2.393.407.814.6,1.266.816,1.948,1.34,4.981.569,7.034A9.551,9.551,0,0,1,286.866,99c-1.211,1.379-2.583,2.945-2.782,4.6A.866.866,0,0,1,283.225,104.362Z" transform="translate(-282.358 -84.434)"/></g><g transform="translate(311.193 199.314)"><path d="M410.072,254.274H305.458a14.037,14.037,0,0,1-14.022-14.021V156.585a14.038,14.038,0,0,1,14.022-14.022H410.072A14.038,14.038,0,0,1,424.1,156.585v83.668A14.038,14.038,0,0,1,410.072,254.274ZM305.458,144.3a12.3,12.3,0,0,0-12.29,12.288v83.668a12.3,12.3,0,0,0,12.29,12.288H410.072a12.3,12.3,0,0,0,12.29-12.288V156.585a12.3,12.3,0,0,0-12.29-12.288Z" transform="translate(-291.436 -142.563)"/></g><g transform="translate(324.186 140.181)"><path d="M404.486,170.458a.869.869,0,0,1-.868-.868c0-31.58-23.629-58.261-51.6-58.261s-51.6,26.682-51.6,58.261a.867.867,0,1,1-1.734,0c0-32.52,24.427-60,53.338-60s53.334,27.476,53.334,60A.867.867,0,0,1,404.486,170.458Z" transform="translate(-298.68 -109.594)"/></g><g transform="translate(338.059 155.47)"><path d="M384.462,163.693a.633.633,0,0,1-.1-.007.867.867,0,0,1-.764-.958,1.891,1.891,0,0,0,.009-.246c0-23.109-17.278-42.63-37.727-42.63s-37.73,19.522-37.73,42.63a1.891,1.891,0,0,0,.009.246.867.867,0,0,1-1.724.2,3.63,3.63,0,0,1-.02-.441c0-24.049,18.072-44.365,39.464-44.365s39.461,20.316,39.461,44.365a3.63,3.63,0,0,1-.02.441A.866.866,0,0,1,384.462,163.693Z" transform="translate(-306.415 -118.118)"/></g><g transform="translate(136.78 122.846)"><path d="M210.067,106.194H195.06a.868.868,0,0,1-.775-1.256l2.265-4.531a.869.869,0,0,1,.775-.479h15.432a.866.866,0,0,1,.744,1.309l-2.69,4.531A.866.866,0,0,1,210.067,106.194Zm-13.6-1.734h13.109l1.663-2.8H197.862Z" transform="translate(-194.194 -99.929)"/></g><g transform="translate(144.354 114.459)"><path d="M201.69,105.374h-2.407a.866.866,0,0,1-.866-.866V97.323a2.07,2.07,0,1,1,4.14,0v7.185A.866.866,0,0,1,201.69,105.374Zm-1.541-1.734h.673V97.323c0-.371-.673-.371-.673,0Z" transform="translate(-198.417 -95.253)"/></g><g transform="translate(141.947 116.228)"><path d="M200.348,104.592h-2.407a.866.866,0,0,1-.866-.866V98.311a2.07,2.07,0,1,1,4.14,0v5.415A.866.866,0,0,1,200.348,104.592Zm-1.541-1.734h.674V98.311c0-.371-.674-.371-.674,0Z" transform="translate(-197.075 -96.239)"/></g><g transform="translate(93.106 186.016)"><path d="M215.73,219.387h-.011c-18.8-.212-44.983-7.6-45.245-7.678a.865.865,0,0,1-.626-.911c1.681-18.7,9.56-58.294,12.726-66.227a.867.867,0,0,1,1.611.644c-3.09,7.747-10.74,46.153-12.543,65.02,4.2,1.148,26.6,7.061,43.393,7.408,1.612-7.354,15.484-70.553,18.557-81.854a.867.867,0,0,1,1.673.456c-3.236,11.9-18.533,81.759-18.687,82.462A.865.865,0,0,1,215.73,219.387Z" transform="translate(-169.844 -135.149)"/></g><g transform="translate(184.911 204.245)"><path d="M229.751,170.191a.867.867,0,0,1-.818-.579c-3.777-10.74-6.349-18.322-7.865-23.175a.867.867,0,0,1,1.656-.517c1.508,4.834,4.075,12.4,7.845,23.116a.868.868,0,0,1-.529,1.107A.857.857,0,0,1,229.751,170.191Z" transform="translate(-221.029 -145.312)"/></g><g transform="translate(101.022 254.226)"><path d="M191.807,338.271a54.34,54.34,0,0,1-13.493-1.494,20.585,20.585,0,0,1-3.35-1.134.87.87,0,0,1-.488-.732c-1.666-29.445,6.74-145.1,8.086-150.528a.867.867,0,0,1,1.684.416c-1.333,5.37-9.6,119.271-8.068,149.475a23.718,23.718,0,0,0,2.576.825c4.323,1.117,13.823,2.6,28.809-.032,1.591-.274,3.167-.581,4.7-.915,1.031-11.4,12.663-138.38,21.168-160.414a.868.868,0,0,1,.8-.556.853.853,0,0,1,.811.545c.326.816,32.453,82.231,32.658,158.29.9.151,2.637.416,5.015.664a119.013,119.013,0,0,0,28.448-.413c2.021-.269,4.1-.619,6.331-1.067-.786-8.652-8.351-87.883-25.774-139.5a.866.866,0,1,1,1.641-.556c18.426,54.586,25.857,139.825,25.93,140.679a.867.867,0,0,1-.689.922c-2.565.533-4.922.938-7.2,1.243a120.656,120.656,0,0,1-28.868.418c-3.65-.382-5.774-.789-5.863-.807a.867.867,0,0,1-.7-.852c0-68.924-26.542-142.55-31.68-156.156-8.575,27.953-20.235,157.01-20.356,158.35a.866.866,0,0,1-.673.768c-1.752.393-3.569.753-5.4,1.067A92.856,92.856,0,0,1,191.807,338.271Z" transform="translate(-174.258 -173.179)"/></g><g transform="translate(152.343 174.767)"><path d="M224.109,164.415q-1.055,0-2.168-.079c-7.734-.551-13.1-1.6-18.506-3.628a.868.868,0,0,1,.608-1.625c4.432,1.661,9.192,2.895,18.022,3.524,7.962.567,13.072-2.3,13.4-3.6.221-.863.438-3.173.687-5.849.276-2.963.59-6.322,1.031-9.115.719-4.552,3.562-9.825,5.261-12.977.366-.68.68-1.261.906-1.715a.868.868,0,0,1,1.551.777c-.233.466-.556,1.064-.933,1.761-1.645,3.053-4.4,8.163-5.072,12.424-.432,2.739-.744,6.068-1.019,9.006a57.379,57.379,0,0,1-.732,6.116C236.575,161.678,231.452,164.415,224.109,164.415Z" transform="translate(-202.871 -128.877)"/></g><g transform="translate(103.942 416.108)"><path d="M216.115,279.363c-2.565,0-4.782-.161-5.679-.239-4.08-.346-10.347-.377-16.408-.407-7.269-.034-13.549-.065-15.351-.638-2.655-.845-3.406-5.388-2.3-13.89a.866.866,0,1,1,1.718.224c-1.354,10.39.5,11.822,1.1,12.012,1.551.493,8.3.527,14.835.558,6.095.031,12.4.061,16.546.414,7.641.655,14.428-.111,15.454-1.736a.641.641,0,0,0,.126-.6c-.378-1.114-3.528-2.269-5.612-3.031-.951-.35-1.844-.678-2.542-1-.748-.341-1.616-.7-2.552-1.082a41.75,41.75,0,0,1-9.567-4.965.866.866,0,1,1,1.058-1.372,40.5,40.5,0,0,0,9.167,4.733c.96.393,1.847.759,2.611,1.107.665.3,1.516.613,2.421.945,2.954,1.083,6.01,2.2,6.658,4.1a2.365,2.365,0,0,1-.3,2.084C226.058,278.873,220.563,279.363,216.115,279.363Z" transform="translate(-175.886 -263.434)"/></g><g transform="translate(197.937 413.317)"><path d="M268.4,278.22c-2.568,0-4.791-.165-5.687-.24-4.079-.348-10.342-.378-16.4-.407-7.275-.034-13.558-.065-15.36-.638-3.289-1.046-2.906-7.487-2.1-13.649l.032-.239a.857.857,0,0,1,.972-.75.868.868,0,0,1,.746.972l-.03.24c-.96,7.316-.655,11.276.9,11.773s8.308.527,14.842.558c6.091.03,12.39.059,16.539.413,7.637.649,14.428-.111,15.454-1.736a.653.653,0,0,0,.126-.6c-.38-1.116-3.533-2.271-5.619-3.037-.947-.346-1.838-.674-2.536-.992-.547-.248-1.168-.52-1.839-.813-3.148-1.372-7.458-3.254-10.561-5.644a.868.868,0,0,1,1.058-1.376c2.934,2.262,7.131,4.095,10.2,5.433.68.3,1.308.57,1.862.821.664.3,1.512.612,2.416.942,2.958,1.085,6.018,2.206,6.661,4.107a2.358,2.358,0,0,1-.3,2.084C278.33,277.728,272.844,278.22,268.4,278.22Z" transform="translate(-228.292 -261.878)"/></g><g transform="translate(205.666 23.837)"><path d="M239.6,69.274c-.075,0-.149,0-.222-.005-2.052-.1-3.88-1.528-5.146-4.028a17.53,17.53,0,0,1-1.605-8.584c.326-6.878,3.792-12.13,7.91-11.922,2.052.1,3.88,1.528,5.146,4.03a17.53,17.53,0,0,1,1.605,8.584,17.533,17.533,0,0,1-2.407,8.394C243.436,68.027,241.567,69.274,239.6,69.274Zm.719-22.811c-2.981,0-5.695,4.649-5.96,10.274a15.763,15.763,0,0,0,1.421,7.72c.972,1.921,2.278,3.015,3.68,3.081s2.8-.9,3.953-2.721a15.763,15.763,0,0,0,2.142-7.551,15.787,15.787,0,0,0-1.419-7.72c-.972-1.921-2.28-3.013-3.68-3.08C240.409,46.463,240.362,46.463,240.317,46.463Z" transform="translate(-232.601 -44.728)"/></g><g transform="translate(213.802 34.897)"><ellipse cx="3.645" cy="1.062" rx="3.645" ry="1.062" transform="translate(0 7.283) rotate(-87.296)"/></g><g transform="translate(195.019 37.189)"><path d="M238.263,54.412h-.041L227.492,53.9a.869.869,0,0,1-.827-.906.918.918,0,0,1,.908-.827l10.731.508a.867.867,0,0,1-.041,1.733Z" transform="translate(-226.665 -52.172)"/></g><g transform="translate(210.528 29.321)"><path d="M235.463,50.086a6.636,6.636,0,0,1,1.7-1.428,5.749,5.749,0,0,1,2.158-.848,2.979,2.979,0,0,1,.7-.007,3.445,3.445,0,0,1,1.808.737,3.3,3.3,0,0,1,1.162,2.314.87.87,0,0,1-1.715.256l0-.018a2.021,2.021,0,0,0-.59-1.159,1.607,1.607,0,0,0-.561-.287l-.359-.093a1.3,1.3,0,0,0-.287-.027,4.23,4.23,0,0,0-1.569.479,8.131,8.131,0,0,0-1.492.933l-.054.047a.638.638,0,0,1-.9-.9Z" transform="translate(-235.311 -47.785)"/></g><g transform="translate(204.792 55.447)"><path d="M233.574,62.964a4.352,4.352,0,0,0,1.32,1.847,9.186,9.186,0,0,0,2.118,1.381,10.42,10.42,0,0,0,4.984.986h.018a.867.867,0,0,1,.091,1.731,11.365,11.365,0,0,1-5.863-1.146,9.6,9.6,0,0,1-2.481-1.754,5.207,5.207,0,0,1-1.638-2.794.733.733,0,0,1,1.426-.335Z" transform="translate(-232.113 -62.351)"/></g><g transform="translate(358.393 217.777)"><path d="M336.881,226.994a10.221,10.221,0,0,1-10.211-10.209V188.142a19.129,19.129,0,1,1,20.422,0v28.642A10.221,10.221,0,0,1,336.881,226.994Zm0-72.4a17.382,17.382,0,0,0-8.9,32.321.875.875,0,0,1,.422.746v29.126a8.477,8.477,0,0,0,16.953,0V187.658a.87.87,0,0,1,.421-.744,17.383,17.383,0,0,0-8.9-32.322Z" transform="translate(-317.752 -152.857)"/></g><g transform="translate(189.54 38.269)"><path d="M223.927,53.131a2.964,2.964,0,0,1,2.884.039,3.113,3.113,0,0,1,1.069,1.117,3.065,3.065,0,0,1,.405,1.412.866.866,0,0,1-1.7.269l-.025-.088a1.817,1.817,0,0,0-.7-1.2,1.874,1.874,0,0,0-1.41-.353l-.126.013a.65.65,0,0,1-.4-1.205Z" transform="translate(-223.61 -52.774)"/></g></g></g></g></svg>